<?xml version="1.0" standalone="no"?>
<!DOCTYPE svg PUBLIC "-//W3C//DTD SVG 1.1//EN" "http://www.w3.org/Graphics/SVG/1.1/DTD/svg11.dtd" >
<svg xmlns="http://www.w3.org/2000/svg">
<metadata></metadata>
<defs>
<font id="pf_din_text_comp_proThIt" horiz-adv-x="3723" >
<font-face units-per-em="2048" ascent="1536" descent="-512" />
<missing-glyph horiz-adv-x="352" />
<glyph unicode="fj" horiz-adv-x="696" d="M-2 -303q57 309 115.5 615t117.5 618h-110l14 69h109l51 261q23 111 89.5 170t172.5 59q59 0 111.5 -17.5t99.5 -58.5l-55 -63q-37 35 -83 45t-81 10q-70 0 -112 -40t-54 -103l-51 -263h364l-229 -1177q-23 -111 -75 -173.5t-159 -62.5h-38l16 82h14q39 0 65.5 10.5 t44 30t28 48t18.5 65.5l215 1108h-281l-233 -1233h-84z" />
<glyph unicode="ffj" horiz-adv-x="1060" d="M-8 -303q59 309 118.5 615t120.5 618h-110l14 71h111l45 242q23 111 90.5 174.5t175.5 63.5q41 0 87 -9.5t97 -35.5q82 80 197 80q59 0 117.5 -18.5t101.5 -57.5l-51 -62q-41 33 -86 44.5t-80 11.5q-156 0 -186 -158l-56 -275h359l-223 -1157q-23 -117 -74 -186.5 t-170 -69.5h-33l14 82h17q41 0 68.5 12.5t44 34t26.5 53t18 72.5l211 1088h-274q-61 -311 -121.5 -617.5t-120.5 -615.5h-88q61 309 122 615t120 618h-279l-239 -1233h-84zM334 1001h280l56 285q4 16 9 36.5t15 39.5q-41 23 -81 29t-60 6q-78 0 -120 -44t-54 -110z" />
<glyph unicode="&#xfb00;" horiz-adv-x="757" d="M-6 -301q59 309 118.5 614t118.5 617h-110l14 69h109l53 258q25 121 86.5 173.5t167.5 52.5q31 0 83 -10.5t89 -34.5q33 41 81 61.5t105 22.5h27.5t30.5 -2l-15 -86q-4 2 -15 2h-15q-72 0 -117 -39t-55 -103l-56 -295h166l-14 -69h-166l-240 -1231h-86l238 1231h-277 l-237 -1231h-84zM326 999h280l45 244q4 27 11.5 59.5t23.5 67.5q-43 23 -83 28t-64 5q-76 0 -112 -43t-48 -109z" />
<glyph unicode="&#xfb01;" horiz-adv-x="696" d="M-8 -303l237 1233h-108l12 71h111l51 261q23 111 89.5 170t172.5 59q59 0 111.5 -17.5t99.5 -58.5l-55 -63q-37 35 -83 45t-81 10q-70 0 -112 -40t-54 -103l-51 -263h366l-192 -1001h-86l180 930h-283l-239 -1233h-86z" />
<glyph unicode="&#xfb02;" horiz-adv-x="737" d="M-4 -305l235 1235h-112l14 71h113l49 252q23 125 82 188.5t170 63.5q41 0 100.5 -9t138.5 -42l-235 -1235q-2 -12 -4 -32.5t-2 -32.5q0 -41 24.5 -64.5t102.5 -23.5l-15 -80q-104 0 -154 34.5t-50 118.5q2 16 3 35t5 39l227 1180q-35 14 -70.5 20t-66.5 6q-82 0 -120 -46 t-54 -132l-45 -240h184l-14 -71h-185l-235 -1235h-86z" />
<glyph unicode="&#xfb03;" horiz-adv-x="1060" d="M-10 -305l237 1235h-110l14 71h111l45 242q23 111 90 174.5t176 63.5q41 0 87 -9.5t97 -35.5q82 80 197 80q59 0 117.5 -18.5t101.5 -57.5l-51 -62q-41 33 -86 44.5t-80 11.5q-156 0 -186 -158l-56 -275h371l-195 -1001h-88l181 930h-283l-238 -1235h-86l240 1235h-281 l-239 -1235h-86zM330 1001h280l56 285q4 16 9 36.5t15 39.5q-41 23 -81 29t-60 6q-78 0 -120 -44t-54 -110z" />
<glyph unicode="&#xfb04;" horiz-adv-x="1101" d="M-4 -303l235 1233h-110l14 71h111l45 242q23 111 90.5 174.5t175.5 63.5q41 0 87 -9t97 -36q74 76 187 75q41 0 97 -11t126 -40l-236 -1241q-2 -12 -4 -32.5t-2 -32.5q0 -41 24.5 -64.5t102.5 -23.5l-14 -80q-104 0 -154.5 34.5t-50.5 118.5q2 16 3 35t5 39l230 1192 q-35 14 -71 20.5t-66 6.5q-74 0 -116 -48.5t-59 -134.5l-49 -248h207l-12 -71h-207l-238 -1233h-86l236 1233h-277l-235 -1233h-86zM332 1001h276l51 261q4 23 13.5 51.5t21.5 48.5q-41 23 -81 29t-60 6q-78 0 -120 -44t-54 -110z" />
<glyph unicode="ft" horiz-adv-x="788" d="M-4 -297q59 307 117.5 612.5t117.5 614.5h-110l14 69h109l49 261q23 121 87 175t173 54q10 0 20.5 -1t20.5 -1l-16 -82h-37q-78 0 -113 -43t-47 -102q-14 -66 -26.5 -130.5t-24.5 -130.5h278l56 283h88l-56 -283h148l-13 -69h-149q-33 -174 -66.5 -347t-66.5 -347 q-4 -33 -5 -62t9 -49.5t33.5 -32.5t70.5 -12h19l-14 -80h-33q-86 0 -131 41t-45 119q0 31 6 65q35 178 68.5 352.5t68.5 352.5h-281l-237 -1227h-82z" />
<glyph horiz-adv-x="0" />
<glyph horiz-adv-x="682" />
<glyph unicode=" "  horiz-adv-x="352" />
<glyph unicode="&#x09;" horiz-adv-x="352" />
<glyph unicode="&#xa0;" horiz-adv-x="352" />
<glyph unicode="!" horiz-adv-x="407" d="M72 0l18 100h100l-18 -100h-100zM147 328q47 266 101.5 547.5t101.5 549.5h94q-55 -268 -112.5 -549.5t-110.5 -547.5h-74z" />
<glyph unicode="&#x22;" horiz-adv-x="389" d="M207 1077l67 348h74l-69 -348h-72zM365 1077l67 348h72l-68 -348h-71z" />
<glyph unicode="#" horiz-adv-x="722" d="M-43 0l174 457h-119l11 61h131l151 397h-110l12 64h123l178 459h67l-178 -459h238l176 459h68l-177 -459h119l-12 -64h-131l-154 -397h109l-10 -61h-121l-174 -457h-66l174 457h-239l-172 -457h-68zM219 518h238l153 397h-237z" />
<glyph unicode="$" horiz-adv-x="722" d="M8 236q0 33 6 67l92 12q-6 -35 -6 -71q0 -66 36 -115t126 -57l125 643q-66 35 -107.5 67.5t-66.5 66.5t-35 69.5t-10 74.5q0 190 93 312t267 133l35 182h58l-37 -184q68 -4 113.5 -24.5t75.5 -53.5t42 -73t12 -83q0 -18 -2 -37.5t-6 -40.5l-92 -16q4 18 6 37.5t2 36.5 q0 66 -36.5 113.5t-131.5 54.5l-110 -564l26 -12q117 -53 161 -114.5t44 -151.5q0 -113 -22.5 -207t-68.5 -163.5t-120 -109.5t-174 -42l-39 -199h-57l39 201q-127 10 -182.5 80.5t-55.5 167.5zM260 1008q0 -59 32 -103.5t116 -91.5l104 537q-74 -8 -122 -46t-77.5 -90.5 t-41 -107.5t-11.5 -98zM317 72q80 6 132.5 44t85 96t46 128.5t13.5 142.5q0 74 -35 119t-121 88z" />
<glyph unicode="%" horiz-adv-x="1126" d="M92 -35l934 1497h70l-934 -1497h-70zM109 723q0 4 7 42t17 93t22.5 119.5t23.5 124t20.5 105.5t13.5 63q16 78 62.5 120t130.5 42q41 0 74.5 -12.5t56 -35t32 -55.5t0.5 -72l-100 -530q-16 -78 -60 -120t-135 -42q-74 0 -125 41t-40 117zM184 735q-8 -41 15.5 -72.5 t81.5 -31.5q55 0 80.5 30.5t31.5 67.5l99 533q8 39 -16.5 70.5t-78.5 31.5q-53 0 -76.5 -27.5t-31.5 -68.5zM639 150q0 4 7 41.5t17.5 93t22.5 120t23.5 124t20.5 105.5t13 62q16 78 62.5 120t130.5 42q41 0 74.5 -12t56.5 -35t32 -55.5t1 -71.5l-101 -530q-16 -78 -60 -120 t-134 -42q-74 0 -125 41t-41 117zM715 162q-8 -41 15.5 -73t80.5 -32q55 0 81 31t32 68l98 532q8 39 -16.5 71t-77.5 32t-77 -28t-32 -69z" />
<glyph unicode="&#x26;" horiz-adv-x="929" d="M66 279q4 137 85.5 262t235.5 235l-29 80q-25 61 -41 136t-14 147q2 61 21.5 114.5t56.5 94.5t94 64.5t137 23.5q72 0 138.5 -30t95.5 -91l-82 -45q-16 43 -62.5 65.5t-95.5 22.5q-57 0 -98 -18.5t-66.5 -49t-38 -71.5t-12.5 -84q-4 -59 10.5 -124t36.5 -128l226 -582 q43 66 70.5 134.5t43.5 133.5h82q-20 -82 -64 -179t-98 -175l88 -215h-92l-59 150q-96 -102 -178 -133t-154 -31q-111 0 -177.5 76.5t-59.5 216.5zM150 281q-2 -41 7 -81t30.5 -71t57.5 -49.5t85 -18.5t128 38t146 120l-188 483q-78 -59 -128 -115.5t-81 -109.5t-43 -102 t-14 -94z" />
<glyph unicode="'" horiz-adv-x="284" d="M233 1077l68 348h74l-68 -348h-74z" />
<glyph unicode="(" horiz-adv-x="442" d="M119 317q0 154 32.5 310.5t91 306t139.5 284t175 244.5l37 -18q-184 -256 -290.5 -553t-106.5 -606q0 -137 20.5 -263t54.5 -237l-41 -21q-51 111 -81.5 251.5t-30.5 301.5z" />
<glyph unicode=")" horiz-adv-x="442" d="M-12 -213q86 117 158.5 255t126 287.5t83 305.5t29.5 309q0 133 -19.5 260t-58.5 240l45 18q53 -111 82 -250t29 -292q0 -154 -34 -315t-94.5 -313.5t-141 -287.5t-175.5 -240z" />
<glyph unicode="*" horiz-adv-x="673" d="M203 1186l39 80l209 -99l34 254h82l-63 -254l246 99l12 -80l-252 -72l119 -203l-76 -45l-90 219l-176 -221l-60 47l195 203z" />
<glyph unicode="+" horiz-adv-x="722" d="M59 563l15 74h291l63 321h72l-64 -321h293l-14 -74h-293l-62 -323h-71l61 323h-291z" />
<glyph unicode="," horiz-adv-x="276" d="M-45 -193l74 189h-27q6 27 11 55.5t12 57.5h108q-6 -29 -11 -56.5t-11 -54.5l-103 -191h-53z" />
<glyph unicode="-" horiz-adv-x="657" d="M123 545l16 84h482l-19 -84h-479z" />
<glyph unicode="." horiz-adv-x="276" d="M2 0l23 113h106l-20 -113h-109z" />
<glyph unicode="/" horiz-adv-x="473" d="M-86 -86l684 1571h72l-686 -1571h-70z" />
<glyph unicode="0" horiz-adv-x="722" d="M62.5 161q-7.5 52 5.5 111q2 16 16 87t32.5 167.5t40 206t40 205.5t32 166t17.5 86q25 123 101.5 185.5t191.5 62.5q59 0 107 -19.5t80 -56.5t44 -87t0 -112l-180 -921q-27 -139 -107 -197.5t-194 -58.5q-70 0 -118 22.5t-74.5 61.5t-34 91zM154 272q-16 -88 18.5 -145 t126.5 -57q80 0 134 49t71 131l180 919q16 80 -27 133.5t-125 53.5q-84 0 -133 -44t-65 -120z" />
<glyph unicode="1" horiz-adv-x="722" d="M317 2l258 1327l-249 -155l18 98l246 153h92l-276 -1423h-89z" />
<glyph unicode="2" horiz-adv-x="722" d="M14 0l17 82l547 790q53 78 82.5 153t29.5 159q0 72 -36 122t-119 50q-33 0 -69 -13.5t-66.5 -41t-52 -70.5t-28.5 -103l-86 19q16 141 100.5 216t205.5 75q119 0 180 -64.5t61 -173.5q2 -117 -43 -207t-102 -174l-508 -735h428l-14 -84h-527z" />
<glyph unicode="3" horiz-adv-x="722" d="M63 199v30.5t5 32.5l88 14q-2 -16 -3 -31.5t-1 -29.5q0 -66 32.5 -107.5t112.5 -41.5q86 0 139 52t72 150q14 72 31.5 153t17.5 144q0 59 -28.5 97t-106.5 38h-55l16 84h59q72 0 126.5 42t74.5 151l37 176q6 25 6 49q0 59 -36 105.5t-113 46.5q-98 0 -147.5 -57.5 t-65.5 -153.5l-88 16q51 279 315 279q61 0 104 -17.5t69 -46t37 -67.5t11 -84q0 -37 -6 -74l-25 -125q-8 -39 -19 -82t-30.5 -82t-52.5 -69.5t-84 -47.5v-2q53 -18 72.5 -57t21.5 -88q0 -29 -4 -59.5t-10 -65.5q-12 -78 -27.5 -164t-49.5 -157.5t-96.5 -117.5t-170.5 -46 q-94 0 -159.5 49t-68.5 164z" />
<glyph unicode="4" horiz-adv-x="722" d="M20 248l17 80l508 1097h86l-508 -1097h332l77 399h86l-77 -399h116l-16 -80h-115l-47 -246h-88l47 246h-418z" />
<glyph unicode="5" horiz-adv-x="722" d="M72 270l88 9q-4 -43 0 -82t19.5 -69t45 -46t76.5 -16q78 0 135.5 51t73.5 137l72 369q8 35 8 69q0 137 -146 137q-51 0 -102 -23.5t-78 -64.5h-80l133 684h502l-14 -77h-424l-98 -510h6q78 68 194 67q98 0 147.5 -51t49.5 -133q0 -10 -1 -21.5t-3 -23.5q-4 -23 -7 -43.5 t-7 -42.5q-16 -86 -33 -169t-33 -169q-23 -121 -96.5 -193.5t-206.5 -72.5q-117 0 -174.5 71.5t-46.5 212.5z" />
<glyph unicode="6" horiz-adv-x="722" d="M59 197v20.5t4 20.5q8 55 19.5 119.5t28.5 142.5q14 68 32.5 115t40.5 87q104 180 208 360.5t210 362.5h88l-385 -675q2 -2 4 -2q29 23 73 39t81 16q88 0 141 -49t53 -136q0 -25 -8 -65l-59 -313q-25 -133 -103.5 -192.5t-207.5 -59.5q-100 0 -160 56t-60 153zM147 219 q0 -63 37 -107t111 -44t131.5 44t73.5 126q18 96 33.5 169.5t25.5 137.5q6 25 6 47q0 59 -36.5 94t-112.5 35q-43 0 -79 -17.5t-63.5 -45t-45 -63.5t-25.5 -73q0 -4 -1 -7t-1 -7l-49 -248q-2 -10 -3.5 -20.5t-1.5 -20.5z" />
<glyph unicode="7" horiz-adv-x="722" d="M84 0l643 1348h-379l-35 -177h-80l50 254h548l-14 -73l-647 -1352h-86z" />
<glyph unicode="8" horiz-adv-x="722" d="M57 190q0 27 6 58l52 276q16 78 59 135.5t109 81.5q-45 18 -66.5 63.5t-21.5 98.5q0 12 1 24.5t3 24.5l39 197q29 135 103.5 212t205.5 77q106 0 167.5 -56.5t61.5 -144.5q0 -25 -6 -51l-35 -191q-8 -41 -21.5 -82t-34 -75.5t-50 -61t-68.5 -39.5q47 -18 67.5 -61 t20.5 -94q0 -29 -6 -56l-49 -260q-27 -137 -99.5 -208.5t-211.5 -71.5q-98 0 -162 55t-64 149zM150 217q0 -59 33.5 -104t109.5 -45q84 0 136 39.5t71 132.5l57 288q6 25 6 45q0 55 -36.5 92t-114.5 37q-76 0 -134.5 -45t-72.5 -120l-49 -261q-6 -29 -6 -59zM283 911 q0 -59 38.5 -95t108.5 -36q74 0 133.5 49.5t75.5 126.5l41 209q6 25 6 47q0 59 -35.5 100.5t-113.5 41.5t-132.5 -47t-70.5 -123l-47 -234q-2 -10 -3 -19t-1 -20z" />
<glyph unicode="9" horiz-adv-x="722" d="M141 0l385 676q-2 2 -4 2q-29 -23 -72.5 -39t-80.5 -16q-88 0 -140.5 49t-52.5 135q0 14 1 28.5t5 36.5l60 314q25 133 103.5 192.5t207.5 59.5q100 0 159.5 -56.5t59.5 -152.5v-20.5t-4 -20.5q-8 -55 -19.5 -119.5t-27.5 -142.5q-14 -68 -32.5 -115t-41.5 -88 q-104 -180 -207.5 -360.5t-210.5 -362.5h-88zM266 834q0 -59 37 -94t113 -35q43 0 78.5 17t63.5 45t45.5 63.5t25.5 72.5q0 4 1 7t1 8l49 247q2 10 3 20.5t1 20.5q0 63 -37 107.5t-110 44.5q-74 0 -131.5 -44t-73.5 -126q-18 -96 -33.5 -170t-26.5 -137q-6 -25 -6 -47z" />
<glyph unicode=":" horiz-adv-x="276" d="M4 0l21 113h108l-20 -113h-109zM125 627l22 114h109l-23 -114h-108z" />
<glyph unicode=";" horiz-adv-x="276" d="M-45 -193l74 189h-27q6 27 11 55.5t12 57.5h108q-6 -29 -11 -56.5t-11 -54.5l-103 -191h-53zM125 627l20 112h109l-21 -112h-108z" />
<glyph unicode="&#x3c;" horiz-adv-x="722" d="M61 567l13 68l721 362l-13 -84l-643 -317l518 -317l-16 -74z" />
<glyph unicode="=" horiz-adv-x="722" d="M29 408l14 75h655l-14 -75h-655zM86 705l14 73h656l-15 -73h-655z" />
<glyph unicode="&#x3e;" horiz-adv-x="722" d="M-8 205l16 86l641 315l-518 318l14 73l582 -362l-12 -68z" />
<glyph unicode="?" horiz-adv-x="702" d="M193 1143q31 141 115.5 218t219.5 77t200 -71t65 -185q0 -63 -9.5 -112.5t-24 -88.5t-32.5 -67.5t-35 -51.5q-66 -88 -109.5 -139t-68.5 -84q-49 -66 -69.5 -146.5t-36.5 -164.5h-86q8 41 14 84t17.5 86t30.5 85t50 81q59 74 108.5 135t85.5 119.5t56.5 118t20.5 130.5 q0 92 -45.5 139.5t-145.5 47.5q-76 0 -143.5 -54.5t-91.5 -173.5zM254 0l18 100h101l-21 -100h-98z" />
<glyph unicode="@" horiz-adv-x="1513" d="M139 467q0 211 58.5 389t166 308t258 203t334.5 73q127 0 225.5 -38t165 -105.5t101.5 -162t35 -206.5q0 -158 -34 -275.5t-88 -195.5t-124 -116t-139 -38q-10 0 -37 3t-56.5 15.5t-54 38t-30.5 68.5q-53 -68 -109.5 -88.5t-95.5 -20.5q-100 0 -151.5 47.5t-51.5 125.5 q0 47 9 115.5t22 133.5q16 92 38.5 161t56.5 115t82 68.5t118 22.5q55 0 98 -27.5t65 -68.5h3l16 84h76l-101 -574q-2 -10 -3 -19t-1 -20q0 -47 26.5 -77.5t88.5 -30.5q57 0 112.5 37t98.5 107.5t68.5 173t25.5 233.5q0 106 -34 188t-95 139.5t-145 87t-185 29.5 q-180 0 -317 -72.5t-230.5 -194.5t-140.5 -281.5t-47 -336.5q0 -227 120 -359t370 -132q86 0 176 16.5t180 59.5l27 -66q-92 -35 -188.5 -57.5t-194.5 -22.5q-272 0 -420 135.5t-148 407.5zM594 502q0 -53 36 -81t95 -28q43 0 78 17.5t60.5 47t42 65.5t22.5 73l41 225 q6 27 6 53q0 63 -28.5 112.5t-110.5 49.5q-59 0 -93 -23.5t-61 -70.5q-12 -25 -27.5 -80t-29 -120.5t-22.5 -131t-9 -108.5z" />
<glyph unicode="A" horiz-adv-x="770" d="M-61 0l589 1425h101l43 -1425h-84l-10 373h-398l-153 -373h-88zM211 455h364l-12 491l-4 352h-6l-141 -356z" />
<glyph unicode="B" horiz-adv-x="839" d="M25 0l276 1425h283q154 0 221 -69.5t67 -192.5q0 -158 -59 -262t-176 -149v-4q72 -25 100.5 -81.5t28.5 -136.5q0 -131 -34 -230t-92 -165.5t-137 -100.5t-169 -34h-309zM127 82h215q92 0 156.5 38t105.5 99.5t59.5 140t18.5 158.5q0 94 -47 144.5t-152 50.5h-233z M264 791h164h45.5t44.5 2q125 8 196.5 106t71.5 248q0 98 -51 148.5t-174 50.5h-186z" />
<glyph unicode="C" horiz-adv-x="790" d="M63 233q0 41 11 99l135 692l22 111q31 143 124.5 223t222.5 80q141 0 210.5 -63.5t69.5 -178.5q0 -33 -8 -66q-23 -4 -45.5 -8t-44.5 -8q4 20 7 37.5t3 34.5q0 80 -47 125t-139 45q-111 0 -179.5 -69.5t-91.5 -178.5l-153 -786q-4 -20 -6 -39t-2 -35q0 -86 47 -135.5 t139 -49.5q223 0 268 248l86 -20q-31 -164 -123 -234.5t-235 -70.5q-137 0 -204 64.5t-67 182.5z" />
<glyph unicode="D" horiz-adv-x="827" d="M23 0l278 1425h291q131 0 204.5 -55t73.5 -170v-12q0 -74 -22 -186q-24 -122 -53 -287q-16 -88 -30.5 -169t-30 -151.5t-32 -126t-34.5 -92.5q-31 -55 -65 -90t-72.5 -54.5t-85 -25.5t-101.5 -6h-321zM127 80h223q125 0 191.5 68.5t91.5 197.5q35 186 70.5 369.5 t72.5 369.5q8 39 8 76q0 11 -1 23q-3 48 -23.5 83.5t-61.5 57t-108 21.5h-217z" />
<glyph unicode="E" horiz-adv-x="727" d="M25 0l276 1425h582l-19 -82h-491l-111 -571h434l-16 -80h-434l-119 -610h494l-15 -82h-581z" />
<glyph unicode="F" horiz-adv-x="722" d="M27 0l276 1425h580l-17 -82h-491l-111 -571h434l-16 -80h-434l-133 -692h-88z" />
<glyph unicode="G" horiz-adv-x="808" d="M63 221q0 23 2.5 47.5t10.5 61.5l155 796q12 68 40 124.5t72 98.5t103.5 65.5t137.5 23.5q147 0 211.5 -71t64.5 -193q-2 -14 -2 -27.5t-4 -28.5q-23 -4 -44.5 -7t-43.5 -7q4 20 6 38.5t2 37.5q0 80 -47 127t-143 47q-100 0 -170 -52.5t-99 -193.5l-155 -799 q-6 -35 -6 -63q0 -82 47 -131t135 -49q113 0 186.5 59t91.5 170l74 362h-176l16 80h265q-23 -111 -43.5 -221t-42.5 -221q-31 -160 -131.5 -234.5t-237.5 -74.5q-55 0 -104.5 12t-87 40t-60.5 73t-23 110z" />
<glyph unicode="H" horiz-adv-x="843" d="M25 0l276 1425h88l-129 -655h455l129 655h88l-277 -1425h-88l133 690h-452l-135 -690h-88z" />
<glyph unicode="I" horiz-adv-x="356" d="M51 0l277 1425h90l-277 -1425h-90z" />
<glyph unicode="J" horiz-adv-x="688" d="M-41 74l59 57q27 -27 77 -46t98 -19q41 0 77.5 8t68.5 32.5t55.5 67.5t35.5 113l223 1138h88l-221 -1136q-16 -84 -42.5 -141.5t-67.5 -93.5t-96.5 -52t-129.5 -16q-63 0 -126.5 25.5t-98.5 62.5z" />
<glyph unicode="K" horiz-adv-x="813" d="M25 0l276 1425h86l-162 -831h4l609 831h98l-408 -565l193 -860h-92l-168 770l-273 -371l-77 -399h-86z" />
<glyph unicode="L" horiz-adv-x="681" d="M27 0l276 1425h88l-262 -1343h467l-14 -82h-555z" />
<glyph unicode="M" horiz-adv-x="1089" d="M20 0l277 1425h86q23 -123 43 -243.5t41 -243.5l80 -453h6q66 117 129 228.5t129 228.5l274 483h93l-277 -1425h-86l229 1176h-6l-235 -410l-248 -434h-63l-68 364l-82 469h-8l-225 -1165h-89z" />
<glyph unicode="N" horiz-adv-x="882" d="M20 0l277 1425h82l272 -1187h6l232 1187h86l-277 -1425h-84l-270 1198h-6q-57 -301 -114.5 -599t-117.5 -599h-86z" />
<glyph unicode="O" horiz-adv-x="825" d="M70 248q0 45 8 86l151 784q29 154 126.5 237t240.5 83q129 0 199.5 -69t70.5 -191q0 -43 -8 -84l-151 -799q-16 -88 -50 -147.5t-81.5 -95.5t-106.5 -51t-129 -15q-131 0 -200.5 71.5t-69.5 190.5zM156 264q0 -88 46 -143t142 -55q111 0 179.5 51t90.5 174l156 805 q8 33 8 71q0 86 -48 137.5t-140 51.5q-57 0 -104.5 -19.5t-82 -53.5t-57 -79t-33.5 -96l-151 -774q-6 -37 -6 -70z" />
<glyph unicode="P" horiz-adv-x="790" d="M25 2l276 1423h264q174 0 243 -74.5t69 -201.5q0 -121 -27 -220.5t-82 -171t-141 -110.5t-205 -39h-191l-118 -606h-88zM246 688h178q182 0 273 116t91 322q0 100 -50 160t-189 60h-174z" />
<glyph unicode="Q" horiz-adv-x="823" d="M68 244q0 23 2 45t6 45l153 796q29 154 126.5 231t240.5 77q135 0 203.5 -66.5t68.5 -185.5q0 -20 -2 -43t-6 -45l-153 -803q-10 -57 -30 -101t-42 -79l98 -88l-57 -60l-98 88q-47 -39 -105.5 -54t-130.5 -15q-135 0 -204.5 69.5t-69.5 188.5zM154 260q0 -90 48 -142 t142 -52q109 0 170 47l-121 108l58 60l118 -107q29 41 45 117l158 807q4 18 6 35.5t2 33.5q0 86 -49 137.5t-141 51.5q-117 0 -185.5 -65.5t-89.5 -170.5l-155 -788q-6 -37 -6 -72z" />
<glyph unicode="R" horiz-adv-x="813" d="M25 0l276 1425h264q170 0 241 -69.5t71 -200.5q0 -199 -78 -320.5t-232 -162.5q10 -78 23.5 -165l27 -174t25.5 -172t25 -161h-90l-95 655q-18 -2 -36.5 -2h-36.5h-172l-125 -653h-88zM252 729h186q160 0 255 104.5t95 309.5q0 98 -51 150.5t-188 52.5h-176 q-29 -156 -59.5 -308.5t-61.5 -308.5z" />
<glyph unicode="S" horiz-adv-x="774" d="M37 233q0 33 6 70l92 12q-4 -18 -6 -36.5t-2 -34.5q0 -72 43 -123t152 -51q86 0 143 36.5t93 95t50.5 133.5t14.5 148q0 80 -42 126t-141 96q-74 37 -121 70.5t-74.5 68.5t-37.5 71.5t-10 77.5q0 98 25.5 179t74.5 140.5t120 92.5t163 33q76 0 129 -19.5t85.5 -52.5 t47 -76t14.5 -88q0 -18 -2 -37.5t-6 -40.5l-92 -16q8 35 8 76q0 70 -43 120t-152 50q-84 0 -137 -38t-86 -91.5t-45 -112.5t-12 -104q0 -35 10 -64t35.5 -56.5t68.5 -55t107 -58.5q119 -53 162 -114.5t43 -151.5q0 -115 -22.5 -210t-71 -165t-123 -108.5t-179.5 -38.5 q-76 0 -129 18.5t-86.5 52t-50 78.5t-16.5 98z" />
<glyph unicode="T" horiz-adv-x="653" d="M186 1343l19 82h631l-19 -82h-270l-260 -1343h-86l258 1343h-273z" />
<glyph unicode="U" horiz-adv-x="804" d="M59 295q0 4 15.5 83t39 196.5t51.5 256t52.5 262.5t43 215t22.5 115h86q-2 -14 -13.5 -68.5t-28 -135t-36 -179t-39 -199t-38.5 -196.5t-33.5 -171t-24 -121t-9.5 -48q-4 -26 -4 -51q0 -72 36 -122q48 -66 155 -66q109 0 178.5 57t95.5 186l223 1114h91l-226 -1116 q-18 -90 -52 -151.5t-81 -99.5t-106.5 -54t-126.5 -16q-72 0 -127.5 21.5t-90 62.5t-48.5 97q-9 33 -9 72q0 27 4 56z" />
<glyph unicode="V" horiz-adv-x="774" d="M219 1425h84l14 -905l2 -383h7l155 389l363 899h94l-584 -1425h-110z" />
<glyph unicode="W" horiz-adv-x="1191" d="M184 0l37 1425h86l-26 -802l-21 -463h6l172 454l310 811h83l-10 -817l-8 -448h6l158 448l293 817h90l-516 -1425h-105l4 834l7 376h-7l-141 -381l-315 -829h-103z" />
<glyph unicode="X" horiz-adv-x="710" d="M-72 0l437 725l-152 698h92l123 -602l352 602h103l-426 -698l159 -725h-92l-125 623l-368 -623h-103z" />
<glyph unicode="Y" horiz-adv-x="716" d="M215 1425h86q4 -33 13.5 -96t20.5 -138t23.5 -155t22.5 -147.5t16 -115.5t9 -60h6l379 712h96l-455 -823l-115 -602h-88l117 602z" />
<glyph unicode="Z" horiz-adv-x="622" d="M-57 0l14 82l723 1261h-438l16 82h528l-16 -79l-723 -1264h455l-15 -82h-544z" />
<glyph unicode="[" horiz-adv-x="403" d="M2 -221l320 1646h239l-14 -65h-156l-295 -1516h156l-10 -65h-240z" />
<glyph unicode="\" horiz-adv-x="442" d="M219 1468h72q10 -385 20.5 -765.5t20.5 -763.5h-72q-10 383 -20.5 763.5t-20.5 765.5z" />
<glyph unicode="]" horiz-adv-x="403" d="M-31 -221l11 65h157l295 1516h-156l13 65h237l-319 -1646h-238z" />
<glyph unicode="^" horiz-adv-x="722" d="M82 770l440 651h70l186 -651h-71l-162 573l-379 -573h-84z" />
<glyph unicode="_" horiz-adv-x="1024" d="M-129 -246l14 76h1022l-14 -76h-1022z" />
<glyph unicode="`" horiz-adv-x="700" d="M436 1438l86 51l162 -336l-43 -27z" />
<glyph unicode="a" horiz-adv-x="747" d="M51 178q0 61 13.5 159.5t33.5 199.5q25 119 51.5 209t65.5 150t94.5 90t132.5 30q76 0 129.5 -31t75.5 -80h4q4 23 9.5 47.5t9.5 46.5h86q-49 -252 -97.5 -500.5t-95.5 -498.5h-88q4 29 11.5 55.5t11.5 55.5q-2 0 -2 1t-2 1q-47 -59 -102.5 -92t-141.5 -33 q-92 0 -145.5 48t-53.5 142zM143 205q0 -68 41 -101.5t105 -33.5q53 0 97 23.5t76 59t51 81t26 88.5l73 374q6 31 6 63q0 12 -1 23q-3 43 -20 76t-53 53.5t-91 20.5q-141 0 -193 -137q-10 -25 -31.5 -101t-42.5 -176q-18 -92 -30.5 -176t-12.5 -137z" />
<glyph unicode="b" horiz-adv-x="712" d="M0 0l289 1487h86l-117 -602h4q47 61 109.5 96t136.5 35q55 0 93 -15.5t61.5 -42t34 -63.5t10.5 -78q-2 -66 -15.5 -161t-36.5 -201q-10 -53 -22 -111.5t-31 -120.5q-23 -72 -54.5 -118t-70.5 -72.5t-81 -35.5t-81 -9q-82 0 -132 27.5t-72 78.5h-5l-20 -94h-86zM137 233 q0 -72 43 -117.5t121 -45.5q74 0 119 30.5t80 104.5q16 35 34.5 107.5t34.5 164.5q8 43 16.5 90t14.5 91t10 81t4 60v6q-12 127 -143 127q-53 0 -97 -23.5t-76 -60.5t-52.5 -82t-28.5 -88l-76 -393q-4 -14 -4 -26.5v-25.5z" />
<glyph unicode="c" horiz-adv-x="677" d="M41 188q0 41 13.5 119t35.5 193q12 59 25.5 121.5t27.5 119.5q16 59 38 109.5t56.5 87.5t89 57.5t136.5 20.5q109 0 173 -52.5t64 -150.5q0 -27 -6 -57l-92 -11q4 16 6 29.5t2 28.5q0 61 -39 96t-116 35q-94 0 -147.5 -52.5t-76.5 -144.5q-16 -72 -33.5 -153.5 t-32.5 -157.5t-24.5 -136.5t-9.5 -90.5v-15q6 -53 45 -84.5t111 -31.5q86 0 142 46t77 140l90 -16q-29 -129 -109.5 -190.5t-205.5 -61.5q-68 0 -113 16t-73.5 44t-41 64.5t-12.5 77.5z" />
<glyph unicode="d" horiz-adv-x="712" d="M37 186q0 25 4 67t11 87t14.5 89t13.5 75q27 121 51.5 216t62 160.5t94 100.5t146.5 35q45 0 79 -12.5t57.5 -30t39 -38t23.5 -38.5h4q29 147 57.5 294.5t57.5 295.5h86l-289 -1487h-86q4 23 8 46.5t8 47.5h-4q-43 -51 -95 -78.5t-136 -27.5q-35 0 -72 8t-66.5 30.5 t-49 60.5t-19.5 99zM131 215q0 -78 39 -111.5t113 -33.5q92 0 154.5 63.5t80.5 151.5l78 405q6 33 6 64q0 12 -1 24q-3 43 -21.5 77t-53 54.5t-92.5 20.5q-49 0 -89 -16.5t-69 -63.5q-31 -45 -57 -135t-53 -223q-16 -86 -25.5 -161t-9.5 -116z" />
<glyph unicode="e" horiz-adv-x="718" d="M57 242q0 55 9.5 118.5t19.5 124.5q18 100 43 196.5t66 171.5t106.5 120t165.5 45q127 0 186.5 -56.5t59.5 -148.5q0 -94 -32 -164.5t-86 -117t-126 -69t-150 -22.5q-23 0 -61.5 3t-85.5 14q-10 -51 -19.5 -105.5t-9.5 -97.5q0 -35 6.5 -68.5t23.5 -60.5t48 -42t78 -15 q86 0 142.5 48t74.5 132l88 -17q-29 -117 -106.5 -180t-206.5 -63q-68 0 -112 19.5t-71.5 54t-39 80.5t-11.5 100zM184 537q31 -8 74 -12.5t72 -4.5q55 0 107 15.5t94 49t68 87t26 127.5q0 61 -42 100t-124 39q-104 0 -168 -94t-107 -307z" />
<glyph unicode="f" horiz-adv-x="403" d="M-168 -258l16 78h23q88 0 126 40t54 132l180 934h-120l14 73h121l51 261q23 109 81 168t165 61h27.5t29.5 -2l-16 -82q-6 2 -19 2q-94 0 -131 -41t-49 -106q-12 -66 -24.5 -130.5t-26.5 -130.5h166l-15 -73h-166l-184 -959q-20 -109 -74.5 -168t-169.5 -61h-28.5t-30.5 4 z" />
<glyph unicode="g" horiz-adv-x="729" d="M-14 -172l82 20v-17q0 -163 149 -163q92 0 150.5 58.5t76.5 152.5l50 240h-5q-47 -61 -110.5 -96t-134.5 -35q-104 0 -151.5 52t-47.5 134v16q0 62 13 148q14 98 36 209q10 55 23.5 112.5t32.5 118.5q20 72 51.5 118t70.5 72.5t80 37t82 10.5q82 0 132 -29t73 -80 q2 0 2 1t2 1q6 23 11 46.5t10 48.5h86l-222 -1139q-29 -141 -108.5 -210t-202.5 -69q-111 0 -174 62q-58 58 -58 160q0 10 1 20zM137 211q0 -70 37 -105.5t105 -35.5q51 0 94 22.5t75.5 59t54 82t29.5 90.5l78 393q5 25 5 48q0 17 -3 34q-6 39 -26.5 68.5t-54 48t-82.5 18.5 q-74 0 -119 -31t-80 -106q-16 -35 -32.5 -108t-35.5 -165q-8 -43 -16 -87t-14.5 -86t-10.5 -78.5t-4 -61.5z" />
<glyph unicode="h" horiz-adv-x="733" d="M4 0l289 1487h88l-119 -610h4q51 70 117 104.5t133 34.5q57 0 95 -15.5t60.5 -43t32 -63.5t9.5 -75q0 -23 -3 -47t-8 -49l-139 -723h-90l141 719q4 16 6.5 34.5t2.5 34.5q0 57 -29 98.5t-113 41.5q-43 0 -86 -22.5t-77.5 -57.5t-60.5 -79t-34 -87l-131 -682h-88z" />
<glyph unicode="i" horiz-adv-x="317" d="M31 0l192 1001h90l-194 -1001h-88zM270 1245l19 98h92l-19 -98h-92z" />
<glyph unicode="j" horiz-adv-x="305" d="M-193 -406l15 80h16q43 0 69.5 12.5t44 34t28 53t18.5 72.5l225 1155h88q-4 -23 -16 -84t-28.5 -148t-37 -190.5t-41 -210t-41 -207t-37 -181t-27.5 -135t-13 -64.5q-25 -98 -78 -143.5t-152 -45.5h-15t-18 2zM270 1245l19 98h92l-19 -98h-92z" />
<glyph unicode="k" horiz-adv-x="708" d="M4 0l289 1489h88l-209 -1061h2l477 573h105l-305 -370l165 -631h-90l-141 557l-242 -297l-51 -260h-88z" />
<glyph unicode="l" horiz-adv-x="344" d="M49 139q2 16 3 35t5 39l248 1274h88l-246 -1268q-2 -12 -3 -25.5t-1 -25.5q0 -41 23.5 -71.5t101.5 -30.5l-14 -80q-104 0 -154.5 34.5t-50.5 118.5z" />
<glyph unicode="m" horiz-adv-x="1181" d="M10 0q49 250 98.5 500t96.5 501h88l-25 -124h4q49 66 109.5 102.5t132.5 36.5q94 0 135 -42t51 -108q66 84 132.5 117t132.5 33q55 0 92 -15.5t58.5 -42t30.5 -61.5t9 -74q0 -53 -12 -108l-139 -715h-91l140 715q10 47 10 84q0 53 -26.5 91t-104.5 38q-47 0 -88 -19.5 t-73 -51.5t-54.5 -72t-30.5 -83l-135 -702h-88l139 717q10 45 10 82q0 53 -26.5 91t-104.5 38q-49 0 -91 -21.5t-73.5 -55.5t-54 -77t-31.5 -88l-133 -686h-88z" />
<glyph unicode="n" horiz-adv-x="731" d="M2 0q49 250 98.5 500t96.5 501h88q-6 -31 -13.5 -62.5t-11.5 -61.5h4q51 70 116.5 104.5t133.5 34.5q57 0 95 -15.5t60.5 -43t32 -63.5t9.5 -75q0 -45 -11 -102l-139 -717h-90l139 709q4 23 7.5 42t3.5 42q0 55 -29 95t-113 40q-55 0 -99 -24.5t-78 -64.5t-56.5 -89.5 t-30.5 -98.5l-125 -651h-88z" />
<glyph unicode="o" horiz-adv-x="714" d="M45 197q0 27 3 61.5t8 74.5t11.5 81t14.5 78q29 135 53.5 232t63.5 161q80 131 258 131q63 0 107 -18.5t73 -49t42 -68.5t13 -75v-14q0 -55 -13 -137q-15 -92 -36 -195q-25 -129 -52.5 -219t-67.5 -146.5t-98 -82t-146 -25.5q-66 0 -110 19.5t-71.5 50t-40 67.5t-12.5 74 zM131 211q0 -59 36 -103.5t126 -44.5q68 0 118 31t81 101q14 37 34.5 111.5t39 160.5t30.5 171t12 144q0 70 -41.5 113t-117.5 43q-53 0 -103.5 -21.5t-85.5 -85.5q-23 -41 -46.5 -138t-51.5 -234q-31 -166 -31 -248z" />
<glyph unicode="p" horiz-adv-x="714" d="M-88 -403l274 1411h88l-18 -95l4 -2q45 51 97.5 80t134.5 29q35 0 71.5 -8t66 -31t49 -61.5t19.5 -100.5q0 -25 -4 -66.5t-10 -86.5t-13 -89.5t-14 -74.5q-25 -121 -50 -216.5t-63 -161t-95.5 -100t-147.5 -34.5q-45 0 -79 12t-57.5 29.5t-37.5 38t-23 39.5h-4l-100 -512 h-88zM135 268q0 -74 43 -132t127 -58q55 0 95 24.5t70 77.5t53.5 136t45.5 198q16 86 25.5 161t9.5 116q0 78 -44 111.5t-107 33.5q-92 0 -154.5 -63.5t-79.5 -151.5l-80 -404q-2 -12 -3 -24t-1 -25z" />
<glyph unicode="q" horiz-adv-x="733" d="M49 168q0 61 9.5 142t24.5 165t33.5 164t37.5 139q23 70 52.5 115t65 71.5t77.5 37t91 10.5q84 0 133.5 -29t71.5 -80h4q4 25 9.5 47.5t9.5 46.5h86q-66 -352 -133.5 -700t-135.5 -698h-88l101 514h-4q-47 -61 -109.5 -95t-136.5 -34q-104 0 -151.5 53t-47.5 131z M141 201q0 -70 40 -102.5t104 -32.5q49 0 92 22.5t75.5 58t55 80.5t31.5 90l75 396q4 23 4 45q0 19 -3 37q-7 39 -27.5 68.5t-54 47t-78.5 17.5q-70 0 -117 -31t-82 -104q-16 -31 -31.5 -94.5t-31.5 -145.5q-20 -98 -36 -195.5t-16 -156.5z" />
<glyph unicode="r" horiz-adv-x="479" d="M31 0l194 1001h88l-28 -143h4q47 82 111.5 121t142.5 39h20t21 -2l-21 -103q-12 4 -25.5 4.5t-25.5 0.5q-102 0 -173 -74t-95 -203l-125 -641h-88z" />
<glyph unicode="s" horiz-adv-x="659" d="M14 180q0 27 6 62l89 12q-4 -12 -4.5 -25.5t-0.5 -25.5q0 -61 39 -98t117 -37q123 0 176 71.5t53 182.5q0 59 -31.5 94t-119.5 71q-123 51 -164 105.5t-41 122.5q0 133 81 218t235 85q115 0 175 -49t60 -142q0 -16 -2 -32.5t-6 -34.5l-90 -15q6 31 6 54q0 63 -41 99 t-119 36q-59 0 -99 -18.5t-64.5 -48t-35 -66.5t-10.5 -72q0 -53 37 -91t141 -79q106 -41 142.5 -95t36.5 -128q0 -76 -18.5 -140.5t-58.5 -110.5t-101.5 -72.5t-147.5 -26.5q-117 0 -178.5 50t-61.5 144z" />
<glyph unicode="t" horiz-adv-x="444" d="M102 168q0 27 7 57l137 705h-115l14 71h115q14 72 27.5 140.5t25.5 140.5h88q-12 -72 -25.5 -140.5t-27.5 -140.5h152l-15 -71h-151l-133 -674q-6 -31 -6 -61q0 -25 3 -45.5t15 -36t35.5 -24.5t62.5 -9h21q-4 -20 -8.5 -41t-8.5 -39h-24q-98 0 -143.5 46t-45.5 122z" />
<glyph unicode="u" horiz-adv-x="733" d="M49 180q0 27 3 51.5t7 51.5l140 718h90l-139 -710q-4 -20 -6.5 -41t-2.5 -39q0 -59 30 -99t110 -40q55 0 100 25.5t78 65.5t54.5 89t31.5 98l125 651h88l-195 -1001h-88q6 31 13.5 61.5t11.5 61.5h-4q-51 -68 -117 -102.5t-133 -34.5q-57 0 -95 15t-60.5 42t-32 62.5 t-9.5 74.5z" />
<glyph unicode="v" horiz-adv-x="634" d="M96 1001h88l37 -595q4 -61 5 -132v-29q0 -59 -3 -124h4q100 203 201.5 433t179.5 447h94q-96 -256 -205.5 -499.5t-240.5 -501.5h-98z" />
<glyph unicode="w" horiz-adv-x="1075" d="M98 1001h90l21 -610q2 -66 3 -126v-25q0 -51 -3 -113h6q45 92 91 199.5t91 221.5t88 229.5t84 223.5h105l18 -577q2 -68 3 -144v-22q0 -66 -5 -131h6q94 197 188.5 424t170.5 450h92q-90 -262 -194.5 -506.5t-235.5 -494.5h-96l-21 629q0 51 -1 109v40q0 40 1 82h-4 q-72 -209 -167 -432t-193 -428h-97z" />
<glyph unicode="x" horiz-adv-x="600" d="M-70 0l334 514l-129 487h98l97 -411l258 411h106l-327 -489l149 -512h-98l-111 430l-274 -430h-103z" />
<glyph unicode="y" horiz-adv-x="645" d="M-125 -338q51 6 93 22.5t79 52.5t71 93t70 145l-84 1026h91l43 -595q4 -68 9 -156q3 -49 3 -93q0 -35 -2 -67h4q43 84 92 192.5t100.5 229.5t98.5 247t88 242h94q-61 -168 -118.5 -310t-116 -272t-119 -258t-127.5 -265q-29 -61 -64 -116.5t-78 -97.5t-98 -68t-127 -28z " />
<glyph unicode="z" horiz-adv-x="598" d="M-53 0l16 80l582 844h-379l14 75h477l-14 -75l-582 -844h410l-16 -80h-508z" />
<glyph unicode="{" horiz-adv-x="436" d="M92 588l10 51q47 12 80 43t54.5 74t34 93t22.5 99l53 277q18 88 68.5 144t134.5 56h49l-12 -57h-23q-41 0 -67.5 -17.5t-43 -44t-25.5 -58t-13 -58.5l-56 -281q-25 -127 -76 -201.5t-100 -91.5v-2q47 -16 66.5 -88.5t-2.5 -191.5l-60 -314q-6 -33 -8 -65.5t5 -59 t25.5 -43t55.5 -16.5h25l-13 -59h-40q-84 0 -115 60.5t-15 154.5l56 291q27 131 19.5 206.5t-89.5 98.5z" />
<glyph unicode="|" horiz-adv-x="360" d="M152 -332v1798h67v-1798h-67z" />
<glyph unicode="}" horiz-adv-x="436" d="M-57 -223q2 16 4 29.5t6 29.5h20q74 0 105 52.5t49 154.5l49 264q8 51 25.5 101.5t40 91.5t51.5 68.5t61 31.5v2q-31 12 -49 41t-24.5 69t-3 87t13.5 94l55 281q6 27 9 60.5t-2 63t-23.5 50t-57.5 20.5h-26l12 57h41q49 0 78 -19.5t43 -54t12 -80.5t-14 -97l-43 -222 q-8 -41 -15.5 -87t-7.5 -87q0 -57 18.5 -98t71.5 -53l-12 -54q-45 -10 -74.5 -35.5t-51 -63.5t-36 -90t-26.5 -116l-56 -288q-27 -111 -76 -157t-128 -46h-39z" />
<glyph unicode="~" horiz-adv-x="722" d="M37 471q39 47 90.5 77t108.5 30q47 0 84.5 -14.5t72.5 -33t67 -33t66 -14.5q35 0 68 13.5t76 60.5l47 -35q-39 -53 -90.5 -82.5t-110.5 -29.5q-39 0 -73.5 14t-69.5 30.5t-72 31t-78 14.5q-35 0 -66.5 -14.5t-72.5 -53.5z" />
<glyph unicode="&#xa1;" horiz-adv-x="407" d="M4 -424q55 268 112.5 549t110.5 547h74q-47 -266 -101.5 -547t-103.5 -549h-92zM258 899l18 102h101l-19 -102h-100z" />
<glyph unicode="&#xa2;" horiz-adv-x="722" d="M31 188q0 41 13 119t36 193q12 59 25.5 121.5t27.5 119.5q16 57 36.5 105.5t53.5 85.5t83 58.5t126 25.5l45 225h53l-45 -227q94 -8 149.5 -59.5t55.5 -141.5q0 -27 -6 -57l-92 -11q4 16 6 29.5t2 28.5q0 55 -32.5 90t-98.5 39l-168 -864q158 12 195 186l90 -16 q-29 -127 -106 -187.5t-195 -64.5l-41 -219h-56l43 221q-113 10 -156.5 67.5t-43.5 132.5zM121 184q4 -49 35.5 -79.5t91.5 -36.5l168 864q-80 -8 -126 -59.5t-69 -135.5q-16 -72 -33.5 -153.5t-33 -157.5t-24.5 -136.5t-9 -90.5v-15z" />
<glyph unicode="&#xa3;" horiz-adv-x="722" d="M-59 0l12 80q92 129 156.5 272.5t80.5 309.5h-129l17 75h121q0 86 -9.5 174t-9.5 154q0 84 24.5 152.5t68.5 117.5t107.5 77t141.5 28q115 0 188.5 -59.5t73.5 -186.5q0 -14 -2 -34.5t-6 -39.5q-23 -4 -44 -7t-44 -7q6 43 6 80q0 172 -176 172q-63 0 -109.5 -23.5 t-77 -64.5t-45 -96.5t-14.5 -118.5t8.5 -133t8.5 -148v-37h219l-16 -75h-211q-25 -178 -82.5 -316.5t-141.5 -263.5h492l-17 -82h-591z" />
<glyph unicode="&#xa4;" horiz-adv-x="1009" d="M131 344l111 111q-72 88 -72 204q0 119 72 209l-109 107l55 57l109 -110q88 76 209 75q115 0 207 -73l106 108l55 -57l-106 -107q74 -92 74 -209q0 -115 -74 -204l20.5 -20.5t34 -35t33.5 -34t21 -19.5q-10 -10 -29 -28.5t-29 -28.5l-106 108q-88 -72 -207 -71 q-59 0 -111.5 18t-97.5 53l-20.5 -20.5t-35 -34.5t-33.5 -34.5t-20 -20.5q-16 16 -34.5 35.5t-22.5 21.5zM252 659q0 -53 19.5 -99t55 -81t82 -55.5t99.5 -20.5q51 0 98 20.5t82 55.5t55.5 81t20.5 99t-20.5 100.5t-55.5 82.5t-81 55.5t-99 20.5t-99.5 -20.5t-82 -55.5 t-55 -82.5t-19.5 -100.5z" />
<glyph unicode="&#xa5;" horiz-adv-x="722" d="M74 371q4 16 7 30.5t7 30.5h234q8 37 15 75t13 75h-233q4 16 6 30.5t4 30.5h221l-108 782h86q8 -72 16 -143.5t18 -142.5q12 -106 25.5 -214t24.5 -218h6q92 180 183 359t183 359h90q-104 -199 -206.5 -392t-206.5 -390h233q-2 -16 -5 -30.5t-5 -30.5h-248l-28 -150h247 q-4 -16 -7 -30.5t-7 -30.5h-248l-72 -371h-81l71 371h-235z" />
<glyph unicode="&#xa6;" horiz-adv-x="360" d="M152 -332v842h67v-842h-67zM152 621v845h67v-845h-67z" />
<glyph unicode="&#xa7;" horiz-adv-x="841" d="M25 -66q10 16 23 31t24 31q47 -41 96 -57.5t108 -16.5q131 0 205 66.5t74 167.5q0 33 -9 63.5t-34 62t-65.5 65.5t-102.5 75q-94 61 -142 120.5t-48 131.5q0 51 18 96t49 81t72 63.5t86 48.5q-47 47 -67.5 91t-20.5 97q0 125 87.5 206t239.5 81q80 0 138.5 -23.5 t109.5 -71.5q-14 -16 -27.5 -30.5t-29.5 -28.5q-43 41 -92 59.5t-103 18.5q-55 0 -99 -16.5t-74.5 -44t-47 -64.5t-16.5 -76q0 -47 30.5 -89t75.5 -80t99.5 -76.5t99.5 -80.5t75.5 -91.5t30.5 -108.5q0 -88 -57 -162t-153 -131q35 -41 50 -85t15 -87q0 -76 -27.5 -136.5 t-77 -102.5t-117 -64.5t-147.5 -22.5q-66 0 -134 25t-115 65zM240 686q0 -49 32.5 -91t77.5 -78t93.5 -65.5t78.5 -52.5q78 35 129 99.5t51 128.5q0 78 -67.5 144t-196.5 140q-35 -12 -69.5 -33.5t-63.5 -50t-47 -64.5t-18 -77z" />
<glyph unicode="&#xa8;" horiz-adv-x="702" d="M307 1198l19 98h86l-21 -98h-84zM606 1198l19 98h84l-19 -98h-84z" />
<glyph unicode="&#xa9;" horiz-adv-x="1439" d="M117 698q0 154 40 285t117.5 228.5t192.5 151.5t266 54q150 0 264.5 -54t193.5 -151.5t120 -228.5t41 -285t-41 -283.5t-120 -226t-193.5 -150.5t-264.5 -54q-152 0 -266.5 54t-192 150.5t-117.5 226.5t-40 283zM188 698q0 -139 37 -257.5t106.5 -206t171 -136.5 t230.5 -49q131 0 233.5 49t171 137.5t104.5 206t36 256.5t-36 259t-105.5 207t-171 137.5t-232.5 50.5q-135 0 -237.5 -51.5t-171 -140.5t-102.5 -207.5t-34 -254.5zM512 485v396q0 109 65.5 165t157.5 56q45 0 85 -13.5t70 -40t47 -67.5t17 -94l-69 -15q0 78 -41 120 t-111 42q-66 0 -106.5 -42t-40.5 -101v-414q0 -61 41 -101t106 -40q68 0 108 41t42 117l71 -13q0 -104 -64.5 -158.5t-154.5 -54.5q-45 0 -85 13.5t-70.5 40t-49 67.5t-18.5 96z" />
<glyph unicode="&#xaa;" horiz-adv-x="501" d="M106 702q0 41 9.5 99.5t19.5 107.5q10 51 19.5 91t23.5 90q25 84 84.5 119.5t122.5 35.5q47 0 81 -16.5t50 -42.5l10 49h78l-131 -662h-78q4 14 7.5 27.5t5.5 30.5q-63 -68 -156 -68q-70 0 -108 36t-38 103zM190 727q0 -90 89 -90q53 0 91 31.5t54 72.5q4 10 8 22.5 t6 22.5l49 252l3.5 17.5t1.5 15.5q0 45 -27 72.5t-78 27.5q-47 0 -84 -27.5t-49 -74.5q-6 -23 -16.5 -62.5t-20.5 -93.5q-12 -61 -19.5 -108t-7.5 -78z" />
<glyph unicode="&#xab;" horiz-adv-x="692" d="M86 475l293 381h90l-293 -383l141 -379h-88zM338 475l293 381h90l-291 -383l139 -379h-88z" />
<glyph unicode="&#xac;" horiz-adv-x="722" d="M59 563l15 74h653l-76 -397h-71l61 323h-582z" />
<glyph unicode="&#xad;" horiz-adv-x="657" d="M123 545l16 84h482l-19 -84h-479z" />
<glyph unicode="&#xae;" horiz-adv-x="995" d="M113 1006q0 96 25.5 178t74.5 142t122 94t169 34q92 0 163.5 -34t120 -94t74 -142t25.5 -178t-25.5 -177t-75 -140.5t-120 -93.5t-162.5 -34q-94 0 -167 34t-123 93.5t-75.5 140t-25.5 177.5zM172 1010q0 -86 22.5 -158t64.5 -124t103.5 -81t141.5 -29q82 0 142.5 31 t100 84t59 124t19.5 153t-21.5 153.5t-62.5 123.5t-101 83t-136 31q-84 0 -145.5 -31t-103.5 -83t-62.5 -123.5t-20.5 -153.5zM373 737v533h125q72 0 110.5 -39t38.5 -119q0 -41 -16.5 -81t-63.5 -62l47 -123q10 -27 20.5 -54.5t20.5 -54.5h-69q-18 55 -39 112.5t-41 113.5 h-72v-226h-61zM434 1014h64q49 0 67.5 27.5t18.5 70.5q0 47 -21.5 73.5t-70.5 26.5h-58v-198z" />
<glyph unicode="&#xaf;" horiz-adv-x="722" d="M305 1206l17 80h423l-16 -80h-424z" />
<glyph unicode="&#xb0;" horiz-adv-x="575" d="M111 1235q0 39 14 73.5t39.5 60.5t59.5 40t73 14t74 -14t60.5 -40t39.5 -60.5t14 -73.5q0 -80 -54 -135.5t-134 -55.5q-39 0 -73 14.5t-59.5 41t-39.5 60.5t-14 75zM170 1235q0 -55 37 -92t90 -37t90 37t37 92q0 53 -37 91t-90 38t-90 -38t-37 -91z" />
<glyph unicode="&#xb1;" horiz-adv-x="722" d="M-35 84l15 72h655l-14 -72h-656zM59 563l15 74h291l63 321h72l-64 -321h293l-14 -74h-293l-62 -323h-71l61 323h-291z" />
<glyph unicode="&#xb2;" horiz-adv-x="471" d="M86 758l12 63l342 457q33 41 52.5 88t21.5 88q0 39 -21.5 65.5t-74.5 26.5q-43 0 -76 -30.5t-49 -102.5l-78 14q20 90 74.5 139.5t140.5 49.5q82 0 124 -41t38 -113q-2 -59 -28.5 -116.5t-63.5 -104.5q-8 -10 -32 -42t-55.5 -75t-67.5 -90t-67.5 -90t-55 -73.5 t-32.5 -41.5h273l-12 -71h-365z" />
<glyph unicode="&#xb3;" horiz-adv-x="471" d="M117 934l84 10q-16 -53 3 -89t77 -36q59 0 82.5 30t33.5 79l27 129q10 51 -4 81.5t-68 30.5h-53l12 68h51q41 0 75 22.5t42 79.5l19 95q6 41 -10.5 76.5t-75.5 35.5q-53 0 -86 -38t-37 -91l-80 10q14 86 67.5 137.5t145.5 51.5q49 0 82 -15.5t50 -41t22.5 -58.5t-1.5 -65 l-12 -70q-10 -45 -26.5 -90t-73.5 -72q41 -23 45 -62.5t-6 -86.5l-31 -154q-14 -66 -60 -108.5t-130 -42.5q-86 0 -133.5 49t-30.5 135z" />
<glyph unicode="&#xb4;" horiz-adv-x="700" d="M442 1159l197 309l86 -34l-238 -295z" />
<glyph unicode="&#xb6;" horiz-adv-x="827" d="M178 1038q6 84 32 164t72 142.5t115.5 100.5t165.5 38h412l-19 -99h-102q-76 -389 -149.5 -775t-151.5 -775h-90q78 389 151.5 775t149.5 775h-133l-301 -1550h-90q43 225 86 449.5t88 451.5q-131 12 -188.5 92t-47.5 211z" />
<glyph unicode="&#xb7;" horiz-adv-x="276" d="M111 483l22 115h109l-23 -115h-108z" />
<glyph unicode="&#xb8;" horiz-adv-x="882" d="M59 -387l31 49q31 -16 60.5 -21.5t54.5 -5.5q49 0 83 28t34 73q0 37 -27 60.5t-72 23.5h-10l-27 24l82 172h58l-70 -145q82 -6 109.5 -46t27.5 -89q0 -59 -49 -108.5t-137 -49.5q-41 0 -79 8t-69 27z" />
<glyph unicode="&#xb9;" horiz-adv-x="401" d="M225 1432l19 84l164 92h69l-168 -850h-71l149 766z" />
<glyph unicode="&#xba;" horiz-adv-x="493" d="M104 702q0 39 7.5 100.5t20.5 125t29.5 122t35.5 91.5q29 47 70.5 75.5t113.5 28.5q49 0 84 -13t56.5 -34.5t30.5 -49.5t9 -54q0 -41 -8 -99.5t-21 -120.5q-16 -84 -35.5 -143t-47 -97t-67.5 -55.5t-95 -17.5q-96 0 -139.5 44t-43.5 97zM184 723q0 -37 22.5 -63.5 t78.5 -26.5q51 0 78.5 21.5t48.5 62.5q12 25 25.5 73t22.5 102t15 106.5t6 86.5q0 45 -28.5 65.5t-73.5 20.5q-37 0 -68.5 -16t-48.5 -51q-12 -25 -26.5 -78t-25.5 -112.5t-18.5 -112.5t-7.5 -78z" />
<glyph unicode="&#xbb;" horiz-adv-x="823" d="M121 94l293 383l-144 379h86q39 -96 75 -190.5t73 -190.5l-295 -381h-88zM375 94l295 383q-37 94 -74 188.5t-72 190.5h88q37 -96 73 -190.5t75 -190.5l-295 -381h-90z" />
<glyph unicode="&#xbc;" horiz-adv-x="1126" d="M92 -35l934 1497h70l-934 -1497h-70zM266 1247l19 84l164 92h69l-168 -850h-71l149 766zM578 141l12 64l317 645h80l-317 -637h192l45 231h74l-45 -231h76l-15 -72h-75l-27 -141h-74l27 141h-270z" />
<glyph unicode="&#xbd;" horiz-adv-x="1126" d="M63 -35l934 1497h70l-934 -1497h-70zM285 1247l18 84l164 92h70l-168 -850h-72l149 766zM582 0l12 63l342 457q33 41 52.5 88t21.5 88q0 39 -22 65.5t-75 26.5q-43 0 -75.5 -30.5t-49.5 -102.5l-77 15q20 90 74.5 139t140.5 49q82 0 124 -41t37 -112q-2 -59 -28.5 -117 t-63.5 -105q-8 -10 -31.5 -41.5t-55 -74.5t-67.5 -90.5t-68 -90.5t-55.5 -73.5t-31.5 -40.5h272l-12 -72h-364z" />
<glyph unicode="&#xbe;" horiz-adv-x="1126" d="M92 -35l934 1497h70l-934 -1497h-70zM104 750l84 10q-16 -53 3.5 -89t76.5 -36q59 0 83 29.5t34 78.5l27 129q10 51 -4.5 82t-67.5 31h-53l12 68h51q41 0 75 22.5t42 79.5l18 94q6 41 -10 77t-76 36q-53 0 -85.5 -38t-37.5 -91l-79 10q14 86 67 137.5t146 51.5 q49 0 81.5 -15.5t50 -41t22.5 -58.5t-1 -66l-12 -69q-10 -45 -26.5 -90t-73.5 -72q41 -23 45 -62.5t-7 -87.5l-30 -153q-14 -66 -60.5 -109t-130.5 -43q-86 0 -133 49.5t-31 135.5zM561 141l12 64l318 645h80l-318 -637h193l45 231h74l-45 -231h75l-14 -72h-76l-26 -141h-74 l26 141h-270z" />
<glyph unicode="&#xbf;" horiz-adv-x="702" d="M27 -201q0 74 10 128.5t26.5 95t37 70.5t40.5 57q51 61 91 107t70 88t49.5 84t31.5 97l31 150h86l-35 -166q-4 -18 -10 -43t-15.5 -50.5t-20.5 -50t-26 -42.5q-59 -72 -109.5 -130.5t-87 -113.5t-57 -113.5t-20.5 -128.5q0 -92 45 -139t143 -47q76 0 143.5 54t92.5 173 l86 -16q-29 -141 -115 -218t-221 -77q-127 0 -192.5 64.5t-73.5 166.5zM451 903l18 101h98l-18 -101h-98z" />
<glyph unicode="&#xc0;" horiz-adv-x="770" d="M-61 0l589 1425h101l43 -1425h-84l-10 373h-398l-153 -373h-88zM211 455h364l-12 491l-4 352h-6l-141 -356zM311 1669l49 78l258 -211l-24 -43z" />
<glyph unicode="&#xc1;" horiz-adv-x="770" d="M-61 0l589 1425h101l43 -1425h-84l-10 373h-398l-153 -373h-88zM211 455h364l-12 491l-4 352h-6l-141 -356zM553 1532l303 215l53 -74l-329 -182z" />
<glyph unicode="&#xc2;" horiz-adv-x="770" d="M-61 0l589 1425h101l43 -1425h-84l-10 373h-398l-153 -373h-88zM211 455h364l-12 491l-4 352h-6l-141 -356zM311 1536l275 211h65l187 -207l-37 -35l-191 156l-266 -158z" />
<glyph unicode="&#xc3;" horiz-adv-x="770" d="M-61 0l589 1425h101l43 -1425h-84l-10 373h-398l-153 -373h-88zM211 455h364l-12 491l-4 352h-6l-141 -356zM328 1559q35 53 81 84.5t89 31.5q31 0 57.5 -12t52 -25.5t51 -26t56.5 -12.5q29 0 57.5 18.5t56.5 59.5l50 -28q-35 -70 -85.5 -98.5t-91.5 -28.5 q-31 0 -58.5 12t-53 25.5t-50 25.5t-51.5 12q-25 0 -54 -18t-56 -51z" />
<glyph unicode="&#xc4;" horiz-adv-x="770" d="M-61 0l589 1425h101l43 -1425h-84l-10 373h-398l-153 -373h-88zM211 455h364l-12 491l-4 352h-6l-141 -356zM393 1522l19 96h86l-19 -96h-86zM692 1522l19 96h84l-17 -96h-86z" />
<glyph unicode="&#xc5;" horiz-adv-x="770" d="M-61 0l589 1425h101l43 -1425h-84l-10 373h-398l-153 -373h-88zM211 455h364l-12 491l-4 352h-6l-141 -356zM455 1602q0 41 16 76.5t44 62t63.5 42t74.5 15.5q59 0 98.5 -38t39.5 -97q0 -41 -16.5 -77t-44.5 -62.5t-64.5 -43t-77.5 -16.5q-59 0 -96 39t-37 99zM510 1610 q0 -39 24.5 -65.5t63.5 -26.5q27 0 51.5 11t43 29.5t29.5 42t11 50.5q0 39 -25.5 65.5t-64.5 26.5q-25 0 -48.5 -10.5t-41.5 -28.5t-30.5 -43t-12.5 -51z" />
<glyph unicode="&#xc6;" horiz-adv-x="1275" d="M-23 0l789 1425h641l-10 -82h-494l-80 -571h434l-12 -80h-434l-84 -606h494l-13 -86h-579l53 391h-395l-217 -391h-93zM330 473h362l123 868h-4z" />
<glyph unicode="&#xc7;" horiz-adv-x="790" d="M63 233q0 41 11 99l135 692l22 111q31 143 124.5 223t222.5 80q141 0 210.5 -63.5t69.5 -178.5q0 -33 -8 -66q-23 -4 -45.5 -8t-44.5 -8q4 20 7 37.5t3 34.5q0 80 -47 125t-139 45q-111 0 -179.5 -69.5t-91.5 -178.5l-153 -786q-4 -20 -6 -39t-2 -35q0 -86 47 -135.5 t139 -49.5q223 0 268 248l86 -20q-29 -156 -114.5 -227.5t-219.5 -77.5q-14 -29 -27.5 -57.5t-25.5 -57.5q82 -6 109.5 -46t27.5 -89q0 -59 -49 -108.5t-137 -49.5q-41 0 -79 8t-68 27l30 49q31 -16 60.5 -21.5t54.5 -5.5q49 0 83 28t34 73q0 37 -27 60.5t-72 23.5h-10 l-26 24q16 35 33.5 72t33.5 72q-123 8 -181.5 70.5t-58.5 174.5z" />
<glyph unicode="&#xc8;" horiz-adv-x="727" d="M25 0l276 1425h582l-19 -82h-491l-111 -571h434l-16 -80h-434l-119 -610h494l-15 -82h-581zM338 1669l49 78l258 -211l-24 -43z" />
<glyph unicode="&#xc9;" horiz-adv-x="727" d="M25 0l276 1425h582l-19 -82h-491l-111 -571h434l-16 -80h-434l-119 -610h494l-15 -82h-581zM518 1532l303 215l53 -74l-329 -182z" />
<glyph unicode="&#xca;" horiz-adv-x="727" d="M25 0l276 1425h582l-19 -82h-491l-111 -571h434l-16 -80h-434l-119 -610h494l-15 -82h-581zM326 1536l274 211h66l186 -207l-37 -35l-190 156l-267 -158z" />
<glyph unicode="&#xcb;" horiz-adv-x="727" d="M25 0l276 1425h582l-19 -82h-491l-111 -571h434l-16 -80h-434l-119 -610h494l-15 -82h-581zM391 1522l19 96h86l-19 -96h-86zM690 1522l19 96h84l-17 -96h-86z" />
<glyph unicode="&#xcc;" horiz-adv-x="356" d="M51 0l277 1425h90l-277 -1425h-90zM104 1669l50 78l258 -211l-25 -43z" />
<glyph unicode="&#xcd;" horiz-adv-x="356" d="M51 0l277 1425h90l-277 -1425h-90zM362 1532l304 215l53 -74l-330 -182z" />
<glyph unicode="&#xce;" horiz-adv-x="356" d="M51 0l277 1425h90l-277 -1425h-90zM117 1536l274 211h66l186 -207l-37 -35l-190 156l-266 -158z" />
<glyph unicode="&#xcf;" horiz-adv-x="356" d="M51 0l277 1425h90l-277 -1425h-90zM197 1522l18 96h86l-18 -96h-86zM496 1522l18 96h84l-16 -96h-86z" />
<glyph unicode="&#xd0;" horiz-adv-x="827" d="M23 0l141 725h-131q4 16 7 34.5t7 35.5h131l123 630h291q131 0 204.5 -55t73.5 -170q2 -76 -21.5 -197.5t-53.5 -287.5q-16 -88 -30.5 -169t-30 -151.5t-32 -126t-34.5 -92.5q-31 -55 -65 -90t-72.5 -54.5t-85 -25.5t-101.5 -6h-321zM127 80h223q125 0 191.5 68.5 t91.5 197.5q35 186 70.5 369.5t72.5 369.5q10 51 7 98.5t-23.5 83.5t-61.5 57.5t-108 21.5h-217l-109 -551h195l-17 -70h-190z" />
<glyph unicode="&#xd1;" horiz-adv-x="882" d="M20 0l277 1425h82l272 -1187h6l232 1187h86l-277 -1425h-84l-270 1198h-6q-57 -301 -114.5 -599t-117.5 -599h-86zM367 1540q35 53 81 85t89 32q31 0 57.5 -12.5t52 -25.5t51 -25.5t56.5 -12.5q29 0 57.5 18.5t56.5 59.5l50 -29q-35 -70 -85.5 -98.5t-91.5 -28.5 q-31 0 -58.5 12.5t-53 25.5t-50 25.5t-51.5 12.5q-25 0 -54.5 -18.5t-55.5 -51.5z" />
<glyph unicode="&#xd2;" horiz-adv-x="825" d="M70 248q0 45 8 86l151 784q29 154 126.5 237t240.5 83q129 0 199.5 -69t70.5 -191q0 -43 -8 -84l-151 -799q-16 -88 -50 -147.5t-81.5 -95.5t-106.5 -51t-129 -15q-131 0 -200.5 71.5t-69.5 190.5zM156 264q0 -88 46 -143t142 -55q111 0 179.5 51t90.5 174l156 805 q8 33 8 71q0 86 -48 137.5t-140 51.5q-57 0 -104.5 -19.5t-82 -53.5t-57 -79t-33.5 -96l-151 -774q-6 -37 -6 -70zM377 1669l49 78l258 -211l-25 -43z" />
<glyph unicode="&#xd3;" horiz-adv-x="825" d="M70 248q0 45 8 86l151 784q29 154 126.5 237t240.5 83q129 0 199.5 -69t70.5 -191q0 -43 -8 -84l-151 -799q-16 -88 -50 -147.5t-81.5 -95.5t-106.5 -51t-129 -15q-131 0 -200.5 71.5t-69.5 190.5zM156 264q0 -88 46 -143t142 -55q111 0 179.5 51t90.5 174l156 805 q8 33 8 71q0 86 -48 137.5t-140 51.5q-57 0 -104.5 -19.5t-82 -53.5t-57 -79t-33.5 -96l-151 -774q-6 -37 -6 -70zM535 1532l303 215l53 -74l-330 -182z" />
<glyph unicode="&#xd4;" horiz-adv-x="825" d="M70 248q0 45 8 86l151 784q29 154 126.5 237t240.5 83q129 0 199.5 -69t70.5 -191q0 -43 -8 -84l-151 -799q-16 -88 -50 -147.5t-81.5 -95.5t-106.5 -51t-129 -15q-131 0 -200.5 71.5t-69.5 190.5zM156 264q0 -88 46 -143t142 -55q111 0 179.5 51t90.5 174l156 805 q8 33 8 71q0 86 -48 137.5t-140 51.5q-57 0 -104.5 -19.5t-82 -53.5t-57 -79t-33.5 -96l-151 -774q-6 -37 -6 -70zM358 1536l275 211h65l187 -207l-37 -35l-191 156l-266 -158z" />
<glyph unicode="&#xd5;" horiz-adv-x="825" d="M70 248q0 45 8 86l151 784q29 154 126.5 237t240.5 83q129 0 199.5 -69t70.5 -191q0 -43 -8 -84l-151 -799q-16 -88 -50 -147.5t-81.5 -95.5t-106.5 -51t-129 -15q-131 0 -200.5 71.5t-69.5 190.5zM156 264q0 -88 46 -143t142 -55q111 0 179.5 51t90.5 174l156 805 q8 33 8 71q0 86 -48 137.5t-140 51.5q-57 0 -104.5 -19.5t-82 -53.5t-57 -79t-33.5 -96l-151 -774q-6 -37 -6 -70zM350 1559q35 53 81 84.5t89 31.5q31 0 57.5 -12t52 -25.5t51.5 -26t56 -12.5q29 0 57.5 18.5t57.5 59.5l49 -28q-35 -70 -85 -98.5t-91 -28.5q-31 0 -58.5 12 t-53 25.5t-50 25.5t-51.5 12q-25 0 -54.5 -18t-56.5 -51z" />
<glyph unicode="&#xd6;" horiz-adv-x="825" d="M70 248q0 45 8 86l151 784q29 154 126.5 237t240.5 83q129 0 199.5 -69t70.5 -191q0 -43 -8 -84l-151 -799q-16 -88 -50 -147.5t-81.5 -95.5t-106.5 -51t-129 -15q-131 0 -200.5 71.5t-69.5 190.5zM156 264q0 -88 46 -143t142 -55q111 0 179.5 51t90.5 174l156 805 q8 33 8 71q0 86 -48 137.5t-140 51.5q-57 0 -104.5 -19.5t-82 -53.5t-57 -79t-33.5 -96l-151 -774q-6 -37 -6 -70zM432 1522l19 96h86l-19 -96h-86zM731 1522l19 96h84l-17 -96h-86z" />
<glyph unicode="&#xd7;" horiz-adv-x="778" d="M43 332l328 272l-201 250l55 47l203 -250l322 271l43 -56l-322 -268l209 -260l-57 -47l-209 258l-328 -273z" />
<glyph unicode="&#xd8;" horiz-adv-x="825" d="M4 0l84 135q-18 49 -18 113q0 45 8 86l151 784q29 154 126.5 237t240.5 83q82 0 140.5 -30t90.5 -83l80 127l51 -27l-102 -165q10 -41 10 -82q0 -43 -8 -84l-151 -799q-16 -88 -50 -147.5t-81.5 -95.5t-106.5 -51t-129 -15q-76 0 -131 24.5t-90 69.5l-66 -107zM156 244 l614 987q-16 59 -61 92t-119 33q-57 0 -104.5 -19.5t-82 -53.5t-57 -79t-33.5 -96l-151 -774q-6 -37 -6 -70v-20zM174 166q20 -47 62.5 -73.5t107.5 -26.5q111 0 179.5 51t90.5 174l156 805q2 10 4 19t2 20z" />
<glyph unicode="&#xd9;" horiz-adv-x="804" d="M59 295q0 4 15.5 83t39 196.5t51.5 256t52.5 262.5t43 215t22.5 115h86q-2 -14 -13.5 -68.5t-28 -135t-36 -179t-39 -199t-38.5 -196.5t-33.5 -171t-24 -121t-9.5 -48q-16 -106 32 -172.5t155 -66.5q109 0 178.5 57t95.5 186l223 1114h91l-226 -1116q-18 -90 -52 -151.5 t-81 -99.5t-106.5 -54t-126.5 -16q-72 0 -127.5 21.5t-90 62.5t-49 97t-4.5 128zM350 1669l49 78l258 -211l-24 -43z" />
<glyph unicode="&#xda;" horiz-adv-x="804" d="M59 295q0 4 15.5 83t39 196.5t51.5 256t52.5 262.5t43 215t22.5 115h86q-2 -14 -13.5 -68.5t-28 -135t-36 -179t-39 -199t-38.5 -196.5t-33.5 -171t-24 -121t-9.5 -48q-16 -106 32 -172.5t155 -66.5q109 0 178.5 57t95.5 186l223 1114h91l-226 -1116q-18 -90 -52 -151.5 t-81 -99.5t-106.5 -54t-126.5 -16q-72 0 -127.5 21.5t-90 62.5t-49 97t-4.5 128zM565 1532l303 215l54 -74l-330 -182z" />
<glyph unicode="&#xdb;" horiz-adv-x="804" d="M59 295q0 4 15.5 83t39 196.5t51.5 256t52.5 262.5t43 215t22.5 115h86q-2 -14 -13.5 -68.5t-28 -135t-36 -179t-39 -199t-38.5 -196.5t-33.5 -171t-24 -121t-9.5 -48q-16 -106 32 -172.5t155 -66.5q109 0 178.5 57t95.5 186l223 1114h91l-226 -1116q-18 -90 -52 -151.5 t-81 -99.5t-106.5 -54t-126.5 -16q-72 0 -127.5 21.5t-90 62.5t-49 97t-4.5 128zM360 1536l275 211h65l187 -207l-37 -35l-191 156l-266 -158z" />
<glyph unicode="&#xdc;" horiz-adv-x="804" d="M59 295q0 4 15.5 83t39 196.5t51.5 256t52.5 262.5t43 215t22.5 115h86q-2 -14 -13.5 -68.5t-28 -135t-36 -179t-39 -199t-38.5 -196.5t-33.5 -171t-24 -121t-9.5 -48q-16 -106 32 -172.5t155 -66.5q109 0 178.5 57t95.5 186l223 1114h91l-226 -1116q-18 -90 -52 -151.5 t-81 -99.5t-106.5 -54t-126.5 -16q-72 0 -127.5 21.5t-90 62.5t-49 97t-4.5 128zM422 1522l18 96h86l-18 -96h-86zM721 1522l18 96h84l-16 -96h-86z" />
<glyph unicode="&#xdd;" horiz-adv-x="716" d="M215 1425h86q4 -33 13.5 -96t20.5 -138t23.5 -155t22.5 -147.5t16 -115.5t9 -60h6l379 712h96l-455 -823l-115 -602h-88l117 602zM487 1532l304 215l53 -74l-330 -182z" />
<glyph unicode="&#xde;" horiz-adv-x="790" d="M25 2l276 1423h86l-55 -284h178q88 0 147.5 -19.5t96.5 -56.5t52 -88t15 -115q0 -117 -25.5 -215t-81 -171t-143.5 -112.5t-213 -39.5h-184l-61 -322h-88zM188 403h179q184 0 274 118t90 321q0 49 -10 89t-37 68.5t-73 45t-115 16.5h-179z" />
<glyph unicode="&#xdf;" horiz-adv-x="729" d="M-4 0l229 1198q25 129 103 209t217 80q117 0 177 -60.5t60 -162.5q0 -27 -6 -60l-18 -104q-12 -68 -55.5 -128.5t-120.5 -86.5v-6q63 -18 86.5 -69.5t23.5 -109.5q-6 -53 -22.5 -149t-42.5 -215q-16 -72 -35 -135.5t-51.5 -111.5t-87 -76.5t-140.5 -28.5h-21t-22 2l15 71 q59 0 100 16.5t68.5 45t44 68.5t26.5 89l74 353q4 12 5 30.5t1 32.5q0 63 -34.5 103.5t-114.5 40.5l16 82q55 0 93 23.5t62.5 59t38 76.5t19.5 78t7 61.5t1 26.5q0 63 -39 111.5t-118 48.5q-59 0 -99.5 -19.5t-66 -52.5t-40 -75t-22.5 -87l-227 -1169h-84z" />
<glyph unicode="&#xe0;" horiz-adv-x="747" d="M51 178q0 61 13.5 159.5t33.5 199.5q25 119 51.5 209t65.5 150t94.5 90t132.5 30q76 0 129.5 -31t75.5 -80h4q4 23 9.5 47.5t9.5 46.5h86q-49 -252 -97.5 -500.5t-95.5 -498.5h-88q4 29 11.5 55.5t11.5 55.5q-2 0 -2 1t-2 1q-47 -59 -102.5 -92t-141.5 -33 q-92 0 -145.5 48t-53.5 142zM143 205q0 -68 41 -101.5t105 -33.5q53 0 97 23.5t76 59t51 81t26 88.5l73 374q8 43 5 86t-20 76t-53 53.5t-91 20.5q-141 0 -193 -137q-10 -25 -31.5 -101t-42.5 -176q-18 -92 -30.5 -176t-12.5 -137zM336 1438l86 51l162 -336l-43 -27z" />
<glyph unicode="&#xe1;" horiz-adv-x="747" d="M51 178q0 61 13.5 159.5t33.5 199.5q25 119 51.5 209t65.5 150t94.5 90t132.5 30q76 0 129.5 -31t75.5 -80h4q4 23 9.5 47.5t9.5 46.5h86q-49 -252 -97.5 -500.5t-95.5 -498.5h-88q4 29 11.5 55.5t11.5 55.5q-2 0 -2 1t-2 1q-47 -59 -102.5 -92t-141.5 -33 q-92 0 -145.5 48t-53.5 142zM143 205q0 -68 41 -101.5t105 -33.5q53 0 97 23.5t76 59t51 81t26 88.5l73 374q8 43 5 86t-20 76t-53 53.5t-91 20.5q-141 0 -193 -137q-10 -25 -31.5 -101t-42.5 -176q-18 -92 -30.5 -176t-12.5 -137zM455 1159l196 309l86 -34l-237 -295z" />
<glyph unicode="&#xe2;" horiz-adv-x="747" d="M51 178q0 61 13.5 159.5t33.5 199.5q25 119 51.5 209t65.5 150t94.5 90t132.5 30q76 0 129.5 -31t75.5 -80h4q4 23 9.5 47.5t9.5 46.5h86q-49 -252 -97.5 -500.5t-95.5 -498.5h-88q4 29 11.5 55.5t11.5 55.5q-2 0 -2 1t-2 1q-47 -59 -102.5 -92t-141.5 -33 q-92 0 -145.5 48t-53.5 142zM143 205q0 -68 41 -101.5t105 -33.5q53 0 97 23.5t76 59t51 81t26 88.5l73 374q8 43 5 86t-20 76t-53 53.5t-91 20.5q-141 0 -193 -137q-10 -25 -31.5 -101t-42.5 -176q-18 -92 -30.5 -176t-12.5 -137zM240 1161l280 252h66l178 -248l-41 -32 l-180 196l-269 -201z" />
<glyph unicode="&#xe3;" horiz-adv-x="747" d="M51 178q0 61 13.5 159.5t33.5 199.5q25 119 51.5 209t65.5 150t94.5 90t132.5 30q76 0 129.5 -31t75.5 -80h4q4 23 9.5 47.5t9.5 46.5h86q-49 -252 -97.5 -500.5t-95.5 -498.5h-88q4 29 11.5 55.5t11.5 55.5q-2 0 -2 1t-2 1q-47 -59 -102.5 -92t-141.5 -33 q-92 0 -145.5 48t-53.5 142zM143 205q0 -68 41 -101.5t105 -33.5q53 0 97 23.5t76 59t51 81t26 88.5l73 374q8 43 5 86t-20 76t-53 53.5t-91 20.5q-141 0 -193 -137q-10 -25 -31.5 -101t-42.5 -176q-18 -92 -30.5 -176t-12.5 -137zM242 1210q35 53 81 85t89 32 q31 0 57.5 -12t52 -25.5t51 -26t56.5 -12.5q29 0 57.5 18.5t56.5 59.5l50 -29q-35 -70 -85.5 -98t-91.5 -28q-31 0 -58.5 12t-53 25.5t-50 25.5t-51.5 12q-25 0 -54.5 -18.5t-55.5 -50.5z" />
<glyph unicode="&#xe4;" horiz-adv-x="747" d="M51 178q0 61 13.5 159.5t33.5 199.5q25 119 51.5 209t65.5 150t94.5 90t132.5 30q76 0 129.5 -31t75.5 -80h4q4 23 9.5 47.5t9.5 46.5h86q-49 -252 -97.5 -500.5t-95.5 -498.5h-88q4 29 11.5 55.5t11.5 55.5q-2 0 -2 1t-2 1q-47 -59 -102.5 -92t-141.5 -33 q-92 0 -145.5 48t-53.5 142zM143 205q0 -68 41 -101.5t105 -33.5q53 0 97 23.5t76 59t51 81t26 88.5l73 374q8 43 5 86t-20 76t-53 53.5t-91 20.5q-141 0 -193 -137q-10 -25 -31.5 -101t-42.5 -176q-18 -92 -30.5 -176t-12.5 -137zM311 1198l19 98h86l-21 -98h-84zM610 1198 l19 98h84l-19 -98h-84z" />
<glyph unicode="&#xe5;" horiz-adv-x="747" d="M51 178q0 61 13.5 159.5t33.5 199.5q25 119 51.5 209t65.5 150t94.5 90t132.5 30q76 0 129.5 -31t75.5 -80h4q4 23 9.5 47.5t9.5 46.5h86q-49 -252 -97.5 -500.5t-95.5 -498.5h-88q4 29 11.5 55.5t11.5 55.5q-2 0 -2 1t-2 1q-47 -59 -102.5 -92t-141.5 -33 q-92 0 -145.5 48t-53.5 142zM143 205q0 -68 41 -101.5t105 -33.5q53 0 97 23.5t76 59t51 81t26 88.5l73 374q8 43 5 86t-20 76t-53 53.5t-91 20.5q-141 0 -193 -137q-10 -25 -31.5 -101t-42.5 -176q-18 -92 -30.5 -176t-12.5 -137zM373 1264q0 41 16.5 76.5t44 62.5t63 42 t74.5 15q59 0 98.5 -38t39.5 -97q0 -41 -16.5 -77t-44 -62.5t-64.5 -43t-78 -16.5q-59 0 -96 39t-37 99zM428 1272q0 -39 24.5 -65.5t63.5 -26.5q27 0 51.5 11t43 29.5t29.5 42t11 50.5q0 39 -25.5 65.5t-64.5 26.5q-25 0 -48.5 -10.5t-41.5 -28.5t-30.5 -43t-12.5 -51z" />
<glyph unicode="&#xe6;" horiz-adv-x="1167" d="M12 186q0 76 19.5 148t62.5 127t111.5 88t165.5 33q84 0 184 -21q10 59 26.5 125t16.5 119q0 59 -39 94t-125 35q-72 0 -126 -31t-77 -84q-18 10 -37.5 17.5t-39.5 15.5q35 70 101 117t191 47q33 0 69 -6t67.5 -20.5t56.5 -39t35 -61.5q57 66 116.5 96.5t139.5 30.5 q127 0 188.5 -55.5t61.5 -147.5q0 -94 -33 -162.5t-87 -112.5t-127 -65.5t-153 -21.5q-23 0 -63.5 3t-87.5 13q-10 -51 -19.5 -111.5t-9.5 -101.5q0 -37 6 -70.5t24.5 -59.5t49.5 -42t80 -16q86 0 143.5 49t75.5 131q23 -4 45.5 -7t44.5 -8q-59 -244 -324 -243 q-98 0 -150 45t-69 110q-37 -57 -78.5 -87.5t-81.5 -46t-76 -18.5t-61 -3q-121 0 -169 56t-48 142zM100 215q0 -61 36 -103t124 -42q86 0 152.5 49t83.5 141l43 225q-51 10 -94.5 15.5t-82.5 5.5q-119 0 -190.5 -73t-71.5 -218zM645 545q33 -6 66.5 -10.5t68.5 -4.5 q57 0 112.5 12.5t98.5 43t68.5 82t25.5 127.5q0 61 -40.5 99t-124.5 38q-104 0 -169 -87t-106 -300z" />
<glyph unicode="&#xe7;" horiz-adv-x="677" d="M29 -387l30 49q31 -16 61 -21.5t54 -5.5q49 0 83 28t34 73q0 37 -26.5 60.5t-71.5 23.5h-11l-26 24l67 146q-102 14 -142 70.5t-40 127.5q0 41 13.5 119t35.5 193q12 59 25.5 121.5t27.5 119.5q16 59 38 109.5t56.5 87.5t89 57.5t136.5 20.5q109 0 173 -52.5t64 -150.5 q0 -27 -6 -57l-92 -11q4 16 6 29.5t2 28.5q0 61 -39 96t-116 35q-94 0 -147.5 -52.5t-76.5 -144.5q-16 -72 -33.5 -153.5t-32.5 -157.5t-24.5 -136.5t-9.5 -90.5v-15q6 -53 45 -84.5t111 -31.5q86 0 142 46t77 140l90 -16q-29 -129 -109.5 -190.5t-205.5 -61.5h-2 q-14 -29 -27.5 -57.5t-26.5 -57.5q82 -6 109.5 -46t27.5 -89q0 -59 -49 -108.5t-137 -49.5q-41 0 -79 8t-68 27z" />
<glyph unicode="&#xe8;" horiz-adv-x="718" d="M57 242q0 55 9.5 118.5t19.5 124.5q18 100 43 196.5t66 171.5t106.5 120t165.5 45q127 0 186.5 -56.5t59.5 -148.5q0 -94 -32 -164.5t-86 -117t-126 -69t-150 -22.5q-23 0 -61.5 3t-85.5 14q-10 -51 -19.5 -105.5t-9.5 -97.5q0 -35 6.5 -68.5t23.5 -60.5t48 -42t78 -15 q86 0 142.5 48t74.5 132l88 -17q-29 -117 -106.5 -180t-206.5 -63q-68 0 -112 19.5t-71.5 54t-39 80.5t-11.5 100zM184 537q31 -8 74 -12.5t72 -4.5q55 0 107 15.5t94 49t68 87t26 127.5q0 61 -42 100t-124 39q-104 0 -168 -94t-107 -307zM324 1438l86 51l161 -336l-43 -27z " />
<glyph unicode="&#xe9;" horiz-adv-x="718" d="M57 242q0 55 9.5 118.5t19.5 124.5q18 100 43 196.5t66 171.5t106.5 120t165.5 45q127 0 186.5 -56.5t59.5 -148.5q0 -94 -32 -164.5t-86 -117t-126 -69t-150 -22.5q-23 0 -61.5 3t-85.5 14q-10 -51 -19.5 -105.5t-9.5 -97.5q0 -35 6.5 -68.5t23.5 -60.5t48 -42t78 -15 q86 0 142.5 48t74.5 132l88 -17q-29 -117 -106.5 -180t-206.5 -63q-68 0 -112 19.5t-71.5 54t-39 80.5t-11.5 100zM184 537q31 -8 74 -12.5t72 -4.5q55 0 107 15.5t94 49t68 87t26 127.5q0 61 -42 100t-124 39q-104 0 -168 -94t-107 -307zM442 1159l197 309l86 -34 l-238 -295z" />
<glyph unicode="&#xea;" horiz-adv-x="718" d="M57 242q0 55 9.5 118.5t19.5 124.5q18 100 43 196.5t66 171.5t106.5 120t165.5 45q127 0 186.5 -56.5t59.5 -148.5q0 -94 -32 -164.5t-86 -117t-126 -69t-150 -22.5q-23 0 -61.5 3t-85.5 14q-10 -51 -19.5 -105.5t-9.5 -97.5q0 -35 6.5 -68.5t23.5 -60.5t48 -42t78 -15 q86 0 142.5 48t74.5 132l88 -17q-29 -117 -106.5 -180t-206.5 -63q-68 0 -112 19.5t-71.5 54t-39 80.5t-11.5 100zM184 537q31 -8 74 -12.5t72 -4.5q55 0 107 15.5t94 49t68 87t26 127.5q0 61 -42 100t-124 39q-104 0 -168 -94t-107 -307zM231 1161l281 252h66l178 -248 l-41 -32l-180 196l-269 -201z" />
<glyph unicode="&#xeb;" horiz-adv-x="718" d="M57 242q0 55 9.5 118.5t19.5 124.5q18 100 43 196.5t66 171.5t106.5 120t165.5 45q127 0 186.5 -56.5t59.5 -148.5q0 -94 -32 -164.5t-86 -117t-126 -69t-150 -22.5q-23 0 -61.5 3t-85.5 14q-10 -51 -19.5 -105.5t-9.5 -97.5q0 -35 6.5 -68.5t23.5 -60.5t48 -42t78 -15 q86 0 142.5 48t74.5 132l88 -17q-29 -117 -106.5 -180t-206.5 -63q-68 0 -112 19.5t-71.5 54t-39 80.5t-11.5 100zM184 537q31 -8 74 -12.5t72 -4.5q55 0 107 15.5t94 49t68 87t26 127.5q0 61 -42 100t-124 39q-104 0 -168 -94t-107 -307zM322 1198l18 98h86l-20 -98h-84z M621 1198l18 98h84l-18 -98h-84z" />
<glyph unicode="&#xec;" horiz-adv-x="368" d="M82 0l192 1001h91l-195 -1001h-88zM139 1438l86 51l162 -336l-43 -27z" />
<glyph unicode="&#xed;" horiz-adv-x="317" d="M31 0l192 1001h90l-194 -1001h-88zM262 1159l197 309l86 -34l-238 -295z" />
<glyph unicode="&#xee;" horiz-adv-x="456" d="M125 0l192 1001h91l-195 -1001h-88zM133 1161l281 252h65l178 -248l-41 -32l-180 196l-268 -201z" />
<glyph unicode="&#xef;" horiz-adv-x="317" d="M31 0l192 1001h90l-194 -1001h-88zM115 1198l18 98h86l-20 -98h-84zM414 1198l18 98h84l-18 -98h-84z" />
<glyph unicode="&#xf0;" horiz-adv-x="735" d="M53 197q0 53 10.5 139t26.5 162q49 250 113 350q78 127 243 127q20 0 49 -5t58 -19.5t53.5 -37t36.5 -55.5q2 2 4 2q10 59 17.5 102.5t11.5 74t6 53t2 43.5q0 47 -8 79q-45 -29 -90 -56.5t-92 -55.5l-29 51l194 117q-37 70 -95 104.5t-150 46.5l26 74q61 -10 107.5 -24.5 t81.5 -36t60.5 -50t47.5 -67.5l150 92l26 -49l-157 -98q10 -47 10 -101q0 -68 -11 -161t-36 -222q-16 -86 -31.5 -167t-34.5 -175q-23 -117 -52.5 -202t-71.5 -140t-101 -80.5t-141 -25.5q-66 0 -110 19.5t-71.5 50t-40 67.5t-12.5 74zM137 211q0 -59 37 -104.5t127 -45.5 q139 0 199 134q12 27 30.5 89t36 137t29.5 153.5t14 138.5q0 37 -9 69.5t-28.5 59t-50 42t-73.5 15.5q-51 4 -104.5 -25.5t-86.5 -95.5q-23 -45 -43 -119.5t-47 -203.5q-31 -160 -31 -244z" />
<glyph unicode="&#xf1;" horiz-adv-x="731" d="M2 0q49 250 98.5 500t96.5 501h88q-6 -31 -13.5 -62.5t-11.5 -61.5h4q51 70 116.5 104.5t133.5 34.5q57 0 95 -15.5t60.5 -43t32 -63.5t9.5 -75q0 -45 -11 -102l-139 -717h-90l139 709q4 23 7.5 42t3.5 42q0 55 -29 95t-113 40q-55 0 -99 -24.5t-78 -64.5t-56.5 -89.5 t-30.5 -98.5l-125 -651h-88zM236 1210q35 53 80.5 85t89.5 32q31 0 57 -12t52 -25.5t51.5 -26t56.5 -12.5q29 0 57.5 18.5t56.5 59.5l49 -29q-35 -70 -85 -98t-91 -28q-31 0 -58.5 12t-53 25.5t-50 25.5t-51.5 12q-25 0 -54.5 -18.5t-55.5 -50.5z" />
<glyph unicode="&#xf2;" horiz-adv-x="714" d="M45 197q0 27 3 61.5t8 74.5t11.5 81t14.5 78q29 135 53.5 232t63.5 161q80 131 258 131q63 0 107 -18.5t73 -49t42 -68.5t13 -75q2 -59 -13 -150.5t-36 -195.5q-25 -129 -52.5 -219t-67.5 -146.5t-98 -82t-146 -25.5q-66 0 -110 19.5t-71.5 50t-40 67.5t-12.5 74z M131 211q0 -59 36 -103.5t126 -44.5q68 0 118 31t81 101q14 37 34.5 111.5t39 160.5t30.5 171t12 144q0 70 -41.5 113t-117.5 43q-53 0 -103.5 -21.5t-85.5 -85.5q-23 -41 -46.5 -138t-51.5 -234q-31 -166 -31 -248zM309 1438l86 51l162 -336l-43 -27z" />
<glyph unicode="&#xf3;" horiz-adv-x="714" d="M45 197q0 27 3 61.5t8 74.5t11.5 81t14.5 78q29 135 53.5 232t63.5 161q80 131 258 131q63 0 107 -18.5t73 -49t42 -68.5t13 -75q2 -59 -13 -150.5t-36 -195.5q-25 -129 -52.5 -219t-67.5 -146.5t-98 -82t-146 -25.5q-66 0 -110 19.5t-71.5 50t-40 67.5t-12.5 74z M131 211q0 -59 36 -103.5t126 -44.5q68 0 118 31t81 101q14 37 34.5 111.5t39 160.5t30.5 171t12 144q0 70 -41.5 113t-117.5 43q-53 0 -103.5 -21.5t-85.5 -85.5q-23 -41 -46.5 -138t-51.5 -234q-31 -166 -31 -248zM436 1159l197 309l86 -34l-238 -295z" />
<glyph unicode="&#xf4;" horiz-adv-x="714" d="M45 197q0 27 3 61.5t8 74.5t11.5 81t14.5 78q29 135 53.5 232t63.5 161q80 131 258 131q63 0 107 -18.5t73 -49t42 -68.5t13 -75q2 -59 -13 -150.5t-36 -195.5q-25 -129 -52.5 -219t-67.5 -146.5t-98 -82t-146 -25.5q-66 0 -110 19.5t-71.5 50t-40 67.5t-12.5 74z M131 211q0 -59 36 -103.5t126 -44.5q68 0 118 31t81 101q14 37 34.5 111.5t39 160.5t30.5 171t12 144q0 70 -41.5 113t-117.5 43q-53 0 -103.5 -21.5t-85.5 -85.5q-23 -41 -46.5 -138t-51.5 -234q-31 -166 -31 -248zM231 1161l281 252h66l178 -248l-41 -32l-180 196 l-269 -201z" />
<glyph unicode="&#xf5;" horiz-adv-x="714" d="M45 197q0 27 3 61.5t8 74.5t11.5 81t14.5 78q29 135 53.5 232t63.5 161q80 131 258 131q63 0 107 -18.5t73 -49t42 -68.5t13 -75q2 -59 -13 -150.5t-36 -195.5q-25 -129 -52.5 -219t-67.5 -146.5t-98 -82t-146 -25.5q-66 0 -110 19.5t-71.5 50t-40 67.5t-12.5 74z M131 211q0 -59 36 -103.5t126 -44.5q68 0 118 31t81 101q14 37 34.5 111.5t39 160.5t30.5 171t12 144q0 70 -41.5 113t-117.5 43q-53 0 -103.5 -21.5t-85.5 -85.5q-23 -41 -46.5 -138t-51.5 -234q-31 -166 -31 -248zM219 1210q35 53 81 85t89 32q31 0 57.5 -12t52 -25.5 t51 -26t56.5 -12.5q29 0 57.5 18.5t57.5 59.5l49 -29q-35 -70 -85 -98t-91 -28q-31 0 -58.5 12t-53 25.5t-50 25.5t-51.5 12q-25 0 -54.5 -18.5t-56.5 -50.5z" />
<glyph unicode="&#xf6;" horiz-adv-x="714" d="M45 197q0 27 3 61.5t8 74.5t11.5 81t14.5 78q29 135 53.5 232t63.5 161q80 131 258 131q63 0 107 -18.5t73 -49t42 -68.5t13 -75q2 -59 -13 -150.5t-36 -195.5q-25 -129 -52.5 -219t-67.5 -146.5t-98 -82t-146 -25.5q-66 0 -110 19.5t-71.5 50t-40 67.5t-12.5 74z M131 211q0 -59 36 -103.5t126 -44.5q68 0 118 31t81 101q14 37 34.5 111.5t39 160.5t30.5 171t12 144q0 70 -41.5 113t-117.5 43q-53 0 -103.5 -21.5t-85.5 -85.5q-23 -41 -46.5 -138t-51.5 -234q-31 -166 -31 -248zM299 1198l18 98h86l-20 -98h-84zM598 1198l18 98h84 l-18 -98h-84z" />
<glyph unicode="&#xf7;" horiz-adv-x="722" d="M59 563l15 76h655l-14 -76h-656zM262 281q4 33 30.5 56t57.5 23q29 0 45.5 -18t12.5 -47q-2 -33 -29.5 -57.5t-56.5 -24.5t-45.5 19.5t-14.5 48.5zM383 893q2 33 28.5 56.5t57.5 23.5q29 0 45 -19.5t14 -46.5q-4 -33 -31.5 -56.5t-56.5 -23.5t-45 18.5t-12 47.5z" />
<glyph unicode="&#xf8;" horiz-adv-x="714" d="M2 4l66 94q-12 23 -17.5 48.5t-5.5 50.5q0 27 3 61.5t8 74.5t11.5 81t14.5 78q29 135 53.5 232t63.5 161q80 131 258 131q68 0 114.5 -22.5t75.5 -57.5q16 23 31.5 46.5t32.5 45.5l45 -27l-80 -114q16 -43 16 -82q2 -59 -13 -150.5t-36 -195.5q-25 -129 -52.5 -219 t-67.5 -146.5t-98 -82t-146 -25.5q-66 0 -110 19.5t-73 49.5l-53 -75zM131 190q117 166 230.5 333t230.5 335q-18 37 -54 58.5t-89 21.5t-103.5 -21.5t-85.5 -85.5q-23 -41 -46.5 -138t-51.5 -234q-31 -166 -31 -248v-21zM150 131q16 -31 51 -49.5t92 -18.5q68 0 118 31 t81 101q14 37 34.5 111.5t39 160.5t30.5 171t12 144v6q-117 -166 -230.5 -328.5t-227.5 -328.5z" />
<glyph unicode="&#xf9;" horiz-adv-x="733" d="M49 180q0 27 3 51.5t7 51.5l140 718h90l-139 -710q-4 -20 -6.5 -41t-2.5 -39q0 -59 30 -99t110 -40q55 0 100 25.5t78 65.5t54.5 89t31.5 98l125 651h88l-195 -1001h-88q6 31 13.5 61.5t11.5 61.5h-4q-51 -68 -117 -102.5t-133 -34.5q-57 0 -95 15t-60.5 42t-32 62.5 t-9.5 74.5zM313 1438l86 51l162 -336l-43 -27z" />
<glyph unicode="&#xfa;" horiz-adv-x="733" d="M49 180q0 27 3 51.5t7 51.5l140 718h90l-139 -710q-4 -20 -6.5 -41t-2.5 -39q0 -59 30 -99t110 -40q55 0 100 25.5t78 65.5t54.5 89t31.5 98l125 651h88l-195 -1001h-88q6 31 13.5 61.5t11.5 61.5h-4q-51 -68 -117 -102.5t-133 -34.5q-57 0 -95 15t-60.5 42t-32 62.5 t-9.5 74.5zM487 1159l197 309l86 -34l-238 -295z" />
<glyph unicode="&#xfb;" horiz-adv-x="733" d="M49 180q0 27 3 51.5t7 51.5l140 718h90l-139 -710q-4 -20 -6.5 -41t-2.5 -39q0 -59 30 -99t110 -40q55 0 100 25.5t78 65.5t54.5 89t31.5 98l125 651h88l-195 -1001h-88q6 31 13.5 61.5t11.5 61.5h-4q-51 -68 -117 -102.5t-133 -34.5q-57 0 -95 15t-60.5 42t-32 62.5 t-9.5 74.5zM229 1161l281 252h65l179 -248l-41 -32l-181 196l-268 -201z" />
<glyph unicode="&#xfc;" horiz-adv-x="733" d="M49 180q0 27 3 51.5t7 51.5l140 718h90l-139 -710q-4 -20 -6.5 -41t-2.5 -39q0 -59 30 -99t110 -40q55 0 100 25.5t78 65.5t54.5 89t31.5 98l125 651h88l-195 -1001h-88q6 31 13.5 61.5t11.5 61.5h-4q-51 -68 -117 -102.5t-133 -34.5q-57 0 -95 15t-60.5 42t-32 62.5 t-9.5 74.5zM313 1198l19 98h86l-21 -98h-84zM612 1198l19 98h84l-19 -98h-84z" />
<glyph unicode="&#xfd;" horiz-adv-x="645" d="M-125 -338q51 6 93 22.5t79 52.5t71 93t70 145l-84 1026h91l43 -595q4 -68 9 -156t1 -160h4q43 84 92 192.5t100.5 229.5t98.5 247t88 242h94q-61 -168 -118.5 -310t-116 -272t-119 -258t-127.5 -265q-29 -61 -64 -116.5t-78 -97.5t-98 -68t-127 -28zM422 1159l196 309 l87 -34l-238 -295z" />
<glyph unicode="&#xfe;" horiz-adv-x="714" d="M-88 -403l356 1826h88l-100 -510l4 -2q45 51 97.5 80t134.5 29q35 0 71.5 -8t66 -31t49 -61.5t19.5 -100.5q0 -25 -4 -66.5t-10 -86.5t-13 -89.5t-14 -74.5q-25 -121 -50 -216.5t-63 -161t-95.5 -100t-147.5 -34.5q-45 0 -79 12t-57.5 29.5t-37.5 38t-23 39.5h-4 l-100 -512h-88zM135 268q0 -74 43 -132t127 -58q55 0 95 24.5t70 77.5t53.5 136t45.5 198q16 86 25.5 161t9.5 116q0 78 -44 111.5t-107 33.5q-92 0 -154.5 -63.5t-79.5 -151.5l-80 -404q-2 -12 -3 -24t-1 -25z" />
<glyph unicode="&#xff;" horiz-adv-x="645" d="M-125 -338q51 6 93 22.5t79 52.5t71 93t70 145l-84 1026h91l43 -595q4 -68 9 -156t1 -160h4q43 84 92 192.5t100.5 229.5t98.5 247t88 242h94q-61 -168 -118.5 -310t-116 -272t-119 -258t-127.5 -265q-29 -61 -64 -116.5t-78 -97.5t-98 -68t-127 -28zM260 1198l19 98h86 l-21 -98h-84zM559 1198l19 98h84l-19 -98h-84z" />
<glyph unicode="&#x100;" horiz-adv-x="770" d="M-61 0l589 1425h101l43 -1425h-84l-10 373h-398l-153 -373h-88zM211 455h364l-12 491l-4 352h-6l-141 -356zM387 1536l16 80h422l-14 -80h-424z" />
<glyph unicode="&#x101;" horiz-adv-x="747" d="M51 178q0 61 13.5 159.5t33.5 199.5q25 119 51.5 209t65.5 150t94.5 90t132.5 30q76 0 129.5 -31t75.5 -80h4q4 23 9.5 47.5t9.5 46.5h86q-49 -252 -97.5 -500.5t-95.5 -498.5h-88q4 29 11.5 55.5t11.5 55.5q-2 0 -2 1t-2 1q-47 -59 -102.5 -92t-141.5 -33 q-92 0 -145.5 48t-53.5 142zM143 205q0 -68 41 -101.5t105 -33.5q53 0 97 23.5t76 59t51 81t26 88.5l73 374q8 43 5 86t-20 76t-53 53.5t-91 20.5q-141 0 -193 -137q-10 -25 -31.5 -101t-42.5 -176q-18 -92 -30.5 -176t-12.5 -137zM299 1206l16 80h424l-16 -80h-424z" />
<glyph unicode="&#x102;" horiz-adv-x="770" d="M-61 0l589 1425h101l43 -1425h-84l-10 373h-398l-153 -373h-88zM211 455h364l-12 491l-4 352h-6l-141 -356zM383 1729h76q-4 -66 33.5 -111t103.5 -45q72 0 126 42t79 114h73q-10 -43 -33.5 -84t-58 -73t-84 -52.5t-110.5 -20.5t-102.5 21.5t-66 55.5t-32.5 74t-4 79z " />
<glyph unicode="&#x103;" horiz-adv-x="747" d="M51 178q0 61 13.5 159.5t33.5 199.5q25 119 51.5 209t65.5 150t94.5 90t132.5 30q76 0 129.5 -31t75.5 -80h4q4 23 9.5 47.5t9.5 46.5h86q-49 -252 -97.5 -500.5t-95.5 -498.5h-88q4 29 11.5 55.5t11.5 55.5q-2 0 -2 1t-2 1q-47 -59 -102.5 -92t-141.5 -33 q-92 0 -145.5 48t-53.5 142zM143 205q0 -68 41 -101.5t105 -33.5q53 0 97 23.5t76 59t51 81t26 88.5l73 374q8 43 5 86t-20 76t-53 53.5t-91 20.5q-141 0 -193 -137q-10 -25 -31.5 -101t-42.5 -176q-18 -92 -30.5 -176t-12.5 -137zM291 1370h76q-4 -66 34.5 -111t102.5 -45 q66 0 122 42t81 114h77q-10 -41 -33.5 -82t-59.5 -73.5t-84 -53t-107 -20.5q-61 0 -103.5 21.5t-67 55t-33.5 74.5t-5 78z" />
<glyph unicode="&#x104;" horiz-adv-x="770" d="M-61 0l589 1425h101l43 -1425h-10q-51 -57 -81 -112.5t-30 -96.5q0 -74 72 -74q43 0 106 33l14 -61q-29 -18 -69.5 -31.5t-75.5 -13.5q-59 0 -90 36.5t-31 90.5q0 41 24.5 101t90.5 128h-4l-10 373h-398l-153 -373h-88zM211 455h364l-12 491l-4 352h-6l-141 -356z" />
<glyph unicode="&#x105;" horiz-adv-x="747" d="M51 178q0 61 13.5 159.5t33.5 199.5q25 119 51.5 209t65.5 150t94.5 90t132.5 30q76 0 129.5 -31t75.5 -80h4q4 23 9.5 47.5t9.5 46.5h86q-49 -252 -97.5 -500.5t-95.5 -498.5h-18q-51 -57 -81 -112.5t-30 -96.5q0 -74 72 -74q43 0 106 33l15 -61q-29 -18 -70 -31.5 t-76 -13.5q-59 0 -90 36.5t-31 90.5q0 41 25 101t90 128q4 29 11.5 55.5t11.5 55.5q-2 0 -2 1t-2 1q-47 -59 -102.5 -92t-141.5 -33q-92 0 -145.5 48t-53.5 142zM143 205q0 -68 41 -101.5t105 -33.5q53 0 97 23.5t76 59t51 81t26 88.5l73 374q8 43 5 86t-20 76t-53 53.5 t-91 20.5q-141 0 -193 -137q-10 -25 -31.5 -101t-42.5 -176q-18 -92 -30.5 -176t-12.5 -137z" />
<glyph unicode="&#x106;" horiz-adv-x="790" d="M63 233q0 41 11 99l135 692l22 111q31 143 124.5 223t222.5 80q141 0 210.5 -63.5t69.5 -178.5q0 -33 -8 -66q-23 -4 -45.5 -8t-44.5 -8q4 20 7 37.5t3 34.5q0 80 -47 125t-139 45q-111 0 -179.5 -69.5t-91.5 -178.5l-153 -786q-4 -20 -6 -39t-2 -35q0 -86 47 -135.5 t139 -49.5q223 0 268 248l86 -20q-31 -164 -123 -234.5t-235 -70.5q-137 0 -204 64.5t-67 182.5zM553 1532l303 215l53 -74l-329 -182z" />
<glyph unicode="&#x107;" horiz-adv-x="677" d="M41 188q0 41 13.5 119t35.5 193q12 59 25.5 121.5t27.5 119.5q16 59 38 109.5t56.5 87.5t89 57.5t136.5 20.5q109 0 173 -52.5t64 -150.5q0 -27 -6 -57l-92 -11q4 16 6 29.5t2 28.5q0 61 -39 96t-116 35q-94 0 -147.5 -52.5t-76.5 -144.5q-16 -72 -33.5 -153.5 t-32.5 -157.5t-24.5 -136.5t-9.5 -90.5v-15q6 -53 45 -84.5t111 -31.5q86 0 142 46t77 140l90 -16q-29 -129 -109.5 -190.5t-205.5 -61.5q-68 0 -113 16t-73.5 44t-41 64.5t-12.5 77.5zM446 1159l197 309l86 -34l-237 -295z" />
<glyph unicode="&#x108;" horiz-adv-x="790" d="M63 233q0 41 11 99l135 692l22 111q31 143 124.5 223t222.5 80q141 0 210.5 -63.5t69.5 -178.5q0 -33 -8 -66q-23 -4 -45.5 -8t-44.5 -8q4 20 7 37.5t3 34.5q0 80 -47 125t-139 45q-111 0 -179.5 -69.5t-91.5 -178.5l-153 -786q-4 -20 -6 -39t-2 -35q0 -86 47 -135.5 t139 -49.5q223 0 268 248l86 -20q-31 -164 -123 -234.5t-235 -70.5q-137 0 -204 64.5t-67 182.5zM340 1536l274 211h66l186 -207l-37 -35l-190 156l-266 -158z" />
<glyph unicode="&#x109;" horiz-adv-x="677" d="M41 188q0 41 13.5 119t35.5 193q12 59 25.5 121.5t27.5 119.5q16 59 38 109.5t56.5 87.5t89 57.5t136.5 20.5q109 0 173 -52.5t64 -150.5q0 -27 -6 -57l-92 -11q4 16 6 29.5t2 28.5q0 61 -39 96t-116 35q-94 0 -147.5 -52.5t-76.5 -144.5q-16 -72 -33.5 -153.5 t-32.5 -157.5t-24.5 -136.5t-9.5 -90.5v-15q6 -53 45 -84.5t111 -31.5q86 0 142 46t77 140l90 -16q-29 -129 -109.5 -190.5t-205.5 -61.5q-68 0 -113 16t-73.5 44t-41 64.5t-12.5 77.5zM244 1161l280 252h66l178 -248l-41 -32l-180 196l-268 -201z" />
<glyph unicode="&#x10a;" horiz-adv-x="790" d="M63 233q0 41 11 99l135 692l22 111q31 143 124.5 223t222.5 80q141 0 210.5 -63.5t69.5 -178.5q0 -33 -8 -66q-23 -4 -45.5 -8t-44.5 -8q4 20 7 37.5t3 34.5q0 80 -47 125t-139 45q-111 0 -179.5 -69.5t-91.5 -178.5l-153 -786q-4 -20 -6 -39t-2 -35q0 -86 47 -135.5 t139 -49.5q223 0 268 248l86 -20q-31 -164 -123 -234.5t-235 -70.5q-137 0 -204 64.5t-67 182.5zM584 1538l18 98h84l-18 -98h-84z" />
<glyph unicode="&#x10b;" horiz-adv-x="677" d="M41 188q0 41 13.5 119t35.5 193q12 59 25.5 121.5t27.5 119.5q16 59 38 109.5t56.5 87.5t89 57.5t136.5 20.5q109 0 173 -52.5t64 -150.5q0 -27 -6 -57l-92 -11q4 16 6 29.5t2 28.5q0 61 -39 96t-116 35q-94 0 -147.5 -52.5t-76.5 -144.5q-16 -72 -33.5 -153.5 t-32.5 -157.5t-24.5 -136.5t-9.5 -90.5v-15q6 -53 45 -84.5t111 -31.5q86 0 142 46t77 140l90 -16q-29 -129 -109.5 -190.5t-205.5 -61.5q-68 0 -113 16t-73.5 44t-41 64.5t-12.5 77.5zM455 1190l18 98h84l-18 -98h-84z" />
<glyph unicode="&#x10c;" horiz-adv-x="790" d="M63 233q0 41 11 99l135 692l22 111q31 143 124.5 223t222.5 80q141 0 210.5 -63.5t69.5 -178.5q0 -33 -8 -66q-23 -4 -45.5 -8t-44.5 -8q4 20 7 37.5t3 34.5q0 80 -47 125t-139 45q-111 0 -179.5 -69.5t-91.5 -178.5l-153 -786q-4 -20 -6 -39t-2 -35q0 -86 47 -135.5 t139 -49.5q223 0 268 248l86 -20q-31 -164 -123 -234.5t-235 -70.5q-137 0 -204 64.5t-67 182.5zM381 1714l43 33l194 -158l256 156l31 -35l-264 -205h-66z" />
<glyph unicode="&#x10d;" horiz-adv-x="677" d="M41 188q0 41 13.5 119t35.5 193q12 59 25.5 121.5t27.5 119.5q16 59 38 109.5t56.5 87.5t89 57.5t136.5 20.5q109 0 173 -52.5t64 -150.5q0 -27 -6 -57l-92 -11q4 16 6 29.5t2 28.5q0 61 -39 96t-116 35q-94 0 -147.5 -52.5t-76.5 -144.5q-16 -72 -33.5 -153.5 t-32.5 -157.5t-24.5 -136.5t-9.5 -90.5v-15q6 -53 45 -84.5t111 -31.5q86 0 142 46t77 140l90 -16q-29 -129 -109.5 -190.5t-205.5 -61.5q-68 0 -113 16t-73.5 44t-41 64.5t-12.5 77.5zM274 1378l43 33l183 -197l264 199l33 -35l-277 -248h-63z" />
<glyph unicode="&#x10e;" horiz-adv-x="827" d="M23 0l278 1425h291q131 0 204.5 -55t73.5 -170q2 -76 -21.5 -197.5t-53.5 -287.5q-16 -88 -30.5 -169t-30 -151.5t-32 -126t-34.5 -92.5q-31 -55 -65 -90t-72.5 -54.5t-85 -25.5t-101.5 -6h-321zM127 80h223q125 0 191.5 68.5t91.5 197.5q35 186 70.5 369.5t72.5 369.5 q10 51 7 98.5t-23.5 83.5t-61.5 57.5t-108 21.5h-217zM365 1714l43 33l194 -158l256 156l31 -35l-264 -205h-66z" />
<glyph unicode="&#x10f;" horiz-adv-x="858" d="M37 186q0 25 4 67t11 87t14.5 89t13.5 75q27 121 51.5 216t62 160.5t94 100.5t146.5 35q45 0 79 -12.5t57.5 -30t39 -38t23.5 -38.5h4q29 147 57.5 294.5t57.5 295.5h86l-289 -1487h-86q4 23 8 46.5t8 47.5h-4q-43 -51 -95 -78.5t-136 -27.5q-35 0 -72 8t-66.5 30.5 t-49 60.5t-19.5 99zM131 215q0 -78 39 -111.5t113 -33.5q92 0 154.5 63.5t80.5 151.5l78 405q8 45 5 88t-21.5 77t-53 54.5t-92.5 20.5q-49 0 -89 -16.5t-69 -63.5q-31 -45 -57 -135t-53 -223q-16 -86 -25.5 -161t-9.5 -116zM874 1198l74 174h-26q4 29 11 57.5t11 57.5h107 q-4 -29 -10.5 -57.5t-12.5 -57.5l-98 -174h-56z" />
<glyph unicode="&#x110;" horiz-adv-x="827" d="M23 0l141 725h-131q4 16 7 34.5t7 35.5h131l123 630h291q131 0 204.5 -55t73.5 -170q2 -76 -21.5 -197.5t-53.5 -287.5q-16 -88 -30.5 -169t-30 -151.5t-32 -126t-34.5 -92.5q-31 -55 -65 -90t-72.5 -54.5t-85 -25.5t-101.5 -6h-321zM127 80h223q125 0 191.5 68.5 t91.5 197.5q35 186 70.5 369.5t72.5 369.5q10 51 7 98.5t-23.5 83.5t-61.5 57.5t-108 21.5h-217l-109 -551h195l-17 -70h-190z" />
<glyph unicode="&#x111;" horiz-adv-x="712" d="M37 186q0 25 4 67t11 87t14.5 89t13.5 75q27 121 51.5 216t62 160.5t94 100.5t146.5 35q45 0 79 -12.5t57.5 -30t39 -38t23.5 -38.5h4l57 305h-233l12 68h236l43 217h86l-43 -217h77l-12 -68h-78l-233 -1202h-86q4 23 8 46.5t8 47.5h-4q-43 -51 -95 -78.5t-136 -27.5 q-35 0 -72 8t-66.5 30.5t-49 60.5t-19.5 99zM131 215q0 -78 39 -111.5t113 -33.5q92 0 154.5 63.5t80.5 151.5l78 405q8 45 5 88t-21.5 77t-53 54.5t-92.5 20.5q-49 0 -89 -16.5t-69 -63.5q-31 -45 -57 -135t-53 -223q-16 -86 -25.5 -161t-9.5 -116z" />
<glyph unicode="&#x112;" horiz-adv-x="727" d="M25 0l276 1425h582l-19 -82h-491l-111 -571h434l-16 -80h-434l-119 -610h494l-15 -82h-581zM395 1536l17 80h422l-15 -80h-424z" />
<glyph unicode="&#x113;" horiz-adv-x="718" d="M57 242q0 55 9.5 118.5t19.5 124.5q18 100 43 196.5t66 171.5t106.5 120t165.5 45q127 0 186.5 -56.5t59.5 -148.5q0 -94 -32 -164.5t-86 -117t-126 -69t-150 -22.5q-23 0 -61.5 3t-85.5 14q-10 -51 -19.5 -105.5t-9.5 -97.5q0 -35 6.5 -68.5t23.5 -60.5t48 -42t78 -15 q86 0 142.5 48t74.5 132l88 -17q-29 -117 -106.5 -180t-206.5 -63q-68 0 -112 19.5t-71.5 54t-39 80.5t-11.5 100zM184 537q31 -8 74 -12.5t72 -4.5q55 0 107 15.5t94 49t68 87t26 127.5q0 61 -42 100t-124 39q-104 0 -168 -94t-107 -307zM301 1206l16 80h424l-16 -80h-424z " />
<glyph unicode="&#x114;" horiz-adv-x="727" d="M25 0l276 1425h582l-19 -82h-491l-111 -571h434l-16 -80h-434l-119 -610h494l-15 -82h-581zM383 1729h76q-4 -66 33.5 -111t103.5 -45q72 0 126 42t79 114h73q-10 -43 -33.5 -84t-58 -73t-84 -52.5t-110.5 -20.5t-102.5 21.5t-66 55.5t-32.5 74t-4 79z" />
<glyph unicode="&#x115;" horiz-adv-x="718" d="M57 242q0 55 9.5 118.5t19.5 124.5q18 100 43 196.5t66 171.5t106.5 120t165.5 45q127 0 186.5 -56.5t59.5 -148.5q0 -94 -32 -164.5t-86 -117t-126 -69t-150 -22.5q-23 0 -61.5 3t-85.5 14q-10 -51 -19.5 -105.5t-9.5 -97.5q0 -35 6.5 -68.5t23.5 -60.5t48 -42t78 -15 q86 0 142.5 48t74.5 132l88 -17q-29 -117 -106.5 -180t-206.5 -63q-68 0 -112 19.5t-71.5 54t-39 80.5t-11.5 100zM184 537q31 -8 74 -12.5t72 -4.5q55 0 107 15.5t94 49t68 87t26 127.5q0 61 -42 100t-124 39q-104 0 -168 -94t-107 -307zM293 1370h76q-4 -66 34.5 -111 t102.5 -45q66 0 122 42t81 114h77q-10 -41 -33.5 -82t-59.5 -73.5t-84 -53t-107 -20.5q-61 0 -103.5 21.5t-67 55t-33.5 74.5t-5 78z" />
<glyph unicode="&#x116;" horiz-adv-x="727" d="M25 0l276 1425h582l-19 -82h-491l-111 -571h434l-16 -80h-434l-119 -610h494l-15 -82h-581zM561 1538l19 98h84l-19 -98h-84z" />
<glyph unicode="&#x117;" horiz-adv-x="718" d="M57 242q0 55 9.5 118.5t19.5 124.5q18 100 43 196.5t66 171.5t106.5 120t165.5 45q127 0 186.5 -56.5t59.5 -148.5q0 -94 -32 -164.5t-86 -117t-126 -69t-150 -22.5q-23 0 -61.5 3t-85.5 14q-10 -51 -19.5 -105.5t-9.5 -97.5q0 -35 6.5 -68.5t23.5 -60.5t48 -42t78 -15 q86 0 142.5 48t74.5 132l88 -17q-29 -117 -106.5 -180t-206.5 -63q-68 0 -112 19.5t-71.5 54t-39 80.5t-11.5 100zM184 537q31 -8 74 -12.5t72 -4.5q55 0 107 15.5t94 49t68 87t26 127.5q0 61 -42 100t-124 39q-104 0 -168 -94t-107 -307zM455 1190l18 98h84l-18 -98h-84z " />
<glyph unicode="&#x118;" horiz-adv-x="727" d="M25 0l276 1425h582l-19 -82h-491l-111 -571h434l-16 -80h-434l-119 -610h494l-15 -76h2l-2 -2v-4h-4q-51 -57 -80.5 -112.5t-29.5 -96.5q0 -74 71 -74q43 0 107 33l14 -61q-29 -18 -69.5 -31.5t-75.5 -13.5q-59 0 -90 36.5t-31 90.5q0 41 24.5 101t89.5 128h-507z" />
<glyph unicode="&#x119;" horiz-adv-x="718" d="M57 242q0 55 9.5 118.5t19.5 124.5q18 100 43 196.5t66 171.5t106.5 120t165.5 45q127 0 186.5 -56.5t59.5 -148.5q0 -94 -32 -164.5t-86 -117t-126 -69t-150 -22.5q-23 0 -61.5 3t-85.5 14q-10 -51 -19.5 -105.5t-9.5 -97.5q0 -35 6.5 -68.5t23.5 -60.5t48 -42t78 -15 q86 0 142.5 48t74.5 132l88 -17q-29 -121 -106 -180q-49 -55 -78 -109.5t-29 -95.5q0 -74 72 -73q43 0 106 32l15 -61q-29 -18 -70 -31.5t-76 -13.5q-59 0 -90 37t-31 90q0 31 14.5 76t51.5 96q-47 -10 -92 -10q-68 0 -112 19.5t-71.5 54t-39 80.5t-11.5 100zM184 537 q31 -8 74 -12.5t72 -4.5q55 0 107 15.5t94 49t68 87t26 127.5q0 61 -42 100t-124 39q-104 0 -168 -94t-107 -307z" />
<glyph unicode="&#x11a;" horiz-adv-x="727" d="M25 0l276 1425h582l-19 -82h-491l-111 -571h434l-16 -80h-434l-119 -610h494l-15 -82h-581zM352 1714l43 33l195 -158l256 156l31 -35l-265 -205h-65z" />
<glyph unicode="&#x11b;" horiz-adv-x="718" d="M57 242q0 55 9.5 118.5t19.5 124.5q18 100 43 196.5t66 171.5t106.5 120t165.5 45q127 0 186.5 -56.5t59.5 -148.5q0 -94 -32 -164.5t-86 -117t-126 -69t-150 -22.5q-23 0 -61.5 3t-85.5 14q-10 -51 -19.5 -105.5t-9.5 -97.5q0 -35 6.5 -68.5t23.5 -60.5t48 -42t78 -15 q86 0 142.5 48t74.5 132l88 -17q-29 -117 -106.5 -180t-206.5 -63q-68 0 -112 19.5t-71.5 54t-39 80.5t-11.5 100zM184 537q31 -8 74 -12.5t72 -4.5q55 0 107 15.5t94 49t68 87t26 127.5q0 61 -42 100t-124 39q-104 0 -168 -94t-107 -307zM295 1378l43 33l182 -197l264 199 l33 -35l-276 -248h-64z" />
<glyph unicode="&#x11c;" horiz-adv-x="808" d="M63 221q0 23 2.5 47.5t10.5 61.5l155 796q12 68 40 124.5t72 98.5t103.5 65.5t137.5 23.5q147 0 211.5 -71t64.5 -193q-2 -14 -2 -27.5t-4 -28.5q-23 -4 -44.5 -7t-43.5 -7q4 20 6 38.5t2 37.5q0 80 -47 127t-143 47q-100 0 -170 -52.5t-99 -193.5l-155 -799 q-6 -35 -6 -63q0 -82 47 -131t135 -49q113 0 186.5 59t91.5 170l74 362h-176l16 80h265q-23 -111 -43.5 -221t-42.5 -221q-31 -160 -131.5 -234.5t-237.5 -74.5q-55 0 -104.5 12t-87 40t-60.5 73t-23 110zM334 1536l274 211h66l186 -207l-37 -35l-190 156l-266 -158z" />
<glyph unicode="&#x11d;" horiz-adv-x="729" d="M-14 -172l82 20q-8 -180 149 -180q92 0 150.5 58.5t76.5 152.5l50 240h-5q-47 -61 -110.5 -96t-134.5 -35q-104 0 -151.5 52t-47.5 134q-2 66 12.5 164t36.5 209q10 55 23.5 112.5t32.5 118.5q20 72 51.5 118t70.5 72.5t80 37t82 10.5q82 0 132 -29t73 -80q2 0 2 1t2 1 q6 23 11 46.5t10 48.5h86l-222 -1139q-29 -141 -108.5 -210t-202.5 -69q-111 0 -174 62.5t-57 179.5zM137 211q0 -70 37 -105.5t105 -35.5q51 0 94 22.5t75.5 59t54 82t29.5 90.5l78 393q8 43 2 82t-26.5 68.5t-54 48t-82.5 18.5q-74 0 -119 -31t-80 -106 q-16 -35 -32.5 -108t-35.5 -165q-8 -43 -16 -87t-14.5 -86t-10.5 -78.5t-4 -61.5zM236 1161l280 252h66l178 -248l-41 -32l-180 196l-269 -201z" />
<glyph unicode="&#x11e;" horiz-adv-x="808" d="M63 221q0 23 2.5 47.5t10.5 61.5l155 796q12 68 40 124.5t72 98.5t103.5 65.5t137.5 23.5q147 0 211.5 -71t64.5 -193q-2 -14 -2 -27.5t-4 -28.5q-23 -4 -44.5 -7t-43.5 -7q4 20 6 38.5t2 37.5q0 80 -47 127t-143 47q-100 0 -170 -52.5t-99 -193.5l-155 -799 q-6 -35 -6 -63q0 -82 47 -131t135 -49q113 0 186.5 59t91.5 170l74 362h-176l16 80h265q-23 -111 -43.5 -221t-42.5 -221q-31 -160 -131.5 -234.5t-237.5 -74.5q-55 0 -104.5 12t-87 40t-60.5 73t-23 110zM406 1729h75q-4 -66 34 -111t103 -45q72 0 126.5 42t78.5 114h74 q-10 -43 -33.5 -84t-58.5 -73t-84 -52.5t-111 -20.5q-61 0 -102 21.5t-65.5 55.5t-33 74t-3.5 79z" />
<glyph unicode="&#x11f;" horiz-adv-x="729" d="M-14 -172l82 20q-8 -180 149 -180q92 0 150.5 58.5t76.5 152.5l50 240h-5q-47 -61 -110.5 -96t-134.5 -35q-104 0 -151.5 52t-47.5 134q-2 66 12.5 164t36.5 209q10 55 23.5 112.5t32.5 118.5q20 72 51.5 118t70.5 72.5t80 37t82 10.5q82 0 132 -29t73 -80q2 0 2 1t2 1 q6 23 11 46.5t10 48.5h86l-222 -1139q-29 -141 -108.5 -210t-202.5 -69q-111 0 -174 62.5t-57 179.5zM137 211q0 -70 37 -105.5t105 -35.5q51 0 94 22.5t75.5 59t54 82t29.5 90.5l78 393q8 43 2 82t-26.5 68.5t-54 48t-82.5 18.5q-74 0 -119 -31t-80 -106 q-16 -35 -32.5 -108t-35.5 -165q-8 -43 -16 -87t-14.5 -86t-10.5 -78.5t-4 -61.5zM285 1370h75q-4 -66 35 -111t103 -45q66 0 122 42t80 114h78q-10 -41 -33.5 -82t-59.5 -73.5t-84 -53t-107 -20.5q-61 0 -103.5 21.5t-67 55t-33.5 74.5t-5 78z" />
<glyph unicode="&#x120;" horiz-adv-x="808" d="M63 221q0 23 2.5 47.5t10.5 61.5l155 796q12 68 40 124.5t72 98.5t103.5 65.5t137.5 23.5q147 0 211.5 -71t64.5 -193q-2 -14 -2 -27.5t-4 -28.5q-23 -4 -44.5 -7t-43.5 -7q4 20 6 38.5t2 37.5q0 80 -47 127t-143 47q-100 0 -170 -52.5t-99 -193.5l-155 -799 q-6 -35 -6 -63q0 -82 47 -131t135 -49q113 0 186.5 59t91.5 170l74 362h-176l16 80h265q-23 -111 -43.5 -221t-42.5 -221q-31 -160 -131.5 -234.5t-237.5 -74.5q-55 0 -104.5 12t-87 40t-60.5 73t-23 110zM580 1538l18 98h84l-18 -98h-84z" />
<glyph unicode="&#x121;" horiz-adv-x="729" d="M-14 -172l82 20q-8 -180 149 -180q92 0 150.5 58.5t76.5 152.5l50 240h-5q-47 -61 -110.5 -96t-134.5 -35q-104 0 -151.5 52t-47.5 134q-2 66 12.5 164t36.5 209q10 55 23.5 112.5t32.5 118.5q20 72 51.5 118t70.5 72.5t80 37t82 10.5q82 0 132 -29t73 -80q2 0 2 1t2 1 q6 23 11 46.5t10 48.5h86l-222 -1139q-29 -141 -108.5 -210t-202.5 -69q-111 0 -174 62.5t-57 179.5zM137 211q0 -70 37 -105.5t105 -35.5q51 0 94 22.5t75.5 59t54 82t29.5 90.5l78 393q8 43 2 82t-26.5 68.5t-54 48t-82.5 18.5q-74 0 -119 -31t-80 -106 q-16 -35 -32.5 -108t-35.5 -165q-8 -43 -16 -87t-14.5 -86t-10.5 -78.5t-4 -61.5zM473 1190l19 98h83l-18 -98h-84z" />
<glyph unicode="&#x122;" horiz-adv-x="808" d="M63 221q0 23 2.5 47.5t10.5 61.5l155 796q12 68 40 124.5t72 98.5t103.5 65.5t137.5 23.5q147 0 211.5 -71t64.5 -193q-2 -14 -2 -27.5t-4 -28.5q-23 -4 -44.5 -7t-43.5 -7q4 20 6 38.5t2 37.5q0 80 -47 127t-143 47q-100 0 -170 -52.5t-99 -193.5l-155 -799 q-6 -35 -6 -63q0 -82 47 -131t135 -49q113 0 186.5 59t91.5 170l74 362h-176l16 80h265q-23 -111 -43.5 -221t-42.5 -221q-31 -160 -131.5 -234.5t-237.5 -74.5q-55 0 -104.5 12t-87 40t-60.5 73t-23 110zM182 -414l74 174h-27q4 29 11.5 57.5t11.5 57.5h106 q-4 -29 -10 -57.5t-12 -57.5l-98 -174h-56z" />
<glyph unicode="&#x123;" horiz-adv-x="729" d="M-14 -172l82 20q-8 -180 149 -180q92 0 150.5 58.5t76.5 152.5l50 240h-5q-47 -61 -110.5 -96t-134.5 -35q-104 0 -151.5 52t-47.5 134q-2 66 12.5 164t36.5 209q10 55 23.5 112.5t32.5 118.5q20 72 51.5 118t70.5 72.5t80 37t82 10.5q82 0 132 -29t73 -80q2 0 2 1t2 1 q6 23 11 46.5t10 48.5h86l-222 -1139q-29 -141 -108.5 -210t-202.5 -69q-111 0 -174 62.5t-57 179.5zM137 211q0 -70 37 -105.5t105 -35.5q51 0 94 22.5t75.5 59t54 82t29.5 90.5l78 393q8 43 2 82t-26.5 68.5t-54 48t-82.5 18.5q-74 0 -119 -31t-80 -106 q-16 -35 -32.5 -108t-35.5 -165q-8 -43 -16 -87t-14.5 -86t-10.5 -78.5t-4 -61.5zM457 1153q4 29 10 56.5t12 56.5l99 174h55l-74 -172h27q-4 -29 -10.5 -57.5t-12.5 -57.5h-106z" />
<glyph unicode="&#x124;" horiz-adv-x="843" d="M25 0l276 1425h88l-129 -655h455l129 655h88l-277 -1425h-88l133 690h-452l-135 -690h-88zM358 1536l275 211h65l187 -207l-37 -35l-191 156l-266 -158z" />
<glyph unicode="&#x125;" horiz-adv-x="733" d="M4 0l289 1487h88l-119 -610h4q51 70 117 104.5t133 34.5q57 0 95 -15.5t60.5 -43t32 -63.5t9.5 -75q0 -23 -3 -47t-8 -49l-139 -723h-90l141 719q4 16 6.5 34.5t2.5 34.5q0 57 -29 98.5t-113 41.5q-43 0 -86 -22.5t-77.5 -57.5t-60.5 -79t-34 -87l-131 -682h-88zM68 1536 l274 211h66l186 -207l-37 -35l-190 156l-267 -158z" />
<glyph unicode="&#x126;" horiz-adv-x="843" d="M25 0l223 1153h-90l12 66h90l41 206h88l-41 -206h455l41 206h88l-41 -206h90l-14 -66h-88l-224 -1153h-88l133 690h-452l-135 -690h-88zM260 770h455l76 383h-455z" />
<glyph unicode="&#x127;" horiz-adv-x="733" d="M4 0l232 1192h-93l13 63h92l45 232h88l-45 -232h332l-13 -63h-331l-62 -315h4q51 70 117 104.5t133 34.5q57 0 95 -15.5t60.5 -43t32 -63.5t9.5 -75q0 -23 -3 -47t-8 -49l-139 -723h-90l141 719q4 16 6.5 34.5t2.5 34.5q0 57 -29 98.5t-113 41.5q-43 0 -86 -22.5 t-77.5 -57.5t-60.5 -79t-34 -87l-131 -682h-88z" />
<glyph unicode="&#x128;" horiz-adv-x="356" d="M51 0l277 1425h90l-277 -1425h-90zM123 1530q35 53 81 85t89 32q31 0 57.5 -12.5t52 -26t51 -25.5t56.5 -12q29 0 57.5 18.5t57.5 59.5l49 -29q-35 -70 -85 -98.5t-91 -28.5q-31 0 -58.5 12.5t-53.5 25.5t-50.5 25.5t-50.5 12.5q-25 0 -54.5 -18.5t-56.5 -51.5z" />
<glyph unicode="&#x129;" horiz-adv-x="456" d="M104 0l193 1001h90l-194 -1001h-89zM111 1210q35 53 81 85t89 32q31 0 57.5 -12t52 -25.5t51 -26t56.5 -12.5q29 0 57.5 18.5t56.5 59.5l50 -29q-35 -70 -85.5 -98t-91.5 -28q-31 0 -58.5 12t-53 25.5t-50 25.5t-51.5 12q-25 0 -54.5 -18.5t-55.5 -50.5z" />
<glyph unicode="&#x12a;" horiz-adv-x="356" d="M51 0l277 1425h90l-277 -1425h-90zM178 1536l17 80h421l-14 -80h-424z" />
<glyph unicode="&#x12b;" horiz-adv-x="415" d="M31 0l192 1001h90l-194 -1001h-88zM98 1206l17 80h424l-17 -80h-424z" />
<glyph unicode="&#x12c;" horiz-adv-x="356" d="M51 0l277 1425h90l-277 -1425h-90zM184 1726h76q-4 -66 35 -110.5t102 -44.5q66 0 122 42t81 113h78q-10 -41 -33.5 -81.5t-59.5 -73.5t-84 -53.5t-108 -20.5q-61 0 -103 21.5t-66.5 55.5t-34 75t-5.5 77z" />
<glyph unicode="&#x12d;" horiz-adv-x="397" d="M92 0l193 1001h90l-195 -1001h-88zM143 1382h76q-4 -66 35 -110.5t102 -44.5q66 0 122.5 42t80.5 113h78q-10 -41 -33.5 -81.5t-59.5 -73.5t-84 -53.5t-108 -20.5q-61 0 -103 21.5t-66.5 55.5t-34 75t-5.5 77z" />
<glyph unicode="&#x12e;" horiz-adv-x="356" d="M-51 -229q0 41 25.5 101t88.5 128h-12l277 1425h90l-277 -1425h-8q-51 -57 -80.5 -112.5t-29.5 -96.5q0 -74 71 -74q43 0 107 33l14 -61q-29 -18 -69.5 -31.5t-75.5 -13.5q-59 0 -90 36.5t-31 90.5z" />
<glyph unicode="&#x12f;" horiz-adv-x="317" d="M-74 -229q0 41 25.5 101t89.5 128h-10l192 1001h90l-194 -1001h-8q-51 -57 -81 -112.5t-30 -96.5q0 -74 72 -74q43 0 106 33l15 -61q-29 -18 -70 -31.5t-76 -13.5q-59 0 -90 36.5t-31 90.5zM270 1245l19 98h92l-19 -98h-92z" />
<glyph unicode="&#x130;" horiz-adv-x="356" d="M51 0l277 1425h90l-277 -1425h-90zM344 1509l18 99h84l-18 -99h-84z" />
<glyph unicode="&#x131;" horiz-adv-x="317" d="M31 0l192 1001h90l-194 -1001h-88z" />
<glyph unicode="&#x132;" horiz-adv-x="980" d="M51 0l277 1425h90l-277 -1425h-90zM252 74l59 57q27 -27 77 -46t97 -19q41 0 78 8t69 32.5t55.5 67.5t35.5 113l223 1138h88l-221 -1136q-16 -84 -43 -141.5t-67.5 -93.5t-96 -52t-129.5 -16q-63 0 -126.5 25.5t-98.5 62.5z" />
<glyph unicode="&#x133;" horiz-adv-x="610" d="M31 0l192 1001h90l-194 -1001h-88zM113 -406l14 80h16q43 0 70 12.5t44 34t27.5 53t18.5 72.5l225 1155h88q-4 -23 -16 -84t-28.5 -148t-37 -190.5t-41 -210t-41 -207t-37 -181t-27.5 -135t-13 -64.5q-25 -98 -78 -143.5t-152 -45.5h-15t-17 2zM270 1245l19 98h92 l-19 -98h-92zM575 1245l19 98h92l-18 -98h-93z" />
<glyph unicode="&#x134;" horiz-adv-x="657" d="M-72 76l60 57q27 -27 77 -46t97 -19q41 0 77.5 8t68.5 32.5t55.5 67.5t35.5 113l224 1138h88l-222 -1136q-16 -84 -42.5 -141.5t-67.5 -93.5t-96.5 -52t-128.5 -16q-63 0 -127 25.5t-99 62.5zM408 1540l274 211h66l186 -207l-37 -35l-190 156l-267 -158z" />
<glyph unicode="&#x135;" horiz-adv-x="434" d="M-117 -414q4 20 7.5 40t7.5 40q6 -2 16 -2q43 0 69.5 12.5t44 35t28 54t18.5 72.5q53 293 110.5 582t112.5 581h88l-215 -1116q-6 -29 -11 -56.5t-14 -55.5q-25 -98 -78 -143.5t-151 -45.5h-15t-18 2zM90 1161q139 121 281 250h65q43 -61 88 -122.5t90 -123.5 q-10 -10 -21 -18t-22 -17l-180 199l-266 -201z" />
<glyph unicode="&#x136;" horiz-adv-x="813" d="M25 0l276 1425h86l-162 -831h4l609 831h98l-408 -565l193 -860h-92l-168 770l-273 -371l-77 -399h-86zM217 -373l74 174h-27q4 29 11.5 57.5t11.5 57.5h106q-4 -29 -10 -57.5t-12 -57.5l-99 -174h-55z" />
<glyph unicode="&#x137;" horiz-adv-x="708" d="M4 0l289 1489h88l-209 -1061h2l477 573h105l-305 -370l165 -631h-90l-141 557l-242 -297l-51 -260h-88zM162 -414l74 174h-27q4 29 11 57.5t11 57.5h107q-4 -29 -10 -57.5t-13 -57.5l-98 -174h-55z" />
<glyph unicode="&#x138;" horiz-adv-x="708" d="M4 0l197 1004h88l-117 -576h2l477 573h105l-305 -370l165 -631h-90l-141 557l-242 -297l-51 -260h-88z" />
<glyph unicode="&#x139;" horiz-adv-x="681" d="M27 0l276 1425h88l-262 -1343h467l-14 -82h-555zM342 1532l303 215l53 -74l-329 -182z" />
<glyph unicode="&#x13a;" horiz-adv-x="344" d="M49 139q2 16 3 35t5 39l248 1274h88l-246 -1268q-2 -12 -3 -25.5t-1 -25.5q0 -41 23.5 -71.5t101.5 -30.5l-14 -80q-104 0 -154.5 34.5t-50.5 118.5zM336 1573l303 215l53 -74l-330 -182z" />
<glyph unicode="&#x13b;" horiz-adv-x="681" d="M27 0l276 1425h88l-262 -1343h467l-14 -82h-555zM164 -414l74 174h-27q4 29 11 57.5t11 57.5h107q-4 -29 -10 -57.5t-13 -57.5l-98 -174h-55z" />
<glyph unicode="&#x13c;" horiz-adv-x="344" d="M-20 -414l73 174h-26q4 29 11 57.5t11 57.5h107q-4 -29 -10.5 -57.5t-12.5 -57.5l-98 -174h-55zM49 139q2 16 3 35t5 39l248 1274h88l-246 -1268q-2 -12 -3 -25.5t-1 -25.5q0 -41 23.5 -71.5t101.5 -30.5l-14 -80q-104 0 -154.5 34.5t-50.5 118.5z" />
<glyph unicode="&#x13d;" horiz-adv-x="681" d="M27 0l276 1425h88l-262 -1343h467l-14 -82h-555zM508 1137l74 174h-27q4 29 11 57.5t12 56.5h106q-4 -29 -10 -57.5t-12 -56.5l-99 -174h-55z" />
<glyph unicode="&#x13e;" horiz-adv-x="446" d="M49 139q2 16 3 35t5 39l248 1274h88l-246 -1268q-2 -12 -3 -25.5t-1 -25.5q0 -41 23.5 -71.5t101.5 -30.5l-14 -80q-104 0 -154.5 34.5t-50.5 118.5zM451 1198l73 174h-26q4 29 11 57.5t11 57.5h107q-4 -29 -10.5 -57.5t-12.5 -57.5l-98 -174h-55z" />
<glyph unicode="&#x13f;" horiz-adv-x="681" d="M27 0l276 1425h88l-262 -1343h467l-14 -82h-555zM535 659l18 99h84l-19 -99h-83z" />
<glyph unicode="&#x140;" horiz-adv-x="434" d="M49 139q2 16 3 35t5 39l248 1274h88l-246 -1268q-2 -12 -3 -25.5t-1 -25.5q0 -41 23.5 -71.5t101.5 -30.5l-14 -80q-104 0 -154.5 34.5t-50.5 118.5zM369 707l18 96h84l-18 -96h-84z" />
<glyph unicode="&#x141;" horiz-adv-x="759" d="M6 492l219 120l158 813h88l-147 -757l249 141l23 -53l-287 -162l-100 -512h467l-14 -82h-556l105 539l-180 -101z" />
<glyph unicode="&#x142;" horiz-adv-x="493" d="M4 567l234 129l153 791h88l-143 -735q49 27 97 53t97 55q4 -14 10.5 -26.5t12.5 -26.5l-231 -129l-89 -459q-2 -12 -3 -25.5t-1 -25.5q0 -41 23.5 -71.5t101.5 -30.5l-14 -80q-104 0 -154.5 34.5t-50.5 118.5q2 16 3 35t5 39l80 408l-196 -109q-4 14 -11.5 27.5 t-11.5 27.5z" />
<glyph unicode="&#x143;" horiz-adv-x="882" d="M20 0l277 1425h82l272 -1187h6l232 1187h86l-277 -1425h-84l-270 1198h-6q-57 -301 -114.5 -599t-117.5 -599h-86zM592 1532l303 215l53 -74l-330 -182z" />
<glyph unicode="&#x144;" horiz-adv-x="731" d="M2 0q49 250 98.5 500t96.5 501h88q-6 -31 -13.5 -62.5t-11.5 -61.5h4q51 70 116.5 104.5t133.5 34.5q57 0 95 -15.5t60.5 -43t32 -63.5t9.5 -75q0 -45 -11 -102l-139 -717h-90l139 709q4 23 7.5 42t3.5 42q0 55 -29 95t-113 40q-55 0 -99 -24.5t-78 -64.5t-56.5 -89.5 t-30.5 -98.5l-125 -651h-88zM406 1159l196 309l86 -34l-237 -295z" />
<glyph unicode="&#x145;" horiz-adv-x="882" d="M20 0l277 1425h82l272 -1187h6l232 1187h86l-277 -1425h-84l-270 1198h-6q-57 -301 -114.5 -599t-117.5 -599h-86zM225 -346l74 174h-27q4 29 11.5 57.5t11.5 57.5h106q-4 -29 -10 -57.5t-12 -57.5l-98 -174h-56z" />
<glyph unicode="&#x146;" horiz-adv-x="731" d="M2 0q49 250 98.5 500t96.5 501h88q-6 -31 -13.5 -62.5t-11.5 -61.5h4q51 70 116.5 104.5t133.5 34.5q57 0 95 -15.5t60.5 -43t32 -63.5t9.5 -75q0 -45 -11 -102l-139 -717h-90l139 709q4 23 7.5 42t3.5 42q0 55 -29 95t-113 40q-55 0 -99 -24.5t-78 -64.5t-56.5 -89.5 t-30.5 -98.5l-125 -651h-88zM135 -414l74 174h-27q4 29 11.5 57.5t11.5 57.5h106q-4 -29 -10 -57.5t-12 -57.5l-99 -174h-55z" />
<glyph unicode="&#x147;" horiz-adv-x="882" d="M20 0l277 1425h82l272 -1187h6l232 1187h86l-277 -1425h-84l-270 1198h-6q-57 -301 -114.5 -599t-117.5 -599h-86zM426 1714l43 33l195 -158l256 156l30 -35l-264 -205h-65z" />
<glyph unicode="&#x148;" horiz-adv-x="731" d="M2 0q49 250 98.5 500t96.5 501h88q-6 -31 -13.5 -62.5t-11.5 -61.5h4q51 70 116.5 104.5t133.5 34.5q57 0 95 -15.5t60.5 -43t32 -63.5t9.5 -75q0 -45 -11 -102l-139 -717h-90l139 709q4 23 7.5 42t3.5 42q0 55 -29 95t-113 40q-55 0 -99 -24.5t-78 -64.5t-56.5 -89.5 t-30.5 -98.5l-125 -651h-88zM274 1389l43 32l183 -196l264 198l33 -34l-277 -248h-63z" />
<glyph unicode="&#x149;" horiz-adv-x="841" d="M113 0l98 500t96 501h88q-6 -31 -13 -62.5t-11 -61.5h4q51 70 116.5 104.5t133.5 34.5q57 0 95 -15.5t60.5 -43t31.5 -63.5t9 -75q0 -45 -10 -102l-139 -717h-90l139 709q4 23 7 42t3 42q0 55 -28.5 95t-112.5 40q-55 0 -99.5 -24.5t-78 -64.5t-56 -89.5t-30.5 -98.5 l-125 -651h-88zM133 1020l74 174h-27q4 29 11.5 57.5t11.5 57.5h106q-4 -29 -10 -57.5t-12 -57.5l-99 -174h-55z" />
<glyph unicode="&#x14a;" horiz-adv-x="882" d="M20 0l277 1425h82l180 -782l92 -405h6l232 1187h86l-303 -1556q-23 -111 -77 -158t-120 -47q-55 0 -108 29l26 67q45 -20 76 -20q47 0 74.5 36t38.5 91l28 149q-8 35 -28.5 130.5t-48 217t-58.5 258t-57.5 256t-47 206.5t-26.5 114h-6q-57 -301 -114.5 -599t-117.5 -599 h-86z" />
<glyph unicode="&#x14b;" horiz-adv-x="731" d="M2 0q49 250 98.5 500t96.5 501h88q-6 -31 -13.5 -62.5t-11.5 -61.5h4q51 70 116.5 104.5t133.5 34.5q57 0 95 -15.5t60.5 -43t32 -63.5t9.5 -75q0 -45 -11 -102l-174 -879q-18 -94 -72.5 -134t-113.5 -40q-57 0 -109 29l27 65q39 -18 76 -18q47 0 75.5 36t39.5 91 l161 842q4 23 7.5 42t3.5 42q0 55 -29 95t-113 40q-55 0 -99 -24.5t-78 -64.5t-56.5 -89.5t-30.5 -98.5l-125 -651h-88z" />
<glyph unicode="&#x14c;" horiz-adv-x="825" d="M70 248q0 45 8 86l151 784q29 154 126.5 237t240.5 83q129 0 199.5 -69t70.5 -191q0 -43 -8 -84l-151 -799q-16 -88 -50 -147.5t-81.5 -95.5t-106.5 -51t-129 -15q-131 0 -200.5 71.5t-69.5 190.5zM156 264q0 -88 46 -143t142 -55q111 0 179.5 51t90.5 174l156 805 q8 33 8 71q0 86 -48 137.5t-140 51.5q-57 0 -104.5 -19.5t-82 -53.5t-57 -79t-33.5 -96l-151 -774q-6 -37 -6 -70zM418 1536l16 80h422l-14 -80h-424z" />
<glyph unicode="&#x14d;" horiz-adv-x="714" d="M45 197q0 27 3 61.5t8 74.5t11.5 81t14.5 78q29 135 53.5 232t63.5 161q80 131 258 131q63 0 107 -18.5t73 -49t42 -68.5t13 -75q2 -59 -13 -150.5t-36 -195.5q-25 -129 -52.5 -219t-67.5 -146.5t-98 -82t-146 -25.5q-66 0 -110 19.5t-71.5 50t-40 67.5t-12.5 74z M131 211q0 -59 36 -103.5t126 -44.5q68 0 118 31t81 101q14 37 34.5 111.5t39 160.5t30.5 171t12 144q0 70 -41.5 113t-117.5 43q-53 0 -103.5 -21.5t-85.5 -85.5q-23 -41 -46.5 -138t-51.5 -234q-31 -166 -31 -248zM299 1206l16 80h424l-16 -80h-424z" />
<glyph unicode="&#x14e;" horiz-adv-x="825" d="M70 248q0 45 8 86l151 784q29 154 126.5 237t240.5 83q129 0 199.5 -69t70.5 -191q0 -43 -8 -84l-151 -799q-16 -88 -50 -147.5t-81.5 -95.5t-106.5 -51t-129 -15q-131 0 -200.5 71.5t-69.5 190.5zM156 264q0 -88 46 -143t142 -55q111 0 179.5 51t90.5 174l156 805 q8 33 8 71q0 86 -48 137.5t-140 51.5q-57 0 -104.5 -19.5t-82 -53.5t-57 -79t-33.5 -96l-151 -774q-6 -37 -6 -70zM414 1729h75q-4 -66 34 -111t104 -45q72 0 126 42t78 114h74q-10 -43 -33.5 -84t-58.5 -73t-84 -52.5t-111 -20.5q-61 0 -102 21.5t-65.5 55.5t-32.5 74 t-4 79z" />
<glyph unicode="&#x14f;" horiz-adv-x="714" d="M45 197q0 27 3 61.5t8 74.5t11.5 81t14.5 78q29 135 53.5 232t63.5 161q80 131 258 131q63 0 107 -18.5t73 -49t42 -68.5t13 -75q2 -59 -13 -150.5t-36 -195.5q-25 -129 -52.5 -219t-67.5 -146.5t-98 -82t-146 -25.5q-66 0 -110 19.5t-71.5 50t-40 67.5t-12.5 74z M131 211q0 -59 36 -103.5t126 -44.5q68 0 118 31t81 101q14 37 34.5 111.5t39 160.5t30.5 171t12 144q0 70 -41.5 113t-117.5 43q-53 0 -103.5 -21.5t-85.5 -85.5q-23 -41 -46.5 -138t-51.5 -234q-31 -166 -31 -248zM287 1370h75q-4 -66 35 -111t103 -45q66 0 122 42t80 114 h78q-10 -41 -33.5 -82t-59.5 -73.5t-84 -53t-107 -20.5q-61 0 -103.5 21.5t-67 55t-33.5 74.5t-5 78z" />
<glyph unicode="&#x150;" horiz-adv-x="825" d="M70 248q0 45 8 86l151 784q29 154 126.5 237t240.5 83q129 0 199.5 -69t70.5 -191q0 -43 -8 -84l-151 -799q-16 -88 -50 -147.5t-81.5 -95.5t-106.5 -51t-129 -15q-131 0 -200.5 71.5t-69.5 190.5zM156 264q0 -88 46 -143t142 -55q111 0 179.5 51t90.5 174l156 805 q8 33 8 71q0 86 -48 137.5t-140 51.5q-57 0 -104.5 -19.5t-82 -53.5t-57 -79t-33.5 -96l-151 -774q-6 -37 -6 -70zM461 1532l295 215l53 -74l-322 -182zM686 1532l295 215l53 -74l-321 -182z" />
<glyph unicode="&#x151;" horiz-adv-x="714" d="M45 197q0 27 3 61.5t8 74.5t11.5 81t14.5 78q29 135 53.5 232t63.5 161q80 131 258 131q63 0 107 -18.5t73 -49t42 -68.5t13 -75q2 -59 -13 -150.5t-36 -195.5q-25 -129 -52.5 -219t-67.5 -146.5t-98 -82t-146 -25.5q-66 0 -110 19.5t-71.5 50t-40 67.5t-12.5 74z M131 211q0 -59 36 -103.5t126 -44.5q68 0 118 31t81 101q14 37 34.5 111.5t39 160.5t30.5 171t12 144q0 70 -41.5 113t-117.5 43q-53 0 -103.5 -21.5t-85.5 -85.5q-23 -41 -46.5 -138t-51.5 -234q-31 -166 -31 -248zM385 1159l197 309l86 -34l-238 -295zM561 1159l197 309 l86 -34l-238 -295z" />
<glyph unicode="&#x152;" horiz-adv-x="1148" d="M78 336l151 782q29 154 116 237t230 83q29 0 66 -4t59 -9h603l-19 -82h-491l-111 -571h434l-16 -80h-434l-119 -610h493l-14 -82h-573q-53 -12 -113 -12q-154 0 -224.5 88t-37.5 260zM162 336q-27 -129 20 -198.5t162 -69.5q63 0 117 18l239 1241q-23 14 -59.5 21.5 t-71.5 7.5q-59 0 -102 -19.5t-74 -53.5t-50 -79t-30 -96z" />
<glyph unicode="&#x153;" horiz-adv-x="1208" d="M45 197q0 27 2 61.5t7 74.5t11.5 81t14.5 78q29 135 54.5 232t64.5 161q80 131 258 131q104 0 159.5 -49t69.5 -113q41 74 105.5 119t164.5 45q127 0 186.5 -56.5t59.5 -148.5q0 -94 -31.5 -164.5t-86 -117t-126 -69t-149.5 -22.5q-23 0 -61.5 3t-85.5 14 q-10 -51 -19.5 -105.5t-9.5 -97.5q0 -35 6 -68.5t23.5 -60.5t48 -42t77.5 -15q86 0 142.5 48t75.5 132l88 -17q-29 -117 -107 -180t-207 -63q-102 -2 -154.5 43t-68.5 114q-43 -86 -107.5 -122.5t-170.5 -36.5q-66 0 -110 19.5t-71.5 50t-40 67.5t-12.5 74zM131 211 q0 -59 36 -103.5t126 -44.5q68 0 118 31t81 101q14 37 34.5 111.5t39 160.5t30.5 171t12 144q0 70 -41.5 113t-117.5 43q-53 0 -103.5 -21.5t-85.5 -85.5q-23 -41 -47.5 -138t-52.5 -234q-16 -84 -22.5 -145.5t-6.5 -102.5zM674 537q31 -8 74 -12.5t71 -4.5q55 0 107.5 15.5 t94.5 49t67.5 87t25.5 127.5q0 61 -42 100t-124 39q-104 0 -167.5 -94t-106.5 -307z" />
<glyph unicode="&#x154;" horiz-adv-x="813" d="M25 0l276 1425h264q170 0 241 -69.5t71 -200.5q0 -199 -78 -320.5t-232 -162.5q10 -78 23.5 -165l27 -174t25.5 -172t25 -161h-90l-95 655q-18 -2 -36.5 -2h-36.5h-172l-125 -653h-88zM252 729h186q160 0 255 104.5t95 309.5q0 98 -51 150.5t-188 52.5h-176 q-29 -156 -59.5 -308.5t-61.5 -308.5zM512 1532l303 215l53 -74l-329 -182z" />
<glyph unicode="&#x155;" horiz-adv-x="479" d="M31 0l194 1001h88l-28 -143h4q47 82 111.5 121t142.5 39h20t21 -2l-21 -103q-12 4 -25.5 4.5t-25.5 0.5q-102 0 -173 -74t-95 -203l-125 -641h-88zM356 1159l197 309l86 -34l-238 -295z" />
<glyph unicode="&#x156;" horiz-adv-x="813" d="M25 0l276 1425h264q170 0 241 -69.5t71 -200.5q0 -199 -78 -320.5t-232 -162.5q10 -78 23.5 -165l27 -174t25.5 -172t25 -161h-90l-95 655q-18 -2 -36.5 -2h-36.5h-172l-125 -653h-88zM190 -373l74 174h-26q4 29 11 57.5t11 57.5h107q-4 -29 -10.5 -57.5t-12.5 -57.5 l-98 -174h-56zM252 729h186q160 0 255 104.5t95 309.5q0 98 -51 150.5t-188 52.5h-176q-29 -156 -59.5 -308.5t-61.5 -308.5z" />
<glyph unicode="&#x157;" horiz-adv-x="479" d="M-72 -414l74 174h-27q4 29 11.5 57.5t11.5 57.5h106q-4 -29 -10 -57.5t-12 -57.5l-98 -174h-56zM31 0l194 1001h88l-28 -143h4q47 82 111.5 121t142.5 39h20t21 -2l-21 -103q-12 4 -25.5 4.5t-25.5 0.5q-102 0 -173 -74t-95 -203l-125 -641h-88z" />
<glyph unicode="&#x158;" horiz-adv-x="813" d="M25 0l276 1425h264q170 0 241 -69.5t71 -200.5q0 -199 -78 -320.5t-232 -162.5q10 -78 23.5 -165l27 -174t25.5 -172t25 -161h-90l-95 655q-18 -2 -36.5 -2h-36.5h-172l-125 -653h-88zM252 729h186q160 0 255 104.5t95 309.5q0 98 -51 150.5t-188 52.5h-176 q-29 -156 -59.5 -308.5t-61.5 -308.5zM338 1714l43 33l194 -158l256 156l31 -35l-264 -205h-66z" />
<glyph unicode="&#x159;" horiz-adv-x="479" d="M31 0l194 1001h88l-28 -143h4q47 82 111.5 121t142.5 39h20t21 -2l-21 -103q-12 4 -25.5 4.5t-25.5 0.5q-102 0 -173 -74t-95 -203l-125 -641h-88zM154 1378l43 33l182 -197l264 199l33 -35l-277 -248h-63z" />
<glyph unicode="&#x15a;" horiz-adv-x="774" d="M37 233q0 33 6 70l92 12q-4 -18 -6 -36.5t-2 -34.5q0 -72 43 -123t152 -51q86 0 143 36.5t93 95t50.5 133.5t14.5 148q0 80 -42 126t-141 96q-74 37 -121 70.5t-74.5 68.5t-37.5 71.5t-10 77.5q0 98 25.5 179t74.5 140.5t120 92.5t163 33q76 0 129 -19.5t85.5 -52.5 t47 -76t14.5 -88q0 -18 -2 -37.5t-6 -40.5l-92 -16q8 35 8 76q0 70 -43 120t-152 50q-84 0 -137 -38t-86 -91.5t-45 -112.5t-12 -104q0 -35 10 -64t35.5 -56.5t68.5 -55t107 -58.5q119 -53 162 -114.5t43 -151.5q0 -115 -22.5 -210t-71 -165t-123 -108.5t-179.5 -38.5 q-76 0 -129 18.5t-86.5 52t-50 78.5t-16.5 98zM539 1532l303 215l53 -74l-330 -182z" />
<glyph unicode="&#x15b;" horiz-adv-x="659" d="M14 180q0 27 6 62l89 12q-4 -12 -4.5 -25.5t-0.5 -25.5q0 -61 39 -98t117 -37q123 0 176 71.5t53 182.5q0 59 -31.5 94t-119.5 71q-123 51 -164 105.5t-41 122.5q0 133 81 218t235 85q115 0 175 -49t60 -142q0 -16 -2 -32.5t-6 -34.5l-90 -15q6 31 6 54q0 63 -41 99 t-119 36q-59 0 -99 -18.5t-64.5 -48t-35 -66.5t-10.5 -72q0 -53 37 -91t141 -79q106 -41 142.5 -95t36.5 -128q0 -76 -18.5 -140.5t-58.5 -110.5t-101.5 -72.5t-147.5 -26.5q-117 0 -178.5 50t-61.5 144zM430 1159l197 309l86 -34l-238 -295z" />
<glyph unicode="&#x15c;" horiz-adv-x="774" d="M37 233q0 33 6 70l92 12q-4 -18 -6 -36.5t-2 -34.5q0 -72 43 -123t152 -51q86 0 143 36.5t93 95t50.5 133.5t14.5 148q0 80 -42 126t-141 96q-74 37 -121 70.5t-74.5 68.5t-37.5 71.5t-10 77.5q0 98 25.5 179t74.5 140.5t120 92.5t163 33q76 0 129 -19.5t85.5 -52.5 t47 -76t14.5 -88q0 -18 -2 -37.5t-6 -40.5l-92 -16q8 35 8 76q0 70 -43 120t-152 50q-84 0 -137 -38t-86 -91.5t-45 -112.5t-12 -104q0 -35 10 -64t35.5 -56.5t68.5 -55t107 -58.5q119 -53 162 -114.5t43 -151.5q0 -115 -22.5 -210t-71 -165t-123 -108.5t-179.5 -38.5 q-76 0 -129 18.5t-86.5 52t-50 78.5t-16.5 98zM324 1536l274 211h66l186 -207l-37 -35l-190 156l-267 -158z" />
<glyph unicode="&#x15d;" horiz-adv-x="659" d="M14 180q0 27 6 62l89 12q-4 -12 -4.5 -25.5t-0.5 -25.5q0 -61 39 -98t117 -37q123 0 176 71.5t53 182.5q0 59 -31.5 94t-119.5 71q-123 51 -164 105.5t-41 122.5q0 133 81 218t235 85q115 0 175 -49t60 -142q0 -16 -2 -32.5t-6 -34.5l-90 -15q6 31 6 54q0 63 -41 99 t-119 36q-59 0 -99 -18.5t-64.5 -48t-35 -66.5t-10.5 -72q0 -53 37 -91t141 -79q106 -41 142.5 -95t36.5 -128q0 -76 -18.5 -140.5t-58.5 -110.5t-101.5 -72.5t-147.5 -26.5q-117 0 -178.5 50t-61.5 144zM197 1161l280 252h66l178 -248l-41 -32l-180 196l-269 -201z" />
<glyph unicode="&#x15e;" horiz-adv-x="774" d="M37 233q0 33 6 70l92 12q-4 -18 -6 -36.5t-2 -34.5q0 -72 43 -123t152 -51q86 0 143 36.5t93 95t50.5 133.5t14.5 148q0 80 -42 126t-141 96q-74 37 -121 70.5t-74.5 68.5t-37.5 71.5t-10 77.5q0 98 25.5 179t74.5 140.5t120 92.5t163 33q76 0 129 -19.5t85.5 -52.5 t47 -76t14.5 -88q0 -18 -2 -37.5t-6 -40.5l-92 -16q8 35 8 76q0 70 -43 120t-152 50q-84 0 -137 -38t-86 -91.5t-45 -112.5t-12 -104q0 -35 10 -64t35.5 -56.5t68.5 -55t107 -58.5q119 -53 162 -114.5t43 -151.5q0 -113 -22.5 -207t-68.5 -163.5t-120 -109.5t-174 -42 q-14 -29 -27.5 -57.5t-26.5 -57.5q82 -6 110 -46t28 -89q0 -59 -49.5 -108.5t-137.5 -49.5q-41 0 -78.5 8t-68.5 27l31 49q31 -16 60.5 -21.5t53.5 -5.5q49 0 83 28t34 73q0 37 -26.5 60.5t-71.5 23.5h-11l-26 24q16 35 33.5 72t33.5 72q-127 10 -182 78.5t-55 166.5z" />
<glyph unicode="&#x15f;" horiz-adv-x="659" d="M14 180q0 27 6 62l89 12q-4 -12 -4.5 -25.5t-0.5 -25.5q0 -61 39 -98t117 -37q123 0 176 71.5t53 182.5q0 59 -31.5 94t-119.5 71q-123 51 -164 105.5t-41 122.5q0 133 81 218t235 85q115 0 175 -49t60 -142q0 -16 -2 -32.5t-6 -34.5l-90 -15q6 31 6 54q0 63 -41 99 t-119 36q-59 0 -99 -18.5t-64.5 -48t-35 -66.5t-10.5 -72q0 -53 37 -91t141 -79q106 -41 142.5 -95t36.5 -128q0 -147 -73 -244.5t-233 -105.5q-14 -29 -27.5 -57.5t-25.5 -57.5q82 -6 109.5 -46t27.5 -89q0 -59 -49 -108.5t-137 -49.5q-41 0 -79 8t-68 27l30 49 q31 -16 60.5 -21.5t54.5 -5.5q49 0 83 28t34 73q0 37 -27 60.5t-72 23.5h-10l-26 24q16 35 33.5 72t33.5 72q-205 16 -205 192z" />
<glyph unicode="&#x160;" horiz-adv-x="774" d="M37 233q0 33 6 70l92 12q-4 -18 -6 -36.5t-2 -34.5q0 -72 43 -123t152 -51q86 0 143 36.5t93 95t50.5 133.5t14.5 148q0 80 -42 126t-141 96q-74 37 -121 70.5t-74.5 68.5t-37.5 71.5t-10 77.5q0 98 25.5 179t74.5 140.5t120 92.5t163 33q76 0 129 -19.5t85.5 -52.5 t47 -76t14.5 -88q0 -18 -2 -37.5t-6 -40.5l-92 -16q8 35 8 76q0 70 -43 120t-152 50q-84 0 -137 -38t-86 -91.5t-45 -112.5t-12 -104q0 -35 10 -64t35.5 -56.5t68.5 -55t107 -58.5q119 -53 162 -114.5t43 -151.5q0 -115 -22.5 -210t-71 -165t-123 -108.5t-179.5 -38.5 q-76 0 -129 18.5t-86.5 52t-50 78.5t-16.5 98zM360 1714l43 33l195 -158l256 156l31 -35l-264 -205h-66z" />
<glyph unicode="&#x161;" horiz-adv-x="659" d="M14 180q0 27 6 62l89 12q-4 -12 -4.5 -25.5t-0.5 -25.5q0 -61 39 -98t117 -37q123 0 176 71.5t53 182.5q0 59 -31.5 94t-119.5 71q-123 51 -164 105.5t-41 122.5q0 133 81 218t235 85q115 0 175 -49t60 -142q0 -16 -2 -32.5t-6 -34.5l-90 -15q6 31 6 54q0 63 -41 99 t-119 36q-59 0 -99 -18.5t-64.5 -48t-35 -66.5t-10.5 -72q0 -53 37 -91t141 -79q106 -41 142.5 -95t36.5 -128q0 -76 -18.5 -140.5t-58.5 -110.5t-101.5 -72.5t-147.5 -26.5q-117 0 -178.5 50t-61.5 144zM246 1378l43 33l182 -197l264 199l33 -35l-276 -248h-64z" />
<glyph unicode="&#x162;" horiz-adv-x="653" d="M98 -414l74 174h-27q4 29 11.5 57.5t11.5 57.5h106q-4 -29 -10 -57.5t-12 -57.5l-98 -174h-56zM186 1343l19 82h631l-19 -82h-270l-260 -1343h-86l258 1343h-273z" />
<glyph unicode="&#x163;" horiz-adv-x="444" d="M-4 -414l74 174h-27q4 29 11 57.5t12 57.5h106q-4 -29 -10 -57.5t-12 -57.5l-99 -174h-55zM102 168q0 27 7 57l137 705h-115l14 71h115q14 72 27.5 140.5t25.5 140.5h88q-12 -72 -25.5 -140.5t-27.5 -140.5h152l-15 -71h-151l-133 -674q-6 -31 -6 -61q0 -25 3 -45.5 t15 -36t35.5 -24.5t62.5 -9h21q-4 -20 -8.5 -41t-8.5 -39h-24q-98 0 -143.5 46t-45.5 122z" />
<glyph unicode="&#x164;" horiz-adv-x="653" d="M186 1343l19 82h631l-19 -82h-270l-260 -1343h-86l258 1343h-273zM307 1714l43 33l195 -158l256 156l30 -35l-264 -205h-65z" />
<glyph unicode="&#x165;" horiz-adv-x="520" d="M115 168q0 27 6 57l137 705h-115l15 71h114q14 72 27.5 140.5t26.5 140.5h88q-12 -72 -25.5 -140.5t-28.5 -140.5h152l-14 -71h-152l-133 -674q-6 -31 -6 -61q0 -25 3 -45.5t15.5 -36t36 -24.5t62.5 -9h20q-4 -20 -8 -41t-8 -39h-25q-98 0 -143 46t-45 122zM487 1120 l74 174h-26q4 29 11 57.5t11 57.5h107q-4 -29 -10.5 -57.5t-12.5 -57.5l-98 -174h-56z" />
<glyph unicode="&#x166;" horiz-adv-x="653" d="M137 768l15 66h208l99 509h-273l19 82h631l-19 -82h-270l-98 -509h223l-13 -66h-223l-149 -768h-86l147 768h-211z" />
<glyph unicode="&#x167;" horiz-adv-x="444" d="M68 596l14 68h113l51 266h-115l14 71h115q14 72 27.5 140.5t25.5 140.5h88q-12 -72 -25.5 -140.5t-27.5 -140.5h152l-15 -71h-151l-53 -266h155l-14 -68h-154l-67 -340q-6 -31 -6 -61q0 -25 3 -45.5t15 -36t35.5 -24.5t62.5 -9h21q-4 -20 -8.5 -41t-8.5 -39h-24 q-98 0 -143.5 46t-45.5 122q0 27 7 57l71 371h-112z" />
<glyph unicode="&#x168;" horiz-adv-x="804" d="M59 295q0 4 15.5 83t39 196.5t51.5 256t52.5 262.5t43 215t22.5 115h86q-2 -14 -13.5 -68.5t-28 -135t-36 -179t-39 -199t-38.5 -196.5t-33.5 -171t-24 -121t-9.5 -48q-16 -106 32 -172.5t155 -66.5q109 0 178.5 57t95.5 186l223 1114h91l-226 -1116q-18 -90 -52 -151.5 t-81 -99.5t-106.5 -54t-126.5 -16q-72 0 -127.5 21.5t-90 62.5t-49 97t-4.5 128zM326 1559q35 53 81 84.5t89 31.5q31 0 57.5 -12t52 -25.5t51 -26t56.5 -12.5q29 0 57.5 18.5t56.5 59.5l50 -28q-35 -70 -85.5 -98.5t-91.5 -28.5q-31 0 -58.5 12t-53 25.5t-50 25.5t-51.5 12 q-25 0 -54.5 -18t-55.5 -51z" />
<glyph unicode="&#x169;" horiz-adv-x="733" d="M49 180q0 27 3 51.5t7 51.5l140 718h90l-139 -710q-4 -20 -6.5 -41t-2.5 -39q0 -59 30 -99t110 -40q55 0 100 25.5t78 65.5t54.5 89t31.5 98l125 651h88l-195 -1001h-88q6 31 13.5 61.5t11.5 61.5h-4q-51 -68 -117 -102.5t-133 -34.5q-57 0 -95 15t-60.5 42t-32 62.5 t-9.5 74.5zM236 1210q35 53 80.5 85t89.5 32q31 0 57 -12t52 -25.5t51.5 -26t56.5 -12.5q29 0 57.5 18.5t56.5 59.5l49 -29q-35 -70 -85 -98t-91 -28q-31 0 -58.5 12t-53 25.5t-50 25.5t-51.5 12q-25 0 -54.5 -18.5t-55.5 -50.5z" />
<glyph unicode="&#x16a;" horiz-adv-x="804" d="M59 295q0 4 15.5 83t39 196.5t51.5 256t52.5 262.5t43 215t22.5 115h86q-2 -14 -13.5 -68.5t-28 -135t-36 -179t-39 -199t-38.5 -196.5t-33.5 -171t-24 -121t-9.5 -48q-16 -106 32 -172.5t155 -66.5q109 0 178.5 57t95.5 186l223 1114h91l-226 -1116q-18 -90 -52 -151.5 t-81 -99.5t-106.5 -54t-126.5 -16q-72 0 -127.5 21.5t-90 62.5t-49 97t-4.5 128zM401 1536l17 80h422l-15 -80h-424z" />
<glyph unicode="&#x16b;" horiz-adv-x="733" d="M49 180q0 27 3 51.5t7 51.5l140 718h90l-139 -710q-4 -20 -6.5 -41t-2.5 -39q0 -59 30 -99t110 -40q55 0 100 25.5t78 65.5t54.5 89t31.5 98l125 651h88l-195 -1001h-88q6 31 13.5 61.5t11.5 61.5h-4q-51 -68 -117 -102.5t-133 -34.5q-57 0 -95 15t-60.5 42t-32 62.5 t-9.5 74.5zM305 1206l17 80h423l-16 -80h-424z" />
<glyph unicode="&#x16c;" horiz-adv-x="804" d="M59 295q0 4 15.5 83t39 196.5t51.5 256t52.5 262.5t43 215t22.5 115h86q-2 -14 -13.5 -68.5t-28 -135t-36 -179t-39 -199t-38.5 -196.5t-33.5 -171t-24 -121t-9.5 -48q-16 -106 32 -172.5t155 -66.5q109 0 178.5 57t95.5 186l223 1114h91l-226 -1116q-18 -90 -52 -151.5 t-81 -99.5t-106.5 -54t-126.5 -16q-72 0 -127.5 21.5t-90 62.5t-49 97t-4.5 128zM399 1729h76q-4 -66 34 -111t103 -45q72 0 126.5 42t78.5 114h74q-10 -43 -33.5 -84t-58.5 -73t-84 -52.5t-111 -20.5q-61 0 -102 21.5t-65.5 55.5t-33 74t-4.5 79z" />
<glyph unicode="&#x16d;" horiz-adv-x="733" d="M49 180q0 27 3 51.5t7 51.5l140 718h90l-139 -710q-4 -20 -6.5 -41t-2.5 -39q0 -59 30 -99t110 -40q55 0 100 25.5t78 65.5t54.5 89t31.5 98l125 651h88l-195 -1001h-88q6 31 13.5 61.5t11.5 61.5h-4q-51 -68 -117 -102.5t-133 -34.5q-57 0 -95 15t-60.5 42t-32 62.5 t-9.5 74.5zM295 1370h76q-4 -66 34.5 -111t102.5 -45q66 0 122 42t81 114h77q-10 -41 -33.5 -82t-59.5 -73.5t-84 -53t-107 -20.5q-61 0 -103.5 21.5t-67 55t-33.5 74.5t-5 78z" />
<glyph unicode="&#x16e;" horiz-adv-x="804" d="M59 295q0 4 15.5 83t39 196.5t51.5 256t52.5 262.5t43 215t22.5 115h86q-2 -14 -13.5 -68.5t-28 -135t-36 -179t-39 -199t-38.5 -196.5t-33.5 -171t-24 -121t-9.5 -48q-16 -106 32 -172.5t155 -66.5q109 0 178.5 57t95.5 186l223 1114h91l-226 -1116q-18 -90 -52 -151.5 t-81 -99.5t-106.5 -54t-126.5 -16q-72 0 -127.5 21.5t-90 62.5t-49 97t-4.5 128zM459 1595q0 41 16.5 77t44 62.5t63 42t74.5 15.5q59 0 98.5 -38t39.5 -97q0 -41 -16.5 -77t-44 -62.5t-64.5 -43t-78 -16.5q-59 0 -96 39t-37 98zM514 1604q0 -39 24.5 -66t63.5 -27 q27 0 51.5 11.5t43 30t29.5 42t11 50.5q0 39 -25.5 65.5t-64.5 26.5q-25 0 -48.5 -10.5t-41.5 -29t-30.5 -43t-12.5 -50.5z" />
<glyph unicode="&#x16f;" horiz-adv-x="733" d="M49 180q0 27 3 51.5t7 51.5l140 718h90l-139 -710q-4 -20 -6.5 -41t-2.5 -39q0 -59 30 -99t110 -40q55 0 100 25.5t78 65.5t54.5 89t31.5 98l125 651h88l-195 -1001h-88q6 31 13.5 61.5t11.5 61.5h-4q-51 -68 -117 -102.5t-133 -34.5q-57 0 -95 15t-60.5 42t-32 62.5 t-9.5 74.5zM360 1264q0 41 16.5 76.5t44.5 62.5t63.5 42t74.5 15q59 0 98 -38t39 -97q0 -41 -16 -77t-44 -62.5t-64.5 -43t-77.5 -16.5q-59 0 -96.5 39t-37.5 99zM416 1272q0 -39 24.5 -65.5t63.5 -26.5q27 0 51.5 11t42.5 29.5t29.5 42t11.5 50.5q0 39 -25.5 65.5 t-64.5 26.5q-25 0 -48.5 -10.5t-42 -28.5t-30.5 -43t-12 -51z" />
<glyph unicode="&#x170;" horiz-adv-x="804" d="M59 295q0 4 15.5 83t39 196.5t51.5 256t52.5 262.5t43 215t22.5 115h86q-2 -14 -13.5 -68.5t-28 -135t-36 -179t-39 -199t-38.5 -196.5t-33.5 -171t-24 -121t-9.5 -48q-16 -106 32 -172.5t155 -66.5q109 0 178.5 57t95.5 186l223 1114h91l-226 -1116q-18 -90 -52 -151.5 t-81 -99.5t-106.5 -54t-126.5 -16q-72 0 -127.5 21.5t-90 62.5t-49 97t-4.5 128zM455 1532l295 215l53 -74l-322 -182zM680 1532l295 215l53 -74l-321 -182z" />
<glyph unicode="&#x171;" horiz-adv-x="733" d="M49 180q0 27 3 51.5t7 51.5l140 718h90l-139 -710q-4 -20 -6.5 -41t-2.5 -39q0 -59 30 -99t110 -40q55 0 100 25.5t78 65.5t54.5 89t31.5 98l125 651h88l-195 -1001h-88q6 31 13.5 61.5t11.5 61.5h-4q-51 -68 -117 -102.5t-133 -34.5q-57 0 -95 15t-60.5 42t-32 62.5 t-9.5 74.5zM383 1159l197 309l86 -34l-238 -295zM559 1159l197 309l86 -34l-238 -295z" />
<glyph unicode="&#x172;" horiz-adv-x="804" d="M59 295q0 4 15.5 83t39 196.5t51.5 256t52.5 262.5t43 215t22.5 115h86q-2 -14 -13.5 -68.5t-28 -135t-36 -179t-39 -199t-38.5 -196.5t-33.5 -171t-24 -121t-9.5 -48q-16 -106 32 -172.5t155 -66.5q109 0 178.5 57t95.5 186l223 1114h91l-226 -1116 q-35 -170 -122 -240.5t-209 -78.5q-45 -53 -70 -104.5t-25 -88.5q0 -74 72 -74q43 0 107 33l14 -61q-29 -18 -70 -31.5t-76 -13.5q-59 0 -89.5 36.5t-30.5 90.5q0 37 21.5 93t76.5 120q-127 10 -191.5 91t-44.5 216z" />
<glyph unicode="&#x173;" horiz-adv-x="733" d="M49 180q0 27 3 51.5t7 51.5l140 718h90l-139 -710q-4 -20 -6.5 -41t-2.5 -39q0 -59 30 -99t110 -40q55 0 100 25.5t78 65.5t54.5 89t31.5 98l125 651h88l-195 -1001h-18q-51 -57 -81 -112.5t-30 -96.5q0 -74 72 -74q43 0 106 33l15 -61q-29 -18 -70 -31.5t-76 -13.5 q-59 0 -90 36.5t-31 90.5q0 41 25 101t90 128q6 31 13.5 61.5t11.5 61.5h-4q-51 -68 -117 -102.5t-133 -34.5q-57 0 -95 15t-60.5 42t-32 62.5t-9.5 74.5z" />
<glyph unicode="&#x174;" horiz-adv-x="1191" d="M184 0l37 1425h86l-26 -802l-21 -463h6l172 454l310 811h83l-10 -817l-8 -448h6l158 448l293 817h90l-516 -1425h-105l4 834l7 376h-7l-141 -381l-315 -829h-103zM526 1536l275 211h65l187 -207l-37 -35l-191 156l-266 -158z" />
<glyph unicode="&#x175;" horiz-adv-x="1075" d="M98 1001h90l21 -610q2 -66 3 -126t-3 -138h6q45 92 91 199.5t91 221.5t88 229.5t84 223.5h105l18 -577q2 -68 3 -144.5t-5 -152.5h6q94 197 188.5 424t170.5 450h92q-90 -262 -194.5 -506.5t-235.5 -494.5h-96l-21 629q0 51 -1 109.5t1 121.5h-4q-72 -209 -167 -432 t-193 -428h-97zM375 1161l280 252h66l178 -248l-41 -32l-180 196l-268 -201z" />
<glyph unicode="&#x176;" horiz-adv-x="716" d="M215 1425h86q4 -33 13.5 -96t20.5 -138t23.5 -155t22.5 -147.5t16 -115.5t9 -60h6l379 712h96l-455 -823l-115 -602h-88l117 602zM293 1536l274 211h66l186 -207l-37 -35l-190 156l-266 -158z" />
<glyph unicode="&#x177;" horiz-adv-x="645" d="M-125 -338q51 6 93 22.5t79 52.5t71 93t70 145l-84 1026h91l43 -595q4 -68 9 -156t1 -160h4q43 84 92 192.5t100.5 229.5t98.5 247t88 242h94q-61 -168 -118.5 -310t-116 -272t-119 -258t-127.5 -265q-29 -61 -64 -116.5t-78 -97.5t-98 -68t-127 -28zM164 1161l280 252 h66l178 -248l-41 -32l-180 196l-268 -201z" />
<glyph unicode="&#x178;" horiz-adv-x="716" d="M215 1425h86q4 -33 13.5 -96t20.5 -138t23.5 -155t22.5 -147.5t16 -115.5t9 -60h6l379 712h96l-455 -823l-115 -602h-88l117 602zM369 1522l18 96h86l-18 -96h-86zM668 1522l18 96h84l-16 -96h-86z" />
<glyph unicode="&#x179;" horiz-adv-x="622" d="M-57 0l14 82l723 1261h-438l16 82h528l-16 -79l-723 -1264h455l-15 -82h-544zM481 1532l303 215l54 -74l-330 -182z" />
<glyph unicode="&#x17a;" horiz-adv-x="598" d="M-53 0l16 80l582 844h-379l14 75h477l-14 -75l-582 -844h410l-16 -80h-508zM395 1159l197 309l86 -34l-238 -295z" />
<glyph unicode="&#x17b;" horiz-adv-x="622" d="M-57 0l14 82l723 1261h-438l16 82h528l-16 -79l-723 -1264h455l-15 -82h-544zM498 1538l18 98h84l-18 -98h-84z" />
<glyph unicode="&#x17c;" horiz-adv-x="598" d="M-53 0l16 80l582 844h-379l14 75h477l-14 -75l-582 -844h410l-16 -80h-508zM412 1190l18 98h84l-18 -98h-84z" />
<glyph unicode="&#x17d;" horiz-adv-x="622" d="M-57 0l14 82l723 1261h-438l16 82h528l-16 -79l-723 -1264h455l-15 -82h-544zM307 1714l43 33l195 -158l256 156l30 -35l-264 -205h-65z" />
<glyph unicode="&#x17e;" horiz-adv-x="598" d="M-53 0l16 80l582 844h-379l14 75h477l-14 -75l-582 -844h410l-16 -80h-508zM231 1378l43 33l183 -197l264 199l33 -35l-277 -248h-63z" />
<glyph unicode="&#x192;" horiz-adv-x="722" d="M-66 -176q4 14 14.5 37.5t14.5 36.5q37 -10 68 -11q84 0 137 65.5t88 231.5l119 570h-158l8 77h166l53 263q33 156 101.5 248t204.5 92q49 0 94 -17q-4 -12 -13.5 -38.5t-13.5 -39.5q-39 14 -78 15q-70 0 -127 -56.5t-86 -205.5l-53 -261h189l-7 -77h-198l-117 -566 q-41 -195 -112.5 -286.5t-196.5 -91.5q-23 0 -48.5 3t-48.5 11z" />
<glyph unicode="&#x1a0;" horiz-adv-x="884" d="M70 248q0 45 8 86l151 784q29 154 126.5 237t240.5 83q94 0 157.5 -38t92.5 -110q66 12 94.5 60.5t44.5 134.5l16 94h76l-12 -74q-25 -145 -73 -209.5t-128 -76.5q0 -10 1 -20.5t1 -20.5q0 -43 -8 -84l-151 -799q-16 -88 -50 -147.5t-81.5 -95.5t-106.5 -51t-129 -15 q-131 0 -200.5 71.5t-69.5 190.5zM156 264q0 -88 46 -143t142 -55q111 0 179.5 51t90.5 174l156 805q8 33 8 71q0 86 -48 137.5t-140 51.5q-57 0 -104.5 -19.5t-82 -53.5t-57 -79t-33.5 -96l-151 -774q-6 -37 -6 -70z" />
<glyph unicode="&#x1a1;" horiz-adv-x="786" d="M45 197q0 27 3 61.5t8 74.5t11.5 81t14.5 78q29 135 53.5 232t63.5 161q80 131 258 131q82 0 132 -31t77 -76q66 10 93 59.5t44 135.5l16 94h76l-12 -74q-23 -141 -69 -205.5t-124 -80.5q2 -8 2 -16.5v-16.5q2 -59 -13 -150.5t-36 -195.5q-25 -129 -52.5 -219 t-67.5 -146.5t-98 -82t-146 -25.5q-66 0 -110 19.5t-71.5 50t-40 67.5t-12.5 74zM131 211q0 -59 36 -103.5t126 -44.5q68 0 118 31t81 101q14 37 34.5 111.5t39 160.5t30.5 171t12 144q0 70 -41.5 113t-117.5 43q-53 0 -103.5 -21.5t-85.5 -85.5q-23 -41 -46.5 -138 t-51.5 -234q-31 -166 -31 -248z" />
<glyph unicode="&#x1af;" horiz-adv-x="804" d="M59 295q0 4 15.5 83t39 196.5t51.5 256t52.5 262.5t43 215t22.5 115h86q-2 -14 -13.5 -68.5t-28 -135t-36 -179t-39 -199t-38.5 -196.5t-33.5 -171t-24 -121t-9.5 -48q-16 -106 32 -172.5t155 -66.5q109 0 178.5 57t95.5 186l223 1114h91l-27 -133q72 8 103.5 56.5 t48.5 138.5l16 94h76l-13 -74q-14 -82 -34.5 -137t-51 -89t-70.5 -49.5t-91 -15.5l-183 -907q-18 -90 -52 -151.5t-81 -99.5t-106.5 -54t-126.5 -16q-72 0 -127.5 21.5t-90 62.5t-49 97t-4.5 128z" />
<glyph unicode="&#x1b0;" horiz-adv-x="843" d="M49 180q0 27 3 51.5t7 51.5l140 718h90l-139 -710q-4 -20 -6.5 -41t-2.5 -39q0 -59 30 -99t110 -40q55 0 100 25.5t78 65.5t54.5 89t31.5 98l125 651h88l-19 -94q72 8 102.5 57.5t47.5 139.5l16 94h76l-12 -74q-14 -82 -35 -137t-51.5 -89t-69.5 -49t-90 -15l-160 -834 h-88q6 31 13.5 61.5t11.5 61.5h-4q-51 -68 -117 -102.5t-133 -34.5q-57 0 -95 15t-60.5 42t-32 62.5t-9.5 74.5z" />
<glyph unicode="&#x1fc;" horiz-adv-x="1275" d="M-23 0l789 1425h641l-10 -82h-494l-80 -571h434l-12 -80h-434l-84 -606h494l-13 -86h-579l53 391h-395l-217 -391h-93zM330 473h362l123 868h-4zM975 1532l303 215l53 -74l-330 -182z" />
<glyph unicode="&#x1fd;" horiz-adv-x="1167" d="M12 186q0 76 19.5 148t62.5 127t111.5 88t165.5 33q84 0 184 -21q10 59 26.5 125t16.5 119q0 59 -39 94t-125 35q-72 0 -126 -31t-77 -84q-18 10 -37.5 17.5t-39.5 15.5q35 70 101 117t191 47q33 0 69 -6t67.5 -20.5t56.5 -39t35 -61.5q57 66 116.5 96.5t139.5 30.5 q127 0 188.5 -55.5t61.5 -147.5q0 -94 -33 -162.5t-87 -112.5t-127 -65.5t-153 -21.5q-23 0 -63.5 3t-87.5 13q-10 -51 -19.5 -111.5t-9.5 -101.5q0 -37 6 -70.5t24.5 -59.5t49.5 -42t80 -16q86 0 143.5 49t75.5 131q23 -4 45.5 -7t44.5 -8q-59 -244 -324 -243 q-98 0 -150 45t-69 110q-37 -57 -78.5 -87.5t-81.5 -46t-76 -18.5t-61 -3q-121 0 -169 56t-48 142zM100 215q0 -61 36 -103t124 -42q86 0 152.5 49t83.5 141l43 225q-51 10 -94.5 15.5t-82.5 5.5q-119 0 -190.5 -73t-71.5 -218zM645 545q33 -6 66.5 -10.5t68.5 -4.5 q57 0 112.5 12.5t98.5 43t68.5 82t25.5 127.5q0 61 -40.5 99t-124.5 38q-104 0 -169 -87t-106 -300zM702 1159l197 309l86 -34l-237 -295z" />
<glyph unicode="&#x1fe;" horiz-adv-x="825" d="M-2 0l88 141q-10 25 -13 51.5t-3 55.5q0 45 8 86l151 784q29 154 126.5 237t240.5 83q80 0 137.5 -28t91.5 -79l76 121l51 -27l-98 -157q12 -43 12 -90q0 -43 -8 -84l-151 -799q-16 -88 -50 -147.5t-81.5 -95.5t-106.5 -51t-129 -15q-78 0 -133 25.5t-90 72.5l-70 -111z M156 254l612 983q-16 55 -61 87t-117 32q-57 0 -104.5 -19.5t-82 -53.5t-57 -79t-33.5 -96l-151 -774q-6 -37 -6 -70v-10zM170 172q20 -49 63 -77.5t111 -28.5q111 0 179.5 51t90.5 174l156 805q4 12 5 24.5t3 24.5zM539 1532l303 215l53 -74l-328 -182z" />
<glyph unicode="&#x1ff;" horiz-adv-x="714" d="M0 4l66 94q-10 23 -15.5 48.5t-5.5 50.5q0 27 3 61.5t8 74.5t11.5 81t14.5 78q29 135 53.5 232t63.5 161q80 131 258 131q68 0 113.5 -21.5t74.5 -56.5l62 90l45 -27l-78 -112q18 -41 18 -84q2 -59 -13 -150.5t-36 -195.5q-25 -129 -52.5 -219t-67.5 -146.5t-98 -82 t-146 -25.5q-68 0 -113 20.5t-74 50.5l-53 -77zM131 193q117 166 230.5 332.5t228.5 334.5q-18 35 -54 56.5t-87 21.5q-53 0 -103.5 -21.5t-85.5 -85.5q-23 -41 -46.5 -138t-51.5 -234q-31 -166 -31 -248v-18zM147 135q16 -33 51 -52.5t95 -19.5q68 0 118 31t81 101 q14 37 34.5 111.5t39 160.5t30.5 171t12 144v11zM449 1157l196 309q23 -8 43.5 -16t42.5 -18q-59 -72 -118.5 -147t-118.5 -146z" />
<glyph unicode="&#x218;" horiz-adv-x="774" d="M37 233q0 33 6 70l92 12q-4 -18 -6 -36.5t-2 -34.5q0 -72 43 -123t152 -51q86 0 143 36.5t93 95t50.5 133.5t14.5 148q0 80 -42 126t-141 96q-74 37 -121 70.5t-74.5 68.5t-37.5 71.5t-10 77.5q0 98 25.5 179t74.5 140.5t120 92.5t163 33q76 0 129 -19.5t85.5 -52.5 t47 -76t14.5 -88q0 -18 -2 -37.5t-6 -40.5l-92 -16q8 35 8 76q0 70 -43 120t-152 50q-84 0 -137 -38t-86 -91.5t-45 -112.5t-12 -104q0 -35 10 -64t35.5 -56.5t68.5 -55t107 -58.5q119 -53 162 -114.5t43 -151.5q0 -115 -22.5 -210t-71 -165t-123 -108.5t-179.5 -38.5 q-76 0 -129 18.5t-86.5 52t-50 78.5t-16.5 98zM190 -414l74 174h-26q4 29 11 57.5t11 57.5h107q-4 -29 -10.5 -57.5t-12.5 -57.5l-98 -174h-56z" />
<glyph unicode="&#x219;" horiz-adv-x="659" d="M14 180q0 27 6 62l89 12q-4 -12 -4.5 -25.5t-0.5 -25.5q0 -61 39 -98t117 -37q123 0 176 71.5t53 182.5q0 59 -31.5 94t-119.5 71q-123 51 -164 105.5t-41 122.5q0 133 81 218t235 85q115 0 175 -49t60 -142q0 -16 -2 -32.5t-6 -34.5l-90 -15q6 31 6 54q0 63 -41 99 t-119 36q-59 0 -99 -18.5t-64.5 -48t-35 -66.5t-10.5 -72q0 -53 37 -91t141 -79q106 -41 142.5 -95t36.5 -128q0 -76 -18.5 -140.5t-58.5 -110.5t-101.5 -72.5t-147.5 -26.5q-117 0 -178.5 50t-61.5 144zM127 -414l74 174h-27q4 29 11.5 57.5t11.5 57.5h106 q-4 -29 -10 -57.5t-12 -57.5l-99 -174h-55z" />
<glyph unicode="&#x2c6;" horiz-adv-x="706" d="M236 1161l280 252h66l178 -248l-41 -32l-180 196l-269 -201z" />
<glyph unicode="&#x2c7;" horiz-adv-x="706" d="M254 1378l43 33l182 -197l264 199l33 -35l-276 -248h-64z" />
<glyph unicode="&#x2d8;" horiz-adv-x="729" d="M287 1370h75q-4 -66 35 -111t103 -45q66 0 122 42t80 114h78q-10 -41 -33.5 -82t-59.5 -73.5t-84 -53t-107 -20.5q-61 0 -103.5 21.5t-67 55t-33.5 74.5t-5 78z" />
<glyph unicode="&#x2d9;" horiz-adv-x="700" d="M459 1190l18 98h84l-18 -98h-84z" />
<glyph unicode="&#x2da;" horiz-adv-x="722" d="M369 1264q0 41 16 76.5t44 62.5t63.5 42t74.5 15q59 0 98.5 -38t39.5 -97q0 -41 -16.5 -77t-44.5 -62.5t-64.5 -43t-77.5 -16.5q-59 0 -96 39t-37 99zM424 1272q0 -39 24.5 -65.5t63.5 -26.5q27 0 51.5 11t43 29.5t29.5 42t11 50.5q0 39 -25.5 65.5t-64.5 26.5 q-25 0 -48.5 -10.5t-41.5 -28.5t-30.5 -43t-12.5 -51z" />
<glyph unicode="&#x2db;" horiz-adv-x="724" d="M387 -229q0 41 26.5 103.5t94.5 131.5h70q-53 -59 -85 -116.5t-32 -98.5q0 -74 71 -74q43 0 107 33l14 -61q-29 -18 -69.5 -31.5t-75.5 -13.5q-59 0 -90 36.5t-31 90.5z" />
<glyph unicode="&#x2dc;" horiz-adv-x="741" d="M236 1210q35 53 80.5 85t89.5 32q31 0 57 -12t52 -25.5t51.5 -26t56.5 -12.5q29 0 57.5 18.5t56.5 59.5l49 -29q-35 -70 -85 -98t-91 -28q-31 0 -58.5 12t-53 25.5t-50 25.5t-51.5 12q-25 0 -54.5 -18.5t-55.5 -50.5z" />
<glyph unicode="&#x2dd;" horiz-adv-x="722" d="M377 1159l196 309l86 -34l-237 -295zM553 1159l197 309l86 -34l-238 -295z" />
<glyph unicode="&#x3a9;" horiz-adv-x="823" d="M-10 0l16 84h133l2 4q-47 31 -63.5 93.5t-5.5 123.5q0 4 8 48t20.5 111.5t29.5 154t33.5 175.5t33 172t28.5 148q29 154 126.5 239t238.5 85q152 0 224.5 -92.5t43.5 -247.5l-149 -785q-35 -164 -134 -225v-4h113l-14 -84h-240l19 96q66 18 107.5 73.5t55.5 127.5 l154 790q25 129 -28.5 199t-155.5 70q-104 0 -177 -66.5t-94 -171.5q-12 -57 -28.5 -140t-33.5 -173t-34.5 -180t-32 -163t-22.5 -119t-8 -50q-10 -57 16.5 -115.5t79.5 -79.5l-19 -98h-243z" />
<glyph unicode="&#x3c0;" horiz-adv-x="745" d="M12 0l195 1001h557l-193 -1001h-88l179 926h-379l-181 -926h-90z" />
<glyph unicode="&#x401;" horiz-adv-x="727" d="M25 0l276 1425h582l-19 -82h-491l-111 -571h434l-16 -80h-434l-119 -610h494l-15 -82h-581zM393 1522l19 96h86l-19 -96h-86zM692 1522l19 96h84l-17 -96h-86z" />
<glyph unicode="&#x402;" horiz-adv-x="966" d="M190 0l261 1343h-254l16 82h705l-17 -82h-364l-88 -466h2q66 45 133.5 65.5t120.5 20.5q76 0 125 -22.5t74.5 -60.5t31.5 -90.5t-6 -111.5l-80 -416q-33 -166 -119 -238.5t-233 -72.5l16 78q115 8 171 68.5t79 176.5l78 388q8 45 7 84.5t-17.5 69.5t-52.5 46.5t-95 16.5 q-61 0 -132 -30t-126 -73l-150 -776h-86z" />
<glyph unicode="&#x403;" horiz-adv-x="716" d="M27 0l276 1425h569l-16 -82h-481l-260 -1343h-88zM489 1532l304 215l53 -74l-330 -182z" />
<glyph unicode="&#x404;" horiz-adv-x="790" d="M66 231q0 23 3 47.5t7 53.5q35 178 67.5 352t67.5 350l20 101q31 143 124.5 223t222.5 80q145 0 219.5 -71t60.5 -196q-23 -4 -45 -11t-45 -13q10 92 -35 150.5t-149 58.5q-61 0 -107.5 -18.5t-79 -51.5t-53 -79t-31.5 -99l-65 -344h366l-18 -84h-367l-67 -358 q-4 -20 -6 -39t-2 -35q0 -86 46 -135.5t138 -49.5q104 0 169.5 52.5t92.5 163.5l86 -21q-35 -147 -126 -209.5t-226 -62.5t-201.5 64.5t-66.5 180.5z" />
<glyph unicode="&#x405;" horiz-adv-x="774" d="M37 233q0 33 6 70l92 12q-4 -18 -6 -36.5t-2 -34.5q0 -72 43 -123t152 -51q86 0 143 36.5t93 95t50.5 133.5t14.5 148q0 80 -42 126t-141 96q-74 37 -121 70.5t-74.5 68.5t-37.5 71.5t-10 77.5q0 98 25.5 179t74.5 140.5t120 92.5t163 33q76 0 129 -19.5t85.5 -52.5 t47 -76t14.5 -88q0 -18 -2 -37.5t-6 -40.5l-92 -16q8 35 8 76q0 70 -43 120t-152 50q-84 0 -137 -38t-86 -91.5t-45 -112.5t-12 -104q0 -35 10 -64t35.5 -56.5t68.5 -55t107 -58.5q119 -53 162 -114.5t43 -151.5q0 -115 -22.5 -210t-71 -165t-123 -108.5t-179.5 -38.5 q-76 0 -129 18.5t-86.5 52t-50 78.5t-16.5 98z" />
<glyph unicode="&#x406;" horiz-adv-x="356" d="M51 0l277 1425h90l-277 -1425h-90z" />
<glyph unicode="&#x407;" horiz-adv-x="356" d="M51 0l277 1425h90l-277 -1425h-90zM201 1565l18 98h86l-20 -98h-84zM500 1565l18 98h84l-18 -98h-84z" />
<glyph unicode="&#x408;" horiz-adv-x="657" d="M-72 74l60 57q27 -27 77 -46t97 -19q41 0 77.5 8t68.5 32.5t55.5 67.5t35.5 113l224 1138h88l-222 -1136q-16 -84 -42.5 -141.5t-67.5 -93.5t-96.5 -52t-128.5 -16q-63 0 -127 25.5t-99 62.5z" />
<glyph unicode="&#x409;" horiz-adv-x="1314" d="M-86 31q55 35 98 74.5t80 107.5t69 176.5t66 282.5l148 753h528l-123 -630h164q86 0 148.5 -23.5t101.5 -64.5t57.5 -96.5t18.5 -116.5q0 -94 -24.5 -183.5t-79 -158t-140.5 -110.5t-211 -42h-276l260 1343h-359l-125 -643q-37 -188 -70.5 -311t-75.5 -205t-95.5 -132 t-126.5 -89zM641 84h184q96 0 164 36t111 92t62.5 126t19.5 137q0 102 -57.5 169t-182.5 67h-178z" />
<glyph unicode="&#x40a;" horiz-adv-x="1316" d="M6 0l277 1425h88l-125 -641h422l125 641h88l-125 -641h162q86 0 148 -23.5t101 -64.5t57.5 -95t18.5 -116q0 -96 -23.5 -183t-76.5 -154.5t-138 -107.5t-210 -40h-279l135 700h-422l-135 -700h-88zM618 84h183q96 0 163.5 34t110.5 88t62.5 122.5t19.5 136.5 q0 102 -57.5 168.5t-184.5 66.5h-178z" />
<glyph unicode="&#x40b;" horiz-adv-x="964" d="M180 0l260 1346h-254l17 79h704l-16 -79h-367l-90 -467h4q66 45 134.5 64.5t121.5 19.5q133 0 190.5 -78t30.5 -213l-131 -672h-86l129 664q20 104 -20.5 159.5t-142.5 55.5q-61 0 -128 -30t-120 -73l-152 -776h-84z" />
<glyph unicode="&#x40c;" horiz-adv-x="821" d="M23 0l276 1425h84l-127 -647h160q31 0 68.5 9.5t77.5 34t79 67.5t68 110l184 426h78l-170 -407q-43 -104 -103.5 -177t-136.5 -96q86 -23 115 -96.5t33 -179.5l10 -469h-82l-8 465q-2 72 -18.5 117t-44 69.5t-64.5 33.5t-78 9h-182l-136 -694h-83zM539 1532l303 215 l53 -74l-330 -182z" />
<glyph unicode="&#x40e;" horiz-adv-x="772" d="M29 -16l16 73h35q53 0 109.5 49.5t103.5 159.5l35 76l-117 1083h86l90 -960h4l443 960h86l-535 -1144q-45 -96 -84 -153.5t-76 -89.5t-74.5 -43t-76.5 -11h-45zM346 1651h76q-4 -66 35 -111t102 -45q66 0 122 42t81 114h78q-10 -41 -34 -82t-59.5 -74t-84 -53.5 t-107.5 -20.5q-61 0 -103 21.5t-67 55.5t-34 75t-5 78z" />
<glyph unicode="&#x40f;" horiz-adv-x="833" d="M25 0l276 1425h88l-262 -1339h446l263 1339h88l-277 -1425h-268l-60 -305h-86l60 305h-268z" />
<glyph unicode="&#x410;" horiz-adv-x="770" d="M-61 0l589 1425h101l43 -1425h-84l-10 373h-398l-153 -373h-88zM211 455h364l-12 491l-4 352h-6l-141 -356z" />
<glyph unicode="&#x411;" horiz-adv-x="790" d="M8 0l277 1425h528l-16 -82h-441l-106 -550h168q92 0 155.5 -30t102.5 -78t53 -109.5t6 -126.5q-4 -86 -29.5 -167t-80 -143.5t-137 -100.5t-199.5 -38h-281zM113 84h182q94 0 161.5 31.5t110.5 86t63.5 124t20.5 147.5q0 47 -14 90t-44 75t-75 51.5t-106 19.5h-179 q-31 -158 -61.5 -313.5t-58.5 -311.5z" />
<glyph unicode="&#x412;" horiz-adv-x="839" d="M25 0l276 1425h283q154 0 221 -69.5t67 -192.5q0 -158 -59 -262t-176 -149v-4q72 -25 100.5 -81.5t28.5 -136.5q0 -131 -34 -230t-92 -165.5t-137 -100.5t-169 -34h-309zM127 82h215q92 0 156.5 38t105.5 99.5t59.5 140t18.5 158.5q0 94 -47 144.5t-152 50.5h-233z M264 791h164h45.5t44.5 2q125 8 196.5 106t71.5 248q0 98 -51 148.5t-174 50.5h-186z" />
<glyph unicode="&#x413;" horiz-adv-x="716" d="M27 0l276 1425h569l-16 -82h-481l-260 -1343h-88z" />
<glyph unicode="&#x414;" horiz-adv-x="919" d="M-119 -266l66 340q16 2 32.5 3t32.5 1q41 41 74 90t61.5 118.5t56 167t60.5 238.5l166 733h584l-262 -1347h79l-67 -344h-80l53 266h-727q-12 -66 -24.5 -133.5t-26.5 -132.5h-78zM113 78h551l245 1265h-415q-41 -180 -81 -371.5t-85 -364.5t-98.5 -313t-116.5 -216z" />
<glyph unicode="&#x415;" horiz-adv-x="727" d="M25 0l276 1425h582l-19 -82h-491l-111 -571h434l-16 -80h-434l-119 -610h494l-15 -82h-581z" />
<glyph unicode="&#x416;" horiz-adv-x="1306" d="M-57 0l190 469q43 106 101.5 180t154.5 96q-68 23 -97.5 95.5t-33.5 177.5l-16 407h77l19 -426q2 -68 22.5 -110.5t49 -67t64.5 -34t71 -9.5h133l127 647h86l-127 -647h135q35 0 74 9.5t78 34t74.5 67.5t64.5 110l184 426h80l-172 -407q-43 -104 -103.5 -177t-136.5 -96 q86 -23 116 -96.5t32 -179.5l10 -469h-82l-10 465q0 72 -17.5 117t-45 69.5t-63.5 33.5t-77 9h-157l-134 -694h-86l134 694h-154q-41 0 -81 -9t-78 -33.5t-71.5 -69.5t-64.5 -117l-186 -465h-84z" />
<glyph unicode="&#x417;" horiz-adv-x="780" d="M33 219q0 37 8 72l84 18q-4 -16 -4 -29.5v-27.5q0 -100 54 -143t134 -43q68 0 117 28.5t83 73.5t54.5 102.5t30.5 112.5q8 41 15 81t7 81q0 76 -31.5 116.5t-101.5 40.5h-65l16 82h70q45 0 88 27t75.5 78t52 122.5t19.5 164.5q0 94 -54 137t-126 43q-100 0 -171 -60.5 t-93 -181.5l-88 21q29 154 126 228.5t230 74.5q53 0 101.5 -13.5t85 -43t58 -77t21.5 -112.5q0 -37 -6 -99.5t-27.5 -130t-60.5 -128t-106 -91.5v-6q45 -29 61.5 -75t16.5 -99q0 -39 -5.5 -78t-13.5 -77q-20 -102 -50 -181.5t-76 -132.5t-109.5 -80.5t-149.5 -27.5 q-53 0 -101 13t-86 41t-60.5 72t-22.5 107z" />
<glyph unicode="&#x418;" horiz-adv-x="851" d="M25 0l274 1425h86l-231 -1189l8 -3l694 1192h86l-276 -1425h-88l231 1194h-4l-699 -1194h-81z" />
<glyph unicode="&#x419;" horiz-adv-x="851" d="M25 0l274 1425h86l-231 -1189l8 -3l694 1192h86l-276 -1425h-88l231 1194h-4l-699 -1194h-81zM420 1679h76q-4 -66 34.5 -110.5t102.5 -44.5q66 0 122 42t81 113h77q-10 -41 -33.5 -82t-59.5 -73.5t-84 -53t-107 -20.5q-61 0 -103.5 21.5t-67 55.5t-33.5 74.5t-5 77.5z " />
<glyph unicode="&#x41a;" horiz-adv-x="821" d="M23 0l276 1425h84l-127 -647h160q31 0 68.5 9.5t77.5 34t79 67.5t68 110l184 426h78l-170 -407q-43 -104 -103.5 -177t-136.5 -96q86 -23 115 -96.5t33 -179.5l10 -469h-82l-8 465q-2 72 -18.5 117t-44 69.5t-64.5 33.5t-78 9h-182l-136 -694h-83z" />
<glyph unicode="&#x41b;" horiz-adv-x="862" d="M-84 31q55 35 98 73.5t80 106.5t69 176.5t66 284.5l148 753h575l-276 -1425h-86l258 1343h-406l-125 -643q-37 -188 -71.5 -311t-76.5 -205t-95.5 -132t-126.5 -89z" />
<glyph unicode="&#x41c;" horiz-adv-x="1089" d="M20 0l277 1425h86q23 -123 43 -243.5t41 -243.5l80 -453h6q66 117 129 228.5t129 228.5l274 483h93l-277 -1425h-86l229 1176h-6l-235 -410l-248 -434h-63l-68 364l-82 469h-8l-225 -1165h-89z" />
<glyph unicode="&#x41d;" horiz-adv-x="843" d="M25 0l276 1425h88l-129 -655h455l129 655h88l-277 -1425h-88l133 690h-452l-135 -690h-88z" />
<glyph unicode="&#x41e;" horiz-adv-x="825" d="M70 248q0 45 8 86l151 784q29 154 126.5 237t240.5 83q129 0 199.5 -69t70.5 -191q0 -43 -8 -84l-151 -799q-16 -88 -50 -147.5t-81.5 -95.5t-106.5 -51t-129 -15q-131 0 -200.5 71.5t-69.5 190.5zM156 264q0 -88 46 -143t142 -55q111 0 179.5 51t90.5 174l156 805 q8 33 8 71q0 86 -48 137.5t-140 51.5q-57 0 -104.5 -19.5t-82 -53.5t-57 -79t-33.5 -96l-151 -774q-6 -37 -6 -70z" />
<glyph unicode="&#x41f;" horiz-adv-x="833" d="M25 0l276 1425h623l-277 -1425h-88l260 1343h-446l-260 -1343h-88z" />
<glyph unicode="&#x420;" horiz-adv-x="790" d="M25 2l276 1423h264q174 0 243 -74.5t69 -201.5q0 -121 -27 -220.5t-82 -171t-141 -110.5t-205 -39h-191l-118 -606h-88zM246 688h178q182 0 273 116t91 322q0 100 -50 160t-189 60h-174z" />
<glyph unicode="&#x421;" horiz-adv-x="790" d="M63 233q0 41 11 99l135 692l22 111q31 143 124.5 223t222.5 80q141 0 210.5 -63.5t69.5 -178.5q0 -33 -8 -66q-23 -4 -45.5 -8t-44.5 -8q4 20 7 37.5t3 34.5q0 80 -47 125t-139 45q-111 0 -179.5 -69.5t-91.5 -178.5l-153 -786q-4 -20 -6 -39t-2 -35q0 -86 47 -135.5 t139 -49.5q223 0 268 248l86 -20q-31 -164 -123 -234.5t-235 -70.5q-137 0 -204 64.5t-67 182.5z" />
<glyph unicode="&#x422;" horiz-adv-x="653" d="M186 1343l19 82h631l-19 -82h-270l-260 -1343h-86l258 1343h-273z" />
<glyph unicode="&#x423;" horiz-adv-x="772" d="M29 -16l16 73h35q53 0 109.5 49.5t103.5 159.5l35 76l-117 1083h86l90 -960h4l443 960h86l-535 -1144q-45 -96 -84 -153.5t-76 -89.5t-74.5 -43t-76.5 -11h-45z" />
<glyph unicode="&#x424;" horiz-adv-x="985" d="M92 418q0 45 8 84l13 61l94 463q14 80 53 138.5t94.5 97t124 58t146.5 19.5l16 86h88q-4 -23 -8 -43t-8 -43q141 -4 218 -80.5t77 -201.5q0 -45 -9 -84q-29 -139 -53 -276.5t-53 -274.5q-31 -160 -142.5 -233.5t-275.5 -73.5l-22 -115h-86l22 119q-74 2 -129 27.5 t-93 65.5t-56.5 93t-18.5 113zM178 424q0 -90 54 -154.5t171 -68.5q51 264 101.5 526t103.5 526q-115 0 -204 -57t-111 -170q-31 -162 -57.5 -291t-49.5 -241q-4 -16 -6 -35t-2 -35zM489 201h3q72 0 120 18q74 18 126.5 68.5t68.5 140.5l98 496q4 25 7 49t3 47v27.5t-4 25.5 q-4 86 -63.5 132t-151.5 48z" />
<glyph unicode="&#x425;" horiz-adv-x="710" d="M-72 0l437 725l-152 698h92l123 -602l352 602h103l-426 -698l159 -725h-92l-125 623l-368 -623h-103z" />
<glyph unicode="&#x426;" horiz-adv-x="839" d="M25 0l276 1425h88l-262 -1339h446l263 1339h88l-260 -1339h69l-67 -354h-80l51 268h-612z" />
<glyph unicode="&#x427;" horiz-adv-x="776" d="M158 950l92 475h84l-92 -475q-14 -74 -11.5 -125t27.5 -82.5t72 -47t123 -15.5q37 0 92 10t104 29l137 706h88l-276 -1423h-88l125 637q-41 -16 -101.5 -25.5t-107.5 -9.5q-178 0 -241.5 81t-26.5 265z" />
<glyph unicode="&#x428;" horiz-adv-x="1218" d="M25 0l276 1425h86l-262 -1339h371l262 1339h88l-262 -1339h372l263 1339h88l-277 -1425h-1005z" />
<glyph unicode="&#x429;" horiz-adv-x="1222" d="M25 0l276 1425h86l-262 -1339h371l262 1339h88l-262 -1339h372l263 1339h88l-260 -1339h69l-67 -352h-80l53 266h-997z" />
<glyph unicode="&#x42a;" horiz-adv-x="1081" d="M178 1343l17 82h450l-123 -630h164q86 0 148.5 -23.5t101.5 -64.5t57.5 -96.5t18.5 -116.5q0 -94 -23.5 -183.5t-78 -158t-140.5 -110.5t-211 -42h-278l260 1343h-363zM383 84h184q96 0 164 36t111 92t62.5 126t19.5 137q0 102 -57.5 169t-182.5 67h-178z" />
<glyph unicode="&#x42b;" horiz-adv-x="1042" d="M25 0l276 1425h88l-123 -632h162q86 0 148.5 -24t101.5 -64.5t57.5 -95t18.5 -115.5q0 -92 -23.5 -181.5t-77 -158t-139.5 -111.5t-211 -43h-278zM127 84h182q96 0 165 35t112 91t62.5 126t19.5 137q0 49 -14.5 91t-44 75t-75 51.5t-108.5 18.5h-178 q-29 -158 -59.5 -313.5t-61.5 -311.5zM766 0l276 1425h88l-276 -1425h-88z" />
<glyph unicode="&#x42c;" horiz-adv-x="790" d="M-6 0q68 358 135.5 712.5t136.5 712.5h88l-123 -632h164q86 0 148.5 -24t101.5 -64.5t57.5 -95t18.5 -115.5q0 -92 -24.5 -181.5t-78 -159t-140.5 -111.5t-210 -42h-274zM92 84h184q96 0 164 35t111 91t62.5 126t19.5 137q0 100 -58.5 168t-181.5 68h-178z" />
<glyph unicode="&#x42d;" horiz-adv-x="790" d="M39 238l90 20q-4 -51 10.5 -88t41 -59.5t62.5 -33.5t76 -11q121 0 184.5 72.5t88.5 205.5l67 340h-356l16 86h357l59 301q29 143 -19 214t-165 71q-86 0 -151.5 -45t-94.5 -146l-88 23q18 66 53 113t81 77.5t100.5 45t111.5 14.5q166 0 228.5 -95.5t27.5 -275.5 l-137 -725q-39 -195 -130 -275.5t-243 -80.5q-57 0 -107 14t-88 45t-58.5 79t-16.5 114z" />
<glyph unicode="&#x42e;" horiz-adv-x="1050" d="M27 0l274 1425h88l-127 -655h170l68 344q29 154 117 239t235 85q74 0 129 -26t89 -71t45 -108.5t-3 -138.5l-156 -797q-33 -166 -123 -238.5t-229 -72.5q-66 0 -120 20.5t-91 60t-51 101t2 141.5l74 381h-170l-135 -690h-86zM429 206q9 -46 36 -77t66.5 -47t86.5 -16 q109 0 170.5 64.5t83.5 176.5l152 789q10 53 5 100t-27.5 83t-62.5 57.5t-99 21.5q-53 0 -95.5 -20.5t-75 -55.5t-54 -81t-31.5 -97l-152 -791q-12 -61 -3 -107z" />
<glyph unicode="&#x42f;" horiz-adv-x="823" d="M-37 0l160 442q35 92 83 164t134 103q-70 29 -105.5 93t-35.5 152q0 106 30.5 193.5t89 149t144.5 95t194 33.5h252l-274 -1425h-86l129 670h-186q-43 0 -82 -9.5t-74 -34t-65.5 -69.5t-59.5 -119l-160 -438h-88zM287 963q0 -111 62.5 -163t176.5 -52h168l115 598h-156 q-166 0 -266 -99.5t-100 -283.5z" />
<glyph unicode="&#x430;" horiz-adv-x="747" d="M51 178q0 61 13.5 159.5t33.5 199.5q25 119 51.5 209t65.5 150t94.5 90t132.5 30q76 0 129.5 -31t75.5 -80h4q4 23 9.5 47.5t9.5 46.5h86q-49 -252 -97.5 -500.5t-95.5 -498.5h-88q4 29 11.5 55.5t11.5 55.5q-2 0 -2 1t-2 1q-47 -59 -102.5 -92t-141.5 -33 q-92 0 -145.5 48t-53.5 142zM143 205q0 -68 41 -101.5t105 -33.5q53 0 97 23.5t76 59t51 81t26 88.5l73 374q8 43 5 86t-20 76t-53 53.5t-91 20.5q-141 0 -193 -137q-10 -25 -31.5 -101t-42.5 -176q-18 -92 -30.5 -176t-12.5 -137z" />
<glyph unicode="&#x431;" horiz-adv-x="716" d="M49 205q0 53 9.5 131t23.5 149l41 209q18 94 35.5 170t36.5 152q33 125 66.5 210t91 137t148.5 77.5t238 32.5q0 -18 1 -37t3 -37q-135 -6 -216 -29.5t-130 -73t-75.5 -124t-53.5 -181.5l-32 -137h4q29 43 60.5 67.5t63 37t59.5 15.5t46 3q66 0 107.5 -21.5t66.5 -54.5 t35 -71.5t10 -73.5q0 -53 -10 -129t-27 -168q-25 -131 -54.5 -221.5t-70.5 -146.5t-95 -80.5t-128 -24.5q-72 0 -121 17t-78.5 48t-42 71t-12.5 83zM133 229q0 -72 36 -119t138 -47q127 0 191 138q16 37 34.5 108.5t35 153.5t26.5 159.5t10 125.5q0 66 -39 108.5t-123 42.5 q-51 0 -91 -24.5t-72 -65.5q-35 -47 -63 -129t-46 -170t-27.5 -166t-9.5 -115z" />
<glyph unicode="&#x432;" horiz-adv-x="720" d="M37 207q0 57 16 129q23 104 43.5 209.5t46.5 210.5q14 55 38 102t59.5 83t87 55.5t125.5 19.5q68 0 112.5 -17.5t71.5 -46t38 -66.5t11 -77q0 -35 -9 -72t-29.5 -70.5t-50.5 -61t-73 -42.5q70 -25 98.5 -80t28.5 -118q-4 -78 -27.5 -146.5t-68.5 -120t-111.5 -81 t-158.5 -29.5q-248 0 -248 219zM123 211q2 -66 38 -105.5t128 -39.5q74 0 126 25.5t86 68.5t50 97t16 110q0 72 -43 114.5t-123 42.5h-100l16 76h80q92 0 146.5 57.5t54.5 141.5q0 57 -37 98t-119 41q-102 0 -153 -66.5t-74 -164.5l-80 -381q-6 -29 -8 -59.5t-4 -55.5z" />
<glyph unicode="&#x433;" horiz-adv-x="659" d="M20 184q0 59 10.5 113.5t42 101.5t89 87t151.5 73q82 29 134.5 55.5t80 56t37.5 61.5t10 69q0 55 -32.5 95t-122.5 40q-78 0 -136.5 -41t-76.5 -123l-86 19q29 113 109.5 170t203.5 57t177.5 -54.5t54.5 -146.5q0 -49 -13.5 -94t-49.5 -86t-97.5 -79t-157.5 -71 q-72 -25 -118 -51t-73.5 -59t-39 -76t-11.5 -100q0 -63 37 -98t125 -35q78 0 133.5 43t77.5 118l86 -16q-29 -115 -112.5 -171t-206.5 -56q-121 0 -173.5 54t-52.5 144z" />
<glyph unicode="&#x434;" horiz-adv-x="716" d="M37 199q0 51 10 137t27 162q23 111 47 193.5t51 129.5q43 78 100.5 117t153.5 39q20 0 49 -5t57.5 -18.5t53 -36t39.5 -59.5q4 0 6 2q10 59 17 101.5t10.5 72t4.5 51t1 41.5q0 53 -8.5 99.5t-32 81t-65.5 54t-109 19.5q-27 0 -59 -3t-66 -7l-9 72q43 6 76 8t66 2 q86 0 142 -24.5t88 -67.5t45 -100t13 -123q0 -35 -4 -82t-15 -123t-30.5 -188.5t-50.5 -274.5q-23 -119 -50.5 -206t-64.5 -146q-41 -68 -99 -99.5t-146 -31.5q-72 0 -119 19.5t-76 50t-41 68.5t-12 75zM121 211q0 -57 40 -102.5t128 -45.5q68 0 117 34t77 98q12 27 30.5 89 t37 137t32 153.5t15.5 138.5q0 78 -44 131t-132 53q-47 0 -98.5 -24.5t-81.5 -94.5q-20 -45 -44 -119.5t-48 -203.5q-16 -80 -22.5 -140.5t-6.5 -103.5z" />
<glyph unicode="&#x435;" horiz-adv-x="718" d="M57 242q0 55 9.5 118.5t19.5 124.5q18 100 43 196.5t66 171.5t106.5 120t165.5 45q127 0 186.5 -56.5t59.5 -148.5q0 -94 -32 -164.5t-86 -117t-126 -69t-150 -22.5q-23 0 -61.5 3t-85.5 14q-10 -51 -19.5 -105.5t-9.5 -97.5q0 -35 6.5 -68.5t23.5 -60.5t48 -42t78 -15 q86 0 142.5 48t74.5 132l88 -17q-29 -117 -106.5 -180t-206.5 -63q-68 0 -112 19.5t-71.5 54t-39 80.5t-11.5 100zM184 537q31 -8 74 -12.5t72 -4.5q55 0 107 15.5t94 49t68 87t26 127.5q0 61 -42 100t-124 39q-104 0 -168 -94t-107 -307z" />
<glyph unicode="&#x436;" horiz-adv-x="1474" d="M-6 195l78 14q0 -70 39 -110t110 -40q41 0 69.5 10.5t50 27t36 38t24.5 45.5q10 25 23.5 76t27 113.5t24.5 130t20.5 126t14.5 101.5t5 57q0 68 -33.5 109t-99.5 41q-63 0 -115.5 -30t-79.5 -101l-75 26q35 92 98 140.5t162 48.5q61 0 104 -17.5t70.5 -45t40 -65.5 t12.5 -77q0 -61 -14.5 -161.5t-36.5 -205.5q2 0 2 -1t2 -1q72 129 135.5 271.5t124.5 285.5h70l-131 -688h6q33 74 61.5 135.5t57 117t56.5 108.5t56 112q18 45 41 87t55.5 74t78.5 50.5t114 18.5q106 0 164.5 -54.5t58.5 -154.5l-80 -14q0 61 -34.5 102t-126.5 41 q-45 0 -90.5 -25.5t-75.5 -91.5q-23 -49 -46.5 -136t-52.5 -232q-6 -31 -13 -66t-12 -69.5t-9.5 -66.5t-4.5 -54q0 -66 41 -101t111 -35q78 0 126 44t75 122q18 -4 36.5 -10t36.5 -12q-29 -98 -94 -157.5t-186 -59.5q-70 0 -114 17t-69.5 45t-35 62.5t-9.5 71.5q0 29 4.5 69 t12.5 85l16 90t19 84h-6q-63 -127 -119 -249t-115 -261h-68q37 186 73 362.5t75 362.5q-2 0 -3 1t-3 1q-33 -72 -62.5 -132t-60.5 -120.5t-64.5 -124t-74.5 -143.5q-14 -43 -34 -83t-50.5 -70.5t-77.5 -49t-117 -18.5q-115 0 -169 55t-56 154z" />
<glyph unicode="&#x437;" horiz-adv-x="657" d="M-10 188v15.5t2 17.5l86 12q0 -8 -1 -15t-1 -15q0 -72 49 -103.5t117 -31.5q43 0 86 15t76.5 49t54 89t20.5 137q0 72 -33.5 99.5t-87.5 27.5h-96l17 78h102q29 0 60.5 11.5t59 38t45 69.5t17.5 106q0 78 -46 112t-118 34q-78 0 -131 -40t-78 -126l-84 18 q31 117 115 172.5t191 55.5q47 0 91 -10.5t77.5 -34t53 -62.5t19.5 -96q0 -33 -8 -77t-26.5 -87t-49 -77.5t-75.5 -49.5v-2q41 -12 59 -49t18 -90q0 -111 -30.5 -185.5t-79.5 -120.5t-109.5 -65.5t-120.5 -19.5q-47 0 -90 10t-76.5 34.5t-54 62.5t-20.5 93z" />
<glyph unicode="&#x438;" horiz-adv-x="733" d="M49 180q0 27 3 51.5t7 51.5l140 718h90l-139 -710q-4 -20 -6.5 -41t-2.5 -39q0 -59 30 -99t110 -40q55 0 100 25.5t78 65.5t54.5 89t31.5 98l125 651h88l-195 -1001h-88q6 31 13.5 61.5t11.5 61.5h-4q-51 -68 -117 -102.5t-133 -34.5q-57 0 -95 15t-60.5 42t-32 62.5 t-9.5 74.5z" />
<glyph unicode="&#x439;" horiz-adv-x="749" d="M47 180q0 41 12 103l140 718h90q-47 -229 -79 -399t-60 -311q-8 -41 -9 -80q0 -55 30 -97t110 -42q55 0 100 25.5t78 65.5t54.5 89t31.5 98l125 651h88l-195 -1001h-88q6 31 13.5 61.5t11.5 61.5h-4q-51 -68 -117 -102.5t-133 -34.5q-111 0 -155 56t-44 138zM297 1370h76 q0 -66 35.5 -112t101.5 -46t122 43t81 115h78q-10 -43 -34 -84t-59.5 -72.5t-84 -52t-107.5 -20.5q-63 0 -104.5 21.5t-64 55t-31.5 73.5t-9 79z" />
<glyph unicode="&#x43a;" horiz-adv-x="694" d="M-2 0l195 1001h86l-89 -456h134q27 0 56.5 6t59 22.5t56 46t47.5 76.5l137 305h82l-129 -290q-35 -74 -76 -124t-102 -67q66 -16 87 -68.5t25 -125.5l21 -326h-80l-16 313q-4 49 -17.5 81t-36 49.5t-51.5 23.5t-63 6h-148l-92 -473h-86z" />
<glyph unicode="&#x43b;" horiz-adv-x="737" d="M-76 33q49 29 87 63.5t68 85.5t52.5 122t40.5 173l100 524h488l-191 -1001h-88l176 924h-319l-88 -461q-18 -100 -43 -179t-59.5 -140.5t-82 -105.5t-110.5 -75z" />
<glyph unicode="&#x43c;" horiz-adv-x="954" d="M10 0l193 1001h82l104 -405q16 -61 31.5 -121.5t32.5 -122.5h2l207 316l221 333h90l-193 -1001h-88q39 199 77 397.5t79 399.5h-4q-43 -66 -88 -133.5t-88 -135.5q-6 -10 -36 -54t-65 -95t-65.5 -95t-36.5 -55h-59q-18 63 -37 127t-35 127q-23 78 -41.5 154t-40.5 154h-2 q-39 -199 -77 -395.5t-75 -395.5h-88z" />
<glyph unicode="&#x43d;" horiz-adv-x="737" d="M10 0l193 1001h90l-86 -446h377l86 446h90l-193 -1001h-92l92 475h-377l-90 -475h-90z" />
<glyph unicode="&#x43e;" horiz-adv-x="714" d="M45 197q0 27 3 61.5t8 74.5t11.5 81t14.5 78q29 135 53.5 232t63.5 161q80 131 258 131q63 0 107 -18.5t73 -49t42 -68.5t13 -75q2 -59 -13 -150.5t-36 -195.5q-25 -129 -52.5 -219t-67.5 -146.5t-98 -82t-146 -25.5q-66 0 -110 19.5t-71.5 50t-40 67.5t-12.5 74z M131 211q0 -59 36 -103.5t126 -44.5q68 0 118 31t81 101q14 37 34.5 111.5t39 160.5t30.5 171t12 144q0 70 -41.5 113t-117.5 43q-53 0 -103.5 -21.5t-85.5 -85.5q-23 -41 -46.5 -138t-51.5 -234q-31 -166 -31 -248z" />
<glyph unicode="&#x43f;" horiz-adv-x="731" d="M2 0q49 250 98.5 500t96.5 501h88q-6 -31 -13.5 -62.5t-11.5 -61.5h4q51 70 116.5 104.5t133.5 34.5q57 0 95 -15.5t60.5 -43t32 -63.5t9.5 -75q0 -45 -11 -102l-139 -717h-90l139 709q4 23 7.5 42t3.5 42q0 55 -29 95t-113 40q-55 0 -99 -24.5t-78 -64.5t-56.5 -89.5 t-30.5 -98.5l-125 -651h-88z" />
<glyph unicode="&#x440;" horiz-adv-x="714" d="M-88 -403l274 1411h88l-18 -95l4 -2q45 51 97.5 80t134.5 29q35 0 71.5 -8t66 -31t49 -61.5t19.5 -100.5q0 -25 -4 -66.5t-10 -86.5t-13 -89.5t-14 -74.5q-25 -121 -50 -216.5t-63 -161t-95.5 -100t-147.5 -34.5q-45 0 -79 12t-57.5 29.5t-37.5 38t-23 39.5h-4l-100 -512 h-88zM135 268q0 -74 43 -132t127 -58q55 0 95 24.5t70 77.5t53.5 136t45.5 198q16 86 25.5 161t9.5 116q0 78 -44 111.5t-107 33.5q-92 0 -154.5 -63.5t-79.5 -151.5l-80 -404q-2 -12 -3 -24t-1 -25z" />
<glyph unicode="&#x441;" horiz-adv-x="677" d="M41 188q0 41 13.5 119t35.5 193q12 59 25.5 121.5t27.5 119.5q16 59 38 109.5t56.5 87.5t89 57.5t136.5 20.5q109 0 173 -52.5t64 -150.5q0 -27 -6 -57l-92 -11q4 16 6 29.5t2 28.5q0 61 -39 96t-116 35q-94 0 -147.5 -52.5t-76.5 -144.5q-16 -72 -33.5 -153.5 t-32.5 -157.5t-24.5 -136.5t-9.5 -90.5v-15q6 -53 45 -84.5t111 -31.5q86 0 142 46t77 140l90 -16q-29 -129 -109.5 -190.5t-205.5 -61.5q-68 0 -113 16t-73.5 44t-41 64.5t-12.5 77.5z" />
<glyph unicode="&#x442;" horiz-adv-x="1181" d="M10 0q49 250 98.5 500t96.5 501h88l-25 -124h4q49 66 109.5 102.5t132.5 36.5q94 0 135 -42t51 -108q66 84 132.5 117t132.5 33q55 0 92 -15.5t58.5 -42t30.5 -61.5t9 -74q0 -53 -12 -108l-139 -715h-91l140 715q10 47 10 84q0 53 -26.5 91t-104.5 38q-47 0 -88 -19.5 t-73 -51.5t-54.5 -72t-30.5 -83l-135 -702h-88l139 717q10 45 10 82q0 53 -26.5 91t-104.5 38q-49 0 -91 -21.5t-73.5 -55.5t-54 -77t-31.5 -88l-133 -686h-88z" />
<glyph unicode="&#x443;" horiz-adv-x="645" d="M-125 -338q51 6 93 22.5t79 52.5t71 93t70 145l-84 1026h91l43 -595q4 -68 9 -156t1 -160h4q43 84 92 192.5t100.5 229.5t98.5 247t88 242h94q-61 -168 -118.5 -310t-116 -272t-119 -258t-127.5 -265q-29 -61 -64 -116.5t-78 -97.5t-98 -68t-127 -28z" />
<glyph unicode="&#x444;" horiz-adv-x="892" d="M51 233q0 53 11.5 111.5t21.5 116.5q12 70 26.5 139.5t30.5 134.5q8 31 17.5 59.5t25.5 53.5q47 78 131 123t203 47l80 399h86q-20 -100 -39.5 -198.5t-38.5 -200.5q131 -4 201 -72.5t70 -173.5q0 -12 -3.5 -39.5t-7.5 -61.5t-11 -70t-13 -64q-16 -76 -30.5 -150 t-33.5 -141q-35 -129 -126 -196.5t-249 -74.5l-73 -374h-86l71 374q-102 4 -164.5 48.5t-84.5 111.5q-14 41 -15 98zM133 238q0 -29 6 -54q14 -53 60.5 -89t130.5 -40l174 881q-66 0 -114 -18.5t-82 -49t-55.5 -70.5t-29.5 -83q-23 -96 -44 -198.5t-40 -211.5 q-2 -16 -4 -33.5t-2 -33.5zM418 55q86 0 143 29t92 76q16 25 29.5 60.5t24.5 76.5q8 35 16 67.5t14 65.5q16 72 27.5 141.5t21.5 135.5q8 43 2 83.5t-28.5 72.5t-64.5 52.5t-105 22.5z" />
<glyph unicode="&#x445;" horiz-adv-x="600" d="M-70 0l334 514l-129 487h98l97 -411l258 411h106l-327 -489l149 -512h-98l-111 430l-274 -430h-103z" />
<glyph unicode="&#x446;" horiz-adv-x="749" d="M47 180q0 27 3 51.5t7 51.5l140 718h90l-142 -722q-6 -31 -6 -64q0 -57 30 -100t110 -43q51 0 94 21.5t76.5 56t56 78.5t31.5 89l131 684h88q-35 -186 -72 -367t-72 -366q-4 -25 -8 -48t-4 -50q0 -41 16.5 -80t51.5 -63l-82 -287h-80l72 262q-29 20 -46.5 58t-15.5 75 q-25 -35 -57.5 -62.5t-69.5 -47t-74.5 -29.5t-70.5 -10q-57 0 -95 15t-60.5 42t-32 62.5t-9.5 74.5z" />
<glyph unicode="&#x447;" horiz-adv-x="692" d="M82 544q0 48 10 103l70 354h88l-68 -346q-10 -53 -11 -90t11.5 -59.5t43 -31.5t83.5 -9t115.5 21.5t107.5 56.5l91 458h86l-195 -1001h-86l88 457q-55 -37 -121.5 -55.5t-120.5 -18.5q-72 0 -112.5 20.5t-60 56.5t-19.5 84z" />
<glyph unicode="&#x448;" horiz-adv-x="1099" d="M18 176v4q0 39 13 105l139 716h90q-43 -238 -78 -408.5t-61 -307.5q-4 -20 -6 -40t-2 -36q0 -59 26.5 -97t102.5 -38q45 0 86 19.5t72.5 51t55 71.5t33.5 81q35 178 68 352t68 352h86l-140 -718q-4 -20 -6 -38t-2 -34q0 -59 26.5 -98t104.5 -39q47 0 89 21.5t75 55 t55.5 76.5t30.5 86q4 20 14.5 73.5t23.5 123.5t28.5 147.5t29 147t22.5 123t13 73.5h88l-194 -1001h-88q6 31 13 61.5t11 61.5h-4q-47 -66 -108.5 -101.5t-130.5 -35.5q-96 0 -137.5 42t-49.5 107q-66 -84 -133 -116.5t-133 -32.5q-109 0 -150 55t-41 135z" />
<glyph unicode="&#x449;" horiz-adv-x="1191" d="M47 180q0 39 12 105l140 716h90q-43 -238 -78 -408.5t-61 -307.5q-4 -20 -6.5 -40t-2.5 -36q0 -59 27 -97t102 -38q49 0 93.5 22.5t77 58t55 81t28.5 92.5q33 168 63.5 335.5t65.5 337.5h86l-139 -718q-4 -20 -6 -38t-2 -34q0 -59 26.5 -98t104.5 -39q51 0 96 23.5 t79 62.5t56.5 86t30.5 96l127 659h86l-141 -733q-4 -25 -8.5 -48t-4.5 -50q0 -41 16.5 -80t51.5 -63l-82 -287h-80l72 262q-29 20 -46.5 58t-14.5 75h-3q-47 -68 -122.5 -108.5t-145.5 -40.5q-96 0 -137 42t-49 107q-66 -84 -133.5 -116.5t-132.5 -32.5q-111 0 -151 55 t-40 139z" />
<glyph unicode="&#x44a;" horiz-adv-x="899" d="M70 924l14 77h393l-86 -426h184q74 0 124.5 -21.5t81 -56t45 -79.5t14.5 -92q0 -68 -23.5 -130.5t-69 -108.5t-110 -73.5t-143.5 -27.5q-66 0 -118 20.5t-86 62.5t-45.5 103t5.5 143l119 609h-299zM338 305q-20 -109 21.5 -173t140.5 -64q63 0 110 20.5t78 56t47.5 80.5 t16.5 94q4 76 -49.5 126.5t-151.5 50.5h-176z" />
<glyph unicode="&#x44b;" horiz-adv-x="944" d="M52 172q-11 61 5 143l136 686h92l-86 -426h184q74 0 124 -21.5t82 -56t45 -79.5t13 -92q0 -68 -23.5 -130.5t-68.5 -108.5t-108.5 -73.5t-143.5 -27.5q-66 0 -119 20.5t-87 62.5t-45 103zM145 305q-20 -109 23 -173t141 -64q61 0 108.5 20.5t78 56t46 80.5t17.5 94v5 q0 74 -51 123t-150 49h-176zM682 0l195 1001h88l-193 -1001h-90z" />
<glyph unicode="&#x44c;" horiz-adv-x="702" d="M55.5 172q-12.5 61 3.5 143l136 686h92l-86 -426h184q74 0 125 -21.5t82 -56t45 -79.5t14 -92q0 -68 -23.5 -130.5t-68.5 -108.5t-109.5 -73.5t-144.5 -27.5q-66 0 -118 20.5t-85.5 62.5t-46 103zM147 305q-20 -109 23 -173t141 -64q63 0 109.5 20.5t78 56t47 80.5 t17.5 94q2 76 -50 126.5t-151 50.5h-178z" />
<glyph unicode="&#x44d;" horiz-adv-x="692" d="M35 207l92 16q-4 -78 40 -117.5t122 -39.5q84 0 124 34.5t62 81.5q8 18 16.5 48t17.5 69t18.5 83t17.5 87h-309l16 82h307q18 98 25.5 165.5t3.5 100.5q-10 59 -55.5 89t-104.5 30q-76 0 -132 -42t-77 -120l-90 19q31 106 109.5 165.5t197.5 59.5q106 0 168 -49t74 -121 q2 -20 0 -58t-7 -86.5t-14.5 -103.5t-17.5 -111q-16 -82 -34.5 -172t-39.5 -149q-25 -74 -89 -128t-189 -54q-121 0 -188.5 56t-63.5 165z" />
<glyph unicode="&#x44e;" horiz-adv-x="940" d="M2 0q49 250 98.5 500t96.5 501h88l-86 -448h139q23 115 47.5 199t58.5 141q78 125 248 125q61 0 105.5 -18.5t71 -49t39 -68.5t12.5 -75q0 -61 -13.5 -151.5t-34.5 -194.5q-25 -129 -50 -220t-64 -147.5t-97.5 -82t-144.5 -25.5q-68 0 -112 19.5t-68.5 52t-34.5 72.5 t-10 81q0 61 10 128t21 134h-140l-92 -473h-88zM373 211q0 -61 35.5 -104.5t121.5 -43.5q70 0 121 38t74 104q14 37 32.5 112.5t37.5 163.5q16 78 29.5 155t13.5 132q0 72 -35 121t-119 49q-53 0 -100 -20.5t-82 -86.5q-23 -41 -48.5 -141t-52.5 -239q-16 -80 -22 -139.5 t-6 -100.5z" />
<glyph unicode="&#x44f;" horiz-adv-x="720" d="M-18 0l118 315q23 61 58 110.5t94 70.5q-121 55 -121 188q0 141 89 229t263 88h254l-192 -1001h-88l90 463h-160q-63 0 -114.5 -31t-92.5 -129l-112 -303h-86zM217 692q0 -152 193 -151h153l74 383h-166q-119 0 -186.5 -60.5t-67.5 -171.5z" />
<glyph unicode="&#x451;" horiz-adv-x="718" d="M57 242q0 55 9.5 118.5t19.5 124.5q18 100 43 196.5t66 171.5t106.5 120t165.5 45q127 0 186.5 -56.5t59.5 -148.5q0 -94 -32 -164.5t-86 -117t-126 -69t-150 -22.5q-23 0 -61.5 3t-85.5 14q-10 -51 -19.5 -105.5t-9.5 -97.5q0 -35 6.5 -68.5t23.5 -60.5t48 -42t78 -15 q86 0 142.5 48t74.5 132l88 -17q-29 -117 -106.5 -180t-206.5 -63q-68 0 -112 19.5t-71.5 54t-39 80.5t-11.5 100zM184 537q31 -8 74 -12.5t72 -4.5q55 0 107 15.5t94 49t68 87t26 127.5q0 61 -42 100t-124 39q-104 0 -168 -94t-107 -307zM315 1212l19 99h86l-21 -99h-84z M614 1212l19 99h84l-19 -99h-84z" />
<glyph unicode="&#x452;" horiz-adv-x="733" d="M10 0q57 299 113.5 594t116.5 594h-95q4 16 7.5 33.5t5.5 33.5h94l45 232h88l-45 -232h383l-14 -67h-383q-14 -78 -29.5 -156t-32.5 -155h4q43 59 104.5 94t133.5 35q61 0 100 -16.5t62.5 -46.5t33 -67.5t9.5 -80.5q2 -45 -7.5 -111t-19.5 -143q-6 -41 -15.5 -93.5 t-20.5 -103.5t-23.5 -98t-24.5 -78q-41 -111 -120 -166t-199 -49l16 76q70 2 124 31.5t87 101.5q12 29 28.5 91t32.5 134q10 49 20.5 102.5t17.5 103.5t11.5 94t4.5 75q0 68 -27 112t-111 44q-57 0 -101 -22t-76 -55.5t-52 -76.5t-29 -86q-4 -18 -14 -71.5t-23.5 -122 t-29 -145.5t-28.5 -145.5t-22.5 -122t-13.5 -71.5h-86z" />
<glyph unicode="&#x453;" horiz-adv-x="659" d="M20 184q0 59 10.5 113.5t42 101.5t89 87t151.5 73q82 29 134.5 55.5t80 56t37.5 61.5t10 69q0 55 -32.5 95t-122.5 40q-78 0 -136.5 -41t-76.5 -123l-86 19q29 113 109.5 170t203.5 57t177.5 -54.5t54.5 -146.5q0 -49 -13.5 -94t-49.5 -86t-97.5 -79t-157.5 -71 q-72 -25 -118 -51t-73.5 -59t-39 -76t-11.5 -100q0 -63 37 -98t125 -35q78 0 133.5 43t77.5 118l86 -16q-29 -115 -112.5 -171t-206.5 -56q-121 0 -173.5 54t-52.5 144zM412 1159l196 309l86 -34l-237 -295z" />
<glyph unicode="&#x454;" horiz-adv-x="692" d="M41 188q0 41 13.5 119t35.5 193q12 59 25.5 121.5t27.5 119.5q16 59 38 109.5t56.5 87.5t89 57.5t136.5 20.5q109 0 173 -52.5t64 -150.5q0 -27 -6 -57l-92 -11q4 16 6 29.5t2 28.5q0 61 -39 96t-116 35q-94 0 -147.5 -52.5t-76.5 -144.5l-43 -188h299l-10 -82h-305 q-16 -90 -28.5 -162t-12.5 -106v-15q6 -53 45 -84.5t111 -31.5q86 0 142 46t77 140l90 -16q-29 -129 -109.5 -190.5t-205.5 -61.5q-68 0 -113 16t-73.5 44t-41 64.5t-12.5 77.5z" />
<glyph unicode="&#x455;" horiz-adv-x="659" d="M14 180q0 27 6 62l89 12q-4 -12 -4.5 -25.5t-0.5 -25.5q0 -61 39 -98t117 -37q123 0 176 71.5t53 182.5q0 59 -31.5 94t-119.5 71q-123 51 -164 105.5t-41 122.5q0 133 81 218t235 85q115 0 175 -49t60 -142q0 -16 -2 -32.5t-6 -34.5l-90 -15q6 31 6 54q0 63 -41 99 t-119 36q-59 0 -99 -18.5t-64.5 -48t-35 -66.5t-10.5 -72q0 -53 37 -91t141 -79q106 -41 142.5 -95t36.5 -128q0 -76 -18.5 -140.5t-58.5 -110.5t-101.5 -72.5t-147.5 -26.5q-117 0 -178.5 50t-61.5 144z" />
<glyph unicode="&#x456;" horiz-adv-x="317" d="M31 0l192 1001h90l-194 -1001h-88zM270 1245l19 98h92l-19 -98h-92z" />
<glyph unicode="&#x457;" horiz-adv-x="317" d="M31 0l192 1001h90l-194 -1001h-88zM115 1198l18 98h86l-20 -98h-84zM414 1198l18 98h84l-18 -98h-84z" />
<glyph unicode="&#x458;" horiz-adv-x="305" d="M-193 -406l15 80h16q43 0 69.5 12.5t44 34t28 53t18.5 72.5l225 1155h88q-4 -23 -16 -84t-28.5 -148t-37 -190.5t-41 -210t-41 -207t-37 -181t-27.5 -135t-13 -64.5q-25 -98 -78 -143.5t-152 -45.5h-15t-18 2zM270 1245l19 98h92l-19 -98h-92z" />
<glyph unicode="&#x459;" horiz-adv-x="1150" d="M-72 33q49 29 87 63.5t67 85.5t51.5 122t40.5 173l100 524h459l-86 -426h184q74 0 125.5 -21.5t82 -56t45 -79.5t14.5 -92q0 -66 -22.5 -127.5t-66.5 -108.5t-108.5 -75.5t-148.5 -28.5q-66 0 -118 20.5t-86 62.5t-46.5 103t4.5 143l119 609h-283l-90 -461 q-18 -100 -43 -179t-58.5 -140.5t-80.5 -105.5t-111 -75zM594 305q-20 -109 22.5 -173t141.5 -64q61 0 108 20.5t79 56t48.5 80.5t16.5 94q0 76 -51.5 126.5t-149.5 50.5h-178z" />
<glyph unicode="&#x45a;" horiz-adv-x="1148" d="M10 0l193 1001h88l-82 -426h348l84 426h92l-86 -426h184q74 0 124.5 -21.5t82 -56t45 -79.5t13.5 -92q0 -68 -23.5 -130.5t-69 -108.5t-109 -73.5t-142.5 -27.5q-66 0 -118 20.5t-86 62.5t-46.5 103t4.5 143l35 181h-348l-95 -496h-88zM594 305q-20 -109 22.5 -173 t141.5 -64q61 0 108 20.5t78 56t47.5 80.5t16.5 94q4 76 -49.5 126.5t-151.5 50.5h-176z" />
<glyph unicode="&#x45b;" horiz-adv-x="733" d="M4 0l227 1176h-94l10 67h99l47 244h88l-49 -244h368l-12 -67h-369q-16 -82 -31.5 -162t-29.5 -158h4q51 70 116.5 104.5t133.5 34.5q57 0 95 -15t60.5 -43t32 -63.5t9.5 -74.5q0 -23 -3.5 -47.5t-7.5 -49.5l-135 -702h-90l137 698q4 16 6 35t2 35q0 57 -28.5 98 t-112.5 41q-43 0 -86 -22.5t-77.5 -57t-60.5 -78.5t-34 -87l-127 -662h-88z" />
<glyph unicode="&#x45c;" horiz-adv-x="694" d="M-2 0l195 1001h86l-89 -456h134q27 0 56.5 6t59 22.5t56 46t47.5 76.5l137 305h82l-129 -290q-35 -74 -76 -124t-102 -67q66 -16 87 -68.5t25 -125.5l21 -326h-80l-16 313q-4 49 -17.5 81t-36 49.5t-51.5 23.5t-63 6h-148l-92 -473h-86zM410 1159l196 309l86 -34 l-237 -295z" />
<glyph unicode="&#x45e;" horiz-adv-x="645" d="M-125 -338q51 6 93 22.5t79 52.5t71 93t70 145l-84 1026h91l43 -595q4 -68 9 -156t1 -160h4q43 84 92 192.5t100.5 229.5t98.5 247t88 242h94q-61 -168 -118.5 -310t-116 -272t-119 -258t-127.5 -265q-29 -61 -64 -116.5t-78 -97.5t-98 -68t-127 -28zM231 1370h76 q-4 -66 34 -111t103 -45q72 0 126.5 42t78.5 114h74q-10 -43 -33.5 -84t-58.5 -72.5t-84 -52t-111 -20.5q-61 0 -102 21.5t-65.5 55t-33 74.5t-4.5 78z" />
<glyph unicode="&#x45f;" horiz-adv-x="727" d="M49 180q0 27 3 51.5t7 51.5l140 718h90l-139 -710q-4 -20 -6.5 -41t-2.5 -39q0 -59 30 -99t110 -40q55 0 100 25.5t78 65.5t54.5 89t31.5 98l125 651h88l-195 -1001h-88q6 31 13.5 61.5t11.5 61.5h-4q-51 -68 -117 -102.5t-133 -34.5q-57 0 -95 15t-60.5 42t-32 62.5 t-9.5 74.5zM272 -324l60 265l84 24q-6 -27 -15.5 -66.5t-19.5 -82.5t-18.5 -81t-14.5 -59h-76z" />
<glyph unicode="&#x490;" horiz-adv-x="716" d="M27 0l276 1425h488l55 246h82l-72 -328h-483l-262 -1343h-84z" />
<glyph unicode="&#x491;" horiz-adv-x="628" d="M12 0l193 1001h422l49 238h82l-66 -315h-413l-179 -924h-88z" />
<glyph unicode="&#x4d9;" horiz-adv-x="718" d="M57 190q0 94 32 165t86 117t126 68.5t150 22.5q23 0 61.5 -3t85.5 -13q10 51 19.5 105.5t9.5 97.5q0 35 -6.5 68.5t-23.5 59t-48 42t-78 16.5q-86 0 -142.5 -48t-74.5 -132l-88 16q29 117 106.5 180.5t206.5 63.5q68 0 112 -19.5t71.5 -54.5t39 -82t11.5 -98 q0 -55 -9.5 -118.5t-19.5 -125.5q-18 -100 -43 -196.5t-67 -171t-106.5 -119.5t-164.5 -45q-127 0 -186.5 56t-59.5 148zM145 205q0 -61 42 -100t124 -39q104 0 168 94t107 307q-31 8 -74 12t-72 4q-55 0 -107 -15t-94 -49t-68 -87t-26 -127z" />
<glyph unicode="&#x1e80;" horiz-adv-x="1191" d="M184 0l37 1425h86l-26 -802l-21 -463h6l172 454l310 811h83l-10 -817l-8 -448h6l158 448l293 817h90l-516 -1425h-105l4 834l7 376h-7l-141 -381l-315 -829h-103zM535 1731l49 77l258 -211l-25 -43z" />
<glyph unicode="&#x1e81;" horiz-adv-x="1075" d="M98 1001h90l21 -610q2 -66 3 -126t-3 -138h6q45 92 91 199.5t91 221.5t88 229.5t84 223.5h105l18 -577q2 -68 3 -144.5t-5 -152.5h6q94 197 188.5 424t170.5 450h92q-90 -262 -194.5 -506.5t-235.5 -494.5h-96l-21 629q0 51 -1 109.5t1 121.5h-4q-72 -209 -167 -432 t-193 -428h-97zM436 1438l86 51l162 -336l-43 -27z" />
<glyph unicode="&#x1e82;" horiz-adv-x="1191" d="M184 0l37 1425h86l-26 -802l-21 -463h6l172 454l310 811h83l-10 -817l-8 -448h6l158 448l293 817h90l-516 -1425h-105l4 834l7 376h-7l-141 -381l-315 -829h-103zM754 1532l303 215l53 -74l-330 -182z" />
<glyph unicode="&#x1e83;" horiz-adv-x="1075" d="M98 1001h90l21 -610q2 -66 3 -126t-3 -138h6q45 92 91 199.5t91 221.5t88 229.5t84 223.5h105l18 -577q2 -68 3 -144.5t-5 -152.5h6q94 197 188.5 424t170.5 450h92q-90 -262 -194.5 -506.5t-235.5 -494.5h-96l-21 629q0 51 -1 109.5t1 121.5h-4q-72 -209 -167 -432 t-193 -428h-97zM604 1159l197 309l86 -34l-238 -295z" />
<glyph unicode="&#x1e84;" horiz-adv-x="1191" d="M184 0l37 1425h86l-26 -802l-21 -463h6l172 454l310 811h83l-10 -817l-8 -448h6l158 448l293 817h90l-516 -1425h-105l4 834l7 376h-7l-141 -381l-315 -829h-103zM616 1522l19 96h86l-19 -96h-86zM915 1522l19 96h84l-17 -96h-86z" />
<glyph unicode="&#x1e85;" horiz-adv-x="1075" d="M98 1001h90l21 -610q2 -66 3 -126t-3 -138h6q45 92 91 199.5t91 221.5t88 229.5t84 223.5h105l18 -577q2 -68 3 -144.5t-5 -152.5h6q94 197 188.5 424t170.5 450h92q-90 -262 -194.5 -506.5t-235.5 -494.5h-96l-21 629q0 51 -1 109.5t1 121.5h-4q-72 -209 -167 -432 t-193 -428h-97zM477 1204l19 99h86l-21 -99h-84zM776 1204l19 99h84l-19 -99h-84z" />
<glyph unicode="&#x1ef2;" horiz-adv-x="716" d="M215 1425h86q4 -33 13.5 -96t20.5 -138t23.5 -155t22.5 -147.5t16 -115.5t9 -60h6l379 712h96l-455 -823l-115 -602h-88l117 602zM256 1669l49 78l258 -211l-24 -43z" />
<glyph unicode="&#x1ef3;" horiz-adv-x="645" d="M-125 -338q51 6 93 22.5t79 52.5t71 93t70 145l-84 1026h91l43 -595q4 -68 9 -156t1 -160h4q43 84 92 192.5t100.5 229.5t98.5 247t88 242h94q-61 -168 -118.5 -310t-116 -272t-119 -258t-127.5 -265q-29 -61 -64 -116.5t-78 -97.5t-98 -68t-127 -28zM240 1438l86 51 l161 -336l-43 -27z" />
<glyph unicode="&#x2000;" horiz-adv-x="935" />
<glyph unicode="&#x2001;" horiz-adv-x="1870" />
<glyph unicode="&#x2002;" horiz-adv-x="935" />
<glyph unicode="&#x2003;" horiz-adv-x="1870" />
<glyph unicode="&#x2004;" horiz-adv-x="623" />
<glyph unicode="&#x2005;" horiz-adv-x="467" />
<glyph unicode="&#x2006;" horiz-adv-x="311" />
<glyph unicode="&#x2007;" horiz-adv-x="311" />
<glyph unicode="&#x2008;" horiz-adv-x="233" />
<glyph unicode="&#x2009;" horiz-adv-x="374" />
<glyph unicode="&#x200a;" horiz-adv-x="103" />
<glyph unicode="&#x2010;" horiz-adv-x="657" d="M123 545l16 84h482l-19 -84h-479z" />
<glyph unicode="&#x2011;" horiz-adv-x="657" d="M123 545l16 84h482l-19 -84h-479z" />
<glyph unicode="&#x2012;" horiz-adv-x="657" d="M123 545l16 84h482l-19 -84h-479z" />
<glyph unicode="&#x2013;" horiz-adv-x="1024" d="M53 494l17 86h942l-17 -86h-942z" />
<glyph unicode="&#x2014;" horiz-adv-x="2048" d="M53 494l17 86h1968l-17 -86h-1968z" />
<glyph unicode="&#x2015;" horiz-adv-x="2048" d="M53 494l17 86h1968l-17 -86h-1968z" />
<glyph unicode="&#x2018;" horiz-adv-x="331" d="M242 1130q4 29 10 58t12 57l103 191h55l-76 -189h27q-6 -29 -12.5 -58.5t-10.5 -58.5h-108z" />
<glyph unicode="&#x2019;" horiz-adv-x="331" d="M242 1133l75 188h-26q4 29 11 57.5t11 57.5h109q-4 -29 -11.5 -57.5t-11.5 -57.5l-104 -188h-53z" />
<glyph unicode="&#x201a;" horiz-adv-x="276" d="M-45 -193l74 189h-27q6 27 11 55.5t12 57.5h108q-6 -29 -11 -56.5t-11 -54.5l-103 -191h-53z" />
<glyph unicode="&#x201c;" horiz-adv-x="473" d="M215 1130l21 115l104 191h55q-20 -47 -38.5 -94.5t-39.5 -94.5h27q-4 -29 -10 -58.5t-12 -58.5h-107zM399 1130q6 29 12.5 58t10.5 57l104 191h56q-20 -47 -39 -94.5t-39 -94.5h26q-4 -29 -10 -58.5t-12 -58.5h-109z" />
<glyph unicode="&#x201d;" horiz-adv-x="473" d="M215 1133l76 188h-27q6 29 12.5 57.5t10.5 57.5h108q-4 -29 -11 -57.5t-11 -57.5l-105 -188h-53zM401 1133l76 188h-26q4 29 11 57.5t11 57.5h109q-4 -29 -11.5 -57.5t-11.5 -57.5l-104 -188h-54z" />
<glyph unicode="&#x201e;" horiz-adv-x="464" d="M-45 -201l76 189h-27q6 29 12.5 57.5t10.5 56.5h108q-6 -39 -10 -60.5t-12 -53.5l-105 -189h-53zM141 -201l76 189h-27q6 29 12.5 57.5t10.5 56.5h109q-4 -29 -11.5 -57.5t-11.5 -56.5l-104 -189h-54z" />
<glyph unicode="&#x2020;" horiz-adv-x="681" d="M92 850l17 84h282l94 477h88l-94 -477h285l-16 -84h-285l-238 -1229h-88l240 1229h-285z" />
<glyph unicode="&#x2021;" horiz-adv-x="681" d="M-16 293l16 82h283l94 475h-285l17 84h282l94 477h88l-94 -477h285l-16 -84h-285l-92 -475h284l-16 -82h-285l-129 -672h-88l129 672h-282z" />
<glyph unicode="&#x2022;" horiz-adv-x="724" d="M180 541q0 39 14.5 73.5t40 60t60.5 41t74 15.5t72.5 -15.5t59 -41t40 -60t14.5 -73.5t-14.5 -74t-40 -60.5t-59 -40t-72.5 -14.5t-74 14.5t-60.5 40t-40 60.5t-14.5 74z" />
<glyph unicode="&#x2023;" horiz-adv-x="817" d="M166 246v620l586 -299z" />
<glyph unicode="&#x2026;" horiz-adv-x="1114" d="M2 0l23 113h106l-20 -113h-109zM408 0l20 113h109l-23 -113h-106zM823 0l21 113h108l-20 -113h-109z" />
<glyph unicode="&#x202f;" horiz-adv-x="374" />
<glyph unicode="&#x2030;" horiz-adv-x="1566" d="M82 -35l934 1497h69l-933 -1497h-70zM94 723q0 4 7.5 42t17.5 93t22.5 119.5t23.5 124t20.5 105.5t13.5 63q16 78 62 120t130 42q41 0 75 -12.5t56.5 -35t31.5 -55.5t1 -72l-100 -530q-16 -78 -60.5 -120t-134.5 -42q-74 0 -125 41t-41 117zM170 735q-8 -41 15.5 -72.5 t80.5 -31.5q55 0 81 30.5t32 67.5l98 533q8 39 -16.5 70.5t-77.5 31.5t-76.5 -27.5t-32.5 -68.5zM625 150q0 4 7 41.5t17 93t22.5 120t24 124t20.5 105.5t13 62q16 78 62.5 120t130.5 42q41 0 74.5 -12t56 -35t32 -55.5t0.5 -71.5l-100 -530q-16 -78 -60 -120t-134 -42 q-74 0 -125.5 41t-40.5 117zM700 162q-8 -41 15.5 -73t81.5 -32q55 0 80.5 31t31.5 68l99 532q8 39 -16.5 71t-78.5 32q-53 0 -76.5 -28t-31.5 -69zM1079 150q0 4 7.5 41.5t17.5 93t22.5 120t23.5 124t20.5 105.5t13.5 62q16 78 62 120t130 42q41 0 75 -12t56.5 -35 t31.5 -55.5t1 -71.5l-100 -530q-16 -78 -60.5 -120t-134.5 -42q-74 0 -125 41t-41 117zM1155 162q-8 -41 15.5 -73t80.5 -32q55 0 81 31t32 68l98 532q8 39 -16.5 71t-77.5 32t-76.5 -28t-31.5 -69z" />
<glyph unicode="&#x2039;" horiz-adv-x="485" d="M76 475l293 381h90l-293 -385l143 -377h-88z" />
<glyph unicode="&#x203a;" horiz-adv-x="458" d="M10 94l295 383l-145 379h88l147 -381l-295 -381h-90z" />
<glyph unicode="&#x2044;" horiz-adv-x="301" d="M-344 -35l934 1497h69l-933 -1497h-70z" />
<glyph unicode="&#x205f;" horiz-adv-x="467" />
<glyph unicode="&#x2070;" horiz-adv-x="471" d="M123 907q0 4 7 42t17.5 93.5t22.5 120t23.5 124t20.5 105.5t13 62q16 78 62.5 120t130.5 42q41 0 74.5 -12.5t56 -35t32 -55t1.5 -71.5l-101 -531q-16 -78 -60 -119.5t-134 -41.5q-74 0 -125 40.5t-41 116.5zM199 920q-8 -41 15.5 -73t80.5 -32q55 0 80.5 31t32.5 67 l98 533q8 39 -16.5 70.5t-77.5 31.5t-77 -27.5t-32 -68.5z" />
<glyph unicode="&#x2074;" horiz-adv-x="471" d="M88 899l12 64l318 645h80l-318 -637h193l45 231h74l-46 -231h76l-14 -72h-76l-26 -141h-74l26 141h-270z" />
<glyph unicode="&#x2075;" horiz-adv-x="471" d="M127 874q0 12 2 30t8 46l74 4q-8 -31 -8 -43v-22q2 -31 21.5 -51.5t66.5 -20.5q55 0 87 28.5t42 76.5q23 121 31 174t10 65q8 37 -14.5 58.5t-69.5 21.5q-29 0 -61.5 -12t-49.5 -39h-67q23 104 42 208.5t40 211.5h342l-13 -68h-272q-14 -66 -26.5 -132.5t-24.5 -131.5h2 q29 16 55.5 22.5t61.5 6.5q78 0 108.5 -39t22.5 -105q-10 -76 -43 -250q-16 -76 -65.5 -119.5t-137.5 -43.5q-66 0 -115 29.5t-49 94.5z" />
<glyph unicode="&#x2076;" horiz-adv-x="471" d="M123 885v9t2 21q2 18 4 32t5 28t6 33.5t10 48.5q10 43 21 71.5t26 51.5l264 426h78q-72 -121 -128.5 -212t-99.5 -165q35 14 70 14q78 0 107.5 -45t19.5 -111q-4 -37 -10 -84t-17 -104q-12 -66 -59 -108.5t-137 -42.5q-72 0 -117 35.5t-45 101.5zM197 883 q4 -31 24.5 -51.5t63.5 -20.5q66 0 89 31.5t32 66.5q14 63 19 110.5t7 88.5q-2 31 -20.5 49.5t-59.5 18.5q-55 0 -85.5 -35t-39.5 -76l-26 -137q-4 -16 -4 -25.5v-19.5z" />
<glyph unicode="&#x2077;" horiz-adv-x="411" d="M102 758l398 784h-224l-20 -102h-68l33 170h373l-12 -56l-406 -796h-74z" />
<glyph unicode="&#x2078;" horiz-adv-x="471" d="M123 905q0 2 3 20.5t8 45t10.5 55.5t9.5 49q16 94 88 123q-53 37 -39 115q0 2 3 19.5t7 41l8 47t8 39.5q16 80 72.5 118t132.5 38q70 0 117 -38t37 -112q0 -2 -3 -18t-6.5 -39t-8.5 -46.5t-7 -37.5q-10 -45 -33.5 -75.5t-58.5 -51.5q25 -18 36 -44t7 -67q0 -2 -4 -22.5 t-9 -48t-10.5 -58t-9.5 -51.5q-16 -88 -68.5 -122.5t-136.5 -34.5q-72 0 -117.5 42t-35.5 113zM199 907q-6 -37 16.5 -64.5t75.5 -27.5q51 0 78.5 25.5t36.5 64.5l34 180q4 37 -18.5 59.5t-69.5 24.5q-47 0 -80.5 -23.5t-40.5 -64.5q-4 -23 -10 -52.5t-11 -56t-8 -46.5z M279 1315q-8 -35 15 -58.5t71 -23.5q47 0 78.5 23.5t41.5 62.5l27 141q4 39 -18.5 63.5t-71.5 24.5q-47 0 -78 -22.5t-37 -63.5q-4 -16 -9 -41.5t-9 -48t-7 -40.5z" />
<glyph unicode="&#x2079;" horiz-adv-x="471" d="M164 758q72 121 128 212t99 165q-16 -6 -34.5 -10.5t-34.5 -4.5q-78 0 -108 45t-19 111q4 37 10 84t16 104q12 66 59.5 109t137.5 43q72 0 117 -36t45 -101v-16.5t-5 -28.5q-2 -18 -4 -30.5l-4 -25t-5 -29t-9 -42.5q-10 -43 -21.5 -72t-25.5 -51l-264 -426h-78zM270 1255 q2 -31 20.5 -49t59.5 -18q59 0 88 34.5t37 75.5t14.5 72t10.5 66q6 41 -10.5 78.5t-79.5 37.5q-59 0 -82 -31.5t-31 -66.5q-14 -63 -19.5 -110.5t-7.5 -88.5z" />
<glyph unicode="&#x207a;" horiz-adv-x="471" d="M141 1085l13 64h188l37 188h65l-36 -188h186l-12 -64h-187l-35 -188h-67l37 188h-189z" />
<glyph unicode="&#x207b;" horiz-adv-x="428" d="M145 1075l15 70h327l-12 -70h-330z" />
<glyph unicode="&#x207c;" horiz-adv-x="471" d="M119 995l12 64h440l-14 -64h-438zM152 1167l12 66h440l-12 -66h-440z" />
<glyph unicode="&#x207d;" horiz-adv-x="307" d="M162 967q0 88 20.5 178t57 176t88 166t112.5 147l35 -20q-117 -150 -181.5 -320t-64.5 -338q0 -86 14.5 -166.5t41.5 -148.5l-43 -25q-35 70 -57.5 158t-22.5 193z" />
<glyph unicode="&#x207e;" horiz-adv-x="307" d="M57 641q53 70 98.5 148.5t78 162.5t51 172t18.5 174t-14.5 165t-40.5 151l43 20q41 -72 62.5 -157.5t21.5 -182.5q0 -96 -22.5 -189t-60.5 -181t-90 -166t-112 -142z" />
<glyph unicode="&#x207f;" horiz-adv-x="505" d="M88 573l129 662h78l-14 -64q68 72 157 72q84 0 117 -39t33 -92q0 -23 -10 -70q-4 -18 -13.5 -69t-23 -118t-28.5 -141.5t-28 -140.5h-79q27 131 50 244t42 213q6 37 6 55q0 35 -19.5 59.5t-72.5 24.5q-47 0 -81 -26.5t-57 -63.5q-10 -18 -16 -37.5t-10 -37.5 q-23 -109 -43.5 -215.5t-40.5 -215.5h-76z" />
<glyph unicode="&#x2080;" horiz-adv-x="471" d="M20 -35q0 4 7.5 42t17.5 93.5t22.5 120t23.5 123.5t20.5 105.5t13.5 62.5q16 78 62 120t130 42q41 0 75 -12.5t56.5 -35t31.5 -55t1 -71.5l-100 -531q-16 -78 -60.5 -120t-134.5 -42q-74 0 -125 41t-41 117zM96 -23q-8 -41 15.5 -72.5t81.5 -31.5q55 0 80.5 30.5 t31.5 67.5l98 533q8 39 -16.5 70.5t-77.5 31.5t-76.5 -27.5t-31.5 -68.5z" />
<glyph unicode="&#x2081;" horiz-adv-x="401" d="M123 489l18 84l164 93h70l-168 -850h-72l150 766z" />
<glyph unicode="&#x2082;" horiz-adv-x="471" d="M-16 -184l12 63l342 457q33 41 52.5 88t21.5 88q0 39 -22 65.5t-75 26.5q-43 0 -75.5 -30.5t-49.5 -102.5l-77 14q20 90 74.5 139.5t140.5 49.5q82 0 124 -41t37 -113q-2 -59 -28.5 -116.5t-63.5 -104.5q-8 -10 -31.5 -42t-55 -75t-67.5 -90t-68 -90t-55.5 -73.5 t-31.5 -41.5h272l-12 -71h-364z" />
<glyph unicode="&#x2083;" horiz-adv-x="471" d="M14 -8l84 10q-16 -53 3.5 -89t76.5 -36q59 0 83 30t34 79l27 129q10 51 -4.5 81.5t-67.5 30.5h-53l12 68h51q41 0 75 22.5t42 79.5l18 95q6 41 -10 76.5t-76 35.5q-53 0 -86 -38t-37 -91l-80 10q14 86 67.5 137.5t145.5 51.5q49 0 82 -15.5t50.5 -41t22.5 -58.5t-1 -65 l-12 -70q-10 -45 -26.5 -90t-74.5 -72q41 -23 45.5 -62.5t-6.5 -86.5l-30 -154q-14 -66 -60.5 -109t-130.5 -43q-86 0 -133 49.5t-31 135.5z" />
<glyph unicode="&#x2084;" horiz-adv-x="471" d="M-14 -43l12 63l317 646h80l-317 -637h192l45 231h74l-45 -231h76l-14 -72h-76l-27 -141h-74l27 141h-270z" />
<glyph unicode="&#x2085;" horiz-adv-x="471" d="M25 -68q0 12 2 30t8 46l74 4q-8 -31 -8.5 -43t-0.5 -22q2 -31 21.5 -51.5t66.5 -20.5q55 0 87 28.5t42 76.5q23 121 31 174t10 65q8 37 -14 58.5t-70 21.5q-29 0 -61.5 -12.5t-48.5 -38.5h-68q23 104 42.5 208.5t39.5 211.5h342l-12 -68h-272q-14 -66 -26.5 -132.5 t-25.5 -131.5h2q29 16 55.5 22.5t61.5 6.5q78 0 108.5 -39t22.5 -105q-10 -76 -43 -250q-16 -76 -65.5 -120t-137.5 -44q-66 0 -114.5 30t-48.5 95z" />
<glyph unicode="&#x2086;" horiz-adv-x="471" d="M20 -48q0 1 3 21q2 18 4 31.5t5 28t6 34t9 48.5q10 43 21.5 71.5t25.5 51.5l264 426h78q-72 -121 -128 -212.5t-99 -164.5q35 14 70 14q78 0 107.5 -45t19.5 -111q-4 -37 -10.5 -84t-16.5 -104q-12 -66 -59.5 -109t-137.5 -43q-72 0 -117 36t-45 102v9zM94 -39.5v-19.5 q4 -31 24.5 -51.5t63.5 -20.5q66 0 89.5 31.5t31.5 66.5q14 63 19.5 110.5t7.5 88.5q-2 31 -21.5 49t-60.5 18q-29 0 -51.5 -12t-38 -30.5t-24.5 -41t-13 -43.5l-23 -120q-4 -16 -4 -25.5z" />
<glyph unicode="&#x2087;" horiz-adv-x="411" d="M0 -184l397 784h-223l-20 -102h-68l33 170h373l-13 -56l-405 -796h-74z" />
<glyph unicode="&#x2088;" horiz-adv-x="471" d="M20 -37q0 2 3.5 20.5t8.5 45t10 55.5t9 49q16 94 88 123q-53 37 -39 115q0 2 3 19.5t7.5 41t8.5 47t8 39.5q16 80 72.5 118t132.5 38q70 0 117 -38t36 -112q0 -2 -3 -18.5t-6 -39t-8 -46t-7 -37.5q-10 -45 -34 -76t-58 -51q25 -18 36 -44t7 -67q0 -2 -4.5 -22.5t-9.5 -48 t-10 -58t-9 -51.5q-16 -88 -68.5 -123t-136.5 -35q-72 0 -118 42t-36 114zM96 -35q-6 -37 16.5 -64.5t75.5 -27.5q51 0 79 25.5t36 64.5l35 180q4 37 -18.5 59.5t-69.5 24.5q-47 0 -81 -23.5t-40 -64.5q-4 -23 -10 -52.5t-11.5 -56t-8.5 -46.5zM176 373q-8 -35 15.5 -58.5 t70.5 -23.5t79 23.5t42 62.5l27 141q4 39 -18.5 63.5t-72.5 24.5q-47 0 -77.5 -22.5t-36.5 -63.5q-4 -16 -9.5 -41.5t-9.5 -48t-7 -40.5z" />
<glyph unicode="&#x2089;" horiz-adv-x="471" d="M61 -184q72 121 128.5 212t99.5 165q-16 -6 -34.5 -10.5t-35.5 -4.5q-78 0 -107.5 45t-19.5 111q4 37 10.5 84t16.5 104q12 66 59 109t137 43q72 0 117 -36t45 -101v-16.5t-4 -28.5q-2 -18 -4 -30.5l-4 -25t-5 -29t-9 -42.5q-10 -43 -21.5 -72t-26.5 -51l-264 -426h-78z M168 313q2 -31 20.5 -49t59.5 -18q59 0 88 34.5t37 75.5t14 72t10 66q6 41 -10 78.5t-80 37.5q-59 0 -81.5 -31.5t-30.5 -66.5q-14 -63 -19.5 -110.5t-7.5 -88.5z" />
<glyph unicode="&#x208a;" horiz-adv-x="471" d="M-6 268l12 64h189l34 186h68l-37 -186h186l-14 -64h-184l-37 -190h-66l35 190h-186z" />
<glyph unicode="&#x208b;" horiz-adv-x="428" d="M43 256l12 72h330l-14 -72h-328z" />
<glyph unicode="&#x208c;" horiz-adv-x="471" d="M-18 176l12 66h440l-14 -66h-438zM14 350l13 64h440l-12 -64h-441z" />
<glyph unicode="&#x208d;" horiz-adv-x="307" d="M162 27q0 88 20.5 178t57 176t88 166t112.5 147l35 -20q-117 -150 -181.5 -320t-64.5 -338q0 -86 14.5 -166.5t41.5 -148.5l-43 -25q-35 70 -57.5 158t-22.5 193z" />
<glyph unicode="&#x208e;" horiz-adv-x="307" d="M57 -299q53 70 98.5 148.5t78 162.5t51 172t18.5 174t-14.5 165t-40.5 151l43 20q41 -72 62.5 -157.5t21.5 -182.5q0 -96 -22.5 -189t-60.5 -181t-90 -166t-112 -142z" />
<glyph unicode="&#x20ab;" horiz-adv-x="722" d="M55 0l15 74h448q-4 -18 -7 -38t-7 -36h-449zM135 416q6 74 19 137q23 111 41 203t47 149q29 53 77 90t130 37q63 0 99 -27.5t52 -54.5l43 221h-199l15 70h198q6 37 14.5 75t16.5 77h78l-31 -152h88l-14 -70h-88q-45 -238 -90 -471t-92 -469h-78l12 62q-35 -33 -77 -52.5 t-97 -19.5q-29 0 -59.5 10.5t-55 33t-39 59t-10.5 92.5zM217 408q0 -59 28 -84t81 -25q59 0 102 33t64 86q6 14 9 28.5t7 30.5q16 72 30.5 145.5t26.5 149.5q8 33 5 65.5t-16 58.5t-39 41t-62 15q-51 0 -87 -24.5t-59 -69.5q-16 -33 -31.5 -105.5t-29.5 -146.5 q-12 -59 -20.5 -112.5t-8.5 -85.5z" />
<glyph unicode="&#x20ac;" horiz-adv-x="722" d="M61 594l13 61h73q8 37 15.5 74t13.5 74h-74l13 61h73l29 152q8 35 14.5 70.5t16.5 70.5q33 141 117 211t210 70q119 0 194 -59.5t75 -178.5v-12l-90 -21v11q0 92 -47.5 135t-133.5 43q-98 0 -162.5 -63.5t-84.5 -172.5l-50 -256h353q-2 -16 -5 -30.5t-6 -30.5h-354 l-28 -148h354q-4 -16 -7 -30.5t-5 -30.5h-355l-55 -291q-2 -16 -3 -28.5t-1 -26.5q0 -88 44 -136.5t126 -48.5q90 0 155.5 48.5t94.5 150.5l84 -18q-37 -137 -128 -197.5t-208 -60.5q-111 0 -181.5 55t-74.5 174q0 23 2 46.5t6 51.5l51 281h-74z" />
<glyph unicode="&#x2105;" horiz-adv-x="1130" d="M68 -35l933 1497h70l-934 -1497h-69zM141 836q0 33 8.5 94t20.5 133q16 88 34.5 162.5t45.5 111.5q29 45 73.5 72t116.5 27q98 0 142.5 -55.5t23.5 -145.5q-20 -4 -40.5 -7t-43.5 -7q10 53 -11.5 96t-80.5 43q-33 0 -64.5 -14.5t-54.5 -53.5q-14 -23 -30.5 -92.5 t-34.5 -167.5q-8 -41 -15.5 -87t-7.5 -75q0 -53 26.5 -72.5t72.5 -19.5q115 0 141 137q20 -4 39.5 -8t42.5 -8q-20 -94 -77.5 -145.5t-154.5 -51.5q-88 0 -130 41t-42 93zM549 137q0 41 8 100.5t18 112.5q18 96 38 166t48.5 116t72.5 67.5t112 21.5q47 0 79.5 -14.5t54 -36 t31 -50t9.5 -55.5q0 -45 -7 -108.5t-20 -132.5q-16 -92 -36.5 -156t-50 -103.5t-72.5 -57t-107 -17.5q-47 0 -81 13t-55.5 33.5t-31.5 47.5t-10 53zM631 156q0 -37 23.5 -65t78.5 -28q59 0 86 26t47 67q12 25 25.5 74t25 106t18.5 113.5t7 95.5q0 47 -25.5 73.5t-76.5 26.5 q-35 0 -68 -12t-55 -53q-16 -27 -31.5 -90.5t-32.5 -155.5q-23 -119 -22 -178z" />
<glyph unicode="&#x2116;" horiz-adv-x="1378" d="M23 0l276 1425h84l168 -737q25 -113 50.5 -225.5t51.5 -224.5h6q59 299 117 593.5t115 593.5h86l-277 -1425h-82l-272 1198h-4q-59 -301 -116.5 -599t-114.5 -599h-88zM930 592l14 72h399l-14 -72h-399zM977 887q0 39 7 100.5t20.5 125t30 121.5t34.5 91q29 47 70.5 76 t113.5 29q49 0 84 -13.5t56.5 -35t31 -49t9.5 -54.5q0 -41 -8.5 -99.5t-20.5 -119.5q-16 -84 -35.5 -143.5t-47.5 -97.5t-68 -55.5t-95 -17.5q-96 0 -139 44.5t-43 97.5zM1057 907q0 -37 22.5 -63.5t77.5 -26.5q51 0 79 21.5t48 62.5q12 25 25.5 73t22.5 102t15.5 106.5 t6.5 87.5q0 45 -29 65.5t-74 20.5q-37 0 -68.5 -16.5t-47.5 -51.5q-12 -25 -26.5 -78t-26 -112.5t-18.5 -112.5t-7 -78z" />
<glyph unicode="&#x2122;" horiz-adv-x="1241" d="M53 1354v71h418v-71h-172v-711h-74v711h-172zM541 641v782h69l232 -553l229 553h68v-782h-72v580h-6l-193 -453h-57l-195 463h-6v-590h-69z" />
<glyph unicode="&#x2153;" horiz-adv-x="1126" d="M68 -35l933 1497h70l-934 -1497h-69zM279 1247l18 84l164 92h69l-168 -850h-71l149 766zM635 176l84 10q-16 -53 3 -89t77 -36q59 0 82.5 30t33.5 79l27 129q10 51 -4 82t-68 31h-53l12 67h52q41 0 74.5 22.5t41.5 80.5l19 94q6 41 -10.5 76.5t-75.5 35.5 q-53 0 -86 -37.5t-37 -91.5l-80 11q14 86 67.5 137t145.5 51q49 0 82 -15.5t50.5 -41t22.5 -58t-1 -65.5l-13 -70q-10 -45 -26.5 -90t-73.5 -72q41 -23 45 -62.5t-6 -86.5l-31 -154q-14 -66 -60 -108.5t-130 -42.5q-86 0 -133.5 49t-30.5 135z" />
<glyph unicode="&#x2154;" horiz-adv-x="1126" d="M63 573l13 64l342 457q33 41 52 88t22 88q0 39 -22 65.5t-75 26.5q-43 0 -75.5 -31t-49.5 -102l-77 14q20 90 74.5 139.5t140.5 49.5q82 0 123.5 -41t37.5 -113q-2 -59 -28.5 -116.5t-63.5 -104.5q-8 -10 -31.5 -42t-55.5 -75t-67.5 -90t-67.5 -90t-55.5 -74t-31.5 -41 h272l-12 -72h-365zM94 -35l934 1497h70l-934 -1497h-70zM610 176l84 10q-16 -53 3.5 -89t76.5 -36q59 0 83 30t34 79l27 129q10 51 -4.5 82t-67.5 31h-53l12 67h51q41 0 75 22.5t42 80.5l18 94q6 41 -10 76.5t-76 35.5q-53 0 -86 -37.5t-37 -91.5l-80 11q14 86 67.5 137 t145.5 51q49 0 82 -15.5t50.5 -41t22.5 -58t-1 -65.5l-12 -70q-10 -45 -26.5 -90t-74.5 -72q41 -23 45.5 -62.5t-6.5 -86.5l-30 -154q-14 -66 -60.5 -108.5t-130.5 -42.5q-86 0 -133 49t-31 135z" />
<glyph unicode="&#x2155;" horiz-adv-x="1126" d="M39 -35l934 1497h69l-933 -1497h-70zM256 1247l18 84l164 92h70l-168 -850h-72l150 766zM621 117q0 12 2 29.5t8 46.5l74 4q-8 -31 -8.5 -43.5t-0.5 -22.5q2 -31 21.5 -51.5t66.5 -20.5q55 0 87 29t42 76q23 121 31 174t10 65q8 37 -14 58.5t-70 21.5q-29 0 -61.5 -12 t-48.5 -39h-68q23 104 42.5 208.5t39.5 211.5h342l-12 -68h-273q-14 -66 -26 -132t-25 -132h2q29 16 55.5 22.5t61.5 6.5q78 0 108.5 -39t22.5 -104q-10 -76 -43 -250q-16 -76 -65.5 -120t-137.5 -44q-66 0 -114.5 29.5t-48.5 95.5z" />
<glyph unicode="&#x2156;" horiz-adv-x="1126" d="M43 573l12 64l342 457q33 41 52.5 88t21.5 88q0 39 -21.5 65.5t-74.5 26.5q-43 0 -76 -31t-49 -102l-78 14q20 90 74.5 139.5t140.5 49.5q82 0 124 -41t38 -113q-2 -59 -28.5 -116.5t-63.5 -104.5q-8 -10 -32 -42t-55.5 -75t-67.5 -90t-67.5 -90t-55 -74t-32.5 -41h273 l-12 -72h-365zM59 -35l934 1497h70l-934 -1497h-70zM602 117q0 12 2 29.5t8 46.5l74 4q-8 -31 -8 -43.5v-22.5q2 -31 21.5 -51.5t66.5 -20.5q55 0 87 29t42 76q23 121 31 174t10 65q8 37 -14.5 58.5t-69.5 21.5q-29 0 -61.5 -12t-49.5 -39h-67q23 104 42 208.5t40 211.5h342 l-13 -68h-272q-14 -66 -26.5 -132t-24.5 -132h2q29 16 55.5 22.5t61.5 6.5q78 0 108.5 -39t22.5 -104q-10 -76 -43 -250q-16 -76 -65.5 -120t-137.5 -44q-66 0 -115 29.5t-49 95.5z" />
<glyph unicode="&#x2157;" horiz-adv-x="1126" d="M55 -35l934 1497h70l-934 -1497h-70zM88 750l84 10q-16 -53 3.5 -89t76.5 -36q59 0 82.5 29.5t34.5 78.5l26 129q10 51 -4 82t-67 31h-54l13 68h51q41 0 74.5 22.5t42.5 79.5l18 94q6 41 -10.5 77t-75.5 36q-53 0 -86 -38t-37 -91l-80 10q14 86 67.5 137.5t145.5 51.5 q49 0 82 -15.5t50.5 -41t22.5 -58.5t-1 -66l-12 -69q-10 -45 -26.5 -90t-74.5 -72q41 -23 45 -62.5t-6 -87.5l-31 -153q-14 -66 -60 -109t-130 -43q-86 0 -133 49.5t-31 135.5zM616 117q0 12 2.5 29.5t8.5 46.5l73 4q-8 -31 -8 -43.5v-22.5q2 -31 21.5 -51.5t66.5 -20.5 q55 0 87 29t42 76q23 121 31 174t10 65q8 37 -14.5 58.5t-69.5 21.5q-29 0 -61.5 -12t-48.5 -39h-68q23 104 42.5 208.5t39.5 211.5h342l-12 -68h-273q-14 -66 -26.5 -132t-24.5 -132h2q29 16 55.5 22.5t61.5 6.5q78 0 108.5 -39t22.5 -104q-10 -76 -43 -250 q-16 -76 -65.5 -120t-137.5 -44q-66 0 -115 29.5t-49 95.5z" />
<glyph unicode="&#x2158;" horiz-adv-x="1126" d="M70 -35l934 1497h69l-934 -1497h-69zM72 715l12 63l317 645h80l-317 -637h192l45 232h74l-45 -232h76l-14 -71h-76l-27 -142h-74l27 142h-270zM608 117q0 12 2 29.5t8 46.5l74 4q-8 -31 -8 -43.5v-22.5q2 -31 21.5 -51.5t66.5 -20.5q55 0 87 29t42 76q23 121 31 174 t10 65q8 37 -14.5 58.5t-69.5 21.5q-29 0 -61.5 -12t-48.5 -39h-68q23 104 42 208.5t40 211.5h342l-12 -68h-273q-14 -66 -26.5 -132t-24.5 -132h2q29 16 55.5 22.5t61.5 6.5q78 0 108.5 -39t22.5 -104q-10 -76 -43 -250q-16 -76 -65.5 -120t-137.5 -44q-66 0 -115 29.5 t-49 95.5z" />
<glyph unicode="&#x2159;" horiz-adv-x="1126" d="M86 -35l934 1497h70l-934 -1497h-70zM270 1247l19 84l164 92h69l-168 -850h-71l149 766zM616 127v9t2 22q2 18 4.5 31.5t5.5 27.5t6 33.5t9 48.5q10 43 21.5 71.5t25.5 51.5l264 426h78q-72 -121 -128 -212t-99 -165q35 14 69 14q78 0 108 -45t19 -110q-4 -37 -10 -84 t-16 -105q-12 -66 -59.5 -108.5t-137.5 -42.5q-72 0 -117 35.5t-45 101.5zM690 125q4 -31 24.5 -51.5t63.5 -20.5q66 0 89.5 32t31.5 67q14 63 19.5 110t7.5 88q-2 31 -21.5 49.5t-60.5 18.5q-29 0 -51.5 -12.5t-38 -31t-24.5 -41t-13 -42.5l-23 -121q-4 -16 -4 -25.5v-19.5 z" />
<glyph unicode="&#x215a;" horiz-adv-x="1126" d="M72 690q0 12 2 29.5t8 46.5l74 4q-8 -31 -8.5 -43t-0.5 -22q2 -31 21.5 -51.5t67.5 -20.5q55 0 86.5 28.5t42.5 75.5q23 121 30.5 174.5t10.5 65.5q8 37 -14.5 58.5t-69.5 21.5q-29 0 -62 -12.5t-49 -38.5h-68q23 104 42.5 208.5t39.5 210.5h342l-12 -67h-272 q-14 -66 -26.5 -132.5t-25.5 -131.5h2q29 16 55.5 22t61.5 6q78 0 108.5 -39t22.5 -104q-10 -76 -43 -250q-16 -76 -65 -120t-137 -44q-66 0 -115 30t-49 95zM88 -35l934 1497h70l-934 -1497h-70zM582 127v9t2 22q2 18 4 31.5t5 27.5t6 33.5t9 48.5q10 43 21.5 71.5 t25.5 51.5l265 426h77q-72 -121 -128 -212t-99 -165q35 14 70 14q78 0 107.5 -45t19.5 -110q-4 -37 -10.5 -84t-16.5 -105q-12 -66 -59 -108.5t-138 -42.5q-72 0 -116.5 35.5t-44.5 101.5zM655 125q4 -31 24.5 -51.5t63.5 -20.5q66 0 89.5 32t31.5 67q14 63 19.5 110t7.5 88 q-2 31 -21.5 49.5t-60.5 18.5q-29 0 -51.5 -12.5t-37.5 -31t-24.5 -41t-13.5 -42.5l-23 -121q-4 -16 -4 -25.5v-19.5z" />
<glyph unicode="&#x215b;" horiz-adv-x="1126" d="M70 -35l934 1497h69l-934 -1497h-69zM293 1247l18 84l164 92h70l-168 -850h-72l150 766zM633 147q0 2 3 20.5t8 45.5t10 55.5t10 48.5q16 94 88 123q-53 37 -39 115q0 2 3 19.5t7 41l8 47t8 39.5q16 80 72.5 118t132.5 38q70 0 117 -38t37 -111q0 -2 -3 -18.5t-6.5 -39 t-8.5 -46.5t-7 -38q-10 -45 -33.5 -75.5t-58.5 -51.5q25 -18 36 -43.5t7 -66.5q0 -2 -4 -22.5t-9 -48.5t-10.5 -58.5t-9.5 -50.5q-16 -88 -68.5 -123t-136.5 -35q-72 0 -117.5 42t-35.5 113zM709 150q-6 -37 16.5 -65t75.5 -28q51 0 78.5 26t35.5 64l35 181q4 37 -18.5 59.5 t-69.5 24.5q-47 0 -80.5 -23.5t-40.5 -64.5q-4 -23 -10 -52.5t-11 -56.5t-8 -46zM788 557q-8 -35 15.5 -58.5t70.5 -23.5t79 23.5t42 62.5l27 141q4 39 -18.5 64t-71.5 25q-47 0 -78 -23t-37 -63q-4 -16 -9 -42t-9 -48.5t-7 -40.5z" />
<glyph unicode="&#x215c;" horiz-adv-x="1126" d="M86 -35l934 1497h70l-934 -1497h-70zM125 750l84 10q-16 -53 3 -89t77 -36q59 0 82.5 29.5t34.5 78.5l26 129q10 51 -4 82t-68 31h-53l12 68h52q41 0 74.5 22.5t41.5 79.5l19 94q6 41 -10.5 77t-75.5 36q-53 0 -86 -38t-37 -91l-80 10q14 86 67.5 137.5t145.5 51.5 q49 0 82 -15.5t50.5 -41t22.5 -58.5t-1 -66l-13 -69q-10 -45 -26.5 -90t-73.5 -72q41 -23 45 -62.5t-6 -87.5l-31 -153q-14 -66 -60 -109t-130 -43q-86 0 -133 49.5t-31 135.5zM614 147q0 2 3.5 20.5t8.5 45.5t10 55.5t9 48.5q16 94 88 123q-53 37 -39 115q0 2 3 19.5 t7.5 41t8.5 47t8 39.5q16 80 72.5 118t132.5 38q70 0 117 -38t36 -111q0 -2 -3 -18.5t-6 -39t-8 -46.5t-7 -38q-10 -45 -34 -75.5t-58 -51.5q25 -18 36 -43.5t7 -66.5q0 -2 -4.5 -22.5t-9.5 -48.5t-10 -58.5t-9 -50.5q-16 -88 -68.5 -123t-136.5 -35q-72 0 -118 42t-36 113z M690 150q-6 -37 16.5 -65t75.5 -28q51 0 79 26t36 64l35 181q4 37 -18.5 59.5t-69.5 24.5q-47 0 -81 -23.5t-40 -64.5q-4 -23 -10 -52.5t-11.5 -56.5t-8.5 -46zM770 557q-8 -35 15.5 -58.5t70.5 -23.5t79 23.5t42 62.5l27 141q4 39 -18.5 64t-72.5 25q-47 0 -77.5 -23 t-36.5 -63q-4 -16 -9.5 -42t-9.5 -48.5t-7 -40.5z" />
<glyph unicode="&#x215d;" horiz-adv-x="1126" d="M98 -35l934 1497h70l-934 -1497h-70zM115 690q0 12 2 29.5t8 46.5l74 4q-8 -31 -8.5 -43t-0.5 -22q2 -31 21.5 -51.5t67.5 -20.5q55 0 86.5 28.5t42.5 75.5q23 121 30.5 174.5t10.5 65.5q8 37 -14.5 58.5t-69.5 21.5q-29 0 -62 -12.5t-49 -38.5h-68q23 104 42.5 208.5 t39.5 210.5h342l-12 -67h-272q-14 -66 -26.5 -132.5t-25.5 -131.5h2q29 16 55.5 22t61.5 6q78 0 108.5 -39t22.5 -104q-10 -76 -43 -250q-16 -76 -65 -120t-137 -44q-66 0 -115 30t-49 95zM618 147q0 2 3.5 20.5t8.5 45.5t10 55.5t9 48.5q16 94 88 123q-53 37 -39 115 q0 2 3.5 19.5t7.5 41l8 47t8 39.5q16 80 72.5 118t132.5 38q70 0 117 -38t36 -111q0 -2 -3 -18.5t-6 -39t-8 -46.5t-7 -38q-10 -45 -34 -75.5t-58 -51.5q25 -18 36 -43.5t7 -66.5q0 -2 -4.5 -22.5t-9.5 -48.5t-10 -58.5t-9 -50.5q-16 -88 -68.5 -123t-136.5 -35 q-72 0 -118 42t-36 113zM694 150q-6 -37 16.5 -65t75.5 -28q51 0 79 26t36 64l35 181q4 37 -18.5 59.5t-69.5 24.5q-47 0 -81 -23.5t-40 -64.5q-4 -23 -10 -52.5t-11.5 -56.5t-8.5 -46zM774 557q-8 -35 15.5 -58.5t70.5 -23.5t79 23.5t42 62.5l27 141q4 39 -18.5 64 t-71.5 25q-47 0 -78 -23t-37 -63q-4 -16 -9.5 -42t-9.5 -48.5t-7 -40.5z" />
<glyph unicode="&#x215e;" horiz-adv-x="1126" d="M92 -35l934 1497h70l-934 -1497h-70zM238 573l397 785h-223l-21 -103h-67l32 170h373l-12 -55l-406 -797h-73zM635 147q0 2 3 20.5t8 45.5t10.5 55.5t9.5 48.5q16 94 88 123q-53 37 -39 115q0 2 3 19.5t7 41l8 47t8 39.5q16 80 72.5 118t132.5 38q70 0 117 -38t37 -111 q0 -2 -3 -18.5t-6.5 -39t-8.5 -46.5t-7 -38q-10 -45 -33.5 -75.5t-58.5 -51.5q25 -18 36 -43.5t7 -66.5q0 -2 -4 -22.5t-9 -48.5t-10.5 -58.5t-9.5 -50.5q-16 -88 -68.5 -123t-136.5 -35q-72 0 -117.5 42t-35.5 113zM711 150q-6 -37 16.5 -65t75.5 -28q51 0 78.5 26t36.5 64 l34 181q4 37 -18.5 59.5t-69.5 24.5q-47 0 -80.5 -23.5t-40.5 -64.5q-4 -23 -10 -52.5t-11 -56.5t-8 -46zM791 557q-8 -35 15 -58.5t71 -23.5q47 0 78.5 23.5t41.5 62.5l27 141q4 39 -18.5 64t-71.5 25q-47 0 -78 -23t-37 -63q-4 -16 -9 -42t-9 -48.5t-7 -40.5z" />
<glyph unicode="&#x2190;" horiz-adv-x="1660" d="M123 657l434 433l61 -60l-339 -334h1269v-82h-1269l339 -331l-61 -60z" />
<glyph unicode="&#x2191;" horiz-adv-x="993" d="M61 993l435 434l434 -434l-60 -61l-335 338v-1266h-80v1266l-332 -338z" />
<glyph unicode="&#x2192;" horiz-adv-x="1660" d="M125 614v82h1268l-340 334l63 60l434 -433l-434 -434l-63 60l340 331h-1268z" />
<glyph unicode="&#x2193;" horiz-adv-x="993" d="M61 440l62 62l332 -340v1268h80v-1268l335 340l60 -62l-434 -434z" />
<glyph unicode="&#x2196;" horiz-adv-x="1720" d="M256 696v613h614v-84h-477l1157 -1145l-57 -57l-1155 1148v-475h-82z" />
<glyph unicode="&#x2198;" horiz-adv-x="1720" d="M256 1255l57 58l1153 -1149v473h82v-610h-614v84h477z" />
<glyph unicode="&#x21a9;" horiz-adv-x="1720" d="M109 655l430 435l61 -60l-336 -334h1051q66 0 112 19.5t73.5 54.5t39.5 82t12 100v170q0 106 -55 166t-182 60h-131v79h141q86 0 146.5 -23.5t97.5 -65.5t53 -99t16 -125v-162q0 -154 -82.5 -246t-257.5 -92h-1034l336 -331l-61 -60z" />
<glyph unicode="&#x21aa;" horiz-adv-x="1712" d="M111 952v162q0 68 16 125t53 99t97.5 65.5t146.5 23.5h141v-79h-131q-127 0 -182 -59.5t-55 -166.5v-170q0 -53 12 -100t39.5 -82t74 -54.5t111.5 -19.5h1053l-338 334l61 60l430 -435l-430 -432l-61 60l338 331h-1036q-174 0 -257 92.5t-83 245.5z" />
<glyph unicode="&#x21b3;" horiz-adv-x="1720" d="M264 614v803h86v-721h1147l-336 334l58 60l430 -435l-428 -432l-60 60l336 331h-1233z" />
<glyph unicode="&#x21b5;" horiz-adv-x="1720" d="M246 655l428 435l59 -60l-336 -334h1147v721h86v-803h-1233l336 -331l-59 -60z" />
<glyph unicode="&#x21de;" horiz-adv-x="993" d="M80 989l432 430l432 -430l-57 -61l-334 332l2 -515h233v-83h-233v-213h233v-84h-233v-365h-86v365h-233v84h233v213h-233v83h233v515l-332 -332z" />
<glyph unicode="&#x21df;" horiz-adv-x="993" d="M80 432l57 62l332 -334v516h-233v84h233v213h-233v84h233v364h86v-364h233v-84h-233v-213h233v-84h-233l-2 -516l334 334l57 -62l-432 -430z" />
<glyph unicode="&#x21e0;" horiz-adv-x="1652" d="M109 657q109 109 217 215.5t217 217.5l63 -60l-342 -336h363v-80h-363l342 -331l-63 -62zM737 612v82h201v-82h-201zM1053 612v82h200v-82h-200zM1368 612v82h160v-82h-160z" />
<glyph unicode="&#x21e1;" horiz-adv-x="972" d="M51 987l436 434l433 -434l-60 -63l-336 340v-361h-80v361l-331 -340zM442 0v162h82v-162h-82zM442 276v201h82v-201h-82zM442 592v199h82v-199h-82z" />
<glyph unicode="&#x21e2;" horiz-adv-x="1652" d="M111 614v82h159v-82h-159zM385 614v82h201v-82h-201zM700 614v82h201v-82h-201zM1012 614v82h362l-342 334l64 60l434 -433l-434 -434l-64 60l342 331h-362z" />
<glyph unicode="&#x21e3;" horiz-adv-x="972" d="M51 434l60 62q84 -86 166.5 -170t166.5 -170v362h80v-362q84 86 167 170t167 170l60 -62q-109 -111 -215.5 -218t-217.5 -216q-219 215 -434 434zM442 629v200h82v-200h-82zM442 942v203h82v-203h-82zM442 1260v159h82v-159h-82z" />
<glyph unicode="&#x21e4;" horiz-adv-x="1605" d="M160 223v867h84v-867h-84zM313 657l435 433l63 -60l-340 -334h1061v-82h-1061l340 -331l-63 -60z" />
<glyph unicode="&#x21e5;" horiz-adv-x="1605" d="M162 614v82h1059l-340 334l63 60l434 -433l-434 -434l-63 60l340 331h-1059zM1450 223v867h84v-867h-84z" />
<glyph unicode="&#x21e7;" horiz-adv-x="1609" d="M70 666l731 759l729 -759h-361v-666h-737v666h-362zM231 729h271v-659h600v659h268l-569 590z" />
<glyph unicode="&#x21ea;" horiz-adv-x="1630" d="M76 666l731 759l729 -759h-360v-539h-740v539h-360zM236 729h272v-532h598v532h270l-569 590zM438 -43h738v-352h-738v352zM508 -111v-215h598v215h-598z" />
<glyph unicode="&#x2202;" horiz-adv-x="655" d="M27 254q0 76 12 154q18 102 54 190t84 152.5t105.5 101.5t116.5 37q61 0 110.5 -40t80.5 -134q18 92 26.5 172t8.5 149q-2 170 -56.5 259t-148.5 89q-20 0 -37.5 -4t-40.5 -10l14 78q23 8 44.5 11t39.5 3q70 0 118 -31.5t79 -88t44 -133t13 -167.5q0 -150 -35 -323 q-35 -178 -84 -315.5t-107 -231.5t-123.5 -143t-131.5 -49q-86 0 -136 69.5t-50 204.5zM96 276q0 -111 36 -165t95 -54q53 0 104.5 49.5t95.5 127t79 173t57 189.5q-27 117 -72 165t-104 48q-53 0 -98 -38t-81 -97.5t-61.5 -132t-37.5 -142.5q-12 -72 -13 -123z" />
<glyph unicode="&#x220f;" horiz-adv-x="833" d="M-6 -160l307 1585h623l-308 -1585h-90l293 1503h-446l-293 -1503h-86z" />
<glyph unicode="&#x2211;" horiz-adv-x="602" d="M-78 -160l15 78l378 715l-102 717l14 75h539l-18 -82h-449l102 -710l-374 -709h460l-14 -84h-551z" />
<glyph unicode="&#x221a;" horiz-adv-x="737" d="M74 727l213 86l35 -836q10 31 37.5 112t65.5 193.5t85 249t94 276.5t93 276.5t85 249t65.5 193.5t37.5 111h76l-627 -1814h-74l-43 889q-4 -2 -24.5 -10.5t-45 -17.5t-45 -17.5t-22.5 -10.5z" />
<glyph unicode="&#x221e;" horiz-adv-x="1208" d="M59 530q0 53 19.5 97.5t53.5 76t77 49t92 17.5q82 0 161 -54t138 -138q61 82 140 137t165 55q98 0 167 -64.5t69 -175.5q0 -113 -70 -178t-174 -65q-84 0 -155.5 53t-143.5 139q-72 -88 -139.5 -140t-161.5 -52q-102 0 -170 63.5t-68 179.5zM129 530q0 -80 50 -128 t124 -48q35 0 70 14.5t67.5 39t62 56.5t54.5 64q-23 31 -52.5 63t-62 56.5t-68.5 41t-73 16.5q-72 0 -122 -51.5t-50 -123.5zM645 530q53 -68 116.5 -122t135.5 -54q74 0 125 49.5t51 126.5q0 74 -50 124.5t-122 50.5q-35 0 -69.5 -14.5t-67.5 -39t-62.5 -56.5t-56.5 -65z " />
<glyph unicode="&#x222b;" horiz-adv-x="534" d="M-133 -311l14 63q10 -4 23.5 -4h23.5q61 0 100.5 32t66 91t45 144t38.5 192q12 68 30.5 160t38 193.5t40 203.5t38 191t31 157t21.5 100q39 182 97.5 266.5t160.5 84.5q20 0 39.5 -2t40.5 -9l-13 -63q-14 2 -25 4t-24 2q-45 0 -78.5 -19.5t-60.5 -65.5t-49.5 -124 t-44.5 -194q-53 -268 -93 -479.5t-69 -364.5q-31 -170 -60.5 -279.5t-66.5 -173t-88 -89t-127 -25.5q-8 0 -20.5 2t-28.5 6z" />
<glyph unicode="&#x2248;" horiz-adv-x="722" d="M49 442q37 47 87.5 77t103.5 30q45 0 80.5 -14.5t68.5 -33t63.5 -32.5t63.5 -14q35 0 66.5 13t72.5 60l45 -34q-35 -53 -85 -83t-105 -30q-37 0 -70.5 14.5t-67.5 30.5t-70 30.5t-75 14.5q-35 0 -64.5 -14.5t-68.5 -53.5zM88 700q37 47 87.5 77t103.5 30q45 0 80.5 -14.5 t68.5 -33t63.5 -32.5t63.5 -14q35 0 66.5 13t72.5 60l45 -34q-37 -53 -86 -83t-104 -30q-37 0 -71 14.5t-67.5 30.5t-69.5 30.5t-75 14.5q-35 0 -64.5 -14.5t-68.5 -52.5z" />
<glyph unicode="&#x2260;" horiz-adv-x="722" d="M-6 184l201 224h-166l14 75h221l199 222h-377l14 73h428l197 217h82l-197 -217h146l-15 -73h-198l-199 -222h354l-14 -75h-410l-200 -224h-80z" />
<glyph unicode="&#x2264;" horiz-adv-x="722" d="M-31 84l17 76h647l-15 -76h-649zM61 559l13 74l708 293l-16 -80l-594 -248l498 -254l-17 -80z" />
<glyph unicode="&#x2265;" horiz-adv-x="722" d="M-29 84l15 76h647l-15 -76h-647zM6 264l14 80l594 254l-495 248l16 80l592 -293l-14 -74z" />
<glyph unicode="&#x2303;" horiz-adv-x="1628" d="M221 846l592 592l588 -584l-64 -66l-524 519l-526 -525z" />
<glyph unicode="&#x2318;" horiz-adv-x="1687" d="M111 256q0 55 18 103.5t53 85t85 58t116 21.5h186v379h-186q-55 0 -104.5 21.5t-86 58.5t-59 85t-22.5 103t20.5 104.5t56 86.5t86 58.5t109.5 21.5q68 0 118 -21.5t83.5 -58.5t50 -86t16.5 -105v-188h375v188q0 55 20.5 104.5t56.5 86.5t86 58.5t109 21.5 q66 0 116 -21.5t84 -58.5t51.5 -86t17.5 -105q0 -53 -21.5 -101t-57.5 -85t-85 -59.5t-105 -22.5h-188v-379h188q68 0 119 -21.5t84 -58t49.5 -86t16.5 -102.5q0 -55 -16.5 -104.5t-49.5 -86t-84 -58t-119 -21.5q-66 0 -115.5 21.5t-84.5 58t-53.5 86t-18.5 104.5v188h-375 v-188q0 -53 -16.5 -102.5t-50 -86t-83.5 -59t-118 -22.5q-63 0 -113.5 20.5t-86.5 57t-54 86t-18 106.5zM193 256q0 -80 53 -135t137 -55q39 0 72.5 14t59.5 40.5t40 60.5t14 75v188h-186q-84 0 -137 -55t-53 -133zM193 1171q0 -80 53 -134t137 -54h186v188q0 39 -14 73 t-40 59.5t-59.5 40t-72.5 14.5q-80 0 -135 -53.5t-55 -133.5zM651 524h375v379h-375v-379zM1110 256q0 -41 14.5 -75t40 -60.5t60.5 -40.5t73 -14q39 0 73 14t59.5 40.5t40 60.5t14.5 75q0 39 -14.5 72.5t-40 59.5t-59.5 41t-73 15h-188v-188zM1110 983h188q39 0 73 14.5 t59.5 40t40 60.5t14.5 73q0 78 -54.5 132.5t-132.5 54.5t-133 -53.5t-55 -133.5v-188z" />
<glyph unicode="&#x2324;" horiz-adv-x="1628" d="M264 1335v90h1176v-90h-1176zM276 662l576 610l573 -608l-63 -66l-510 545l-510 -545z" />
<glyph unicode="&#x2325;" horiz-adv-x="2433" d="M86 1270v90h465l795 -1272h958v-88h-1022l-797 1270h-399zM1069 1270v90h1235v-90h-1235z" />
<glyph unicode="&#x2326;" horiz-adv-x="2308" d="M170 0v1423h1356l694 -712l-694 -711h-1356zM252 82h1225l622 629l-622 628h-1225v-1257zM635 379l332 332l-332 333l55 58l332 -334l332 334l55 -58l-330 -333l330 -332l-55 -57l-332 335l-332 -335z" />
<glyph unicode="&#x232b;" horiz-adv-x="2308" d="M172 711l694 712h1354v-1423h-1356zM291 711l622 -629h1225v1257h-1225zM981 379l332 332l-332 333l55 58l334 -334l332 334l55 -58l-334 -333l334 -332l-55 -57l-332 335l-334 -335z" />
<glyph unicode="&#x235f;" horiz-adv-x="1646" d="M94 711q0 150 56.5 281.5t154.5 230t230.5 155t283.5 56.5q150 0 282 -57.5t230.5 -156t154.5 -230.5t56 -281h-2q0 -150 -57.5 -282t-155.5 -230.5t-230 -154.5t-282 -56t-281 56t-229 154.5t-154.5 230.5t-56.5 284zM211 709q0 -125 47 -234.5t129 -191.5t192.5 -129.5 t235.5 -47.5t235.5 47.5t192.5 129.5t129 191.5t47 234.5t-47 235.5t-129 192.5t-192.5 129t-235.5 47t-235.5 -47t-192.5 -129t-129 -192.5t-47 -235.5zM311 848l334 65l154 304l164 -299l335 -70l-231 -232l53 -346l-321 156l-289 -156l43 338z" />
<glyph unicode="&#x23cf;" horiz-adv-x="1748" d="M135 186v279h1438v-279h-1438zM135 643l719 719l719 -719h-1438z" />
<glyph unicode="&#x25a0;" horiz-adv-x="1792" d="M252 82v1296h1296v-1296h-1296z" />
<glyph unicode="&#x25a1;" horiz-adv-x="1722" d="M164 0v1419h1407v-1419h-1407zM250 76h1241v1263h-1241v-1263z" />
<glyph unicode="&#x25b2;" horiz-adv-x="1679" d="M162 360l719 719l718 -719h-1437z" />
<glyph unicode="&#x25b6;" horiz-adv-x="1218" d="M283 0v1436l718 -717z" />
<glyph unicode="&#x25bc;" horiz-adv-x="1679" d="M162 1079h1437l-718 -719z" />
<glyph unicode="&#x25c0;" horiz-adv-x="1218" d="M207 719l719 717v-1436z" />
<glyph unicode="&#x25ca;" horiz-adv-x="690" d="M51 563l244 549h80l250 -549q-61 -139 -124 -275t-126 -276h-80q-61 139 -122.5 275.5t-121.5 275.5zM129 561q53 -115 103.5 -228.5t101.5 -228.5h2q53 115 105.5 228.5t105.5 228.5q-53 117 -106.5 229.5t-106.5 227.5h-2z" />
<glyph unicode="&#x25cf;" horiz-adv-x="1726" d="M227 731q0 135 53.5 253t142.5 205t207 138t247 51t245.5 -51t205.5 -140t142.5 -207t53.5 -249t-51.5 -248.5t-140.5 -207t-206.5 -141.5t-248.5 -52q-133 0 -251 51t-207 140t-140.5 207t-51.5 251z" />
<glyph unicode="&#x25fc;" horiz-adv-x="1003" d="M0 0v1004h1004v-1004h-1004z" />
<glyph unicode="&#x2602;" horiz-adv-x="1597" d="M102 745q0 131 62.5 253t159 217.5t215 152.5t231.5 57v64h59v-66q113 0 231 -56t214 -150.5t157.5 -217t61.5 -254.5q-33 37 -82 58.5t-102 21.5q-47 0 -92.5 -19.5t-83.5 -60.5h-5q-47 80 -153 80q-57 0 -127 -28v-623q0 -86 -52.5 -138t-150.5 -52q-86 0 -142.5 48 t-56.5 152v27h97v-27q0 -57 27.5 -83.5t70.5 -26.5q33 0 53.5 10t31.5 26.5t15 37t4 40.5v607q-29 14 -55 19t-51 5q-53 0 -95 -20.5t-79 -55.5q-35 41 -82 60.5t-96 19.5q-51 0 -99.5 -19.5t-83.5 -60.5zM1493 745l2 -2q-2 0 -2 2z" />
<glyph unicode="&#x2605;" horiz-adv-x="1667" d="M86 874l510 99l233 463l252 -457l512 -105l-354 -354l80 -528l-490 239l-438 -239l66 514z" />
<glyph unicode="&#x2606;" horiz-adv-x="1716" d="M80 887l520 100l231 461l254 -457l521 -104l-361 -361l80 -530l-491 240l-447 -244l68 522zM199 850l313 -313l-55 -443l377 203l421 -203l-71 453l305 303l-436 88l-219 395l-201 -401z" />
<glyph unicode="&#x2610;" horiz-adv-x="1722" d="M164 0v1419h1407v-1419h-1407zM250 76h1241v1263h-1241v-1263z" />
<glyph unicode="&#x2611;" horiz-adv-x="1740" d="M168 0v1419h1407v-1419h-1407zM252 74h1241v1263h-1241v-1263zM412 745q35 23 74.5 33t64.5 10q18 0 44 -35.5t51.5 -93t47 -129t31.5 -141.5q61 100 144 219t177.5 232.5t192.5 210t188 155.5q8 -8 13 -10q-55 -43 -116.5 -111.5t-124 -152.5t-123 -178.5t-116 -185.5 t-101.5 -174t-77 -146q-96 -18 -141 -41q-16 61 -44 144t-58.5 162t-64.5 143.5t-62 88.5z" />
<glyph unicode="&#x2612;" horiz-adv-x="1740" d="M168 0v1419h1407v-1419h-1407zM254 76h1241v1263h-1241v-1263zM393 311l402 404l-402 403l68 68l403 -406l400 406l67 -68l-399 -399l405 -406l-71 -67l-404 405l-403 -409z" />
<glyph unicode="&#x2622;" horiz-adv-x="1714" d="M102 719q0 137 53.5 270t152 239.5t236.5 172t308 65.5q160 0 299 -57t241.5 -156.5t161 -233.5t58.5 -290q0 -158 -58.5 -297t-160 -242.5t-239.5 -164t-298 -60.5q-158 0 -295 58.5t-239.5 160t-161 239.5t-58.5 296zM176 719q0 -143 54.5 -267t147.5 -216.5 t218 -144.5t264 -52q135 0 257 54t215 146.5t147.5 212t54.5 250.5q0 162 -58.5 291t-153.5 219.5t-218 139.5t-252 49q-139 0 -262 -54.5t-215 -147.5t-145.5 -217t-53.5 -263zM236 719q0 176 72.5 305t234.5 233l202 -352q-47 -29 -73.5 -77t-32.5 -109h-403zM547 184 l201 348q61 -29 110 -28q41 0 103 28l204 -350q-162 -84 -315 -84q-166 0 -303 86zM692 719q0 70 48 118t116 48q33 0 62.5 -14.5t51 -37t34 -52t12.5 -62.5t-12.5 -61.5t-34 -50t-51 -35t-62.5 -13.5q-63 0 -113.5 45t-50.5 115zM961 909l204 351q147 -82 229.5 -221.5 t82.5 -319.5h-404q-12 127 -112 190z" />
<glyph unicode="&#x2623;" horiz-adv-x="1753" d="M113 494q0 59 16 116.5t54 107.5t98.5 92t150.5 71q0 129 23.5 224t71.5 159.5t122 104.5t176 58l11 -30q-279 -81 -279 -310q0 -139 78 -220t227 -99v-45q-47 -10 -66.5 -38t-19.5 -56q0 -10 2 -19.5t6 -19.5l-39 -21q-123 147 -272 148q-59 0 -115.5 -24.5t-99.5 -66.5 t-69.5 -97.5t-26.5 -116.5q0 -45 12 -115l-22 -10q-16 51 -27.5 103t-11.5 104zM207 180l22 17q139 -123 240 -123q68 0 127 25.5t103 68.5t70 101.5t26 123.5q0 25 -5.5 62t-31.5 84l45 26q14 -23 35.5 -30t42.5 -7q37 0 67 35l47 -24q-35 -84 -34 -148q0 -63 24.5 -119.5 t67.5 -99.5t98 -67.5t117 -24.5q135 0 250 110l24 -16q-39 -53 -78 -87t-81 -53.5t-89 -26.5t-102 -7q-78 0 -158.5 21.5t-156.5 87.5q-86 -66 -166 -87.5t-152 -21.5q-53 0 -100 8t-89 28.5t-82 55.5t-81 88zM463 606q0 43 8 78h25q45 -4 86 -25v-61q0 -156 180 -246 q-4 -29 -15.5 -56t-27.5 -50q-57 25 -104.5 61.5t-81 84.5t-52 102.5t-18.5 111.5zM623 946q66 43 127 65.5t127 22.5q131 0 256 -88q-27 -55 -76 -88q-90 61 -176 62q-84 0 -183 -62q-29 16 -45 38t-30 50zM891 723v45q147 18 225 101.5t78 222.5q0 223 -242 303l11 32 q186 -41 274 -157.5t88 -317.5v-32.5t-2 -34.5q160 -63 237.5 -171t77.5 -245q0 -92 -36 -197l-27 9q16 88 16 133q0 61 -25.5 115.5t-68.5 94.5t-101.5 62.5t-123.5 22.5q-82 0 -146.5 -39t-113.5 -107l-47 27q6 20 6 41q0 33 -18.5 56.5t-61.5 35.5zM991 352 q180 90 180 254v24.5t-2 28.5q23 14 55.5 17.5t55.5 3.5q8 -33 8 -76q0 -111 -68.5 -207t-191.5 -151q-14 25 -23.5 51.5t-13.5 54.5z" />
<glyph unicode="&#x262e;" horiz-adv-x="1708" d="M96 723q0 154 58.5 289t160 234.5t236.5 156.5t289 57q160 0 298 -57t240.5 -156.5t160.5 -232.5t58 -285q0 -158 -59 -295t-162.5 -238.5t-243 -160t-296.5 -58.5q-150 0 -284 59.5t-235.5 161t-161 237.5t-59.5 288zM229 719q0 -55 5.5 -96t15.5 -74t25.5 -64.5 t37.5 -68.5l473 430v489q-123 -16 -225 -67t-176 -132t-115 -187.5t-41 -229.5zM383 324q47 -45 92 -82t92 -67t100.5 -49.5t118.5 -29.5v596zM903 100q121 14 219.5 69.5t190.5 154.5l-410 368v-592zM903 846l479 -428q37 66 58.5 141.5t21.5 169.5q0 119 -39 221.5 t-111.5 181t-176 132t-232.5 71.5v-489z" />
<glyph unicode="&#x262f;" horiz-adv-x="1695" d="M102 729q0 168 64.5 304t169 233.5t238 150.5t272.5 53q168 0 306 -60t236.5 -162.5t151.5 -239t53 -287.5q0 -168 -60 -304t-162.5 -233.5t-237 -149.5t-283.5 -52q-166 0 -304 62t-236.5 165.5t-153 239t-54.5 280.5zM500 1337l10 -8q43 12 86 12q84 0 152.5 -31.5 t116.5 -79.5t75 -104.5t27 -107.5q0 -104 -40 -193.5t-139 -187.5q-43 -43 -59 -105.5t-16 -105.5q0 -152 93 -237t263 -85q88 0 174 48.5t153.5 132.5t109.5 196.5t42 241.5q0 135 -50 263t-142 226.5t-221 159t-289 60.5q-92 0 -179 -24t-167 -71zM518 999 q0 -41 26.5 -71.5t73.5 -30.5q45 0 75 30.5t30 71.5q0 37 -28.5 69t-78.5 32q-35 0 -66.5 -28t-31.5 -73zM977 457q0 47 31.5 76.5t66.5 29.5q45 0 75 -32.5t30 -73.5q0 -45 -32 -73t-73 -28q-43 0 -70.5 32t-27.5 69z" />
<glyph unicode="&#x2672;" horiz-adv-x="1882" d="M102 862h433l174 -375l-123 72l-64 -57q-33 -31 -33 -60q0 -51 64 -51h393v-432h-379q-66 0 -92 21.5t-47 58.5l-231 426q-14 25 -19.5 51.5t-5.5 54.5q0 53 14.5 102.5t51.5 88.5zM188 831l97 -65q-39 -37 -60.5 -87t-21.5 -104q0 -59 19.5 -95t51 -55t70.5 -26.5 t76 -7.5h57q-23 16 -22 49q0 41 39 80l86 78l57 -35l-125 268h-324zM268 391l181 -334q18 -33 39.5 -52t68.5 -19h361v379h-486q-35 0 -58.5 2t-41 5t-32.5 8t-32 11zM365 1026l210 340q23 37 56 57.5t86 20.5h497q41 0 56.5 -5t29.5 -28l109 -178l131 78l-172 -393l-432 43 l123 77l-94 166l-254 -379zM408 1032l294 -170l246 371q-39 76 -97 125t-146 49q-59 0 -99 -57zM801 1417q63 -14 105 -67.5t79 -118.5l115 -205l-76 -47l326 -31l137 297l-82 -53l-121 190q-12 20 -26.5 27.5t-38.5 7.5h-418zM1001 160l226 346v-144h223l-236 400l353 209 l194 -361q18 -37 19 -61q0 -23 -7.5 -42.5t-17.5 -37.5l-221 -397q-18 -33 -31.5 -54.5t-27 -35t-31 -18.5t-43.5 -5h-172v-158zM1036 160l166 -266v92h197q18 0 41.5 10t42.5 43l211 385q-66 -61 -138.5 -76.5t-181.5 -15.5h-172v90zM1251 754l236 -392q39 4 84 20.5 t84 42.5t64.5 58.5t25.5 69.5q0 14 -4 26.5t-8 22.5l-183 326z" />
<glyph unicode="&#x2673;" horiz-adv-x="1779" d="M102 213q0 74 50 160l149 268l-94 51l14 27l242 45l86 -229l-17 -31l-96 59l-131 -237q-27 -49 -26 -88q0 -37 27.5 -62.5t92.5 -25.5h406v-150h-436q-123 0 -195 58.5t-72 154.5zM449 897l217 379q45 78 101 111.5t118 33.5q63 0 121.5 -36.5t95.5 -102.5l149 -264 l105 59l12 -28l-90 -230l-248 43l-12 25l100 55l-145 246q-16 29 -40 45t-52 16q-29 0 -55.5 -20.5t-43.5 -50.5l-202 -357zM739 662v116l86 62h101v-594h-113v467zM913 74l160 200l27 -4v-120h262q74 0 107.5 24.5t33.5 65.5q0 39 -33 94l-204 348l137 80l227 -397 q47 -80 47 -150q0 -98 -83 -156.5t-210 -58.5h-286v-121h-33z" />
<glyph unicode="&#x2674;" horiz-adv-x="1779" d="M102 213q0 74 50 160l149 268l-94 51l14 27l242 45l86 -229l-17 -31l-96 59l-131 -237q-27 -49 -26 -88q0 -37 27.5 -62.5t92.5 -25.5h406v-150h-436q-123 0 -195 58.5t-72 154.5zM449 897l217 379q45 78 101 111.5t118 33.5q63 0 121.5 -36.5t95.5 -102.5l149 -264 l105 59l12 -28l-90 -230l-248 43l-12 25l100 55l-145 246q-16 29 -40 45t-52 16q-29 0 -55.5 -20.5t-43.5 -50.5l-202 -357zM674 254v94l219 275q29 31 29 67q0 23 -16.5 41.5t-47.5 18.5q-29 0 -48 -24t-26 -64l-106 12q12 86 63.5 132t116.5 46q74 0 123 -41t49 -119 q0 -29 -10 -60.5t-33 -60.5l-170 -213h203v-104h-346zM913 74l160 200l27 -4v-120h262q74 0 107.5 24.5t33.5 65.5q0 39 -33 94l-204 348l137 80l227 -397q47 -80 47 -150q0 -98 -83 -156.5t-210 -58.5h-286v-121h-33z" />
<glyph unicode="&#x2675;" horiz-adv-x="1779" d="M102 213q0 74 50 160l149 268l-94 51l14 27l242 45l86 -229l-17 -31l-96 59l-131 -237q-27 -49 -26 -88q0 -37 27.5 -62.5t92.5 -25.5h406v-150h-436q-123 0 -195 58.5t-72 154.5zM449 897l217 379q45 78 101 111.5t118 33.5q63 0 121.5 -36.5t95.5 -102.5l149 -264 l105 59l12 -28l-90 -230l-248 43l-12 25l100 55l-145 246q-16 29 -40 45t-52 16q-29 0 -55.5 -20.5t-43.5 -50.5l-202 -357zM674 406l104 14q8 -39 27.5 -55.5t44.5 -16.5q37 0 58.5 25.5t21.5 62.5q0 39 -21.5 58.5t-54.5 19.5h-59v98h53q33 0 54.5 19.5t21.5 48.5 t-20.5 49.5t-49.5 20.5q-23 0 -41 -19.5t-29 -54.5l-106 12q14 72 63.5 118t112.5 46q92 0 134 -51t42 -119q0 -31 -10 -59.5t-45 -55.5q35 -29 47 -61.5t12 -67.5q0 -86 -50 -138t-136 -52q-29 0 -56.5 7t-51 25.5t-41 49t-25.5 76.5zM913 74l160 200l27 -4v-120h262 q74 0 107.5 24.5t33.5 65.5q0 39 -33 94l-204 348l137 80l227 -397q47 -80 47 -150q0 -98 -83 -156.5t-210 -58.5h-286v-121h-33z" />
</font>
</defs>
</svg>
