<?xml version="1.0" standalone="no"?>
<!DOCTYPE svg PUBLIC "-//W3C//DTD SVG 1.1//EN" "http://www.w3.org/Graphics/SVG/1.1/DTD/svg11.dtd" >
<svg xmlns="http://www.w3.org/2000/svg">
<metadata></metadata>
<defs>
<font id="pf_din_text_comp_proBdIt" horiz-adv-x="3723" >
<font-face units-per-em="2048" ascent="1536" descent="-512" />
<missing-glyph horiz-adv-x="440" />
<glyph unicode="fj" horiz-adv-x="983" d="M-23 -317l213 1112h-88l43 219h88l27 135q18 96 59 163.5t97.5 109.5t124 61.5t141.5 19.5q84 0 173 -22.5t149 -81.5l-140 -215q-45 35 -94 45t-94 10q-41 0 -68.5 -13.5t-44 -31.5t-25 -39.5t-10.5 -38.5l-20 -102h498l-201 -1082q-35 -176 -133.5 -255.5t-253.5 -79.5 q-20 0 -44 2t-44 6l49 262q10 -2 31 -2q70 0 92 38t37 105l153 787h-227l-213 -1112h-275z" />
<glyph unicode="ffj" horiz-adv-x="1486" d="M-18 -313l208 1108h-88l43 219h88l15 76q18 96 59 163.5t96.5 109.5t124 61.5t142.5 19.5q47 0 102 -11.5t107 -35.5q63 55 142 79.5t163 24.5t173 -22.5t148 -81.5l-137 -211q-41 33 -92 44t-96 11q-41 0 -68 -11t-44 -29.5t-25.5 -41t-12.5 -45.5l-18 -100h504 l-205 -1082q-35 -176 -133.5 -255.5t-253.5 -79.5q-20 0 -44 2t-44 6l49 262q10 -2 30 -2q70 0 92.5 38t36.5 105l154 787h-229l-209 -1108h-275l209 1108h-229l-209 -1108h-274zM508 1014h229l15 82q2 10 6 32.5t12 38.5q-31 10 -56 14.5t-52 4.5q-41 0 -68 -14.5t-43 -34 t-24.5 -42t-10.5 -38.5z" />
<glyph unicode="&#xfb00;" horiz-adv-x="1040" d="M-25 -313l215 1108h-88l43 217h88l15 78q18 96 59 163.5t96.5 109.5t124 61.5t142.5 19.5q41 0 98 -8.5t100 -24.5q88 88 269 88q27 0 58.5 -3t57.5 -9l-49 -254q-14 4 -30.5 6t-28.5 2q-59 0 -78.5 -22.5t-26.5 -61.5l-26 -145h141l-43 -217h-143l-215 -1108h-275 l215 1108h-229l-215 -1108h-275zM508 1012h229l17 88q4 14 7 33.5t11 35.5q-35 10 -59.5 12.5t-50.5 2.5q-41 0 -68 -13.5t-43 -34t-24.5 -42t-10.5 -37.5z" />
<glyph unicode="&#xfb01;" horiz-adv-x="983" d="M-25 -313l215 1108h-88l43 217h88l27 135q18 96 59 163.5t97.5 109.5t124 61.5t141.5 19.5q84 0 173 -22.5t149 -81.5l-140 -215q-45 35 -94 45t-94 10q-41 0 -68.5 -13.5t-44 -31.5t-25 -40t-10.5 -38l-20 -102h504l-197 -1012h-274l153 795h-229l-215 -1108h-275z" />
<glyph unicode="&#xfb02;" horiz-adv-x="1009" d="M-25 -317l215 1112h-88l43 217h86l27 135q39 193 147.5 273.5t256.5 80.5q16 0 58 -2t100.5 -11t128 -26.5t143.5 -48.5l-209 -1077q-2 -10 -2 -17.5v-13.5q0 -35 18.5 -47t58.5 -12l-49 -256q-10 -2 -20 -2h-21q-143 0 -208.5 66.5t-65.5 172.5q0 23 3 46.5t7 50.5 l174 899q-41 10 -66.5 12t-52.5 2q-37 0 -60.5 -13.5t-38.5 -31.5t-22.5 -40t-9.5 -38l-20 -102h147l-43 -217h-147l-215 -1112h-275z" />
<glyph unicode="&#xfb03;" horiz-adv-x="1486" d="M-23 -313l213 1108h-88l43 219h88l15 76q18 96 59 163.5t96.5 109.5t124 61.5t142.5 19.5q47 0 102 -11.5t107 -35.5q63 55 142 79.5t163 24.5t173 -22.5t148 -81.5l-137 -211q-41 33 -92 44t-96 11q-41 0 -68 -11t-44 -29.5t-25.5 -41t-12.5 -45.5l-18 -100h504 l-197 -1014h-275l154 795h-229l-213 -1108h-275l213 1108h-229l-213 -1108h-275zM508 1014h229l15 82q2 10 6 32.5t12 38.5q-31 10 -56 14.5t-52 4.5q-41 0 -68 -14.5t-43 -34t-24.5 -42t-10.5 -38.5z" />
<glyph unicode="&#xfb04;" horiz-adv-x="1513" d="M-20 -313l210 1108h-88l43 219h88l15 76q18 96 59 163.5t96.5 109.5t124 61.5t142.5 19.5q47 0 102 -11.5t107 -35.5q63 55 142 79.5t163 24.5q23 0 63.5 -3t95 -12t119 -26.5t133.5 -46.5l-209 -1077q-2 -10 -2 -17.5v-13.5q0 -35 18.5 -47t59.5 -12l-49 -256 q-10 -2 -20.5 -2h-20.5q-143 0 -208.5 66.5t-65.5 172.5q0 23 3 46.5t7 50.5l174 897q-61 20 -115 20q-37 0 -61.5 -13.5t-39.5 -31.5t-23.5 -39.5t-10.5 -38.5l-20 -104h157l-43 -219h-157l-211 -1108h-275l211 1108h-229l-211 -1108h-274zM508 1014h229l15 82q2 10 6 32.5 t12 38.5q-31 10 -56 14.5t-52 4.5q-41 0 -68 -14.5t-43 -34t-24.5 -42t-10.5 -38.5z" />
<glyph unicode="ft" horiz-adv-x="1058" d="M-23 -313l213 1108h-88l43 217h82l35 184q12 68 39 123t72 95t108.5 62.5t149.5 22.5q27 0 58.5 -3t58.5 -9l-50 -254q-14 4 -30.5 6t-28.5 2q-59 0 -79.5 -28.5t-24.5 -55.5l-27 -145h231l52 268h258l-52 -266h113l-43 -219h-113l-86 -447q-4 -18 -6 -34.5t4 -30 t22.5 -21.5t49.5 -8h25l-50 -254h-112q-72 0 -117 22.5t-68.5 59.5t-28.5 83t5 93l104 537h-231l-213 -1108h-275z" />
<glyph horiz-adv-x="0" />
<glyph horiz-adv-x="682" />
<glyph unicode=" "  horiz-adv-x="440" />
<glyph unicode="&#x09;" horiz-adv-x="440" />
<glyph unicode="&#xa0;" horiz-adv-x="440" />
<glyph unicode="!" horiz-adv-x="563" d="M70 0l55 285h262l-55 -285h-262zM164 416l176 1009h272l-217 -1009h-231z" />
<glyph unicode="&#x22;" horiz-adv-x="634" d="M186 977l88 448h189l-88 -448h-189zM473 977l88 448h191l-88 -448h-191z" />
<glyph unicode="#" horiz-adv-x="880" d="M-43 0l158 424h-107l37 194h139q20 53 41 104.5t41 104.5h-106l37 195h137l149 401h201l-152 -401h144q39 100 75.5 201.5t75.5 199.5h201l-154 -401h111l-37 -195h-143q-18 -53 -37.5 -104t-38.5 -105h109l-37 -194h-146q-41 -106 -79.5 -212t-75.5 -212h-199l156 424 h-146q-80 -213 -153 -424h-201zM385 618h143l80 209h-145z" />
<glyph unicode="$" horiz-adv-x="880" d="M51 262q0 49 12 105l283 24q-10 -35 -10 -61q0 -25 9 -42.5t36 -23.5l65 338l-8 4q-74 35 -122 71t-76.5 73.5t-40 78.5t-11.5 86q0 111 27 205t79 163t132 110t184 45l27 137h74l-29 -139q74 -6 125 -30t83 -59.5t46 -81.5t14 -96q0 -66 -18 -129l-277 -16 q4 16 6.5 32.5t2.5 33.5q0 23 -7.5 39t-27.5 24l-56 -281q137 -57 195.5 -125.5t58.5 -166.5q0 -115 -20.5 -220.5t-69.5 -185.5t-131 -130t-205 -54l-30 -160h-74l31 160q-145 10 -211 87t-66 185zM457 270q27 12 44 37t27.5 55.5t14.5 64.5t4 67q0 41 -33 71zM473 985 q0 -20 7 -37.5t28 -34.5l47 242q-25 -10 -40 -30.5t-24.5 -45t-13.5 -50.5t-4 -44z" />
<glyph unicode="%" horiz-adv-x="1345" d="M115 795l84 436q18 94 81.5 147.5t159.5 53.5q100 0 161 -60.5t40 -173.5l-84 -430q-20 -106 -81.5 -153.5t-160.5 -47.5q-49 0 -90 16.5t-68.5 45t-40 70.5t-1.5 96zM172 -35l934 1497h166l-934 -1497h-166zM295 780q-2 -10 8 -21t29 -11q14 0 22 11t11 21l86 439 q2 10 -5.5 22t-25.5 12t-26.5 -12t-10.5 -22zM819 215l84 436q18 94 82 147.5t160 53.5q100 0 160.5 -60.5t40.5 -173.5l-84 -430q-20 -106 -82 -153t-160 -47q-49 0 -90 16t-68.5 45t-40 71t-2.5 95zM999 201q-2 -10 8.5 -21.5t28.5 -11.5q14 0 22.5 11t10.5 22l86 438 q2 10 -5 22.5t-26 12.5q-18 0 -26 -12.5t-11 -22.5z" />
<glyph unicode="&#x26;" horiz-adv-x="1021" d="M61 287q0 82 20.5 149.5t56.5 123.5t86 106.5t112 99.5q-29 80 -44.5 145.5t-15.5 137.5q0 88 28 158.5t77 121.5t115.5 79t144.5 28q119 0 201 -54.5t116 -171.5l-221 -114q-8 51 -36.5 74.5t-57.5 23.5q-25 0 -42 -12.5t-28.5 -32t-17.5 -42t-6 -42.5q-2 -14 6 -66.5 t31 -117.5l123 -353q10 27 24.5 72t18.5 76h235q-20 -98 -64 -203.5t-102 -183.5l107 -289h-297l-29 72q-70 -49 -138.5 -66.5t-135.5 -17.5q-129 0 -198 81t-69 218zM334 338q0 -45 19.5 -75t58.5 -30q29 0 59.5 10.5t52.5 28.5l-104 271q-86 -96 -86 -205z" />
<glyph unicode="'" horiz-adv-x="409" d="M223 977l88 448h189l-88 -448h-189z" />
<glyph unicode="(" horiz-adv-x="606" d="M131 387q0 154 38 305.5t103.5 291.5t150.5 267t181 232l158 -84q-182 -250 -283.5 -506t-101.5 -541q0 -133 20.5 -257t61.5 -230l-168 -98q-72 141 -116 294.5t-44 325.5z" />
<glyph unicode=")" horiz-adv-x="606" d="M12 -135q82 111 150.5 233.5t119 252.5t79 265.5t28.5 274.5q0 131 -21.5 261t-64.5 247l191 84q61 -129 102 -278.5t41 -321.5q0 -160 -37 -310.5t-103.5 -290t-157.5 -269.5t-200 -246z" />
<glyph unicode="*" horiz-adv-x="806" d="M180 1092l90 168l205 -93l29 256h182l-74 -254l240 91l29 -168l-252 -64l125 -201l-166 -102l-86 215l-176 -217l-125 104l198 201z" />
<glyph unicode="+" horiz-adv-x="880" d="M53 498l43 227h287l61 309h224l-62 -309h287l-43 -227h-287l-61 -310h-223l61 310h-287z" />
<glyph unicode="," horiz-adv-x="479" d="M-47 -313l127 305h-60l62 315h278l-61 -309l-190 -311h-156z" />
<glyph unicode="-" horiz-adv-x="784" d="M102 442l50 246h606l-49 -246h-607z" />
<glyph unicode="." horiz-adv-x="468" d="M14 0l60 307h276l-59 -307h-277z" />
<glyph unicode="/" horiz-adv-x="591" d="M-98 -86l686 1571h207l-689 -1571h-204z" />
<glyph unicode="0" horiz-adv-x="880" d="M104.5 212q-14.5 71 1.5 157l142 749q29 154 127 237t239 83q80 0 141.5 -30t100.5 -82t51.5 -122.5t-4.5 -154.5l-153 -748q-29 -154 -120 -233.5t-233 -79.5q-78 0 -139 26.5t-100 76.5t-53.5 121zM365 322q-6 -29 11 -45.5t40 -16.5q27 0 45 15.5t22 39.5 q39 199 65.5 335t44 223.5t28 134.5t14.5 68.5t5 24.5t1 5q4 33 -15.5 46t-39.5 13q-33 0 -47.5 -17.5t-18.5 -43.5z" />
<glyph unicode="1" horiz-adv-x="880" d="M313 954l60 306l245 165h246l-276 -1425h-273l213 1100z" />
<glyph unicode="2" horiz-adv-x="880" d="M31 0l47 246l475 649q41 53 60.5 109.5t19.5 99.5q0 27 -12.5 48.5t-40.5 21.5q-25 0 -58 -33t-47 -133l-264 32q16 104 55 180t93.5 124.5t121 71t137.5 22.5q160 0 231 -74t71 -205q0 -59 -9.5 -108.5t-30 -95.5t-50 -94t-68.5 -103l-352 -490h327l-53 -268h-653z" />
<glyph unicode="3" horiz-adv-x="880" d="M59 387l283 33q-16 -55 -15 -88t11 -51.5t25.5 -23.5t27.5 -5q23 0 47.5 17.5t34.5 72.5l33 170q12 59 -15.5 84t-68.5 25h-62l46 233h77q41 0 75 22.5t44 75.5l27 135q6 29 -5.5 56.5t-52.5 27.5q-14 0 -30.5 -5t-31.5 -22.5t-28.5 -50t-19.5 -87.5l-264 32 q29 199 136 299.5t259 100.5q100 0 163.5 -32t99.5 -81t45 -109.5t1 -119.5l-10 -72q-8 -39 -20.5 -80t-32 -79t-49 -69.5t-72.5 -52.5l-2 -10q31 -16 47 -40.5t24.5 -53.5t8.5 -60.5t-7 -62.5l-24 -141q-16 -88 -47 -160t-79 -122t-117.5 -77.5t-164.5 -27.5 q-180 0 -262 99t-35 300z" />
<glyph unicode="4" horiz-adv-x="880" d="M18 201l43 227l480 997h270l-457 -962h115l55 278h269l-56 -278h80l-49 -262h-80l-39 -201h-268l39 201h-402z" />
<glyph unicode="5" horiz-adv-x="880" d="M87 227.5q-11 73.5 9 159.5l271 33q-16 -55 -17.5 -88t7 -50.5t21.5 -22.5t25 -5q23 0 47.5 16.5t34.5 71.5l60 305q10 57 -47 58q-16 0 -45 -13.5t-58 -60.5h-227l156 794h637l-52 -260h-379l-49 -258l4 -2q29 25 72 37t72 12q137 0 180 -77.5t22 -200.5l-47 -301 q-12 -80 -38.5 -150.5t-73.5 -123t-116 -83t-167 -30.5q-86 0 -149.5 29.5t-102.5 83t-50 127z" />
<glyph unicode="6" horiz-adv-x="880" d="M92 238q0 25 5 80t19.5 124.5t38 143t58.5 137.5l397 702h301l-342 -589l9 -9q33 16 79 17q25 0 53.5 -7.5t51 -29t38 -61t15.5 -105.5q0 -49 -8 -103.5t-19 -105.5q-16 -76 -39.5 -154.5t-67.5 -143t-116.5 -105.5t-187.5 -41q-59 0 -111.5 15t-91.5 46t-60.5 78 t-21.5 111zM367 297q0 -23 17 -34t38 -11q23 0 42 14.5t23 40.5l52 268q2 4 2 15q0 23 -16 33t-36 10q-23 0 -43 -14.5t-26 -43.5l-51 -268q0 -4 -1 -6t-1 -4z" />
<glyph unicode="7" horiz-adv-x="880" d="M72 0l563 1165h-129l-27 -137h-250l78 397h670l-47 -237l-582 -1188h-276z" />
<glyph unicode="8" horiz-adv-x="880" d="M84.5 251q5.5 75 21.5 165q8 39 18.5 86t29 91t49 84t80.5 64v13q-35 20 -50.5 52t-19.5 69.5t1 78.5t13 80q16 84 47 165t86 138q55 55 126 78t145 23q72 0 141.5 -24.5t101.5 -84.5q33 -53 36 -117.5t-17 -177.5q-8 -41 -18.5 -83t-29 -81t-47 -69.5t-71.5 -48.5l4 -11 q37 -20 51.5 -58t15.5 -84t-8.5 -94t-17.5 -89q-12 -63 -24.5 -110.5t-26.5 -84.5t-31.5 -66.5t-40.5 -54.5q-59 -70 -128.5 -91t-149.5 -21t-158 33.5t-109 103.5q-25 51 -19.5 126zM358 303q-4 -23 12.5 -38t39.5 -15q25 0 44 15.5t23 37.5l55 287q4 23 -11 39t-40 16 q-29 0 -46 -16.5t-21 -38.5zM475 903q-4 -23 11.5 -39t37.5 -16q25 0 45.5 16.5t24.5 38.5l41 217q4 23 -9.5 39.5t-37.5 16.5q-31 0 -49.5 -16.5t-22.5 -39.5z" />
<glyph unicode="9" horiz-adv-x="880" d="M92 0l342 590l-8 8q-33 -16 -80 -16q-25 0 -52.5 7t-51 28.5t-38 61.5t-14.5 105q0 49 7.5 103.5t17.5 105.5q16 76 40 155t69 143.5t116.5 105.5t186.5 41q59 0 111.5 -15.5t90 -46t60 -78t22.5 -110.5q0 -25 -6 -80t-19.5 -125t-37 -143.5t-57.5 -137.5l-398 -702h-301 zM463 836q0 -23 15.5 -33t35.5 -10q23 0 43.5 14t26.5 43l49 258q6 29 -8 47.5t-43 18.5q-27 0 -44.5 -16.5t-21.5 -43.5l-51 -264q0 -4 -1 -7t-1 -7z" />
<glyph unicode=":" horiz-adv-x="468" d="M14 0l60 307h276l-59 -307h-277zM117 530l59 308h277l-60 -308h-276z" />
<glyph unicode=";" horiz-adv-x="479" d="M-47 -313l127 305h-60l62 315h278l-61 -309l-190 -311h-156zM125 530l59 308h277l-60 -308h-276z" />
<glyph unicode="&#x3c;" horiz-adv-x="880" d="M57 524l37 187l877 391l-62 -285l-547 -215l459 -211l-45 -256z" />
<glyph unicode="=" horiz-adv-x="880" d="M18 319l43 228h797l-43 -228h-797zM90 686l43 227h797l-43 -227h-797z" />
<glyph unicode="&#x3e;" horiz-adv-x="880" d="M-10 135l53 293l541 211l-465 215l53 248l725 -391l-37 -187z" />
<glyph unicode="?" horiz-adv-x="806" d="M131 1036q27 217 131.5 309.5t280.5 92.5q156 0 247 -79t91 -226q0 -68 -10.5 -120t-28 -93t-39 -75t-43.5 -63q-63 -82 -99 -130t-54.5 -78.5t-27 -53t-16.5 -53.5l-18 -76h-273l25 125q10 57 39 110.5t57 94.5q57 80 95 128t59.5 83t30 67.5t8.5 79.5q0 31 -18.5 56.5 t-59.5 25.5q-16 0 -34.5 -6t-35 -22.5t-30 -46t-17.5 -76.5zM203 0l55 285h262l-55 -285h-262z" />
<glyph unicode="@" horiz-adv-x="1660" d="M158 481q0 203 61.5 384.5t175 317.5t277.5 216t366 80q150 0 261.5 -42t185.5 -116t110.5 -174t36.5 -217q0 -182 -44 -311.5t-113.5 -212t-154.5 -120.5t-167 -38q-72 0 -131 33.5t-80 93.5l-8 2q-47 -68 -104.5 -93.5t-98.5 -25.5q-92 0 -138 43t-46 109q0 55 9 135 t32 186q18 96 39.5 168t51.5 120t69.5 71.5t99.5 23.5q29 0 66.5 -14.5t64.5 -57.5l6 2l16 60h230l-111 -551q-6 -33 -2 -53.5t13.5 -30.5t21.5 -14t23 -4q51 0 97 36.5t81 100t54 148.5t19 182q0 170 -99 273t-304 103q-166 0 -292 -68.5t-210 -180t-127 -251t-43 -280.5 q0 -221 107.5 -334.5t314.5 -113.5q90 0 173 20t192 74l47 -170q-111 -47 -211.5 -77t-206.5 -30q-139 0 -252 35t-192.5 107.5t-122.5 185.5t-43 270zM788 506q0 -29 37 -33q16 0 35 15.5t31 72.5l47 236q2 10 4 23.5t2 25.5q0 18 -8 32.5t-35 14.5q-16 0 -29.5 -11.5 t-17.5 -25.5q-6 -10 -16.5 -53t-21.5 -98.5t-19.5 -110.5t-8.5 -88z" />
<glyph unicode="A" horiz-adv-x="919" d="M-63 0l546 1425h340l-4 -1425h-291l11 279h-209l-97 -279h-296zM420 541h129l16 227l27 289h-12l-88 -289z" />
<glyph unicode="B" horiz-adv-x="913" d="M23 0l276 1425h301q332 0 332 -299q0 -158 -56.5 -248t-160.5 -122l-2 -11q70 -25 95.5 -80t25.5 -126q0 -121 -31 -220.5t-88.5 -170t-139 -109.5t-184.5 -39h-368zM348 262h49q41 0 72 19.5t52.5 53.5t31.5 77t10 92q0 61 -29.5 87.5t-68.5 26.5h-45zM471 877h35 q74 0 113.5 51t39.5 139q0 57 -26.5 74.5t-77.5 17.5h-29z" />
<glyph unicode="C" horiz-adv-x="874" d="M72 266q0 41 10 99l135 698q16 84 47 153.5t80 118.5t121 76t170 27q166 0 246 -82t80 -205q0 -45 -9 -80l-276 -47q2 10 3 19.5t1 19.5q0 47 -20.5 77.5t-57.5 30.5q-29 0 -47 -11t-31.5 -27.5t-20.5 -36t-9 -33.5l-142 -727q-2 -8 -2 -25q0 -23 13.5 -40t56.5 -17 q88 0 123 147l268 -36q-12 -84 -42 -153t-79 -119t-119.5 -77.5t-167.5 -27.5q-164 0 -247.5 71.5t-83.5 206.5z" />
<glyph unicode="D" horiz-adv-x="913" d="M25 0l276 1425h336q127 0 209 -44t92 -148q1 -16 1 -35q1 -69 -11 -177q-14 -138 -49 -306q-35 -176 -59.5 -298t-65.5 -206q-63 -121 -156.5 -166t-202.5 -45h-370zM352 268h49q66 0 90.5 31t36.5 92q47 244 74 380t39 202.5t15 84t3 23.5q0 35 -18 52.5t-68 17.5h-49z " />
<glyph unicode="E" horiz-adv-x="806" d="M23 0l276 1425h653l-51 -266h-375l-59 -299h328l-54 -272h-327l-60 -322h375l-53 -266h-653z" />
<glyph unicode="F" horiz-adv-x="806" d="M23 0l276 1425h653l-51 -266h-375l-59 -301h328l-54 -268h-327l-113 -590h-278z" />
<glyph unicode="G" horiz-adv-x="901" d="M96 365l135 698q16 84 48 153.5t82.5 118.5t121 76t166.5 27t163 -29t105.5 -79t50.5 -116q6 -32 6 -65q0 -38 -7 -78l-277 -47q3 21 3 39q0 38 -13 66q-21 42 -64 42q-29 0 -47 -11t-31.5 -27.5t-20.5 -36t-9 -33.5l-141 -727q-2 -14 -2 -28.5t6 -27t21.5 -19.5t41.5 -7 q41 0 69.5 20.5t39.5 67.5l41 209h-97l48 244h372l-88 -449q-18 -98 -56 -166.5t-89 -111.5t-116.5 -61.5t-139.5 -18.5q-193 0 -275 98q-57 69 -57 178q0 47 10 101z" />
<glyph unicode="H" horiz-adv-x="940" d="M23 0l276 1425h279l-111 -565h178l111 565h276l-276 -1425h-277l113 590h-178l-113 -590h-278z" />
<glyph unicode="I" horiz-adv-x="495" d="M27 0l276 1425h279l-277 -1425h-278z" />
<glyph unicode="J" horiz-adv-x="782" d="M-41 176l221 160q20 -39 49 -59.5t52 -20.5q53 0 76.5 33t29.5 61l209 1075h276l-210 -1079q-33 -168 -129.5 -263t-268.5 -95q-96 0 -176 45t-129 143z" />
<glyph unicode="K" horiz-adv-x="913" d="M23 0l276 1425h279l-78 -413h14l260 413h309l-413 -604l168 -821h-275l-98 545l-84 -127l-80 -418h-278z" />
<glyph unicode="L" horiz-adv-x="774" d="M23 0l276 1425h279l-224 -1153h375l-53 -272h-653z" />
<glyph unicode="M" horiz-adv-x="1191" d="M10 0l277 1425h256l61 -403l49 -274h13l145 280l219 397h264l-276 -1425h-279l129 666h-8l-110 -222l-88 -165h-187l-24 182l-25 211h-10l-129 -672h-277z" />
<glyph unicode="N" horiz-adv-x="985" d="M16 0l277 1425h244l75 -442q6 -33 13.5 -79t13.5 -96t12 -97t8 -82h11l141 796h272l-276 -1425h-238l-84 451l-45 270h-10l-137 -721h-277z" />
<glyph unicode="O" horiz-adv-x="856" d="M23 295q0 23 3 47.5t7 48.5l131 688q18 92 48 159t76 112t110.5 66.5t152.5 21.5q154 0 246 -78t92 -225q0 -53 -12 -111l-127 -676q-31 -168 -123 -264t-273 -96q-162 0 -246.5 84t-84.5 223zM301 340q0 -76 72 -76q35 0 59.5 19.5t34.5 68.5l135 697q4 10 4 19v19 q0 39 -20 56.5t-51 17.5q-35 0 -59.5 -20.5t-35.5 -67.5l-135 -700q-2 -10 -3 -17.5t-1 -15.5z" />
<glyph unicode="P" horiz-adv-x="876" d="M23 0l276 1425h317q78 0 141.5 -16t108.5 -54t70 -102.5t25 -158.5q0 -279 -133.5 -425.5t-360.5 -146.5h-66l-100 -522h-278zM455 791h47q27 0 59.5 9t61 34.5t47 72.5t18.5 123q0 72 -31.5 100.5t-87.5 28.5h-43z" />
<glyph unicode="Q" horiz-adv-x="913" d="M80 297q0 23 2 46.5t6 47.5l131 688q35 182 125 270.5t262 88.5q154 0 246 -78t92 -225q0 -53 -12 -111l-127 -676q-8 -41 -19.5 -76.5t-25.5 -66.5l123 -119l-174 -168l-115 105q-82 -35 -184 -35q-160 0 -245 84t-85 225zM356 340q0 -76 72 -76q35 0 59.5 19.5 t34.5 68.5l135 697q4 10 4.5 19t0.5 19q0 39 -20.5 56.5t-51.5 17.5q-35 0 -59.5 -20.5t-34.5 -67.5l-136 -700q-2 -10 -3 -17.5t-1 -15.5z" />
<glyph unicode="R" horiz-adv-x="913" d="M23 0l276 1425h317q76 0 140.5 -17t111.5 -56t73 -102.5t26 -153.5q0 -102 -18.5 -179t-50.5 -134.5t-77 -97.5t-98 -67l86 -618h-285l-61 555h-55l-107 -555h-278zM461 823h43q31 0 64.5 8.5t62 32t47 63.5t18.5 105q0 66 -34.5 96.5t-92.5 30.5h-43z" />
<glyph unicode="S" horiz-adv-x="874" d="M51 264q0 49 12 103l283 24q-10 -35 -10 -61q0 -29 15.5 -48.5t58.5 -19.5q41 0 67.5 21.5t42 55.5t21.5 75t6 80q0 41 -23.5 62.5t-85.5 49.5q-74 33 -123 69t-76.5 74.5t-39 79.5t-11.5 86q0 113 28 209.5t83 166t138 108.5t194 39q88 0 149.5 -20.5t99.5 -57.5t54 -85 t16 -104q0 -63 -18 -131l-277 -16q4 16 6.5 32.5t2.5 33.5q0 29 -14.5 50t-59.5 21q-35 0 -57.5 -19.5t-36 -47t-18.5 -57t-5 -52.5q0 -35 26.5 -63.5t106.5 -63.5q66 -29 109 -58.5t67.5 -63.5t34.5 -72.5t10 -83.5q0 -117 -21.5 -224.5t-73.5 -189.5t-139 -130t-216 -48 q-86 0 -147.5 21.5t-101.5 58t-58.5 87t-18.5 109.5z" />
<glyph unicode="T" horiz-adv-x="737" d="M145 0l226 1159h-219l51 266h717l-52 -266h-219l-225 -1159h-279z" />
<glyph unicode="U" horiz-adv-x="911" d="M80 200q-9 34 -10 75q0 41 10 87l207 1063h278l-209 -1060q-3 -15 -3 -27q1 -30 17 -48q24 -26 58 -26q35 0 59.5 19.5t34.5 68.5l209 1073h283l-209 -1077q-72 -360 -399 -360q-82 0 -150 24.5t-113 71t-63 116.5z" />
<glyph unicode="V" horiz-adv-x="915" d="M199 0l6 1425h301l-25 -534q-4 -104 -14 -213t-18 -225h12l133 399l199 573h307l-549 -1425h-352z" />
<glyph unicode="W" horiz-adv-x="1312" d="M156 0l75 1425h301l-32 -378q-10 -113 -22.5 -216.5t-24.5 -199.5h10l131 368l149 426h222l-13 -413q-2 -49 -4 -93.5t-4 -90.5t-5 -97t-5 -115h12l107 396l112 413h318l-477 -1425h-299l6 287l8 391h-12q-20 -61 -37 -108.5t-30 -87.5t-27.5 -76.5t-30.5 -79.5 l-129 -326h-299z" />
<glyph unicode="X" horiz-adv-x="921" d="M-76 0l438 743l-141 682h318l39 -331h12l164 331h348l-416 -682l160 -743h-320l-49 397h-8l-201 -397h-344z" />
<glyph unicode="Y" horiz-adv-x="847" d="M201 1425h288l11 -282q2 -68 5 -121q2 -32 2 -72q0 -27 -1 -57h16l211 532h303l-444 -866l-109 -559h-280l108 559z" />
<glyph unicode="Z" horiz-adv-x="737" d="M-39 0l49 254l516 905h-321l51 266h633l-49 -245l-514 -912h338l-52 -268h-651z" />
<glyph unicode="[" horiz-adv-x="530" d="M2 -209l317 1636h373l-39 -198h-123l-239 -1239h123l-39 -199h-373z" />
<glyph unicode="\" horiz-adv-x="591" d="M205 1485h207l77 -1571h-206z" />
<glyph unicode="]" horiz-adv-x="530" d="M-90 -211l37 199h123l241 1241h-123l39 198h371l-319 -1638h-369z" />
<glyph unicode="^" horiz-adv-x="880" d="M43 631l498 794h186l195 -800h-260l-39 206l-37 256h-17l-131 -249l-114 -207h-281z" />
<glyph unicode="_" horiz-adv-x="1024" d="M-145 -328l36 185h1022l-36 -185h-1022z" />
<glyph unicode="`" horiz-adv-x="788" d="M354 1497l199 107l199 -435l-134 -69z" />
<glyph unicode="a" horiz-adv-x="821" d="M35 170q0 66 11 163t38 226q23 117 50.5 204t66.5 145.5t93 87t128 28.5q35 0 75 -17.5t62 -70.5l8 4l19 72h278l-196 -1012h-277l17 80h-11q-37 -51 -88 -72.5t-80 -21.5q-113 0 -153.5 52t-40.5 132zM328 287q0 -37 45 -41q18 0 40.5 18.5t39.5 89.5l55 285 q4 14 6 28.5t2 30.5q0 23 -10 40.5t-41 17.5q-23 0 -38 -14.5t-19 -30.5q-6 -12 -19.5 -64.5t-27 -119t-23.5 -133t-10 -107.5z" />
<glyph unicode="b" horiz-adv-x="821" d="M-10 0l289 1487h282l-102 -529h10q41 41 82 54.5t70 13.5q109 0 153.5 -54t44.5 -138q0 -133 -49 -381q-23 -117 -50.5 -204t-66.5 -145.5t-92 -87t-129 -28.5q-35 0 -75 17.5t-62 70.5l-8 -4l-17 -72h-280zM338 315q0 -25 10 -42t41 -17q23 0 38 14.5t19 30.5 q6 12 19.5 64.5t27 119t23.5 133t10 107.5q0 37 -45 41q-18 0 -40.5 -18.5t-39.5 -90.5l-55 -284q-4 -12 -6 -27.5t-2 -30.5z" />
<glyph unicode="c" horiz-adv-x="780" d="M53 225q-1 15 -1 32q0 41 6 95q10 76 20 150q14 92 38.5 187t57.5 157q41 80 122 132t204 52q76 0 136 -21.5t98 -63.5q38 -41 52 -103q7 -30 8 -65q0 -36 -8 -77l-278 -30q5 26 5 46q0 18 -5 30q-10 24 -33 24q-35 0 -55 -41q-10 -16 -25.5 -74.5t-32.5 -144.5 q-16 -86 -23 -138.5t-7 -76.5q4 -45 41 -45q23 0 42 20.5t29 71.5l271 -35q-29 -150 -123 -234.5t-246 -84.5q-78 0 -132 20.5t-89 53t-52.5 75.5t-19.5 88z" />
<glyph unicode="d" horiz-adv-x="821" d="M27 190q0 16 1 34t3 38q2 31 13 106.5t27.5 164t37 174.5t43.5 137q12 27 29.5 59.5t47 61t73 47t106.5 18.5q27 0 75.5 -13t75.5 -48h10l103 518h276l-282 -1487h-277l14 74l-8 4q-18 -29 -41.5 -46.5t-48 -26.5t-48.5 -13t-42 -4q-94 0 -141 46t-47 156zM330 297 q0 -16 11 -27.5t32 -11.5q25 0 39 10.5t24 34t18.5 63.5t20.5 101l4 22q14 78 25.5 137.5t11.5 86.5q0 23 -11 36t-34 13q-20 0 -36.5 -13.5t-24.5 -33.5q-10 -27 -23.5 -91.5t-26 -132t-21.5 -124t-9 -64.5v-6z" />
<glyph unicode="e" horiz-adv-x="835" d="M51 303q0 53 6 106.5t17 102.5q16 92 40.5 184t68.5 167t114 121t178 46q147 0 230 -67.5t83 -184.5q0 -102 -31.5 -172.5t-86 -115t-126 -63.5t-151.5 -19h-25.5t-27.5 2q-8 -29 -11 -61t-3 -48q2 -51 41 -51q29 0 46 17.5t29 60.5l279 -31q-16 -68 -43 -124t-69 -98 t-102.5 -64.5t-146.5 -22.5q-92 0 -152.5 25.5t-95 69.5t-48 101.5t-13.5 118.5zM379 627q76 0 105.5 24.5t29.5 77.5q0 16 -11 29.5t-34 13.5q-39 0 -58.5 -38t-31.5 -107z" />
<glyph unicode="f" horiz-adv-x="618" d="M-143 -293l49 254q14 -4 30.5 -5t28.5 -1q57 0 79 26.5t26 55.5l139 758h-115l43 217h115l35 184q12 68 38.5 123t71.5 95t108.5 62.5t149.5 22.5q27 0 58.5 -3t58.5 -9l-49 -254q-14 4 -30.5 6t-28.5 2q-59 0 -80 -28.5t-25 -55.5l-27 -145h162l-43 -217h-162l-147 -797 q-12 -68 -39 -124t-72 -96t-108.5 -61.5t-149.5 -21.5q-55 0 -116 12z" />
<glyph unicode="g" horiz-adv-x="821" d="M-31 -139l281 53q-2 -8 -2 -20q0 -27 16 -42.5t39 -15.5q27 0 40 16.5t17 36.5l31 166h-10q-41 -41 -82 -54t-70 -13q-109 0 -153.5 54t-44.5 138q2 66 13 161t36 220q23 117 50.5 204t66.5 145.5t92 87t129 28.5q35 0 74.5 -17.5t62.5 -70.5l8 4l17 72h280l-211 -1086 q-14 -74 -38.5 -137t-66.5 -108t-106.5 -71t-158.5 -26q-141 0 -222.5 78t-87.5 197zM324 289q0 -37 45 -41q18 0 40.5 18.5t39.5 89.5l55 285q4 12 6 27.5t2 29.5q0 25 -10 42.5t-41 17.5q-23 0 -38 -14.5t-20 -30.5q-6 -12 -19 -64.5t-26.5 -119t-23.5 -133t-10 -107.5z " />
<glyph unicode="h" horiz-adv-x="843" d="M2 0l289 1487h280l-114 -569l10 -3q35 49 93 80t106 31q74 0 112 -24q38 -23 52 -62q11 -29 10 -62q0 -12 -1 -24q-5 -47 -14 -96l-145 -758h-281l133 686q6 29 -3 51.5t-37 22.5q-35 0 -55.5 -29t-28.5 -67l-125 -664h-281z" />
<glyph unicode="i" horiz-adv-x="464" d="M10 0l197 1012h280l-196 -1012h-281zM236 1159l51 266h280l-51 -266h-280z" />
<glyph unicode="j" horiz-adv-x="462" d="M-197 -395l50 262q10 -2 30 -2q70 0 92.5 38t36.5 105l197 1006h280l-210 -1082q-35 -176 -133.5 -255.5t-254.5 -79.5q-20 0 -43.5 2t-44.5 6zM238 1159l51 266h280l-51 -266h-280z" />
<glyph unicode="k" horiz-adv-x="884" d="M10 0l289 1485h279l-134 -690l13 -2l180 219h350l-373 -408l168 -604h-317l-74 358l-41 -41l-61 -317h-279z" />
<glyph unicode="l" horiz-adv-x="479" d="M47 227q0 23 3 46.5t7 50.5l224 1163h280l-225 -1151q-2 -10 -2 -17.5v-13.5q0 -35 18.5 -47t59.5 -12l-50 -256q-10 -2 -20 -2h-20q-143 0 -209 66.5t-66 172.5z" />
<glyph unicode="m" horiz-adv-x="1243" d="M4 0l197 1014h280l-16 -84l10 -2q33 37 87 67.5t102 30.5q47 0 77.5 -10t49 -26.5t28.5 -39t15 -49.5q51 55 116.5 90t112.5 35q68 0 105.5 -20.5t55.5 -55.5q17 -33 16 -76q0 -45 -11 -104l-150 -770h-280l133 686q8 41 -5.5 57.5t-35.5 16.5q-23 0 -44.5 -17.5 t-31.5 -52.5l-133 -690h-281l134 686q8 41 -5.5 57.5t-35.5 16.5q-25 0 -47.5 -20.5t-30.5 -59.5l-131 -680h-281z" />
<glyph unicode="n" horiz-adv-x="845" d="M4 0l197 1014h280l-22 -96l10 -3q35 49 93.5 80t105.5 31q55 0 89 -13.5t52 -37t24.5 -54t6.5 -65.5q0 -23 -4.5 -48.5t-8.5 -49.5l-145 -758h-281l134 686q2 10 2 27q0 27 -12.5 37t-30.5 10q-35 0 -55.5 -29t-28.5 -67l-125 -664h-281z" />
<glyph unicode="o" horiz-adv-x="821" d="M55 262q0 55 7.5 114.5t19.5 125.5q10 49 21.5 100t23.5 99.5t27.5 90.5t31.5 70q47 84 128.5 126t181.5 42q80 0 138 -22.5t96 -60.5t55.5 -86t17.5 -99q0 -33 -3 -73t-9.5 -81t-12.5 -82t-12 -73q-25 -121 -53.5 -209t-73.5 -145.5t-111.5 -85t-165.5 -27.5 q-84 0 -142 25.5t-95 65.5t-53.5 89t-16.5 96zM336 307q0 -25 9 -41t38 -16q23 0 39 14.5t20 30.5q4 8 12.5 37.5t17.5 71.5t18.5 89.5t17.5 92.5t13 82t5 55q0 20 -11.5 33.5t-31.5 13.5q-23 0 -37 -8t-25 -32.5t-22.5 -70t-25.5 -116.5l-29 -162q-4 -23 -6 -40t-2 -34z " />
<glyph unicode="p" horiz-adv-x="839" d="M-90 -395l274 1409h277l-15 -74l9 -4q18 27 41.5 45t48 27.5t48 13.5t42.5 4q94 0 141 -46t47 -157q0 -16 -1 -33.5t-3 -37.5q-4 -31 -14 -107t-26.5 -164t-37 -174t-43.5 -137q-12 -29 -29.5 -60.5t-47 -60.5t-73 -47t-106.5 -18q-27 0 -76 13t-75 48h-10l-91 -440h-280 zM334 301q0 -23 11 -36t34 -13q20 0 36.5 13.5t24.5 33.5q6 18 15.5 54t17.5 79t17.5 90t15.5 87t10 68t4 34v6q0 16 -11 27.5t-32 11.5q-25 0 -39 -10.5t-24.5 -34t-18.5 -63.5t-20 -101l-4 -23q-14 -78 -25.5 -137t-11.5 -86z" />
<glyph unicode="q" horiz-adv-x="821" d="M37 209q4 66 14 151.5t33 198.5q25 117 52.5 204t65.5 145.5t91 87t129 28.5q35 0 75 -17.5t62 -70.5l8 4l19 72h278l-274 -1407h-283l94 448h-10q-41 -41 -85 -54t-73 -13q-59 0 -99 17t-62.5 47t-30.5 71q-5 27 -5 57q0 15 1 31zM328 287q0 -37 45 -41h3q17 0 38 18 q22 21 39 90l55 285q4 16 7 37q1 10 1 19.5t-1 18.5q-3 17 -14.5 29.5t-35.5 12.5q-23 0 -38 -14.5t-19 -30.5q-6 -12 -19.5 -64.5t-27 -119t-23.5 -133t-10 -107.5z" />
<glyph unicode="r" horiz-adv-x="647" d="M20 0l197 1016h283l-25 -125h4q43 78 96.5 108.5t122.5 30.5q12 0 24.5 -1t25.5 -3l-54 -276q-31 6 -59 6q-86 0 -144.5 -48.5t-80.5 -156.5l-107 -551h-283z" />
<glyph unicode="s" horiz-adv-x="792" d="M29 238q0 12 1 26.5t3 28.5l276 35q-2 -8 -3 -13.5t-1 -11.5q0 -29 16.5 -45t43.5 -16q41 0 61 31.5t20 64.5t-16 46t-39 22q-49 18 -98 35.5t-88 45t-63.5 70.5t-24.5 113q0 80 25.5 145.5t73.5 113.5t119 74.5t161 26.5q145 0 222 -65.5t77 -178.5q0 -33 -7 -65 l-274 -29q2 6 2 15q0 27 -12 47t-41 20q-25 0 -39 -11t-21.5 -25.5t-9.5 -28t-2 -17.5q0 -33 45 -47q61 -20 114.5 -40.5t91.5 -51.5t59.5 -77t21.5 -116q0 -72 -20.5 -139t-67.5 -119.5t-123 -83t-184 -30.5q-135 0 -217 62.5t-82 187.5z" />
<glyph unicode="t" horiz-adv-x="567" d="M86 207q0 18 2 36.5t6 35.5l101 516h-93l43 219h93l51 266h264l-51 -266h114l-43 -219h-114l-86 -447q-2 -10 -4 -19.5t-2 -19.5q0 -23 15 -39t62 -16h25l-49 -254q-16 -4 -41 -5t-45 -1q-74 0 -122 18.5t-75.5 49t-39 68.5t-11.5 77z" />
<glyph unicode="u" horiz-adv-x="845" d="M43 160q4 47 14 96l146 758h280l-133 -686q-6 -29 3 -51.5t38 -22.5q25 0 50.5 28.5t33.5 67.5l125 664h281l-197 -1014h-281l23 96l-10 2q-35 -49 -93.5 -79.5t-105.5 -30.5q-74 0 -111.5 23.5t-51.5 62.5q-11 31 -12 66q0 10 1 20z" />
<glyph unicode="v" horiz-adv-x="821" d="M109 1012h303l-23 -391q-4 -53 -8 -105.5t-14 -134.5h14q27 59 53.5 134t53 158t51 169t45.5 170h317q-47 -139 -97 -267.5t-103.5 -251t-111 -244.5t-120.5 -249h-322z" />
<glyph unicode="w" horiz-adv-x="1277" d="M119 1012h313l-31 -391q-4 -53 -9 -110.5t-17 -129.5h14q57 156 111.5 310.5t95.5 320.5h289l-37 -391q-4 -53 -12.5 -118t-18.5 -122h14q57 156 107.5 310.5t91.5 320.5h324q-43 -137 -91.5 -265.5t-101.5 -252t-112.5 -246.5t-122.5 -248h-322l14 227l31 279h-12 l-84 -277l-90 -229h-322z" />
<glyph unicode="x" horiz-adv-x="854" d="M-76 0l346 516l-137 498h307l33 -277h8l137 277h326l-338 -498l154 -516h-307l-35 293h-12l-156 -293h-326z" />
<glyph unicode="y" horiz-adv-x="784" d="M-113 -172q94 8 153.5 49t119.5 146l-56 989h293l-10 -318q-2 -25 -4 -64.5t-6 -82.5t-9.5 -86t-11.5 -74h11q59 135 108 285.5t103 339.5h294q-106 -307 -223 -576.5t-231 -480.5q-43 -80 -95.5 -149.5t-116 -118.5t-140.5 -77q-68 -24 -151 -24h-24z" />
<glyph unicode="z" horiz-adv-x="716" d="M-25 0l48 248l383 516h-261l50 250h579l-45 -230l-393 -524h291l-49 -260h-603z" />
<glyph unicode="{" horiz-adv-x="530" d="M43 537l33 165q57 4 97 44t58 133l58 297q12 57 29.5 103t52.5 79t90 50t141 17h92l-39 -196h-41q-16 0 -44.5 -16.5t-39.5 -73.5l-55 -277q-16 -84 -61 -146.5t-109 -90.5l-2 -15q53 -23 73.5 -85t4.5 -154l-59 -303q-6 -31 0 -47.5t17 -23.5t24.5 -9t21.5 -2h37 l-39 -197h-100q-47 0 -91.5 13.5t-75 45t-44 86t3.5 138.5l53 282q18 94 -7.5 136t-78.5 47z" />
<glyph unicode="|" horiz-adv-x="530" d="M156 -332v1827h219v-1827h-219z" />
<glyph unicode="}" horiz-adv-x="530" d="M-92 -209l39 197h41q16 0 44.5 16t39.5 74l55 276q16 84 61 146.5t109 91.5l2 14q-53 23 -73.5 85.5t-4.5 154.5l60 303q6 31 -0.5 47t-17.5 23.5t-24.5 9.5t-21.5 2h-37l39 196h100q47 0 91.5 -13t75 -45t43 -87t-2.5 -137l-53 -283q-18 -94 7.5 -136t78.5 -46l-33 -166 q-57 -4 -97 -44t-58 -132l-58 -297q-12 -57 -29.5 -103.5t-52 -79t-90 -50t-141.5 -17.5h-92z" />
<glyph unicode="~" horiz-adv-x="880" d="M76 580q76 119 148.5 172t168.5 53q39 0 74 -17.5t63.5 -37t55 -36t51.5 -16.5q35 0 66.5 18.5t80.5 74.5l134 -91q-74 -127 -145 -175t-142 -48q-41 0 -77 16.5t-66.5 36t-59.5 36t-55 16.5q-18 0 -37 -2t-38 -11.5t-43 -27t-54 -49.5z" />
<glyph unicode="&#xa1;" horiz-adv-x="563" d="M-14 -412l217 1010h231l-176 -1010h-272zM211 729l55 285h262l-55 -285h-262z" />
<glyph unicode="&#xa2;" horiz-adv-x="880" d="M70 225q-4 51 5 127t19 150q14 92 39 187t57 157q41 78 116 129t192 55l37 187h104l-39 -195q115 -23 172 -104.5t31 -217.5l-279 -30q10 53 0 76.5t-32 23.5q-35 0 -56 -41q-10 -16 -25.5 -74.5t-31.5 -144.5t-23.5 -138.5t-7.5 -76.5q4 -45 41 -45q23 0 42.5 20.5 t29.5 71.5l270 -35q-27 -135 -114 -217t-216 -98l-39 -201h-104l39 201q-55 6 -97 27.5t-70 53t-43 71.5t-17 81z" />
<glyph unicode="&#xa3;" horiz-adv-x="880" d="M-18 0l43 229q63 70 106 143.5t70 178.5h-115l41 211h102q-4 51 -11 101t-7 110q0 102 29.5 188t84 147.5t128 96.5t161.5 35q168 0 255 -79t87 -202q0 -57 -18 -121l-279 -14q4 14 6.5 29.5t2.5 29.5q0 33 -15.5 56.5t-56.5 23.5q-55 0 -81 -43t-26 -100t10.5 -118.5 t10.5 -139.5h203l-41 -211h-199q-27 -98 -55.5 -165t-71.5 -130h408l-49 -256h-723z" />
<glyph unicode="&#xa4;" horiz-adv-x="1050" d="M49 428l129 129q-35 74 -35 152q0 82 37 155l-125 127l162 160l125 -125q74 37 160 37q82 0 149 -33l129 129l158 -158l-127 -127q37 -72 37 -153q0 -80 -39 -162l127 -127l-162 -162l-127 127q-78 -39 -155 -39q-80 0 -158 39l-127 -127zM328 711q0 -66 46 -113t111 -47 q33 0 64.5 12t54.5 35q51 55 51 127q0 66 -46 109t-109 43q-78 0 -125 -47.5t-47 -118.5z" />
<glyph unicode="&#xa5;" horiz-adv-x="880" d="M119 365l26 137h170l11 57l-2 27h-162l26 139h117l-88 700h289l12 -313l2 -252h17l94 254l119 311h303l-363 -700h129l-26 -139h-172l-13 -27l-12 -57h180l-26 -137h-181l-69 -365h-281l70 365h-170z" />
<glyph unicode="&#xa6;" horiz-adv-x="530" d="M156 -348v823h219v-823h-219zM156 668v811h219v-811h-219z" />
<glyph unicode="&#xa7;" horiz-adv-x="866" d="M-8 31l170 174q57 -63 103 -86t81 -23q59 0 95 30t36 71q0 82 -141 172q-98 63 -155.5 122.5t-57.5 151.5q0 84 44 162t136 115q-33 35 -44 77.5t-11 85.5q0 76 29.5 140.5t82 111.5t124 75t157.5 28q98 0 173 -34t153 -112l-172 -182q-57 63 -103.5 76.5t-83.5 13.5 q-41 0 -69.5 -24.5t-28.5 -59.5q0 -29 26.5 -57.5t65.5 -59t86 -64.5t86 -74t65.5 -87t26.5 -104q0 -170 -149 -258q37 -86 37 -168q0 -78 -30 -146.5t-84 -120t-130 -81t-168 -29.5q-45 0 -93 11t-95.5 32.5t-89 52.5t-72.5 68zM373 705q0 -23 17.5 -45.5t43 -44t57 -42 t62.5 -36.5q18 10 33.5 30.5t19.5 38.5q2 4 2 15q0 37 -42 73.5t-132 85.5q-23 -12 -42 -32.5t-19 -42.5z" />
<glyph unicode="&#xa8;" horiz-adv-x="708" d="M190 1120l52 266h241l-51 -266h-242zM547 1120l51 266h244l-51 -266h-244z" />
<glyph unicode="&#xa9;" horiz-adv-x="1439" d="M84 698q0 156 40 287t119 227.5t195.5 150.5t270.5 54q150 0 266.5 -54t196 -150.5t120.5 -227.5t41 -287q0 -154 -41 -283.5t-120.5 -226t-196 -150.5t-266.5 -54q-154 0 -270.5 54t-195.5 150.5t-119 226.5t-40 283zM256 698q0 -115 29.5 -215t87 -176t142.5 -120 t194 -44q113 0 197.5 44t142 120t85 176.5t27.5 214.5q0 117 -29.5 218.5t-86 178t-141 121t-195.5 44.5q-115 0 -200 -44.5t-141.5 -121t-84 -178t-27.5 -218.5zM473 485v406q0 111 66 173t168 62q51 0 94 -17t74.5 -48t50 -71t20.5 -85l-164 -41q-4 41 -22.5 66.5 t-48.5 25.5q-43 0 -56.5 -19t-13.5 -48v-408q0 -25 18.5 -43t47.5 -18q63 0 69 90l168 -33q-10 -104 -68.5 -165.5t-168.5 -61.5q-100 0 -167 58.5t-67 176.5z" />
<glyph unicode="&#xaa;" horiz-adv-x="567" d="M109 692q0 45 6 106.5t22 145.5q14 76 32.5 134.5t45.5 96t64.5 57t91.5 19.5q23 0 49 -9t47 -34l8 37h211l-129 -672h-209l8 39q-18 -29 -51 -39t-53 -10q-68 0 -105.5 37t-37.5 92zM322 764q0 -27 20 -27q8 0 23.5 12.5t21.5 51.5l41 200q2 10 3 21.5t1 21.5t-4 19.5 t-18 9.5q-16 0 -24.5 -8t-10.5 -16q-4 -8 -12.5 -43t-17.5 -79t-16 -89t-7 -74z" />
<glyph unicode="&#xab;" horiz-adv-x="1103" d="M111 506l315 409h264l-336 -413l156 -408h-244zM530 506l316 409h264l-336 -413l156 -408h-244z" />
<glyph unicode="&#xac;" horiz-adv-x="880" d="M53 498l43 227h795l-105 -537h-223l62 310h-572z" />
<glyph unicode="&#xad;" horiz-adv-x="784" d="M102 442l50 246h606l-49 -246h-607z" />
<glyph unicode="&#xae;" horiz-adv-x="995" d="M82 961q0 104 26.5 192t80 152.5t132 100.5t183.5 36q100 0 177 -36t130 -100.5t81 -152.5t28 -192q0 -102 -28 -190.5t-81 -153t-130 -100.5t-177 -36q-104 0 -183 36t-132.5 100.5t-80 152.5t-26.5 191zM207 965q0 -160 75.5 -260.5t221.5 -100.5q76 0 130 27.5t89 77 t52.5 115t17.5 141.5t-18.5 142.5t-55.5 115.5t-91 77.5t-124 28.5q-76 0 -132.5 -28.5t-93 -77.5t-54 -116t-17.5 -142zM350 688v565h160q160 0 160 -176q0 -47 -13.5 -87t-52.5 -66q20 -57 44 -118t46 -118h-131l-71 213h-19v-213h-123zM473 1010h29q31 0 41 17t10 50 t-11.5 50.5t-45.5 17.5h-23v-135z" />
<glyph unicode="&#xaf;" horiz-adv-x="784" d="M322 1159l43 225h516l-43 -225h-516z" />
<glyph unicode="&#xb0;" horiz-adv-x="722" d="M96 1169q0 55 20.5 104.5t57.5 85.5t85 57.5t103 21.5t104.5 -21.5t86.5 -57.5t57.5 -85.5t20.5 -104.5t-20.5 -104t-57.5 -86t-86 -57.5t-105 -20.5q-55 0 -103 20.5t-85 57.5t-57.5 86t-20.5 104zM268 1169q0 -41 27 -69.5t67 -28.5q43 0 70 28.5t27 69.5t-26.5 69 t-70.5 28q-41 0 -67.5 -28t-26.5 -69z" />
<glyph unicode="&#xb1;" horiz-adv-x="880" d="M-43 0l41 215h797l-41 -215h-797zM66 563l43 223h286l58 289h223l-58 -289h287l-43 -223h-287l-55 -289h-223l55 289h-286z" />
<glyph unicode="&#xb2;" horiz-adv-x="573" d="M98 758l31 157l305 379q23 29 36 64t13 51q0 12 -7 21.5t-23 9.5q-23 0 -41.5 -19.5t-24.5 -79.5l-186 25q25 129 99.5 189.5t172.5 60.5q94 0 153.5 -44t59.5 -130q0 -63 -26.5 -114.5t-75.5 -121.5l-209 -268h200l-34 -180h-443z" />
<glyph unicode="&#xb3;" horiz-adv-x="573" d="M133 884q-12 44 0 101l195 19q-10 -49 3 -61.5t23 -12.5q35 0 41 39l21 100q6 29 -11.5 39t-39.5 10h-46l29 156h60q23 0 38 10t19 35l18 84q2 10 -3 22.5t-29 12.5q-14 0 -35 -17.5t-25 -74.5l-184 26q25 121 87 182.5t177 61.5q117 0 165 -62.5t34 -181.5 q-8 -51 -32 -100t-77 -74q47 -18 51 -63t-10 -119q-12 -59 -29.5 -108.5t-48 -84.5t-76 -54t-110.5 -19q-49 0 -91 15t-72 45t-42 74z" />
<glyph unicode="&#xb4;" horiz-adv-x="788" d="M410 1176l278 380l201 -110l-348 -359z" />
<glyph unicode="&#xb6;" horiz-adv-x="946" d="M119 897q0 80 25.5 173t83 171t150.5 130t226 52h469l-45 -223h-92l-256 -1319h-207l256 1319h-80l-256 -1319h-213l146 750q-113 23 -160 93.5t-47 172.5z" />
<glyph unicode="&#xb7;" horiz-adv-x="468" d="M96 410l60 307h276l-59 -307h-277z" />
<glyph unicode="&#xb8;" horiz-adv-x="882" d="M12 -383l64 119q43 -20 70.5 -25.5t50.5 -5.5q35 0 56 19.5t21 46.5t-18 35t-49 8l-62 47l109 209h125l-78 -144q88 -12 119 -57t31 -90q0 -23 -8.5 -57.5t-33 -68.5t-70.5 -58.5t-124 -24.5q-8 0 -28.5 1t-48 5t-60.5 14.5t-66 26.5z" />
<glyph unicode="&#xb9;" horiz-adv-x="452" d="M195 1303l38 206l162 101h174l-166 -852h-198l123 628z" />
<glyph unicode="&#xba;" horiz-adv-x="569" d="M104 752q0 39 4.5 76.5t12.5 78.5q12 61 26.5 129t38.5 105q35 55 85 84.5t128 29.5q117 0 173.5 -56t56.5 -126q0 -45 -7.5 -102.5t-17.5 -100.5q-16 -78 -35.5 -136t-50.5 -96t-76 -56.5t-110 -18.5q-66 0 -110 18.5t-70.5 46t-37 60.5t-10.5 64zM309 780q0 -41 27 -41 q18 0 26.5 16.5t14.5 41.5l20 98q10 47 17.5 92t7.5 68q0 10 -6 18t-21 8q-23 0 -34 -34.5t-31 -135.5q-2 -8 -5 -25.5t-6.5 -37t-6.5 -38.5t-3 -30z" />
<glyph unicode="&#xbb;" horiz-adv-x="1103" d="M23 96l335 414l-155 408h243l156 -412l-315 -410h-264zM442 96l336 414l-155 408h243l156 -412l-315 -410h-265z" />
<glyph unicode="&#xbc;" horiz-adv-x="1345" d="M162 -35l934 1497h166l-934 -1497h-166zM236 1118l38 207l162 100h174l-166 -852h-198l123 629zM719 117l29 145l296 590h187l-285 -571h78l37 172h180l-37 -172h51l-30 -164h-51l-23 -117h-180l22 117h-274z" />
<glyph unicode="&#xbd;" horiz-adv-x="1345" d="M125 -35l934 1497h166l-934 -1497h-166zM193 1118l38 207l162 100h174l-166 -852h-198l123 629zM754 0l30 158l306 379q23 29 36 63.5t13 50.5q0 12 -7.5 21.5t-23.5 9.5q-23 0 -41 -19.5t-25 -78.5l-186 24q25 129 99.5 189.5t172.5 60.5q94 0 153.5 -44t59.5 -130 q0 -63 -26.5 -114.5t-75.5 -120.5l-209 -269h201l-35 -180h-442z" />
<glyph unicode="&#xbe;" horiz-adv-x="1345" d="M110.5 699q-12.5 44 0.5 102l194 18q-10 -49 3.5 -61.5t23.5 -12.5q35 0 41 39l20 101q6 29 -11 39t-40 10h-45l29 156h59q23 0 38 10t19 35l19 84q2 10 -3 22t-30 12q-14 0 -34.5 -17t-24.5 -75l-185 27q25 121 87.5 182.5t177.5 61.5q117 0 165 -62.5t33 -181.5 q-8 -51 -31.5 -100.5t-76.5 -73.5q47 -18 51 -63.5t-10 -119.5q-12 -59 -30 -108t-48.5 -84t-75.5 -54.5t-111 -19.5q-49 0 -91 15.5t-71.5 45t-42 73.5zM193 -35l933 1497h166l-934 -1497h-165zM750 117l28 145l297 590h187l-285 -571h78l37 172h180l-37 -172h51l-31 -164 h-51l-22 -117h-181l23 117h-274z" />
<glyph unicode="&#xbf;" horiz-adv-x="806" d="M8 -117q0 68 10.5 120t27.5 93t38.5 75t44.5 62q63 82 99 130.5t54.5 79t26.5 53t17 53.5l18 76h272l-24 -125q-10 -57 -39 -110.5t-57 -94.5q-57 -80 -95.5 -128t-60 -84t-29.5 -67.5t-8 -78.5q0 -31 18.5 -56.5t59.5 -25.5q16 0 34.5 6t35 22.5t30 46t17.5 76.5 l260 -26q-12 -109 -45 -186t-85.5 -125t-123 -69.5t-158.5 -21.5q-156 0 -247 79t-91 226zM369 731l55 285h262l-55 -285h-262z" />
<glyph unicode="&#xc0;" horiz-adv-x="919" d="M-63 0l546 1425h340l-4 -1425h-291l11 279h-209l-97 -279h-296zM260 1690l158 190l327 -270l-100 -140zM420 541h129l16 227l27 289h-12l-88 -289z" />
<glyph unicode="&#xc1;" horiz-adv-x="919" d="M-63 0l546 1425h340l-4 -1425h-291l11 279h-209l-97 -279h-296zM420 541h129l16 227l27 289h-12l-88 -289zM557 1610l395 266l119 -190l-440 -216z" />
<glyph unicode="&#xc2;" horiz-adv-x="919" d="M-63 0l546 1425h340l-4 -1425h-291l11 279h-209l-97 -279h-296zM303 1579l332 297h162l207 -295l-117 -98l-201 176l-287 -176zM420 541h129l16 227l27 289h-12l-88 -289z" />
<glyph unicode="&#xc3;" horiz-adv-x="919" d="M-63 0l546 1425h340l-4 -1425h-291l11 279h-209l-97 -279h-296zM324 1583q63 111 121.5 147.5t111.5 36.5q31 0 59.5 -11t53 -23.5t46 -23.5t40.5 -11q12 0 23.5 1t24.5 7t29.5 20.5t38.5 38.5l119 -73q-53 -115 -113.5 -154t-115.5 -39q-35 0 -62.5 11.5t-51 24.5 t-45 24.5t-46.5 11.5q-23 0 -49.5 -13.5t-67.5 -60.5zM420 541h129l16 227l27 289h-12l-88 -289z" />
<glyph unicode="&#xc4;" horiz-adv-x="919" d="M-63 0l546 1425h340l-4 -1425h-291l11 279h-209l-97 -279h-296zM367 1493l51 266h241l-51 -266h-241zM420 541h129l16 227l27 289h-12l-88 -289zM723 1493l51 266h244l-51 -266h-244z" />
<glyph unicode="&#xc5;" horiz-adv-x="919" d="M-63 0l546 1425h78q-45 20 -72.5 59.5t-27.5 88.5t16.5 95t47 80t74.5 54.5t97 20.5q78 0 132.5 -47t54.5 -119q0 -78 -37 -140.5t-105 -91.5h82l-4 -1425h-291l11 279h-209l-97 -279h-296zM420 541h129l16 227l27 289h-12l-88 -289zM608 1602q0 -23 16.5 -37.5 t39.5 -14.5q29 0 51 20.5t22 53.5q0 23 -16 37t-39 14q-29 0 -51.5 -22.5t-22.5 -50.5z" />
<glyph unicode="&#xc6;" horiz-adv-x="1314" d="M-31 0l578 1425h874l-37 -266h-374l-41 -299h327l-39 -272h-327l-43 -320h375l-35 -268h-658l43 309h-225l-123 -309h-295zM492 575h157l82 580h-10z" />
<glyph unicode="&#xc7;" horiz-adv-x="874" d="M72 266q0 41 10 99l135 698q16 84 47 153.5t80 118.5t121 76t170 27q166 0 246 -82t80 -205q0 -45 -9 -80l-276 -47q2 10 3 19.5t1 19.5q0 47 -20.5 77.5t-57.5 30.5q-29 0 -47 -11t-31.5 -27.5t-20.5 -36t-9 -33.5l-142 -727q-2 -8 -2 -25q0 -23 13.5 -40t56.5 -17 q88 0 123 147l268 -36q-12 -84 -42 -153t-79 -119t-119.5 -77.5t-167.5 -27.5h-2l-32 -62q88 -12 118.5 -57t30.5 -90q0 -23 -8 -57.5t-32.5 -68.5t-71 -58.5t-123.5 -24.5q-8 0 -29 1t-48.5 5t-60 14.5t-65.5 26.5l63 119q43 -20 71 -25.5t50 -5.5q35 0 56.5 19.5 t21.5 46.5t-18.5 35t-49.5 8l-61 47l72 139q-213 47 -213 266z" />
<glyph unicode="&#xc8;" horiz-adv-x="806" d="M23 0l276 1425h653l-51 -266h-375l-59 -299h328l-54 -272h-327l-60 -322h375l-53 -266h-653zM326 1690l157 190l328 -270l-100 -140z" />
<glyph unicode="&#xc9;" horiz-adv-x="806" d="M23 0l276 1425h653l-51 -266h-375l-59 -299h328l-54 -272h-327l-60 -322h375l-53 -266h-653zM471 1610l395 266l119 -190l-440 -216z" />
<glyph unicode="&#xca;" horiz-adv-x="806" d="M23 0l276 1425h653l-51 -266h-375l-59 -299h328l-54 -272h-327l-60 -322h375l-53 -266h-653zM272 1579l332 297h162l207 -295l-117 -98l-201 176l-286 -176z" />
<glyph unicode="&#xcb;" horiz-adv-x="806" d="M23 0l276 1425h653l-51 -266h-375l-59 -299h328l-54 -272h-327l-60 -322h375l-53 -266h-653zM336 1493l51 266h242l-51 -266h-242zM692 1493l51 266h244l-51 -266h-244z" />
<glyph unicode="&#xcc;" horiz-adv-x="495" d="M27 0l276 1425h279l-277 -1425h-278zM74 1690l157 190l328 -270l-100 -140z" />
<glyph unicode="&#xcd;" horiz-adv-x="495" d="M27 0l276 1425h279l-277 -1425h-278zM397 1610l396 266l118 -190l-440 -216z" />
<glyph unicode="&#xce;" horiz-adv-x="495" d="M27 0l276 1425h279l-277 -1425h-278zM111 1579l331 297h162l207 -295l-117 -98l-200 176l-287 -176z" />
<glyph unicode="&#xcf;" horiz-adv-x="495" d="M27 0l276 1425h279l-277 -1425h-278zM154 1493l51 266h241l-51 -266h-241zM510 1493l51 266h244l-51 -266h-244z" />
<glyph unicode="&#xd0;" horiz-adv-x="913" d="M25 0l118 612h-90l33 176h90l125 637h336q127 0 209 -44t92 -148q4 -74 -10.5 -212t-48.5 -306q-35 -176 -59.5 -298t-65.5 -206q-63 -121 -156.5 -166t-202.5 -45h-370zM352 268h49q66 0 90.5 31t36.5 92q47 244 74 380t39 202.5t15 84t3 23.5q0 35 -18 52.5t-68 17.5 h-49l-71 -363h90l-35 -176h-90z" />
<glyph unicode="&#xd1;" horiz-adv-x="985" d="M16 0l277 1425h244l75 -442q6 -33 13.5 -79t13.5 -96t12 -97t8 -82h11l141 796h272l-276 -1425h-238l-84 451l-45 270h-10l-137 -721h-277zM373 1583q63 111 121.5 147.5t111.5 36.5q31 0 59.5 -11t53 -23.5t46 -23.5t40.5 -11q12 0 23.5 1t24.5 7t29.5 20.5t39.5 38.5 l118 -73q-53 -115 -113.5 -154t-115.5 -39q-35 0 -62.5 11.5t-51 24.5t-45 24.5t-46.5 11.5q-23 0 -49.5 -13.5t-67.5 -60.5z" />
<glyph unicode="&#xd2;" horiz-adv-x="911" d="M78 295q0 23 3 47.5t7 48.5l131 688q18 92 48 159t76 112t110.5 66.5t152.5 21.5q154 0 246 -78t92 -225q0 -53 -12 -111l-127 -676q-31 -168 -123 -264t-272 -96q-162 0 -247 84t-85 223zM319 1690l158 190l328 -270l-100 -140zM356 340q0 -76 72 -76q35 0 59.5 19.5 t34.5 68.5l135 697q4 10 4.5 19t0.5 19q0 39 -20.5 56.5t-51.5 17.5q-35 0 -59.5 -20.5t-34.5 -67.5l-136 -700q-2 -10 -3 -17.5t-1 -15.5z" />
<glyph unicode="&#xd3;" horiz-adv-x="911" d="M78 295q0 23 3 47.5t7 48.5l131 688q18 92 48 159t76 112t110.5 66.5t152.5 21.5q154 0 246 -78t92 -225q0 -53 -12 -111l-127 -676q-31 -168 -123 -264t-272 -96q-162 0 -247 84t-85 223zM356 340q0 -76 72 -76q35 0 59.5 19.5t34.5 68.5l135 697q4 10 4.5 19t0.5 19 q0 39 -20.5 56.5t-51.5 17.5q-35 0 -59.5 -20.5t-34.5 -67.5l-136 -700q-2 -10 -3 -17.5t-1 -15.5zM557 1610l395 266l119 -190l-440 -216z" />
<glyph unicode="&#xd4;" horiz-adv-x="911" d="M78 295q0 23 3 47.5t7 48.5l131 688q18 92 48 159t76 112t110.5 66.5t152.5 21.5q154 0 246 -78t92 -225q0 -53 -12 -111l-127 -676q-31 -168 -123 -264t-272 -96q-162 0 -247 84t-85 223zM301 1579l332 297h162l206 -295l-116 -98l-201 176l-287 -176zM356 340 q0 -76 72 -76q35 0 59.5 19.5t34.5 68.5l135 697q4 10 4.5 19t0.5 19q0 39 -20.5 56.5t-51.5 17.5q-35 0 -59.5 -20.5t-34.5 -67.5l-136 -700q-2 -10 -3 -17.5t-1 -15.5z" />
<glyph unicode="&#xd5;" horiz-adv-x="911" d="M78 295q0 23 3 47.5t7 48.5l131 688q18 92 48 159t76 112t110.5 66.5t152.5 21.5q154 0 246 -78t92 -225q0 -53 -12 -111l-127 -676q-31 -168 -123 -264t-272 -96q-162 0 -247 84t-85 223zM319 1583q63 111 122 147.5t112 36.5q31 0 59.5 -11t53 -23.5t46 -23.5t40.5 -11 q12 0 23 1t24.5 7t30 20.5t38.5 38.5l119 -73q-53 -115 -113.5 -154t-115.5 -39q-35 0 -62.5 11.5t-51 24.5t-45 24.5t-46.5 11.5q-23 0 -49.5 -13.5t-67.5 -60.5zM356 340q0 -76 72 -76q35 0 59.5 19.5t34.5 68.5l135 697q4 10 4.5 19t0.5 19q0 39 -20.5 56.5t-51.5 17.5 q-35 0 -59.5 -20.5t-34.5 -67.5l-136 -700q-2 -10 -3 -17.5t-1 -15.5z" />
<glyph unicode="&#xd6;" horiz-adv-x="911" d="M78 295q0 23 3 47.5t7 48.5l131 688q18 92 48 159t76 112t110.5 66.5t152.5 21.5q154 0 246 -78t92 -225q0 -53 -12 -111l-127 -676q-31 -168 -123 -264t-272 -96q-162 0 -247 84t-85 223zM356 340q0 -76 72 -76q35 0 59.5 19.5t34.5 68.5l135 697q4 10 4.5 19t0.5 19 q0 39 -20.5 56.5t-51.5 17.5q-35 0 -59.5 -20.5t-34.5 -67.5l-136 -700q-2 -10 -3 -17.5t-1 -15.5zM356 1493l52 266h241l-51 -266h-242zM713 1493l51 266h244l-52 -266h-243z" />
<glyph unicode="&#xd7;" horiz-adv-x="880" d="M12 367l307 245l-200 262l180 150l203 -262l305 248l131 -174l-303 -246l199 -262l-183 -150l-202 262l-306 -245z" />
<glyph unicode="&#xd8;" horiz-adv-x="911" d="M35 25l76 116q-33 63 -33 154q0 23 3 47.5t7 48.5l131 688q18 92 48 159t76 112t110.5 66.5t152.5 21.5q96 0 168 -31t115 -90l80 121l63 -41l-104 -156q16 -49 16 -106q0 -53 -12 -111l-127 -676q-31 -168 -123 -264t-272 -96q-86 0 -149.5 24.5t-106.5 67.5l-62 -92z M356 340q0 -76 72 -76q35 0 59.5 19.5t34.5 68.5l76 396l-233 -353l-5 -22q-2 -10 -3 -17.5t-1 -15.5zM399 575l236 357l22 117q4 10 4.5 19t0.5 19q0 39 -20.5 56.5t-51.5 17.5q-35 0 -59.5 -20.5t-34.5 -67.5z" />
<glyph unicode="&#xd9;" horiz-adv-x="911" d="M79.5 200.5q-18.5 69.5 0.5 161.5l207 1063h278l-209 -1060q-10 -49 13.5 -75t58.5 -26t59.5 19.5t34.5 68.5l209 1073h283l-209 -1077q-72 -360 -399 -360q-82 0 -150 24.5t-113 71.5t-63.5 116.5zM336 1690l158 190l327 -270l-100 -140z" />
<glyph unicode="&#xda;" horiz-adv-x="911" d="M79.5 200.5q-18.5 69.5 0.5 161.5l207 1063h278l-209 -1060q-10 -49 13.5 -75t58.5 -26t59.5 19.5t34.5 68.5l209 1073h283l-209 -1077q-72 -360 -399 -360q-82 0 -150 24.5t-113 71.5t-63.5 116.5zM557 1610l395 266l119 -190l-440 -216z" />
<glyph unicode="&#xdb;" horiz-adv-x="911" d="M79.5 200.5q-18.5 69.5 0.5 161.5l207 1063h278l-209 -1060q-10 -49 13.5 -75t58.5 -26t59.5 19.5t34.5 68.5l209 1073h283l-209 -1077q-72 -360 -399 -360q-82 0 -150 24.5t-113 71.5t-63.5 116.5zM313 1579l332 297h162l207 -295l-117 -98l-201 176l-286 -176z" />
<glyph unicode="&#xdc;" horiz-adv-x="911" d="M79.5 200.5q-18.5 69.5 0.5 161.5l207 1063h278l-209 -1060q-10 -49 13.5 -75t58.5 -26t59.5 19.5t34.5 68.5l209 1073h283l-209 -1077q-72 -360 -399 -360q-82 0 -150 24.5t-113 71.5t-63.5 116.5zM371 1493l51 266h242l-52 -266h-241zM727 1493l51 266h244l-51 -266 h-244z" />
<glyph unicode="&#xdd;" horiz-adv-x="847" d="M201 1425h288l11 -282q2 -68 5 -121t1 -129h16l211 532h303l-444 -866l-109 -559h-280l108 559zM512 1610l395 266l119 -190l-440 -216z" />
<glyph unicode="&#xde;" horiz-adv-x="876" d="M23 0l276 1425h276l-49 -247h54q150 0 242.5 -68t92.5 -229q0 -127 -29.5 -236.5t-91 -192.5t-153.5 -130.5t-217 -47.5h-70l-53 -274h-278zM406 543h43q31 0 65.5 15t62 47t46 80t18.5 114q0 61 -29.5 86.5t-83.5 25.5h-51z" />
<glyph unicode="&#xdf;" horiz-adv-x="878" d="M14 0l222 1147q14 74 43.5 136.5t78 107.5t114 70.5t151.5 25.5q102 0 164.5 -32t93 -87t35 -128t-12.5 -155q-10 -55 -43 -112.5t-92 -85.5l-4 -8q59 -37 74.5 -98.5t1.5 -135.5q-25 -139 -44.5 -258t-56.5 -208t-100.5 -139t-175.5 -50q-23 0 -47.5 2t-53.5 8l46 233 q27 0 52 17.5t34 58.5l63 326q12 66 -2 91.5t-55 35.5l43 219q37 4 54 31.5t26 74.5q10 55 12 68.5t2 18.5q0 20 -10.5 34.5t-38.5 14.5q-31 0 -49.5 -26t-22.5 -50l-221 -1147h-281z" />
<glyph unicode="&#xe0;" horiz-adv-x="821" d="M35 170q0 66 11 163t38 226q23 117 50.5 204t66.5 145.5t93 87t128 28.5q35 0 75 -17.5t62 -70.5l8 4l19 72h278l-196 -1012h-277l17 80h-11q-37 -51 -88 -72.5t-80 -21.5q-113 0 -153.5 52t-40.5 132zM258 1497l199 107l198 -435l-133 -69zM328 287q0 -37 45 -41 q18 0 40.5 18.5t39.5 89.5l55 285q4 14 6 28.5t2 30.5q0 23 -10 40.5t-41 17.5q-23 0 -38 -14.5t-19 -30.5q-6 -12 -19.5 -64.5t-27 -119t-23.5 -133t-10 -107.5z" />
<glyph unicode="&#xe1;" horiz-adv-x="821" d="M35 170q0 66 11 163t38 226q23 117 50.5 204t66.5 145.5t93 87t128 28.5q35 0 75 -17.5t62 -70.5l8 4l19 72h278l-196 -1012h-277l17 80h-11q-37 -51 -88 -72.5t-80 -21.5q-113 0 -153.5 52t-40.5 132zM328 287q0 -37 45 -41q18 0 40.5 18.5t39.5 89.5l55 285 q4 14 6 28.5t2 30.5q0 23 -10 40.5t-41 17.5q-23 0 -38 -14.5t-19 -30.5q-6 -12 -19.5 -64.5t-27 -119t-23.5 -133t-10 -107.5zM492 1176l278 380l201 -110l-348 -359z" />
<glyph unicode="&#xe2;" horiz-adv-x="821" d="M35 170q0 66 11 163t38 226q23 117 50.5 204t66.5 145.5t93 87t128 28.5q35 0 75 -17.5t62 -70.5l8 4l19 72h278l-196 -1012h-277l17 80h-11q-37 -51 -88 -72.5t-80 -21.5q-113 0 -153.5 52t-40.5 132zM219 1151l338 326h162l207 -347l-117 -67l-203 207l-299 -215z M328 287q0 -37 45 -41q18 0 40.5 18.5t39.5 89.5l55 285q4 14 6 28.5t2 30.5q0 23 -10 40.5t-41 17.5q-23 0 -38 -14.5t-19 -30.5q-6 -12 -19.5 -64.5t-27 -119t-23.5 -133t-10 -107.5z" />
<glyph unicode="&#xe3;" horiz-adv-x="821" d="M35 170q0 66 11 163t38 226q23 117 50.5 204t66.5 145.5t93 87t128 28.5q35 0 75 -17.5t62 -70.5l8 4l19 72h278l-196 -1012h-277l17 80h-11q-37 -51 -88 -72.5t-80 -21.5q-113 0 -153.5 52t-40.5 132zM264 1214q63 111 122 148t112 37q31 0 59.5 -11.5t53 -23.5 t46 -23.5t39.5 -11.5q12 0 23.5 1t25 7t30 20.5t38.5 39.5l119 -74q-53 -115 -113.5 -154t-116.5 -39q-35 0 -62.5 11.5t-51 25t-45 24.5t-45.5 11q-23 0 -49.5 -13t-67.5 -61zM328 287q0 -37 45 -41q18 0 40.5 18.5t39.5 89.5l55 285q4 14 6 28.5t2 30.5q0 23 -10 40.5 t-41 17.5q-23 0 -38 -14.5t-19 -30.5q-6 -12 -19.5 -64.5t-27 -119t-23.5 -133t-10 -107.5z" />
<glyph unicode="&#xe4;" horiz-adv-x="821" d="M35 170q0 66 11 163t38 226q23 117 50.5 204t66.5 145.5t93 87t128 28.5q35 0 75 -17.5t62 -70.5l8 4l19 72h278l-196 -1012h-277l17 80h-11q-37 -51 -88 -72.5t-80 -21.5q-113 0 -153.5 52t-40.5 132zM281 1120l51 266h241l-51 -266h-241zM328 287q0 -37 45 -41 q18 0 40.5 18.5t39.5 89.5l55 285q4 14 6 28.5t2 30.5q0 23 -10 40.5t-41 17.5q-23 0 -38 -14.5t-19 -30.5q-6 -12 -19.5 -64.5t-27 -119t-23.5 -133t-10 -107.5zM637 1120l51 266h244l-51 -266h-244z" />
<glyph unicode="&#xe5;" horiz-adv-x="821" d="M35 170q0 66 11 163t38 226q23 117 50.5 204t66.5 145.5t93 87t128 28.5q35 0 75 -17.5t62 -70.5l8 4l19 72h278l-196 -1012h-277l17 80h-11q-37 -51 -88 -72.5t-80 -21.5q-113 0 -153.5 52t-40.5 132zM328 287q0 -37 45 -41q18 0 40.5 18.5t39.5 89.5l55 285 q4 14 6 28.5t2 30.5q0 23 -10 40.5t-41 17.5q-23 0 -38 -14.5t-19 -30.5q-6 -12 -19.5 -64.5t-27 -119t-23.5 -133t-10 -107.5zM377 1229q0 49 16.5 95t47 80t74.5 54.5t97 20.5q78 0 132.5 -47.5t54.5 -118.5q0 -49 -15.5 -95.5t-46 -80t-75 -54t-99.5 -20.5q-78 0 -132 47 t-54 119zM524 1257q0 -23 16.5 -37t39.5 -14q29 0 51 20.5t22 53.5q0 23 -16 37t-39 14q-29 0 -51.5 -22.5t-22.5 -51.5z" />
<glyph unicode="&#xe6;" horiz-adv-x="1280" d="M23 188q0 70 15 147t61 139.5t133 103t229 40.5h23.5t23.5 -2l16 86q2 8 2 23q0 18 -12 29.5t-43 11.5q-20 0 -45 -12.5t-47 -65.5l-229 76q59 135 158.5 198.5t240.5 63.5q57 0 102 -13.5t74 -41.5q43 29 97.5 44t125.5 15q147 0 230.5 -67.5t83.5 -184.5 q0 -100 -35 -170.5t-93.5 -116t-133 -65.5t-156.5 -20q-18 0 -37 1t-37 3q-8 -29 -11 -54.5t-3 -42.5q2 -27 10 -45t35 -18q29 0 50 17.5t34 60.5l276 -31q-43 -154 -138 -231.5t-259 -77.5q-100 0 -162.5 32.5t-95.5 94.5q-37 -45 -78 -71t-79 -38t-70.5 -15t-53.5 -3 q-115 0 -158.5 55t-43.5 145zM311 301q0 -29 16.5 -41t43.5 -12q33 0 53 24.5t29 63.5l18 90h-25q-135 0 -135 -125zM813 627h23q63 0 98 26.5t35 79.5q0 39 -47 39q-43 0 -70 -38t-39 -107z" />
<glyph unicode="&#xe7;" horiz-adv-x="780" d="M53 225q-4 51 5.5 127t19.5 150q14 92 38.5 187t57.5 157q41 80 122 132t204 52q76 0 136 -21.5t98 -63.5t52.5 -103.5t-0.5 -141.5l-278 -30q10 53 0 76.5t-33 23.5q-35 0 -55 -41q-10 -16 -25.5 -74.5t-32.5 -144.5q-16 -86 -23 -138.5t-7 -76.5q4 -45 41 -45 q23 0 42 20.5t29 71.5l271 -35q-29 -141 -115 -225t-225 -92l-33 -64q88 -12 119 -57t31 -90q0 -23 -8.5 -57.5t-33 -68.5t-70.5 -58.5t-124 -24.5q-8 0 -28.5 1t-48 5t-60.5 14.5t-66 26.5l64 119q43 -20 70.5 -25.5t50.5 -5.5q35 0 56 19.5t21 46.5t-18 35t-49 8l-62 47 l70 135q-106 23 -152.5 87t-50.5 142z" />
<glyph unicode="&#xe8;" horiz-adv-x="835" d="M51 303q0 53 6 106.5t17 102.5q16 92 40.5 184t68.5 167t114 121t178 46q147 0 230 -67.5t83 -184.5q0 -102 -31.5 -172.5t-86 -115t-126 -63.5t-151.5 -19h-25.5t-27.5 2q-8 -29 -11 -61t-3 -48q2 -51 41 -51q29 0 46 17.5t29 60.5l279 -31q-16 -68 -43 -124t-69 -98 t-102.5 -64.5t-146.5 -22.5q-92 0 -152.5 25.5t-95 69.5t-48 101.5t-13.5 118.5zM281 1497l198 107l199 -435l-133 -69zM379 627q76 0 105.5 24.5t29.5 77.5q0 16 -11 29.5t-34 13.5q-39 0 -58.5 -38t-31.5 -107z" />
<glyph unicode="&#xe9;" horiz-adv-x="835" d="M51 303q0 53 6 106.5t17 102.5q16 92 40.5 184t68.5 167t114 121t178 46q147 0 230 -67.5t83 -184.5q0 -102 -31.5 -172.5t-86 -115t-126 -63.5t-151.5 -19h-25.5t-27.5 2q-8 -29 -11 -61t-3 -48q2 -51 41 -51q29 0 46 17.5t29 60.5l279 -31q-16 -68 -43 -124t-69 -98 t-102.5 -64.5t-146.5 -22.5q-92 0 -152.5 25.5t-95 69.5t-48 101.5t-13.5 118.5zM379 627q76 0 105.5 24.5t29.5 77.5q0 16 -11 29.5t-34 13.5q-39 0 -58.5 -38t-31.5 -107zM428 1176l279 380l200 -110l-348 -359z" />
<glyph unicode="&#xea;" horiz-adv-x="835" d="M51 303q0 53 6 106.5t17 102.5q16 92 40.5 184t68.5 167t114 121t178 46q147 0 230 -67.5t83 -184.5q0 -102 -31.5 -172.5t-86 -115t-126 -63.5t-151.5 -19h-25.5t-27.5 2q-8 -29 -11 -61t-3 -48q2 -51 41 -51q29 0 46 17.5t29 60.5l279 -31q-16 -68 -43 -124t-69 -98 t-102.5 -64.5t-146.5 -22.5q-92 0 -152.5 25.5t-95 69.5t-48 101.5t-13.5 118.5zM178 1151l338 326h162l207 -347l-117 -67l-203 207l-299 -215zM379 627q76 0 105.5 24.5t29.5 77.5q0 16 -11 29.5t-34 13.5q-39 0 -58.5 -38t-31.5 -107z" />
<glyph unicode="&#xeb;" horiz-adv-x="835" d="M51 303q0 53 6 106.5t17 102.5q16 92 40.5 184t68.5 167t114 121t178 46q147 0 230 -67.5t83 -184.5q0 -102 -31.5 -172.5t-86 -115t-126 -63.5t-151.5 -19h-25.5t-27.5 2q-8 -29 -11 -61t-3 -48q2 -51 41 -51q29 0 46 17.5t29 60.5l279 -31q-16 -68 -43 -124t-69 -98 t-102.5 -64.5t-146.5 -22.5q-92 0 -152.5 25.5t-95 69.5t-48 101.5t-13.5 118.5zM240 1120l51 266h241l-51 -266h-241zM379 627q76 0 105.5 24.5t29.5 77.5q0 16 -11 29.5t-34 13.5q-39 0 -58.5 -38t-31.5 -107zM596 1120l51 266h244l-51 -266h-244z" />
<glyph unicode="&#xec;" horiz-adv-x="626" d="M152 0l196 1012h281l-197 -1012h-280zM174 1497l199 107l198 -435l-133 -69z" />
<glyph unicode="&#xed;" horiz-adv-x="552" d="M10 0l197 1012h280l-196 -1012h-281zM317 1176l279 380l201 -110l-348 -359z" />
<glyph unicode="&#xee;" horiz-adv-x="618" d="M92 0l197 1012h280l-196 -1012h-281zM106 1151l338 326h162l207 -347l-117 -67l-202 207l-299 -215z" />
<glyph unicode="&#xef;" horiz-adv-x="618" d="M92 0l197 1012h280l-196 -1012h-281zM154 1120l51 266h241l-51 -266h-241zM510 1120l51 266h244l-51 -266h-244z" />
<glyph unicode="&#xf0;" horiz-adv-x="819" d="M49 262q0 49 11.5 123t28.5 151.5t39 148.5t44 118q41 86 106.5 129t151.5 43q12 0 35.5 -3t50.5 -13.5t51.5 -28t38.5 -43.5q8 41 12.5 81t4.5 74v41t-2 39l-107 -69l-51 88l125 82q-23 33 -67 50t-124 27l47 199q127 -8 205 -43t113 -70q6 -8 13 -15t13 -17l127 84 l54 -88l-131 -86q8 -29 13 -63t5 -79q0 -35 -3 -89t-12.5 -133t-26.5 -185.5t-44 -245.5q-20 -106 -51 -197.5t-80 -157t-118.5 -100t-168.5 -28.5q-86 4 -144 31.5t-93 66.5t-50.5 86t-15.5 92zM330 307q0 -25 9 -41t38 -16t42 17.5t17 27.5q4 14 18.5 69.5t28.5 118.5 q12 55 20.5 104.5t8.5 76.5q0 20 -12.5 33.5t-32.5 13.5q-23 0 -37 -10.5t-26.5 -36t-22.5 -69.5t-23 -112q-4 -18 -8 -40.5t-9 -47t-8 -48t-3 -40.5z" />
<glyph unicode="&#xf1;" horiz-adv-x="845" d="M4 0l197 1014h280l-22 -96l10 -3q35 49 93.5 80t105.5 31q55 0 89 -13.5t52 -37t24.5 -54t6.5 -65.5q0 -23 -4.5 -48.5t-8.5 -49.5l-145 -758h-281l134 686q2 10 2 27q0 27 -12.5 37t-30.5 10q-35 0 -55.5 -29t-28.5 -67l-125 -664h-281zM244 1214q63 111 121.5 148 t111.5 37q31 0 59.5 -11.5t53 -23.5t46 -23.5t40.5 -11.5q12 0 23.5 1t24.5 7t29.5 20.5t39.5 39.5l118 -74q-53 -115 -113.5 -154t-115.5 -39q-35 0 -62.5 11.5t-51 25t-45 24.5t-46.5 11q-23 0 -49.5 -13t-67.5 -61z" />
<glyph unicode="&#xf2;" horiz-adv-x="821" d="M55 262q0 55 7.5 114.5t19.5 125.5q10 49 21.5 100t23.5 99.5t27.5 90.5t31.5 70q47 84 128.5 126t181.5 42q80 0 138 -22.5t96 -60.5t55.5 -86t17.5 -99q0 -33 -3 -73t-9.5 -81t-12.5 -82t-12 -73q-25 -121 -53.5 -209t-73.5 -145.5t-111.5 -85t-165.5 -27.5 q-84 0 -142 25.5t-95 65.5t-53.5 89t-16.5 96zM229 1497l199 107l199 -435l-133 -69zM336 307q0 -25 9 -41t38 -16q23 0 39 14.5t20 30.5q4 8 12.5 37.5t17.5 71.5t18.5 89.5t17.5 92.5t13 82t5 55q0 20 -11.5 33.5t-31.5 13.5q-23 0 -37 -8t-25 -32.5t-22.5 -70 t-25.5 -116.5l-29 -162q-4 -23 -6 -40t-2 -34z" />
<glyph unicode="&#xf3;" horiz-adv-x="821" d="M55 262q0 55 7.5 114.5t19.5 125.5q10 49 21.5 100t23.5 99.5t27.5 90.5t31.5 70q47 84 128.5 126t181.5 42q80 0 138 -22.5t96 -60.5t55.5 -86t17.5 -99q0 -33 -3 -73t-9.5 -81t-12.5 -82t-12 -73q-25 -121 -53.5 -209t-73.5 -145.5t-111.5 -85t-165.5 -27.5 q-84 0 -142 25.5t-95 65.5t-53.5 89t-16.5 96zM336 307q0 -25 9 -41t38 -16q23 0 39 14.5t20 30.5q4 8 12.5 37.5t17.5 71.5t18.5 89.5t17.5 92.5t13 82t5 55q0 20 -11.5 33.5t-31.5 13.5q-23 0 -37 -8t-25 -32.5t-22.5 -70t-25.5 -116.5l-29 -162q-4 -23 -6 -40t-2 -34z M410 1176l278 380l201 -110l-348 -359z" />
<glyph unicode="&#xf4;" horiz-adv-x="821" d="M55 262q0 55 7.5 114.5t19.5 125.5q10 49 21.5 100t23.5 99.5t27.5 90.5t31.5 70q47 84 128.5 126t181.5 42q80 0 138 -22.5t96 -60.5t55.5 -86t17.5 -99q0 -33 -3 -73t-9.5 -81t-12.5 -82t-12 -73q-25 -121 -53.5 -209t-73.5 -145.5t-111.5 -85t-165.5 -27.5 q-84 0 -142 25.5t-95 65.5t-53.5 89t-16.5 96zM174 1151l338 326h162l207 -347l-117 -67l-203 207l-299 -215zM336 307q0 -25 9 -41t38 -16q23 0 39 14.5t20 30.5q4 8 12.5 37.5t17.5 71.5t18.5 89.5t17.5 92.5t13 82t5 55q0 20 -11.5 33.5t-31.5 13.5q-23 0 -37 -8 t-25 -32.5t-22.5 -70t-25.5 -116.5l-29 -162q-4 -23 -6 -40t-2 -34z" />
<glyph unicode="&#xf5;" horiz-adv-x="821" d="M55 262q0 55 7.5 114.5t19.5 125.5q10 49 21.5 100t23.5 99.5t27.5 90.5t31.5 70q47 84 128.5 126t181.5 42q80 0 138 -22.5t96 -60.5t55.5 -86t17.5 -99q0 -33 -3 -73t-9.5 -81t-12.5 -82t-12 -73q-25 -121 -53.5 -209t-73.5 -145.5t-111.5 -85t-165.5 -27.5 q-84 0 -142 25.5t-95 65.5t-53.5 89t-16.5 96zM211 1214q63 111 121.5 148t111.5 37q31 0 59.5 -11.5t53.5 -23.5t46.5 -23.5t39.5 -11.5q12 0 23.5 1t25 7t29.5 20.5t39 39.5l119 -74q-53 -115 -113.5 -154t-116.5 -39q-35 0 -62.5 11.5t-51 25t-45 24.5t-46.5 11 q-23 0 -49 -13t-67 -61zM336 307q0 -25 9 -41t38 -16q23 0 39 14.5t20 30.5q4 8 12.5 37.5t17.5 71.5t18.5 89.5t17.5 92.5t13 82t5 55q0 20 -11.5 33.5t-31.5 13.5q-23 0 -37 -8t-25 -32.5t-22.5 -70t-25.5 -116.5l-29 -162q-4 -23 -6 -40t-2 -34z" />
<glyph unicode="&#xf6;" horiz-adv-x="821" d="M55 262q0 55 7.5 114.5t19.5 125.5q10 49 21.5 100t23.5 99.5t27.5 90.5t31.5 70q47 84 128.5 126t181.5 42q80 0 138 -22.5t96 -60.5t55.5 -86t17.5 -99q0 -33 -3 -73t-9.5 -81t-12.5 -82t-12 -73q-25 -121 -53.5 -209t-73.5 -145.5t-111.5 -85t-165.5 -27.5 q-84 0 -142 25.5t-95 65.5t-53.5 89t-16.5 96zM221 1120l51 266h242l-51 -266h-242zM336 307q0 -25 9 -41t38 -16q23 0 39 14.5t20 30.5q4 8 12.5 37.5t17.5 71.5t18.5 89.5t17.5 92.5t13 82t5 55q0 20 -11.5 33.5t-31.5 13.5q-23 0 -37 -8t-25 -32.5t-22.5 -70 t-25.5 -116.5l-29 -162q-4 -23 -6 -40t-2 -34zM578 1120l51 266h243l-51 -266h-243z" />
<glyph unicode="&#xf7;" horiz-adv-x="880" d="M51 485l41 220h797l-41 -220h-797zM254 217q0 35 15.5 68.5t41 59.5t59 41t68.5 15q55 0 90 -35.5t35 -89.5q0 -35 -16.5 -68.5t-42 -59t-59 -41t-68.5 -15.5q-55 0 -89 36t-34 89zM391 922q0 37 15.5 69.5t41 57t58 40t67.5 15.5q55 0 91 -36t36 -89q0 -35 -16 -67.5 t-42 -58.5t-59.5 -41t-68.5 -15q-55 0 -89 35.5t-34 89.5z" />
<glyph unicode="&#xf8;" horiz-adv-x="821" d="M41 -31l74 117q-31 39 -45.5 85t-14.5 91q0 55 7.5 114.5t19.5 125.5q10 49 21.5 100t23.5 99.5t27.5 90.5t31.5 70q47 84 128.5 126t181.5 42q59 0 107 -13t83 -36l84 129l53 -33l-88 -137q35 -37 51.5 -84t16.5 -94q0 -33 -3 -73t-9.5 -81t-12.5 -82t-12 -73 q-25 -121 -53.5 -209t-73.5 -145.5t-111.5 -85t-165.5 -27.5q-66 0 -115.5 15t-84.5 42l-68 -106zM336 307q0 -25 9 -41t38 -16q23 0 39 14.5t20 30.5q4 8 11.5 36.5t16.5 70.5t19.5 89.5t18.5 92.5l-172 -269v-8zM360 469l166 260q-2 16 -13.5 28.5t-29.5 12.5 q-23 0 -37 -8t-25 -32.5t-22.5 -70t-25.5 -116.5z" />
<glyph unicode="&#xf9;" horiz-adv-x="845" d="M43 160q4 47 14 96l146 758h280l-133 -686q-6 -29 3 -51.5t38 -22.5q25 0 50.5 28.5t33.5 67.5l125 664h281l-197 -1014h-281l23 96l-10 2q-35 -49 -93.5 -79.5t-105.5 -30.5q-74 0 -111.5 23.5t-52 62.5t-10.5 86zM248 1497l198 107l199 -435l-133 -69z" />
<glyph unicode="&#xfa;" horiz-adv-x="845" d="M43 160q4 47 14 96l146 758h280l-133 -686q-6 -29 3 -51.5t38 -22.5q25 0 50.5 28.5t33.5 67.5l125 664h281l-197 -1014h-281l23 96l-10 2q-35 -49 -93.5 -79.5t-105.5 -30.5q-74 0 -111.5 23.5t-52 62.5t-10.5 86zM479 1176l279 380l200 -110l-348 -359z" />
<glyph unicode="&#xfb;" horiz-adv-x="845" d="M43 160q4 47 14 96l146 758h280l-133 -686q-6 -29 3 -51.5t38 -22.5q25 0 50.5 28.5t33.5 67.5l125 664h281l-197 -1014h-281l23 96l-10 2q-35 -49 -93.5 -79.5t-105.5 -30.5q-74 0 -111.5 23.5t-52 62.5t-10.5 86zM195 1151l337 326h162l207 -347l-117 -67l-202 207 l-299 -215z" />
<glyph unicode="&#xfc;" horiz-adv-x="845" d="M43 160q4 47 14 96l146 758h280l-133 -686q-6 -29 3 -51.5t38 -22.5q25 0 50.5 28.5t33.5 67.5l125 664h281l-197 -1014h-281l23 96l-10 2q-35 -49 -93.5 -79.5t-105.5 -30.5q-74 0 -111.5 23.5t-52 62.5t-10.5 86zM258 1120l51 266h242l-51 -266h-242zM614 1120l52 266 h243l-51 -266h-244z" />
<glyph unicode="&#xfd;" horiz-adv-x="784" d="M-113 -172q94 8 153.5 49t119.5 146l-56 989h293l-10 -318q-2 -25 -4 -64.5t-6 -82.5t-9.5 -86t-11.5 -74h11q59 135 108 285.5t103 339.5h294q-106 -307 -223 -576.5t-231 -480.5q-43 -80 -95.5 -149.5t-116 -118.5t-141 -77t-174.5 -24zM420 1176l278 380l201 -110 l-348 -359z" />
<glyph unicode="&#xfe;" horiz-adv-x="821" d="M-90 -395l358 1818h277l-99 -483l9 -4q18 27 41.5 45t48 27.5t48 13.5t42.5 4q94 0 141 -46t47 -157q0 -16 -1 -33.5t-3 -37.5q-4 -31 -14 -107t-26.5 -164t-37 -174t-43.5 -137q-12 -29 -29.5 -60.5t-47 -60.5t-73 -47t-106.5 -18q-27 0 -76 13t-75 48h-10l-91 -440 h-280zM334 301q0 -23 11 -36t34 -13q20 0 36.5 13.5t24.5 33.5q6 18 15.5 54t17.5 79t17.5 90t15.5 87t10 68t4 34v6q0 16 -11 27.5t-32 11.5q-25 0 -39 -10.5t-24.5 -34t-18.5 -63.5t-20 -101l-4 -23q-14 -78 -25.5 -137t-11.5 -86z" />
<glyph unicode="&#xff;" horiz-adv-x="784" d="M-113 -172q94 8 153.5 49t119.5 146l-56 989h293l-10 -318q-2 -25 -4 -64.5t-6 -82.5t-9.5 -86t-11.5 -74h11q59 135 108 285.5t103 339.5h294q-106 -307 -223 -576.5t-231 -480.5q-43 -80 -95.5 -149.5t-116 -118.5t-141 -77t-174.5 -24zM215 1120l51 266h242l-51 -266 h-242zM571 1120l52 266h243l-51 -266h-244z" />
<glyph unicode="&#x100;" horiz-adv-x="919" d="M-63 0l546 1425h340l-4 -1425h-291l11 279h-209l-97 -279h-296zM391 1526l45 225h516l-45 -225h-516zM420 541h129l16 227l27 289h-12l-88 -289z" />
<glyph unicode="&#x101;" horiz-adv-x="821" d="M35 170q0 66 11 163t38 226q23 117 50.5 204t66.5 145.5t93 87t128 28.5q35 0 75 -17.5t62 -70.5l8 4l19 72h278l-196 -1012h-277l17 80h-11q-37 -51 -88 -72.5t-80 -21.5q-113 0 -153.5 52t-40.5 132zM322 1159l43 225h516l-43 -225h-516zM328 287q0 -37 45 -41 q18 0 40.5 18.5t39.5 89.5l55 285q4 14 6 28.5t2 30.5q0 23 -10 40.5t-41 17.5q-23 0 -38 -14.5t-19 -30.5q-6 -12 -19.5 -64.5t-27 -119t-23.5 -133t-10 -107.5z" />
<glyph unicode="&#x102;" horiz-adv-x="919" d="M-63 0l546 1425h340l-4 -1425h-291l11 279h-209l-97 -279h-296zM373 1843h200q-2 -6 -2 -13v-13q0 -63 33 -97t80 -34q31 0 57.5 15t47 38.5t35 51.5t20.5 52h219q-18 -61 -49 -120.5t-78 -105.5t-112.5 -75t-151.5 -29q-92 0 -152.5 30t-94.5 77t-46 105.5t-6 117.5z M420 541h129l16 227l27 289h-12l-88 -289z" />
<glyph unicode="&#x103;" horiz-adv-x="821" d="M35 170q0 66 11 163t38 226q23 117 50.5 204t66.5 145.5t93 87t128 28.5q35 0 75 -17.5t62 -70.5l8 4l19 72h278l-196 -1012h-277l17 80h-11q-37 -51 -88 -72.5t-80 -21.5q-113 0 -153.5 52t-40.5 132zM287 1434h200q-2 -6 -2 -13.5v-13.5q0 -63 33 -97t80 -34 q31 0 57.5 15.5t47 39t35 51t20.5 52.5h219q-18 -61 -49 -121t-78 -106t-112.5 -74.5t-151.5 -28.5q-92 0 -152.5 29.5t-94.5 76.5t-46 105.5t-6 118.5zM328 287q0 -37 45 -41q18 0 40.5 18.5t39.5 89.5l55 285q4 14 6 28.5t2 30.5q0 23 -10 40.5t-41 17.5q-23 0 -38 -14.5 t-19 -30.5q-6 -12 -19.5 -64.5t-27 -119t-23.5 -133t-10 -107.5z" />
<glyph unicode="&#x104;" horiz-adv-x="919" d="M-63 0l546 1425h340l-4 -1425h-145q-39 -49 -60.5 -91t-32 -73t-12.5 -48l-2 -17q0 -33 21.5 -49.5t54.5 -16.5q20 0 43 5t70 20l26 -133q-53 -31 -111.5 -43.5t-105.5 -12.5q-78 0 -129 42t-51 136q0 51 36 124t107 159l11 277h-209l-97 -279h-296zM420 541h129l16 227 l27 289h-12l-88 -289z" />
<glyph unicode="&#x105;" horiz-adv-x="821" d="M35 170q0 66 11 163t38 226q23 117 50.5 204t66.5 145.5t93 87t128 28.5q35 0 75 -17.5t62 -70.5l8 4l19 72h278l-196 -1012h-144q-39 -49 -60.5 -91t-31.5 -73t-12 -48l-2 -17q0 -33 21.5 -49.5t54.5 -16.5q20 0 42.5 5t69.5 20l27 -133q-53 -31 -111.5 -43.5 t-105.5 -12.5q-78 0 -129 42t-51 136q0 53 39.5 130t117.5 169h2l13 62h-11q-37 -51 -88 -72.5t-80 -21.5q-113 0 -153.5 52t-40.5 132zM328 287q0 -37 45 -41q18 0 40.5 18.5t39.5 89.5l55 285q4 14 6 28.5t2 30.5q0 23 -10 40.5t-41 17.5q-23 0 -38 -14.5t-19 -30.5 q-6 -12 -19.5 -64.5t-27 -119t-23.5 -133t-10 -107.5z" />
<glyph unicode="&#x106;" horiz-adv-x="874" d="M72 266q0 41 10 99l135 698q16 84 47 153.5t80 118.5t121 76t170 27q166 0 246 -82t80 -205q0 -45 -9 -80l-276 -47q2 10 3 19.5t1 19.5q0 47 -20.5 77.5t-57.5 30.5q-29 0 -47 -11t-31.5 -27.5t-20.5 -36t-9 -33.5l-142 -727q-2 -8 -2 -25q0 -23 13.5 -40t56.5 -17 q88 0 123 147l268 -36q-12 -84 -42 -153t-79 -119t-119.5 -77.5t-167.5 -27.5q-164 0 -247.5 71.5t-83.5 206.5zM522 1610l396 266l118 -190l-440 -216z" />
<glyph unicode="&#x107;" horiz-adv-x="780" d="M53 225q-4 51 5.5 127t19.5 150q14 92 38.5 187t57.5 157q41 80 122 132t204 52q76 0 136 -21.5t98 -63.5t52.5 -103.5t-0.5 -141.5l-278 -30q10 53 0 76.5t-33 23.5q-35 0 -55 -41q-10 -16 -25.5 -74.5t-32.5 -144.5q-16 -86 -23 -138.5t-7 -76.5q4 -45 41 -45 q23 0 42 20.5t29 71.5l271 -35q-29 -150 -123 -234.5t-246 -84.5q-78 0 -132 20.5t-89 53t-52.5 75.5t-19.5 88zM410 1176l278 380l201 -110l-348 -359z" />
<glyph unicode="&#x108;" horiz-adv-x="874" d="M72 266q0 41 10 99l135 698q16 84 47 153.5t80 118.5t121 76t170 27q166 0 246 -82t80 -205q0 -45 -9 -80l-276 -47q2 10 3 19.5t1 19.5q0 47 -20.5 77.5t-57.5 30.5q-29 0 -47 -11t-31.5 -27.5t-20.5 -36t-9 -33.5l-142 -727q-2 -8 -2 -25q0 -23 13.5 -40t56.5 -17 q88 0 123 147l268 -36q-12 -84 -42 -153t-79 -119t-119.5 -77.5t-167.5 -27.5q-164 0 -247.5 71.5t-83.5 206.5zM299 1579l332 297h162l206 -295l-116 -98l-201 176l-287 -176z" />
<glyph unicode="&#x109;" horiz-adv-x="780" d="M53 225q-4 51 5.5 127t19.5 150q14 92 38.5 187t57.5 157q41 80 122 132t204 52q76 0 136 -21.5t98 -63.5t52.5 -103.5t-0.5 -141.5l-278 -30q10 53 0 76.5t-33 23.5q-35 0 -55 -41q-10 -16 -25.5 -74.5t-32.5 -144.5q-16 -86 -23 -138.5t-7 -76.5q4 -45 41 -45 q23 0 42 20.5t29 71.5l271 -35q-29 -150 -123 -234.5t-246 -84.5q-78 0 -132 20.5t-89 53t-52.5 75.5t-19.5 88zM201 1151l338 326h161l207 -347l-116 -67l-203 207l-299 -215z" />
<glyph unicode="&#x10a;" horiz-adv-x="874" d="M72 266q0 41 10 99l135 698q16 84 47 153.5t80 118.5t121 76t170 27q166 0 246 -82t80 -205q0 -45 -9 -80l-276 -47q2 10 3 19.5t1 19.5q0 47 -20.5 77.5t-57.5 30.5q-29 0 -47 -11t-31.5 -27.5t-20.5 -36t-9 -33.5l-142 -727q-2 -8 -2 -25q0 -23 13.5 -40t56.5 -17 q88 0 123 147l268 -36q-12 -84 -42 -153t-79 -119t-119.5 -77.5t-167.5 -27.5q-164 0 -247.5 71.5t-83.5 206.5zM539 1509l51 267h241l-51 -267h-241z" />
<glyph unicode="&#x10b;" horiz-adv-x="780" d="M53 225q-4 51 5.5 127t19.5 150q14 92 38.5 187t57.5 157q41 80 122 132t204 52q76 0 136 -21.5t98 -63.5t52.5 -103.5t-0.5 -141.5l-278 -30q10 53 0 76.5t-33 23.5q-35 0 -55 -41q-10 -16 -25.5 -74.5t-32.5 -144.5q-16 -86 -23 -138.5t-7 -76.5q4 -45 41 -45 q23 0 42 20.5t29 71.5l271 -35q-29 -150 -123 -234.5t-246 -84.5q-78 0 -132 20.5t-89 53t-52.5 75.5t-19.5 88zM410 1120l51 266h241l-51 -266h-241z" />
<glyph unicode="&#x10c;" horiz-adv-x="874" d="M72 266q0 41 10 99l135 698q16 84 47 153.5t80 118.5t121 76t170 27q166 0 246 -82t80 -205q0 -45 -9 -80l-276 -47q2 10 3 19.5t1 19.5q0 47 -20.5 77.5t-57.5 30.5q-29 0 -47 -11t-31.5 -27.5t-20.5 -36t-9 -33.5l-142 -727q-2 -8 -2 -25q0 -23 13.5 -40t56.5 -17 q88 0 123 147l268 -36q-12 -84 -42 -153t-79 -119t-119.5 -77.5t-167.5 -27.5q-164 0 -247.5 71.5t-83.5 206.5zM354 1778l117 98l201 -176l286 176l97 -96l-332 -297h-162z" />
<glyph unicode="&#x10d;" horiz-adv-x="780" d="M53 225q-4 51 5.5 127t19.5 150q14 92 38.5 187t57.5 157q41 80 122 132t204 52q76 0 136 -21.5t98 -63.5t52.5 -103.5t-0.5 -141.5l-278 -30q10 53 0 76.5t-33 23.5q-35 0 -55 -41q-10 -16 -25.5 -74.5t-32.5 -144.5q-16 -86 -23 -138.5t-7 -76.5q4 -45 41 -45 q23 0 42 20.5t29 71.5l271 -35q-29 -150 -123 -234.5t-246 -84.5q-78 0 -132 20.5t-89 53t-52.5 75.5t-19.5 88zM250 1401l125 96l205 -192l282 192l86 -98l-325 -324h-162z" />
<glyph unicode="&#x10e;" horiz-adv-x="913" d="M25 0l276 1425h336q127 0 209 -44t92 -148q4 -74 -10.5 -212t-48.5 -306q-35 -176 -59.5 -298t-65.5 -206q-63 -121 -156.5 -166t-202.5 -45h-370zM346 1778l117 98l201 -176l286 176l97 -96l-332 -297h-162zM352 268h49q66 0 90.5 31t36.5 92q47 244 74 380t39 202.5 t15 84t3 23.5q0 35 -18 52.5t-68 17.5h-49z" />
<glyph unicode="&#x10f;" horiz-adv-x="1071" d="M27 190q0 16 1 34t3 38q2 31 13 106.5t27.5 164t37 174.5t43.5 137q12 27 29.5 59.5t47 61t73 47t106.5 18.5q27 0 75.5 -13t75.5 -48h10l103 518h276l-282 -1487h-277l14 74l-8 4q-18 -29 -41.5 -46.5t-48 -26.5t-48.5 -13t-42 -4q-94 0 -141 46t-47 156zM330 297 q0 -16 11 -27.5t32 -11.5q25 0 39 10.5t24 34t18.5 63.5t20.5 101l4 22q14 78 25.5 137.5t11.5 86.5q0 23 -11 36t-34 13q-20 0 -36.5 -13.5t-24.5 -33.5q-10 -27 -23.5 -91.5t-26 -132t-21.5 -124t-9 -64.5v-6zM948 1040l101 220h-50l43 227h240l-43 -223l-156 -224h-135z " />
<glyph unicode="&#x110;" horiz-adv-x="913" d="M25 0l118 616h-90l33 172h92l123 637h336q127 0 209 -44t92 -148q4 -74 -10.5 -212t-48.5 -306q-35 -176 -59.5 -298t-65.5 -206q-63 -121 -156.5 -166t-202.5 -45h-370zM352 268h49q66 0 90.5 31t36.5 92q47 244 74 380t39 202.5t15 84t3 23.5q0 35 -18 52.5t-68 17.5 h-49l-71 -363h90l-35 -172h-88z" />
<glyph unicode="&#x111;" horiz-adv-x="864" d="M27 190q0 16 1 34t3 38q2 31 13 106.5t27.5 164t37 174.5t43.5 137q12 27 29.5 59.5t47 61t73 47t106.5 18.5q27 0 75.5 -13t75.5 -48h10l35 180h-174l35 176h174l33 162h276l-30 -162h79l-34 -176h-80l-217 -1149h-277l14 74l-8 4q-18 -29 -41.5 -46.5t-48 -26.5 t-48.5 -13t-42 -4q-94 0 -141 46t-47 156zM330 297q0 -16 11 -27.5t32 -11.5q25 0 39 10.5t24 34t18.5 63.5t20.5 101l4 22q14 78 25.5 137.5t11.5 86.5q0 23 -11 36t-34 13q-20 0 -36.5 -13.5t-24.5 -33.5q-10 -27 -23.5 -91.5t-26 -132t-21.5 -124t-9 -64.5v-6z" />
<glyph unicode="&#x112;" horiz-adv-x="806" d="M23 0l276 1425h653l-51 -266h-375l-59 -299h328l-54 -272h-327l-60 -322h375l-53 -266h-653zM362 1526l46 225h516l-45 -225h-517z" />
<glyph unicode="&#x113;" horiz-adv-x="835" d="M51 303q0 53 6 106.5t17 102.5q16 92 40.5 184t68.5 167t114 121t178 46q147 0 230 -67.5t83 -184.5q0 -102 -31.5 -172.5t-86 -115t-126 -63.5t-151.5 -19h-25.5t-27.5 2q-8 -29 -11 -61t-3 -48q2 -51 41 -51q29 0 46 17.5t29 60.5l279 -31q-16 -68 -43 -124t-69 -98 t-102.5 -64.5t-146.5 -22.5q-92 0 -152.5 25.5t-95 69.5t-48 101.5t-13.5 118.5zM303 1159l43 225h516l-43 -225h-516zM379 627q76 0 105.5 24.5t29.5 77.5q0 16 -11 29.5t-34 13.5q-39 0 -58.5 -38t-31.5 -107z" />
<glyph unicode="&#x114;" horiz-adv-x="806" d="M23 0l276 1425h653l-51 -266h-375l-59 -299h328l-54 -272h-327l-60 -322h375l-53 -266h-653zM338 1833h201q-2 -6 -2 -13.5v-13.5q0 -63 32.5 -97t79.5 -34q31 0 57.5 15.5t47 39t35 51t20.5 52.5h219q-18 -61 -49 -120.5t-78 -105.5t-112.5 -75t-151.5 -29 q-92 0 -152.5 30t-94.5 77t-46 105.5t-6 117.5z" />
<glyph unicode="&#x115;" horiz-adv-x="835" d="M51 303q0 53 6 106.5t17 102.5q16 92 40.5 184t68.5 167t114 121t178 46q147 0 230 -67.5t83 -184.5q0 -102 -31.5 -172.5t-86 -115t-126 -63.5t-151.5 -19h-25.5t-27.5 2q-8 -29 -11 -61t-3 -48q2 -51 41 -51q29 0 46 17.5t29 60.5l279 -31q-16 -68 -43 -124t-69 -98 t-102.5 -64.5t-146.5 -22.5q-92 0 -152.5 25.5t-95 69.5t-48 101.5t-13.5 118.5zM231 1434h201q-2 -6 -2 -13.5v-13.5q0 -63 33 -97t80 -34q31 0 57.5 15.5t47 39t34.5 51t20 52.5h220q-18 -61 -49 -121t-78 -106t-113 -74.5t-152 -28.5q-92 0 -152.5 29.5t-94 76.5 t-46 105.5t-6.5 118.5zM379 627q76 0 105.5 24.5t29.5 77.5q0 16 -11 29.5t-34 13.5q-39 0 -58.5 -38t-31.5 -107z" />
<glyph unicode="&#x116;" horiz-adv-x="806" d="M23 0l276 1425h653l-51 -266h-375l-59 -299h328l-54 -272h-327l-60 -322h375l-53 -266h-653zM506 1489l51 266h242l-51 -266h-242z" />
<glyph unicode="&#x117;" horiz-adv-x="835" d="M51 303q0 53 6 106.5t17 102.5q16 92 40.5 184t68.5 167t114 121t178 46q147 0 230 -67.5t83 -184.5q0 -102 -31.5 -172.5t-86 -115t-126 -63.5t-151.5 -19h-25.5t-27.5 2q-8 -29 -11 -61t-3 -48q2 -51 41 -51q29 0 46 17.5t29 60.5l279 -31q-16 -68 -43 -124t-69 -98 t-102.5 -64.5t-146.5 -22.5q-92 0 -152.5 25.5t-95 69.5t-48 101.5t-13.5 118.5zM379 627q76 0 105.5 24.5t29.5 77.5q0 16 -11 29.5t-34 13.5q-39 0 -58.5 -38t-31.5 -107zM403 1120l52 266h241l-51 -266h-242z" />
<glyph unicode="&#x118;" horiz-adv-x="806" d="M23 0l276 1425h653l-51 -266h-375l-59 -299h328l-54 -272h-327l-60 -322h375l-53 -266q-43 -53 -65.5 -96t-34 -75t-13.5 -51l-2 -18q0 -33 21.5 -49t54.5 -16q20 0 48 6t65 25l22 -119q-53 -31 -108.5 -43.5t-102.5 -12.5q-78 0 -126 40t-48 118q0 51 34 126t107 165 h-505z" />
<glyph unicode="&#x119;" horiz-adv-x="835" d="M51 303q0 53 6 106.5t17 102.5q16 92 40.5 184t68.5 167t114 121t178 46q147 0 230 -67.5t83 -184.5q0 -102 -31.5 -172.5t-86 -115t-126 -63.5t-151.5 -19h-25.5t-27.5 2q-8 -29 -11 -61t-3 -48q2 -51 41 -51q29 0 46 17.5t29 60.5l279 -31q-18 -78 -49 -139.5 t-84 -102.5q-39 -49 -60.5 -91t-32 -72.5t-12.5 -47.5l-2 -18q0 -33 21.5 -49.5t54.5 -16.5q20 0 43 5.5t70 19.5l26 -133q-53 -31 -111.5 -43t-105.5 -12q-78 0 -129 42t-51 136q0 84 90 215q-10 -2 -29 -2q-92 0 -152.5 25.5t-95 69.5t-48 101.5t-13.5 118.5zM379 627 q76 0 105.5 24.5t29.5 77.5q0 16 -11 29.5t-34 13.5q-39 0 -58.5 -38t-31.5 -107z" />
<glyph unicode="&#x11a;" horiz-adv-x="806" d="M23 0l276 1425h653l-51 -266h-375l-59 -299h328l-54 -272h-327l-60 -322h375l-53 -266h-653zM334 1778l117 98l200 -176l287 176l96 -96l-332 -297h-161z" />
<glyph unicode="&#x11b;" horiz-adv-x="835" d="M51 303q0 53 6 106.5t17 102.5q16 92 40.5 184t68.5 167t114 121t178 46q147 0 230 -67.5t83 -184.5q0 -102 -31.5 -172.5t-86 -115t-126 -63.5t-151.5 -19h-25.5t-27.5 2q-8 -29 -11 -61t-3 -48q2 -51 41 -51q29 0 46 17.5t29 60.5l279 -31q-16 -68 -43 -124t-69 -98 t-102.5 -64.5t-146.5 -22.5q-92 0 -152.5 25.5t-95 69.5t-48 101.5t-13.5 118.5zM252 1401l125 96l205 -192l282 192l86 -98l-325 -324h-162zM379 627q76 0 105.5 24.5t29.5 77.5q0 16 -11 29.5t-34 13.5q-39 0 -58.5 -38t-31.5 -107z" />
<glyph unicode="&#x11c;" horiz-adv-x="901" d="M96 365l135 698q16 84 48 153.5t82.5 118.5t121 76t166.5 27t163 -29t105.5 -79t51 -116.5t-1.5 -142.5l-277 -47q10 63 -10.5 105t-63.5 42q-29 0 -47 -11t-31.5 -27.5t-20.5 -36t-9 -33.5l-141 -727q-2 -14 -2 -28.5t6 -27t21.5 -19.5t41.5 -7q41 0 69.5 20.5 t39.5 67.5l41 209h-97l48 244h372l-88 -449q-18 -98 -56 -166.5t-89 -111.5t-116.5 -61.5t-139.5 -18.5q-193 0 -275 98t-47 279zM309 1579l332 297h162l207 -295l-117 -98l-201 176l-286 -176z" />
<glyph unicode="&#x11d;" horiz-adv-x="821" d="M-31 -139l281 53q-2 -8 -2 -20q0 -27 16 -42.5t39 -15.5q27 0 40 16.5t17 36.5l31 166h-10q-41 -41 -82 -54t-70 -13q-109 0 -153.5 54t-44.5 138q2 66 13 161t36 220q23 117 50.5 204t66.5 145.5t92 87t129 28.5q35 0 74.5 -17.5t62.5 -70.5l8 4l17 72h280l-211 -1086 q-14 -74 -38.5 -137t-66.5 -108t-106.5 -71t-158.5 -26q-141 0 -222.5 78t-87.5 197zM197 1151l338 326h161l207 -347l-117 -67l-202 207l-299 -215zM324 289q0 -37 45 -41q18 0 40.5 18.5t39.5 89.5l55 285q4 12 6 27.5t2 29.5q0 25 -10 42.5t-41 17.5q-23 0 -38 -14.5 t-20 -30.5q-6 -12 -19 -64.5t-26.5 -119t-23.5 -133t-10 -107.5z" />
<glyph unicode="&#x11e;" horiz-adv-x="901" d="M96 365l135 698q16 84 48 153.5t82.5 118.5t121 76t166.5 27t163 -29t105.5 -79t51 -116.5t-1.5 -142.5l-277 -47q10 63 -10.5 105t-63.5 42q-29 0 -47 -11t-31.5 -27.5t-20.5 -36t-9 -33.5l-141 -727q-2 -14 -2 -28.5t6 -27t21.5 -19.5t41.5 -7q41 0 69.5 20.5 t39.5 67.5l41 209h-97l48 244h372l-88 -449q-18 -98 -56 -166.5t-89 -111.5t-116.5 -61.5t-139.5 -18.5q-193 0 -275 98t-47 279zM383 1843h201q-2 -6 -2 -13v-13q0 -63 32.5 -97t79.5 -34q31 0 57.5 15t47 38.5t35 51.5t20.5 52h219q-18 -61 -49 -120.5t-78 -105.5 t-112.5 -75t-151.5 -29q-92 0 -152.5 30t-94.5 77t-46 105.5t-6 117.5z" />
<glyph unicode="&#x11f;" horiz-adv-x="821" d="M-31 -139l281 53q-2 -8 -2 -20q0 -27 16 -42.5t39 -15.5q27 0 40 16.5t17 36.5l31 166h-10q-41 -41 -82 -54t-70 -13q-109 0 -153.5 54t-44.5 138q2 66 13 161t36 220q23 117 50.5 204t66.5 145.5t92 87t129 28.5q35 0 74.5 -17.5t62.5 -70.5l8 4l17 72h280l-211 -1086 q-14 -74 -38.5 -137t-66.5 -108t-106.5 -71t-158.5 -26q-141 0 -222.5 78t-87.5 197zM231 1434h201q-2 -6 -2 -13.5v-13.5q0 -63 33 -97t80 -34q31 0 57.5 15.5t47 39t34.5 51t20 52.5h220q-18 -61 -49 -121t-78 -106t-113 -74.5t-152 -28.5q-92 0 -152.5 29.5t-94 76.5 t-46 105.5t-6.5 118.5zM324 289q0 -37 45 -41q18 0 40.5 18.5t39.5 89.5l55 285q4 12 6 27.5t2 29.5q0 25 -10 42.5t-41 17.5q-23 0 -38 -14.5t-20 -30.5q-6 -12 -19 -64.5t-26.5 -119t-23.5 -133t-10 -107.5z" />
<glyph unicode="&#x120;" horiz-adv-x="901" d="M96 365l135 698q16 84 48 153.5t82.5 118.5t121 76t166.5 27t163 -29t105.5 -79t51 -116.5t-1.5 -142.5l-277 -47q10 63 -10.5 105t-63.5 42q-29 0 -47 -11t-31.5 -27.5t-20.5 -36t-9 -33.5l-141 -727q-2 -14 -2 -28.5t6 -27t21.5 -19.5t41.5 -7q41 0 69.5 20.5 t39.5 67.5l41 209h-97l48 244h372l-88 -449q-18 -98 -56 -166.5t-89 -111.5t-116.5 -61.5t-139.5 -18.5q-193 0 -275 98t-47 279zM545 1489l51 266h242l-52 -266h-241z" />
<glyph unicode="&#x121;" horiz-adv-x="821" d="M-31 -139l281 53q-2 -8 -2 -20q0 -27 16 -42.5t39 -15.5q27 0 40 16.5t17 36.5l31 166h-10q-41 -41 -82 -54t-70 -13q-109 0 -153.5 54t-44.5 138q2 66 13 161t36 220q23 117 50.5 204t66.5 145.5t92 87t129 28.5q35 0 74.5 -17.5t62.5 -70.5l8 4l17 72h280l-211 -1086 q-14 -74 -38.5 -137t-66.5 -108t-106.5 -71t-158.5 -26q-141 0 -222.5 78t-87.5 197zM324 289q0 -37 45 -41q18 0 40.5 18.5t39.5 89.5l55 285q4 12 6 27.5t2 29.5q0 25 -10 42.5t-41 17.5q-23 0 -38 -14.5t-20 -30.5q-6 -12 -19 -64.5t-26.5 -119t-23.5 -133t-10 -107.5z M440 1120l52 266h241l-51 -266h-242z" />
<glyph unicode="&#x122;" horiz-adv-x="901" d="M96 365l135 698q16 84 48 153.5t82.5 118.5t121 76t166.5 27t163 -29t105.5 -79t51 -116.5t-1.5 -142.5l-277 -47q10 63 -10.5 105t-63.5 42q-29 0 -47 -11t-31.5 -27.5t-20.5 -36t-9 -33.5l-141 -727q-2 -14 -2 -28.5t6 -27t21.5 -19.5t41.5 -7q41 0 69.5 20.5 t39.5 67.5l41 209h-97l48 244h372l-88 -449q-18 -98 -56 -166.5t-89 -111.5t-116.5 -61.5t-139.5 -18.5q-193 0 -275 98t-47 279zM164 -565l100 219h-49l43 227h240l-43 -223l-156 -223h-135z" />
<glyph unicode="&#x123;" horiz-adv-x="821" d="M-31 -139l281 53q-2 -8 -2 -20q0 -27 16 -42.5t39 -15.5q27 0 40 16.5t17 36.5l31 166h-10q-41 -41 -82 -54t-70 -13q-109 0 -153.5 54t-44.5 138q2 66 13 161t36 220q23 117 50.5 204t66.5 145.5t92 87t129 28.5q35 0 74.5 -17.5t62.5 -70.5l8 4l17 72h280l-211 -1086 q-14 -74 -38.5 -137t-66.5 -108t-106.5 -71t-158.5 -26q-141 0 -222.5 78t-87.5 197zM324 289q0 -37 45 -41q18 0 40.5 18.5t39.5 89.5l55 285q4 12 6 27.5t2 29.5q0 25 -10 42.5t-41 17.5q-23 0 -38 -14.5t-20 -30.5q-6 -12 -19 -64.5t-26.5 -119t-23.5 -133t-10 -107.5z M440 1126l45 224l156 223h135l-100 -219h49l-45 -228h-240z" />
<glyph unicode="&#x124;" horiz-adv-x="940" d="M-23 0l277 1425h278l-110 -565h178l111 565h276l-276 -1425h-277l113 590h-178l-113 -590h-279zM268 1579l332 297h162l207 -295l-117 -98l-201 176l-286 -176z" />
<glyph unicode="&#x125;" horiz-adv-x="845" d="M4 0l289 1487h280l-114 -569l10 -3q35 49 93.5 80t105.5 31q74 0 111.5 -23.5t52 -62.5t9.5 -86t-14 -96l-145 -758h-281l134 686q6 29 -3.5 51.5t-37.5 22.5q-35 0 -55.5 -29t-28.5 -67l-125 -664h-281zM84 1579l332 297h162l206 -295l-116 -98l-201 176l-287 -176z" />
<glyph unicode="&#x126;" horiz-adv-x="940" d="M-23 0l203 1053h-76l31 166h78l41 206h278l-40 -206h178l41 206h276l-41 -206h86l-31 -166h-88l-202 -1053h-277l113 590h-178l-113 -590h-279zM422 860h178l37 193h-178z" />
<glyph unicode="&#x127;" horiz-adv-x="845" d="M4 0l221 1143h-73l28 157h76l37 187h280l-38 -187h233l-31 -157h-233l-45 -225l10 -3q35 49 93.5 80t105.5 31q74 0 111.5 -23.5t52 -62.5t9.5 -86t-14 -96l-145 -758h-281l134 686q6 29 -3.5 51.5t-37.5 22.5q-35 0 -55.5 -29t-28.5 -67l-125 -664h-281z" />
<glyph unicode="&#x128;" horiz-adv-x="495" d="M27 0l276 1425h279l-277 -1425h-278zM127 1583q63 111 121.5 147.5t111.5 36.5q31 0 60 -11t53.5 -23.5t46 -23.5t39.5 -11q12 0 23.5 1t25 7t29.5 20.5t39 38.5l119 -73q-53 -115 -113.5 -154t-116.5 -39q-35 0 -62.5 11.5t-51 24.5t-45 24.5t-46.5 11.5 q-23 0 -49 -13.5t-67 -60.5z" />
<glyph unicode="&#x129;" horiz-adv-x="624" d="M102 0l197 1012h281l-197 -1012h-281zM121 1214q63 111 121.5 148t111.5 37q31 0 59.5 -11.5t53.5 -23.5t46.5 -23.5t39.5 -11.5q12 0 23.5 1t24.5 7t29.5 20.5t39.5 39.5l118 -74q-53 -115 -113.5 -154t-115.5 -39q-35 0 -62.5 11.5t-51 25t-45 24.5t-46.5 11 q-23 0 -49 -13t-67 -61z" />
<glyph unicode="&#x12a;" horiz-adv-x="495" d="M27 0l276 1425h279l-277 -1425h-278zM190 1526l46 225h516l-45 -225h-517z" />
<glyph unicode="&#x12b;" horiz-adv-x="528" d="M53 0l197 1012h280l-196 -1012h-281zM145 1159l43 225h517l-43 -225h-517z" />
<glyph unicode="&#x12c;" horiz-adv-x="495" d="M27 0l276 1425h279l-277 -1425h-278zM160 1843h200q-2 -6 -2 -13v-13q0 -63 33 -97t80 -34q31 0 57.5 15t47 38.5t35 51.5t20.5 52h219q-18 -61 -49 -120.5t-78 -105.5t-112.5 -75t-151.5 -29q-92 0 -152.5 30t-94.5 77t-46 105.5t-6 117.5z" />
<glyph unicode="&#x12d;" horiz-adv-x="622" d="M88 0l197 1012h280l-196 -1012h-281zM164 1446h201q-2 -6 -2.5 -13.5t-0.5 -13.5q0 -63 33 -97t80 -34q31 0 57.5 15.5t47 39t35 51t20.5 52.5h219q-18 -61 -49 -120.5t-78 -105.5t-112.5 -75t-151.5 -29q-92 0 -152.5 30t-94.5 77t-46 105t-6 118z" />
<glyph unicode="&#x12e;" horiz-adv-x="495" d="M-41 -276q0 49 34 119.5t103 156.5h-69l276 1425h279l-277 -1425h-61q-37 -49 -58.5 -90t-31 -70.5t-11.5 -47.5l-2 -17q0 -33 21.5 -49.5t54.5 -16.5q20 0 43 5t70 20l26 -133q-53 -31 -111.5 -43.5t-105.5 -12.5q-78 0 -129 42t-51 137z" />
<glyph unicode="&#x12f;" horiz-adv-x="464" d="M-63 -276q0 49 34.5 119.5t102.5 156.5h-64l197 1012h280l-196 -1012h-70q-37 -49 -58.5 -90t-30.5 -70.5t-11 -47.5l-2 -17q0 -33 21.5 -49.5t54.5 -16.5q20 0 42.5 5t69.5 20l27 -133q-53 -31 -111.5 -43.5t-105.5 -12.5q-78 0 -129 42t-51 137zM236 1159l51 266h280 l-51 -266h-280z" />
<glyph unicode="&#x130;" horiz-adv-x="495" d="M27 0l276 1425h279l-277 -1425h-278zM330 1489l51 266h242l-52 -266h-241z" />
<glyph unicode="&#x131;" horiz-adv-x="464" d="M10 0l197 1012h280l-196 -1012h-281z" />
<glyph unicode="&#x132;" horiz-adv-x="1218" d="M23 0l276 1425h279l-277 -1425h-278zM395 176l221 160q20 -39 49 -59.5t52 -20.5q53 0 76.5 33t29.5 61l209 1075h277l-211 -1079q-33 -168 -129.5 -263t-268.5 -95q-96 0 -176 45t-129 143z" />
<glyph unicode="&#x133;" horiz-adv-x="923" d="M23 0l196 1012h281l-197 -1012h-280zM248 1159l51 266h281l-52 -266h-280zM264 -395l49 262q10 -2 31 -2q70 0 92.5 38t36.5 105l197 1006h280l-211 -1082q-35 -176 -133 -255.5t-254 -79.5q-20 0 -43.5 2t-44.5 6zM698 1159l52 266h280l-51 -266h-281z" />
<glyph unicode="&#x134;" horiz-adv-x="737" d="M-86 178l221 160q20 -39 49 -59.5t52 -20.5q53 0 76.5 33t29.5 61l209 1075h276l-211 -1079q-33 -168 -129 -263t-268 -95q-96 0 -176 45t-129 143zM330 1583l332 297h161l207 -295l-117 -98l-200 176l-287 -176z" />
<glyph unicode="&#x135;" horiz-adv-x="655" d="M-98 -399l49 262q10 -2 31 -2q70 0 92 38t37 105l196 1010h281l-211 -1086q-35 -176 -133.5 -256t-253.5 -80q-20 0 -44 2.5t-44 6.5zM117 1151l338 326h161l207 -347l-116 -67l-203 207l-299 -215z" />
<glyph unicode="&#x136;" horiz-adv-x="913" d="M23 0l276 1425h279l-78 -413h14l260 413h309l-413 -604l168 -821h-275l-98 545l-84 -127l-80 -418h-278zM215 -524l100 219h-49l43 227h240l-43 -223l-156 -223h-135z" />
<glyph unicode="&#x137;" horiz-adv-x="884" d="M10 0l289 1485h279l-134 -690l13 -2l180 219h350l-373 -408l168 -604h-317l-74 358l-41 -41l-61 -317h-279zM152 -565l100 219h-49l43 227h239l-43 -223l-155 -223h-135z" />
<glyph unicode="&#x138;" horiz-adv-x="884" d="M10 0l193 1010h278l-37 -215l13 -2l180 219h350l-373 -408l168 -604h-317l-74 358l-41 -41l-61 -317h-279z" />
<glyph unicode="&#x139;" horiz-adv-x="774" d="M23 0l276 1425h279l-224 -1153h375l-53 -272h-653zM365 1610l395 266l119 -190l-441 -216z" />
<glyph unicode="&#x13a;" horiz-adv-x="479" d="M47 227q0 23 3 46.5t7 50.5l224 1163h280l-225 -1151q-2 -10 -2 -17.5v-13.5q0 -35 18.5 -47t59.5 -12l-50 -256q-10 -2 -20 -2h-20q-143 0 -209 66.5t-66 172.5zM352 1651l396 266l118 -191l-440 -215z" />
<glyph unicode="&#x13b;" horiz-adv-x="774" d="M23 0l276 1425h279l-224 -1153h375l-53 -272h-653zM109 -565l100 219h-49l43 227h239l-43 -223l-155 -223h-135z" />
<glyph unicode="&#x13c;" horiz-adv-x="479" d="M-53 -565l100 219h-49l43 227h240l-43 -223l-156 -223h-135zM47 227q0 23 3 46.5t7 50.5l224 1163h280l-225 -1151q-2 -10 -2 -17.5v-13.5q0 -35 18.5 -47t59.5 -12l-50 -256q-10 -2 -20 -2h-20q-143 0 -209 66.5t-66 172.5z" />
<glyph unicode="&#x13d;" horiz-adv-x="774" d="M23 0l276 1425h279l-224 -1153h375l-53 -272h-653zM602 979l100 219h-49l43 227h240l-43 -223l-156 -223h-135z" />
<glyph unicode="&#x13e;" horiz-adv-x="706" d="M47 227q0 23 3 46.5t7 50.5l224 1163h280l-225 -1151q-2 -10 -2 -17.5v-13.5q0 -35 18.5 -47t59.5 -12l-50 -256q-10 -2 -20 -2h-20q-143 0 -209 66.5t-66 172.5zM582 1042l100 220h-49l43 227h239l-43 -223l-155 -224h-135z" />
<glyph unicode="&#x13f;" horiz-adv-x="860" d="M23 0l276 1425h279l-224 -1153h375l-53 -272h-653zM618 616l52 267h241l-51 -267h-242z" />
<glyph unicode="&#x140;" horiz-adv-x="735" d="M47 227q0 23 3 46.5t7 50.5l224 1163h280l-225 -1151q-2 -10 -2 -17.5v-13.5q0 -35 18.5 -47t59.5 -12l-50 -256q-10 -2 -20 -2h-20q-143 0 -209 66.5t-66 172.5zM516 674l51 266h242l-51 -266h-242z" />
<glyph unicode="&#x141;" horiz-adv-x="815" d="M14 592l187 119l139 714h278l-100 -514l135 86l64 -120l-234 -148l-88 -457h375l-53 -272h-654l103 528l-92 -57z" />
<glyph unicode="&#x142;" horiz-adv-x="544" d="M14 653l162 103l141 731h281l-104 -533l104 66l61 -121l-200 -127l-86 -436q-2 -10 -2 -17.5v-13.5q0 -35 18.5 -47t59.5 -12l-50 -256q-10 -2 -20 -2h-21q-143 0 -208.5 66.5t-65.5 172.5q0 23 3 46.5t7 50.5l47 251l-67 -43z" />
<glyph unicode="&#x143;" horiz-adv-x="985" d="M16 0l277 1425h244l75 -442q6 -33 13.5 -79t13.5 -96t12 -97t8 -82h11l141 796h272l-276 -1425h-238l-84 451l-45 270h-10l-137 -721h-277zM602 1610l395 266l119 -190l-440 -216z" />
<glyph unicode="&#x144;" horiz-adv-x="845" d="M4 0l197 1014h280l-22 -96l10 -3q35 49 93.5 80t105.5 31q55 0 89 -13.5t52 -37t24.5 -54t6.5 -65.5q0 -23 -4.5 -48.5t-8.5 -49.5l-145 -758h-281l134 686q2 10 2 27q0 27 -12.5 37t-30.5 10q-35 0 -55.5 -29t-28.5 -67l-125 -664h-281zM430 1176l279 380l200 -110 l-348 -359z" />
<glyph unicode="&#x145;" horiz-adv-x="985" d="M16 0l277 1425h244l75 -442q6 -33 13.5 -79t13.5 -96t12 -97t8 -82h11l141 796h272l-276 -1425h-238l-84 451l-45 270h-10l-137 -721h-277zM217 -524l100 219h-49l43 227h240l-43 -223l-156 -223h-135z" />
<glyph unicode="&#x146;" horiz-adv-x="845" d="M4 0l197 1014h280l-22 -96l10 -3q35 49 93.5 80t105.5 31q55 0 89 -13.5t52 -37t24.5 -54t6.5 -65.5q0 -23 -4.5 -48.5t-8.5 -49.5l-145 -758h-281l134 686q2 10 2 27q0 27 -12.5 37t-30.5 10q-35 0 -55.5 -29t-28.5 -67l-125 -664h-281zM123 -565l100 219h-49l43 227 h240l-43 -223l-156 -223h-135z" />
<glyph unicode="&#x147;" horiz-adv-x="985" d="M16 0l277 1425h244l75 -442q6 -33 13.5 -79t13.5 -96t12 -97t8 -82h11l141 796h272l-276 -1425h-238l-84 451l-45 270h-10l-137 -721h-277zM399 1778l117 98l201 -176l287 176l96 -96l-332 -297h-162z" />
<glyph unicode="&#x148;" horiz-adv-x="845" d="M4 0l197 1014h280l-22 -96l10 -3q35 49 93.5 80t105.5 31q55 0 89 -13.5t52 -37t24.5 -54t6.5 -65.5q0 -23 -4.5 -48.5t-8.5 -49.5l-145 -758h-281l134 686q2 10 2 27q0 27 -12.5 37t-30.5 10q-35 0 -55.5 -29t-28.5 -67l-125 -664h-281zM254 1401l125 96l205 -192 l282 192l86 -98l-325 -324h-162z" />
<glyph unicode="&#x149;" horiz-adv-x="1056" d="M100 924l101 219h-49l43 227h239l-43 -223l-155 -223h-136zM215 0l197 1014h280l-22 -96l10 -3q35 49 93 80t106 31q55 0 88.5 -13.5t52 -37t25 -54t6.5 -65.5q0 -23 -4.5 -48.5t-8.5 -49.5l-145 -758h-281l133 686q2 10 3 27q0 27 -12.5 37t-30.5 10q-35 0 -55.5 -29 t-28.5 -67l-125 -664h-281z" />
<glyph unicode="&#x14a;" horiz-adv-x="985" d="M16 0l277 1425h244l75 -442q6 -33 13.5 -79t13.5 -96t12 -97t8 -82h11l141 796h272l-305 -1575q-12 -61 -37.5 -101t-61.5 -64.5t-79 -34.5t-88 -10q-43 0 -85 7t-79 19l49 195q66 -2 87.5 19.5t27.5 49.5l35 185l-62 336l-45 270h-10l-137 -721h-277z" />
<glyph unicode="&#x14b;" horiz-adv-x="845" d="M4 0l197 1014h280l-22 -96l10 -3q35 49 93.5 80t105.5 31q55 0 89 -13.5t52 -37t24.5 -54t6.5 -65.5q0 -23 -4.5 -48.5t-8.5 -49.5l-174 -908q-12 -61 -37.5 -101t-61.5 -64.5t-79 -34.5t-88 -10q-43 0 -85 7t-79 19l49 195q66 -2 87.5 16.5t27.5 52.5l148 756q2 10 2 27 q0 27 -12.5 37t-30.5 10q-35 0 -55.5 -29t-28.5 -67l-125 -664h-281z" />
<glyph unicode="&#x14c;" horiz-adv-x="911" d="M78 295q0 23 3 47.5t7 48.5l131 688q18 92 48 159t76 112t110.5 66.5t152.5 21.5q154 0 246 -78t92 -225q0 -53 -12 -111l-127 -676q-31 -168 -123 -264t-272 -96q-162 0 -247 84t-85 223zM356 340q0 -76 72 -76q35 0 59.5 19.5t34.5 68.5l135 697q4 10 4.5 19t0.5 19 q0 39 -20.5 56.5t-51.5 17.5q-35 0 -59.5 -20.5t-34.5 -67.5l-136 -700q-2 -10 -3 -17.5t-1 -15.5zM383 1526l45 225h516l-45 -225h-516z" />
<glyph unicode="&#x14d;" horiz-adv-x="821" d="M55 262q0 55 7.5 114.5t19.5 125.5q10 49 21.5 100t23.5 99.5t27.5 90.5t31.5 70q47 84 128.5 126t181.5 42q80 0 138 -22.5t96 -60.5t55.5 -86t17.5 -99q0 -33 -3 -73t-9.5 -81t-12.5 -82t-12 -73q-25 -121 -53.5 -209t-73.5 -145.5t-111.5 -85t-165.5 -27.5 q-84 0 -142 25.5t-95 65.5t-53.5 89t-16.5 96zM293 1159l43 225h516l-43 -225h-516zM336 307q0 -25 9 -41t38 -16q23 0 39 14.5t20 30.5q4 8 12.5 37.5t17.5 71.5t18.5 89.5t17.5 92.5t13 82t5 55q0 20 -11.5 33.5t-31.5 13.5q-23 0 -37 -8t-25 -32.5t-22.5 -70 t-25.5 -116.5l-29 -162q-4 -23 -6 -40t-2 -34z" />
<glyph unicode="&#x14e;" horiz-adv-x="911" d="M78 295q0 23 3 47.5t7 48.5l131 688q18 92 48 159t76 112t110.5 66.5t152.5 21.5q154 0 246 -78t92 -225q0 -53 -12 -111l-127 -676q-31 -168 -123 -264t-272 -96q-162 0 -247 84t-85 223zM356 340q0 -76 72 -76q35 0 59.5 19.5t34.5 68.5l135 697q4 10 4.5 19t0.5 19 q0 39 -20.5 56.5t-51.5 17.5q-35 0 -59.5 -20.5t-34.5 -67.5l-136 -700q-2 -10 -3 -17.5t-1 -15.5zM369 1843h200q-2 -6 -2 -13v-13q0 -63 33 -97t80 -34q31 0 57.5 15t47 38.5t35 51.5t20.5 52h219q-18 -61 -49 -120.5t-78 -105.5t-112.5 -75t-151.5 -29q-92 0 -152.5 30 t-94.5 77t-46.5 105.5t-5.5 117.5z" />
<glyph unicode="&#x14f;" horiz-adv-x="821" d="M55 262q0 55 7.5 114.5t19.5 125.5q10 49 21.5 100t23.5 99.5t27.5 90.5t31.5 70q47 84 128.5 126t181.5 42q80 0 138 -22.5t96 -60.5t55.5 -86t17.5 -99q0 -33 -3 -73t-9.5 -81t-12.5 -82t-12 -73q-25 -121 -53.5 -209t-73.5 -145.5t-111.5 -85t-165.5 -27.5 q-84 0 -142 25.5t-95 65.5t-53.5 89t-16.5 96zM250 1434h201q-2 -6 -2 -13.5v-13.5q0 -63 32.5 -97t79.5 -34q31 0 57.5 15.5t47 39t35 51t20.5 52.5h219q-18 -61 -49 -121t-78 -106t-112.5 -74.5t-151.5 -28.5q-92 0 -152.5 29.5t-94.5 76.5t-46 105.5t-6 118.5zM336 307 q0 -25 9 -41t38 -16q23 0 39 14.5t20 30.5q4 8 12.5 37.5t17.5 71.5t18.5 89.5t17.5 92.5t13 82t5 55q0 20 -11.5 33.5t-31.5 13.5q-23 0 -37 -8t-25 -32.5t-22.5 -70t-25.5 -116.5l-29 -162q-4 -23 -6 -40t-2 -34z" />
<glyph unicode="&#x150;" horiz-adv-x="911" d="M78 295q0 23 3 47.5t7 48.5l131 688q18 92 48 159t76 112t110.5 66.5t152.5 21.5q154 0 246 -78t92 -225q0 -53 -12 -111l-127 -676q-31 -168 -123 -264t-272 -96q-162 0 -247 84t-85 223zM336 1610l395 266l119 -190l-440 -216zM356 340q0 -76 72 -76q35 0 59.5 19.5 t34.5 68.5l135 697q4 10 4.5 19t0.5 19q0 39 -20.5 56.5t-51.5 17.5q-35 0 -59.5 -20.5t-34.5 -67.5l-136 -700q-2 -10 -3 -17.5t-1 -15.5zM752 1610l395 266l119 -190l-441 -216z" />
<glyph unicode="&#x151;" horiz-adv-x="821" d="M55 262q0 55 7.5 114.5t19.5 125.5q10 49 21.5 100t23.5 99.5t27.5 90.5t31.5 70q47 84 128.5 126t181.5 42q80 0 138 -22.5t96 -60.5t55.5 -86t17.5 -99q0 -33 -3 -73t-9.5 -81t-12.5 -82t-12 -73q-25 -121 -53.5 -209t-73.5 -145.5t-111.5 -85t-165.5 -27.5 q-84 0 -142 25.5t-95 65.5t-53.5 89t-16.5 96zM240 1176l278 380l201 -110l-348 -359zM336 307q0 -25 9 -41t38 -16q23 0 39 14.5t20 30.5q4 8 12.5 37.5t17.5 71.5t18.5 89.5t17.5 92.5t13 82t5 55q0 20 -11.5 33.5t-31.5 13.5q-23 0 -37 -8t-25 -32.5t-22.5 -70 t-25.5 -116.5l-29 -162q-4 -23 -6 -40t-2 -34zM588 1176l278 380l201 -110l-348 -359z" />
<glyph unicode="&#x152;" horiz-adv-x="1224" d="M87 227.5q-15 73.5 1 163.5l131 688q35 184 132.5 271.5t254.5 87.5q35 0 65.5 -2t59.5 -11h639l-51 -266h-375l-59 -299h327l-53 -272h-328l-59 -309h375l-53 -279h-572q-53 -12 -112 -12q-88 0 -156 29.5t-110 83t-57 127zM360 373q-10 -49 6.5 -79t61.5 -30 q35 0 59.5 19.5t34.5 68.5l135 697q14 59 -8 85.5t-59 26.5q-35 0 -59.5 -20.5t-34.5 -67.5z" />
<glyph unicode="&#x153;" horiz-adv-x="1267" d="M55 262q0 55 7.5 114.5t19.5 125.5q10 49 21.5 100t23.5 99.5t27.5 90.5t31.5 70q47 84 128 126t182 42q70 0 124 -22.5t82 -63.5q35 39 88.5 62.5t116.5 23.5q147 0 230.5 -67.5t83.5 -184.5q0 -102 -32 -172.5t-86 -115t-126 -63.5t-152 -19h-25.5t-27.5 2 q-8 -29 -11 -61t-3 -48q2 -51 41 -51q29 0 46 17.5t29 60.5l279 -31q-16 -68 -43 -124t-69 -98t-102 -64.5t-146 -22.5q-74 0 -120 24.5t-83 69.5q-37 -47 -103.5 -71.5t-142.5 -24.5q-78 0 -132 26.5t-89 67.5t-51.5 89t-16.5 93zM336 307q0 -25 9 -41t38 -16q23 0 39 14.5 t20 30.5q4 8 12.5 37.5t17.5 71.5t18.5 89.5t17.5 92.5t13 82t5 55q0 20 -11.5 33.5t-31.5 13.5q-23 0 -37 -8t-25 -32.5t-22.5 -70t-25.5 -116.5l-29 -162q-4 -23 -6 -40t-2 -34zM811 627q76 0 105.5 24.5t29.5 77.5q0 16 -11 29.5t-34 13.5q-39 0 -58.5 -38t-31.5 -107z " />
<glyph unicode="&#x154;" horiz-adv-x="913" d="M23 0l276 1425h317q76 0 140.5 -17t111.5 -56t73 -102.5t26 -153.5q0 -102 -18.5 -179t-50.5 -134.5t-77 -97.5t-98 -67l86 -618h-285l-61 555h-55l-107 -555h-278zM461 823h43q31 0 64.5 8.5t62 32t47 63.5t18.5 105q0 66 -34.5 96.5t-92.5 30.5h-43zM510 1610l395 266 l119 -190l-440 -216z" />
<glyph unicode="&#x155;" horiz-adv-x="647" d="M20 0l197 1016h283l-25 -125h4q43 78 96.5 108.5t122.5 30.5q12 0 24.5 -1t25.5 -3l-54 -276q-31 6 -59 6q-86 0 -144.5 -48.5t-80.5 -156.5l-107 -551h-283zM371 1176l278 380l201 -110l-348 -359z" />
<glyph unicode="&#x156;" horiz-adv-x="913" d="M23 0l276 1425h317q76 0 140.5 -17t111.5 -56t73 -102.5t26 -153.5q0 -102 -18.5 -179t-50.5 -134.5t-77 -97.5t-98 -67l86 -618h-285l-61 555h-55l-107 -555h-278zM193 -524l100 219h-49l43 227h239l-43 -223l-155 -223h-135zM461 823h43q31 0 64.5 8.5t62 32t47 63.5 t18.5 105q0 66 -34.5 96.5t-92.5 30.5h-43z" />
<glyph unicode="&#x157;" horiz-adv-x="647" d="M-59 -559l100 219h-49l43 227h239l-43 -223l-155 -223h-135zM20 0l197 1016h283l-25 -125h4q43 78 96.5 108.5t122.5 30.5q12 0 24.5 -1t25.5 -3l-54 -276q-31 6 -59 6q-86 0 -144.5 -48.5t-80.5 -156.5l-107 -551h-283z" />
<glyph unicode="&#x158;" horiz-adv-x="913" d="M23 0l276 1425h317q76 0 140.5 -17t111.5 -56t73 -102.5t26 -153.5q0 -102 -18.5 -179t-50.5 -134.5t-77 -97.5t-98 -67l86 -618h-285l-61 555h-55l-107 -555h-278zM311 1778l117 98l201 -176l286 176l97 -96l-332 -297h-162zM461 823h43q31 0 64.5 8.5t62 32t47 63.5 t18.5 105q0 66 -34.5 96.5t-92.5 30.5h-43z" />
<glyph unicode="&#x159;" horiz-adv-x="647" d="M20 0l197 1016h283l-25 -125h4q43 78 96.5 108.5t122.5 30.5q12 0 24.5 -1t25.5 -3l-54 -276q-31 6 -59 6q-86 0 -144.5 -48.5t-80.5 -156.5l-107 -551h-283zM180 1401l125 96l205 -192l283 192l86 -98l-326 -324h-162z" />
<glyph unicode="&#x15a;" horiz-adv-x="874" d="M51 264q0 49 12 103l283 24q-10 -35 -10 -61q0 -29 15.5 -48.5t58.5 -19.5q41 0 67.5 21.5t42 55.5t21.5 75t6 80q0 41 -23.5 62.5t-85.5 49.5q-74 33 -123 69t-76.5 74.5t-39 79.5t-11.5 86q0 113 28 209.5t83 166t138 108.5t194 39q88 0 149.5 -20.5t99.5 -57.5t54 -85 t16 -104q0 -63 -18 -131l-277 -16q4 16 6.5 32.5t2.5 33.5q0 29 -14.5 50t-59.5 21q-35 0 -57.5 -19.5t-36 -47t-18.5 -57t-5 -52.5q0 -35 26.5 -63.5t106.5 -63.5q66 -29 109 -58.5t67.5 -63.5t34.5 -72.5t10 -83.5q0 -117 -21.5 -224.5t-73.5 -189.5t-139 -130t-216 -48 q-86 0 -147.5 21.5t-101.5 58t-58.5 87t-18.5 109.5zM528 1610l396 266l118 -190l-440 -216z" />
<glyph unicode="&#x15b;" horiz-adv-x="792" d="M29 238q0 12 1 26.5t3 28.5l276 35q-2 -8 -3 -13.5t-1 -11.5q0 -29 16.5 -45t43.5 -16q41 0 61 31.5t20 64.5t-16 46t-39 22q-49 18 -98 35.5t-88 45t-63.5 70.5t-24.5 113q0 80 25.5 145.5t73.5 113.5t119 74.5t161 26.5q145 0 222 -65.5t77 -178.5q0 -33 -7 -65 l-274 -29q2 6 2 15q0 27 -12 47t-41 20q-25 0 -39 -11t-21.5 -25.5t-9.5 -28t-2 -17.5q0 -33 45 -47q61 -20 114.5 -40.5t91.5 -51.5t59.5 -77t21.5 -116q0 -72 -20.5 -139t-67.5 -119.5t-123 -83t-184 -30.5q-135 0 -217 62.5t-82 187.5zM369 1176l278 380l201 -110 l-348 -359z" />
<glyph unicode="&#x15c;" horiz-adv-x="874" d="M51 264q0 49 12 103l283 24q-10 -35 -10 -61q0 -29 15.5 -48.5t58.5 -19.5q41 0 67.5 21.5t42 55.5t21.5 75t6 80q0 41 -23.5 62.5t-85.5 49.5q-74 33 -123 69t-76.5 74.5t-39 79.5t-11.5 86q0 113 28 209.5t83 166t138 108.5t194 39q88 0 149.5 -20.5t99.5 -57.5t54 -85 t16 -104q0 -63 -18 -131l-277 -16q4 16 6.5 32.5t2.5 33.5q0 29 -14.5 50t-59.5 21q-35 0 -57.5 -19.5t-36 -47t-18.5 -57t-5 -52.5q0 -35 26.5 -63.5t106.5 -63.5q66 -29 109 -58.5t67.5 -63.5t34.5 -72.5t10 -83.5q0 -117 -21.5 -224.5t-73.5 -189.5t-139 -130t-216 -48 q-86 0 -147.5 21.5t-101.5 58t-58.5 87t-18.5 109.5zM291 1579l332 297h161l207 -295l-117 -98l-200 176l-287 -176z" />
<glyph unicode="&#x15d;" horiz-adv-x="792" d="M29 238q0 12 1 26.5t3 28.5l276 35q-2 -8 -3 -13.5t-1 -11.5q0 -29 16.5 -45t43.5 -16q41 0 61 31.5t20 64.5t-16 46t-39 22q-49 18 -98 35.5t-88 45t-63.5 70.5t-24.5 113q0 80 25.5 145.5t73.5 113.5t119 74.5t161 26.5q145 0 222 -65.5t77 -178.5q0 -33 -7 -65 l-274 -29q2 6 2 15q0 27 -12 47t-41 20q-25 0 -39 -11t-21.5 -25.5t-9.5 -28t-2 -17.5q0 -33 45 -47q61 -20 114.5 -40.5t91.5 -51.5t59.5 -77t21.5 -116q0 -72 -20.5 -139t-67.5 -119.5t-123 -83t-184 -30.5q-135 0 -217 62.5t-82 187.5zM172 1151l338 326h162l207 -347 l-117 -67l-203 207l-299 -215z" />
<glyph unicode="&#x15e;" horiz-adv-x="874" d="M51 264q0 49 12 103l283 24q-10 -35 -10 -61q0 -29 15.5 -48.5t58.5 -19.5q41 0 67.5 21.5t42 55.5t21.5 75t6 80q0 41 -23.5 62.5t-85.5 49.5q-74 33 -123 69t-76.5 74.5t-39 79.5t-11.5 86q0 113 28 209.5t83 166t138 108.5t194 39q88 0 149.5 -20.5t99.5 -57.5t54 -85 t16 -104q0 -63 -18 -131l-277 -16q4 16 6.5 32.5t2.5 33.5q0 29 -14.5 50t-59.5 21q-35 0 -57.5 -19.5t-36 -47t-18.5 -57t-5 -52.5q0 -35 26.5 -63.5t106.5 -63.5q66 -29 109 -58.5t67.5 -63.5t34.5 -72.5t10 -83.5q0 -113 -19.5 -216.5t-67.5 -184.5t-126.5 -131 t-195.5 -58l-33 -64q88 -12 119 -57t31 -90q0 -23 -8.5 -57.5t-33 -68.5t-70.5 -58.5t-124 -24.5q-8 0 -28.5 1t-48 5t-60.5 14.5t-66 26.5l64 119q43 -20 70.5 -25.5t50.5 -5.5q35 0 56 19.5t21 46.5t-18 35t-49 8l-62 47l68 133q-129 16 -187.5 91t-58.5 179z" />
<glyph unicode="&#x15f;" horiz-adv-x="792" d="M29 238q0 12 1 26.5t3 28.5l276 35q-2 -8 -3 -13.5t-1 -11.5q0 -29 16.5 -45t43.5 -16q41 0 61 31.5t20 64.5t-16 46t-39 22q-49 18 -98 35.5t-88 45t-63.5 70.5t-24.5 113q0 80 25.5 145.5t73.5 113.5t119 74.5t161 26.5q145 0 222 -65.5t77 -178.5q0 -33 -7 -65 l-274 -29q2 6 2 15q0 27 -12 47t-41 20q-25 0 -39 -11t-21.5 -25.5t-9.5 -28t-2 -17.5q0 -33 45 -47q61 -20 114.5 -40.5t91.5 -51.5t59.5 -77t21.5 -116q0 -66 -17.5 -127t-55.5 -111t-98 -85t-149 -45l-34 -66q88 -12 118.5 -57t30.5 -90q0 -8 -8 -42t-32.5 -71t-71 -66.5 t-123.5 -29.5q-8 0 -29 1t-48.5 5t-60 14.5t-65.5 26.5l63 109q43 -20 71 -25.5t50 -5.5q35 0 56.5 24.5t21.5 51.5t-18.5 35t-49.5 8l-61 47l66 129q-115 10 -182.5 71.5t-67.5 176.5z" />
<glyph unicode="&#x160;" horiz-adv-x="874" d="M51 264q0 49 12 103l283 24q-10 -35 -10 -61q0 -29 15.5 -48.5t58.5 -19.5q41 0 67.5 21.5t42 55.5t21.5 75t6 80q0 41 -23.5 62.5t-85.5 49.5q-74 33 -123 69t-76.5 74.5t-39 79.5t-11.5 86q0 113 28 209.5t83 166t138 108.5t194 39q88 0 149.5 -20.5t99.5 -57.5t54 -85 t16 -104q0 -63 -18 -131l-277 -16q4 16 6.5 32.5t2.5 33.5q0 29 -14.5 50t-59.5 21q-35 0 -57.5 -19.5t-36 -47t-18.5 -57t-5 -52.5q0 -35 26.5 -63.5t106.5 -63.5q66 -29 109 -58.5t67.5 -63.5t34.5 -72.5t10 -83.5q0 -117 -21.5 -224.5t-73.5 -189.5t-139 -130t-216 -48 q-86 0 -147.5 21.5t-101.5 58t-58.5 87t-18.5 109.5zM352 1778l117 98l201 -176l286 176l97 -96l-332 -297h-162z" />
<glyph unicode="&#x161;" horiz-adv-x="792" d="M29 238q0 12 1 26.5t3 28.5l276 35q-2 -8 -3 -13.5t-1 -11.5q0 -29 16.5 -45t43.5 -16q41 0 61 31.5t20 64.5t-16 46t-39 22q-49 18 -98 35.5t-88 45t-63.5 70.5t-24.5 113q0 80 25.5 145.5t73.5 113.5t119 74.5t161 26.5q145 0 222 -65.5t77 -178.5q0 -33 -7 -65 l-274 -29q2 6 2 15q0 27 -12 47t-41 20q-25 0 -39 -11t-21.5 -25.5t-9.5 -28t-2 -17.5q0 -33 45 -47q61 -20 114.5 -40.5t91.5 -51.5t59.5 -77t21.5 -116q0 -72 -20.5 -139t-67.5 -119.5t-123 -83t-184 -30.5q-135 0 -217 62.5t-82 187.5zM229 1401l125 96l205 -192l283 192 l86 -98l-326 -324h-162z" />
<glyph unicode="&#x162;" horiz-adv-x="737" d="M57 -565l101 219h-49l43 227h239l-43 -223l-155 -223h-136zM145 0l226 1159h-219l51 266h717l-52 -266h-219l-225 -1159h-279z" />
<glyph unicode="&#x163;" horiz-adv-x="567" d="M-35 -565l101 219h-50l43 227h240l-43 -223l-156 -223h-135zM86 207q0 18 2 36.5t6 35.5l101 516h-93l43 219h93l51 266h264l-51 -266h114l-43 -219h-114l-86 -447q-2 -10 -4 -19.5t-2 -19.5q0 -23 15 -39t62 -16h25l-49 -254q-16 -4 -41 -5t-45 -1q-74 0 -122 18.5 t-75.5 49t-39 68.5t-11.5 77z" />
<glyph unicode="&#x164;" horiz-adv-x="737" d="M145 0l226 1159h-219l51 266h717l-52 -266h-219l-225 -1159h-279zM299 1778l117 98l200 -176l287 176l96 -96l-331 -297h-162z" />
<glyph unicode="&#x165;" horiz-adv-x="790" d="M106 207q0 18 2.5 36.5t6.5 35.5l100 516h-92l43 219h92l51 266h264l-51 -266h115l-43 -219h-115l-86 -447q-2 -10 -4 -19.5t-2 -19.5q0 -23 15.5 -39t62.5 -16h24l-49 -254q-16 -4 -40.5 -5t-45.5 -1q-74 0 -122 18.5t-75.5 49t-39 68.5t-11.5 77zM647 1116l101 219h-50 l43 228h240l-43 -224l-156 -223h-135z" />
<glyph unicode="&#x166;" horiz-adv-x="737" d="M109 657l38 191h162l62 311h-219l51 266h717l-52 -266h-219l-61 -311h182l-39 -191h-180l-127 -657h-279l127 657h-163z" />
<glyph unicode="&#x167;" horiz-adv-x="567" d="M43 483l35 181h90l27 131h-93l43 219h93l51 266h264l-51 -266h114l-43 -219h-114l-27 -131h117l-35 -181h-117l-24 -135q-2 -10 -4 -19.5t-2 -19.5q0 -23 15 -39t62 -16h25l-49 -254q-16 -4 -41 -5t-45 -1q-74 0 -122 18.5t-75.5 49t-39 68.5t-11.5 77q0 18 2 36.5 t6 35.5l39 204h-90z" />
<glyph unicode="&#x168;" horiz-adv-x="911" d="M79.5 200.5q-18.5 69.5 0.5 161.5l207 1063h278l-209 -1060q-10 -49 13.5 -75t58.5 -26t59.5 19.5t34.5 68.5l209 1073h283l-209 -1077q-72 -360 -399 -360q-82 0 -150 24.5t-113 71.5t-63.5 116.5zM313 1583q63 111 122 147.5t112 36.5q31 0 59.5 -11t53 -23.5t46 -23.5 t39.5 -11q12 0 23.5 1t25 7t30 20.5t38.5 38.5l119 -73q-53 -115 -113.5 -154t-115.5 -39q-35 0 -62.5 11.5t-51.5 24.5t-45.5 24.5t-45.5 11.5q-23 0 -49.5 -13.5t-67.5 -60.5z" />
<glyph unicode="&#x169;" horiz-adv-x="845" d="M43 160q4 47 14 96l146 758h280l-133 -686q-6 -29 3 -51.5t38 -22.5q25 0 50.5 28.5t33.5 67.5l125 664h281l-197 -1014h-281l23 96l-10 2q-35 -49 -93.5 -79.5t-105.5 -30.5q-74 0 -111.5 23.5t-52 62.5t-10.5 86zM227 1214q63 111 122 148t112 37q31 0 59.5 -11.5 t53 -23.5t46 -23.5t39.5 -11.5q12 0 23.5 1t25 7t30 20.5t38.5 39.5l119 -74q-53 -115 -113.5 -154t-115.5 -39q-35 0 -63 11.5t-51.5 25t-45 24.5t-45.5 11q-23 0 -49.5 -13t-67.5 -61z" />
<glyph unicode="&#x16a;" horiz-adv-x="911" d="M79.5 200.5q-18.5 69.5 0.5 161.5l207 1063h278l-209 -1060q-10 -49 13.5 -75t58.5 -26t59.5 19.5t34.5 68.5l209 1073h283l-209 -1077q-72 -360 -399 -360q-82 0 -150 24.5t-113 71.5t-63.5 116.5zM389 1526l45 225h516l-45 -225h-516z" />
<glyph unicode="&#x16b;" horiz-adv-x="845" d="M43 160q4 47 14 96l146 758h280l-133 -686q-6 -29 3 -51.5t38 -22.5q25 0 50.5 28.5t33.5 67.5l125 664h281l-197 -1014h-281l23 96l-10 2q-35 -49 -93.5 -79.5t-105.5 -30.5q-74 0 -111.5 23.5t-52 62.5t-10.5 86zM311 1159l43 225h516l-43 -225h-516z" />
<glyph unicode="&#x16c;" horiz-adv-x="911" d="M79.5 200.5q-18.5 69.5 0.5 161.5l207 1063h278l-209 -1060q-10 -49 13.5 -75t58.5 -26t59.5 19.5t34.5 68.5l209 1073h283l-209 -1077q-72 -360 -399 -360q-82 0 -150 24.5t-113 71.5t-63.5 116.5zM367 1843h200q-2 -6 -2 -13v-13q0 -63 33 -97t80 -34q31 0 57.5 15 t47 38.5t34.5 51.5t21 52h219q-18 -61 -49 -120.5t-78 -105.5t-112.5 -75t-151.5 -29q-92 0 -152.5 30t-94.5 77t-46.5 105.5t-5.5 117.5z" />
<glyph unicode="&#x16d;" horiz-adv-x="845" d="M43 160q4 47 14 96l146 758h280l-133 -686q-6 -29 3 -51.5t38 -22.5q25 0 50.5 28.5t33.5 67.5l125 664h281l-197 -1014h-281l23 96l-10 2q-35 -49 -93.5 -79.5t-105.5 -30.5q-74 0 -111.5 23.5t-52 62.5t-10.5 86zM262 1434h201q-2 -6 -2 -13.5v-13.5q0 -63 32.5 -97 t79.5 -34q31 0 57.5 15.5t47 39t35 51t20.5 52.5h219q-18 -61 -49 -121t-78 -106t-112.5 -74.5t-151.5 -28.5q-92 0 -152.5 29.5t-94 76.5t-46 105.5t-6.5 118.5z" />
<glyph unicode="&#x16e;" horiz-adv-x="911" d="M79.5 200.5q-18.5 69.5 0.5 161.5l207 1063h278l-209 -1060q-10 -49 13.5 -75t58.5 -26t59.5 19.5t34.5 68.5l209 1073h283l-209 -1077q-72 -360 -399 -360q-82 0 -150 24.5t-113 71.5t-63.5 116.5zM496 1649q0 49 16 95t47 80t75 54t97 20q78 0 132.5 -47t54.5 -118 q0 -49 -15.5 -95.5t-46.5 -80t-75 -54t-99 -20.5q-78 0 -132 47t-54 119zM643 1677q0 -23 16.5 -37t38.5 -14q29 0 51.5 20.5t22.5 53.5q0 23 -16 37t-39 14q-29 0 -51.5 -22.5t-22.5 -51.5z" />
<glyph unicode="&#x16f;" horiz-adv-x="845" d="M43 160q4 47 14 96l146 758h280l-133 -686q-6 -29 3 -51.5t38 -22.5q25 0 50.5 28.5t33.5 67.5l125 664h281l-197 -1014h-281l23 96l-10 2q-35 -49 -93.5 -79.5t-105.5 -30.5q-74 0 -111.5 23.5t-52 62.5t-10.5 86zM375 1229q0 49 16.5 95t47 80t74.5 54.5t97 20.5 q78 0 132.5 -47.5t54.5 -118.5q0 -49 -15.5 -95.5t-46 -80t-75 -54t-99.5 -20.5q-78 0 -132 47t-54 119zM522 1257q0 -23 16.5 -37t39.5 -14q29 0 51 20.5t22 53.5q0 23 -16 37t-39 14q-29 0 -51.5 -22.5t-22.5 -51.5z" />
<glyph unicode="&#x170;" horiz-adv-x="911" d="M79.5 200.5q-18.5 69.5 0.5 161.5l207 1063h278l-209 -1060q-10 -49 13.5 -75t58.5 -26t59.5 19.5t34.5 68.5l209 1073h283l-209 -1077q-72 -360 -399 -360q-82 0 -150 24.5t-113 71.5t-63.5 116.5zM315 1610l396 266l118 -190l-440 -216zM731 1610l395 266l119 -190 l-440 -216z" />
<glyph unicode="&#x171;" horiz-adv-x="845" d="M43 160q4 47 14 96l146 758h280l-133 -686q-6 -29 3 -51.5t38 -22.5q25 0 50.5 28.5t33.5 67.5l125 664h281l-197 -1014h-281l23 96l-10 2q-35 -49 -93.5 -79.5t-105.5 -30.5q-74 0 -111.5 23.5t-52 62.5t-10.5 86zM250 1176l278 380l201 -110l-348 -359zM598 1176 l279 380l200 -110l-348 -359z" />
<glyph unicode="&#x172;" horiz-adv-x="911" d="M80 362l207 1063h278l-209 -1060q-10 -49 13.5 -75t58.5 -26t59.5 19.5t34.5 68.5l209 1073h283l-209 -1077q-68 -330 -340 -356q-51 -68 -70.5 -121t-23.5 -76q-10 -41 13.5 -63.5t59.5 -22.5q20 0 48 6t65 25l23 -119q-53 -31 -108.5 -43t-102.5 -12q-88 0 -138.5 53 t-31.5 152q8 43 39.5 101t83.5 124q-129 23 -201 115t-41 251z" />
<glyph unicode="&#x173;" horiz-adv-x="845" d="M43 160q4 47 14 96l146 758h280l-133 -686q-6 -29 3 -51.5t38 -22.5q25 0 50.5 28.5t33.5 67.5l125 664h281l-197 -1014h-137q-37 -49 -58.5 -90t-30.5 -70.5t-12 -47.5l-2 -17q0 -33 21.5 -49.5t54.5 -16.5q20 0 43 5t70 20l26 -133q-53 -31 -111.5 -43.5t-105.5 -12.5 q-78 0 -129 42t-51 137q0 51 35 122.5t106 157.5l23 92l-10 2q-35 -49 -93.5 -79.5t-105.5 -30.5q-74 0 -111.5 23.5t-52 62.5t-10.5 86z" />
<glyph unicode="&#x174;" horiz-adv-x="1312" d="M156 0l75 1425h301l-32 -378q-10 -113 -22.5 -216.5t-24.5 -199.5h10l131 368l149 426h222l-13 -413q-2 -49 -4 -93.5t-4 -90.5t-5 -97t-5 -115h12l107 396l112 413h318l-477 -1425h-299l6 287l8 391h-12q-20 -61 -37 -108.5t-30 -87.5t-27.5 -76.5t-30.5 -79.5 l-129 -326h-299zM494 1579l331 297h162l207 -295l-117 -98l-200 176l-287 -176z" />
<glyph unicode="&#x175;" horiz-adv-x="1277" d="M119 1012h313l-31 -391q-4 -53 -9 -110.5t-17 -129.5h14q57 156 111.5 310.5t95.5 320.5h289l-37 -391q-4 -53 -12.5 -118t-18.5 -122h14q57 156 107.5 310.5t91.5 320.5h324q-43 -137 -91.5 -265.5t-101.5 -252t-112.5 -246.5t-122.5 -248h-322l14 227l31 279h-12 l-84 -277l-90 -229h-322zM395 1151l338 326h162l207 -347l-117 -67l-203 207l-299 -215z" />
<glyph unicode="&#x176;" horiz-adv-x="847" d="M201 1425h288l11 -282q2 -68 5 -121t1 -129h16l211 532h303l-444 -866l-109 -559h-280l108 559zM264 1579l332 297h162l207 -295l-117 -98l-201 176l-287 -176z" />
<glyph unicode="&#x177;" horiz-adv-x="784" d="M-113 -172q94 8 153.5 49t119.5 146l-56 989h293l-10 -318q-2 -25 -4 -64.5t-6 -82.5t-9.5 -86t-11.5 -74h11q59 135 108 285.5t103 339.5h294q-106 -307 -223 -576.5t-231 -480.5q-43 -80 -95.5 -149.5t-116 -118.5t-141 -77t-174.5 -24zM178 1151l338 326h162l207 -347 l-117 -67l-203 207l-299 -215z" />
<glyph unicode="&#x178;" horiz-adv-x="847" d="M201 1425h288l11 -282q2 -68 5 -121t1 -129h16l211 532h303l-444 -866l-109 -559h-280l108 559zM322 1493l51 266h241l-51 -266h-241zM678 1493l51 266h244l-51 -266h-244z" />
<glyph unicode="&#x179;" horiz-adv-x="737" d="M-39 0l49 254l516 905h-321l51 266h633l-49 -245l-514 -912h338l-52 -268h-651zM455 1610l395 266l119 -190l-441 -216z" />
<glyph unicode="&#x17a;" horiz-adv-x="716" d="M-25 0l48 248l383 516h-261l50 250h579l-45 -230l-393 -524h291l-49 -260h-603zM410 1176l278 380l201 -110l-348 -359z" />
<glyph unicode="&#x17b;" horiz-adv-x="737" d="M-39 0l49 254l516 905h-321l51 266h633l-49 -245l-514 -912h338l-52 -268h-651zM477 1489l51 266h242l-51 -266h-242z" />
<glyph unicode="&#x17c;" horiz-adv-x="716" d="M-25 0l48 248l383 516h-261l50 250h579l-45 -230l-393 -524h291l-49 -260h-603zM395 1120l51 266h242l-51 -266h-242z" />
<glyph unicode="&#x17d;" horiz-adv-x="737" d="M-39 0l49 254l516 905h-321l51 266h633l-49 -245l-514 -912h338l-52 -268h-651zM301 1778l117 98l200 -176l287 176l96 -96l-331 -297h-162z" />
<glyph unicode="&#x17e;" horiz-adv-x="716" d="M-25 0l48 248l383 516h-261l50 250h579l-45 -230l-393 -524h291l-49 -260h-603zM199 1401l125 96l204 -192l283 192l86 -98l-326 -324h-161z" />
<glyph unicode="&#x192;" horiz-adv-x="880" d="M-41 -125l86 219q29 -16 46.5 -18t27.5 -2q41 0 63.5 34.5t40.5 120.5l86 439h-121l21 235h156l28 129q14 74 41 146.5t72 129t109.5 92.5t154.5 36q47 0 95 -4.5t91 -28.5l-71 -232q-39 16 -66.5 18.5t-44.5 2.5q-43 0 -67.5 -35t-40.5 -104l-31 -150h145l-20 -235h-174 q-23 -104 -40.5 -207t-39.5 -207q-41 -203 -121 -312.5t-231 -109.5q-37 0 -88.5 8t-106.5 35z" />
<glyph unicode="&#x1a0;" horiz-adv-x="1003" d="M78 295q0 23 3 47.5t7 48.5l131 688q18 92 48 159t76 112t110.5 66.5t152.5 21.5q104 0 180 -35t117 -105q49 10 77 49t48 138l29 145h196l-32 -176q-29 -141 -99.5 -227t-177.5 -109q-2 -45 -12 -94l-127 -676q-31 -168 -123 -264t-272 -96q-162 0 -247 84t-85 223z M356 340q0 -76 72 -76q35 0 59.5 19.5t34.5 68.5l135 697q4 10 4.5 19t0.5 19q0 39 -20.5 56.5t-51.5 17.5q-35 0 -59.5 -20.5t-34.5 -67.5l-136 -700q-2 -10 -3 -17.5t-1 -15.5z" />
<glyph unicode="&#x1a1;" horiz-adv-x="913" d="M55 262q0 55 7.5 114.5t19.5 125.5q10 49 21.5 100t23.5 99.5t27.5 90.5t31.5 70q47 84 128.5 126t181.5 42q88 0 149.5 -27.5t97.5 -72.5q35 16 56.5 56t38.5 120l24 127h197l-29 -158q-23 -123 -81 -205t-146 -116q-2 -66 -13.5 -151t-23.5 -150q-25 -121 -53.5 -209 t-73.5 -145.5t-111.5 -85t-165.5 -27.5q-84 0 -142 25.5t-95 65.5t-53.5 89t-16.5 96zM336 307q0 -25 9 -41t38 -16q23 0 39 14.5t20 30.5q4 8 12.5 37.5t17.5 71.5t18.5 89.5t17.5 92.5t13 82t5 55q0 20 -11.5 33.5t-31.5 13.5q-23 0 -37 -8t-25 -32.5t-22.5 -70 t-25.5 -116.5l-29 -162q-4 -23 -6 -40t-2 -34z" />
<glyph unicode="&#x1af;" horiz-adv-x="1089" d="M79.5 200.5q-18.5 69.5 0.5 161.5l207 1063h278l-209 -1060q-10 -49 13.5 -75t58.5 -26t59.5 19.5t34.5 68.5l209 1073h283l-25 -129q33 0 58.5 8.5t45 30t33 57t25.5 93.5l29 145h196l-33 -176q-33 -164 -123 -253t-227 -89h-41l-147 -764q-72 -360 -399 -360 q-82 0 -150 24.5t-113 71.5t-63.5 116.5z" />
<glyph unicode="&#x1b0;" horiz-adv-x="1046" d="M43 160q4 47 14 96l146 758h280l-133 -686q-6 -29 3 -51.5t38 -22.5q25 0 50.5 28.5t33.5 67.5l125 664h281l-19 -94q55 6 86 45t51 141l25 127h197l-29 -158q-29 -164 -121 -253t-229 -89h-17l-141 -733h-281l23 96l-10 2q-35 -49 -93.5 -79.5t-105.5 -30.5 q-74 0 -111.5 23.5t-52 62.5t-10.5 86z" />
<glyph unicode="&#x1fc;" horiz-adv-x="1314" d="M-31 0l578 1425h874l-37 -266h-374l-41 -299h327l-39 -272h-327l-43 -320h375l-35 -268h-658l43 309h-225l-123 -309h-295zM492 575h157l82 580h-10zM786 1610l396 266l118 -190l-440 -216z" />
<glyph unicode="&#x1fd;" horiz-adv-x="1202" d="M23 188q0 70 15 147t61 139.5t133 103t229 40.5h23.5t23.5 -2l16 86q2 8 2 23q0 18 -12 29.5t-43 11.5q-20 0 -45 -12.5t-47 -65.5l-229 76q59 135 158.5 198.5t240.5 63.5q57 0 102 -13.5t74 -41.5q43 29 97.5 44t125.5 15q147 0 230.5 -67.5t83.5 -184.5 q0 -100 -35 -170.5t-93.5 -116t-133 -65.5t-156.5 -20q-18 0 -37 1t-37 3q-8 -29 -11 -54.5t-3 -42.5q2 -27 10 -45t35 -18q29 0 50 17.5t34 60.5l276 -31q-43 -154 -138 -231.5t-259 -77.5q-100 0 -162.5 32.5t-95.5 94.5q-37 -45 -78 -71t-79 -38t-70.5 -15t-53.5 -3 q-115 0 -158.5 55t-43.5 145zM311 301q0 -29 16.5 -41t43.5 -12q33 0 53 24.5t29 63.5l18 90h-25q-135 0 -135 -125zM645 1176l279 380l200 -110l-348 -359zM813 627h23q63 0 98 26.5t35 79.5q0 39 -47 39q-43 0 -70 -38t-39 -107z" />
<glyph unicode="&#x1fe;" horiz-adv-x="911" d="M35 25l76 116q-33 63 -33 154q0 23 3 47.5t7 48.5l131 688q18 92 48 159t76 112t110.5 66.5t152.5 21.5q96 0 168 -31t115 -90l80 121l63 -41l-104 -156q16 -49 16 -106q0 -53 -12 -111l-127 -676q-31 -168 -123 -264t-272 -96q-86 0 -149.5 24.5t-106.5 67.5l-62 -92z M356 340q0 -76 72 -76q35 0 59.5 19.5t34.5 68.5l76 396l-233 -353l-5 -22q-2 -10 -3 -17.5t-1 -15.5zM399 575l236 357l22 117q4 10 4.5 19t0.5 19q0 39 -20.5 56.5t-51.5 17.5q-35 0 -59.5 -20.5t-34.5 -67.5zM535 1610l395 266l119 -190l-441 -216z" />
<glyph unicode="&#x1ff;" horiz-adv-x="821" d="M41 -31l74 117q-31 39 -45.5 85t-14.5 91q0 55 7.5 114.5t19.5 125.5q10 49 21.5 100t23.5 99.5t27.5 90.5t31.5 70q47 84 128.5 126t181.5 42q59 0 107 -13t83 -36l84 129l53 -33l-88 -137q35 -37 51.5 -84t16.5 -94q0 -33 -3 -73t-9.5 -81t-12.5 -82t-12 -73 q-25 -121 -53.5 -209t-73.5 -145.5t-111.5 -85t-165.5 -27.5q-66 0 -115.5 15t-84.5 42l-68 -106zM336 307q0 -25 9 -41t38 -16q23 0 39 14.5t20 30.5q4 8 11.5 36.5t16.5 70.5t19.5 89.5t18.5 92.5l-172 -269v-8zM360 469l166 260q-2 16 -13.5 28.5t-29.5 12.5 q-23 0 -37 -8t-25 -32.5t-22.5 -70t-25.5 -116.5zM410 1176l278 380l201 -110l-348 -359z" />
<glyph unicode="&#x218;" horiz-adv-x="874" d="M51 264q0 49 12 103l283 24q-10 -35 -10 -61q0 -29 15.5 -48.5t58.5 -19.5q41 0 67.5 21.5t42 55.5t21.5 75t6 80q0 41 -23.5 62.5t-85.5 49.5q-74 33 -123 69t-76.5 74.5t-39 79.5t-11.5 86q0 113 28 209.5t83 166t138 108.5t194 39q88 0 149.5 -20.5t99.5 -57.5t54 -85 t16 -104q0 -63 -18 -131l-277 -16q4 16 6.5 32.5t2.5 33.5q0 29 -14.5 50t-59.5 21q-35 0 -57.5 -19.5t-36 -47t-18.5 -57t-5 -52.5q0 -35 26.5 -63.5t106.5 -63.5q66 -29 109 -58.5t67.5 -63.5t34.5 -72.5t10 -83.5q0 -117 -21.5 -224.5t-73.5 -189.5t-139 -130t-216 -48 q-86 0 -147.5 21.5t-101.5 58t-58.5 87t-18.5 109.5zM139 -565l101 219h-50l43 227h240l-43 -223l-156 -223h-135z" />
<glyph unicode="&#x219;" horiz-adv-x="792" d="M29 238q0 12 1 26.5t3 28.5l276 35q-2 -8 -3 -13.5t-1 -11.5q0 -29 16.5 -45t43.5 -16q41 0 61 31.5t20 64.5t-16 46t-39 22q-49 18 -98 35.5t-88 45t-63.5 70.5t-24.5 113q0 80 25.5 145.5t73.5 113.5t119 74.5t161 26.5q145 0 222 -65.5t77 -178.5q0 -33 -7 -65 l-274 -29q2 6 2 15q0 27 -12 47t-41 20q-25 0 -39 -11t-21.5 -25.5t-9.5 -28t-2 -17.5q0 -33 45 -47q61 -20 114.5 -40.5t91.5 -51.5t59.5 -77t21.5 -116q0 -72 -20.5 -139t-67.5 -119.5t-123 -83t-184 -30.5q-135 0 -217 62.5t-82 187.5zM100 -565l101 219h-49l43 227h239 l-43 -223l-155 -223h-136z" />
<glyph unicode="&#x2c6;" horiz-adv-x="788" d="M223 1151l338 326h162l207 -347l-117 -67l-203 207l-299 -215z" />
<glyph unicode="&#x2c7;" horiz-adv-x="788" d="M272 1401l125 96l205 -192l283 192l86 -98l-326 -324h-162z" />
<glyph unicode="&#x2d8;" horiz-adv-x="991" d="M287 1434h200q-2 -6 -2 -13.5v-13.5q0 -63 33 -97t80 -34q31 0 57.5 15.5t47 39t35 51t20.5 52.5h219q-18 -61 -49 -121t-78 -106t-112.5 -74.5t-151.5 -28.5q-92 0 -152.5 29.5t-94.5 76.5t-46 105.5t-6 118.5z" />
<glyph unicode="&#x2d9;" horiz-adv-x="835" d="M436 1120l51 266h242l-51 -266h-242z" />
<glyph unicode="&#x2da;" horiz-adv-x="835" d="M362 1229q0 49 16.5 95t47.5 80t75 54.5t97 20.5q78 0 132 -47.5t54 -118.5q0 -49 -15 -95.5t-46 -80t-75 -54t-99 -20.5q-78 0 -132.5 47t-54.5 119zM510 1257q0 -23 16.5 -37t38.5 -14q29 0 51.5 20.5t22.5 53.5q0 23 -16 37t-39 14q-29 0 -51.5 -22.5t-22.5 -51.5z " />
<glyph unicode="&#x2db;" horiz-adv-x="808" d="M362 -281q0 53 40 130t118 169h135l4 -8q-43 -53 -65.5 -96t-33.5 -75t-13 -50l-2 -18q0 -33 21.5 -49.5t54.5 -16.5q20 0 42.5 5t69.5 20l27 -133q-53 -31 -111.5 -43.5t-105.5 -12.5q-78 0 -129.5 42t-51.5 136z" />
<glyph unicode="&#x2dc;" horiz-adv-x="741" d="M184 1214q63 111 122 148t112 37q31 0 59.5 -11.5t53 -23.5t46 -23.5t39.5 -11.5q12 0 23.5 1t25 7t30 20.5t38.5 39.5l119 -74q-53 -115 -113.5 -154t-115.5 -39q-35 0 -63 11.5t-51.5 25t-45 24.5t-45.5 11q-23 0 -49.5 -13t-67.5 -61z" />
<glyph unicode="&#x2dd;" horiz-adv-x="821" d="M256 1176l279 380l200 -110l-348 -359zM604 1176l279 380l200 -110l-348 -359z" />
<glyph unicode="&#x3a9;" horiz-adv-x="913" d="M-8 0l51 262h80l4 6q-29 29 -36 78t9 123l119 612q35 184 132.5 271.5t254.5 87.5q154 0 248 -74t94 -215q0 -45 -8 -84l-113 -598q-16 -78 -39.5 -125t-64.5 -76v-6h84l-51 -262h-344l55 279q43 20 57 81l138 715q2 8 2 23q0 35 -23 50t-51 15q-35 0 -59.5 -20.5 t-34.5 -67.5l-138 -715q-8 -35 0.5 -53t28.5 -26l-55 -281h-340z" />
<glyph unicode="&#x3c0;" horiz-adv-x="864" d="M12 0l197 1014h678l-197 -1014h-282l153 797h-117l-153 -797h-279z" />
<glyph unicode="&#x401;" horiz-adv-x="804" d="M4 0l277 1425h653l-51 -266h-375l-59 -299h327l-53 -272h-328l-59 -322h375l-54 -266h-653zM315 1493l52 266h241l-51 -266h-242zM672 1493l51 266h244l-52 -266h-243z" />
<glyph unicode="&#x402;" horiz-adv-x="1015" d="M127 0l225 1159h-192l51 266h739l-51 -266h-274l-54 -270h7q49 31 100 49t115 18q121 0 162.5 -73.5t21.5 -196.5l-74 -432q-14 -82 -40.5 -143.5t-70.5 -102.5t-107.5 -61.5t-152.5 -20.5h-57l41 221q47 2 67.5 20.5t30.5 68.5l74 382q10 47 -7 67t-52 20 q-18 0 -47 -10.5t-54 -28.5l-129 -666h-272z" />
<glyph unicode="&#x403;" horiz-adv-x="806" d="M23 0l276 1425h653l-51 -266h-375l-225 -1159h-278zM524 1610l396 266l118 -190l-440 -216z" />
<glyph unicode="&#x404;" horiz-adv-x="874" d="M82 365l135 698q16 84 50 153.5t86.5 118.5t122 76t159.5 27q96 0 162.5 -29t105.5 -79t51.5 -116.5t-2.5 -142.5l-276 -47q10 63 -10.5 105t-63.5 42q-29 0 -47 -11t-31.5 -27.5t-20.5 -36t-9 -33.5l-41 -207h237l-51 -270h-240l-47 -250q-2 -14 -2 -28.5t6 -27 t21.5 -19.5t42.5 -7q88 0 123 147l268 -36q-12 -84 -42 -153t-80 -119t-120.5 -77.5t-165.5 -27.5q-193 0 -274.5 98t-46.5 279z" />
<glyph unicode="&#x405;" horiz-adv-x="874" d="M51 264q0 49 12 103l283 24q-10 -35 -10 -61q0 -29 15.5 -48.5t58.5 -19.5q41 0 67.5 21.5t42 55.5t21.5 75t6 80q0 41 -23.5 62.5t-85.5 49.5q-74 33 -123 69t-76.5 74.5t-39 79.5t-11.5 86q0 113 28 209.5t83 166t138 108.5t194 39q88 0 149.5 -20.5t99.5 -57.5t54 -85 t16 -104q0 -63 -18 -131l-277 -16q4 16 6.5 32.5t2.5 33.5q0 29 -14.5 50t-59.5 21q-35 0 -57.5 -19.5t-36 -47t-18.5 -57t-5 -52.5q0 -35 26.5 -63.5t106.5 -63.5q66 -29 109 -58.5t67.5 -63.5t34.5 -72.5t10 -83.5q0 -117 -21.5 -224.5t-73.5 -189.5t-139 -130t-216 -48 q-86 0 -147.5 21.5t-101.5 58t-58.5 87t-18.5 109.5z" />
<glyph unicode="&#x406;" horiz-adv-x="495" d="M27 0l276 1425h279l-277 -1425h-278z" />
<glyph unicode="&#x407;" horiz-adv-x="495" d="M27 0l276 1425h279l-277 -1425h-278zM154 1487l51 266h241l-51 -266h-241zM510 1487l51 266h244l-51 -266h-244z" />
<glyph unicode="&#x408;" horiz-adv-x="737" d="M-86 176l221 160q20 -39 49 -59.5t52 -20.5q53 0 76.5 33t29.5 61l209 1075h276l-211 -1079q-33 -168 -129 -263t-268 -95q-96 0 -176 45t-129 143z" />
<glyph unicode="&#x409;" horiz-adv-x="1329" d="M-70 160q74 37 122 82t81 100t54.5 125t37.5 156l156 802h651l-102 -522h33q88 0 154.5 -23.5t111.5 -65.5t68.5 -98.5t23.5 -121.5q0 -135 -35 -245.5t-98.5 -187.5t-151.5 -119t-194 -42h-365l223 1159h-129l-106 -538q-29 -147 -66 -259t-89 -192t-123.5 -133 t-170.5 -84zM807 266h51q33 0 66.5 17.5t59.5 49.5t42 80t16 109q0 74 -35.5 93.5t-80.5 19.5h-47z" />
<glyph unicode="&#x40a;" horiz-adv-x="1329" d="M23 0l276 1425h279l-105 -534h174l105 534h278l-104 -538h55q88 0 151.5 -23.5t104.5 -65.5t60.5 -98.5t19.5 -121.5q0 -135 -34 -243t-96.5 -182.5t-150.5 -113.5t-194 -39h-365l117 621h-174l-119 -621h-278zM807 266h51q68 0 124 58.5t56 181.5q0 74 -35.5 93 t-80.5 19h-48z" />
<glyph unicode="&#x40b;" horiz-adv-x="1011" d="M131 0l225 1159h-192l51 266h739l-51 -266h-274l-54 -270h7q49 31 100 49t115 18q121 0 162.5 -73.5t21.5 -196.5l-127 -686h-283l121 618q10 47 -7 67t-52 20q-18 0 -47 -10.5t-54 -28.5l-129 -666h-272z" />
<glyph unicode="&#x40c;" horiz-adv-x="913" d="M20 0l277 1427h272l-114 -585h28q47 0 85 48t73 136l150 395h272l-168 -434q-41 -104 -102.5 -165.5t-124.5 -84.5q72 -29 107.5 -85t35.5 -160v-492h-260l4 408q2 82 -19.5 135t-91.5 53h-36l-115 -596h-273zM543 1610l395 266l119 -190l-441 -216z" />
<glyph unicode="&#x40e;" horiz-adv-x="831" d="M49 -23l45 226h25q55 0 89 24.5t62 71.5l29 57l-102 1067h258l32 -680h11l260 682h274l-493 -1108q-51 -115 -100.5 -180t-99.5 -100t-101.5 -46t-106.5 -14h-82zM324 1827h200q-2 -6 -2 -13.5v-13.5q0 -63 33 -97t80 -34q31 0 57.5 15.5t47 39t34.5 51t21 52.5h219 q-18 -61 -49 -120.5t-78 -106t-112.5 -75t-151.5 -28.5q-92 0 -152.5 29.5t-94.5 77t-46.5 105.5t-5.5 118z" />
<glyph unicode="&#x40f;" horiz-adv-x="950" d="M23 0l276 1425h279l-224 -1149h148l223 1149h276l-276 -1425h-248l-61 -303h-215l61 303h-239z" />
<glyph unicode="&#x410;" horiz-adv-x="919" d="M-63 0l546 1425h340l-4 -1425h-291l11 279h-209l-97 -279h-296zM420 541h129l16 227l27 289h-12l-88 -289z" />
<glyph unicode="&#x411;" horiz-adv-x="876" d="M23 0l276 1425h619l-52 -266h-340l-51 -256h68q168 0 245.5 -73.5t77.5 -219.5q0 -125 -33.5 -236.5t-95 -194.5t-148.5 -131t-196 -48h-370zM352 266h58q68 0 123 63.5t55 196.5q0 37 -10.5 58.5t-26.5 33t-37.5 14.5t-44.5 3h-45z" />
<glyph unicode="&#x412;" horiz-adv-x="913" d="M23 0l276 1425h301q332 0 332 -299q0 -158 -56.5 -248t-160.5 -122l-2 -11q70 -25 95.5 -80t25.5 -126q0 -121 -31 -220.5t-88.5 -170t-139 -109.5t-184.5 -39h-368zM348 262h49q41 0 72 19.5t52.5 53.5t31.5 77t10 92q0 61 -29.5 87.5t-68.5 26.5h-45zM471 877h35 q74 0 113.5 51t39.5 139q0 57 -26.5 74.5t-77.5 17.5h-29z" />
<glyph unicode="&#x413;" horiz-adv-x="806" d="M23 0l276 1425h653l-51 -266h-375l-225 -1159h-278z" />
<glyph unicode="&#x414;" horiz-adv-x="1077" d="M-113 -270l97 510l90 22q37 25 61.5 52.5t42 61.5t29.5 76t24 95l201 878h674l-227 -1159h106l-102 -536h-226l54 270h-547l-53 -270h-224zM367 266h245l176 893h-174l-135 -592q-20 -92 -48 -173t-64 -128z" />
<glyph unicode="&#x415;" horiz-adv-x="806" d="M23 0l276 1425h653l-51 -266h-375l-59 -299h328l-54 -272h-327l-60 -322h375l-53 -266h-653z" />
<glyph unicode="&#x416;" horiz-adv-x="1349" d="M-61 0l188 492q41 104 98.5 160.5t139.5 84.5q-53 23 -92.5 84.5t-36.5 165.5v434h258l-2 -395q0 -88 25.5 -136t72.5 -48h28l115 585h273l-115 -585h29q47 0 88 48t73 136l152 395h266l-168 -434q-41 -104 -102.5 -165.5t-124.5 -84.5q72 -29 107.5 -85t35.5 -160v-492 h-266l4 408q0 41 -3 75.5t-13.5 59t-32 39t-55.5 14.5h-37l-115 -596h-272l114 596h-36q-35 0 -60.5 -14.5t-45 -39t-35 -59t-32.5 -75.5l-151 -408h-272z" />
<glyph unicode="&#x417;" horiz-adv-x="815" d="M2 270q0 35 6 76l287 55q-2 -14 -3 -27.5t-1 -23.5q0 -47 17.5 -66.5t51.5 -19.5q33 0 57.5 23.5t40 61.5t22.5 85t7 94q0 57 -24.5 75t-65.5 18h-57l45 233h82q59 0 94 60.5t35 152.5q0 33 -14.5 63.5t-55.5 30.5q-45 0 -76.5 -37t-46.5 -100l-262 59 q41 172 146.5 263.5t273.5 91.5q156 0 239 -83t83 -216q0 -59 -7.5 -118.5t-29 -113t-58 -97.5t-94.5 -71v-4q41 -23 61.5 -70t20.5 -114q0 -268 -123 -415.5t-340 -147.5q-154 0 -232.5 76.5t-78.5 205.5z" />
<glyph unicode="&#x418;" horiz-adv-x="985" d="M12 0l275 1425h274l-147 -759h4l366 759h277l-277 -1425h-276l147 754h-4l-368 -754h-271z" />
<glyph unicode="&#x419;" horiz-adv-x="985" d="M12 0l275 1425h274l-147 -759h4l366 759h277l-277 -1425h-276l147 754h-4l-368 -754h-271zM416 1819h200q-2 -6 -2 -13.5v-13.5q0 -63 33 -97t80 -34q31 0 57.5 15.5t47 39t35 51t20.5 52.5h219q-18 -61 -49 -121t-78 -106t-112.5 -74.5t-151.5 -28.5q-92 0 -152.5 29.5 t-94.5 76.5t-46 105.5t-6 118.5z" />
<glyph unicode="&#x41a;" horiz-adv-x="913" d="M20 0l277 1427h272l-114 -585h28q47 0 85 48t73 136l150 395h272l-168 -434q-41 -104 -102.5 -165.5t-124.5 -84.5q72 -29 107.5 -85t35.5 -160v-492h-260l4 408q2 82 -19.5 135t-91.5 53h-36l-115 -596h-273z" />
<glyph unicode="&#x41b;" horiz-adv-x="944" d="M-70 160q74 37 122 82t81 100t54.5 125t37.5 156l156 802h655l-276 -1425h-271l226 1159h-144l-106 -538q-29 -147 -66 -259t-89 -192t-123.5 -133t-170.5 -84z" />
<glyph unicode="&#x41c;" horiz-adv-x="1191" d="M10 0l277 1425h256l61 -403l49 -274h13l145 280l219 397h264l-276 -1425h-279l129 666h-8l-110 -222l-88 -165h-187l-24 182l-25 211h-10l-129 -672h-277z" />
<glyph unicode="&#x41d;" horiz-adv-x="940" d="M23 0l276 1425h279l-111 -565h178l111 565h276l-276 -1425h-277l113 590h-178l-113 -590h-278z" />
<glyph unicode="&#x41e;" horiz-adv-x="911" d="M78 295q0 23 3 47.5t7 48.5l131 688q18 92 48 159t76 112t110.5 66.5t152.5 21.5q154 0 246 -78t92 -225q0 -53 -12 -111l-127 -676q-31 -168 -123 -264t-272 -96q-162 0 -247 84t-85 223zM356 340q0 -76 72 -76q35 0 59.5 19.5t34.5 68.5l135 697q4 10 4.5 19t0.5 19 q0 39 -20.5 56.5t-51.5 17.5q-35 0 -59.5 -20.5t-34.5 -67.5l-136 -700q-2 -10 -3 -17.5t-1 -15.5z" />
<glyph unicode="&#x41f;" horiz-adv-x="913" d="M23 0l276 1425h702l-276 -1425h-276l223 1153h-148l-223 -1153h-278z" />
<glyph unicode="&#x420;" horiz-adv-x="876" d="M23 0l276 1425h317q78 0 141.5 -16t108.5 -54t70 -102.5t25 -158.5q0 -279 -133.5 -425.5t-360.5 -146.5h-66l-100 -522h-278zM455 791h47q27 0 59.5 9t61 34.5t47 72.5t18.5 123q0 72 -31.5 100.5t-87.5 28.5h-43z" />
<glyph unicode="&#x421;" horiz-adv-x="874" d="M72 266q0 41 10 99l135 698q16 84 47 153.5t80 118.5t121 76t170 27q166 0 246 -82t80 -205q0 -45 -9 -80l-276 -47q2 10 3 19.5t1 19.5q0 47 -20.5 77.5t-57.5 30.5q-29 0 -47 -11t-31.5 -27.5t-20.5 -36t-9 -33.5l-142 -727q-2 -8 -2 -25q0 -23 13.5 -40t56.5 -17 q88 0 123 147l268 -36q-12 -84 -42 -153t-79 -119t-119.5 -77.5t-167.5 -27.5q-164 0 -247.5 71.5t-83.5 206.5z" />
<glyph unicode="&#x422;" horiz-adv-x="737" d="M145 0l226 1159h-219l51 266h717l-52 -266h-219l-225 -1159h-279z" />
<glyph unicode="&#x423;" horiz-adv-x="831" d="M49 -23l45 226h25q55 0 89 24.5t62 71.5l29 57l-102 1067h258l32 -680h11l260 682h274l-493 -1108q-51 -115 -100.5 -180t-99.5 -100t-101.5 -46t-106.5 -14h-82z" />
<glyph unicode="&#x424;" horiz-adv-x="1255" d="M116.5 380q-18.5 79 2.5 181l78 406q35 184 160.5 287.5t314.5 105.5l12 65h277l-13 -65q86 0 152.5 -28.5t108.5 -81t57.5 -125t-2.5 -164.5l-82 -443q-35 -182 -152 -288.5t-323 -110.5l-23 -119h-276l24 127q-74 2 -140.5 32.5t-111.5 86t-63.5 134.5zM379 512 q-12 -61 20.5 -92t81.5 -33l137 703q-53 -2 -96 -34t-55 -93zM758 387q57 -4 99 31t52 94l88 451q12 68 -23.5 96t-78.5 31z" />
<glyph unicode="&#x425;" horiz-adv-x="921" d="M-76 0l438 743l-141 682h318l39 -331h12l164 331h348l-416 -682l160 -743h-320l-49 397h-8l-201 -397h-344z" />
<glyph unicode="&#x426;" horiz-adv-x="950" d="M23 0l276 1425h279l-226 -1159h148l225 1159h276l-225 -1159h129l-102 -534h-223l51 268h-608z" />
<glyph unicode="&#x427;" horiz-adv-x="903" d="M168 856l111 569h272l-100 -518q-6 -35 -4 -56.5t11 -33.5t24.5 -16t33.5 -4t40 7t44 17l119 604h272l-276 -1425h-273l107 553q-80 -18 -143 -18q-152 0 -212.5 74.5t-25.5 246.5z" />
<glyph unicode="&#x428;" horiz-adv-x="1310" d="M23 0l276 1425h272l-225 -1161h143l226 1161h272l-225 -1161h145l226 1161h270l-277 -1425h-1103z" />
<glyph unicode="&#x429;" horiz-adv-x="1333" d="M25 0l276 1425h272l-227 -1159h143l228 1159h272l-227 -1159h145l228 1159h270l-227 -1159h110l-102 -536h-223l53 270h-991z" />
<glyph unicode="&#x42a;" horiz-adv-x="1099" d="M164 1159l53 266h571l-102 -522h33q88 0 154.5 -23.5t111.5 -65.5t68.5 -98.5t23.5 -121.5q0 -135 -34.5 -245.5t-98 -187.5t-151.5 -119t-195 -42h-365l226 1159h-295zM563 266h51q33 0 67 17.5t59.5 49.5t42 80t16.5 109q0 74 -36 93.5t-81 19.5h-47z" />
<glyph unicode="&#x42b;" horiz-adv-x="1316" d="M23 0l276 1425h279l-103 -522h33q88 0 154.5 -23.5t111.5 -65.5t68.5 -98.5t23.5 -121.5q0 -135 -34.5 -245.5t-98 -187.5t-151.5 -119t-195 -42h-364zM352 266h51q33 0 67 17.5t59.5 49.5t42 80t16.5 109q0 74 -36 93.5t-81 19.5h-47zM854 0l276 1425h279l-276 -1425 h-279z" />
<glyph unicode="&#x42c;" horiz-adv-x="876" d="M23 0l276 1425h279l-103 -522h33q88 0 154.5 -23.5t111.5 -65.5t68.5 -98.5t23.5 -121.5q0 -135 -34.5 -245.5t-98 -187.5t-151.5 -119t-195 -42h-364zM352 266h51q33 0 67 17.5t59.5 49.5t42 80t16.5 109q0 74 -36 93.5t-81 19.5h-47z" />
<glyph unicode="&#x42d;" horiz-adv-x="841" d="M45 211q-14 70 2 154l272 36q-14 -74 5.5 -110.5t60.5 -36.5q82 0 100 102l45 230h-239l53 270h240l39 207q2 14 3 33.5t-6.5 36t-24.5 27.5t-48 11q-43 0 -75 -37.5t-44 -109.5l-258 47q12 82 43 149.5t81 115.5t118.5 75t156.5 27q98 0 167 -29t110 -81t53 -123.5 t-4 -155.5l-129 -674q-18 -90 -47 -162t-76 -122t-116.5 -76.5t-168.5 -26.5q-86 0 -151.5 27.5t-106.5 76.5t-55 119z" />
<glyph unicode="&#x42e;" horiz-adv-x="1277" d="M10 0l277 1425h278l-110 -565h123l43 215q33 172 124 265.5t267 93.5q172 0 245.5 -96.5t38.5 -280.5l-131 -709q-37 -182 -126 -271t-269 -89q-170 0 -247 94t-42 278l43 230h-123l-112 -590h-279zM739 342q-10 -49 13.5 -68.5t56.5 -19.5t55.5 19.5t32.5 68.5l143 737 q10 47 -11 67.5t-54 20.5t-57.5 -20.5t-34.5 -67.5z" />
<glyph unicode="&#x42f;" horiz-adv-x="911" d="M-20 0l143 459q10 33 26.5 65.5t38 61t48 51t59.5 33.5q-59 37 -88 102.5t-29 149.5q0 137 40 233t104.5 155.5t145.5 87t165 27.5h371l-269 -1425h-272l112 582h-32q-57 0 -97 -53.5t-67 -135.5l-123 -393h-276zM446 965q0 -72 43 -96.5t95 -24.5h43l61 315h-51 q-80 0 -135.5 -45t-55.5 -149z" />
<glyph unicode="&#x430;" horiz-adv-x="835" d="M35 170q0 66 11 163t38 226q23 117 50.5 204t66.5 145.5t93 87t128 28.5q35 0 75 -17.5t62 -70.5l8 4l19 72h278l-196 -1012h-277l17 80h-11q-37 -51 -88 -72.5t-80 -21.5q-113 0 -153.5 52t-40.5 132zM328 287q0 -37 45 -41q18 0 40.5 18.5t39.5 89.5l55 285 q4 14 6 28.5t2 30.5q0 23 -10 40.5t-41 17.5q-23 0 -38 -14.5t-19 -30.5q-6 -12 -19.5 -64.5t-27 -119t-23.5 -133t-10 -107.5z" />
<glyph unicode="&#x431;" horiz-adv-x="813" d="M49 262q0 27 1 55.5t6 69.5t15.5 101.5t26.5 150.5q10 53 19.5 98t19.5 86t20.5 83t22.5 89q35 143 73 230.5t104.5 137.5t175 73.5t284.5 38.5l17 -238q-104 -14 -172 -26.5t-110 -34t-65.5 -59.5t-40.5 -103q-4 -20 -10 -39t-12 -55q33 23 66.5 30.5t56.5 7.5 q111 0 177.5 -66.5t61.5 -191.5q0 -63 -11 -128.5t-21 -118.5q-25 -125 -56.5 -214t-79 -145.5t-117 -82t-167.5 -25.5q-90 0 -146.5 26.5t-87 67.5t-41 89t-10.5 93zM326 307q0 -25 9 -41t38 -16q23 0 39 14.5t20 30.5q6 12 19.5 59t27 105.5t23.5 113t10 82.5 q0 20 -11.5 33.5t-31.5 13.5q-45 0 -64.5 -39.5t-42.5 -134.5q-6 -25 -12 -57.5t-12 -64t-9 -58t-3 -41.5z" />
<glyph unicode="&#x432;" horiz-adv-x="851" d="M54 244.5q-5 74.5 12 158.5l45 240q14 76 41.5 146.5t73.5 124t116 85t168 31.5t159.5 -23.5t97.5 -60.5t49 -82t13 -86q0 -25 -6 -55.5t-21.5 -62t-41 -59.5t-62.5 -44v-4q61 -23 81 -76t20 -106q0 -61 -20.5 -129t-70 -124.5t-129 -93t-198.5 -36.5q-115 0 -184.5 33.5 t-103.5 91t-39 132zM334 389q-14 -70 6 -104.5t70 -34.5q53 0 73.5 38t24.5 74q4 37 -13.5 60.5t-64.5 23.5h-16l37 191h34q49 0 72 22.5t27 53.5q4 39 -21.5 55t-66.5 16q-57 0 -81 -44t-34 -101z" />
<glyph unicode="&#x433;" horiz-adv-x="792" d="M43 240q0 100 31.5 166.5t85 111.5t126 75t154.5 56q47 16 62.5 37t15.5 43q0 16 -10 30.5t-37 14.5q-35 0 -57.5 -27.5t-26.5 -60.5l-248 49q16 63 44 117.5t70 94.5t101.5 62.5t137.5 22.5q158 0 229.5 -70.5t75.5 -183.5q0 -84 -31 -144.5t-84 -105.5t-125 -78.5 t-151 -60.5q-29 -10 -56.5 -27.5t-27.5 -62.5q0 -25 13 -41t42 -16q35 0 64.5 22.5t35.5 67.5l254 -56q-35 -133 -128 -209.5t-245 -80.5q-86 0 -145 19.5t-97 53t-55.5 80.5t-17.5 101z" />
<glyph unicode="&#x434;" horiz-adv-x="819" d="M33 262q0 49 11 123t27.5 151.5t39 148.5t45.5 118q43 88 101 130t151 42q23 0 69.5 -9.5t87.5 -39.5l6 2q6 39 10.5 78t4.5 55q0 84 -46 111.5t-134 27.5q-16 0 -31 -1t-31 -3v242q47 8 88 11t76 3q98 0 164.5 -24.5t107.5 -70.5t58.5 -109.5t17.5 -141.5q0 -35 -4 -86 t-14.5 -128t-28.5 -180.5t-47 -242.5q-20 -98 -49 -186t-76 -155t-117.5 -104.5t-173.5 -37.5q-98 0 -160.5 26.5t-96.5 67.5t-45 89t-11 93zM315 309q0 -25 8.5 -41t36.5 -16q25 0 42.5 18.5t29.5 48t20.5 67.5t16.5 79q14 66 23.5 119t9.5 80q0 20 -13.5 33.5t-33.5 13.5 q-43 0 -65.5 -49.5t-49.5 -178.5q-4 -18 -8 -40.5t-7 -47t-6.5 -47t-3.5 -39.5z" />
<glyph unicode="&#x435;" horiz-adv-x="806" d="M51 303q0 53 6 106.5t17 102.5q16 92 40.5 184t68.5 167t114 121t178 46q147 0 230 -67.5t83 -184.5q0 -102 -31.5 -172.5t-86 -115t-126 -63.5t-151.5 -19h-25.5t-27.5 2q-8 -29 -11 -61t-3 -48q2 -51 41 -51q29 0 46 17.5t29 60.5l279 -31q-16 -68 -43 -124t-69 -98 t-102.5 -64.5t-146.5 -22.5q-92 0 -152.5 25.5t-95 69.5t-48 101.5t-13.5 118.5zM379 627q76 0 105.5 24.5t29.5 77.5q0 16 -11 29.5t-34 13.5q-39 0 -58.5 -38t-31.5 -107z" />
<glyph unicode="&#x436;" horiz-adv-x="1783" d="M45 303l264 39q-10 -53 4.5 -72.5t36.5 -19.5q20 0 31.5 11t21.5 30q10 16 24.5 74.5t31.5 144.5q16 86 23 138t7 77q-4 45 -38 45q-23 0 -45.5 -20.5t-30.5 -71.5l-258 35q29 150 114.5 234.5t233.5 84.5q76 0 126 -20.5t80.5 -53t44 -75.5t17.5 -88q2 -16 -1 -49 t-7 -74l10 -2q47 80 87 160.5t89 181.5h213l-98 -549h8q27 57 47.5 102t40 85t38 79t42.5 86q20 45 48 84t65 68.5t87 46t116 16.5q147 0 222 -85t46 -245l-262 -30q10 53 -4.5 76.5t-36.5 23.5q-20 0 -31.5 -11t-21.5 -30q-10 -16 -24.5 -74.5t-31.5 -144.5 q-16 -86 -23.5 -138.5t-7.5 -76.5q4 -45 39 -45q23 0 46.5 20.5t31.5 71.5l256 -35q-29 -150 -118 -234.5t-236 -84.5q-76 0 -125 20.5t-79 53t-44 75.5t-16 88q-2 12 -1 41t3 47l-6 2q-51 -86 -86 -157.5t-80 -157.5h-215l108 553h-6q-33 -72 -60.5 -128t-52 -101t-46 -82 t-40.5 -70q-45 -76 -113.5 -129t-187.5 -53q-147 0 -217.5 82t-52.5 231z" />
<glyph unicode="&#x437;" horiz-adv-x="765" d="M6 246v24l287 37q-2 -10 -3 -18t-1 -19q0 -59 47 -59q29 0 54.5 41t25.5 113q0 63 -47 63h-90l36 190h97q27 0 53.5 31t26.5 96q0 23 -10.5 40.5t-39.5 17.5q-31 0 -53 -27.5t-33 -68.5l-256 45q18 61 46 112t73 88t108.5 56.5t149.5 19.5q133 0 214 -64.5t81 -189.5 q0 -25 -5 -60.5t-22.5 -73.5t-47 -70.5t-79.5 -49.5v-4q41 -23 58.5 -57.5t17.5 -83.5q0 -102 -31.5 -176t-85 -120t-124 -67.5t-146.5 -21.5q-154 0 -227.5 70.5t-73.5 185.5z" />
<glyph unicode="&#x438;" horiz-adv-x="845" d="M43 160q4 47 14 96l146 758h280l-133 -686q-6 -29 3 -51.5t38 -22.5q25 0 50.5 28.5t33.5 67.5l125 664h281l-197 -1014h-281l23 96l-10 2q-35 -49 -93.5 -79.5t-105.5 -30.5q-74 0 -111.5 23.5t-52 62.5t-10.5 86z" />
<glyph unicode="&#x439;" horiz-adv-x="845" d="M43 160q4 47 14 96l146 758h280l-133 -686q-6 -29 3 -51.5t38 -22.5q25 0 50.5 28.5t33.5 67.5l125 664h281l-197 -1014h-281l23 96l-10 2q-35 -49 -93.5 -79.5t-105.5 -30.5q-74 0 -111.5 23.5t-52 62.5t-10.5 86zM268 1430h201q-2 -6 -2 -13.5v-13.5q0 -63 32.5 -97 t80.5 -34q31 0 57.5 15.5t47 39t34.5 51t20 52.5h219q-18 -61 -48.5 -121t-78 -106t-113 -74.5t-151.5 -28.5q-92 0 -152.5 29.5t-94 76.5t-46 105.5t-6.5 118.5z" />
<glyph unicode="&#x43a;" horiz-adv-x="827" d="M2 0l197 1012h272l-76 -385h23q18 0 32.5 4t30 19.5t31.5 44t35 79.5l92 240h264l-115 -295q-31 -76 -80 -125t-104 -66q59 -18 86 -72.5t29 -129.5l6 -326h-256l2 240q0 51 -4 81.5t-14.5 47t-27.5 21.5t-44 5h-31l-76 -395h-272z" />
<glyph unicode="&#x43b;" horiz-adv-x="860" d="M-51 182q45 16 81 38t63.5 53.5t47 75.5t31.5 106l104 559h615l-197 -1014h-270l147 764h-94l-67 -350q-23 -117 -62 -197t-90 -132t-114.5 -80t-135.5 -40z" />
<glyph unicode="&#x43c;" horiz-adv-x="1073" d="M-6 0l196 1014h259l63 -352l27 -140h6l106 174l205 318h258l-196 -1014h-283l82 414h-6l-43 -76l-80 -145h-189l-26 163l-11 76h-6l-84 -432h-278z" />
<glyph unicode="&#x43d;" horiz-adv-x="845" d="M0 0l197 1014h282l-76 -391h121l76 391h281l-197 -1014h-281l78 408h-121l-77 -408h-283z" />
<glyph unicode="&#x43e;" horiz-adv-x="821" d="M55 262q0 55 7.5 114.5t19.5 125.5q10 49 21.5 100t23.5 99.5t27.5 90.5t31.5 70q47 84 128.5 126t181.5 42q80 0 138 -22.5t96 -60.5t55.5 -86t17.5 -99q0 -33 -3 -73t-9.5 -81t-12.5 -82t-12 -73q-25 -121 -53.5 -209t-73.5 -145.5t-111.5 -85t-165.5 -27.5 q-84 0 -142 25.5t-95 65.5t-53.5 89t-16.5 96zM336 307q0 -25 9 -41t38 -16q23 0 39 14.5t20 30.5q4 8 12.5 37.5t17.5 71.5t18.5 89.5t17.5 92.5t13 82t5 55q0 20 -11.5 33.5t-31.5 13.5q-23 0 -37 -8t-25 -32.5t-22.5 -70t-25.5 -116.5l-29 -162q-4 -23 -6 -40t-2 -34z " />
<glyph unicode="&#x43f;" horiz-adv-x="845" d="M4 0l197 1014h280l-22 -96l10 -3q35 49 93.5 80t105.5 31q55 0 89 -13.5t52 -37t24.5 -54t6.5 -65.5q0 -23 -4.5 -48.5t-8.5 -49.5l-145 -758h-281l134 686q2 10 2 27q0 27 -12.5 37t-30.5 10q-35 0 -55.5 -29t-28.5 -67l-125 -664h-281z" />
<glyph unicode="&#x440;" horiz-adv-x="839" d="M-90 -395l274 1409h277l-15 -74l9 -4q18 27 41.5 45t48 27.5t48 13.5t42.5 4q94 0 141 -46t47 -157q0 -16 -1 -33.5t-3 -37.5q-4 -31 -14 -107t-26.5 -164t-37 -174t-43.5 -137q-12 -29 -29.5 -60.5t-47 -60.5t-73 -47t-106.5 -18q-27 0 -76 13t-75 48h-10l-91 -440h-280 zM334 301q0 -23 11 -36t34 -13q20 0 36.5 13.5t24.5 33.5q6 18 15.5 54t17.5 79t17.5 90t15.5 87t10 68t4 34v6q0 16 -11 27.5t-32 11.5q-25 0 -39 -10.5t-24.5 -34t-18.5 -63.5t-20 -101l-4 -23q-14 -78 -25.5 -137t-11.5 -86z" />
<glyph unicode="&#x441;" horiz-adv-x="780" d="M53 225q-4 51 5.5 127t19.5 150q14 92 38.5 187t57.5 157q41 80 122 132t204 52q76 0 136 -21.5t98 -63.5t52.5 -103.5t-0.5 -141.5l-278 -30q10 53 0 76.5t-33 23.5q-35 0 -55 -41q-10 -16 -25.5 -74.5t-32.5 -144.5q-16 -86 -23 -138.5t-7 -76.5q4 -45 41 -45 q23 0 42 20.5t29 71.5l271 -35q-29 -150 -123 -234.5t-246 -84.5q-78 0 -132 20.5t-89 53t-52.5 75.5t-19.5 88z" />
<glyph unicode="&#x442;" horiz-adv-x="1243" d="M4 0l197 1014h280l-16 -84l10 -2q33 37 87 67.5t102 30.5q47 0 77.5 -10t49 -26.5t28.5 -39t15 -49.5q51 55 116.5 90t112.5 35q68 0 105.5 -20.5t55 -55.5t16.5 -81t-11 -99l-150 -770h-280l133 686q8 41 -5.5 57.5t-35.5 16.5q-23 0 -44.5 -17.5t-31.5 -52.5l-133 -690 h-281l134 686q8 41 -5.5 57.5t-35.5 16.5q-25 0 -47.5 -20.5t-30.5 -59.5l-131 -680h-281z" />
<glyph unicode="&#x443;" horiz-adv-x="784" d="M-113 -172q94 8 153.5 49t119.5 146l-56 989h293l-10 -318q-2 -25 -4 -64.5t-6 -82.5t-9.5 -86t-11.5 -74h11q59 135 108 285.5t103 339.5h294q-106 -307 -223 -576.5t-231 -480.5q-43 -80 -95.5 -149.5t-116 -118.5t-141 -77t-174.5 -24z" />
<glyph unicode="&#x444;" horiz-adv-x="1161" d="M70 248q-10 104 18 254q18 92 42 172t52 133q23 39 56.5 77t81 67.5t107.5 48t136 22.5l80 403h260l-80 -403q80 -12 132.5 -36.5t86 -56.5t50 -69t22.5 -74t1 -102.5t-15 -140t-26.5 -147t-31.5 -122.5q-23 -74 -64.5 -126t-97 -86.5t-120 -53t-131.5 -20.5l-72 -377 h-266l71 375q-68 8 -121 33.5t-89.5 60.5t-57 79t-24.5 89zM342 393q-6 -47 7 -89t65 -56l100 514q-18 -2 -36.5 -10.5t-38 -30t-37 -61t-31.5 -105.5q-2 -10 -6.5 -31.5t-8.5 -46t-8 -48t-6 -36.5zM674 248q49 6 74.5 28.5t35.5 61.5q8 29 16.5 60.5t22.5 103.5 q14 68 20.5 121t6.5 79q0 20 -16.5 39t-59.5 21z" />
<glyph unicode="&#x445;" horiz-adv-x="829" d="M-76 0l346 516l-137 498h307l33 -277h8l137 277h326l-338 -498l154 -516h-307l-35 293h-12l-156 -293h-326z" />
<glyph unicode="&#x446;" horiz-adv-x="901" d="M46 160q1 47 11 96l146 758h280l-133 -686q-6 -29 3 -51.5t38 -22.5q25 0 50.5 28.5t33.5 67.5l125 664h281l-117 -586q-23 -115 -3.5 -179.5t83.5 -88.5l-84 -406h-211l45 248q-37 10 -68.5 41t-38.5 68h-16q-35 -41 -69.5 -66t-66.5 -37t-57.5 -16t-44.5 -4 q-74 0 -114.5 23.5t-57 62.5t-15.5 86z" />
<glyph unicode="&#x447;" horiz-adv-x="817" d="M90 578l86 436h277l-74 -363q-12 -66 41 -65q27 0 63 16l82 412h277l-199 -1014h-276l75 391l-6 2q-55 -23 -100 -32t-86 -9q-94 0 -137 58.5t-23 167.5z" />
<glyph unicode="&#x448;" horiz-adv-x="1245" d="M45 144q0 46 10 100l150 770h280l-133 -686q-8 -41 5.5 -57.5t35.5 -16.5q23 0 44.5 17.5t31.5 52.5l133 690h281l-133 -686q-8 -41 5 -57.5t36 -16.5q25 0 47 20.5t30 59.5l131 680h281l-197 -1014h-280l16 84l-10 2q-33 -37 -83 -67.5t-97 -30.5q-88 0 -128 33.5 t-50 91.5q-51 -55 -112 -90t-108 -35q-70 0 -109.5 20.5t-58 55t-18.5 80.5z" />
<glyph unicode="&#x449;" horiz-adv-x="1300" d="M45 144q0 46 10 100l150 770h280l-133 -686q-8 -41 5.5 -57.5t35.5 -16.5q23 0 44.5 17.5t31.5 52.5l133 690h281l-133 -686q-8 -41 5 -57.5t36 -16.5q25 0 47 20.5t30 59.5l131 680h281l-113 -590q-23 -115 -4 -177.5t82 -86.5l-84 -406h-211l45 240q-37 14 -69.5 43 t-38.5 65h-17q-35 -41 -69.5 -63.5t-65 -33.5t-55.5 -14t-43 -3q-88 0 -132 33.5t-54 91.5q-51 -55 -111.5 -90t-108.5 -35q-70 0 -109.5 20.5t-58 55t-18.5 80.5z" />
<glyph unicode="&#x44a;" horiz-adv-x="993" d="M59 782l41 232h518l-67 -352h113q123 0 205.5 -74t82.5 -217q0 -61 -22.5 -129t-72.5 -124.5t-133 -93t-204 -36.5q-100 4 -165.5 36.5t-101.5 89t-43 132.5t11 168l70 368h-232zM492 358q-10 -59 11 -83.5t60 -24.5q49 0 70.5 33.5t21.5 76.5q0 33 -19.5 59.5 t-78.5 26.5h-49z" />
<glyph unicode="&#x44b;" horiz-adv-x="1282" d="M58.5 246q-7.5 76 11.5 168l110 600h287l-68 -352h113q123 0 206 -74t83 -217q0 -61 -22.5 -129t-73 -124.5t-133.5 -93t-203 -36.5q-100 4 -166 36.5t-101.5 89t-43 132.5zM340 358q-10 -59 11.5 -83.5t60.5 -24.5q49 0 70.5 33.5t21.5 76.5q0 33 -19.5 59.5t-78.5 26.5 h-50zM823 0l197 1014h283l-197 -1014h-283z" />
<glyph unicode="&#x44c;" horiz-adv-x="841" d="M58.5 246q-7.5 76 11.5 168l110 600h287l-68 -352h113q123 0 206 -74t83 -217q0 -61 -22.5 -129t-73 -124.5t-133.5 -93t-203 -36.5q-100 4 -166 36.5t-101.5 89t-43 132.5zM340 358q-10 -59 11.5 -83.5t60.5 -24.5q49 0 70.5 33.5t21.5 76.5q0 33 -19.5 59.5t-78.5 26.5 h-50z" />
<glyph unicode="&#x44d;" horiz-adv-x="786" d="M29 287l282 39q-4 -41 5.5 -58.5t31.5 -17.5q25 0 40 15.5t24.5 39t15.5 51t10 50.5h-207l41 215h205q6 29 10.5 56.5t4.5 47.5t-9.5 32.5t-31.5 12.5q-45 0 -68 -78l-270 31q33 160 123 233.5t237 73.5q76 0 127 -17.5t84 -44t50.5 -59t23.5 -63.5q4 -27 5 -67t-2 -86 t-10.5 -96t-15.5 -95q-6 -37 -15 -79t-19.5 -83t-20.5 -78t-23 -61q-18 -41 -45.5 -80t-68.5 -68.5t-97.5 -47t-132.5 -17.5q-72 0 -127 22.5t-92 62.5t-53 95t-12 119z" />
<glyph unicode="&#x44e;" horiz-adv-x="1206" d="M4 0l197 1014h280l-75 -391h100q16 70 34.5 132t41.5 103q47 82 126 125t177 43q80 0 136 -22.5t93 -60.5t54.5 -86t17.5 -97q0 -33 -3 -73t-9.5 -81t-12.5 -82t-12 -73q-25 -125 -55.5 -213t-77.5 -144.5t-114.5 -82t-166.5 -25.5q-84 0 -139 24.5t-88 64.5t-46 89 t-13 96q0 35 5 72t9 76h-101l-77 -408h-281zM727 305q0 -25 9 -41t38 -16q23 0 38 14t19 31q4 8 12.5 37.5t17.5 71.5t18.5 89.5t17.5 92.5t13 81.5t5 55.5q0 45 -43 45q-23 0 -36 -8t-24 -33t-21.5 -69t-24.5 -115l-31 -162q-4 -23 -6 -40t-2 -34z" />
<glyph unicode="&#x44f;" horiz-adv-x="806" d="M-29 0l111 307q18 49 44 91t81 65q-53 29 -74.5 82t-21.5 112q0 94 31.5 162t86 111t125 63.5t150.5 20.5h350l-190 -1014h-277l74 389h-21q-20 0 -36.5 -7t-32 -25.5t-31.5 -51.5t-35 -84l-72 -221h-262zM377 676q0 -39 25.5 -52.5t68.5 -13.5h33l33 166h-50 q-41 0 -75.5 -23.5t-34.5 -76.5z" />
<glyph unicode="&#x451;" horiz-adv-x="806" d="M51 303q0 53 6 106.5t17 102.5q16 92 40.5 184t68.5 167t114 121t178 46q147 0 230 -67.5t83 -184.5q0 -102 -31.5 -172.5t-86 -115t-126 -63.5t-151.5 -19h-25.5t-27.5 2q-8 -29 -11 -61t-3 -48q2 -51 41 -51q29 0 46 17.5t29 60.5l279 -31q-16 -68 -43 -124t-69 -98 t-102.5 -64.5t-146.5 -22.5q-92 0 -152.5 25.5t-95 69.5t-48 101.5t-13.5 118.5zM256 1135l51 266h242l-51 -266h-242zM379 627q76 0 105.5 24.5t29.5 77.5q0 16 -11 29.5t-34 13.5q-39 0 -58.5 -38t-31.5 -107zM612 1135l52 266h243l-51 -266h-244z" />
<glyph unicode="&#x452;" horiz-adv-x="849" d="M4 0l221 1143h-86l31 157h86l37 187h280l-36 -187h243l-30 -157h-244l-35 -187l10 -2q29 29 76 44.5t76 15.5q90 0 132 -46t53 -120t1 -166t-24 -184q-4 -29 -11.5 -68t-16.5 -80t-17.5 -79t-16.5 -62q-25 -80 -58.5 -133t-75.5 -85t-92 -45.5t-108 -13.5h-63l45 236 q27 4 43 16.5t27.5 39t20.5 71.5t22 117l51 274q8 41 -9.5 57.5t-39.5 16.5q-25 0 -47.5 -20.5t-30.5 -59.5l-133 -680h-281z" />
<glyph unicode="&#x453;" horiz-adv-x="792" d="M43 240q0 100 31.5 166.5t85 111.5t126 75t154.5 56q47 16 62.5 37t15.5 43q0 16 -10 30.5t-37 14.5q-35 0 -57.5 -27.5t-26.5 -60.5l-248 49q16 63 44 117.5t70 94.5t101.5 62.5t137.5 22.5q158 0 229.5 -70.5t75.5 -183.5q0 -84 -31 -144.5t-84 -105.5t-125 -78.5 t-151 -60.5q-29 -10 -56.5 -27.5t-27.5 -62.5q0 -25 13 -41t42 -16q35 0 64.5 22.5t35.5 67.5l254 -56q-35 -133 -128 -209.5t-245 -80.5q-86 0 -145 19.5t-97 53t-55.5 80.5t-17.5 101zM379 1176l278 380l201 -110l-348 -359z" />
<glyph unicode="&#x454;" horiz-adv-x="786" d="M63 225q-4 51 5.5 127t19.5 150q14 92 39 187t57 157q41 80 122 132t204 52q147 0 229 -80t62 -229l-281 -35q12 84 -35 84q-35 0 -55 -41q-6 -10 -15 -40t-20 -73h203l-39 -210h-205q-12 -80 -12 -111q4 -45 41 -45q20 0 38.5 16.5t29.5 55.5l270 -33 q-16 -70 -47 -126.5t-77 -95t-110.5 -59t-150.5 -20.5q-68 0 -118 20.5t-83 53t-51 75.5t-21 88z" />
<glyph unicode="&#x455;" horiz-adv-x="792" d="M29 238q0 12 1 26.5t3 28.5l276 35q-2 -8 -3 -13.5t-1 -11.5q0 -29 16.5 -45t43.5 -16q41 0 61 31.5t20 64.5t-16 46t-39 22q-49 18 -98 35.5t-88 45t-63.5 70.5t-24.5 113q0 80 25.5 145.5t73.5 113.5t119 74.5t161 26.5q145 0 222 -65.5t77 -178.5q0 -33 -7 -65 l-274 -29q2 6 2 15q0 27 -12 47t-41 20q-25 0 -39 -11t-21.5 -25.5t-9.5 -28t-2 -17.5q0 -33 45 -47q61 -20 114.5 -40.5t91.5 -51.5t59.5 -77t21.5 -116q0 -72 -20.5 -139t-67.5 -119.5t-123 -83t-184 -30.5q-135 0 -217 62.5t-82 187.5z" />
<glyph unicode="&#x456;" horiz-adv-x="485" d="M10 0l197 1012h280l-196 -1012h-281zM236 1159l51 266h280l-51 -266h-280z" />
<glyph unicode="&#x457;" horiz-adv-x="485" d="M10 0l197 1012h280l-196 -1012h-281zM86 1120l51 266h242l-51 -266h-242zM442 1120l52 266h243l-51 -266h-244z" />
<glyph unicode="&#x458;" horiz-adv-x="462" d="M-197 -395l50 262q10 -2 30 -2q70 0 92.5 38t36.5 105l197 1006h280l-210 -1082q-35 -176 -133.5 -255.5t-254.5 -79.5q-20 0 -43.5 2t-44.5 6zM238 1159l51 266h280l-51 -266h-280z" />
<glyph unicode="&#x459;" horiz-adv-x="1277" d="M-51 182q45 16 81 38t63.5 53.5t47 75.5t31.5 106l104 559h629l-67 -352h112q123 0 206 -74t83 -217q0 -61 -22.5 -129t-72.5 -124.5t-133 -93t-204 -36.5q-100 4 -166 36.5t-101.5 89t-43 132.5t11.5 168l63 350h-94l-67 -350q-23 -117 -62 -197t-90 -132t-114.5 -80 t-135.5 -40zM778 358q-10 -59 11.5 -83.5t60.5 -24.5q49 0 70.5 33.5t21.5 76.5q0 33 -19.5 59.5t-78.5 26.5h-49z" />
<glyph unicode="&#x45a;" horiz-adv-x="1259" d="M4 0l197 1014h282l-65 -352h112l66 352h287l-68 -352h113q123 0 206 -74t83 -217q0 -61 -23 -129t-73 -124.5t-133 -93t-204 -36.5q-100 4 -165.5 36.5t-101.5 89t-43 132.5t11 168l7 32h-121l-84 -446h-283zM756 358q-10 -59 11 -83.5t60 -24.5q49 0 71 33.5t22 76.5 q0 33 -19.5 59.5t-79.5 26.5h-49z" />
<glyph unicode="&#x45b;" horiz-adv-x="845" d="M2 0l221 1143h-92l29 157h94l37 187h280l-39 -187h213l-30 -157h-213l-45 -225l10 -3q35 49 93 80t106 31q74 0 111.5 -23.5t52 -62.5t9.5 -86t-14 -96l-145 -758h-281l133 686q6 29 -3 51.5t-37 22.5q-35 0 -55.5 -29t-28.5 -67l-125 -664h-281z" />
<glyph unicode="&#x45c;" horiz-adv-x="827" d="M2 0l197 1012h272l-76 -385h23q18 0 32.5 4t30 19.5t31.5 44t35 79.5l92 240h264l-115 -295q-31 -76 -80 -125t-104 -66q59 -18 86 -72.5t29 -129.5l6 -326h-256l2 240q0 51 -4 81.5t-14.5 47t-27.5 21.5t-44 5h-31l-76 -395h-272zM408 1176l278 380l201 -110l-348 -359z " />
<glyph unicode="&#x45e;" horiz-adv-x="784" d="M-113 -172q94 8 153.5 49t119.5 146l-56 989h293l-10 -318q-2 -25 -4 -64.5t-6 -82.5t-9.5 -86t-11.5 -74h11q59 135 108 285.5t103 339.5h294q-106 -307 -223 -576.5t-231 -480.5q-43 -80 -95.5 -149.5t-116 -118.5t-141 -77t-174.5 -24zM233 1434h201q-2 -6 -2 -13.5 v-13.5q0 -63 33 -97t80 -34q31 0 57.5 15.5t47 39t34.5 51t21 52.5h219q-18 -61 -49 -121t-78 -106t-113 -74.5t-152 -28.5q-92 0 -152.5 29.5t-94 76.5t-46 105.5t-6.5 118.5z" />
<glyph unicode="&#x45f;" horiz-adv-x="845" d="M43 160q4 47 14 96l146 758h280l-133 -686q-6 -29 3 -51.5t38 -22.5q25 0 50.5 28.5t33.5 67.5l125 664h281l-197 -1014h-281l23 96l-10 2q-35 -49 -93.5 -79.5t-105.5 -30.5q-74 0 -111.5 23.5t-52 62.5t-10.5 86zM162 -387l78 309l227 31l-107 -340h-198z" />
<glyph unicode="&#x490;" horiz-adv-x="806" d="M27 0l276 1425h428l41 217h213l-92 -483h-369l-225 -1159h-272z" />
<glyph unicode="&#x491;" horiz-adv-x="727" d="M2 0l197 1014h395l45 233h209l-94 -483h-330l-148 -764h-274z" />
<glyph unicode="&#x4d9;" horiz-adv-x="835" d="M51 242q0 102 32 172.5t86 114.5t126 63.5t151 19.5h25.5t28.5 -2q8 29 11 60.5t3 48.5q0 51 -41 51q-29 0 -46 -17.5t-30 -60.5l-278 31q16 68 42.5 124t68.5 98t102.5 64.5t146.5 22.5q92 0 151.5 -25.5t93.5 -69.5t47 -101.5t13 -118.5q0 -53 -4 -106.5t-14 -102.5 q-16 -92 -41 -184.5t-69 -167t-114.5 -120.5t-176.5 -46q-147 0 -230.5 67.5t-83.5 184.5zM326 291q0 -16 11 -29.5t34 -13.5q39 0 58.5 38t31.5 107q-76 0 -105.5 -24.5t-29.5 -77.5z" />
<glyph unicode="&#x1e80;" horiz-adv-x="1312" d="M156 0l75 1425h301l-32 -378q-10 -113 -22.5 -216.5t-24.5 -199.5h10l131 368l149 426h222l-13 -413q-2 -49 -4 -93.5t-4 -90.5t-5 -97t-5 -115h12l107 396l112 413h318l-477 -1425h-299l6 287l8 391h-12q-20 -61 -37 -108.5t-30 -87.5t-27.5 -76.5t-30.5 -79.5 l-129 -326h-299zM506 1751l158 191l327 -271l-100 -139z" />
<glyph unicode="&#x1e81;" horiz-adv-x="1277" d="M119 1012h313l-31 -391q-4 -53 -9 -110.5t-17 -129.5h14q57 156 111.5 310.5t95.5 320.5h289l-37 -391q-4 -53 -12.5 -118t-18.5 -122h14q57 156 107.5 310.5t91.5 320.5h324q-43 -137 -91.5 -265.5t-101.5 -252t-112.5 -246.5t-122.5 -248h-322l14 227l31 279h-12 l-84 -277l-90 -229h-322zM442 1497l199 107l199 -435l-133 -69z" />
<glyph unicode="&#x1e82;" horiz-adv-x="1312" d="M156 0l75 1425h301l-32 -378q-10 -113 -22.5 -216.5t-24.5 -199.5h10l131 368l149 426h222l-13 -413q-2 -49 -4 -93.5t-4 -90.5t-5 -97t-5 -115h12l107 396l112 413h318l-477 -1425h-299l6 287l8 391h-12q-20 -61 -37 -108.5t-30 -87.5t-27.5 -76.5t-30.5 -79.5 l-129 -326h-299zM797 1610l395 266l119 -190l-441 -216z" />
<glyph unicode="&#x1e83;" horiz-adv-x="1277" d="M119 1012h313l-31 -391q-4 -53 -9 -110.5t-17 -129.5h14q57 156 111.5 310.5t95.5 320.5h289l-37 -391q-4 -53 -12.5 -118t-18.5 -122h14q57 156 107.5 310.5t91.5 320.5h324q-43 -137 -91.5 -265.5t-101.5 -252t-112.5 -246.5t-122.5 -248h-322l14 227l31 279h-12 l-84 -277l-90 -229h-322zM711 1176l278 380l201 -110l-348 -359z" />
<glyph unicode="&#x1e84;" horiz-adv-x="1312" d="M156 0l75 1425h301l-32 -378q-10 -113 -22.5 -216.5t-24.5 -199.5h10l131 368l149 426h222l-13 -413q-2 -49 -4 -93.5t-4 -90.5t-5 -97t-5 -115h12l107 396l112 413h318l-477 -1425h-299l6 287l8 391h-12q-20 -61 -37 -108.5t-30 -87.5t-27.5 -76.5t-30.5 -79.5 l-129 -326h-299zM571 1493l52 266h241l-51 -266h-242zM928 1493l51 266h244l-52 -266h-243z" />
<glyph unicode="&#x1e85;" horiz-adv-x="1277" d="M119 1012h313l-31 -391q-4 -53 -9 -110.5t-17 -129.5h14q57 156 111.5 310.5t95.5 320.5h289l-37 -391q-4 -53 -12.5 -118t-18.5 -122h14q57 156 107.5 310.5t91.5 320.5h324q-43 -137 -91.5 -265.5t-101.5 -252t-112.5 -246.5t-122.5 -248h-322l14 227l31 279h-12 l-84 -277l-90 -229h-322zM444 1120l52 266h241l-51 -266h-242zM801 1120l51 266h244l-52 -266h-243z" />
<glyph unicode="&#x1ef2;" horiz-adv-x="847" d="M201 1425h288l11 -282q2 -68 5 -121t1 -129h16l211 532h303l-444 -866l-109 -559h-280l108 559zM250 1690l158 190l327 -270l-100 -140z" />
<glyph unicode="&#x1ef3;" horiz-adv-x="784" d="M-113 -172q94 8 153.5 49t119.5 146l-56 989h293l-10 -318q-2 -25 -4 -64.5t-6 -82.5t-9.5 -86t-11.5 -74h11q59 135 108 285.5t103 339.5h294q-106 -307 -223 -576.5t-231 -480.5q-43 -80 -95.5 -149.5t-116 -118.5t-141 -77t-174.5 -24zM176 1497l199 107l198 -435 l-133 -69z" />
<glyph unicode="&#x2000;" horiz-adv-x="971" />
<glyph unicode="&#x2001;" horiz-adv-x="1942" />
<glyph unicode="&#x2002;" horiz-adv-x="971" />
<glyph unicode="&#x2003;" horiz-adv-x="1942" />
<glyph unicode="&#x2004;" horiz-adv-x="647" />
<glyph unicode="&#x2005;" horiz-adv-x="485" />
<glyph unicode="&#x2006;" horiz-adv-x="323" />
<glyph unicode="&#x2007;" horiz-adv-x="323" />
<glyph unicode="&#x2008;" horiz-adv-x="242" />
<glyph unicode="&#x2009;" horiz-adv-x="388" />
<glyph unicode="&#x200a;" horiz-adv-x="107" />
<glyph unicode="&#x2010;" horiz-adv-x="784" d="M102 442l50 246h606l-49 -246h-607z" />
<glyph unicode="&#x2011;" horiz-adv-x="784" d="M102 442l50 246h606l-49 -246h-607z" />
<glyph unicode="&#x2012;" horiz-adv-x="784" d="M102 442l50 246h606l-49 -246h-607z" />
<glyph unicode="&#x2013;" horiz-adv-x="1024" d="M45 453l43 219h942l-43 -219h-942z" />
<glyph unicode="&#x2014;" horiz-adv-x="2048" d="M45 453l43 219h1966l-43 -219h-1966z" />
<glyph unicode="&#x2015;" horiz-adv-x="2048" d="M45 453l43 219h1966l-43 -219h-1966z" />
<glyph unicode="&#x2018;" horiz-adv-x="610" d="M233 840l62 309l190 311h156l-127 -305h59l-61 -315h-279z" />
<glyph unicode="&#x2019;" horiz-adv-x="610" d="M233 842l127 305h-59l61 315h279l-59 -309l-193 -311h-156z" />
<glyph unicode="&#x201a;" horiz-adv-x="479" d="M-47 -313l127 305h-60l62 315h278l-61 -309l-190 -311h-156z" />
<glyph unicode="&#x201c;" horiz-adv-x="811" d="M172 840l61 309l191 311h156l-127 -305h59l-61 -315h-279zM520 840l62 309l190 311h156l-127 -305h59l-61 -315h-279z" />
<glyph unicode="&#x201d;" horiz-adv-x="811" d="M172 842l127 305h-59l61 315h279l-60 -309l-192 -311h-156zM520 842l127 305h-59l61 315h279l-60 -309l-192 -311h-156z" />
<glyph unicode="&#x201e;" horiz-adv-x="827" d="M-47 -313l127 305h-60l62 315h278l-59 -309l-192 -311h-156zM301 -313l127 305h-59l61 315h279l-60 -309l-192 -311h-156z" />
<glyph unicode="&#x2020;" horiz-adv-x="806" d="M90 748l49 249h252l76 387h248l-76 -387h250l-49 -249h-250l-205 -1055h-248l205 1055h-252z" />
<glyph unicode="&#x2021;" horiz-adv-x="806" d="M-8 227l47 250h252l51 271h-252l49 249h252l76 387h248l-76 -387h250l-49 -249h-250l-51 -271h249l-49 -250h-250l-104 -534h-248l105 534h-250z" />
<glyph unicode="&#x2022;" horiz-adv-x="976" d="M193 565q0 68 25.5 126.5t69.5 102.5t102.5 69.5t125.5 25.5q68 0 126 -25.5t102 -69.5t70 -102.5t26 -126.5t-26 -126t-70 -102t-102 -69.5t-126 -25.5t-126 25.5t-102 69.5t-69.5 102t-25.5 126z" />
<glyph unicode="&#x2023;" horiz-adv-x="1196" d="M166 12v1129l948 -553z" />
<glyph unicode="&#x2026;" horiz-adv-x="1634" d="M14 0l60 307h276l-59 -307h-277zM600 0l59 307h277l-59 -307h-277zM1186 0l59 307h277l-60 -307h-276z" />
<glyph unicode="&#x202f;" horiz-adv-x="388" />
<glyph unicode="&#x2030;" horiz-adv-x="1898" d="M119 795l84 436q18 94 81.5 147.5t159.5 53.5q100 0 161 -60.5t40 -173.5l-84 -430q-20 -106 -81.5 -153.5t-160.5 -47.5q-49 0 -90 16.5t-68.5 45t-39.5 70.5t-2 96zM176 -35l934 1497h166l-934 -1497h-166zM299 780q-2 -10 8 -21t29 -11q14 0 22.5 11t10.5 21l86 439 q2 10 -5.5 22t-25.5 12t-26.5 -12t-10.5 -22zM823 215l84 436q18 94 82 147.5t160 53.5q100 0 160.5 -60.5t40.5 -173.5l-84 -430q-20 -106 -82 -153t-160 -47q-49 0 -90 16t-68.5 45t-40 71t-2.5 95zM1004 201q-2 -10 8 -21.5t28 -11.5q14 0 22.5 11t10.5 22l86 438 q2 10 -5 22.5t-26 12.5q-18 0 -26 -12.5t-10 -22.5zM1376 215l84 436q18 94 82 147.5t160 53.5q100 0 160.5 -60.5t40.5 -173.5l-84 -430q-20 -106 -82 -153t-160 -47q-49 0 -90 16t-68.5 45t-40 71t-2.5 95zM1556 201q-2 -10 8.5 -21.5t28.5 -11.5q14 0 22.5 11t10.5 22 l86 438q2 10 -5 22.5t-26 12.5q-18 0 -26 -12.5t-10 -22.5z" />
<glyph unicode="&#x2039;" horiz-adv-x="778" d="M111 506l315 409h264l-336 -413l156 -408h-244z" />
<glyph unicode="&#x203a;" horiz-adv-x="706" d="M23 96l335 414l-155 408h243l156 -412l-315 -410h-264z" />
<glyph unicode="&#x2044;" horiz-adv-x="327" d="M-346 -35l934 1497h166l-934 -1497h-166z" />
<glyph unicode="&#x205f;" horiz-adv-x="485" />
<glyph unicode="&#x2070;" horiz-adv-x="528" d="M184 1036l76 406q16 88 75.5 137t147.5 49q92 0 148.5 -55t36.5 -162l-76 -399q-18 -100 -75.5 -144.5t-147.5 -44.5q-45 0 -83 14.5t-63.5 42t-37 67.5t-1.5 89zM350 1022q-2 -10 7.5 -20.5t25.5 -10.5q14 0 21.5 10.5t9.5 20.5l80 408q2 10 -5.5 21t-23.5 11t-24.5 -11 t-10.5 -21z" />
<glyph unicode="&#x2074;" horiz-adv-x="528" d="M135 938l27 135l274 549h172l-262 -532h72l33 161h165l-32 -161h47l-29 -152h-47l-20 -109h-166l20 109h-254z" />
<glyph unicode="&#x2075;" horiz-adv-x="528" d="M174 1047l178 18q-4 -23 -3 -37t6 -21.5t11.5 -9.5t10.5 -2q31 0 39 37l26 127q4 23 4 40.5t-22 17.5q-6 0 -19.5 -6.5t-23.5 -34.5h-154l88 450h394l-31 -160h-219l-25 -118q16 10 37 16t37 6q70 0 98.5 -31.5t28.5 -85.5v-11t-3 -24.5t-8.5 -51t-17.5 -91.5 q-10 -55 -27.5 -100t-46 -78t-69.5 -51.5t-101 -18.5q-45 0 -81.5 14.5t-63.5 42t-38 68.5t-5 95z" />
<glyph unicode="&#x2076;" horiz-adv-x="528" d="M180 987q0 16 4 38t9 48q10 43 21 83t34 79l229 387h205l-195 -317l2 -2q14 6 35 6q10 0 30.5 -6.5t39 -24.5t28 -52t-0.5 -91l-15 -78q-8 -47 -26.5 -89t-48 -75t-70.5 -51.5t-94 -18.5q-86 0 -139.5 41t-47.5 123zM354 1020q-2 -10 5.5 -19.5t21.5 -9.5q16 0 25.5 9.5 t11.5 19.5l24 119q2 10 -5 19t-23 9q-20 0 -28.5 -14t-14.5 -45z" />
<glyph unicode="&#x2077;" horiz-adv-x="477" d="M113 758l358 680h-80l-18 -82h-183l52 254h475l-31 -154l-371 -698h-202z" />
<glyph unicode="&#x2078;" horiz-adv-x="528" d="M174.5 967q-4.5 37 7.5 98q8 41 25.5 92t66.5 88q-37 27 -35.5 70t9.5 86q10 47 24.5 90t42.5 70q72 68 168 67q45 0 91.5 -13t68.5 -48q44 -60 21 -166q-10 -43 -24.5 -86t-61.5 -70q37 -27 33.5 -77t-13.5 -103q-12 -66 -28.5 -104.5t-32.5 -61.5q-33 -41 -80 -58.5 t-99 -17.5q-49 0 -96 20.5t-67 57.5q-16 29 -20.5 66zM352 1018q-4 -10 3 -19.5t24 -9.5q14 0 24.5 11.5t12.5 21.5l24 125q2 10 -6 19.5t-22 9.5q-16 0 -24.5 -9.5t-10.5 -19.5zM414 1341q-2 -10 5 -19t23 -9q14 0 23.5 11t13.5 22l17 90q4 10 -3.5 19t-21.5 9 q-16 0 -25.5 -9t-13.5 -19z" />
<glyph unicode="&#x2079;" horiz-adv-x="528" d="M193 829l194 318l-2 2q-16 -6 -35 -6q-10 0 -30.5 6t-39 24.5t-27.5 52.5t1 91l14 78q8 47 26.5 89t48.5 74.5t71 51t94 18.5q82 0 137 -41t49 -123q0 -16 -4 -37.5t-8 -48.5q-10 -43 -21.5 -83t-33.5 -78l-230 -388h-204zM432 1313q-2 -10 5 -19.5t24 -9.5 q20 0 28.5 14.5t14.5 44.5l16 89q2 10 -5 19t-21 9q-16 0 -25.5 -9t-11.5 -19z" />
<glyph unicode="&#x207a;" horiz-adv-x="528" d="M147 1100l29 143h170l33 168h151l-32 -168h170l-29 -143h-170l-33 -168h-151l32 168h-170z" />
<glyph unicode="&#x207b;" horiz-adv-x="471" d="M168 1069l31 154h381l-31 -154h-381z" />
<glyph unicode="&#x207c;" horiz-adv-x="528" d="M150 1004l28 143h492l-29 -143h-491zM188 1200l27 143h492l-27 -143h-492z" />
<glyph unicode="&#x207d;" horiz-adv-x="364" d="M178 1059q0 88 22.5 169t60.5 156.5t89 143t109 127.5l110 -49q-113 -141 -168 -283.5t-55 -271.5q0 -78 14.5 -152t38.5 -137l-114 -64q-47 84 -77 173.5t-30 187.5z" />
<glyph unicode="&#x207e;" horiz-adv-x="364" d="M86 762q96 121 157.5 264t61.5 279q0 76 -14.5 152.5t-42.5 148.5l131 49q41 -74 67.5 -161t26.5 -185q0 -90 -22.5 -171t-61.5 -157t-93 -145.5t-118 -137.5z" />
<glyph unicode="&#x207f;" horiz-adv-x="583" d="M82 573l129 672h213l-8 -47q23 25 53.5 40t65.5 15q39 0 64.5 -11t40.5 -28.5t20.5 -39t5.5 -41.5q0 -12 -2 -34t-5 -30l-88 -496h-215l84 451q4 23 -3 29t-17 6q-12 0 -24.5 -12.5t-18.5 -40.5l-80 -433h-215z" />
<glyph unicode="&#x2080;" horiz-adv-x="528" d="M-14 18l75 406q16 88 76 137t148 49q92 0 148 -55t36 -162l-76 -399q-18 -100 -75.5 -144.5t-147.5 -44.5q-45 0 -83 14.5t-63.5 42t-37 67.5t-0.5 89zM152 4q-2 -10 7 -20.5t25 -10.5q14 0 21.5 10.5t9.5 20.5l80 408q2 10 -5 21t-24 11q-16 0 -24.5 -11t-10.5 -21z" />
<glyph unicode="&#x2081;" horiz-adv-x="417" d="M35 360l39 207l162 101h174l-166 -852h-199l123 628q-33 -18 -69 -42.5t-64 -41.5z" />
<glyph unicode="&#x2082;" horiz-adv-x="528" d="M-45 -184l29 147l280 352q23 27 34 59t11 48q0 10 -5 19.5t-21 9.5q-20 0 -38 -18.5t-24 -74.5l-172 23q23 121 92.5 177t159.5 56q86 0 141.5 -41t55.5 -120q0 -59 -24.5 -106.5t-70.5 -113.5l-192 -249h184l-33 -168h-407z" />
<glyph unicode="&#x2083;" horiz-adv-x="528" d="M-12 27l178 18q-4 -23 -3 -37t6 -21t11 -9.5t10 -2.5q33 0 39 37l19 92q6 29 -10.5 38.5t-36.5 9.5h-41l26 143h54q45 0 53 43l16 78q2 10 -2 21.5t-26 11.5q-14 0 -33 -16.5t-23 -70.5l-170 25q23 113 81.5 170t162.5 57q109 0 153 -58t29 -169q-6 -47 -28.5 -93 t-71.5 -69q43 -16 47 -58t-8 -112q-10 -55 -27.5 -100t-45.5 -78t-68.5 -51.5t-102.5 -18.5q-45 0 -84 14.5t-65.5 42t-38 68.5t-0.5 95z" />
<glyph unicode="&#x2084;" horiz-adv-x="528" d="M-49 -76l26 135l275 549h172l-262 -532h71l33 162h166l-33 -162h47l-28 -152h-47l-21 -108h-166l21 108h-254z" />
<glyph unicode="&#x2085;" horiz-adv-x="528" d="M-31 29l178 18q-4 -23 -3 -37t6.5 -21t11.5 -9.5t10 -2.5q31 0 39 37l27 127q4 23 4 40.5t-23 17.5q-6 0 -19.5 -6.5t-23.5 -34.5h-153l88 450h393l-31 -159h-219l-25 -119q16 10 37 16t37 6q70 0 98.5 -31.5t28.5 -84.5v-11.5t-3 -25t-8 -51t-18 -91.5 q-10 -55 -27.5 -100t-46 -78t-69.5 -51t-100 -18q-45 0 -82 14t-63.5 42t-38 68.5t-5.5 94.5z" />
<glyph unicode="&#x2086;" horiz-adv-x="528" d="M-6 -27q0 16 4 38t8 48q10 43 21.5 83t33.5 79l230 387h205l-195 -317l2 -2q14 6 35 6q10 0 30.5 -6t39 -24.5t27.5 -52.5t-1 -91l-14 -78q-8 -47 -26.5 -89t-48.5 -75t-71 -51t-94 -18q-86 0 -139 40.5t-47 122.5zM168 6q-2 -10 5 -19.5t22 -9.5q16 0 25 9.5t11 19.5 l25 119q2 10 -5 19.5t-24 9.5q-20 0 -28.5 -14.5t-14.5 -45.5z" />
<glyph unicode="&#x2087;" horiz-adv-x="526" d="M-41 -184l358 680h-79l-19 -82h-182l51 254h475l-31 -154l-370 -698h-203z" />
<glyph unicode="&#x2088;" horiz-adv-x="528" d="M-6 -45q-4 37 8 98q8 41 25.5 92.5t66.5 87.5q-37 27 -36 70t10 86q10 47 24 90t43 70q72 68 168 67q45 0 91 -13t69 -48q43 -60 20 -166q-10 -43 -24.5 -86t-61.5 -70q37 -27 34 -77t-13 -103q-12 -66 -28.5 -104.5t-33.5 -61.5q-33 -41 -80 -58t-98 -17q-49 0 -96 20.5 t-68 56.5q-16 29 -20 66zM172 6q-4 -10 3 -19.5t24 -9.5q14 0 24 11.5t13 21.5l24 125q2 10 -6 19.5t-23 9.5q-16 0 -24 -9.5t-10 -19.5zM233 330q-2 -10 5.5 -19.5t23.5 -9.5q14 0 23.5 11.5t13.5 21.5l16 90q4 10 -3 19.5t-21 9.5q-16 0 -25.5 -9.5t-13.5 -19.5z" />
<glyph unicode="&#x2089;" horiz-adv-x="528" d="M-10 -184l194 317l-2 2q-16 -6 -35 -6q-10 0 -30.5 6t-39 24.5t-27.5 52.5t1 91l15 78q8 47 26.5 89t48 75t70.5 51t94 18q82 0 137.5 -41t49.5 -122q0 -16 -4.5 -38t-8.5 -48q-10 -43 -21.5 -83t-33.5 -79l-229 -387h-205zM229 299q-2 -10 5.5 -19.5t23.5 -9.5 q20 0 28.5 14.5t14.5 45.5l16 88q2 10 -5 19t-21 9q-16 0 -25.5 -9t-11.5 -19z" />
<glyph unicode="&#x208a;" horiz-adv-x="528" d="M-33 86l29 143h170l33 168h151l-33 -168h170l-28 -143h-170l-33 -168h-152l33 168h-170z" />
<glyph unicode="&#x208b;" horiz-adv-x="471" d="M-6 55l31 154h381l-31 -154h-381z" />
<glyph unicode="&#x208c;" horiz-adv-x="528" d="M-53 -10l28 143h492l-29 -143h-491zM-14 186l26 144h492l-27 -144h-491z" />
<glyph unicode="&#x208d;" horiz-adv-x="364" d="M-6 45q0 88 22.5 169t60.5 156.5t89 143.5t108 127l111 -49q-113 -141 -168 -283.5t-55 -271.5q0 -78 14 -151.5t39 -137.5l-115 -63q-47 84 -76.5 173t-29.5 187z" />
<glyph unicode="&#x208e;" horiz-adv-x="364" d="M-76 -252q96 121 157.5 264.5t61.5 278.5q0 76 -14 152.5t-43 148.5l131 49q41 -74 67.5 -161t26.5 -185q0 -90 -22.5 -171t-61.5 -157t-93 -145.5t-118 -136.5z" />
<glyph unicode="&#x20ab;" horiz-adv-x="880" d="M59 -27l37 187h535l-37 -187h-535zM125 467l12 81t19 107q6 31 13 68t15.5 72.5t16.5 66.5t16 51q10 23 24.5 49.5t39 50t60.5 39t89 15.5q23 0 60.5 -8t62.5 -37l22 111h-167l30 161h168l25 121h241l-24 -121h94l-31 -161h-94l-170 -879h-231l10 55q-33 -33 -73 -48 t-68 -15q-88 0 -131 48t-29 173zM387 504q2 -12 6 -21.5t17 -9.5q25 0 43 35q4 10 11 43t15 72l19 98q6 35 10 58.5t2 33.5q-6 25 -29 25q-10 0 -19 -7.5t-13 -17.5q-10 -23 -19.5 -73t-19.5 -97q-23 -106 -23 -139z" />
<glyph unicode="&#x20ac;" horiz-adv-x="880" d="M61 537l29 141h82l14 78h-82l29 145h82l31 162q16 84 50 153.5t86 118.5t121.5 76t160.5 27q96 0 162.5 -29t105.5 -79t51 -116.5t-2 -142.5l-276 -47q10 63 -10.5 105t-63.5 42q-29 0 -47.5 -11t-31.5 -27.5t-20.5 -36t-9.5 -33.5l-33 -162h267l-29 -145h-264l-17 -78 h267l-29 -141h-264l-39 -201q-2 -14 -2 -28.5t6 -27t21.5 -19.5t42.5 -7q88 0 122 147l269 -36q-12 -84 -42 -153t-80 -119t-121 -77.5t-165 -27.5q-193 0 -274.5 98t-46.5 279l32 172h-82z" />
<glyph unicode="&#x2105;" horiz-adv-x="1339" d="M182 -35l905 1497h166l-905 -1497h-166zM182 854q-2 12 0 36.5t5 55.5t7.5 63.5t10.5 59.5q6 31 13 65.5t16.5 67.5t18.5 60.5t17 44.5q12 23 29.5 46t46.5 43.5t71 33t103 12.5q111 0 161 -62.5t30 -185.5l-207 -23q8 37 1 52.5t-20 15.5q-25 0 -34 -22 q-2 -6 -6.5 -24.5t-9.5 -40.5t-10 -44.5t-7 -36.5q-10 -47 -16.5 -87t-6.5 -56q0 -27 27 -27q12 0 26.5 16.5t20.5 51.5q51 -6 99 -13.5t102 -13.5q-23 -115 -96.5 -179.5t-182.5 -64.5q-53 0 -90 13.5t-61.5 36t-39 50t-18.5 56.5zM735 147q-2 18 0 43t5 53.5t8.5 58.5 t9.5 56q12 66 29.5 134.5t37.5 105.5q33 59 91.5 96t148.5 37q92 0 143.5 -37t61.5 -92q2 -18 1 -46t-4 -61.5t-8.5 -68.5t-11.5 -66q-10 -53 -17 -93t-18 -74q-18 -66 -50 -105t-69.5 -61.5t-78.5 -29.5t-78 -7q-53 0 -90 13t-60.5 35.5t-36 50.5t-14.5 58zM950 217 q0 -25 29 -24q10 0 18.5 7t12.5 17q2 4 5 19.5t7 36t8 44t8 41.5q8 41 15.5 86t7.5 62q0 8 -4.5 16t-20.5 8q-23 0 -32 -20q-10 -27 -27 -113q-16 -86 -21.5 -125t-5.5 -55z" />
<glyph unicode="&#x2116;" horiz-adv-x="1523" d="M39 0l276 1425h244l113 -673h10l131 673h272l-276 -1425h-238l-71 416l-41 270h-10l-134 -686h-276zM1024 508l33 172h436l-33 -172h-436zM1081 932q0 39 4.5 77t12.5 78q12 61 26.5 129t38.5 105q35 55 85 85t128 30q117 0 173.5 -56.5t56.5 -126.5q0 -45 -7.5 -102 t-17.5 -100q-16 -78 -35.5 -136.5t-50.5 -96.5t-76 -56.5t-110 -18.5q-66 0 -110 18.5t-70.5 46.5t-37 60.5t-10.5 63.5zM1286 961q0 -41 27 -41q18 0 26.5 16t14.5 41l20 98q10 47 17.5 92t7.5 68q0 10 -6.5 18.5t-20.5 8.5q-23 0 -34 -35t-31 -135q-2 -8 -5.5 -25.5 t-6.5 -37l-6 -39t-3 -29.5z" />
<glyph unicode="&#x2122;" horiz-adv-x="1492" d="M94 1260v165h520v-165h-172v-648h-176v648h-172zM692 612v811h158l178 -356l78 156l98 200h160v-811h-172v420h-6l-53 -143l-58 -133h-94l-63 139l-54 137h-8v-420h-164z" />
<glyph unicode="&#x2153;" horiz-adv-x="1345" d="M150 -35l933 1497h166l-934 -1497h-165zM217 1118l39 207l162 100h174l-166 -852h-199l123 629zM784 227l195 19q-10 -49 3 -61.5t24 -12.5q35 0 41 39l20 100q6 29 -11.5 39t-39.5 10h-45l28 156h60q23 0 38 10.5t19 34.5l19 84q2 10 -3.5 22.5t-29.5 12.5 q-14 0 -34.5 -17.5t-25.5 -74.5l-184 26q25 121 87 182.5t177 61.5q117 0 165 -62.5t34 -181.5q-8 -51 -31.5 -100t-77.5 -74q47 -18 51.5 -63t-10.5 -119q-12 -59 -29.5 -108.5t-48 -84t-75.5 -54t-111 -19.5q-49 0 -91 15.5t-71.5 45t-42 73.5t-0.5 101z" />
<glyph unicode="&#x2154;" horiz-adv-x="1345" d="M76 573l30 158l306 379q23 29 36 63.5t13 51.5q0 12 -7.5 21t-23.5 9q-23 0 -41 -19t-24 -79l-187 25q25 129 99.5 189.5t173.5 60.5q94 0 153.5 -44.5t59.5 -130.5q0 -63 -27 -114t-76 -121l-209 -268h201l-35 -181h-442zM195 -35l933 1497h166l-934 -1497h-165z M813 126q-12 44 0 101l195 19q-10 -49 3 -61.5t23 -12.5q35 0 41 39l21 100q6 29 -11.5 39t-40.5 10h-45l29 156h59q23 0 38.5 10.5t19.5 34.5l18 84q2 10 -3 22.5t-30 12.5q-14 0 -34.5 -17.5t-24.5 -74.5l-184 26q25 121 87 182.5t177 61.5q117 0 165 -62.5t34 -181.5 q-8 -51 -32 -100t-77 -74q47 -18 51 -63t-10 -119q-12 -59 -29.5 -108.5t-48 -84t-76 -54t-110.5 -19.5q-49 0 -91 15.5t-72 45t-42 73.5z" />
<glyph unicode="&#x2155;" horiz-adv-x="1345" d="M127 -35l934 1497h166l-934 -1497h-166zM201 1118l39 207l161 100h174l-165 -852h-199l123 629zM778 227l195 19q-10 -49 3 -61.5t23 -12.5q33 0 41 39l29 137q6 23 6 42.5t-24 19.5q-8 0 -22.5 -7.5t-24.5 -37.5h-168l96 485h426l-33 -172h-238l-26 -127q16 10 40 17 t40 7q76 0 106.5 -33.5t30.5 -92.5v-11.5t-3 -27t-9 -55.5t-19 -97q-12 -59 -30.5 -108.5t-49 -84t-75.5 -54t-109 -19.5q-49 0 -90 15.5t-68.5 45t-41 73.5t-5.5 101z" />
<glyph unicode="&#x2156;" horiz-adv-x="1345" d="M76 573l30 158l306 379q23 29 36 63.5t13 51.5q0 12 -7.5 21t-23.5 9q-23 0 -41 -19t-24 -79l-187 25q25 129 99.5 189.5t173.5 60.5q94 0 153.5 -44.5t59.5 -130.5q0 -63 -27 -114t-76 -121l-209 -268h201l-35 -181h-442zM176 -35l934 1497h166l-934 -1497h-166z M815 227l195 19q-10 -49 3 -61.5t23 -12.5q33 0 41 39l29 137q6 23 6 42.5t-25 19.5q-8 0 -22 -7.5t-25 -37.5h-168l97 485h426l-33 -172h-238l-26 -127q16 10 40 17t40 7q76 0 106.5 -33.5t30.5 -92.5v-11.5t-3 -27t-9.5 -55.5t-18.5 -97q-12 -59 -30.5 -108.5t-49 -84 t-76 -54t-108.5 -19.5q-49 0 -90 15.5t-68.5 45t-41 73.5t-5.5 101z" />
<glyph unicode="&#x2157;" horiz-adv-x="1345" d="M96 801l195 18q-10 -49 3 -61.5t23 -12.5q35 0 41 39l21 101q6 29 -11.5 39t-39.5 10h-45l28 156h60q23 0 38 10t19 35l18 84q2 10 -3 22t-29 12q-14 0 -35 -17t-25 -75l-184 27q25 121 87 182.5t177 61.5q117 0 165 -62.5t34 -181.5q-8 -51 -31.5 -100.5t-77.5 -73.5 q47 -18 51.5 -63.5t-10.5 -119.5q-12 -59 -29.5 -108t-48 -84t-75.5 -54.5t-111 -19.5q-49 0 -91 15.5t-71.5 45t-42 73.5t-0.5 102zM168 -35l934 1497h166l-934 -1497h-166zM811 227l195 19q-10 -49 3 -61.5t23 -12.5q33 0 41 39l29 137q6 23 6 42.5t-25 19.5 q-8 0 -22 -7.5t-25 -37.5h-168l97 485h426l-33 -172h-238l-26 -127q16 10 40 17t40 7q76 0 106.5 -33.5t30.5 -92.5v-11.5t-3 -27t-9.5 -55.5t-18.5 -97q-12 -59 -30.5 -108.5t-49.5 -84t-76 -54t-108 -19.5q-49 0 -90 15.5t-69 45t-41 73.5t-5 101z" />
<glyph unicode="&#x2158;" horiz-adv-x="1345" d="M63 690l29 146l297 589h186l-284 -571h78l37 172h180l-37 -172h51l-31 -164h-51l-22 -117h-181l23 117h-275zM190 -35l934 1497h166l-934 -1497h-166zM821 227l195 19q-10 -49 3 -61.5t23 -12.5q33 0 41 39l29 137q6 23 6 42.5t-24 19.5q-8 0 -22.5 -7.5t-24.5 -37.5 h-168l96 485h426l-33 -172h-238l-26 -127q16 10 40 17t40 7q76 0 106.5 -33.5t30.5 -92.5v-11.5t-3 -27t-9 -55.5t-19 -97q-12 -59 -30.5 -108.5t-49 -84t-75.5 -54t-109 -19.5q-49 0 -90 15.5t-68.5 45t-41 73.5t-5.5 101z" />
<glyph unicode="&#x2159;" horiz-adv-x="1345" d="M193 -35l933 1497h166l-934 -1497h-165zM246 1118l39 207l161 100h175l-166 -852h-199l123 629zM760 170q0 16 4 39.5t8 52.5q10 47 22.5 90t36.5 84l250 416h222l-211 -342l2 -2q10 4 19 6t20 2q10 0 32.5 -6t42 -26.5t30.5 -57.5t-1 -98l-16 -84q-10 -49 -30 -95.5 t-52.5 -80t-76.5 -54t-101 -20.5q-90 0 -149.5 44t-51.5 132zM948 205q-2 -12 5.5 -21.5t23.5 -9.5t26.5 9.5t12.5 21.5l26 127q2 12 -6 21t-24 9q-23 0 -31 -14t-16 -49z" />
<glyph unicode="&#x215a;" horiz-adv-x="1345" d="M135 803l195 18q-10 -49 3 -61t23 -12q33 0 41 38l29 138q6 23 6 42t-24 19q-8 0 -22.5 -7t-25.5 -38h-167l96 485h426l-33 -172h-238l-26 -127q16 10 40 17.5t40 7.5q76 0 106.5 -34t30.5 -93v-11t-3 -26.5t-9.5 -55.5t-18.5 -97q-12 -59 -30.5 -108.5t-49 -84.5 t-76 -54.5t-108.5 -19.5q-49 0 -90 15.5t-68.5 45t-41 73.5t-5.5 102zM217 -35l934 1497h166l-934 -1497h-166zM780 170q0 16 4 39.5t9 52.5q10 47 22 90t37 84l250 416h221l-211 -342l2 -2q10 4 19.5 6t19.5 2t32.5 -6t42 -26.5t31 -57.5t-1.5 -98l-16 -84 q-10 -49 -29.5 -95.5t-52.5 -80t-77 -54t-101 -20.5q-90 0 -149.5 44t-51.5 132zM969 205q-2 -12 5 -21.5t23 -9.5t26.5 9.5t12.5 21.5l27 127q2 12 -6 21t-25 9q-23 0 -31 -14t-16 -49z" />
<glyph unicode="&#x215b;" horiz-adv-x="1345" d="M152 -35l933 1497h166l-934 -1497h-165zM221 1118l39 207l162 100h174l-166 -852h-199l123 629zM772.5 146.5q-6.5 39.5 7.5 105.5q8 45 27.5 98t73.5 94q-20 14 -28.5 34t-10.5 41.5t2 46t8 46.5q10 49 26.5 96.5t47.5 75.5q35 35 83 53.5t97 18.5t100 -14.5t74 -50.5 q48 -70 23 -179q-10 -47 -26.5 -93t-68.5 -75q20 -14 28.5 -35.5t9.5 -47t-4 -54t-11 -55.5q-12 -72 -29.5 -114t-36.5 -66q-35 -41 -87 -60.5t-107 -19.5q-53 0 -103.5 21.5t-72.5 62.5q-16 31 -22.5 70.5zM965 201q-4 -12 4 -21.5t24 -9.5t27.5 11.5t13.5 23.5l27 135 q2 10 -7.5 20.5t-23.5 10.5q-16 0 -26.5 -10.5t-12.5 -20.5zM1032 549q-2 -12 6.5 -21.5t24.5 -9.5t25.5 11.5t13.5 23.5l18 96q4 12 -3 21.5t-23 9.5t-27.5 -9t-15.5 -22z" />
<glyph unicode="&#x215c;" horiz-adv-x="1345" d="M116.5 699q-12.5 44 0.5 102l194 18q-10 -49 3.5 -61.5t23.5 -12.5q35 0 41 39l20 101q6 29 -11 39t-40 10h-45l29 156h59q23 0 38 10t20 35l18 84q2 10 -3 22t-30 12q-14 0 -34.5 -17t-24.5 -75l-185 27q25 121 87.5 182.5t177.5 61.5q117 0 165 -62.5t33 -181.5 q-8 -51 -31.5 -100.5t-76.5 -73.5q47 -18 51 -63.5t-10 -119.5q-12 -59 -29.5 -108t-48.5 -84t-76 -54.5t-110 -19.5q-49 0 -91.5 15.5t-72 45t-42 73.5zM184 -35l934 1497h166l-934 -1497h-166zM799 146.5q-6 39.5 8 105.5q8 45 27.5 98t72.5 94q-20 14 -28.5 34 t-10.5 41.5t2 46t9 46.5q10 49 26.5 96.5t46.5 75.5q35 35 83 53.5t98 18.5q49 0 100 -14.5t74 -50.5q47 -70 22 -179q-10 -47 -26.5 -93t-67.5 -75q20 -14 28.5 -35.5t9.5 -47t-4 -54t-12 -55.5q-12 -72 -29.5 -114t-35.5 -66q-35 -41 -87 -60.5t-108 -19.5 q-53 0 -103 21.5t-73 62.5q-16 31 -22 70.5zM991 201q-4 -12 4.5 -21.5t24.5 -9.5t27.5 11.5t13.5 23.5l26 135q2 10 -7 20.5t-23 10.5q-16 0 -26.5 -10.5t-12.5 -20.5zM1059 549q-2 -12 6 -21.5t25 -9.5q16 0 25 11.5t13 23.5l19 96q4 12 -3 21.5t-24 9.5q-16 0 -27.5 -9 t-15.5 -22z" />
<glyph unicode="&#x215d;" horiz-adv-x="1345" d="M117 803l194 18q-10 -49 3.5 -61t23.5 -12q33 0 41 38l29 138q6 23 6 42t-25 19q-8 0 -22.5 -7t-24.5 -38h-168l96 485h426l-32 -172h-238l-27 -127q16 10 40 17.5t40 7.5q76 0 106.5 -34t30.5 -93v-11t-3 -26.5t-9 -55.5t-18 -97q-12 -59 -30.5 -108.5t-49.5 -84.5 t-76 -54.5t-108 -19.5q-49 0 -90.5 15.5t-69 45t-40.5 73.5t-5 102zM188 -35l934 1497h166l-934 -1497h-166zM803 146.5q-6 39.5 8 105.5q8 45 27.5 98t72.5 94q-20 14 -28.5 34t-10.5 41.5t2.5 46t8.5 46.5q10 49 26.5 96.5t46.5 75.5q35 35 83 53.5t98 18.5 q49 0 100 -14.5t74 -50.5q47 -70 22 -179q-10 -47 -26.5 -93t-67.5 -75q20 -14 28.5 -35.5t9.5 -47t-4 -54t-11 -55.5q-12 -72 -30 -114t-36 -66q-35 -41 -87 -60.5t-108 -19.5q-53 0 -103 21.5t-73 62.5q-16 31 -22 70.5zM995 201q-4 -12 4.5 -21.5t24.5 -9.5t27.5 11.5 t13.5 23.5l27 135q2 10 -7.5 20.5t-23.5 10.5q-16 0 -26.5 -10.5t-12.5 -20.5zM1063 549q-2 -12 6 -21.5t25 -9.5q16 0 25 11.5t14 23.5l18 96q4 12 -3 21.5t-24 9.5q-16 0 -27.5 -9t-15.5 -22z" />
<glyph unicode="&#x215e;" horiz-adv-x="1345" d="M141 573l359 680h-80l-19 -82h-182l51 254h475l-30 -153l-371 -699h-203zM147 -35l934 1497h166l-934 -1497h-166zM784.5 146.5q-6.5 39.5 8.5 105.5q8 45 27.5 98t72.5 94q-20 14 -28.5 34t-10.5 41.5t2 46t8 46.5q10 49 26.5 96.5t47.5 75.5q35 35 83 53.5t97 18.5 t100.5 -14.5t73.5 -50.5q48 -70 23 -179q-10 -47 -26.5 -93t-67.5 -75q20 -14 28 -35.5t9.5 -47t-4 -54t-11.5 -55.5q-12 -72 -29.5 -114t-35.5 -66q-35 -41 -87.5 -60.5t-107.5 -19.5q-53 0 -103.5 21.5t-72.5 62.5q-16 31 -22.5 70.5zM977 201q-4 -12 4 -21.5t25 -9.5 q16 0 27 11.5t14 23.5l26 135q2 10 -7 20.5t-24 10.5q-16 0 -26 -10.5t-12 -20.5zM1044 549q-2 -12 6.5 -21.5t24.5 -9.5t25.5 11.5t13.5 23.5l19 96q4 12 -3.5 21.5t-23.5 9.5t-27.5 -9t-15.5 -22z" />
<glyph unicode="&#x2190;" horiz-adv-x="1697" d="M102 662l484 487l145 -145l-246 -242h1090v-203h-1090l246 -237l-145 -146z" />
<glyph unicode="&#x2191;" horiz-adv-x="1060" d="M49 958l486 484l487 -484l-145 -145l-242 244v-1057h-203v1057l-237 -244z" />
<glyph unicode="&#x2192;" horiz-adv-x="1697" d="M104 559v203h1092l-246 242l144 145l483 -487l-483 -486l-144 146l246 237h-1092z" />
<glyph unicode="&#x2193;" horiz-adv-x="1060" d="M49 483l146 146l239 -246v1059h201v-1059l242 246l145 -146l-487 -483z" />
<glyph unicode="&#x2196;" horiz-adv-x="1720" d="M248 635v684h688v-201h-344l995 -985l-141 -145l-995 991v-344h-203z" />
<glyph unicode="&#x2198;" horiz-adv-x="1720" d="M248 1178l141 143l995 -989v342h203v-682h-688v201h344z" />
<glyph unicode="&#x21a9;" horiz-adv-x="1775" d="M53 662l482 483l141 -141l-246 -244h907q86 0 120 50t34 122v155q0 68 -37 106t-117 38h-211v196h220q94 0 160.5 -26.5t107.5 -72.5t59.5 -110.5t18.5 -138.5v-147q0 -170 -91.5 -271.5t-279.5 -101.5h-891l246 -240l-141 -141z" />
<glyph unicode="&#x21aa;" horiz-adv-x="1767" d="M55 932v147q0 74 18.5 138.5t59.5 110.5t106.5 72.5t161.5 26.5h220v-196h-209q-84 0 -120 -38t-36 -106v-155q0 -72 35 -122t121 -50h905l-248 244l143 141l480 -483l-480 -484l-143 141l248 240h-889q-190 0 -281.5 101.5t-91.5 271.5z" />
<glyph unicode="&#x21b3;" horiz-adv-x="1748" d="M180 561v858h203v-659h930l-246 244l143 141l480 -483l-480 -484l-143 141l246 242h-1133z" />
<glyph unicode="&#x21b5;" horiz-adv-x="1748" d="M160 662l481 483l141 -141l-243 -244h929v659h201v-858h-1130l243 -242l-141 -141z" />
<glyph unicode="&#x21de;" horiz-adv-x="1044" d="M43 995l469 447l479 -447l-145 -147l-234 211v-309h207v-189h-207v-110h207v-185h-207v-266h-198v266h-211v185h211v110h-211v189h211v309l-226 -211z" />
<glyph unicode="&#x21df;" horiz-adv-x="1044" d="M43 446l145 146l224 -213v313h-209v187h209v112h-209v183h209v268h200v-268h207v-183h-207v-112h207v-187h-207v-313l234 213l145 -146l-479 -446z" />
<glyph unicode="&#x21e0;" horiz-adv-x="1712" d="M104 657l482 488l145 -144l-248 -243h240v-199h-240l248 -242l-145 -143zM801 559v199h203v-199h-203zM1083 559v199h203v-199h-203zM1370 559v199h203v-199h-203z" />
<glyph unicode="&#x21e1;" horiz-adv-x="1069" d="M47 944l485 483l488 -483l-143 -143l-244 246v-238h-201v238l-239 -246zM432 -41v203h201v-203h-201zM432 246v203h201v-203h-201zM432 528v203h201v-203h-201z" />
<glyph unicode="&#x21e2;" horiz-adv-x="1712" d="M106 559v201h205v-201h-205zM393 559v201h203v-201h-203zM676 559v201h203v-201h-203zM948 319l248 240h-240v201h240l-248 241l144 146l483 -488l-483 -485z" />
<glyph unicode="&#x21e3;" horiz-adv-x="1069" d="M47 442l143 144l242 -246v238h199v-238l243 246q35 -35 71 -72t73 -72q-123 -121 -244 -240.5t-244 -238.5zM432 655v203h199v-203h-199zM432 940v201h199v-201h-199zM432 1225v202h199v-202h-199z" />
<glyph unicode="&#x21e4;" horiz-adv-x="1783" d="M135 213v891h217v-891h-217zM434 662l481 487l146 -145l-246 -242h883v-203h-883l246 -237l-146 -146z" />
<glyph unicode="&#x21e5;" horiz-adv-x="1783" d="M137 559v203h883l-246 242l146 145l481 -487l-481 -486l-146 146l246 237h-883zM1483 213v891h217v-891h-217z" />
<glyph unicode="&#x21e7;" horiz-adv-x="1720" d="M76 627l790 813l791 -813h-400v-627h-782v627h-399zM442 774h193v-616h465v616h190l-424 440z" />
<glyph unicode="&#x21ea;" horiz-adv-x="1720" d="M61 627l793 813l791 -813h-400v-422h-784v422h-400zM428 774h193v-409h466v409h191l-424 440zM461 53h782v-424h-782v424zM621 -92v-137h466v137h-466z" />
<glyph unicode="&#x2202;" horiz-adv-x="882" d="M33 319q0 141 43 258t111.5 200t154.5 129t172 46q47 0 81 -12t75 -35q6 43 6 84q0 109 -44 176.5t-128 67.5q-25 0 -66 -8t-110 -35l51 256q51 16 99 23.5t85 7.5q98 0 167 -34t112 -95.5t61.5 -144.5t18.5 -181q0 -70 -8.5 -145.5t-24.5 -155.5q-37 -184 -93.5 -323.5 t-128 -231.5t-156.5 -139t-177 -47q-135 0 -218 87t-83 252zM285 375q0 -78 28.5 -113t69.5 -35q45 0 81 36t65.5 93.5t52 126t41.5 133.5q-39 57 -74 77t-72 20q-43 0 -77.5 -35t-60.5 -86t-40 -109.5t-14 -107.5z" />
<glyph unicode="&#x220f;" horiz-adv-x="913" d="M-10 -162l309 1587h702l-309 -1587h-276l256 1315h-148l-256 -1315h-278z" />
<glyph unicode="&#x2211;" horiz-adv-x="716" d="M-72 -160l49 254l271 553l-64 533l49 245h633l-51 -266h-321l59 -512l-256 -528h338l-55 -279h-652z" />
<glyph unicode="&#x221a;" horiz-adv-x="1007" d="M100 778l416 123l10 -543l426 1262h248l-645 -1778h-238l-43 768l-135 -35z" />
<glyph unicode="&#x221e;" horiz-adv-x="1275" d="M92 543q0 63 22.5 121.5t62.5 102.5t92.5 69.5t111.5 25.5q37 0 72.5 -13t70.5 -34.5t64.5 -49.5t54.5 -54q51 74 111.5 112.5t152.5 38.5q59 0 110.5 -23.5t88.5 -66.5t57.5 -101.5t20.5 -127.5q0 -63 -22.5 -122t-61.5 -103t-91.5 -70.5t-111.5 -26.5q-84 0 -145.5 46 t-112.5 110q-51 -66 -113.5 -111t-154.5 -45q-59 0 -109.5 23.5t-88.5 66.5t-59.5 101.5t-21.5 130.5zM291 545q0 -49 26.5 -84t59.5 -35q39 0 75.5 34t67.5 81q-29 43 -63.5 77.5t-75.5 34.5q-35 0 -62.5 -31.5t-27.5 -76.5zM758 545q35 -47 70.5 -83t70.5 -36t61.5 35 t26.5 82t-26.5 78.5t-59.5 31.5q-35 0 -71.5 -30.5t-71.5 -77.5z" />
<glyph unicode="&#x222b;" horiz-adv-x="647" d="M-197 -264l58 180q39 -10 60.5 -12t33.5 -2q25 0 49.5 11t48 42t46 85t44.5 140q29 111 64 284t82 431q4 27 14 70t21.5 90t23.5 92t21 76q27 102 63.5 170.5t82.5 110.5t103.5 59.5t126.5 17.5q33 0 83.5 -9t84.5 -32l-67 -192q-39 12 -63.5 14t-34.5 2q-61 0 -95.5 -52 t-62.5 -179q-6 -27 -17.5 -79.5t-24.5 -120t-27.5 -143t-29 -149.5t-26.5 -140.5t-21 -113.5q-35 -197 -76.5 -329t-99 -213t-131.5 -114.5t-172 -33.5q-33 0 -79 9t-83 30z" />
<glyph unicode="&#x2248;" horiz-adv-x="880" d="M27 389q76 119 148.5 172t168.5 53q39 0 74 -17t63.5 -36.5t55 -36t51.5 -16.5q35 0 66.5 18.5t80.5 73.5l133 -90q-74 -127 -144.5 -175t-141.5 -48q-41 0 -77 16t-66.5 35.5t-59.5 36t-55 16.5q-18 0 -37 -2t-38.5 -11t-43 -26.5t-53.5 -50.5zM86 752q76 119 148.5 172 t168.5 53q39 0 74 -17.5t63.5 -37t55.5 -36t51 -16.5q35 0 66.5 18.5t81.5 74.5l133 -91q-74 -127 -144.5 -175t-142.5 -48q-41 0 -77 16.5t-66.5 36t-59 36t-55.5 16.5q-18 0 -36.5 -2t-38 -11.5t-43 -27t-54.5 -49.5z" />
<glyph unicode="&#x2260;" horiz-adv-x="880" d="M-84 82l174 237h-153l43 228h278l102 139h-352l43 227h477l172 232h218l-173 -232h103l-43 -227h-227l-103 -139h301l-43 -228h-426l-174 -237h-217z" />
<glyph unicode="&#x2264;" horiz-adv-x="880" d="M-23 0l46 238h774l-45 -238h-775zM100 651l41 203l838 317l-53 -266l-457 -151h2l395 -158l-51 -268z" />
<glyph unicode="&#x2265;" horiz-adv-x="880" d="M-23 0l46 238h774l-45 -238h-775zM41 328l51 268l457 158h2l-399 151l53 266l715 -317l-41 -203z" />
<glyph unicode="&#x2303;" horiz-adv-x="1525" d="M150 844l606 606l608 -606l-135 -139l-473 462l-469 -462z" />
<glyph unicode="&#x2318;" horiz-adv-x="1687" d="M125 293q0 61 20.5 116.5t60.5 97.5t96 66.5t130 24.5h115v231h-115q-61 0 -117.5 25t-98.5 67t-66.5 97t-24.5 117q0 63 22.5 118.5t62.5 97.5t97.5 66.5t124.5 24.5q76 0 133.5 -24.5t95 -66.5t57 -97.5t19.5 -118.5v-115h232v115q0 63 22.5 118.5t62.5 97.5t96 66.5 t124 24.5q74 0 131 -24.5t96 -66.5t59.5 -98.5t20.5 -117.5q0 -59 -24.5 -114.5t-65.5 -97.5t-97.5 -68t-119.5 -26h-115v-231h115q76 0 134 -24.5t96 -66.5t57.5 -97.5t19.5 -116.5t-19.5 -116.5t-57.5 -98.5t-96 -67.5t-134 -24.5q-74 0 -130.5 24.5t-95 66.5t-59 98 t-20.5 118v115h-232v-115q0 -59 -19.5 -114.5t-57 -98.5t-95 -68.5t-133.5 -25.5q-72 0 -128 24.5t-96 65.5t-61.5 97t-21.5 120zM313 293q0 -51 34 -85t85 -34q49 0 82 34t33 85v115h-115q-51 0 -85 -34t-34 -81zM313 1135q0 -49 34 -82t85 -33h115v115q0 49 -34 82.5 t-81 33.5q-49 0 -84 -32.5t-35 -83.5zM737 598h232v231h-232v-231zM1159 293q0 -51 34 -85t81 -34q49 0 83 34t34 85q0 47 -34 81t-83 34h-115v-115zM1159 1020h115q49 0 83 33.5t34 81.5q0 49 -34 82.5t-83 33.5q-47 0 -81 -32.5t-34 -83.5v-115z" />
<glyph unicode="&#x2324;" horiz-adv-x="1587" d="M176 561l608 639l607 -639l-138 -139l-469 502q-37 -41 -101.5 -110t-133 -143.5t-133 -142t-101.5 -106.5zM186 1229v196h1198v-196h-1198z" />
<glyph unicode="&#x2325;" horiz-adv-x="2433" d="M117 1196v199h600l663 -1200h942v-195h-1089l-664 1196h-452zM1167 1196v199h1155v-199h-1155z" />
<glyph unicode="&#x2326;" horiz-adv-x="2392" d="M205 0v1423h1331l690 -712l-690 -711h-1331zM393 188h1047l514 523l-514 522h-1047v-1045zM592 406l291 288l-291 291l125 125l289 -289l290 289l125 -125l-291 -291l291 -288l-125 -125l-290 290l-289 -290z" />
<glyph unicode="&#x232b;" horiz-adv-x="2392" d="M207 711l692 712h1329v-1423h-1329zM479 711l516 -523h1047v1045h-1047zM1014 406l289 288l-289 291l125 125l291 -289l286 289l125 -125l-289 -291l289 -288l-125 -125l-286 290l-291 -290z" />
<glyph unicode="&#x235f;" horiz-adv-x="1646" d="M94 711q0 150 56.5 281.5t154.5 230t230.5 155t283.5 56.5q150 0 282 -57.5t230.5 -156t154.5 -230.5t56 -281h-2q0 -150 -57.5 -282t-155.5 -230.5t-230 -154.5t-282 -56t-281 56t-229 154.5t-154.5 230.5t-56.5 284zM211 709q0 -125 47 -234.5t129 -191.5t192.5 -129.5 t235.5 -47.5t235.5 47.5t192.5 129.5t129 191.5t47 234.5t-47 235.5t-129 192.5t-192.5 129t-235.5 47t-235.5 -47t-192.5 -129t-129 -192.5t-47 -235.5zM311 848l334 65l154 304l164 -299l335 -70l-231 -232l53 -346l-321 156l-289 -156l43 338z" />
<glyph unicode="&#x23cf;" horiz-adv-x="1748" d="M135 186v279h1438v-279h-1438zM135 643l719 719l719 -719h-1438z" />
<glyph unicode="&#x25a0;" horiz-adv-x="1792" d="M252 82v1296h1296v-1296h-1296z" />
<glyph unicode="&#x25a1;" horiz-adv-x="1722" d="M166 0v1419h1407v-1419h-1407zM336 170h1069v1079h-1069v-1079z" />
<glyph unicode="&#x25b2;" horiz-adv-x="1679" d="M162 360l719 719l718 -719h-1437z" />
<glyph unicode="&#x25b6;" horiz-adv-x="1218" d="M283 0v1436l718 -717z" />
<glyph unicode="&#x25bc;" horiz-adv-x="1679" d="M162 1079h1437l-718 -719z" />
<glyph unicode="&#x25c0;" horiz-adv-x="1218" d="M207 719l719 717v-1436z" />
<glyph unicode="&#x25ca;" horiz-adv-x="1085" d="M78 651l358 690h168l352 -690l-354 -688h-168q-8 16 -35.5 69.5t-64.5 124t-78 149.5t-78 149.5t-64.5 124t-35.5 71.5zM315 653q8 -20 39 -79.5t66 -127t64.5 -128t37.5 -78.5q10 20 40 78.5t62.5 126t61.5 127t39 79.5l-207 414q-10 -20 -38.5 -79.5t-62.5 -126 t-63.5 -126t-38.5 -80.5z" />
<glyph unicode="&#x25cf;" horiz-adv-x="1726" d="M227 731q0 135 53.5 253t142.5 205t207 138t247 51t245.5 -51t205.5 -140t142.5 -207t53.5 -249t-51.5 -248.5t-140.5 -207t-206.5 -141.5t-248.5 -52q-133 0 -251 51t-207 140t-140.5 207t-51.5 251z" />
<glyph unicode="&#x25fc;" horiz-adv-x="1013" d="M0 0v1014h1014v-1014h-1014z" />
<glyph unicode="&#x2602;" horiz-adv-x="1597" d="M102 745q0 131 62.5 253t159 217.5t215 152.5t231.5 57v64h59v-66q113 0 231 -56t214 -150.5t157.5 -217t61.5 -254.5q-33 37 -82 58.5t-102 21.5q-47 0 -92.5 -19.5t-83.5 -60.5h-5q-47 80 -153 80q-57 0 -127 -28v-623q0 -86 -52.5 -138t-150.5 -52q-86 0 -142.5 48 t-56.5 152v27h97v-27q0 -57 27.5 -83.5t70.5 -26.5q33 0 53.5 10t31.5 26.5t15 37t4 40.5v607q-29 14 -55 19t-51 5q-53 0 -95 -20.5t-79 -55.5q-35 41 -82 60.5t-96 19.5q-51 0 -99.5 -19.5t-83.5 -60.5zM1493 745l2 -2q-2 0 -2 2z" />
<glyph unicode="&#x2605;" horiz-adv-x="1667" d="M86 874l510 99l233 463l252 -457l512 -105l-354 -354l80 -528l-490 239l-438 -239l66 514z" />
<glyph unicode="&#x2606;" horiz-adv-x="1716" d="M80 887l520 100l231 461l254 -457l521 -104l-361 -361l80 -530l-491 240l-447 -244l68 522zM199 850l313 -313l-55 -443l377 203l421 -203l-71 453l305 303l-436 88l-219 395l-201 -401z" />
<glyph unicode="&#x2610;" horiz-adv-x="1722" d="M166 0v1419h1407v-1419h-1407zM336 170h1069v1079h-1069v-1079z" />
<glyph unicode="&#x2611;" horiz-adv-x="1740" d="M166 0v1419h1407v-1419h-1407zM334 168h1071v981q-88 -86 -179 -199.5t-174 -236.5t-153 -243t-115 -216q-115 -23 -172 -55q-16 63 -44.5 149t-62.5 169t-70 149.5t-66 89.5q51 41 100 56t78 15q18 0 44.5 -28.5t52.5 -75.5t48.5 -107.5t34.5 -123.5q47 76 115.5 164.5 t147.5 180t162 174.5t159 146q23 25 43 48.5t43 43.5h-1063v-1081z" />
<glyph unicode="&#x2612;" horiz-adv-x="1740" d="M168 0v1419h1407v-1419h-1407zM338 170h1069v1079h-1069v-1079zM408 369l340 338l-340 342l120 120l342 -340l338 340l121 -118l-338 -340l344 -344l-125 -117l-340 340l-344 -346z" />
<glyph unicode="&#x2622;" horiz-adv-x="1714" d="M102 719q0 137 53.5 270t152 239.5t236.5 172t308 65.5q160 0 299 -57t241.5 -156.5t161 -233.5t58.5 -290q0 -158 -58.5 -297t-160 -242.5t-239.5 -164t-298 -60.5q-158 0 -295 58.5t-239.5 160t-161 239.5t-58.5 296zM176 719q0 -143 54.5 -267t147.5 -216.5 t218 -144.5t264 -52q135 0 257 54t215 146.5t147.5 212t54.5 250.5q0 162 -58.5 291t-153.5 219.5t-218 139.5t-252 49q-139 0 -262 -54.5t-215 -147.5t-145.5 -217t-53.5 -263zM236 719q0 176 72.5 305t234.5 233l202 -352q-47 -29 -73.5 -77t-32.5 -109h-403zM547 184 l201 348q61 -29 110 -28q41 0 103 28l204 -350q-162 -84 -315 -84q-166 0 -303 86zM692 719q0 70 48 118t116 48q33 0 62.5 -14.5t51 -37t34 -52t12.5 -62.5t-12.5 -61.5t-34 -50t-51 -35t-62.5 -13.5q-63 0 -113.5 45t-50.5 115zM961 909l204 351q147 -82 229.5 -221.5 t82.5 -319.5h-404q-12 127 -112 190z" />
<glyph unicode="&#x2623;" horiz-adv-x="1753" d="M113 494q0 59 16 116.5t54 107.5t98.5 92t150.5 71q0 129 23.5 224t71.5 159.5t122 104.5t176 58l11 -30q-279 -81 -279 -310q0 -139 78 -220t227 -99v-45q-47 -10 -66.5 -38t-19.5 -56q0 -10 2 -19.5t6 -19.5l-39 -21q-123 147 -272 148q-59 0 -115.5 -24.5t-99.5 -66.5 t-69.5 -97.5t-26.5 -116.5q0 -45 12 -115l-22 -10q-16 51 -27.5 103t-11.5 104zM207 180l22 17q139 -123 240 -123q68 0 127 25.5t103 68.5t70 101.5t26 123.5q0 25 -5.5 62t-31.5 84l45 26q14 -23 35.5 -30t42.5 -7q37 0 67 35l47 -24q-35 -84 -34 -148q0 -63 24.5 -119.5 t67.5 -99.5t98 -67.5t117 -24.5q135 0 250 110l24 -16q-39 -53 -78 -87t-81 -53.5t-89 -26.5t-102 -7q-78 0 -158.5 21.5t-156.5 87.5q-86 -66 -166 -87.5t-152 -21.5q-53 0 -100 8t-89 28.5t-82 55.5t-81 88zM463 606q0 43 8 78h25q45 -4 86 -25v-61q0 -156 180 -246 q-4 -29 -15.5 -56t-27.5 -50q-57 25 -104.5 61.5t-81 84.5t-52 102.5t-18.5 111.5zM623 946q66 43 127 65.5t127 22.5q131 0 256 -88q-27 -55 -76 -88q-90 61 -176 62q-84 0 -183 -62q-29 16 -45 38t-30 50zM891 723v45q147 18 225 101.5t78 222.5q0 223 -242 303l11 32 q186 -41 274 -157.5t88 -317.5v-32.5t-2 -34.5q160 -63 237.5 -171t77.5 -245q0 -92 -36 -197l-27 9q16 88 16 133q0 61 -25.5 115.5t-68.5 94.5t-101.5 62.5t-123.5 22.5q-82 0 -146.5 -39t-113.5 -107l-47 27q6 20 6 41q0 33 -18.5 56.5t-61.5 35.5zM991 352 q180 90 180 254v24.5t-2 28.5q23 14 55.5 17.5t55.5 3.5q8 -33 8 -76q0 -111 -68.5 -207t-191.5 -151q-14 25 -23.5 51.5t-13.5 54.5z" />
<glyph unicode="&#x262e;" horiz-adv-x="1708" d="M96 723q0 154 58.5 289t160 234.5t236.5 156.5t289 57q160 0 298 -57t240.5 -156.5t160.5 -232.5t58 -285q0 -158 -59 -295t-162.5 -238.5t-243 -160t-296.5 -58.5q-150 0 -284 59.5t-235.5 161t-161 237.5t-59.5 288zM229 719q0 -55 5.5 -96t15.5 -74t25.5 -64.5 t37.5 -68.5l473 430v489q-123 -16 -225 -67t-176 -132t-115 -187.5t-41 -229.5zM383 324q47 -45 92 -82t92 -67t100.5 -49.5t118.5 -29.5v596zM903 100q121 14 219.5 69.5t190.5 154.5l-410 368v-592zM903 846l479 -428q37 66 58.5 141.5t21.5 169.5q0 119 -39 221.5 t-111.5 181t-176 132t-232.5 71.5v-489z" />
<glyph unicode="&#x262f;" horiz-adv-x="1695" d="M102 729q0 168 64.5 304t169 233.5t238 150.5t272.5 53q168 0 306 -60t236.5 -162.5t151.5 -239t53 -287.5q0 -168 -60 -304t-162.5 -233.5t-237 -149.5t-283.5 -52q-166 0 -304 62t-236.5 165.5t-153 239t-54.5 280.5zM500 1337l10 -8q43 12 86 12q84 0 152.5 -31.5 t116.5 -79.5t75 -104.5t27 -107.5q0 -104 -40 -193.5t-139 -187.5q-43 -43 -59 -105.5t-16 -105.5q0 -152 93 -237t263 -85q88 0 174 48.5t153.5 132.5t109.5 196.5t42 241.5q0 135 -50 263t-142 226.5t-221 159t-289 60.5q-92 0 -179 -24t-167 -71zM518 999 q0 -41 26.5 -71.5t73.5 -30.5q45 0 75 30.5t30 71.5q0 37 -28.5 69t-78.5 32q-35 0 -66.5 -28t-31.5 -73zM977 457q0 47 31.5 76.5t66.5 29.5q45 0 75 -32.5t30 -73.5q0 -45 -32 -73t-73 -28q-43 0 -70.5 32t-27.5 69z" />
<glyph unicode="&#x2672;" horiz-adv-x="1882" d="M102 862h433l174 -375l-123 72l-64 -57q-33 -31 -33 -60q0 -51 64 -51h393v-432h-379q-66 0 -92 21.5t-47 58.5l-231 426q-14 25 -19.5 51.5t-5.5 54.5q0 53 14.5 102.5t51.5 88.5zM188 831l97 -65q-39 -37 -60.5 -87t-21.5 -104q0 -59 19.5 -95t51 -55t70.5 -26.5 t76 -7.5h57q-23 16 -22 49q0 41 39 80l86 78l57 -35l-125 268h-324zM268 391l181 -334q18 -33 39.5 -52t68.5 -19h361v379h-486q-35 0 -58.5 2t-41 5t-32.5 8t-32 11zM365 1026l210 340q23 37 56 57.5t86 20.5h497q41 0 56.5 -5t29.5 -28l109 -178l131 78l-172 -393l-432 43 l123 77l-94 166l-254 -379zM408 1032l294 -170l246 371q-39 76 -97 125t-146 49q-59 0 -99 -57zM801 1417q63 -14 105 -67.5t79 -118.5l115 -205l-76 -47l326 -31l137 297l-82 -53l-121 190q-12 20 -26.5 27.5t-38.5 7.5h-418zM1001 160l226 346v-144h223l-236 400l353 209 l194 -361q18 -37 19 -61q0 -23 -7.5 -42.5t-17.5 -37.5l-221 -397q-18 -33 -31.5 -54.5t-27 -35t-31 -18.5t-43.5 -5h-172v-158zM1036 160l166 -266v92h197q18 0 41.5 10t42.5 43l211 385q-66 -61 -138.5 -76.5t-181.5 -15.5h-172v90zM1251 754l236 -392q39 4 84 20.5 t84 42.5t64.5 58.5t25.5 69.5q0 14 -4 26.5t-8 22.5l-183 326z" />
<glyph unicode="&#x2673;" horiz-adv-x="1779" d="M102 213q0 74 50 160l149 268l-94 51l14 27l242 45l86 -229l-17 -31l-96 59l-131 -237q-27 -49 -26 -88q0 -37 27.5 -62.5t92.5 -25.5h406v-150h-436q-123 0 -195 58.5t-72 154.5zM449 897l217 379q45 78 101 111.5t118 33.5q63 0 121.5 -36.5t95.5 -102.5l149 -264 l105 59l12 -28l-90 -230l-248 43l-12 25l100 55l-145 246q-16 29 -40 45t-52 16q-29 0 -55.5 -20.5t-43.5 -50.5l-202 -357zM739 662v116l86 62h101v-594h-113v467zM913 74l160 200l27 -4v-120h262q74 0 107.5 24.5t33.5 65.5q0 39 -33 94l-204 348l137 80l227 -397 q47 -80 47 -150q0 -98 -83 -156.5t-210 -58.5h-286v-121h-33z" />
<glyph unicode="&#x2674;" horiz-adv-x="1779" d="M102 213q0 74 50 160l149 268l-94 51l14 27l242 45l86 -229l-17 -31l-96 59l-131 -237q-27 -49 -26 -88q0 -37 27.5 -62.5t92.5 -25.5h406v-150h-436q-123 0 -195 58.5t-72 154.5zM449 897l217 379q45 78 101 111.5t118 33.5q63 0 121.5 -36.5t95.5 -102.5l149 -264 l105 59l12 -28l-90 -230l-248 43l-12 25l100 55l-145 246q-16 29 -40 45t-52 16q-29 0 -55.5 -20.5t-43.5 -50.5l-202 -357zM674 254v94l219 275q29 31 29 67q0 23 -16.5 41.5t-47.5 18.5q-29 0 -48 -24t-26 -64l-106 12q12 86 63.5 132t116.5 46q74 0 123 -41t49 -119 q0 -29 -10 -60.5t-33 -60.5l-170 -213h203v-104h-346zM913 74l160 200l27 -4v-120h262q74 0 107.5 24.5t33.5 65.5q0 39 -33 94l-204 348l137 80l227 -397q47 -80 47 -150q0 -98 -83 -156.5t-210 -58.5h-286v-121h-33z" />
<glyph unicode="&#x2675;" horiz-adv-x="1779" d="M102 213q0 74 50 160l149 268l-94 51l14 27l242 45l86 -229l-17 -31l-96 59l-131 -237q-27 -49 -26 -88q0 -37 27.5 -62.5t92.5 -25.5h406v-150h-436q-123 0 -195 58.5t-72 154.5zM449 897l217 379q45 78 101 111.5t118 33.5q63 0 121.5 -36.5t95.5 -102.5l149 -264 l105 59l12 -28l-90 -230l-248 43l-12 25l100 55l-145 246q-16 29 -40 45t-52 16q-29 0 -55.5 -20.5t-43.5 -50.5l-202 -357zM674 406l104 14q8 -39 27.5 -55.5t44.5 -16.5q37 0 58.5 25.5t21.5 62.5q0 39 -21.5 58.5t-54.5 19.5h-59v98h53q33 0 54.5 19.5t21.5 48.5 t-20.5 49.5t-49.5 20.5q-23 0 -41 -19.5t-29 -54.5l-106 12q14 72 63.5 118t112.5 46q92 0 134 -51t42 -119q0 -31 -10 -59.5t-45 -55.5q35 -29 47 -61.5t12 -67.5q0 -86 -50 -138t-136 -52q-29 0 -56.5 7t-51 25.5t-41 49t-25.5 76.5zM913 74l160 200l27 -4v-120h262 q74 0 107.5 24.5t33.5 65.5q0 39 -33 94l-204 348l137 80l227 -397q47 -80 47 -150q0 -98 -83 -156.5t-210 -58.5h-286v-121h-33z" />
<glyph unicode="&#x2676;" horiz-adv-x="1779" d="M102 213q0 74 50 160l149 268l-94 51l14 27l242 45l86 -229l-17 -31l-96 59l-131 -237q-27 -49 -26 -88q0 -37 27.5 -62.5t92.5 -25.5h406v-150h-436q-123 0 -195 58.5t-72 154.5zM449 897l217 379q45 78 101 111.5t118 33.5q63 0 121.5 -36.5t95.5 -102.5l149 -264 l105 59l12 -28l-90 -230l-248 43l-12 25l100 55l-145 246q-16 29 -40 45t-52 16q-29 0 -55.5 -20.5t-43.5 -50.5l-202 -357zM633 342v88l196 422h115l-190 -410h118v144h105v-144h45v-100h-45v-84h-105v84h-239zM913 74l160 200l27 -4v-120h262q74 0 107.5 24.5t33.5 65.5 q0 39 -33 94l-204 348l137 80l227 -397q47 -80 47 -150q0 -98 -83 -156.5t-210 -58.5h-286v-121h-33z" />
<glyph unicode="&#x2677;" horiz-adv-x="1779" d="M102 213q0 74 50 160l149 268l-94 51l14 27l242 45l86 -229l-17 -31l-96 59l-131 -237q-27 -49 -26 -88q0 -37 27.5 -62.5t92.5 -25.5h406v-150h-436q-123 0 -195 58.5t-72 154.5zM449 897l217 379q45 78 101 111.5t118 33.5q63 0 121.5 -36.5t95.5 -102.5l149 -264 l105 59l12 -28l-90 -230l-248 43l-12 25l100 55l-145 246q-16 29 -40 45t-52 16q-29 0 -55.5 -20.5t-43.5 -50.5l-202 -357zM684 397l104 21q16 -78 74 -78q27 0 42.5 11t23.5 28.5t11 38t3 39.5q0 39 -13.5 70.5t-58.5 31.5q-20 0 -36.5 -14.5t-30.5 -36.5h-96v332h309 v-103h-209v-96q20 10 39.5 14t40.5 4q78 0 117.5 -51t39.5 -131v-37q0 -84 -45 -141t-137 -57q-63 0 -111.5 32.5t-66.5 122.5zM913 74l160 200l27 -4v-120h262q74 0 107.5 24.5t33.5 65.5q0 39 -33 94l-204 348l137 80l227 -397q47 -80 47 -150q0 -98 -83 -156.5 t-210 -58.5h-286v-121h-33z" />
<glyph unicode="&#x2678;" horiz-adv-x="1779" d="M102 213q0 74 50 160l149 268l-94 51l14 27l242 45l86 -229l-17 -31l-96 59l-131 -237q-27 -49 -26 -88q0 -37 27.5 -62.5t92.5 -25.5h406v-150h-436q-123 0 -195 58.5t-72 154.5zM449 897l217 379q45 78 101 111.5t118 33.5q63 0 121.5 -36.5t95.5 -102.5l149 -264 l105 59l12 -28l-90 -230l-248 43l-12 25l100 55l-145 246q-16 29 -40 45t-52 16q-29 0 -55.5 -20.5t-43.5 -50.5l-202 -357zM694 426q0 29 7.5 61.5t25.5 67.5q35 68 75 141.5t75 143.5h114l-112 -232h12q72 0 117 -52t45 -124q0 -49 -15.5 -86t-41 -59.5t-58.5 -33.5 t-68 -11q-78 0 -127 46t-49 138zM801 428q0 -41 19.5 -63.5t51.5 -22.5q29 0 49.5 22.5t20.5 63.5t-20.5 61.5t-49.5 20.5t-50 -20.5t-21 -61.5zM913 74l160 200l27 -4v-120h262q74 0 107.5 24.5t33.5 65.5q0 39 -33 94l-204 348l137 80l227 -397q47 -80 47 -150 q0 -98 -83 -156.5t-210 -58.5h-286v-121h-33z" />
<glyph unicode="&#x2679;" horiz-adv-x="1779" d="M102 213q0 74 50 160l149 268l-94 51l14 27l242 45l86 -229l-17 -31l-96 59l-131 -237q-27 -49 -26 -88q0 -37 27.5 -62.5t92.5 -25.5h406v-150h-436q-123 0 -195 58.5t-72 154.5zM449 897l217 379q45 78 101 111.5t118 33.5q63 0 121.5 -36.5t95.5 -102.5l149 -264 l105 59l12 -28l-90 -230l-248 43l-12 25l100 55l-145 246q-16 29 -40 45t-52 16q-29 0 -55.5 -20.5t-43.5 -50.5l-202 -357zM692 641v188h352v-90l-200 -503h-115l195 489h-125v-84h-107zM913 74l160 200l27 -4v-120h262q74 0 107.5 24.5t33.5 65.5q0 39 -33 94l-204 348 l137 80l227 -397q47 -80 47 -150q0 -98 -83 -156.5t-210 -58.5h-286v-121h-33z" />
<glyph unicode="&#x267a;" horiz-adv-x="1779" d="M102 213q0 74 50 160l149 268l-94 51l14 27l242 45l86 -229l-17 -31l-96 59l-131 -237q-27 -49 -26 -88q0 -37 27.5 -62.5t92.5 -25.5h406v-150h-436q-123 0 -195 58.5t-72 154.5zM449 897l217 379q45 78 101 111.5t118 33.5q63 0 121.5 -36.5t95.5 -102.5l149 -264 l105 59l12 -28l-90 -230l-248 43l-12 25l100 55l-145 246q-16 29 -40 45t-52 16q-29 0 -55.5 -20.5t-43.5 -50.5l-202 -357zM913 74l160 200l27 -4v-120h262q74 0 107.5 24.5t33.5 65.5q0 39 -33 94l-204 348l137 80l227 -397q47 -80 47 -150q0 -98 -83 -156.5t-210 -58.5 h-286v-121h-33z" />
<glyph unicode="&#x267b;" horiz-adv-x="1820" d="M102 606q0 16 11 47l102 176l-84 41h330l160 -276l-95 55l-147 -268q-35 -55 -51.5 -97t-16.5 -69l-180 311q-29 49 -29 80zM326 1032l170 299q27 35 67.5 63.5t93.5 28.5q74 0 130.5 -38.5t86.5 -79.5l-247 -451zM358 172q0 37 13.5 73t36.5 77h510v-322h-388 q-23 0 -52 9t-56 28.5t-45.5 52.5t-18.5 82zM823 1421h371q57 0 76.5 -12t32.5 -35l94 -168l98 56l-168 -295h-342l107 67l-152 273q-25 43 -56.5 70.5t-60.5 43.5zM961 164l176 280v-122h305q33 0 90 15t104 46l-204 -311q-31 -47 -66 -59.5t-63 -12.5h-166v-119zM1202 836 l309 178l177 -303q31 -51 30 -107q0 -49 -22.5 -90t-57 -70.5t-80 -46t-88.5 -16.5h-16z" />
<glyph unicode="&#x267c;" horiz-adv-x="1712" d="M102 721q0 156 59.5 293t162 239.5t239.5 162t293 59.5t293 -59.5t239.5 -162t162 -239.5t59.5 -293t-59.5 -293t-162 -239.5t-239.5 -162t-293 -59.5t-293 59.5t-239.5 162t-162 239.5t-59.5 293zM242 651q0 -27 20 -61l141 -228q0 41 48 123l112 199l70 -39l-119 205 h-246l62 -29l-78 -131q-10 -16 -10 -39zM414 971l227 -133l184 338q-25 31 -66.5 59.5t-96.5 28.5q-41 0 -73 -19.5t-48 -50.5zM438 330q0 -37 13.5 -62.5t34 -41t42 -21.5t37.5 -6h291v239h-381q-37 -55 -37 -108zM784 1262q23 -10 46.5 -31t41.5 -53l113 -205l-80 -51h256 l127 221l-74 -41l-69 125q-10 18 -24.5 26.5t-55.5 8.5h-281zM889 324l131 -213v88h125q18 0 46 10t50 45l154 231q-35 -20 -79 -33.5t-67 -13.5h-229v94zM1069 825l188 -340h13q33 0 65.5 12.5t59 34t43 52t16.5 67.5q0 18 -4 39t-18 41l-132 227z" />
<glyph unicode="&#x267d;" horiz-adv-x="1712" d="M102 723q0 156 59.5 293t162 239.5t239.5 162t293 59.5t293 -59.5t239.5 -162t162 -239.5t59.5 -293t-59.5 -293t-162 -239.5t-239.5 -162t-293 -59.5t-293 59.5t-239.5 162t-162 239.5t-59.5 293zM141 723q0 -147 56.5 -278.5t154 -227.5t227.5 -152.5t277 -56.5 t278.5 56.5t227.5 152.5t152.5 227.5t56.5 278.5t-56.5 277t-152.5 227.5t-227 154t-279 56.5q-147 0 -277 -56.5t-227.5 -154t-154 -227.5t-56.5 -277zM246 651q0 23 10 39l78 131l-62 29h246l119 -205l-70 39l-112 -199q-47 -82 -47 -123l-142 228q-20 35 -20 61zM418 971 l127 223q16 31 48 50.5t73 19.5q55 0 97 -29t66 -59l-184 -338zM442 330q0 53 37 108h381v-239h-291q-16 0 -37.5 6t-42 21.5t-34 41t-13.5 62.5zM788 1262h281q41 0 55.5 -8.5t24.5 -26.5l70 -125l73 41l-127 -221h-256l80 51l-112 205q-18 33 -42 53t-47 31zM893 324 l131 208v-94h229q23 0 67 13.5t79 33.5l-154 -231q-23 -35 -50.5 -45t-45.5 -10h-125v-88zM1073 825l232 133l131 -227q14 -20 18 -40.5t4 -39.5q0 -37 -16.5 -67.5t-43 -52t-59 -34t-65.5 -12.5h-12z" />
<glyph unicode="&#x2693;" horiz-adv-x="1429" d="M131 432l291 -84l-82 -72q45 -43 86 -68.5t80 -39.5t74.5 -20.5t70.5 -8.5v813h-262v99h262v24q-55 16 -90 65.5t-35 108.5q0 78 54.5 131.5t130.5 53.5q37 0 69.5 -14.5t57 -39t39 -58.5t14.5 -73q0 -59 -32 -103t-83 -65v-30h266v-99h-266v-813h4q68 6 143.5 30 t166.5 107l-82 72l290 84l-43 -311l-77 84q-111 -113 -227.5 -162t-235.5 -59q-119 10 -236 59t-225 162l-78 -84z" />
<glyph unicode="&#x26a0;" horiz-adv-x="1810" d="M100 94q0 37 23 76l678 1200q23 39 49.5 56.5t54.5 17.5q27 0 52.5 -17.5t46.5 -52.5l677 -1204q20 -35 21 -76q0 -41 -25.5 -67.5t-83.5 -26.5h-1382q-59 0 -85 27.5t-26 66.5zM231 133q0 -10 12.5 -14t47.5 -4h1222q35 0 47.5 4t12.5 14t-8.5 23.5t-18.5 29.5 l-608 1078q-18 35 -39 34q-10 0 -20.5 -10t-18.5 -24l-604 -1080q-10 -16 -17.5 -28.5t-7.5 -22.5zM803 242q0 8 4 22.5t15.5 28.5t28.5 23.5t44 9.5q35 0 60.5 -23.5t25.5 -64.5q0 -39 -25.5 -61.5t-60.5 -22.5q-12 0 -28.5 4t-30 13t-23.5 26.5t-10 44.5zM805 981 q0 33 24.5 63.5t65.5 30.5q49 0 73.5 -27.5t24.5 -66.5l-59 -575q-4 -16 -17.5 -26.5t-23.5 -10.5q-12 0 -25.5 10t-15.5 27z" />
<glyph unicode="&#x2706;" horiz-adv-x="884" d="M215 713q0 231 42 374.5t98.5 223.5t111.5 109.5t82 31.5v-426q-53 0 -73.5 -78t-20.5 -256q0 -25 4 -74t14 -99t28.5 -89t47.5 -43v-412q-18 0 -49 12.5t-68 43t-76 84t-70.5 135.5t-51 195.5t-19.5 267.5zM575 -25v412h123q16 0 28.5 -9t12.5 -32v-328q0 -16 -9 -29.5 t-32 -13.5h-123zM575 1026v426h123q16 0 28.5 -12.5t12.5 -28.5v-334q0 -51 -41 -51h-123z" />
<glyph unicode="&#x2708;" horiz-adv-x="1822" d="M96 858h154l131 -172h393l-229 735h194l424 -735h506q51 0 78 -29.5t27 -64.5q0 -33 -26 -60.5t-77 -27.5h-512l-426 -719h-196l235 719h-391l-125 -164h-154l78 260z" />
<glyph unicode="&#x2709;" horiz-adv-x="2191" d="M131 0v1374h1927v-1374h-1927zM254 213l469 463l-469 467v-930zM332 1249l753 -760l750 760h-1503zM346 131h1487l-455 459l-293 -295l-280 278zM1458 690l465 -465v934z" />
<glyph unicode="&#x2713;" horiz-adv-x="1564" d="M131 729q47 41 106.5 58.5t100.5 17.5q27 0 63.5 -48t72.5 -125t64.5 -171t39.5 -187q76 133 186 292t236 312.5t259.5 285.5t258.5 214l30 -35q-72 -55 -154.5 -148t-167.5 -210t-169 -249t-160 -260t-138.5 -245.5t-103.5 -205.5q-74 -16 -127 -33t-79 -33 q-14 59 -36 136t-48.5 159t-57.5 162t-61.5 146.5t-60 110.5t-54.5 56z" />
<glyph unicode="&#x2716;" horiz-adv-x="1519" d="M51 352l359 353l-359 352l355 356l354 -356l354 356l354 -356l-356 -352l356 -353l-354 -356l-354 358l-354 -358z" />
<glyph unicode="&#x271a;" horiz-adv-x="1531" d="M104 446v472h437v446h471v-446h446v-472h-436v-446h-473v446h-445z" />
<glyph unicode="&#x272a;" horiz-adv-x="1630" d="M86 709q0 150 57.5 282.5t155.5 231t230.5 156t283.5 57.5q152 0 284 -57.5t230 -156t155.5 -231t57.5 -282.5q0 -152 -57.5 -284t-155.5 -230.5t-230 -154.5t-284 -56t-284 56t-230 154.5t-155.5 230.5t-57.5 284zM207 874l289 -286l-50 -408l349 189l387 -189l-66 418 l281 276l-406 84l-196 363l-187 -367z" />
<glyph unicode="&#x2794;" horiz-adv-x="1544" d="M70 567v285h899l-459 457h397l596 -598l-598 -600l-393 -2l459 458h-901z" />
<glyph unicode="&#xe000;" horiz-adv-x="880" d="M104.5 212q-14.5 71 1.5 157l142 749q29 154 127 237t239 83q80 0 141.5 -30t100.5 -82t51.5 -122.5t-4.5 -154.5l-153 -748q-29 -154 -120 -233.5t-233 -79.5q-78 0 -139 26.5t-100 76.5t-53.5 121zM365 322q-6 -29 11 -45.5t40 -16.5q27 0 45 15.5t22 39.5 q39 199 65.5 335t44 223.5t28 134.5t14.5 68.5t5 24.5t1 5q4 33 -15.5 46t-39.5 13q-33 0 -47.5 -17.5t-18.5 -43.5z" />
<glyph unicode="&#xe001;" horiz-adv-x="759" d="M205 954l59 306l246 165h246l-277 -1425h-272l213 1100z" />
<glyph unicode="&#xe002;" horiz-adv-x="880" d="M29 0l47 246l475 649q41 53 60.5 109.5t19.5 99.5q0 27 -12.5 48.5t-40.5 21.5q-25 0 -58 -33t-47 -133l-264 32q16 104 55 180t93.5 124.5t121 71t137.5 22.5q160 0 231 -74t71 -205q0 -59 -9.5 -108.5t-30 -95.5t-50 -94t-68.5 -103l-352 -490h327l-53 -268h-653z" />
<glyph unicode="&#xe003;" horiz-adv-x="880" d="M59 387l283 33q-16 -55 -15 -88t11 -51.5t25.5 -23.5t27.5 -5q23 0 47.5 17.5t34.5 72.5l33 170q12 59 -15.5 84t-68.5 25h-62l46 233h77q41 0 75 22.5t44 75.5l27 135q6 29 -5.5 56.5t-52.5 27.5q-14 0 -30.5 -5t-31.5 -22.5t-28.5 -50t-19.5 -87.5l-264 32 q29 199 136 299.5t259 100.5q100 0 163.5 -32t99.5 -81t45 -109.5t1 -119.5l-10 -72q-8 -39 -20.5 -80t-32 -79t-49 -69.5t-72.5 -52.5l-2 -10q31 -16 47 -40.5t24.5 -53.5t8.5 -60.5t-7 -62.5l-24 -141q-16 -88 -47 -160t-79 -122t-117.5 -77.5t-164.5 -27.5 q-180 0 -262 99t-35 300z" />
<glyph unicode="&#xe004;" horiz-adv-x="880" d="M18 201l43 227l480 997h270l-457 -962h115l55 278h269l-56 -278h80l-49 -262h-80l-39 -201h-268l39 201h-402z" />
<glyph unicode="&#xe005;" horiz-adv-x="880" d="M87 227.5q-11 73.5 9 159.5l271 33q-16 -55 -17.5 -88t7 -50.5t21.5 -22.5t25 -5q23 0 47.5 16.5t34.5 71.5l60 305q10 57 -47 58q-16 0 -45 -13.5t-58 -60.5h-227l156 794h637l-52 -260h-379l-49 -258l4 -2q29 25 72 37t72 12q137 0 180 -77.5t22 -200.5l-47 -301 q-12 -80 -38.5 -150.5t-73.5 -123t-116 -83t-167 -30.5q-86 0 -149.5 29.5t-102.5 83t-50 127z" />
</font>
</defs>
</svg>
