<?xml version="1.0" standalone="no"?>
<!DOCTYPE svg PUBLIC "-//W3C//DTD SVG 1.1//EN" "http://www.w3.org/Graphics/SVG/1.1/DTD/svg11.dtd" >
<svg xmlns="http://www.w3.org/2000/svg">
<metadata></metadata>
<defs>
<font id="pf_din_text_cond_probold" horiz-adv-x="3723" >
<font-face units-per-em="2048" ascent="1536" descent="-512" />
<missing-glyph horiz-adv-x="507" />
<glyph unicode="fj" horiz-adv-x="1089" d="M37 791v221h102v129q0 98 33 167.5t89 113.5t131 64.5t159 20.5q96 0 197.5 -26.5t183.5 -106.5l-154 -203q-41 41 -96 59.5t-115 18.5q-47 0 -75.5 -14t-44 -34.5t-19.5 -43t-4 -39.5v-106h549v-1102q0 -158 -91 -237t-268 -79h-71v259h43q66 0 83 32.5t17 89.5v816 h-262v-791h-285v791h-102z" />
<glyph unicode="ffj" horiz-adv-x="1638" d="M33 791v221h102v80q0 98 33 167.5t90 113.5t132 64.5t159 20.5q57 0 120.5 -11t123.5 -40q57 53 136 76.5t169 23.5q96 0 198.5 -27.5t180.5 -105.5q-37 -51 -76 -100t-76 -100q-88 74 -211 73q-47 0 -75.5 -14t-44 -34.5t-19.5 -43t-4 -39.5v-104h549v-1102 q0 -88 -23.5 -148.5t-70 -97.5t-113 -53.5t-150.5 -16.5h-73v259h43q66 0 83 33.5t17 90.5v814h-262v-791h-285v791h-264v-791h-287v791h-102zM422 1012h264v164q-29 12 -60.5 17t-60.5 5q-49 0 -76.5 -14.5t-43 -35t-19.5 -43t-4 -38.5v-55z" />
<glyph unicode="&#xfb00;" horiz-adv-x="1167" d="M39 791v223h102v82q0 98 32 168.5t88 116.5t132 69t162 23q49 0 104.5 -8.5t108.5 -28.5q41 41 96.5 61.5t120.5 20.5h170v-250h-104q-35 0 -55.5 -21.5t-20.5 -58.5v-174h172v-223h-172v-791h-285v791h-262v-791h-287v791h-102zM428 1014h262v180q-33 10 -60.5 14 t-58.5 4q-49 0 -77.5 -14t-43 -34.5t-18.5 -43t-4 -39.5v-67z" />
<glyph unicode="&#xfb01;" horiz-adv-x="1089" d="M37 791v221h102v129q0 98 33 167.5t89 113.5t131 64.5t159 20.5q96 0 200.5 -26.5t180.5 -106.5l-154 -203q-41 41 -96 59.5t-115 18.5q-47 0 -75.5 -14t-44 -34.5t-19.5 -43t-4 -39.5v-106h549v-1012h-287v791h-262v-791h-285v791h-102z" />
<glyph unicode="&#xfb02;" horiz-adv-x="1128" d="M37 791v221h102v123q0 98 30 167.5t83 113.5t127 64.5t160 20.5q20 0 62 -1t99.5 -8t129 -21.5t151.5 -40.5v-1084q0 -59 22.5 -77.5t57.5 -18.5h29v-254h-78q-72 0 -130.5 14.5t-100.5 50t-64.5 94t-22.5 146.5v924q-43 12 -70.5 15t-56.5 3q-47 0 -75.5 -14.5 t-44 -34.5t-19.5 -44t-4 -40v-98h182v-221h-182v-791h-285v791h-102z" />
<glyph unicode="&#xfb03;" horiz-adv-x="1628" d="M35 791v221h102v80q0 98 33 167.5t90 113.5t132 64.5t159 20.5q57 0 120.5 -11t123.5 -40q57 53 136 76.5t169 23.5q96 0 198.5 -27.5t180.5 -105.5q-37 -51 -76 -100t-76 -100q-88 74 -211 73q-47 0 -75.5 -14t-44 -34.5t-19.5 -43t-4 -39.5v-104h549v-1012h-287v791 h-262v-791h-285v791h-264v-791h-287v791h-102zM424 1012h264v164q-29 12 -60.5 17t-60.5 5q-49 0 -76.5 -14.5t-43 -35t-19.5 -43t-4 -38.5v-55z" />
<glyph unicode="&#xfb04;" horiz-adv-x="1650" d="M37 791v221h102v80q0 98 32 167.5t87 113.5t130 64.5t159 20.5q57 0 122.5 -10t127.5 -39q57 51 136 74.5t169 23.5q23 0 65.5 -2t99 -10t124 -21.5t139.5 -37.5v-1090q0 -59 22.5 -77.5t57.5 -18.5h28v-254h-77q-72 0 -130.5 14.5t-100.5 50t-64.5 94t-22.5 146.5v930 q-43 12 -70.5 15t-52.5 3q-49 0 -77.5 -14t-44 -34.5t-19.5 -43t-4 -39.5v-106h174v-221h-174v-791h-287v791h-264v-791h-285v791h-102zM424 1012h264v104t2 58q-59 27 -123 26q-47 0 -75.5 -14.5t-44 -35t-19.5 -43t-4 -38.5v-57z" />
<glyph unicode="ft" horiz-adv-x="1165" d="M37 791v223h102v178q0 76 23.5 132t63.5 92t94.5 53.5t113.5 17.5h160v-250h-94q-35 0 -55.5 -21.5t-20.5 -58.5v-143h264v274h275v-272h133v-225h-131v-437q0 -51 16 -75.5t72 -24.5h45v-254h-137q-135 0 -205 77t-70 189v525h-262v-791h-285v791h-102z" />
<glyph horiz-adv-x="0" />
<glyph horiz-adv-x="682" />
<glyph unicode=" "  horiz-adv-x="507" />
<glyph unicode="&#x09;" horiz-adv-x="507" />
<glyph unicode="&#xa0;" horiz-adv-x="507" />
<glyph unicode="!" horiz-adv-x="583" d="M150 1425h284l-24 -1022h-234zM152 0v272h282v-272h-282z" />
<glyph unicode="&#x22;" horiz-adv-x="737" d="M96 969v456h219v-456h-219zM412 969v456h223v-456h-223z" />
<glyph unicode="#" horiz-adv-x="1046" d="M27 420v196h174q8 53 16 101.5t19 101.5h-144v199h174q16 102 32.5 202.5t33.5 202.5h221l-66 -405h158l68 405h221l-68 -405h150v-199h-180l-33 -203h149v-196h-182q-16 -106 -32.5 -211t-32.5 -209h-224l68 420h-158l-67 -420h-226l70 420h-141zM422 616h160 q8 53 16 101.5t18 101.5h-159z" />
<glyph unicode="$" horiz-adv-x="1003" d="M29 268l235 152q84 -127 195 -148v322q-100 37 -172 76t-118 88t-68.5 112.5t-22.5 149.5t27.5 158.5t77.5 128t120 89.5t156 42v133h94v-133q133 -10 225 -71.5t152 -156.5l-203 -163q-41 47 -84 71.5t-90 34.5v-276q111 -47 188.5 -91.5t127 -96.5t71 -116.5 t21.5 -150.5q0 -193 -105.5 -304.5t-302.5 -125.5v-185h-94v185q-154 8 -254.5 80.5t-175.5 195.5zM362 1034q0 -37 26 -64.5t71 -49.5v233q-43 -10 -70 -42t-27 -77zM553 274q61 10 86 48.5t25 87.5q0 53 -31 87.5t-80 59.5v-283z" />
<glyph unicode="%" horiz-adv-x="1576" d="M98 801v401q0 55 21.5 98t58.5 74t84 46.5t100 15.5q55 0 103.5 -15.5t84.5 -46.5t57.5 -74t21.5 -98v-401q0 -55 -21.5 -98.5t-58.5 -73t-85 -46t-102 -16.5q-53 0 -101 16.5t-84 46t-57.5 72.5t-21.5 99zM303 -35l758 1495h188l-760 -1495h-186zM305 807 q0 -23 15.5 -38t41.5 -15q25 0 40.5 15t15.5 38v389q0 25 -14.5 40t-43.5 15q-27 0 -41 -15t-14 -40v-389zM948 227v402q0 55 21.5 98t58.5 73.5t84 46t100 15.5q55 0 103.5 -15.5t84.5 -46t57.5 -73.5t21.5 -98v-402q0 -55 -21.5 -98t-58.5 -72.5t-85 -46t-102 -16.5 q-53 0 -101 16.5t-84 46t-57.5 72.5t-21.5 98zM1155 233q0 -23 15.5 -38t41.5 -15q25 0 40.5 15.5t15.5 37.5v390q0 25 -14.5 40t-43.5 15q-27 0 -41 -15.5t-14 -39.5v-390z" />
<glyph unicode="&#x26;" horiz-adv-x="1189" d="M111 373q0 125 53 223t158 184q-55 82 -89 153t-34 157q0 76 24.5 139t70.5 109t112.5 72t150.5 26q104 0 202.5 -39t176.5 -144l-188 -168q-49 59 -93.5 80t-85.5 21q-49 0 -73.5 -30t-24.5 -66q0 -37 16.5 -77t49.5 -91l258 -390q10 33 19 82.5t13 90.5l246 -35 q-8 -96 -37.5 -196.5t-72.5 -174.5q8 -16 37.5 -59t63.5 -90.5t63.5 -90.5t39.5 -59h-317l-64 94q-66 -55 -142.5 -80.5t-156.5 -25.5q-92 0 -162.5 29.5t-118.5 82t-71.5 123t-23.5 150.5zM375 383q0 -59 32.5 -100t98.5 -41q39 0 75.5 15t65.5 38l-184 272 q-41 -41 -64.5 -86t-23.5 -98z" />
<glyph unicode="'" horiz-adv-x="471" d="M129 969v456h219v-456h-219z" />
<glyph unicode="(" horiz-adv-x="686" d="M123 627q0 129 27.5 248.5t74.5 230.5t110.5 211t135.5 190l176 -98q-61 -92 -107 -190.5t-77 -197.5t-46.5 -196.5t-15.5 -187.5q0 -98 16.5 -200.5t48.5 -204t77 -198.5t102 -184l-160 -112q-78 94 -143.5 197.5t-114.5 216t-76.5 231.5t-27.5 244z" />
<glyph unicode=")" horiz-adv-x="686" d="M111 1409l176 98q72 -90 135 -190t111.5 -211t76 -230.5t27.5 -248.5q0 -125 -27.5 -244t-77 -231.5t-116 -216t-142.5 -197.5l-161 112q57 86 103 183.5t78 199t48 204t16 200.5q0 90 -15 187.5t-47 196.5t-78 197.5t-107 190.5z" />
<glyph unicode="*" horiz-adv-x="878" d="M78 1077l61 189l226 -92l-25 247h207l-25 -247l223 92l64 -189l-240 -59l164 -191l-166 -118l-125 213l-131 -213l-164 118l164 191z" />
<glyph unicode="+" horiz-adv-x="1003" d="M39 494v233h342v342h240v-342h342v-233h-342v-344h-240v344h-342z" />
<glyph unicode="," horiz-adv-x="546" d="M113 -311l73 307h-67v328h313v-318l-166 -317h-153z" />
<glyph unicode="-" horiz-adv-x="843" d="M98 418v256h658v-256h-658z" />
<glyph unicode="." horiz-adv-x="538" d="M115 0v324h311v-324h-311z" />
<glyph unicode="/" horiz-adv-x="673" d="M-16 -86l450 1571h228l-453 -1571h-225z" />
<glyph unicode="0" horiz-adv-x="1003" d="M123 367v690q0 90 31.5 160.5t86 118.5t125 74t150.5 26t151.5 -26t125 -74t84 -118.5t30.5 -160.5v-690q0 -90 -31.5 -160t-85 -118t-124 -73.5t-150.5 -25.5t-151.5 25.5t-125 73.5t-85 117.5t-31.5 160.5zM410 369q0 -53 29.5 -80t76.5 -27q45 0 75 26.5t30 80.5v688 q0 53 -30 79.5t-75 26.5q-47 0 -76.5 -26.5t-29.5 -79.5v-688z" />
<glyph unicode="1" horiz-adv-x="1003" d="M258 946v311l229 168h258v-1425h-286v1094z" />
<glyph unicode="2" horiz-adv-x="1003" d="M84 1030q6 98 40 174t88 127t125 78t148 27q190 0 296 -97.5t106 -281.5q0 -88 -23.5 -160t-70.5 -145l-332 -476h416v-276h-785v250l461 651q23 35 31 70t8 73q0 43 -25.5 81t-79.5 38q-41 0 -77.5 -36.5t-42.5 -137.5z" />
<glyph unicode="3" horiz-adv-x="1003" d="M82 375l283 37q0 -45 11 -74t28.5 -46.5t39 -23.5t43.5 -6q47 0 84 35t37 121q0 102 -31.5 151t-117.5 49h-92v234h102q78 0 109.5 43t31.5 117q0 25 -6 51.5t-19.5 48t-35 35.5t-51.5 14q-39 0 -75 -30.5t-44 -126.5l-279 43q8 92 45 164.5t91.5 122.5t124 76t147.5 26 q121 0 198.5 -37t121.5 -95.5t61.5 -132t17.5 -147.5q0 -37 -8 -79t-26.5 -82t-47 -73t-69.5 -51q55 -37 85.5 -74.5t46 -79.5t19.5 -87t4 -95q0 -92 -28.5 -168.5t-83 -131t-133 -84t-177.5 -29.5q-84 0 -154.5 22.5t-124.5 69.5t-87 119.5t-41 173.5z" />
<glyph unicode="4" horiz-adv-x="1003" d="M53 199v233l400 993h303l-385 -958h192v313h285v-313h98v-268h-98v-199h-285v199h-510z" />
<glyph unicode="5" horiz-adv-x="1003" d="M115 420h286q2 -92 33 -123t78 -31q68 0 87 66.5t19 165.5q0 45 -3 86t-14 69.5t-32.5 46t-58.5 17.5q-27 0 -60.5 -18.5t-54.5 -77.5h-252v804h742v-268h-467v-237h10q41 35 91 44t75 9q88 0 148.5 -32t98.5 -92.5t54 -146.5t16 -192q0 -121 -21.5 -217t-68.5 -164 t-122.5 -103.5t-184.5 -35.5q-84 0 -155.5 18.5t-125 67.5t-85 132t-33.5 212z" />
<glyph unicode="6" horiz-adv-x="1003" d="M121 432q0 74 14.5 149.5t36.5 125.5l324 718h319q-66 -145 -125 -292.5t-129 -288.5l6 -6q16 6 39 9t35 3q51 0 100.5 -21.5t87 -69.5t61 -123t23.5 -181q0 -223 -98 -344t-307 -121q-188 0 -287.5 102.5t-99.5 339.5zM410 440q0 -98 23.5 -138t78.5 -40q66 0 87.5 48 t21.5 155q0 86 -25 121t-76 35q-53 0 -81.5 -41t-28.5 -140z" />
<glyph unicode="7" horiz-adv-x="1003" d="M111 989v436h788v-245l-432 -1180h-297l410 1153h-193v-164h-276z" />
<glyph unicode="8" horiz-adv-x="1003" d="M106 422q0 41 6.5 87t23 89t45 80t75.5 59v11q-41 18 -66.5 49.5t-41 68.5t-21.5 78t-6 80q0 90 24.5 166t73.5 130t122 85t169 31q186 0 291.5 -100.5t105.5 -311.5q0 -41 -6 -82t-21.5 -78t-42 -67.5t-67.5 -48.5l2 -11q45 -18 73.5 -54t45 -80t23 -91t6.5 -90 q0 -119 -33 -201t-89.5 -133t-131 -74.5t-156.5 -23.5t-155.5 23.5t-129 74.5t-87.5 133t-32 201zM395 446q0 -100 29 -142t88 -42q66 0 93.5 51.5t27.5 137.5q0 78 -29 120.5t-92 42.5q-59 0 -88 -46t-29 -122zM410 1016q0 -86 25.5 -121t78.5 -35q57 0 82 42t25 118 q0 68 -26 105.5t-81 37.5q-53 0 -78.5 -40t-25.5 -107z" />
<glyph unicode="9" horiz-adv-x="1003" d="M117 973q0 223 94 343t303 120q109 0 183.5 -30t121.5 -86t68.5 -137t21.5 -184q0 -37 -4 -77.5t-11 -78.5t-17.5 -72t-20.5 -54l-321 -717h-320l252 582l-6 6q-16 -6 -34.5 -9.5t-31.5 -3.5q-129 0 -203.5 93.5t-74.5 304.5zM410 950q0 -78 23.5 -111.5t72.5 -33.5 q57 0 83.5 41t31.5 139q0 92 -23 135t-78 43q-66 0 -88 -50t-22 -163z" />
<glyph unicode=":" horiz-adv-x="544" d="M117 0v324h311v-324h-311zM117 541v321h311v-321h-311z" />
<glyph unicode=";" horiz-adv-x="550" d="M115 -311l73 307h-67v328h313v-318l-166 -317h-153zM121 541v321h311v-321h-311z" />
<glyph unicode="&#x3c;" horiz-adv-x="1003" d="M37 510v209l926 424v-271l-615 -260l610 -258v-270z" />
<glyph unicode="=" horiz-adv-x="1003" d="M37 291v227h926v-227h-926zM37 709v227h926v-227h-926z" />
<glyph unicode="&#x3e;" horiz-adv-x="1003" d="M39 872v271l926 -424v-209l-922 -426v270l612 258z" />
<glyph unicode="?" horiz-adv-x="960" d="M61 1022q6 100 42 177t92.5 129t131 80t160.5 28q201 0 304.5 -108t103.5 -286q0 -90 -22.5 -146t-57.5 -108q-27 -39 -56.5 -75.5t-55 -76.5t-43 -85t-17.5 -96v-62h-287v68q0 84 13.5 140t52.5 118q29 47 57.5 90t52 83t38 78t14.5 74q0 16 -5.5 37t-17.5 38.5 t-33.5 29.5t-56.5 12q-51 0 -87 -39t-38 -133q-72 10 -142.5 17.5t-142.5 15.5zM358 0v272h283v-272h-283z" />
<glyph unicode="@" horiz-adv-x="1773" d="M127 684q0 172 56.5 318.5t159.5 255t247.5 170t322.5 61.5q174 0 310.5 -53.5t229.5 -146.5t141 -222t48 -281q0 -119 -27.5 -216t-78.5 -165.5t-127 -106.5t-170 -38q-23 0 -53.5 6t-62 20.5t-60.5 37t-43 55.5l-8 2q-33 -51 -92.5 -83t-124.5 -32q-123 0 -189.5 68.5 t-66.5 187.5q0 53 17 100.5t53 83t90.5 56t127.5 20.5h136v43q0 29 -19.5 56.5t-87.5 27.5q-43 0 -72.5 -15t-58.5 -56l-164 106q49 92 132 133t186 41q66 0 123 -13t99 -45t66.5 -84t24.5 -128v-4l-2 -312q0 -31 21.5 -56t56.5 -25q84 0 129 82.5t45 250.5q0 117 -37 214.5 t-105.5 166t-167 106.5t-219.5 38q-141 0 -249.5 -51.5t-184.5 -137.5t-114.5 -199.5t-38.5 -238.5q0 -145 43 -260t121.5 -196t187 -124t240.5 -43q121 0 215 25t196 78l74 -176q-119 -51 -231.5 -80t-243.5 -29q-172 0 -319.5 50t-254 151.5t-167 253t-60.5 352.5z M770 539q0 -25 18.5 -48.5t69.5 -23.5q43 0 74 24.5t31 73.5v53h-105q-47 0 -67.5 -21.5t-20.5 -57.5z" />
<glyph unicode="A" horiz-adv-x="1136" d="M6 0l412 1425h295l411 -1425h-319l-70 291h-338q-18 -72 -37.5 -145.5t-40.5 -145.5h-313zM463 555h205l-39 203l-58 284h-10l-57 -282z" />
<glyph unicode="B" horiz-adv-x="1110" d="M125 0v1425h461q209 0 317.5 -106.5t108.5 -294.5q0 -80 -39 -159t-129 -115v-11q49 -16 84 -49t57.5 -75t32.5 -89t10 -92q0 -104 -30.5 -185t-86 -136.5t-133.5 -84t-172 -28.5h-481zM422 281h164q88 0 120.5 49t32.5 121t-35.5 114.5t-115.5 42.5h-166v-327zM422 866 h147q82 0 117 41t35 107q0 72 -35 106.5t-119 34.5h-145v-289z" />
<glyph unicode="C" horiz-adv-x="1052" d="M92 471v508q0 80 24.5 161t79 146.5t141.5 107.5t212 42q98 0 176 -30t133 -79t90 -113.5t49 -134.5l-280 -84q-4 20 -13.5 48t-30 50.5t-51 39t-73.5 16.5q-45 0 -76 -15.5t-49 -39t-26.5 -51t-8.5 -52.5v-528q0 -82 36 -135.5t124 -53.5q61 0 108.5 40t55.5 110 l282 -82q-31 -166 -151.5 -260t-294.5 -94q-123 0 -210 39t-141.5 105.5t-80 154.5t-25.5 184z" />
<glyph unicode="D" horiz-adv-x="1130" d="M125 0v1425h471q143 0 244.5 -53t148.5 -176q29 -72 34 -177.5t5 -234.5q0 -186 -2 -316t-37 -222q-27 -72 -68.5 -119t-97 -74.5t-120 -40t-134.5 -12.5h-444zM420 274h125q113 0 150.5 57.5t37.5 157.5v345q0 61 -6 118.5t-25.5 101.5t-57.5 69.5t-101 25.5h-123v-875z " />
<glyph unicode="E" horiz-adv-x="1003" d="M125 0v1425h829v-274h-532v-295h459v-272h-459v-303h532v-281h-829z" />
<glyph unicode="F" horiz-adv-x="983" d="M125 0v1425h829v-274h-532v-301h459v-270h-459v-580h-297z" />
<glyph unicode="G" horiz-adv-x="1103" d="M102 471v508q0 80 25 161t79 146.5t141 107.5t212 42q98 0 176 -30t133.5 -79t90 -113.5t49.5 -134.5l-281 -84q-4 20 -13 48t-29.5 50.5t-51.5 39t-74 16.5q-45 0 -75.5 -15.5t-49 -39t-27 -51t-8.5 -52.5v-528q0 -80 36 -135.5t122 -55.5q94 0 132 46.5t38 111.5v111 h-192v252h487v-310q0 -111 -28.5 -202t-87 -156.5t-145.5 -101t-202 -35.5q-123 0 -210 39t-141 105.5t-80 154.5t-26 184z" />
<glyph unicode="H" horiz-adv-x="1161" d="M123 0v1425h297v-569h323v569h293v-1425h-293v586h-323v-586h-297z" />
<glyph unicode="I" horiz-adv-x="548" d="M129 0v1425h297v-1425h-297z" />
<glyph unicode="J" horiz-adv-x="892" d="M-16 170l194 199q18 -29 41 -48.5t46.5 -32t46 -17.5t38.5 -5q63 0 97 42t34 106v1011h295v-1022q0 -111 -32.5 -188.5t-89 -127.5t-133.5 -73.5t-163 -23.5q-111 0 -206 41t-168 139z" />
<glyph unicode="K" horiz-adv-x="1130" d="M123 0v1425h297v-528h10q18 27 36.5 58.5t53.5 88t93.5 146.5t156.5 235h352l-397 -583q106 -211 212.5 -421t215.5 -421h-336q-72 141 -138.5 282.5t-137.5 284.5l-121 -186v-381h-297z" />
<glyph unicode="L" horiz-adv-x="987" d="M125 0v1425h297v-1144h532v-281h-829z" />
<glyph unicode="M" horiz-adv-x="1396" d="M119 0v1425h272l166 -397l141 -356h11l137 358l164 395h278v-1425h-295v672l-8 2l-98 -256l-76 -185h-213l-80 197l-96 246l-8 -2v-674h-295z" />
<glyph unicode="N" horiz-adv-x="1220" d="M121 0v1425h262l233 -426l187 -344l6 2v768h295v-1425h-260l-264 475l-156 301l-6 -2v-774h-297z" />
<glyph unicode="O" horiz-adv-x="1095" d="M90 471v508q0 80 24.5 161t80 146.5t142.5 107.5t212 42q117 0 203 -40t141 -104.5t83 -146.5t28 -166v-530q0 -106 -34 -191.5t-94.5 -146t-143.5 -92t-183 -31.5q-123 0 -210 39t-142.5 105.5t-81 154.5t-25.5 184zM385 463q0 -82 38 -135.5t126 -53.5q63 0 109.5 41 t46.5 113v563q0 20 -7.5 47t-26 51.5t-48 42t-74.5 17.5t-76 -15.5t-50.5 -39t-28.5 -51t-9 -52.5v-528z" />
<glyph unicode="P" horiz-adv-x="1062" d="M125 0v1425h453q100 0 185 -26.5t145.5 -81.5t94 -140t33.5 -202q0 -102 -30.5 -186t-88 -143.5t-139.5 -92.5t-184 -33h-172v-520h-297zM422 797h158q66 0 115.5 41t49.5 141q0 92 -45 132t-122 40h-156v-354z" />
<glyph unicode="Q" horiz-adv-x="1110" d="M100 471v508q0 80 25 161t80 146.5t142 107.5t212 42q117 0 203 -40t141 -104.5t83 -146.5t28 -166v-530q0 -123 -43 -218l143 -118l-137 -158l-141 115q-113 -82 -277 -82q-123 0 -210 39t-142 105.5t-81 154.5t-26 184zM395 463q0 -82 38 -135.5t126 -53.5q16 0 25 2 l-49 119l63 74l113 -20l4 -5v547q0 20 -7.5 47t-25.5 51.5t-48 42t-75 17.5t-75.5 -15.5t-50 -39t-29 -51t-9.5 -52.5v-528z" />
<glyph unicode="R" horiz-adv-x="1124" d="M125 0v1425h471q90 0 171 -24.5t141.5 -75.5t95 -130t34.5 -189q0 -137 -53 -235.5t-156 -154.5l230 -616h-322l-190 563h-125v-563h-297zM422 834h160q72 0 122 38t50 132q0 82 -46 116.5t-118 34.5h-168v-321z" />
<glyph unicode="S" horiz-adv-x="1083" d="M63 231l234 189q55 -78 115.5 -115t138.5 -37q94 0 130 41t36 101q0 41 -19.5 70.5t-53.5 52t-79 39t-98 30.5q-98 31 -168 70t-114 88t-64.5 112.5t-20.5 143.5q0 92 33 169t92.5 133t142.5 87t183 31q162 0 265.5 -50.5t174.5 -148.5l-213 -201q-102 121 -227 121 q-66 0 -108 -35t-42 -92q0 -31 20.5 -55.5t55.5 -45t82 -39t100 -34.5q106 -33 178 -75t115 -96t60.5 -119.5t17.5 -143.5q0 -205 -126 -318.5t-357 -113.5q-90 0 -163 18.5t-131 50t-105.5 75.5t-84.5 97z" />
<glyph unicode="T" horiz-adv-x="937" d="M12 1155v270h906v-270h-306v-1155h-295v1155h-305z" />
<glyph unicode="U" horiz-adv-x="1128" d="M109 471v954h294v-962q0 -82 38 -135.5t126 -53.5q63 0 109.5 44t46.5 116v991h299v-976q0 -106 -34 -191.5t-94 -146t-143 -92t-184 -31.5q-123 0 -210 39t-142 105.5t-80.5 154.5t-25.5 184z" />
<glyph unicode="V" horiz-adv-x="1079" d="M4 1425h320l133 -591l80 -394h10l76 387l133 598h317l-387 -1425h-295z" />
<glyph unicode="W" horiz-adv-x="1531" d="M8 1423h324q23 -131 45 -259t43 -257q12 -72 22.5 -142.5t22.5 -141.5h8q23 98 43.5 197.5t42.5 197.5l92 405h232q25 -102 48 -203.5t46 -203.5q23 -100 44 -200.5t44 -201.5h10q10 72 20.5 141.5t20.5 141.5l84 526h324l-301 -1425h-267q-27 111 -55.5 222.5 t-54.5 221.5l-74 306h-8q-18 -78 -36.5 -155t-39.5 -155q-25 -111 -55.5 -221.5t-57.5 -218.5h-266z" />
<glyph unicode="X" horiz-adv-x="1105" d="M2 0l389 735l-364 690h342q45 -98 89 -196.5t89 -194.5l184 391h342l-368 -690l393 -735h-342l-205 434l-209 -434h-340z" />
<glyph unicode="Y" horiz-adv-x="1044" d="M10 1430h330l94 -291l84 -273h12l88 275l105 284h315l-368 -854v-571h-291v571z" />
<glyph unicode="Z" horiz-adv-x="931" d="M51 0v258l484 897h-461v270h807v-249l-482 -895h482v-281h-830z" />
<glyph unicode="[" horiz-adv-x="587" d="M131 -201v1631h422v-209h-158v-1215h158v-207h-422z" />
<glyph unicode="\" horiz-adv-x="673" d="M-6 1485h227l451 -1571h-226z" />
<glyph unicode="]" horiz-adv-x="587" d="M35 4h155v1217h-155v209h420v-1633h-420v207z" />
<glyph unicode="^" horiz-adv-x="1003" d="M27 555l368 868h209q92 -217 184.5 -434t186.5 -434h-268l-205 539l-207 -539h-268z" />
<glyph unicode="_" horiz-adv-x="1024" d="M0 -141h1024v-187h-1024v187z" />
<glyph unicode="`" horiz-adv-x="923" d="M246 1464l248 103l198 -389l-157 -84z" />
<glyph unicode="a" horiz-adv-x="946" d="M66 303q0 63 21.5 119.5t64.5 99.5t107.5 67.5t152.5 24.5h163v60q0 33 -24.5 65.5t-93.5 32.5q-53 0 -94 -17.5t-70 -66.5l-207 131q57 113 154.5 159t224.5 46q86 0 159.5 -16.5t126 -54.5t82 -100t29.5 -157v-696h-287v82l-8 2q-39 -51 -98 -72.5t-107 -21.5 q-150 0 -223 80t-73 233zM344 324q0 -29 23.5 -56.5t85.5 -27.5q49 0 85.5 28.5t36.5 83.5v62h-124q-57 0 -82 -24.5t-25 -65.5z" />
<glyph unicode="b" horiz-adv-x="956" d="M94 0v1487h287v-549l8 -2q14 20 37 36.5t48.5 29t51 18.5t45.5 6q111 0 174.5 -47t94 -122t39 -166t8.5 -177q0 -82 -8.5 -175t-41 -171t-97 -130t-177.5 -52q-45 0 -93 24.5t-83 69.5l-6 -4v-76h-287zM381 502q0 -119 18.5 -181.5t85.5 -62.5q35 0 55.5 20.5t32 55.5 t15.5 84t4 104q0 41 -3 83t-14.5 76t-33 55.5t-58.5 21.5t-57 -24.5t-30.5 -62.5t-12.5 -83t-2 -86z" />
<glyph unicode="c" horiz-adv-x="864" d="M59 502q0 111 19.5 207t65.5 166.5t122 110.5t189 40q129 0 225 -59.5t137 -175.5l-242 -117q-23 49 -47 69.5t-59 20.5q-78 0 -99.5 -71.5t-21.5 -190.5q0 -129 23.5 -189.5t97.5 -60.5q37 0 61.5 21.5t47.5 66.5l241 -119q-41 -113 -136 -172t-224 -59q-115 0 -192 38 t-123 106.5t-65.5 162.5t-19.5 205z" />
<glyph unicode="d" horiz-adv-x="956" d="M76 514q0 92 11 183t46 164t98.5 119t167.5 46q39 0 92.5 -23.5t81.5 -62.5l9 2v545h286v-1487h-286v72l-7 4q-35 -45 -85 -65.5t-95 -20.5q-115 0 -179 47t-95 121.5t-38 169t-7 186.5zM371 522q0 -55 4 -104t15 -84t31.5 -55.5t55.5 -20.5q68 0 86.5 62.5t18.5 181.5 q0 41 -2 86t-13.5 83t-32 62.5t-57.5 24.5t-58.5 -21.5t-31.5 -55.5t-13 -76t-3 -83z" />
<glyph unicode="e" horiz-adv-x="950" d="M74 506q0 119 20.5 215t67.5 163.5t125 104.5t194 37q123 0 201 -41t122 -109.5t60.5 -160.5t16.5 -197v-80h-516v-16q0 -35 4 -65.5t16 -54t33.5 -37t56.5 -13.5q43 0 78 19.5t70 70.5l239 -129q-53 -115 -157.5 -169t-227.5 -54q-113 0 -189.5 34.5t-124.5 101.5 t-68.5 162t-20.5 218zM365 618h215q0 27 -4.5 53.5t-15.5 47t-32.5 33t-56.5 12.5q-29 0 -49.5 -13.5t-32.5 -34t-17 -47t-7 -51.5z" />
<glyph unicode="f" horiz-adv-x="604" d="M35 791v223h102v178q0 76 23.5 132t63.5 92t94.5 53.5t113.5 17.5h160v-250h-94q-35 0 -55.5 -21.5t-20.5 -58.5v-143h172v-223h-172v-791h-285v791h-102z" />
<glyph unicode="g" horiz-adv-x="956" d="M66 506q0 82 8 173t39.5 168t95 127t174.5 50q45 0 96 -22.5t86 -67.5l6 4v76h287v-1028q0 -92 -25.5 -167t-76.5 -128t-128 -83t-177 -30q-227 0 -363 160l201 186q70 -86 162 -86q49 0 84.5 29t35.5 80v147l-8 2q-14 -20 -36.5 -36.5t-48 -29t-51.5 -19.5t-46 -7 q-111 0 -174.5 46t-95 118t-38.5 162t-7 176zM356 498q0 -41 3 -81t13.5 -72t32 -51.5t58.5 -19.5t58.5 22.5t32.5 57.5t14 79t3 85q0 119 -20.5 178.5t-87.5 59.5q-35 0 -55.5 -19.5t-31.5 -53.5t-15.5 -82t-4.5 -103z" />
<glyph unicode="h" horiz-adv-x="987" d="M109 0v1487h286v-549l11 -2q35 35 85 61.5t103 26.5q141 0 218 -87t77 -228v-709h-287v641q0 59 -29.5 87t-70.5 28q-45 0 -76 -30t-31 -87v-639h-286z" />
<glyph unicode="i" horiz-adv-x="518" d="M117 0v1014h286v-1014h-286zM117 1165v260h286v-260h-286z" />
<glyph unicode="j" horiz-adv-x="524" d="M-23 -147h52q57 0 74.5 40.5t17.5 92.5v1030h287v-1106q0 -156 -97.5 -236t-261.5 -80h-72v259zM121 1165v260h287v-260h-287z" />
<glyph unicode="k" horiz-adv-x="989" d="M109 0v1483h284v-764h6l217 293h363l-330 -402l348 -610h-344l-198 377l-62 -84v-293h-284z" />
<glyph unicode="l" horiz-adv-x="532" d="M98 283v1204h287v-1141q0 -59 21.5 -77.5t62.5 -18.5h33v-254h-105q-143 0 -221 64.5t-78 222.5z" />
<glyph unicode="m" horiz-adv-x="1490" d="M111 0v1014h286v-90l11 -2q35 43 91 72.5t107 29.5q88 0 146.5 -34t95.5 -97q47 57 109.5 94t132.5 37q86 0 143 -29.5t91 -81t47 -117t13 -137.5v-659h-286v643q0 59 -30 87t-71 28q-45 0 -75.5 -29t-30.5 -84v-645h-287v643q0 59 -29.5 87t-70.5 28q-45 0 -76 -30 t-31 -87v-641h-286z" />
<glyph unicode="n" horiz-adv-x="987" d="M104 0v1014h287v-82l8 -2q35 41 87.5 67.5t105.5 26.5q154 0 223.5 -84t69.5 -227v-713h-287v641q0 59 -29.5 87t-70.5 28q-45 0 -76 -30t-31 -87v-639h-287z" />
<glyph unicode="o" horiz-adv-x="940" d="M74 504q2 86 10 173t31 140q43 98 132 154.5t232 56.5q141 0 224 -55t118 -139q29 -66 37 -149t8 -181q0 -109 -11 -188.5t-40 -139.5q-53 -109 -146.5 -149.5t-209.5 -40.5q-104 0 -177 32.5t-120 92.5q-49 66 -68.5 162t-19.5 231zM358 500q0 -51 3.5 -98.5t17.5 -82.5 q25 -69 90 -69h2q14 0 29.5 3t30 14.5t25.5 33t17 55.5q4 29 7.5 71t3.5 97q0 106 -21 166q-27 74 -88 74q-68 0 -96 -72q-12 -35 -16.5 -81t-4.5 -111z" />
<glyph unicode="p" horiz-adv-x="956" d="M98 -412v1426h287v-72l6 -4q35 45 85 65.5t95 20.5q113 0 176.5 -51t95 -129t40 -170t8.5 -174q0 -92 -10.5 -183.5t-44 -164t-97 -118.5t-170.5 -46q-20 0 -44.5 6t-49 17.5t-46 26.5t-36.5 36l-8 -2v-484h-287zM385 510q0 -41 3 -86t13.5 -82t32 -61.5t58.5 -24.5 t58 23.5t32.5 59.5t14.5 80t3 85q0 55 -3 102t-14.5 80t-32 51.5t-54.5 18.5q-68 0 -89.5 -63.5t-21.5 -182.5z" />
<glyph unicode="q" horiz-adv-x="956" d="M78 498q0 88 10 180t43 169t96.5 126t171.5 49q45 0 95.5 -22.5t85.5 -67.5l6 4v76h286v-1424h-286v486l-8 2q-14 -20 -37 -36.5t-48.5 -29t-51 -18.5t-46.5 -6q-104 0 -166.5 43t-96.5 114.5t-44 163.5t-10 191zM371 489q0 -41 3 -82.5t14 -75.5t32.5 -55.5t56.5 -21.5 q37 0 58.5 24.5t33 62.5t14.5 83t3 86q0 119 -20.5 180.5t-88.5 61.5q-35 0 -55.5 -19.5t-31.5 -55.5t-15 -84t-4 -104z" />
<glyph unicode="r" horiz-adv-x="745" d="M113 -2v1016h284v-113l6 -2q39 68 96.5 96.5t125.5 28.5q33 0 62.5 -6t55.5 -25l-51 -266q-35 16 -65.5 22.5t-59.5 6.5q-76 0 -121 -40t-45 -132v-586h-288z" />
<glyph unicode="s" horiz-adv-x="905" d="M51 172l199 168q39 -57 87 -79.5t107 -22.5q57 0 88 24.5t31 52.5q0 35 -22.5 52.5t-75.5 27.5q-68 12 -137.5 31.5t-125 54.5t-91 89.5t-35.5 138.5q0 74 30.5 132t83 99t121 62.5t146.5 21.5q137 0 226 -41t155 -113l-172 -180q-39 45 -85 65.5t-112 20.5 q-59 0 -81.5 -20.5t-22.5 -40.5q0 -18 12 -30.5t32.5 -21t44 -14.5t48.5 -10q70 -14 134 -34.5t113.5 -57.5t78 -93.5t28.5 -140.5q0 -145 -107.5 -234t-295.5 -89q-139 0 -234.5 42t-167.5 140z" />
<glyph unicode="t" horiz-adv-x="624" d="M49 791v225h103v272h274v-272h135v-225h-133v-437q0 -51 17.5 -75.5t72.5 -24.5h43v-254h-135q-135 0 -205.5 77t-70.5 189v525h-101z" />
<glyph unicode="u" horiz-adv-x="987" d="M106 301v713h287v-641q0 -59 30 -87t71 -28q45 0 75.5 29.5t30.5 87.5v639h287v-1014h-287v82l-8 2q-35 -41 -87 -67.5t-106 -26.5q-154 0 -223.5 84t-69.5 227z" />
<glyph unicode="v" horiz-adv-x="927" d="M8 1012h314q25 -98 46 -193.5t44 -193.5l49 -234h10q10 57 22.5 113.5t24.5 113.5q20 98 44 196.5t46 197.5h310l-318 -1012h-274q-78 256 -158 506t-160 506z" />
<glyph unicode="w" horiz-adv-x="1368" d="M14 1014h305l54 -301l53 -289h10l62 289l61 301h250l63 -303l66 -287h10l53 291l52 299h299l-269 -1014h-278l-55 227l-62 277h-8l-62 -275l-57 -229h-276z" />
<glyph unicode="x" horiz-adv-x="960" d="M6 0l313 516l-301 498h332l127 -275h2l127 275h328l-305 -498l319 -516h-332q-35 72 -69.5 145.5t-69.5 145.5l-141 -291h-330z" />
<glyph unicode="y" horiz-adv-x="905" d="M2 1014h307l70 -328l63 -280h11l65 278l82 330h299l-379 -1192q-39 -123 -118.5 -177.5t-194.5 -54.5h-101v246h60q84 0 115 105l32 112z" />
<glyph unicode="z" horiz-adv-x="833" d="M57 0v246l377 518h-350v250h690v-232l-379 -520h379v-262h-717z" />
<glyph unicode="{" horiz-adv-x="587" d="M23 522v191q68 4 103.5 46t35.5 134v281q0 117 67.5 184t165.5 67h170v-202h-65q-33 0 -54.5 -29t-21.5 -76v-258q0 -90 -40 -150t-99 -89q63 -35 101 -92.5t38 -155.5v-242q0 -25 2 -48.5t9 -41.5t22.5 -29.5t42.5 -11.5h65v-201h-170q-98 0 -165.5 67.5t-67.5 184.5 v291q0 92 -37 135t-102 45z" />
<glyph unicode="|" horiz-adv-x="530" d="M145 -399v1894h238v-1894h-238z" />
<glyph unicode="}" horiz-adv-x="587" d="M25 0h65q27 0 42 11.5t22.5 29.5t9.5 41.5t2 48.5v242q0 98 38 155.5t101 92.5q-59 29 -99 89t-40 150v258q0 47 -21.5 76t-54.5 29h-65v202h170q98 0 165.5 -67.5t67.5 -183.5v-281q0 -92 36 -134t103 -46v-191q-66 -2 -102.5 -45t-36.5 -135v-291q0 -117 -67.5 -184.5 t-165.5 -67.5h-170v201z" />
<glyph unicode="~" horiz-adv-x="1003" d="M51 512q57 121 126 184.5t173 63.5q43 0 85 -17.5t79 -38t69.5 -37t61.5 -16.5q72 0 156 111l153 -92q-59 -131 -127.5 -188.5t-146.5 -57.5q-45 0 -88 16.5t-82 37t-75 36.5t-66 16q-39 0 -79 -22.5t-89 -87.5z" />
<glyph unicode="&#xa1;" horiz-adv-x="583" d="M154 -412l20 1022h242l20 -1022h-282zM154 741v273h280v-273h-280z" />
<glyph unicode="&#xa2;" horiz-adv-x="1003" d="M121 502q0 106 17.5 199.5t59.5 163t111.5 111.5t173.5 48v168h70v-168q117 -8 203 -67.5t123 -165.5l-242 -117q-20 41 -38.5 61.5t-45.5 26.5v-508q47 10 86 86l242 -119q-39 -106 -125 -164.5t-203 -64.5v-193h-70v193q-104 6 -173.5 46t-111.5 107.5t-59.5 158.5 t-17.5 198zM410 502q0 -104 14 -163.5t59 -78.5v494q-47 -23 -60 -88.5t-13 -163.5z" />
<glyph unicode="&#xa3;" horiz-adv-x="1003" d="M61 549v211h117q-23 82 -47.5 151.5t-24.5 149.5q0 78 27 146.5t79 118.5t129 80t175 30q158 0 260.5 -69t159.5 -232l-250 -111q-33 76 -70 107.5t-90 31.5q-37 0 -77.5 -30.5t-40.5 -88.5q0 -31 9 -62.5t22.5 -65t26.5 -72.5t23 -84h246v-211h-243q-12 -170 -74 -293 h493v-256h-843v225q55 74 85.5 147.5t39.5 176.5h-132z" />
<glyph unicode="&#xa4;" horiz-adv-x="1095" d="M51 362q33 35 66 67t67 67q-47 88 -47 190q0 47 13.5 93t35.5 91l-133 134q39 39 78 76.5t78 78.5l133 -133q92 51 186 51q104 0 191 -47l133 133l154 -155l-134 -131q23 -43 37.5 -86t14.5 -89q0 -55 -11.5 -104t-40.5 -102q31 -29 68 -65t66 -64l-156 -158l-131 133 q-47 -25 -94 -38t-101 -13q-47 0 -96 14t-92 37l-131 -133zM336 684q0 -37 13 -69.5t37 -58.5t54.5 -41t67.5 -15q90 0 150.5 50t60.5 136q0 84 -56.5 137.5t-134.5 53.5q-78 -4 -135 -55.5t-57 -137.5z" />
<glyph unicode="&#xa5;" horiz-adv-x="1003" d="M-2 1425h317q29 -76 57.5 -154.5t51.5 -156.5l74 -248h12q18 59 33.5 126t38.5 126l106 307h318l-289 -690h168v-153h-228l-10 -21v-63h238v-154h-238v-344h-291v344h-231v154h231v63l-10 21h-221v153h160z" />
<glyph unicode="&#xa6;" horiz-adv-x="530" d="M145 -408v869h238v-869h-238zM145 625v862h238v-862h-238z" />
<glyph unicode="&#xa7;" horiz-adv-x="956" d="M55 14l160 183q66 -59 128.5 -88t111.5 -29q72 0 106.5 27.5t34.5 70.5q0 25 -12.5 45.5t-40 42t-74.5 44t-115 50.5q-66 27 -116 56.5t-84.5 67.5t-52 86t-17.5 116q0 66 38 123t93 84q-94 88 -94 207q0 76 28.5 137t79 105t119 68t148.5 24q111 0 203 -29t188 -105 q-37 -47 -74 -95t-76 -95q-74 55 -134 70.5t-114 15.5q-57 0 -82.5 -20.5t-25.5 -53.5q0 -31 25.5 -56.5t62.5 -48t79 -42t75 -35.5q51 -25 100 -52.5t87 -65.5t60.5 -89t22.5 -123t-34 -127t-85 -84q45 -45 66.5 -100t21.5 -109q0 -80 -30.5 -143t-86 -108t-130 -69 t-162.5 -24q-106 0 -211 45.5t-187 122.5zM338 694q0 -49 82 -90q41 -20 86 -37.5t92 -38.5q37 23 37 72q0 37 -36 67.5t-134 67.5q-35 10 -78 31q-49 -27 -49 -72z" />
<glyph unicode="&#xa8;" horiz-adv-x="882" d="M106 1143v266h273v-266h-273zM508 1143v266h274v-266h-274z" />
<glyph unicode="&#xa9;" horiz-adv-x="1560" d="M98 698q0 158 48.5 291t136.5 230.5t213 152.5t278 55q152 0 277 -54t214 -151.5t137 -230.5t48 -293q0 -156 -48 -287.5t-137 -229t-214 -152t-277 -54.5q-154 0 -278.5 53.5t-212.5 149.5t-136.5 229.5t-48.5 290.5zM274 698q0 -117 36 -220t101.5 -179t158 -120 t204.5 -44q115 0 208 44t157.5 120t99.5 179.5t35 219.5q0 123 -36 226.5t-100.5 180.5t-157.5 120t-206 43q-117 0 -209 -44t-156.5 -121t-99.5 -181.5t-35 -223.5zM483 549v260q0 66 17.5 125t52.5 103t90 70t131 26q117 0 193.5 -63.5t95.5 -162.5l-176 -53 q-8 43 -36 71.5t-75 28.5q-35 0 -56.5 -12t-32.5 -32.5t-15 -45t-4 -51.5v-258q0 -51 20.5 -95t85.5 -44q45 0 74 26.5t35 75.5q45 -14 89 -27.5t89 -25.5q-20 -106 -94 -166.5t-193 -60.5q-86 0 -142.5 26.5t-89 70.5t-46 99t-13.5 115z" />
<glyph unicode="&#xaa;" horiz-adv-x="653" d="M39 776q0 86 59.5 145.5t186.5 59.5h100v33q0 16 -16.5 33.5t-51.5 17.5q-29 0 -57.5 -10.5t-48.5 -40.5l-154 94q45 78 114 110.5t157 32.5q125 0 198.5 -50t73.5 -177v-453h-215v58q-29 -35 -69 -50.5t-70 -15.5q-109 0 -158 55.5t-49 157.5zM244 791q0 -16 16 -32 t51 -16q31 0 52.5 15.5t21.5 50.5v35h-76q-33 0 -49 -15.5t-16 -37.5z" />
<glyph unicode="&#xab;" horiz-adv-x="1157" d="M94 481l268 424h277l-264 -424l264 -424h-277zM537 481l268 424h276l-264 -424l264 -424h-276z" />
<glyph unicode="&#xac;" horiz-adv-x="1003" d="M39 494v233h922l2 -577h-240v344h-684z" />
<glyph unicode="&#xad;" horiz-adv-x="843" d="M98 418v256h658v-256h-658z" />
<glyph unicode="&#xae;" horiz-adv-x="1036" d="M88 977q0 100 32 184t89 145.5t137 96.5t178 35t178 -35t136.5 -96.5t88 -145.5t31.5 -184q0 -98 -32.5 -183t-90 -146.5t-137.5 -96.5t-174 -35q-100 0 -181 35t-137 96.5t-87 146.5t-31 183zM205 979q0 -76 22.5 -139.5t64.5 -110.5t101.5 -73.5t130.5 -26.5 q74 0 131.5 26.5t97.5 74.5t61.5 111.5t21.5 137.5t-21.5 138.5t-62.5 111.5t-98.5 74.5t-129.5 27.5q-74 0 -133 -27.5t-100 -74.5t-63.5 -111.5t-22.5 -138.5zM362 717v532h179q72 0 115.5 -42t43.5 -122q0 -43 -16 -80.5t-57 -64.5q6 -14 19 -46t27.5 -66.5t28 -65.5 t19.5 -45h-127l-78 203h-39v-203h-115zM477 1024h58q57 0 57 61q0 57 -57 58h-58v-119z" />
<glyph unicode="&#xaf;" horiz-adv-x="921" d="M182 1171v234h598v-234h-598z" />
<glyph unicode="&#xb0;" horiz-adv-x="804" d="M102 1145q0 59 24 112.5t64.5 93.5t96 62.5t116.5 22.5q63 0 117.5 -22.5t95.5 -62.5t65 -93.5t24 -112.5q0 -61 -24 -113.5t-65 -92.5t-95 -62.5t-118 -22.5q-61 0 -116.5 22.5t-96 62.5t-64.5 92t-24 114zM289 1145q0 -47 33.5 -80t80.5 -33q49 0 82 33t33 80 t-32.5 78.5t-82.5 31.5q-47 0 -80.5 -31.5t-33.5 -78.5z" />
<glyph unicode="&#xb1;" horiz-adv-x="1003" d="M33 0v223h934v-223h-934zM37 610v230h344v331h240v-331h342v-230h-342v-321h-240v321h-344z" />
<glyph unicode="&#xb2;" horiz-adv-x="638" d="M41 1362q6 63 29.5 112.5t61.5 82t85 50t100 17.5q127 0 199 -60.5t72 -172.5q0 -51 -17.5 -95.5t-50.5 -89.5l-192 -258h250v-188h-529v166l299 383q25 33 25 73q0 23 -13.5 39.5t-42.5 16.5q-25 0 -45 -22.5t-24 -80.5z" />
<glyph unicode="&#xb3;" horiz-adv-x="641" d="M49 991l203 25q4 -47 25.5 -61.5t39.5 -14.5q25 0 38.5 9t19.5 23.5t7 31t1 28.5q0 35 -12.5 60.5t-55.5 25.5h-75v160h67q45 0 59.5 24.5t14.5 61.5q0 20 -10.5 45t-51.5 25q-20 0 -40.5 -19.5t-24.5 -73.5l-201 31q16 117 93.5 182.5t181.5 65.5q74 0 124 -20.5 t82.5 -54.5t47 -81t14.5 -98q0 -41 -19.5 -92t-70.5 -76q57 -20 75.5 -70.5t18.5 -107.5q0 -119 -68.5 -194.5t-209.5 -75.5q-49 0 -95.5 14t-83.5 44t-62.5 76t-31.5 107z" />
<glyph unicode="&#xb4;" horiz-adv-x="923" d="M319 1167l191 400l246 -99l-277 -374z" />
<glyph unicode="&#xb6;" horiz-adv-x="1050" d="M35 1026q0 74 22.5 145.5t69.5 130t119.5 94.5t175.5 36q143 0 276 -1t281 -1v-197h-90v-1372h-205v1372h-113v-1372h-211v768q-86 8 -148 43t-101 89t-57.5 122.5t-18.5 142.5z" />
<glyph unicode="&#xb7;" horiz-adv-x="544" d="M117 420v321h311v-321h-311z" />
<glyph unicode="&#xb8;" horiz-adv-x="915" d="M205 -393l47 125q47 -23 77.5 -29t59.5 -6q31 0 52.5 17.5t21.5 43.5q0 29 -17.5 42.5t-42.5 13.5q-16 0 -28 -7q-18 12 -37 22.5t-37 23.5l74 231q35 0 68.5 1t68.5 1l-55 -160q55 -6 91 -25.5t58.5 -45t31.5 -55t9 -56.5q0 -76 -53 -130t-170 -54q-55 2 -111.5 10 t-107.5 37z" />
<glyph unicode="&#xb9;" horiz-adv-x="522" d="M68 1296v215l155 103h183v-854h-213v622z" />
<glyph unicode="&#xba;" horiz-adv-x="649" d="M47 907q2 55 7 111.5t22 91.5q29 66 95.5 103.5t162.5 37.5q98 0 156.5 -36.5t84.5 -94.5q18 -41 24.5 -95t6.5 -118q0 -72 -7 -124t-30 -91q-39 -72 -103.5 -100.5t-146.5 -28.5q-74 0 -125 22.5t-85 61.5q-35 43 -48.5 106.5t-13.5 153.5zM260 903q0 -35 1 -64.5 t11 -52.5q16 -33 54 -32q39 0 53 34q8 18 10 51t2 81q0 35 -2 61.5t-10 44.5q-16 37 -51 37q-39 0 -56 -37q-10 -23 -11 -53.5t-1 -69.5z" />
<glyph unicode="&#xbb;" horiz-adv-x="1157" d="M94 57l264 424l-264 424h277l268 -424l-268 -424h-277zM539 57l264 424l-264 424h274l268 -424l-268 -424h-274z" />
<glyph unicode="&#xbc;" horiz-adv-x="1576" d="M145 1108v215l156 102h182v-854h-213v623zM272 -35l758 1495h189l-760 -1495h-187zM840 115v151l252 586h215l-238 -559h98v162h201v-162h62v-178h-62v-117h-201v117h-327z" />
<glyph unicode="&#xbd;" horiz-adv-x="1576" d="M133 1108v215l156 102h182v-854h-213v623zM264 -35l758 1495h188l-759 -1495h-187zM897 600q6 63 29.5 112.5t61.5 82t85 50t101 17.5q127 0 198.5 -60.5t71.5 -172.5q0 -51 -17.5 -95.5t-50.5 -89.5l-192 -258h250v-188h-529v166l299 383q25 33 25 74q0 23 -13.5 39 t-41.5 16q-25 0 -45.5 -22.5t-24.5 -80.5z" />
<glyph unicode="&#xbe;" horiz-adv-x="1576" d="M111 807l202 24q4 -47 25.5 -61t40.5 -14q25 0 38 9t19 23.5t7 31t1 28.5q0 35 -12 60.5t-55 25.5h-76v160h68q45 0 59 24.5t14 61.5q0 20 -10 44.5t-51 24.5q-20 0 -41 -19.5t-25 -72.5l-200 31q16 117 93 182.5t181 65.5q74 0 124 -20.5t83 -54.5t47 -81t14 -98 q0 -41 -19.5 -92.5t-70.5 -75.5q57 -20 76 -70.5t19 -107.5q0 -119 -69 -195t-210 -76q-49 0 -95 14.5t-83 44t-62.5 75.5t-31.5 108zM352 -35l758 1495h188l-759 -1495h-187zM877 115v151l251 586h215l-237 -559h98v162h201v-162h61v-178h-61v-117h-201v117h-327z" />
<glyph unicode="&#xbf;" horiz-adv-x="933" d="M111 -31q0 90 22.5 146.5t56.5 107.5q27 39 56.5 76t55.5 77t43 84t17 97v61h287v-94q0 -94 -39 -175t-86 -152q-41 -61 -71.5 -117.5t-30.5 -110.5q0 -53 29.5 -86t83.5 -33q51 0 86.5 39t37.5 134q72 -10 142.5 -17.5t142.5 -15.5q-6 -98 -42 -176t-92 -130.5t-131 -80 t-161 -27.5q-201 0 -304 107.5t-103 285.5zM365 739v273h282v-273h-282z" />
<glyph unicode="&#xc0;" horiz-adv-x="1136" d="M6 0l412 1425h295l411 -1425h-319l-70 291h-338q-18 -72 -37.5 -145.5t-40.5 -145.5h-313zM182 1686l172 204l355 -264l-107 -139zM463 555h205l-39 203l-58 284h-10l-57 -282z" />
<glyph unicode="&#xc1;" horiz-adv-x="1136" d="M6 0l412 1425h295l411 -1425h-319l-70 291h-338q-18 -72 -37.5 -145.5t-40.5 -145.5h-313zM412 1626l354 264l172 -204l-420 -199zM463 555h205l-39 203l-58 284h-10l-57 -282z" />
<glyph unicode="&#xc2;" horiz-adv-x="1136" d="M6 0l412 1425h295l411 -1425h-319l-70 291h-338q-18 -72 -37.5 -145.5t-40.5 -145.5h-313zM186 1591l291 271h180l287 -271l-104 -108l-275 162l-276 -162zM463 555h205l-39 203l-58 284h-10l-57 -282z" />
<glyph unicode="&#xc3;" horiz-adv-x="1136" d="M6 0l412 1425h295l411 -1425h-319l-70 291h-338q-18 -72 -37.5 -145.5t-40.5 -145.5h-313zM166 1569q49 111 113.5 162t140.5 51q37 0 70.5 -14.5t64.5 -30t57.5 -28.5t49.5 -13q33 0 59.5 18.5t66.5 69.5q35 -18 69 -38t69 -40q-53 -117 -110.5 -165t-123.5 -48 q-39 0 -73.5 13.5t-67.5 28.5t-61.5 28.5t-55.5 13.5q-31 0 -62.5 -18.5t-72.5 -71.5zM463 555h205l-39 203l-58 284h-10l-57 -282z" />
<glyph unicode="&#xc4;" horiz-adv-x="1136" d="M6 0l412 1425h295l411 -1425h-319l-70 291h-338q-18 -72 -37.5 -145.5t-40.5 -145.5h-313zM225 1509v269h279v-269h-279zM463 555h205l-39 203l-58 284h-10l-57 -282zM625 1509v269h276v-269h-276z" />
<glyph unicode="&#xc5;" horiz-adv-x="1136" d="M6 0l412 1425h78q-72 23 -116 80t-44 133q0 45 18.5 86t49 72t72.5 48.5t91 17.5t91 -17.5t73 -48.5t48.5 -72t17.5 -86q0 -76 -45 -133t-117 -80h78l411 -1425h-319l-70 291h-338q-18 -72 -37.5 -145.5t-40.5 -145.5h-313zM463 555h205l-39 203l-58 284h-10l-57 -282z M494 1636q0 -29 21.5 -49t51.5 -20q29 0 50.5 20t21.5 49t-21.5 49.5t-50.5 20.5q-31 0 -52 -20.5t-21 -49.5z" />
<glyph unicode="&#xc6;" horiz-adv-x="1775" d="M53 0l633 1425h1010v-274h-535v-295h459v-272h-459v-303h535v-281h-832v307h-352l-125 -307h-334zM621 578h243v571h-8z" />
<glyph unicode="&#xc7;" horiz-adv-x="1052" d="M92 471v508q0 80 24.5 161t79 146.5t141.5 107.5t212 42q98 0 176 -30t133 -79t90 -113.5t49 -134.5l-280 -84q-4 20 -13.5 48t-30 50.5t-51 39t-73.5 16.5q-45 0 -76 -15.5t-49 -39t-26.5 -51t-8.5 -52.5v-528q0 -82 36 -135.5t124 -53.5q61 0 108.5 40t55.5 110 l282 -82q-29 -158 -139.5 -250t-269.5 -102l-21 -64q55 -6 91 -25.5t58.5 -45t32 -55t9.5 -56.5q0 -76 -53.5 -130t-170.5 -54q-55 2 -111 10t-108 37l47 125q47 -23 78 -29t60 -6q31 0 52 17.5t21 43.5q0 29 -17 42.5t-42 13.5q-16 0 -29 -7q-18 12 -36.5 22.5t-36.5 23.5 q10 35 21 70.5t24 70.5q-96 14 -165 58t-113 108.5t-64.5 144.5t-20.5 166z" />
<glyph unicode="&#xc8;" horiz-adv-x="1003" d="M125 0v1425h829v-274h-532v-295h459v-272h-459v-303h532v-281h-829zM164 1686l172 204l354 -264l-106 -139z" />
<glyph unicode="&#xc9;" horiz-adv-x="1003" d="M125 0v1425h829v-274h-532v-295h459v-272h-459v-303h532v-281h-829zM350 1626l355 264l172 -204l-420 -199z" />
<glyph unicode="&#xca;" horiz-adv-x="1003" d="M125 0v1425h829v-274h-532v-295h459v-272h-459v-303h532v-281h-829zM158 1591l291 271h180l286 -271l-104 -108l-274 162l-277 -162z" />
<glyph unicode="&#xcb;" horiz-adv-x="1003" d="M125 0v1425h829v-274h-532v-295h459v-272h-459v-303h532v-281h-829zM182 1491v266h273v-266h-273zM584 1491v266h274v-266h-274z" />
<glyph unicode="&#xcc;" horiz-adv-x="548" d="M-111 1686l172 204l355 -264l-107 -139zM129 0v1425h297v-1425h-297z" />
<glyph unicode="&#xcd;" horiz-adv-x="548" d="M111 1626l354 264l172 -204l-420 -199zM129 0v1425h297v-1425h-297z" />
<glyph unicode="&#xce;" horiz-adv-x="548" d="M-96 1591l291 271h180l287 -271l-105 -108l-274 162l-277 -162zM129 0v1425h297v-1425h-297z" />
<glyph unicode="&#xcf;" horiz-adv-x="548" d="M-61 1491v266h272v-266h-272zM129 0v1425h297v-1425h-297zM340 1491v266h274v-266h-274z" />
<glyph unicode="&#xd0;" horiz-adv-x="1130" d="M33 633v180h92v612h471q143 0 244.5 -53t148.5 -176q29 -72 34 -177.5t5 -234.5q0 -186 -2 -316t-37 -222q-27 -72 -68.5 -119t-97 -74.5t-120 -40t-134.5 -12.5h-444v633h-92zM420 274h125q113 0 150.5 57.5t37.5 157.5v345q0 61 -6 118.5t-25.5 101.5t-57.5 69.5 t-101 25.5h-123v-336h192v-180h-192v-359z" />
<glyph unicode="&#xd1;" horiz-adv-x="1220" d="M121 0v1425h262l233 -426l187 -344l6 2v768h295v-1425h-260l-264 475l-156 301l-6 -2v-774h-297zM213 1565q49 111 113.5 162t140.5 51q37 0 70.5 -14.5t64.5 -30t57.5 -28.5t49.5 -13q33 0 59.5 18.5t67.5 69.5q35 -18 68.5 -38t68.5 -40q-53 -117 -110.5 -165 t-123.5 -48q-39 0 -73.5 13.5t-67.5 28.5t-61.5 28.5t-55.5 13.5q-31 0 -62.5 -18.5t-72.5 -71.5z" />
<glyph unicode="&#xd2;" horiz-adv-x="1095" d="M90 471v508q0 80 24.5 161t80 146.5t142.5 107.5t212 42q117 0 203 -40t141 -104.5t83 -146.5t28 -166v-530q0 -106 -34 -191.5t-94.5 -146t-143.5 -92t-183 -31.5q-123 0 -210 39t-142.5 105.5t-81 154.5t-25.5 184zM168 1686l172 204l354 -264l-106 -139zM385 463 q0 -82 38 -135.5t126 -53.5q63 0 109.5 41t46.5 113v563q0 20 -7.5 47t-26 51.5t-48 42t-74.5 17.5t-76 -15.5t-50.5 -39t-28.5 -51t-9 -52.5v-528z" />
<glyph unicode="&#xd3;" horiz-adv-x="1095" d="M90 471v508q0 80 24.5 161t80 146.5t142.5 107.5t212 42q117 0 203 -40t141 -104.5t83 -146.5t28 -166v-530q0 -106 -34 -191.5t-94.5 -146t-143.5 -92t-183 -31.5q-123 0 -210 39t-142.5 105.5t-81 154.5t-25.5 184zM385 463q0 -82 38 -135.5t126 -53.5q63 0 109.5 41 t46.5 113v563q0 20 -7.5 47t-26 51.5t-48 42t-74.5 17.5t-76 -15.5t-50.5 -39t-28.5 -51t-9 -52.5v-528zM406 1626l354 264l172 -204l-420 -199z" />
<glyph unicode="&#xd4;" horiz-adv-x="1095" d="M90 471v508q0 80 24.5 161t80 146.5t142.5 107.5t212 42q117 0 203 -40t141 -104.5t83 -146.5t28 -166v-530q0 -106 -34 -191.5t-94.5 -146t-143.5 -92t-183 -31.5q-123 0 -210 39t-142.5 105.5t-81 154.5t-25.5 184zM158 1591l291 271h180l286 -271l-104 -108l-274 162 l-277 -162zM385 463q0 -82 38 -135.5t126 -53.5q63 0 109.5 41t46.5 113v563q0 20 -7.5 47t-26 51.5t-48 42t-74.5 17.5t-76 -15.5t-50.5 -39t-28.5 -51t-9 -52.5v-528z" />
<glyph unicode="&#xd5;" horiz-adv-x="1095" d="M90 471v508q0 80 24.5 161t80 146.5t142.5 107.5t212 42q117 0 203 -40t141 -104.5t83 -146.5t28 -166v-530q0 -106 -34 -191.5t-94.5 -146t-143.5 -92t-183 -31.5q-123 0 -210 39t-142.5 105.5t-81 154.5t-25.5 184zM166 1569q49 111 113.5 162t140.5 51 q37 0 70.5 -14.5t64.5 -30t57.5 -28.5t49.5 -13q33 0 59.5 18.5t66.5 69.5q35 -18 69 -38t69 -40q-53 -117 -110.5 -165t-123.5 -48q-39 0 -73.5 13.5t-67.5 28.5t-61.5 28.5t-55.5 13.5q-31 0 -62.5 -18.5t-72.5 -71.5zM385 463q0 -82 38 -135.5t126 -53.5q63 0 109.5 41 t46.5 113v563q0 20 -7.5 47t-26 51.5t-48 42t-74.5 17.5t-76 -15.5t-50.5 -39t-28.5 -51t-9 -52.5v-528z" />
<glyph unicode="&#xd6;" horiz-adv-x="1095" d="M90 471v508q0 80 24.5 161t80 146.5t142.5 107.5t212 42q117 0 203 -40t141 -104.5t83 -146.5t28 -166v-530q0 -106 -34 -191.5t-94.5 -146t-143.5 -92t-183 -31.5q-123 0 -210 39t-142.5 105.5t-81 154.5t-25.5 184zM221 1509v269h279v-269h-279zM385 463 q0 -82 38 -135.5t126 -53.5q63 0 109.5 41t46.5 113v563q0 20 -7.5 47t-26 51.5t-48 42t-74.5 17.5t-76 -15.5t-50.5 -39t-28.5 -51t-9 -52.5v-528zM621 1509v269h276v-269h-276z" />
<glyph unicode="&#xd7;" horiz-adv-x="1003" d="M49 915l166 162l295 -301l291 287l166 -172l-289 -285l295 -301l-166 -162l-295 301l-293 -286l-166 168l293 288z" />
<glyph unicode="&#xd8;" horiz-adv-x="1095" d="M84 43l80 133q-39 63 -56.5 138t-17.5 157v508q0 80 24.5 161t80 146.5t142.5 107.5t212 42q98 0 174 -29t131 -76l64 107l88 -58l-80 -133q39 -59 58.5 -127.5t19.5 -140.5v-530q0 -106 -34 -191.5t-94.5 -146t-143.5 -92t-183 -31.5q-106 0 -185 28.5t-135 79.5 l-63 -106zM385 547l305 510q-16 35 -49 63.5t-92 28.5q-45 0 -76 -15.5t-50.5 -39t-28.5 -51t-9 -52.5v-444zM397 375q16 -47 53 -74t99 -27q63 0 109.5 41t46.5 113v453z" />
<glyph unicode="&#xd9;" horiz-adv-x="1128" d="M109 471v954h294v-962q0 -82 38 -135.5t126 -53.5q63 0 109.5 44t46.5 116v991h299v-976q0 -106 -34 -191.5t-94 -146t-143 -92t-184 -31.5q-123 0 -210 39t-142 105.5t-80.5 154.5t-25.5 184zM182 1686l172 204l355 -264l-107 -139z" />
<glyph unicode="&#xda;" horiz-adv-x="1128" d="M109 471v954h294v-962q0 -82 38 -135.5t126 -53.5q63 0 109.5 44t46.5 116v991h299v-976q0 -106 -34 -191.5t-94 -146t-143 -92t-184 -31.5q-123 0 -210 39t-142 105.5t-80.5 154.5t-25.5 184zM391 1626l354 264l173 -204l-420 -199z" />
<glyph unicode="&#xdb;" horiz-adv-x="1128" d="M109 471v954h294v-962q0 -82 38 -135.5t126 -53.5q63 0 109.5 44t46.5 116v991h299v-976q0 -106 -34 -191.5t-94 -146t-143 -92t-184 -31.5q-123 0 -210 39t-142 105.5t-80.5 154.5t-25.5 184zM170 1591l291 271h180l287 -271l-105 -108l-274 162l-277 -162z" />
<glyph unicode="&#xdc;" horiz-adv-x="1128" d="M109 471v954h294v-962q0 -82 38 -135.5t126 -53.5q63 0 109.5 44t46.5 116v991h299v-976q0 -106 -34 -191.5t-94 -146t-143 -92t-184 -31.5q-123 0 -210 39t-142 105.5t-80.5 154.5t-25.5 184zM227 1509v269h279v-269h-279zM627 1509v269h276v-269h-276z" />
<glyph unicode="&#xdd;" horiz-adv-x="1044" d="M10 1430h330l94 -291l84 -273h12l88 275l105 284h315l-368 -854v-571h-291v571zM365 1626l354 264l172 -204l-420 -199z" />
<glyph unicode="&#xde;" horiz-adv-x="1062" d="M125 0v1425h295v-249h158q100 0 185 -27t145.5 -82t94 -140t33.5 -202q0 -102 -30.5 -186t-88 -143.5t-139.5 -92.5t-184 -33h-172v-270h-297zM422 547h158q66 0 115.5 41t49.5 141q0 92 -45 132t-122 40h-156v-354z" />
<glyph unicode="&#xdf;" horiz-adv-x="1019" d="M106 0v1057q0 100 23 179t70 134t120.5 85t178.5 30q100 0 172.5 -29t120 -76t70 -111.5t22.5 -133.5q0 -86 -30 -161t-89 -106v-8q61 -25 95 -68.5t50.5 -95t19.5 -103.5t3 -95q0 -98 -13.5 -189.5t-54.5 -162t-117.5 -113.5t-203.5 -43h-24.5t-24.5 2v241 q90 0 117.5 72t27.5 211q0 35 -3 74t-15.5 72.5t-37 56t-67.5 22.5v215q51 0 70.5 35t19.5 90q0 18 -2 44t-12 49.5t-29.5 39t-56.5 15.5t-59.5 -14.5t-34 -38t-14.5 -53t-3 -62.5v-1061h-289z" />
<glyph unicode="&#xe0;" horiz-adv-x="946" d="M66 303q0 63 21.5 119.5t64.5 99.5t107.5 67.5t152.5 24.5h163v60q0 33 -24.5 65.5t-93.5 32.5q-53 0 -94 -17.5t-70 -66.5l-207 131q57 113 154.5 159t224.5 46q86 0 159.5 -16.5t126 -54.5t82 -100t29.5 -157v-696h-287v82l-8 2q-39 -51 -98 -72.5t-107 -21.5 q-150 0 -223 80t-73 233zM205 1464l248 103l198 -389l-157 -84zM344 324q0 -29 23.5 -56.5t85.5 -27.5q49 0 85.5 28.5t36.5 83.5v62h-124q-57 0 -82 -24.5t-25 -65.5z" />
<glyph unicode="&#xe1;" horiz-adv-x="946" d="M66 303q0 63 21.5 119.5t64.5 99.5t107.5 67.5t152.5 24.5h163v60q0 33 -24.5 65.5t-93.5 32.5q-53 0 -94 -17.5t-70 -66.5l-207 131q57 113 154.5 159t224.5 46q86 0 159.5 -16.5t126 -54.5t82 -100t29.5 -157v-696h-287v82l-8 2q-39 -51 -98 -72.5t-107 -21.5 q-150 0 -223 80t-73 233zM344 324q0 -29 23.5 -56.5t85.5 -27.5q49 0 85.5 28.5t36.5 83.5v62h-124q-57 0 -82 -24.5t-25 -65.5zM356 1167l191 400l246 -99l-277 -374z" />
<glyph unicode="&#xe2;" horiz-adv-x="946" d="M66 303q0 63 21.5 119.5t64.5 99.5t107.5 67.5t152.5 24.5h163v60q0 33 -24.5 65.5t-93.5 32.5q-53 0 -94 -17.5t-70 -66.5l-207 131q57 113 154.5 159t224.5 46q86 0 159.5 -16.5t126 -54.5t82 -100t29.5 -157v-696h-287v82l-8 2q-39 -51 -98 -72.5t-107 -21.5 q-150 0 -223 80t-73 233zM111 1159l288 322h187l282 -320l-110 -100l-269 203q-18 -12 -56 -41t-80 -61t-78.5 -59.5t-55.5 -39.5zM344 324q0 -29 23.5 -56.5t85.5 -27.5q49 0 85.5 28.5t36.5 83.5v62h-124q-57 0 -82 -24.5t-25 -65.5z" />
<glyph unicode="&#xe3;" horiz-adv-x="946" d="M66 303q0 63 21.5 119.5t64.5 99.5t107.5 67.5t152.5 24.5h163v60q0 33 -24.5 65.5t-93.5 32.5q-53 0 -94 -17.5t-70 -66.5l-207 131q57 113 154.5 159t224.5 46q86 0 159.5 -16.5t126 -54.5t82 -100t29.5 -157v-696h-287v82l-8 2q-39 -51 -98 -72.5t-107 -21.5 q-150 0 -223 80t-73 233zM102 1221q49 111 113.5 162t140.5 51q37 0 71 -14.5t64.5 -30t57 -28.5t49.5 -13q33 0 59.5 18t67.5 70q35 -18 68.5 -38t68.5 -40q-53 -117 -110.5 -165t-122.5 -48q-39 0 -74 13t-67.5 28.5t-61.5 29t-55 13.5q-31 0 -63 -18.5t-72 -71.5z M344 324q0 -29 23.5 -56.5t85.5 -27.5q49 0 85.5 28.5t36.5 83.5v62h-124q-57 0 -82 -24.5t-25 -65.5z" />
<glyph unicode="&#xe4;" horiz-adv-x="946" d="M66 303q0 63 21.5 119.5t64.5 99.5t107.5 67.5t152.5 24.5h163v60q0 33 -24.5 65.5t-93.5 32.5q-53 0 -94 -17.5t-70 -66.5l-207 131q57 113 154.5 159t224.5 46q86 0 159.5 -16.5t126 -54.5t82 -100t29.5 -157v-696h-287v82l-8 2q-39 -51 -98 -72.5t-107 -21.5 q-150 0 -223 80t-73 233zM158 1143v266h272v-266h-272zM344 324q0 -29 23.5 -56.5t85.5 -27.5q49 0 85.5 28.5t36.5 83.5v62h-124q-57 0 -82 -24.5t-25 -65.5zM559 1143v266h275v-266h-275z" />
<glyph unicode="&#xe5;" horiz-adv-x="946" d="M66 303q0 63 21.5 119.5t64.5 99.5t107.5 67.5t152.5 24.5h163v60q0 33 -24.5 65.5t-93.5 32.5q-53 0 -94 -17.5t-70 -66.5l-207 131q57 113 154.5 159t224.5 46q86 0 159.5 -16.5t126 -54.5t82 -100t29.5 -157v-696h-287v82l-8 2q-39 -51 -98 -72.5t-107 -21.5 q-150 0 -223 80t-73 233zM260 1294q0 45 18.5 86t49 72t72.5 48.5t92 17.5q49 0 91 -17.5t72.5 -48.5t48 -72t17.5 -86q0 -47 -17.5 -87t-49 -70.5t-73.5 -48t-92 -17.5q-47 0 -89 17.5t-72.5 48t-49 70.5t-18.5 87zM344 324q0 -29 23.5 -56.5t85.5 -27.5q49 0 85.5 28.5 t36.5 83.5v62h-124q-57 0 -82 -24.5t-25 -65.5zM418 1292q0 -29 21.5 -49t52.5 -20q29 0 50 20t21 49t-21.5 49.5t-49.5 20.5q-31 0 -52.5 -20.5t-21.5 -49.5z" />
<glyph unicode="&#xe6;" horiz-adv-x="1447" d="M66 303q0 63 21.5 119.5t64.5 99.5t107.5 67.5t152.5 24.5h163v39q0 16 -8 36t-23.5 37t-39 29.5t-55.5 12.5q-53 0 -93.5 -19.5t-62.5 -60.5l-207 131q57 113 154.5 159t224.5 46q82 0 155.5 -15.5t118.5 -68.5q41 47 101.5 66.5t138.5 19.5q123 0 202 -41t124 -109.5 t62 -160.5t17 -197v-102h-516q0 -76 20.5 -120t90.5 -44q43 0 78 19.5t69 70.5l242 -131q-53 -115 -154.5 -168t-224.5 -53q-106 0 -181 29.5t-124 86.5q-49 -47 -100.5 -71.5t-95.5 -34.5t-77.5 -10h-48.5q-150 0 -223 80t-73 233zM344 324q0 -29 23.5 -56.5t85.5 -27.5 q49 0 85.5 28.5t36.5 83.5v62h-124q-57 0 -82 -24.5t-25 -65.5zM868 618h219q0 27 -4 53.5t-16 47t-34.5 33t-57.5 12.5q-31 0 -50.5 -13.5t-31.5 -34t-17.5 -47t-7.5 -51.5z" />
<glyph unicode="&#xe7;" horiz-adv-x="864" d="M59 502q0 111 19.5 207t65.5 166.5t122 110.5t189 40q129 0 225 -59.5t137 -175.5l-242 -117q-23 49 -47 69.5t-59 20.5q-78 0 -99.5 -71.5t-21.5 -190.5q0 -129 23.5 -189.5t97.5 -60.5q37 0 61.5 21.5t47.5 66.5l241 -119q-39 -104 -124 -163.5t-201 -65.5l-23 -66 q55 -6 91 -25.5t58.5 -45t32 -55t9.5 -56.5q0 -76 -53.5 -130t-170.5 -54q-55 2 -111.5 10t-107.5 37l47 125q47 -23 78 -29t59 -6q31 0 52.5 17.5t21.5 43.5q0 29 -17.5 42.5t-41.5 13.5q-16 0 -29 -7q-18 12 -36.5 22.5t-37.5 23.5q10 37 22.5 73.5t24.5 71.5 q-86 14 -144 58t-93 109.5t-50.5 151.5t-15.5 185z" />
<glyph unicode="&#xe8;" horiz-adv-x="950" d="M74 506q0 119 20.5 215t67.5 163.5t125 104.5t194 37q123 0 201 -41t122 -109.5t60.5 -160.5t16.5 -197v-80h-516v-16q0 -35 4 -65.5t16 -54t33.5 -37t56.5 -13.5q43 0 78 19.5t70 70.5l239 -129q-53 -115 -157.5 -169t-227.5 -54q-113 0 -189.5 34.5t-124.5 101.5 t-68.5 162t-20.5 218zM131 1464l248 103l199 -389l-158 -84zM365 618h215q0 27 -4.5 53.5t-15.5 47t-32.5 33t-56.5 12.5q-29 0 -49.5 -13.5t-32.5 -34t-17 -47t-7 -51.5z" />
<glyph unicode="&#xe9;" horiz-adv-x="950" d="M74 506q0 119 20.5 215t67.5 163.5t125 104.5t194 37q123 0 201 -41t122 -109.5t60.5 -160.5t16.5 -197v-80h-516v-16q0 -35 4 -65.5t16 -54t33.5 -37t56.5 -13.5q43 0 78 19.5t70 70.5l239 -129q-53 -115 -157.5 -169t-227.5 -54q-113 0 -189.5 34.5t-124.5 101.5 t-68.5 162t-20.5 218zM338 1167l190 400l246 -99l-276 -374zM365 618h215q0 27 -4.5 53.5t-15.5 47t-32.5 33t-56.5 12.5q-29 0 -49.5 -13.5t-32.5 -34t-17 -47t-7 -51.5z" />
<glyph unicode="&#xea;" horiz-adv-x="950" d="M74 506q0 119 20.5 215t67.5 163.5t125 104.5t194 37q123 0 201 -41t122 -109.5t60.5 -160.5t16.5 -197v-80h-516v-16q0 -35 4 -65.5t16 -54t33.5 -37t56.5 -13.5q43 0 78 19.5t70 70.5l239 -129q-53 -115 -157.5 -169t-227.5 -54q-113 0 -189.5 34.5t-124.5 101.5 t-68.5 162t-20.5 218zM94 1159l289 322h186l283 -320l-111 -100l-268 203q-18 -12 -56 -41t-80 -61t-79 -59.5t-55 -39.5zM365 618h215q0 27 -4.5 53.5t-15.5 47t-32.5 33t-56.5 12.5q-29 0 -49.5 -13.5t-32.5 -34t-17 -47t-7 -51.5z" />
<glyph unicode="&#xeb;" horiz-adv-x="950" d="M74 506q0 119 20.5 215t67.5 163.5t125 104.5t194 37q123 0 201 -41t122 -109.5t60.5 -160.5t16.5 -197v-80h-516v-16q0 -35 4 -65.5t16 -54t33.5 -37t56.5 -13.5q43 0 78 19.5t70 70.5l239 -129q-53 -115 -157.5 -169t-227.5 -54q-113 0 -189.5 34.5t-124.5 101.5 t-68.5 162t-20.5 218zM139 1143v266h273v-266h-273zM365 618h215q0 27 -4.5 53.5t-15.5 47t-32.5 33t-56.5 12.5q-29 0 -49.5 -13.5t-32.5 -34t-17 -47t-7 -51.5zM541 1143v266h274v-266h-274z" />
<glyph unicode="&#xec;" horiz-adv-x="559" d="M-49 1464l248 103l198 -389l-157 -84zM158 0v1014h286v-1014h-286z" />
<glyph unicode="&#xed;" horiz-adv-x="518" d="M117 0v1014h286v-1014h-286zM139 1167l191 400l245 -99l-276 -374z" />
<glyph unicode="&#xee;" horiz-adv-x="675" d="M-41 1159l289 322h186l283 -320l-111 -100l-268 203q-18 -12 -56 -41t-80 -61t-79 -59.5t-55 -39.5zM193 0v1014h286v-1014h-286z" />
<glyph unicode="&#xef;" horiz-adv-x="593" d="M-41 1143v266h272v-266h-272zM154 0v1014h286v-1014h-286zM360 1143v266h275v-266h-275z" />
<glyph unicode="&#xf0;" horiz-adv-x="960" d="M66 475q0 74 10 154t33 139q39 96 121.5 151.5t205.5 55.5q25 0 55.5 -6t60.5 -17.5t55.5 -29t41.5 -37.5q2 0 4 2q-4 72 -12 125t-41 114l-102 -86q-20 23 -41 50.5t-41 50.5l102 82q-45 35 -103.5 53t-133.5 27q6 49 14 100t14 100q152 -10 247 -49t142 -86l125 100 l86 -94l-127 -100q37 -49 58.5 -126t34 -164t15.5 -178t3 -169q0 -72 -6 -145.5t-22.5 -144.5t-44 -133t-68.5 -110q-51 -59 -123 -87.5t-176 -28.5q-102 0 -175 30.5t-118 85.5q-57 72 -75.5 166.5t-18.5 204.5zM354 467q0 -90 23.5 -152.5t87.5 -62.5q59 0 83.5 53 t24.5 184q0 113 -21 166.5t-87 53.5q-25 0 -45.5 -9.5t-34.5 -36t-22.5 -73.5t-8.5 -123z" />
<glyph unicode="&#xf1;" horiz-adv-x="987" d="M68 1221q49 111 113.5 162t140.5 51q37 0 70.5 -14.5t64 -30t57.5 -28.5t49 -13q33 0 59.5 18t67.5 70q35 -18 69 -38l68 -40q-53 -117 -110.5 -165t-122.5 -48q-39 0 -74 13t-67.5 28.5t-61.5 29t-55 13.5q-31 0 -62.5 -18.5t-72.5 -71.5zM104 0v1014h287v-82l8 -2 q35 41 87.5 67.5t105.5 26.5q154 0 223.5 -84t69.5 -227v-713h-287v641q0 59 -29.5 87t-70.5 28q-45 0 -76 -30t-31 -87v-639h-287z" />
<glyph unicode="&#xf2;" horiz-adv-x="940" d="M74 504q2 86 10 173t31 140q43 98 132 154.5t232 56.5q141 0 224 -55t118 -139q29 -66 37 -149t8 -181q0 -109 -11 -188.5t-40 -139.5q-53 -109 -146.5 -149.5t-209.5 -40.5q-104 0 -177 32.5t-120 92.5q-49 66 -68.5 162t-19.5 231zM160 1464l248 103l198 -389l-157 -84 zM358 500q0 -51 3.5 -98.5t17.5 -82.5q25 -70 92 -69q14 0 29.5 3t30 14.5t25.5 33t17 55.5q4 29 7.5 71t3.5 97q0 106 -21 166q-27 74 -88 74q-68 0 -96 -72q-12 -35 -16.5 -81t-4.5 -111z" />
<glyph unicode="&#xf3;" horiz-adv-x="940" d="M74 504q2 86 10 173t31 140q43 98 132 154.5t232 56.5q141 0 224 -55t118 -139q29 -66 37 -149t8 -181q0 -109 -11 -188.5t-40 -139.5q-53 -109 -146.5 -149.5t-209.5 -40.5q-104 0 -177 32.5t-120 92.5q-49 66 -68.5 162t-19.5 231zM334 1167l190 400l246 -99l-276 -374 zM358 500q0 -51 3.5 -98.5t17.5 -82.5q25 -70 92 -69q14 0 29.5 3t30 14.5t25.5 33t17 55.5q4 29 7.5 71t3.5 97q0 106 -21 166q-27 74 -88 74q-68 0 -96 -72q-12 -35 -16.5 -81t-4.5 -111z" />
<glyph unicode="&#xf4;" horiz-adv-x="940" d="M74 504q2 86 10 173t31 140q43 98 132 154.5t232 56.5q141 0 224 -55t118 -139q29 -66 37 -149t8 -181q0 -109 -11 -188.5t-40 -139.5q-53 -109 -146.5 -149.5t-209.5 -40.5q-104 0 -177 32.5t-120 92.5q-49 66 -68.5 162t-19.5 231zM90 1159l289 322h186l283 -320 l-111 -100l-268 203q-18 -12 -56 -41t-80 -61t-79 -59.5t-55 -39.5zM358 500q0 -51 3.5 -98.5t17.5 -82.5q25 -70 92 -69q14 0 29.5 3t30 14.5t25.5 33t17 55.5q4 29 7.5 71t3.5 97q0 106 -21 166q-27 74 -88 74q-68 0 -96 -72q-12 -35 -16.5 -81t-4.5 -111z" />
<glyph unicode="&#xf5;" horiz-adv-x="940" d="M74 504q2 86 10 173t31 140q43 98 132 154.5t232 56.5q141 0 224 -55t118 -139q29 -66 37 -149t8 -181q0 -109 -11 -188.5t-40 -139.5q-53 -109 -146.5 -149.5t-209.5 -40.5q-104 0 -177 32.5t-120 92.5q-49 66 -68.5 162t-19.5 231zM90 1221q49 111 113.5 162t140.5 51 q37 0 71 -14.5t64.5 -30t57 -28.5t49.5 -13q33 0 59.5 18t67.5 70q35 -18 68.5 -38t68.5 -40q-53 -117 -110.5 -165t-123.5 -48q-39 0 -73.5 13t-67.5 28.5t-61.5 29t-55.5 13.5q-31 0 -62.5 -18.5t-72.5 -71.5zM358 500q0 -51 3.5 -98.5t17.5 -82.5q25 -70 92 -69 q14 0 29.5 3t30 14.5t25.5 33t17 55.5q4 29 7.5 71t3.5 97q0 106 -21 166q-27 74 -88 74q-68 0 -96 -72q-12 -35 -16.5 -81t-4.5 -111z" />
<glyph unicode="&#xf6;" horiz-adv-x="940" d="M74 504q2 86 10 173t31 140q43 98 132 154.5t232 56.5q141 0 224 -55t118 -139q29 -66 37 -149t8 -181q0 -109 -11 -188.5t-40 -139.5q-53 -109 -146.5 -149.5t-209.5 -40.5q-104 0 -177 32.5t-120 92.5q-49 66 -68.5 162t-19.5 231zM129 1143v266h272v-266h-272z M358 500q0 -51 3.5 -98.5t17.5 -82.5q25 -70 92 -69q14 0 29.5 3t30 14.5t25.5 33t17 55.5q4 29 7.5 71t3.5 97q0 106 -21 166q-27 74 -88 74q-68 0 -96 -72q-12 -35 -16.5 -81t-4.5 -111zM530 1143v266h275v-266h-275z" />
<glyph unicode="&#xf7;" horiz-adv-x="1003" d="M37 489v228h926v-228h-926zM336 207q0 33 13 62.5t36 51t53.5 35t65.5 13.5t64.5 -13.5t52 -35t36 -51t13.5 -62.5q0 -68 -48.5 -116t-117.5 -48q-70 0 -119 48t-49 116zM336 993q0 68 49 115t119 47t118 -47t48 -115q0 -33 -13.5 -62.5t-36 -51t-52 -35t-64.5 -13.5 t-65.5 13.5t-53.5 35t-36 51.5t-13 62z" />
<glyph unicode="&#xf8;" horiz-adv-x="940" d="M74 504q2 86 10 173t31 140q43 98 132 154.5t232 56.5q74 0 131.5 -16.5t100.5 -44.5l73 112l62 -43l-78 -121q35 -37 53 -81q29 -66 37 -149t8 -181q0 -109 -11 -188.5t-40 -139.5q-53 -109 -146.5 -149.5t-209.5 -40.5q-152 0 -244 69l-61 -94l-60 41l68 107v2 q-49 66 -68.5 162t-19.5 231zM358 457.5q0 -19.5 2 -39.5l191 297q-27 49 -76 49q-68 0 -96 -72q-12 -35 -16.5 -81t-4.5 -111v-42.5zM381 313q25 -63 90 -63q14 0 29.5 3t30 14.5t25.5 33t17 55.5q4 29 7.5 71t3.5 97q0 53 -6 97z" />
<glyph unicode="&#xf9;" horiz-adv-x="987" d="M106 301v713h287v-641q0 -59 30 -87t71 -28q45 0 75.5 29.5t30.5 87.5v639h287v-1014h-287v82l-8 2q-35 -41 -87 -67.5t-106 -26.5q-154 0 -223.5 84t-69.5 227zM188 1464l248 103l199 -389l-158 -84z" />
<glyph unicode="&#xfa;" horiz-adv-x="987" d="M106 301v713h287v-641q0 -59 30 -87t71 -28q45 0 75.5 29.5t30.5 87.5v639h287v-1014h-287v82l-8 2q-35 -41 -87 -67.5t-106 -26.5q-154 0 -223.5 84t-69.5 227zM344 1167l191 400l245 -99l-276 -374z" />
<glyph unicode="&#xfb;" horiz-adv-x="987" d="M106 301v713h287v-641q0 -59 30 -87t71 -28q45 0 75.5 29.5t30.5 87.5v639h287v-1014h-287v82l-8 2q-35 -41 -87 -67.5t-106 -26.5q-154 0 -223.5 84t-69.5 227zM127 1159l289 322h186l283 -320l-111 -100l-268 203q-18 -12 -56 -41t-80 -61t-79 -59.5t-55 -39.5z" />
<glyph unicode="&#xfc;" horiz-adv-x="987" d="M106 301v713h287v-641q0 -59 30 -87t71 -28q45 0 75.5 29.5t30.5 87.5v639h287v-1014h-287v82l-8 2q-35 -41 -87 -67.5t-106 -26.5q-154 0 -223.5 84t-69.5 227zM162 1143v266h272v-266h-272zM563 1143v266h275v-266h-275z" />
<glyph unicode="&#xfd;" horiz-adv-x="905" d="M2 1014h307l70 -328l63 -280h11l65 278l82 330h299l-379 -1192q-39 -123 -118.5 -177.5t-194.5 -54.5h-101v246h60q84 0 115 105l32 112zM324 1167l190 400l246 -99l-277 -374z" />
<glyph unicode="&#xfe;" horiz-adv-x="956" d="M98 -412v1868h287v-514l6 -4q35 45 85 65.5t95 20.5q113 0 176.5 -51t95 -129t40 -170t8.5 -174q0 -92 -10.5 -183.5t-44 -164t-97 -118.5t-170.5 -46q-20 0 -44.5 6t-49 17.5t-46 26.5t-36.5 36l-8 -2v-484h-287zM385 510q0 -41 3 -86t13.5 -82t32 -61.5t58.5 -24.5 t58 23.5t32.5 59.5t14.5 80t3 85q0 55 -3 102t-14.5 80t-32 51.5t-54.5 18.5q-68 0 -89.5 -63.5t-21.5 -182.5z" />
<glyph unicode="&#xff;" horiz-adv-x="905" d="M2 1014h307l70 -328l63 -280h11l65 278l82 330h299l-379 -1192q-39 -123 -118.5 -177.5t-194.5 -54.5h-101v246h60q84 0 115 105l32 112zM104 1143v266h273v-266h-273zM506 1143v266h274v-266h-274z" />
<glyph unicode="&#x100;" horiz-adv-x="1136" d="M6 0l412 1425h295l411 -1425h-319l-70 291h-338q-18 -72 -37.5 -145.5t-40.5 -145.5h-313zM268 1540v234h598v-234h-598zM463 555h205l-39 203l-58 284h-10l-57 -282z" />
<glyph unicode="&#x101;" horiz-adv-x="946" d="M66 303q0 63 21.5 119.5t64.5 99.5t107.5 67.5t152.5 24.5h163v60q0 33 -24.5 65.5t-93.5 32.5q-53 0 -94 -17.5t-70 -66.5l-207 131q57 113 154.5 159t224.5 46q86 0 159.5 -16.5t126 -54.5t82 -100t29.5 -157v-696h-287v82l-8 2q-39 -51 -98 -72.5t-107 -21.5 q-150 0 -223 80t-73 233zM182 1171v234h598v-234h-598zM344 324q0 -29 23.5 -56.5t85.5 -27.5q49 0 85.5 28.5t36.5 83.5v62h-124q-57 0 -82 -24.5t-25 -65.5z" />
<glyph unicode="&#x102;" horiz-adv-x="1136" d="M6 0l412 1425h295l411 -1425h-319l-70 291h-338q-18 -72 -37.5 -145.5t-40.5 -145.5h-313zM240 1831h211q0 -23 9 -48.5t24.5 -47t38 -37t50.5 -15.5q31 0 52.5 15.5t37 37t22.5 47t7 48.5h213q-4 -49 -23.5 -108.5t-58.5 -110.5t-100.5 -86t-149.5 -35q-92 0 -154.5 35 t-101 86t-57 110.5t-20.5 108.5zM463 555h205l-39 203l-58 284h-10l-57 -282z" />
<glyph unicode="&#x103;" horiz-adv-x="946" d="M66 303q0 63 21.5 119.5t64.5 99.5t107.5 67.5t152.5 24.5h163v60q0 33 -24.5 65.5t-93.5 32.5q-53 0 -94 -17.5t-70 -66.5l-207 131q57 113 154.5 159t224.5 46q86 0 159.5 -16.5t126 -54.5t82 -100t29.5 -157v-696h-287v82l-8 2q-39 -51 -98 -72.5t-107 -21.5 q-150 0 -223 80t-73 233zM156 1456h211q0 -23 9 -48.5t24.5 -48t38 -36.5t50.5 -14q31 0 52.5 14t37 36.5t22.5 48.5t7 48h213q-4 -51 -23.5 -111.5t-58.5 -112.5t-100.5 -87t-149.5 -35q-92 0 -154.5 35t-101 87t-57 112.5t-20.5 111.5zM344 324q0 -29 23.5 -56.5 t85.5 -27.5q49 0 85.5 28.5t36.5 83.5v62h-124q-57 0 -82 -24.5t-25 -65.5z" />
<glyph unicode="&#x104;" horiz-adv-x="1136" d="M6 0l412 1425h295l411 -1425h-147q-47 -70 -61.5 -119t-14.5 -76q0 -35 21.5 -53t56.5 -18q18 0 48 7t71 23l51 -131q-49 -29 -104.5 -44t-106.5 -15q-92 0 -152.5 56.5t-60.5 146.5q0 45 19.5 100t64.5 123h-4l-70 291h-338q-18 -72 -37.5 -145.5t-40.5 -145.5h-313z M463 555h205l-39 203l-58 284h-10l-57 -282z" />
<glyph unicode="&#x105;" horiz-adv-x="946" d="M66 303q0 63 21.5 119.5t64.5 99.5t107.5 67.5t152.5 24.5h163v60q0 33 -24.5 65.5t-93.5 32.5q-53 0 -94 -17.5t-70 -66.5l-207 131q57 113 154.5 159t224.5 46q86 0 159.5 -16.5t126 -54.5t82 -100t29.5 -157v-696h-121q-47 -70 -61 -119t-14 -76q0 -35 21.5 -53 t55.5 -18q18 0 48 7t71 23l51 -131q-49 -29 -104 -44t-107 -15q-92 0 -152.5 56.5t-60.5 146.5q0 94 86 225v80l-8 2q-39 -51 -98 -72.5t-107 -21.5q-150 0 -223 80t-73 233zM344 324q0 -29 23.5 -56.5t85.5 -27.5q49 0 85.5 28.5t36.5 83.5v62h-124q-57 0 -82 -24.5 t-25 -65.5z" />
<glyph unicode="&#x106;" horiz-adv-x="1052" d="M92 471v508q0 80 24.5 161t79 146.5t141.5 107.5t212 42q98 0 176 -30t133 -79t90 -113.5t49 -134.5l-280 -84q-4 20 -13.5 48t-30 50.5t-51 39t-73.5 16.5q-45 0 -76 -15.5t-49 -39t-26.5 -51t-8.5 -52.5v-528q0 -82 36 -135.5t124 -53.5q61 0 108.5 40t55.5 110 l282 -82q-31 -166 -151.5 -260t-294.5 -94q-123 0 -210 39t-141.5 105.5t-80 154.5t-25.5 184zM350 1626l355 264l172 -204l-420 -199z" />
<glyph unicode="&#x107;" horiz-adv-x="864" d="M59 502q0 111 19.5 207t65.5 166.5t122 110.5t189 40q129 0 225 -59.5t137 -175.5l-242 -117q-23 49 -47 69.5t-59 20.5q-78 0 -99.5 -71.5t-21.5 -190.5q0 -129 23.5 -189.5t97.5 -60.5q37 0 61.5 21.5t47.5 66.5l241 -119q-41 -113 -136 -172t-224 -59q-115 0 -192 38 t-123 106.5t-65.5 162.5t-19.5 205zM319 1167l191 400l246 -99l-277 -374z" />
<glyph unicode="&#x108;" horiz-adv-x="1052" d="M92 471v508q0 80 24.5 161t79 146.5t141.5 107.5t212 42q98 0 176 -30t133 -79t90 -113.5t49 -134.5l-280 -84q-4 20 -13.5 48t-30 50.5t-51 39t-73.5 16.5q-45 0 -76 -15.5t-49 -39t-26.5 -51t-8.5 -52.5v-528q0 -82 36 -135.5t124 -53.5q61 0 108.5 40t55.5 110 l282 -82q-31 -166 -151.5 -260t-294.5 -94q-123 0 -210 39t-141.5 105.5t-80 154.5t-25.5 184zM166 1591l291 271h180l287 -271l-105 -108l-274 162l-277 -162z" />
<glyph unicode="&#x109;" horiz-adv-x="864" d="M59 502q0 111 19.5 207t65.5 166.5t122 110.5t189 40q129 0 225 -59.5t137 -175.5l-242 -117q-23 49 -47 69.5t-59 20.5q-78 0 -99.5 -71.5t-21.5 -190.5q0 -129 23.5 -189.5t97.5 -60.5q37 0 61.5 21.5t47.5 66.5l241 -119q-41 -113 -136 -172t-224 -59q-115 0 -192 38 t-123 106.5t-65.5 162.5t-19.5 205zM88 1159l289 322h186l283 -320l-111 -100l-268 203q-18 -12 -56 -41t-80 -61t-79 -59.5t-55 -39.5z" />
<glyph unicode="&#x10a;" horiz-adv-x="1052" d="M92 471v508q0 80 24.5 161t79 146.5t141.5 107.5t212 42q98 0 176 -30t133 -79t90 -113.5t49 -134.5l-280 -84q-4 20 -13.5 48t-30 50.5t-51 39t-73.5 16.5q-45 0 -76 -15.5t-49 -39t-26.5 -51t-8.5 -52.5v-528q0 -82 36 -135.5t124 -53.5q61 0 108.5 40t55.5 110 l282 -82q-31 -166 -151.5 -260t-294.5 -94q-123 0 -210 39t-141.5 105.5t-80 154.5t-25.5 184zM399 1520v266h273v-266h-273z" />
<glyph unicode="&#x10b;" horiz-adv-x="864" d="M59 502q0 111 19.5 207t65.5 166.5t122 110.5t189 40q129 0 225 -59.5t137 -175.5l-242 -117q-23 49 -47 69.5t-59 20.5q-78 0 -99.5 -71.5t-21.5 -190.5q0 -129 23.5 -189.5t97.5 -60.5q37 0 61.5 21.5t47.5 66.5l241 -119q-41 -113 -136 -172t-224 -59q-115 0 -192 38 t-123 106.5t-65.5 162.5t-19.5 205zM307 1143v266h273v-266h-273z" />
<glyph unicode="&#x10c;" horiz-adv-x="1052" d="M92 471v508q0 80 24.5 161t79 146.5t141.5 107.5t212 42q98 0 176 -30t133 -79t90 -113.5t49 -134.5l-280 -84q-4 20 -13.5 48t-30 50.5t-51 39t-73.5 16.5q-45 0 -76 -15.5t-49 -39t-26.5 -51t-8.5 -52.5v-528q0 -82 36 -135.5t124 -53.5q61 0 108.5 40t55.5 110 l282 -82q-31 -166 -151.5 -260t-294.5 -94q-123 0 -210 39t-141.5 105.5t-80 154.5t-25.5 184zM168 1755l102 109l275 -162l274 162l107 -109l-287 -266h-182z" />
<glyph unicode="&#x10d;" horiz-adv-x="864" d="M59 502q0 111 19.5 207t65.5 166.5t122 110.5t189 40q129 0 225 -59.5t137 -175.5l-242 -117q-23 49 -47 69.5t-59 20.5q-78 0 -99.5 -71.5t-21.5 -190.5q0 -129 23.5 -189.5t97.5 -60.5q37 0 61.5 21.5t47.5 66.5l241 -119q-41 -113 -136 -172t-224 -59q-115 0 -192 38 t-123 106.5t-65.5 162.5t-19.5 205zM66 1382l108 99q18 -12 55 -41t79 -60.5t80 -60.5t56 -41l269 203l110 -99l-282 -321h-187z" />
<glyph unicode="&#x10e;" horiz-adv-x="1130" d="M111 1755l102 109l274 -162l275 162l106 -109l-286 -266h-183zM125 0v1425h471q143 0 244.5 -53t148.5 -176q29 -72 34 -177.5t5 -234.5q0 -186 -2 -316t-37 -222q-27 -72 -68.5 -119t-97 -74.5t-120 -40t-134.5 -12.5h-444zM420 274h125q113 0 150.5 57.5t37.5 157.5 v345q0 61 -6 118.5t-25.5 101.5t-57.5 69.5t-101 25.5h-123v-875z" />
<glyph unicode="&#x10f;" horiz-adv-x="1175" d="M68 514q0 92 11 183t46 164t98.5 119t167.5 46q39 0 92.5 -23.5t81.5 -62.5l8 2v545h287v-1487h-287v72l-6 4q-35 -45 -85 -65.5t-95 -20.5q-115 0 -179.5 47t-95 121.5t-37.5 169t-7 186.5zM362 522q0 -55 4.5 -104t15.5 -84t31.5 -55.5t55.5 -20.5q68 0 86 62.5 t18 181.5q0 41 -2 86t-13 83t-31.5 62.5t-57.5 24.5t-58.5 -21.5t-31.5 -55.5t-13.5 -76t-3.5 -83zM940 999l66 222h-60v268h279v-258l-148 -232h-137z" />
<glyph unicode="&#x110;" horiz-adv-x="1130" d="M33 637v180h92v608h471q143 0 244.5 -53t148.5 -176q29 -72 34 -177.5t5 -234.5q0 -186 -2 -316t-37 -222q-27 -72 -68.5 -119t-97 -74.5t-120 -40t-134.5 -12.5h-444v637h-92zM420 274h125q113 0 150.5 57.5t37.5 157.5v345q0 61 -6 118.5t-25.5 101.5t-57.5 69.5 t-101 25.5h-123v-332h192v-180h-192v-363z" />
<glyph unicode="&#x111;" horiz-adv-x="978" d="M76 514q0 92 11 183t46 164t98.5 119t167.5 46q39 0 92.5 -23.5t81.5 -62.5l9 2v199h-246v168h246v178h286v-178h88v-168h-88v-1141h-286v72l-7 4q-35 -45 -85 -65.5t-95 -20.5q-115 0 -179 47t-95 121.5t-38 169t-7 186.5zM371 522q0 -55 4 -104t15 -84t31.5 -55.5 t55.5 -20.5q68 0 86.5 62.5t18.5 181.5q0 41 -2 86t-13.5 83t-32 62.5t-57.5 24.5t-58.5 -21.5t-31.5 -55.5t-13 -76t-3 -83z" />
<glyph unicode="&#x112;" horiz-adv-x="1003" d="M125 0v1425h829v-274h-532v-295h459v-272h-459v-303h532v-281h-829zM233 1540v234h598v-234h-598z" />
<glyph unicode="&#x113;" horiz-adv-x="950" d="M74 506q0 119 20.5 215t67.5 163.5t125 104.5t194 37q123 0 201 -41t122 -109.5t60.5 -160.5t16.5 -197v-80h-516v-16q0 -35 4 -65.5t16 -54t33.5 -37t56.5 -13.5q43 0 78 19.5t70 70.5l239 -129q-53 -115 -157.5 -169t-227.5 -54q-113 0 -189.5 34.5t-124.5 101.5 t-68.5 162t-20.5 218zM182 1171v234h598v-234h-598zM365 618h215q0 27 -4.5 53.5t-15.5 47t-32.5 33t-56.5 12.5q-29 0 -49.5 -13.5t-32.5 -34t-17 -47t-7 -51.5z" />
<glyph unicode="&#x114;" horiz-adv-x="1003" d="M125 0v1425h829v-274h-532v-295h459v-272h-459v-303h532v-281h-829zM213 1827h211q0 -23 9 -48.5t24.5 -47t38 -37t51.5 -15.5q31 0 52.5 15.5t36.5 37t22.5 47t7.5 48.5h213q-4 -49 -23.5 -108.5t-58.5 -111t-100.5 -86t-149.5 -34.5q-92 0 -154.5 34.5t-101.5 86 t-57.5 111t-20.5 108.5z" />
<glyph unicode="&#x115;" horiz-adv-x="950" d="M74 506q0 119 20.5 215t67.5 163.5t125 104.5t194 37q123 0 201 -41t122 -109.5t60.5 -160.5t16.5 -197v-80h-516v-16q0 -35 4 -65.5t16 -54t33.5 -37t56.5 -13.5q43 0 78 19.5t70 70.5l239 -129q-53 -115 -157.5 -169t-227.5 -54q-113 0 -189.5 34.5t-124.5 101.5 t-68.5 162t-20.5 218zM150 1456h210q0 -23 9.5 -48.5t25 -48t38 -36.5t50.5 -14q31 0 52.5 14t37 36.5t22.5 48.5t7 48h213q-4 -51 -23.5 -111.5t-58.5 -112.5t-100.5 -87t-149.5 -35q-92 0 -154.5 35t-101.5 87t-57 112.5t-20 111.5zM365 618h215q0 27 -4.5 53.5t-15.5 47 t-32.5 33t-56.5 12.5q-29 0 -49.5 -13.5t-32.5 -34t-17 -47t-7 -51.5z" />
<glyph unicode="&#x116;" horiz-adv-x="1003" d="M125 0v1425h829v-274h-532v-295h459v-272h-459v-303h532v-281h-829zM408 1511v267h272v-267h-272z" />
<glyph unicode="&#x117;" horiz-adv-x="950" d="M74 506q0 119 20.5 215t67.5 163.5t125 104.5t194 37q123 0 201 -41t122 -109.5t60.5 -160.5t16.5 -197v-80h-516v-16q0 -35 4 -65.5t16 -54t33.5 -37t56.5 -13.5q43 0 78 19.5t70 70.5l239 -129q-53 -115 -157.5 -169t-227.5 -54q-113 0 -189.5 34.5t-124.5 101.5 t-68.5 162t-20.5 218zM348 1143v266h273v-266h-273zM365 618h215q0 27 -4.5 53.5t-15.5 47t-32.5 33t-56.5 12.5q-29 0 -49.5 -13.5t-32.5 -34t-17 -47t-7 -51.5z" />
<glyph unicode="&#x118;" horiz-adv-x="1003" d="M125 0v1425h829v-274h-532v-295h459v-272h-459v-303h532v-281q-47 -70 -61 -119t-14 -76q0 -35 21.5 -53t55.5 -18q18 0 48 7t71 23l51 -131q-49 -29 -104 -44t-107 -15q-92 0 -152.5 56.5t-60.5 146.5q0 45 19.5 100t64.5 123h-661z" />
<glyph unicode="&#x119;" horiz-adv-x="950" d="M74 506q0 119 20.5 215t67.5 163.5t125 104.5t194 37q123 0 201 -41t122 -109.5t60.5 -160.5t16.5 -197v-80h-516v-16q0 -35 4 -65.5t16 -54t33.5 -37t56.5 -13.5q43 0 78 19.5t70 70.5l239 -129q-45 -98 -131 -152q-47 -70 -61.5 -118.5t-14.5 -75.5q0 -35 21.5 -53.5 t56.5 -18.5q18 0 48 7.5t71 23.5l51 -131q-49 -29 -104.5 -44.5t-106.5 -15.5q-92 0 -152.5 56.5t-60.5 146.5q0 63 43 154q-10 0 -22.5 -1t-22.5 -1q-113 0 -189.5 34.5t-124.5 101.5t-68.5 162t-20.5 218zM365 618h215q0 27 -4.5 53.5t-15.5 47t-32.5 33t-56.5 12.5 q-29 0 -49.5 -13.5t-32.5 -34t-17 -47t-7 -51.5z" />
<glyph unicode="&#x11a;" horiz-adv-x="1003" d="M125 0v1425h829v-274h-532v-295h459v-272h-459v-303h532v-281h-829zM164 1755l102 109l275 -162l274 162l107 -109l-287 -266h-182z" />
<glyph unicode="&#x11b;" horiz-adv-x="950" d="M74 506q0 119 20.5 215t67.5 163.5t125 104.5t194 37q123 0 201 -41t122 -109.5t60.5 -160.5t16.5 -197v-80h-516v-16q0 -35 4 -65.5t16 -54t33.5 -37t56.5 -13.5q43 0 78 19.5t70 70.5l239 -129q-53 -115 -157.5 -169t-227.5 -54q-113 0 -189.5 34.5t-124.5 101.5 t-68.5 162t-20.5 218zM100 1382l109 99q18 -12 55 -41t79 -60.5t80 -60.5t56 -41l269 203l110 -99l-283 -321h-186zM365 618h215q0 27 -4.5 53.5t-15.5 47t-32.5 33t-56.5 12.5q-29 0 -49.5 -13.5t-32.5 -34t-17 -47t-7 -51.5z" />
<glyph unicode="&#x11c;" horiz-adv-x="1103" d="M102 471v508q0 80 25 161t79 146.5t141 107.5t212 42q98 0 176 -30t133.5 -79t90 -113.5t49.5 -134.5l-281 -84q-4 20 -13 48t-29.5 50.5t-51.5 39t-74 16.5q-45 0 -75.5 -15.5t-49 -39t-27 -51t-8.5 -52.5v-528q0 -80 36 -135.5t122 -55.5q94 0 132 46.5t38 111.5v111 h-192v252h487v-310q0 -111 -28.5 -202t-87 -156.5t-145.5 -101t-202 -35.5q-123 0 -210 39t-141 105.5t-80 154.5t-26 184zM170 1591l291 271h180l287 -271l-105 -108l-274 162l-277 -162z" />
<glyph unicode="&#x11d;" horiz-adv-x="956" d="M66 506q0 82 8 173t39.5 168t95 127t174.5 50q45 0 96 -22.5t86 -67.5l6 4v76h287v-1028q0 -92 -25.5 -167t-76.5 -128t-128 -83t-177 -30q-227 0 -363 160l201 186q70 -86 162 -86q49 0 84.5 29t35.5 80v147l-8 2q-14 -20 -36.5 -36.5t-48 -29t-51.5 -19.5t-46 -7 q-111 0 -174.5 46t-95 118t-38.5 162t-7 176zM109 1159l288 322h187l282 -320l-110 -100l-269 203q-18 -12 -56 -41t-80 -61t-78.5 -59.5t-55.5 -39.5zM356 498q0 -41 3 -81t13.5 -72t32 -51.5t58.5 -19.5t58.5 22.5t32.5 57.5t14 79t3 85q0 119 -20.5 178.5t-87.5 59.5 q-35 0 -55.5 -19.5t-31.5 -53.5t-15.5 -82t-4.5 -103z" />
<glyph unicode="&#x11e;" horiz-adv-x="1103" d="M102 471v508q0 80 25 161t79 146.5t141 107.5t212 42q98 0 176 -30t133.5 -79t90 -113.5t49.5 -134.5l-281 -84q-4 20 -13 48t-29.5 50.5t-51.5 39t-74 16.5q-45 0 -75.5 -15.5t-49 -39t-27 -51t-8.5 -52.5v-528q0 -80 36 -135.5t122 -55.5q94 0 132 46.5t38 111.5v111 h-192v252h487v-310q0 -111 -28.5 -202t-87 -156.5t-145.5 -101t-202 -35.5q-123 0 -210 39t-141 105.5t-80 154.5t-26 184zM231 1831h211q0 -23 9.5 -48.5t25 -47t38 -37t50.5 -15.5q31 0 52.5 15.5t37 37t22.5 47t7 48.5h213q-4 -49 -23.5 -108.5t-58.5 -110.5t-100.5 -86 t-149.5 -35q-92 0 -154.5 35t-101.5 86t-57.5 110.5t-20.5 108.5z" />
<glyph unicode="&#x11f;" horiz-adv-x="956" d="M66 506q0 82 8 173t39.5 168t95 127t174.5 50q45 0 96 -22.5t86 -67.5l6 4v76h287v-1028q0 -92 -25.5 -167t-76.5 -128t-128 -83t-177 -30q-227 0 -363 160l201 186q70 -86 162 -86q49 0 84.5 29t35.5 80v147l-8 2q-14 -20 -36.5 -36.5t-48 -29t-51.5 -19.5t-46 -7 q-111 0 -174.5 46t-95 118t-38.5 162t-7 176zM164 1456h211q0 -23 9 -48.5t24.5 -48t38 -36.5t51.5 -14q31 0 52 14t36.5 36.5t22.5 48.5t7 48h213q-4 -51 -23.5 -111.5t-58 -112.5t-100 -87t-149.5 -35q-92 0 -154.5 35t-101.5 87t-57.5 112.5t-20.5 111.5zM356 498 q0 -41 3 -81t13.5 -72t32 -51.5t58.5 -19.5t58.5 22.5t32.5 57.5t14 79t3 85q0 119 -20.5 178.5t-87.5 59.5q-35 0 -55.5 -19.5t-31.5 -53.5t-15.5 -82t-4.5 -103z" />
<glyph unicode="&#x120;" horiz-adv-x="1103" d="M102 471v508q0 80 25 161t79 146.5t141 107.5t212 42q98 0 176 -30t133.5 -79t90 -113.5t49.5 -134.5l-281 -84q-4 20 -13 48t-29.5 50.5t-51.5 39t-74 16.5q-45 0 -75.5 -15.5t-49 -39t-27 -51t-8.5 -52.5v-528q0 -80 36 -135.5t122 -55.5q94 0 132 46.5t38 111.5v111 h-192v252h487v-310q0 -111 -28.5 -202t-87 -156.5t-145.5 -101t-202 -35.5q-123 0 -210 39t-141 105.5t-80 154.5t-26 184zM418 1511v267h272v-267h-272z" />
<glyph unicode="&#x121;" horiz-adv-x="956" d="M66 506q0 82 8 173t39.5 168t95 127t174.5 50q45 0 96 -22.5t86 -67.5l6 4v76h287v-1028q0 -92 -25.5 -167t-76.5 -128t-128 -83t-177 -30q-227 0 -363 160l201 186q70 -86 162 -86q49 0 84.5 29t35.5 80v147l-8 2q-14 -20 -36.5 -36.5t-48 -29t-51.5 -19.5t-46 -7 q-111 0 -174.5 46t-95 118t-38.5 162t-7 176zM356 498q0 -41 3 -81t13.5 -72t32 -51.5t58.5 -19.5t58.5 22.5t32.5 57.5t14 79t3 85q0 119 -20.5 178.5t-87.5 59.5q-35 0 -55.5 -19.5t-31.5 -53.5t-15.5 -82t-4.5 -103zM381 1143v266h272v-266h-272z" />
<glyph unicode="&#x122;" horiz-adv-x="1103" d="M102 471v508q0 80 25 161t79 146.5t141 107.5t212 42q98 0 176 -30t133.5 -79t90 -113.5t49.5 -134.5l-281 -84q-4 20 -13 48t-29.5 50.5t-51.5 39t-74 16.5q-45 0 -75.5 -15.5t-49 -39t-27 -51t-8.5 -52.5v-528q0 -80 36 -135.5t122 -55.5q94 0 132 46.5t38 111.5v111 h-192v252h487v-310q0 -111 -28.5 -202t-87 -156.5t-145.5 -101t-202 -35.5q-123 0 -210 39t-141 105.5t-80 154.5t-26 184zM395 -604l66 221h-60v268h279v-258l-148 -231h-137z" />
<glyph unicode="&#x123;" horiz-adv-x="956" d="M66 506q0 82 8 173t39.5 168t95 127t174.5 50q45 0 96 -22.5t86 -67.5l6 4v76h287v-1028q0 -92 -25.5 -167t-76.5 -128t-128 -83t-177 -30q-227 0 -363 160l201 186q70 -86 162 -86q49 0 84.5 29t35.5 80v147l-8 2q-14 -20 -36.5 -36.5t-48 -29t-51.5 -19.5t-46 -7 q-111 0 -174.5 46t-95 118t-38.5 162t-7 176zM356 498q0 -41 3 -81t13.5 -72t32 -51.5t58.5 -19.5t58.5 22.5t32.5 57.5t14 79t3 85q0 119 -20.5 178.5t-87.5 59.5q-35 0 -55.5 -19.5t-31.5 -53.5t-15.5 -82t-4.5 -103zM369 1176v258l147 229h135l-63 -219h57v-268h-276z " />
<glyph unicode="&#x124;" horiz-adv-x="1161" d="M123 0v1425h297v-569h323v569h293v-1425h-293v586h-323v-586h-297zM195 1591l290 271h181l286 -271l-104 -108l-275 162l-276 -162z" />
<glyph unicode="&#x125;" horiz-adv-x="987" d="M-137 1591l291 271h180l287 -271l-105 -108l-274 162l-277 -162zM109 0v1487h286v-549l11 -2q35 35 85 61.5t103 26.5q141 0 218 -87t77 -228v-709h-287v641q0 59 -29.5 87t-70.5 28q-45 0 -76 -30t-31 -87v-639h-286z" />
<glyph unicode="&#x126;" horiz-adv-x="1161" d="M29 1057v162h94v206h297v-206h323v206h293v-206h88v-162h-88v-1057h-293v586h-323v-586h-297v1057h-94zM420 856h323v201h-323v-201z" />
<glyph unicode="&#x127;" horiz-adv-x="987" d="M0 1153v164h109v170h286v-170h273v-164h-273v-215l11 -2q35 35 85 61.5t103 26.5q141 0 218 -87t77 -228v-709h-287v641q0 59 -29.5 87t-70.5 28q-45 0 -76 -30t-31 -87v-639h-286v1153h-109z" />
<glyph unicode="&#x128;" horiz-adv-x="677" d="M-41 1569q49 111 113.5 162t140.5 51q37 0 70.5 -14.5t64.5 -30t57.5 -28.5t49.5 -13q33 0 59.5 18.5t67.5 69.5q35 -18 68.5 -38t68.5 -40q-53 -117 -110.5 -165t-123.5 -48q-39 0 -73.5 13.5t-67.5 28.5t-61.5 28.5t-55.5 13.5q-31 0 -62.5 -18.5t-72.5 -71.5zM195 0 v1425h297v-1425h-297z" />
<glyph unicode="&#x129;" horiz-adv-x="677" d="M-41 1221q49 111 113.5 162t140.5 51q37 0 70.5 -14.5t64.5 -30t57.5 -28.5t49.5 -13q33 0 59.5 18t67.5 70q35 -18 68.5 -38t68.5 -40q-53 -117 -110.5 -165t-123.5 -48q-39 0 -73.5 13t-67.5 28.5t-61.5 29t-55.5 13.5q-31 0 -62.5 -18.5t-72.5 -71.5zM203 0v1014h286 v-1014h-286z" />
<glyph unicode="&#x12a;" horiz-adv-x="548" d="M-25 1540v234h598v-234h-598zM129 0v1425h297v-1425h-297z" />
<glyph unicode="&#x12b;" horiz-adv-x="557" d="M-20 1171v234h598v-234h-598zM135 0v1014h287v-1014h-287z" />
<glyph unicode="&#x12c;" horiz-adv-x="589" d="M-10 1841h211q0 -23 9 -48.5t24.5 -47t38 -36.5t51.5 -15q31 0 52 15t36.5 36.5t22.5 47.5t7 48h213q-4 -49 -23.5 -108.5t-58 -110.5t-100 -86t-149.5 -35q-92 0 -155 35t-101.5 86t-57 110.5t-20.5 108.5zM162 0v1425h297v-1425h-297z" />
<glyph unicode="&#x12d;" horiz-adv-x="583" d="M-41 1456h211q0 -23 9 -48.5t24.5 -48t38 -36.5t51.5 -14q31 0 52.5 14t36.5 36.5t22.5 48.5t7.5 48h213q-4 -51 -23.5 -111.5t-58.5 -112.5t-100.5 -87t-149.5 -35q-92 0 -154.5 35t-101.5 87t-57.5 112.5t-20.5 111.5zM147 0v1014h287v-1014h-287z" />
<glyph unicode="&#x12e;" horiz-adv-x="548" d="M106 -221q0 45 19.5 99t62.5 122h-59v1425h297v-1425h-68q-47 -70 -61 -118t-14 -75q0 -35 21.5 -53t55.5 -18q18 0 48 7t71 24l51 -132q-49 -29 -104 -44t-107 -15q-92 0 -152.5 56.5t-60.5 146.5z" />
<glyph unicode="&#x12f;" horiz-adv-x="518" d="M90 -221q0 45 19.5 99t62.5 122h-55v1014h286v-1014h-61q-47 -70 -61.5 -118t-14.5 -75q0 -35 21.5 -53t56.5 -18q18 0 48 7t71 24l51 -132q-49 -29 -104.5 -44t-106.5 -15q-92 0 -152.5 56.5t-60.5 146.5zM117 1165v260h286v-260h-286z" />
<glyph unicode="&#x130;" horiz-adv-x="548" d="M129 0v1425h297v-1425h-297zM135 1511v267h273v-267h-273z" />
<glyph unicode="&#x131;" horiz-adv-x="518" d="M117 0v1014h286v-1014h-286z" />
<glyph unicode="&#x132;" horiz-adv-x="1417" d="M129 0v1425h297v-1425h-297zM498 170l194 199q18 -29 41 -48.5t46.5 -32t46 -17.5t38.5 -5q63 0 97 42t34 106v1011h295v-1022q0 -111 -32.5 -188.5t-89 -127.5t-133.5 -73.5t-163 -23.5q-111 0 -206 41t-168 139z" />
<glyph unicode="&#x133;" horiz-adv-x="1028" d="M117 0v1014h286v-1014h-286zM117 1165v260h286v-260h-286zM475 -147h51q57 0 74.5 40.5t17.5 92.5v1030h287v-1106q0 -156 -97 -236t-261 -80h-72v259zM618 1165v260h287v-260h-287z" />
<glyph unicode="&#x134;" horiz-adv-x="892" d="M-16 172l194 199q18 -29 41 -48.5t46.5 -31.5t46 -17.5t38.5 -5.5q63 0 97 42t34 106v1011h295v-1021q0 -111 -32.5 -189t-89 -128t-133.5 -73.5t-163 -23.5q-111 0 -206 41t-168 139zM246 1595l291 271h180l287 -271l-105 -108l-274 162l-277 -162z" />
<glyph unicode="&#x135;" horiz-adv-x="675" d="M-41 1159l289 322h186l283 -320l-111 -100l-268 203q-18 -12 -56 -41t-80 -61t-79 -59.5t-55 -39.5zM43 -147h51q57 0 75.5 40.5t18.5 92.5v1030h287v-1106q0 -156 -98 -236t-260 -80h-74v259z" />
<glyph unicode="&#x136;" horiz-adv-x="1130" d="M123 0v1425h297v-528h10q18 27 36.5 58.5t53.5 88t93.5 146.5t156.5 235h352l-397 -583q106 -211 212.5 -421t215.5 -421h-336q-72 141 -138.5 282.5t-137.5 284.5l-121 -186v-381h-297zM455 -563l65 221h-59v268h278v-258l-147 -231h-137z" />
<glyph unicode="&#x137;" horiz-adv-x="989" d="M109 0v1483h284v-764h6l217 293h363l-330 -402l348 -610h-344l-198 377l-62 -84v-293h-284zM371 -604l65 221h-59v268h278v-258l-147 -231h-137z" />
<glyph unicode="&#x138;" horiz-adv-x="989" d="M109 0v1012h284v-293h6l217 293h363l-330 -402l348 -610h-333l-201 381l-70 -88v-293h-284z" />
<glyph unicode="&#x139;" horiz-adv-x="987" d="M125 0v1425h297v-1144h532v-281h-829zM152 1626l354 264l172 -204l-420 -199z" />
<glyph unicode="&#x13a;" horiz-adv-x="532" d="M98 283v1204h287v-1141q0 -59 21.5 -77.5t62.5 -18.5h33v-254h-105q-143 0 -221 64.5t-78 222.5zM104 1657l355 264l172 -205l-420 -198z" />
<glyph unicode="&#x13b;" horiz-adv-x="987" d="M125 0v1425h297v-1144h532v-281h-829zM403 -604l66 221h-59v268h278v-258l-147 -231h-138z" />
<glyph unicode="&#x13c;" horiz-adv-x="532" d="M98 283v1204h287v-1141q0 -59 21.5 -77.5t62.5 -18.5h33v-254h-105q-143 0 -221 64.5t-78 222.5zM143 -600l66 221h-59v268h278v-258l-147 -231h-138z" />
<glyph unicode="&#x13d;" horiz-adv-x="987" d="M125 0v1425h297v-1144h532v-281h-829zM557 936l66 221h-60v268h279v-258l-148 -231h-137z" />
<glyph unicode="&#x13e;" horiz-adv-x="722" d="M98 283v1204h287v-1141q0 -59 21.5 -77.5t62.5 -18.5h33v-254h-105q-143 0 -221 64.5t-78 222.5zM465 993l65 221h-59v269h279v-258l-148 -232h-137z" />
<glyph unicode="&#x13f;" horiz-adv-x="987" d="M125 0v1425h297v-1144h532v-281h-829zM600 618v267h272v-267h-272z" />
<glyph unicode="&#x140;" horiz-adv-x="704" d="M98 283v1204h287v-1141q0 -59 21.5 -77.5t62.5 -18.5h33v-254h-105q-143 0 -221 64.5t-78 222.5zM461 655v267h272v-267h-272z" />
<glyph unicode="&#x141;" horiz-adv-x="1048" d="M0 567l186 119v739h297v-548l152 98l94 -150l-246 -157v-392h533v-276h-830v477l-92 -59z" />
<glyph unicode="&#x142;" horiz-adv-x="671" d="M0 645l182 115v727h287v-543l106 68l95 -150l-201 -129v-387q0 -59 21.5 -77.5t62.5 -18.5h33v-254h-105q-143 0 -221 64.5t-78 222.5v268l-86 -55z" />
<glyph unicode="&#x143;" horiz-adv-x="1220" d="M121 0v1425h262l233 -426l187 -344l6 2v768h295v-1425h-260l-264 471l-156 305l-6 -2v-774h-297zM393 1626l355 264l172 -204l-420 -199z" />
<glyph unicode="&#x144;" horiz-adv-x="987" d="M104 0v1014h287v-82l8 -2q35 41 87.5 67.5t105.5 26.5q154 0 223.5 -84t69.5 -227v-713h-287v641q0 59 -29.5 87t-70.5 28q-45 0 -76 -30t-31 -87v-639h-287zM330 1167l190 400l246 -99l-277 -374z" />
<glyph unicode="&#x145;" horiz-adv-x="1220" d="M121 0v1425h262l233 -426l187 -344l6 2v768h295v-1425h-260l-264 475l-156 301l-6 -2v-774h-297zM471 -563l66 221h-60v268h279v-258l-148 -231h-137z" />
<glyph unicode="&#x146;" horiz-adv-x="987" d="M104 0v1014h287v-82l8 -2q35 41 87.5 67.5t105.5 26.5q154 0 223.5 -84t69.5 -227v-713h-287v641q0 59 -29.5 87t-70.5 28q-45 0 -76 -30t-31 -87v-639h-287zM342 -604l66 221h-60v268h279v-258l-148 -231h-137z" />
<glyph unicode="&#x147;" horiz-adv-x="1220" d="M121 0v1425h262l233 -426l187 -344l6 2v768h295v-1425h-260l-264 475l-156 301l-6 -2v-774h-297zM240 1755l102 109l274 -162l275 162l106 -109l-286 -266h-183z" />
<glyph unicode="&#x148;" horiz-adv-x="987" d="M86 1382l109 99q18 -12 55 -41t79 -60.5t79.5 -60.5t56.5 -41l268 203l111 -99l-283 -321h-186zM104 0v1014h287v-82l8 -2q35 41 87.5 67.5t105.5 26.5q154 0 223.5 -84t69.5 -227v-713h-287v641q0 59 -29.5 87t-70.5 28q-45 0 -76 -30t-31 -87v-639h-287z" />
<glyph unicode="&#x149;" horiz-adv-x="1067" d="M-23 885l66 221h-59v268h278v-258l-147 -231h-138zM266 0v1014h287v-82l8 -2q35 41 87 67.5t106 26.5q154 0 223.5 -84t69.5 -227v-713h-287v641q0 59 -30 87t-71 28q-45 0 -75.5 -30t-30.5 -87v-639h-287z" />
<glyph unicode="&#x14a;" horiz-adv-x="1220" d="M121 0v1425h262q57 -106 116.5 -211.5t116.5 -214.5l185 -344q4 0 4 1t4 1v768h293v-1536q0 -78 -22.5 -129t-59.5 -81.5t-86 -44t-103 -13.5q-76 0 -155 23l22 231q47 0 83 6t36 49v133l-194 355l-199 370q-4 0 -4 -1t-4 -1v-786h-295z" />
<glyph unicode="&#x14b;" horiz-adv-x="987" d="M104 0v1014h287v-82q2 0 3 -1t3 -1q37 39 95.5 66.5t111.5 27.5q94 0 149.5 -29.5t84 -81t37 -120t8.5 -146.5v-758q0 -78 -22.5 -129t-59.5 -81.5t-86 -44t-103 -13.5q-76 0 -155 23l22 231q47 0 83 6t36 49v711q0 59 -29.5 87t-72.5 28q-45 0 -75 -30t-30 -87v-639 h-287z" />
<glyph unicode="&#x14c;" horiz-adv-x="1095" d="M90 471v508q0 80 24.5 161t80 146.5t142.5 107.5t212 42q117 0 203 -40t141 -104.5t83 -146.5t28 -166v-530q0 -106 -34 -191.5t-94.5 -146t-143.5 -92t-183 -31.5q-123 0 -210 39t-142.5 105.5t-81 154.5t-25.5 184zM246 1540v234h598v-234h-598zM385 463 q0 -82 38 -135.5t126 -53.5q63 0 109.5 41t46.5 113v563q0 20 -7.5 47t-26 51.5t-48 42t-74.5 17.5t-76 -15.5t-50.5 -39t-28.5 -51t-9 -52.5v-528z" />
<glyph unicode="&#x14d;" horiz-adv-x="940" d="M74 504q2 86 10 173t31 140q43 98 132 154.5t232 56.5q141 0 224 -55t118 -139q29 -66 37 -149t8 -181q0 -109 -11 -188.5t-40 -139.5q-53 -109 -146.5 -149.5t-209.5 -40.5q-104 0 -177 32.5t-120 92.5q-49 66 -68.5 162t-19.5 231zM180 1171v234h598v-234h-598z M358 500q0 -51 3.5 -98.5t17.5 -82.5q25 -70 92 -69q14 0 29.5 3t30 14.5t25.5 33t17 55.5q4 29 7.5 71t3.5 97q0 106 -21 166q-27 74 -88 74q-68 0 -96 -72q-12 -35 -16.5 -81t-4.5 -111z" />
<glyph unicode="&#x14e;" horiz-adv-x="1095" d="M90 471v508q0 80 24.5 161t80 146.5t142.5 107.5t212 42q117 0 203 -40t141 -104.5t83 -146.5t28 -166v-530q0 -106 -34 -191.5t-94.5 -146t-143.5 -92t-183 -31.5q-123 0 -210 39t-142.5 105.5t-81 154.5t-25.5 184zM215 1831h211q0 -23 9 -48.5t24.5 -47t38 -37 t51.5 -15.5q31 0 52.5 15.5t36.5 37t22.5 47t7.5 48.5h213q-4 -49 -23.5 -108.5t-58.5 -110.5t-100.5 -86t-149.5 -35q-92 0 -154.5 35t-101.5 86t-57.5 110.5t-20.5 108.5zM385 463q0 -82 38 -135.5t126 -53.5q63 0 109.5 41t46.5 113v563q0 20 -7.5 47t-26 51.5t-48 42 t-74.5 17.5t-76 -15.5t-50.5 -39t-28.5 -51t-9 -52.5v-528z" />
<glyph unicode="&#x14f;" horiz-adv-x="940" d="M74 504q2 86 10 173t31 140q43 98 132 154.5t232 56.5q141 0 224 -55t118 -139q29 -66 37 -149t8 -181q0 -109 -11 -188.5t-40 -139.5q-53 -109 -146.5 -149.5t-209.5 -40.5q-104 0 -177 32.5t-120 92.5q-49 66 -68.5 162t-19.5 231zM141 1456h211q0 -23 9.5 -48.5 t24.5 -48t37.5 -36.5t51.5 -14q31 0 52.5 14t37 36.5t22.5 48.5t7 48h213q-4 -51 -23.5 -111.5t-58.5 -112.5t-100.5 -87t-149.5 -35q-92 0 -154.5 35t-101.5 87t-57.5 112.5t-20.5 111.5zM358 500q0 -51 3.5 -98.5t17.5 -82.5q25 -70 92 -69q14 0 29.5 3t30 14.5t25.5 33 t17 55.5q4 29 7.5 71t3.5 97q0 106 -21 166q-27 74 -88 74q-68 0 -96 -72q-12 -35 -16.5 -81t-4.5 -111z" />
<glyph unicode="&#x150;" horiz-adv-x="1095" d="M90 471v508q0 80 24.5 161t80 146.5t142.5 107.5t212 42q117 0 203 -40t141 -104.5t83 -146.5t28 -166v-530q0 -106 -34 -191.5t-94.5 -146t-143.5 -92t-183 -31.5q-123 0 -210 39t-142.5 105.5t-81 154.5t-25.5 184zM162 1599l325 299l185 -174l-389 -254zM385 463 q0 -82 38 -135.5t126 -53.5q63 0 109.5 41t46.5 113v563q0 20 -7.5 47t-26 51.5t-48 42t-74.5 17.5t-76 -15.5t-50.5 -39t-28.5 -51t-9 -52.5v-528zM578 1604l331 292l183 -176l-396 -245z" />
<glyph unicode="&#x151;" horiz-adv-x="940" d="M74 504q2 86 10 173t31 140q43 98 132 154.5t232 56.5q141 0 224 -55t118 -139q29 -66 37 -149t8 -181q0 -109 -11 -188.5t-40 -139.5q-53 -109 -146.5 -149.5t-209.5 -40.5q-104 0 -177 32.5t-120 92.5q-49 66 -68.5 162t-19.5 231zM172 1196l190 399l246 -98l-276 -375 zM358 500q0 -51 3.5 -98.5t17.5 -82.5q25 -70 92 -69q14 0 29.5 3t30 14.5t25.5 33t17 55.5q4 29 7.5 71t3.5 97q0 106 -21 166q-27 74 -88 74q-68 0 -96 -72q-12 -35 -16.5 -81t-4.5 -111zM496 1167l190 400l246 -99l-277 -374z" />
<glyph unicode="&#x152;" horiz-adv-x="1523" d="M90 471v508q0 80 24.5 161t80 146.5t142.5 107.5t212 42q29 0 56.5 -3t51.5 -8h816v-274h-533v-295h459v-272h-459v-303h533v-281h-807q-55 -12 -117 -12q-123 0 -210 39t-142.5 105.5t-81 154.5t-25.5 184zM385 463q0 -82 38 -135.5t126 -53.5q53 0 94 29v817 q-18 12 -41.5 20.5t-52.5 8.5q-45 0 -76 -15.5t-50.5 -39t-28.5 -51t-9 -52.5v-528z" />
<glyph unicode="&#x153;" horiz-adv-x="1458" d="M70 504q2 86 12 173t33 140q43 98 137 154.5t227 56.5q86 0 148.5 -21.5t107.5 -58.5q47 39 111.5 58.5t150.5 19.5q123 0 201 -41t122 -109.5t60.5 -160.5t16.5 -197v-80h-516v-16q0 -35 4 -65.5t16 -54t33.5 -37t56.5 -13.5q43 0 78 19.5t70 70.5l239 -129 q-53 -115 -157.5 -169t-227.5 -54q-166 0 -260 78q-53 -47 -123.5 -64.5t-150.5 -17.5q-104 0 -177 32.5t-120 92.5q-49 66 -70.5 162t-21.5 231zM358 500q0 -51 3.5 -98.5t17.5 -82.5q25 -70 92 -69q14 0 29.5 3t30 14.5t25.5 33t17 55.5q4 29 6.5 71t2.5 97q0 53 -4.5 94 t-14.5 72q-27 74 -88 74q-68 0 -96 -72q-12 -35 -16.5 -81t-4.5 -111zM881 618h215q0 27 -4.5 53.5t-15.5 47t-32.5 33t-56.5 12.5q-29 0 -49 -13.5t-32.5 -34t-17.5 -47t-7 -51.5z" />
<glyph unicode="&#x154;" horiz-adv-x="1124" d="M125 0v1425h471q90 0 171 -24.5t141.5 -75.5t95 -130t34.5 -189q0 -137 -53 -235.5t-156 -154.5l230 -616h-322l-190 563h-125v-563h-297zM317 1626l355 264l172 -204l-420 -199zM422 834h160q72 0 122 38t50 132q0 82 -46 116.5t-118 34.5h-168v-321z" />
<glyph unicode="&#x155;" horiz-adv-x="745" d="M113 -2v1016h284v-113l6 -2q39 68 96.5 96.5t125.5 28.5q33 0 62.5 -6t55.5 -25l-51 -266q-35 16 -65.5 22.5t-59.5 6.5q-76 0 -121 -40t-45 -132v-586h-288zM242 1167l190 400l246 -99l-277 -374z" />
<glyph unicode="&#x156;" horiz-adv-x="1124" d="M125 0v1425h471q90 0 171 -24.5t141.5 -75.5t95 -130t34.5 -189q0 -137 -53 -235.5t-156 -154.5l230 -616h-322l-190 563h-125v-563h-297zM422 834h160q72 0 122 38t50 132q0 82 -46 116.5t-118 34.5h-168v-321zM440 -563l66 221h-60v268h279v-258l-147 -231h-138z" />
<glyph unicode="&#x157;" horiz-adv-x="745" d="M113 -2v1016h284v-113l6 -2q39 68 96.5 96.5t125.5 28.5q33 0 62.5 -6t55.5 -25l-51 -266q-35 16 -65.5 22.5t-59.5 6.5q-76 0 -121 -40t-45 -132v-586h-288zM113 -602l65 221h-59v268h278v-258l-147 -231h-137z" />
<glyph unicode="&#x158;" horiz-adv-x="1124" d="M102 1755l103 109l274 -162l275 162l106 -109l-287 -266h-182zM125 0v1425h471q90 0 171 -24.5t141.5 -75.5t95 -130t34.5 -189q0 -137 -53 -235.5t-156 -154.5l230 -616h-322l-190 563h-125v-563h-297zM422 834h160q72 0 122 38t50 132q0 82 -46 116.5t-118 34.5h-168 v-321z" />
<glyph unicode="&#x159;" horiz-adv-x="745" d="M0 1382l109 99q18 -12 55 -41t79 -60.5t79.5 -60.5t56.5 -41l268 203l111 -99l-283 -321h-186zM113 -2v1016h284v-113l6 -2q39 68 96.5 96.5t125.5 28.5q33 0 62.5 -6t55.5 -25l-51 -266q-35 16 -65.5 22.5t-59.5 6.5q-76 0 -121 -40t-45 -132v-586h-288z" />
<glyph unicode="&#x15a;" horiz-adv-x="1083" d="M63 231l234 189q55 -78 115.5 -115t138.5 -37q94 0 130 41t36 101q0 41 -19.5 70.5t-53.5 52t-79 39t-98 30.5q-98 31 -168 70t-114 88t-64.5 112.5t-20.5 143.5q0 92 33 169t92.5 133t142.5 87t183 31q162 0 265.5 -50.5t174.5 -148.5l-213 -201q-102 121 -227 121 q-66 0 -108 -35t-42 -92q0 -31 20.5 -55.5t55.5 -45t82 -39t100 -34.5q106 -33 178 -75t115 -96t60.5 -119.5t17.5 -143.5q0 -205 -126 -318.5t-357 -113.5q-90 0 -163 18.5t-131 50t-105.5 75.5t-84.5 97zM350 1626l355 264l172 -204l-420 -199z" />
<glyph unicode="&#x15b;" horiz-adv-x="905" d="M51 172l199 168q39 -57 87 -79.5t107 -22.5q57 0 88 24.5t31 52.5q0 35 -22.5 52.5t-75.5 27.5q-68 12 -137.5 31.5t-125 54.5t-91 89.5t-35.5 138.5q0 74 30.5 132t83 99t121 62.5t146.5 21.5q137 0 226 -41t155 -113l-172 -180q-39 45 -85 65.5t-112 20.5 q-59 0 -81.5 -20.5t-22.5 -40.5q0 -18 12 -30.5t32.5 -21t44 -14.5t48.5 -10q70 -14 134 -34.5t113.5 -57.5t78 -93.5t28.5 -140.5q0 -145 -107.5 -234t-295.5 -89q-139 0 -234.5 42t-167.5 140zM315 1167l191 400l246 -99l-277 -374z" />
<glyph unicode="&#x15c;" horiz-adv-x="1083" d="M63 231l234 189q55 -78 115.5 -115t138.5 -37q94 0 130 41t36 101q0 41 -19.5 70.5t-53.5 52t-79 39t-98 30.5q-98 31 -168 70t-114 88t-64.5 112.5t-20.5 143.5q0 92 33 169t92.5 133t142.5 87t183 31q162 0 265.5 -50.5t174.5 -148.5l-213 -201q-102 121 -227 121 q-66 0 -108 -35t-42 -92q0 -31 20.5 -55.5t55.5 -45t82 -39t100 -34.5q106 -33 178 -75t115 -96t60.5 -119.5t17.5 -143.5q0 -205 -126 -318.5t-357 -113.5q-90 0 -163 18.5t-131 50t-105.5 75.5t-84.5 97zM174 1591l291 271h180l287 -271l-105 -108l-274 162l-277 -162z " />
<glyph unicode="&#x15d;" horiz-adv-x="905" d="M51 172l199 168q39 -57 87 -79.5t107 -22.5q57 0 88 24.5t31 52.5q0 35 -22.5 52.5t-75.5 27.5q-68 12 -137.5 31.5t-125 54.5t-91 89.5t-35.5 138.5q0 74 30.5 132t83 99t121 62.5t146.5 21.5q137 0 226 -41t155 -113l-172 -180q-39 45 -85 65.5t-112 20.5 q-59 0 -81.5 -20.5t-22.5 -40.5q0 -18 12 -30.5t32.5 -21t44 -14.5t48.5 -10q70 -14 134 -34.5t113.5 -57.5t78 -93.5t28.5 -140.5q0 -145 -107.5 -234t-295.5 -89q-139 0 -234.5 42t-167.5 140zM84 1159l289 322h186l283 -320l-111 -100l-268 203q-18 -12 -56 -41t-80 -61 t-79 -59.5t-55 -39.5z" />
<glyph unicode="&#x15e;" horiz-adv-x="1083" d="M63 231l234 189q55 -78 115.5 -115t138.5 -37q94 0 130 41t36 101q0 41 -19.5 70.5t-53.5 52t-79 39t-98 30.5q-98 31 -168 70t-114 88t-64.5 112.5t-20.5 143.5q0 92 33 169t92.5 133t142.5 87t183 31q162 0 265.5 -50.5t174.5 -148.5l-213 -201q-102 121 -227 121 q-66 0 -108 -35t-42 -92q0 -31 20.5 -55.5t55.5 -45t82 -39t100 -34.5q106 -33 178 -75t115 -96t60.5 -119.5t17.5 -143.5q0 -201 -121 -313.5t-344 -118.5l-20 -64q55 -6 91 -25.5t58.5 -45t31.5 -55t9 -56.5q0 -76 -53 -130t-170 -54q-55 2 -111.5 10t-107.5 37l47 125 q47 -23 78 -29t59 -6q31 0 52.5 17.5t21.5 43.5q0 29 -17.5 42.5t-41.5 13.5q-16 0 -29 -7q-18 12 -36.5 22.5t-37.5 23.5l45 145q-131 20 -219 82.5t-152 150.5z" />
<glyph unicode="&#x15f;" horiz-adv-x="905" d="M51 172l199 168q39 -57 87 -79.5t107 -22.5q57 0 88 24.5t31 52.5q0 35 -22.5 52.5t-75.5 27.5q-68 12 -137.5 31.5t-125 54.5t-91 89.5t-35.5 138.5q0 74 30.5 132t83 99t121 62.5t146.5 21.5q137 0 226 -41t155 -113l-172 -180q-39 45 -85 65.5t-112 20.5 q-59 0 -81.5 -20.5t-22.5 -40.5q0 -18 12 -30.5t32.5 -21t44 -14.5t48.5 -10q70 -14 134 -34.5t113.5 -57.5t78 -93.5t28.5 -140.5q0 -129 -87 -215t-241 -102l-22 -70q55 -6 91 -25.5t58.5 -45t31.5 -55t9 -56.5q0 -76 -53 -130t-170 -54q-55 2 -111.5 10t-107.5 37l47 125 q47 -23 78 -29t59 -6q31 0 52.5 17.5t21.5 43.5q0 29 -17.5 42.5t-41.5 13.5q-16 0 -29 -7q-18 12 -36.5 22.5t-37.5 23.5l43 139q-115 8 -195.5 50t-146.5 130z" />
<glyph unicode="&#x160;" horiz-adv-x="1083" d="M63 231l234 189q55 -78 115.5 -115t138.5 -37q94 0 130 41t36 101q0 41 -19.5 70.5t-53.5 52t-79 39t-98 30.5q-98 31 -168 70t-114 88t-64.5 112.5t-20.5 143.5q0 92 33 169t92.5 133t142.5 87t183 31q162 0 265.5 -50.5t174.5 -148.5l-213 -201q-102 121 -227 121 q-66 0 -108 -35t-42 -92q0 -31 20.5 -55.5t55.5 -45t82 -39t100 -34.5q106 -33 178 -75t115 -96t60.5 -119.5t17.5 -143.5q0 -205 -126 -318.5t-357 -113.5q-90 0 -163 18.5t-131 50t-105.5 75.5t-84.5 97zM170 1755l102 109l275 -162l274 162l107 -109l-287 -266h-182z" />
<glyph unicode="&#x161;" horiz-adv-x="905" d="M51 172l199 168q39 -57 87 -79.5t107 -22.5q57 0 88 24.5t31 52.5q0 35 -22.5 52.5t-75.5 27.5q-68 12 -137.5 31.5t-125 54.5t-91 89.5t-35.5 138.5q0 74 30.5 132t83 99t121 62.5t146.5 21.5q137 0 226 -41t155 -113l-172 -180q-39 45 -85 65.5t-112 20.5 q-59 0 -81.5 -20.5t-22.5 -40.5q0 -18 12 -30.5t32.5 -21t44 -14.5t48.5 -10q70 -14 134 -34.5t113.5 -57.5t78 -93.5t28.5 -140.5q0 -145 -107.5 -234t-295.5 -89q-139 0 -234.5 42t-167.5 140zM84 1382l109 99q18 -12 55 -41t79 -60.5t79.5 -60.5t56.5 -41l268 203 l111 -99l-283 -321h-186z" />
<glyph unicode="&#x162;" horiz-adv-x="937" d="M12 1155v270h906v-270h-306v-1155h-295v1155h-305zM322 -604l65 221h-59v268h278v-258l-147 -231h-137z" />
<glyph unicode="&#x163;" horiz-adv-x="624" d="M49 791v225h103v272h274v-272h135v-225h-133v-437q0 -51 17.5 -75.5t72.5 -24.5h43v-254h-135q-135 0 -205.5 77t-70.5 189v525h-101zM164 -604l65 221h-59v268h279v-258l-148 -231h-137z" />
<glyph unicode="&#x164;" horiz-adv-x="937" d="M12 1155v270h906v-270h-306v-1155h-295v1155h-305zM92 1755l103 109l274 -162l274 162l107 -109l-287 -266h-182z" />
<glyph unicode="&#x165;" horiz-adv-x="753" d="M49 791v225h103v272h274v-272h135v-225h-133v-437q0 -51 17.5 -75.5t72.5 -24.5h43v-254h-135q-135 0 -205.5 77t-70.5 189v525h-101zM522 1135l66 221h-60v268h279v-258l-148 -231h-137z" />
<glyph unicode="&#x166;" horiz-adv-x="937" d="M12 1155v270h906v-270h-306v-324h260v-182h-260v-649h-295v649h-241v182h241v324h-305z" />
<glyph unicode="&#x167;" horiz-adv-x="624" d="M49 475v170h101v146h-101v225h103v272h274v-272h135v-225h-133v-146h133v-170h-133v-121q0 -51 17.5 -75.5t72.5 -24.5h43v-254h-135q-135 0 -205.5 77t-70.5 189v209h-101z" />
<glyph unicode="&#x168;" horiz-adv-x="1128" d="M109 471v954h294v-962q0 -82 38 -135.5t126 -53.5q63 0 109.5 44t46.5 116v991h299v-976q0 -106 -34 -191.5t-94 -146t-143 -92t-184 -31.5q-123 0 -210 39t-142 105.5t-80.5 154.5t-25.5 184zM193 1579q49 111 113 162t140 51q37 0 71 -14.5t64.5 -29.5t57.5 -28.5 t49 -13.5q33 0 59.5 18.5t67.5 69.5q35 -18 69 -37.5t68 -40.5q-53 -117 -110.5 -165t-122.5 -48q-39 0 -74 13.5t-67.5 29t-61.5 28.5t-55 13q-31 0 -62.5 -18.5t-72.5 -71.5z" />
<glyph unicode="&#x169;" horiz-adv-x="987" d="M106 301v713h287v-641q0 -59 30 -87t71 -28q45 0 75.5 29.5t30.5 87.5v639h287v-1014h-287v82l-8 2q-35 -41 -87 -67.5t-106 -26.5q-154 0 -223.5 84t-69.5 227zM113 1221q49 111 113.5 162t140.5 51q37 0 70.5 -14.5t64 -30t57.5 -28.5t49 -13q33 0 59.5 18t67.5 70 q35 -18 69 -38l68 -40q-53 -117 -110 -165t-123 -48q-39 0 -74 13t-67.5 28.5t-61 29t-55.5 13.5q-31 0 -62.5 -18.5t-72.5 -71.5z" />
<glyph unicode="&#x16a;" horiz-adv-x="1128" d="M109 471v954h294v-962q0 -82 38 -135.5t126 -53.5q63 0 109.5 44t46.5 116v991h299v-976q0 -106 -34 -191.5t-94 -146t-143 -92t-184 -31.5q-123 0 -210 39t-142 105.5t-80.5 154.5t-25.5 184zM266 1540v234h598v-234h-598z" />
<glyph unicode="&#x16b;" horiz-adv-x="987" d="M106 301v713h287v-641q0 -59 30 -87t71 -28q45 0 75.5 29.5t30.5 87.5v639h287v-1014h-287v82l-8 2q-35 -41 -87 -67.5t-106 -26.5q-154 0 -223.5 84t-69.5 227zM201 1171v234h598v-234h-598z" />
<glyph unicode="&#x16c;" horiz-adv-x="1128" d="M109 471v954h294v-962q0 -82 38 -135.5t126 -53.5q63 0 109.5 44t46.5 116v991h299v-976q0 -106 -34 -191.5t-94 -146t-143 -92t-184 -31.5q-123 0 -210 39t-142 105.5t-80.5 154.5t-25.5 184zM236 1831h210q0 -23 9.5 -48.5t25 -47t38 -37t50.5 -15.5q31 0 52.5 15.5 t37 37t22.5 47t7 48.5h213q-4 -49 -23.5 -108.5t-58.5 -110.5t-100.5 -86t-149.5 -35q-92 0 -154.5 35t-101.5 86t-57 110.5t-20 108.5z" />
<glyph unicode="&#x16d;" horiz-adv-x="987" d="M106 301v713h287v-641q0 -59 30 -87t71 -28q45 0 75.5 29.5t30.5 87.5v639h287v-1014h-287v82l-8 2q-35 -41 -87 -67.5t-106 -26.5q-154 0 -223.5 84t-69.5 227zM168 1456h211q0 -23 9 -48.5t24.5 -48t38 -36.5t51.5 -14q31 0 52 14t36.5 36.5t23 48.5t7.5 48h213 q-4 -51 -23.5 -111.5t-58.5 -112.5t-100.5 -87t-149.5 -35q-92 0 -154.5 35t-101.5 87t-57.5 112.5t-20.5 111.5z" />
<glyph unicode="&#x16e;" horiz-adv-x="1128" d="M109 471v954h294v-962q0 -82 38 -135.5t126 -53.5q63 0 109.5 44t46.5 116v991h299v-976q0 -106 -34 -191.5t-94 -146t-143 -92t-184 -31.5q-123 0 -210 39t-142 105.5t-80.5 154.5t-25.5 184zM332 1677q0 45 18.5 86t49 72t72.5 48.5t91 17.5t91 -17.5t73 -48.5 t48.5 -72t17.5 -86q0 -47 -17.5 -87t-49.5 -70.5t-74 -48t-91 -17.5q-47 0 -89 17.5t-72.5 48t-49 70.5t-18.5 87zM489 1675q0 -29 21.5 -49t52.5 -20q29 0 50.5 20t21.5 49t-21.5 49.5t-50.5 20.5q-31 0 -52.5 -20.5t-21.5 -49.5z" />
<glyph unicode="&#x16f;" horiz-adv-x="987" d="M106 301v713h287v-641q0 -59 30 -87t71 -28q45 0 75.5 29.5t30.5 87.5v639h287v-1014h-287v82l-8 2q-35 -41 -87 -67.5t-106 -26.5q-154 0 -223.5 84t-69.5 227zM270 1294q0 45 18.5 86t49.5 72t73 48.5t91 17.5t91 -17.5t72.5 -48.5t48 -72t17.5 -86q0 -47 -17.5 -87 t-49 -70.5t-73.5 -48t-91 -17.5q-47 0 -89 17.5t-73 48t-49.5 70.5t-18.5 87zM428 1292q0 -29 21.5 -49t52.5 -20q29 0 50 20t21 49t-21.5 49.5t-49.5 20.5q-31 0 -52.5 -20.5t-21.5 -49.5z" />
<glyph unicode="&#x170;" horiz-adv-x="1128" d="M109 471v954h294v-962q0 -82 38 -135.5t126 -53.5q63 0 109.5 44t46.5 116v991h299v-976q0 -106 -34 -191.5t-94 -146t-143 -92t-184 -31.5q-123 0 -210 39t-142 105.5t-80.5 154.5t-25.5 184zM170 1599l326 299l184 -174l-389 -254zM586 1604l332 292l182 -176 l-395 -245z" />
<glyph unicode="&#x171;" horiz-adv-x="987" d="M106 301v713h287v-641q0 -59 30 -87t71 -28q45 0 75.5 29.5t30.5 87.5v639h287v-1014h-287v82l-8 2q-35 -41 -87 -67.5t-106 -26.5q-154 0 -223.5 84t-69.5 227zM160 1196l190 399l246 -98l-277 -375zM483 1167l191 400l246 -99l-277 -374z" />
<glyph unicode="&#x172;" horiz-adv-x="1128" d="M109 471v954h294v-962q0 -82 38 -135.5t126 -53.5q63 0 109.5 44t46.5 116v991h299v-976q0 -96 -27.5 -175t-77 -137.5t-119 -95.5t-153.5 -47q-41 -63 -55.5 -110.5t-14.5 -73.5q0 -35 21.5 -53.5t56.5 -18.5q18 0 48 7t71 24l51 -131q-49 -29 -104 -44.5t-107 -15.5 q-92 0 -152.5 56.5t-60.5 146.5q0 43 17.5 96t58.5 117q-98 14 -166.5 58t-113.5 107.5t-65.5 143.5t-20.5 168z" />
<glyph unicode="&#x173;" horiz-adv-x="987" d="M106 301v713h287v-641q0 -59 30 -87t71 -28q45 0 75.5 29.5t30.5 87.5v639h287v-1014h-121q-45 -68 -59.5 -116t-14.5 -74q0 -35 21.5 -53.5t56.5 -18.5q18 0 48 7t71 24l51 -131q-49 -29 -104.5 -44.5t-106.5 -15.5q-92 0 -152.5 56.5t-60.5 146.5q0 45 19.5 100.5 t64.5 122.5v78l-8 2q-35 -41 -87 -67.5t-106 -26.5q-154 0 -223.5 84t-69.5 227z" />
<glyph unicode="&#x174;" horiz-adv-x="1531" d="M8 1423h324q23 -131 45 -259t43 -257q12 -72 22.5 -142.5t22.5 -141.5h8q23 98 43.5 197.5t42.5 197.5l92 405h232q25 -102 48 -203.5t46 -203.5q23 -100 44 -200.5t44 -201.5h10q10 72 20.5 141.5t20.5 141.5l84 526h324l-301 -1425h-267q-27 111 -55.5 222.5 t-54.5 221.5l-74 306h-8q-18 -78 -36.5 -155t-39.5 -155q-25 -111 -55.5 -221.5t-57.5 -218.5h-266zM383 1591l291 271h180l287 -271l-105 -108l-274 162l-277 -162z" />
<glyph unicode="&#x175;" horiz-adv-x="1368" d="M14 1014h305l54 -301l53 -289h10l62 289l61 301h250l63 -303l66 -287h10l53 291l52 299h299l-269 -1014h-278l-55 227l-62 277h-8l-62 -275l-57 -229h-276zM295 1159l289 322h186l283 -320l-111 -100l-268 203q-18 -12 -56 -41t-80 -61t-79 -59.5t-56 -39.5z" />
<glyph unicode="&#x176;" horiz-adv-x="1044" d="M10 1430h330l94 -291l84 -273h12l88 275l105 284h315l-368 -854v-571h-291v571zM156 1591l290 271h181l286 -271l-104 -108l-274 162l-277 -162z" />
<glyph unicode="&#x177;" horiz-adv-x="905" d="M2 1014h307l70 -328l63 -280h11l65 278l82 330h299l-379 -1192q-39 -123 -118.5 -177.5t-194.5 -54.5h-101v246h60q84 0 115 105l32 112zM70 1159l288 322h187l282 -320l-110 -100l-268 203q-18 -12 -56.5 -41t-80.5 -61t-78.5 -59.5t-55.5 -39.5z" />
<glyph unicode="&#x178;" horiz-adv-x="1044" d="M10 1430h330l94 -291l84 -273h12l88 275l105 284h315l-368 -854v-571h-291v571zM190 1509v269h279v-269h-279zM590 1509v269h276v-269h-276z" />
<glyph unicode="&#x179;" horiz-adv-x="931" d="M51 0v258l484 897h-461v270h807v-249l-482 -895h482v-281h-830zM268 1626l355 264l172 -204l-420 -199z" />
<glyph unicode="&#x17a;" horiz-adv-x="833" d="M57 0v246l377 518h-350v250h690v-232l-379 -520h379v-262h-717zM309 1167l191 400l245 -99l-276 -374z" />
<glyph unicode="&#x17b;" horiz-adv-x="931" d="M51 0v258l484 897h-461v270h807v-249l-482 -895h482v-281h-830zM340 1511v267h272v-267h-272z" />
<glyph unicode="&#x17c;" horiz-adv-x="833" d="M57 0v246l377 518h-350v250h690v-232l-379 -520h379v-262h-717zM307 1143v266h273v-266h-273z" />
<glyph unicode="&#x17d;" horiz-adv-x="931" d="M51 0v258l484 897h-461v270h807v-249l-482 -895h482v-281h-830zM117 1755l102 109l275 -162l274 162l106 -109l-286 -266h-182z" />
<glyph unicode="&#x17e;" horiz-adv-x="833" d="M43 1382l109 99q18 -12 55 -41t79 -60.5t79.5 -60.5t56.5 -41l268 203l111 -99l-283 -321h-186zM57 0v246l377 518h-350v250h690v-232l-379 -520h379v-262h-717z" />
<glyph unicode="&#x192;" horiz-adv-x="1003" d="M18 -139l68 223q45 -20 69.5 -24.5t43.5 -4.5q47 0 72.5 44t37.5 147l47 405h-137l-2 238h174l15 125q8 74 29.5 149.5t64.5 135t110.5 97.5t165.5 38q49 0 103.5 -8.5t101.5 -28.5l-57 -232q-49 20 -76 23.5t-55 3.5q-27 0 -46.5 -15.5t-33 -40t-21.5 -55t-12 -61.5 l-16 -131h167l3 -238h-199l-47 -405q-12 -96 -35 -177t-62.5 -138.5t-99 -89t-145.5 -31.5q-43 0 -106.5 13t-121.5 38z" />
<glyph unicode="&#x1a0;" horiz-adv-x="1142" d="M90 471v508q0 80 24.5 161t80 146.5t142.5 107.5t212 42q100 0 177 -30t132 -79q41 16 58.5 60.5t17.5 130.5v127h213v-175q0 -117 -46 -196.5t-128 -120.5q31 -84 31 -174v-530q0 -106 -34 -191.5t-94.5 -146t-143.5 -92t-183 -31.5q-123 0 -210 39t-142.5 105.5 t-81 154.5t-25.5 184zM385 463q0 -82 38 -135.5t126 -53.5q63 0 109.5 41t46.5 113v563q0 20 -7.5 47t-26 51.5t-48 42t-74.5 17.5t-76 -15.5t-50.5 -39t-28.5 -51t-9 -52.5v-528z" />
<glyph unicode="&#x1a1;" horiz-adv-x="1032" d="M74 504q2 86 10 173t31 140q43 98 132 154.5t232 56.5q96 0 165 -27.5t114 -72.5q35 16 52 60t17 126v123h213v-170q0 -123 -50 -206t-142 -120q10 -53 14 -112.5t4 -124.5q0 -109 -11 -188.5t-40 -139.5q-53 -109 -146.5 -149.5t-209.5 -40.5q-104 0 -177 32.5 t-120 92.5q-49 66 -68.5 162t-19.5 231zM358 500q0 -51 3.5 -98.5t17.5 -82.5q25 -70 92 -69q14 0 29.5 3t30 14.5t25.5 33t17 55.5q4 29 7.5 71t3.5 97q0 106 -21 166q-27 74 -88 74q-68 0 -96 -72q-12 -35 -16.5 -81t-4.5 -111z" />
<glyph unicode="&#x1af;" horiz-adv-x="1290" d="M109 471v954h294v-962q0 -82 38 -135.5t126 -53.5q63 0 109.5 44t46.5 116v991h299v-100q51 12 74.5 55t23.5 140v125h213v-175q0 -160 -84 -252t-227 -98v-671q0 -106 -34 -191.5t-94 -146t-143 -92t-184 -31.5q-123 0 -210 39t-142 105.5t-80.5 154.5t-25.5 184z" />
<glyph unicode="&#x1b0;" horiz-adv-x="1171" d="M106 301v713h287v-641q0 -59 30 -87t71 -28q45 0 75.5 29.5t30.5 87.5v639h287v-96q47 14 67.5 58t20.5 138v123h215v-170q0 -156 -81 -248t-222 -102v-717h-287v82l-8 2q-35 -41 -87 -67.5t-106 -26.5q-154 0 -223.5 84t-69.5 227z" />
<glyph unicode="&#x1fc;" horiz-adv-x="1775" d="M53 0l633 1425h1010v-274h-535v-295h459v-272h-459v-303h535v-281h-832v307h-352l-125 -307h-334zM621 578h243v571h-8zM903 1626l354 264l173 -204l-420 -199z" />
<glyph unicode="&#x1fd;" horiz-adv-x="1454" d="M66 303q0 63 21.5 119.5t64.5 99.5t107.5 67.5t152.5 24.5h163v39q0 16 -8 36t-23.5 37t-39 29.5t-55.5 12.5q-53 0 -93.5 -19.5t-62.5 -60.5l-207 131q57 113 154.5 159t224.5 46q82 0 155.5 -15.5t118.5 -68.5q41 47 101.5 66.5t138.5 19.5q123 0 202 -41t124 -109.5 t62 -160.5t17 -197v-102h-516q0 -76 20.5 -120t90.5 -44q43 0 78 19.5t69 70.5l242 -131q-53 -115 -154.5 -168t-224.5 -53q-106 0 -181 29.5t-124 86.5q-49 -47 -100.5 -71.5t-95.5 -34.5t-77.5 -10h-48.5q-150 0 -223 80t-73 233zM344 324q0 -29 23.5 -56.5t85.5 -27.5 q49 0 85.5 28.5t36.5 83.5v62h-124q-57 0 -82 -24.5t-25 -65.5zM631 1167l190 400l246 -99l-276 -374zM868 618h219q0 27 -4 53.5t-16 47t-34.5 33t-57.5 12.5q-31 0 -50.5 -13.5t-31.5 -34t-17.5 -47t-7.5 -51.5z" />
<glyph unicode="&#x1fe;" horiz-adv-x="1095" d="M84 43l80 133q-39 63 -56.5 138t-17.5 157v508q0 80 24.5 161t80 146.5t142.5 107.5t212 42q98 0 174 -29t131 -76l64 107l88 -58l-80 -133q39 -59 58.5 -127.5t19.5 -140.5v-530q0 -106 -34 -191.5t-94.5 -146t-143.5 -92t-183 -31.5q-106 0 -185 28.5t-135 79.5 l-63 -106zM381 1626l354 264l172 -204l-420 -199zM385 547l305 510q-16 35 -49 63.5t-92 28.5q-45 0 -76 -15.5t-50.5 -39t-28.5 -51t-9 -52.5v-444zM397 375q16 -47 53 -74t99 -27q63 0 109.5 41t46.5 113v453z" />
<glyph unicode="&#x1ff;" horiz-adv-x="940" d="M74 504q2 86 10 173t31 140q43 98 132 154.5t232 56.5q74 0 131.5 -16.5t100.5 -44.5l73 112l62 -43l-78 -121q35 -37 53 -81q29 -66 37 -149t8 -181q0 -109 -11 -188.5t-40 -139.5q-53 -109 -146.5 -149.5t-209.5 -40.5q-152 0 -244 69l-61 -94l-60 41l68 107v2 q-49 66 -68.5 162t-19.5 231zM328 1167l190 400l246 -99l-277 -374zM358 457.5q0 -19.5 2 -39.5l191 297q-27 49 -76 49q-68 0 -96 -72q-12 -35 -16.5 -81t-4.5 -111v-42.5zM381 313q25 -63 90 -63q14 0 29.5 3t30 14.5t25.5 33t17 55.5q4 29 7.5 71t3.5 97q0 53 -6 97z" />
<glyph unicode="&#x218;" horiz-adv-x="1083" d="M63 231l234 189q55 -78 115.5 -115t138.5 -37q94 0 130 41t36 101q0 41 -19.5 70.5t-53.5 52t-79 39t-98 30.5q-98 31 -168 70t-114 88t-64.5 112.5t-20.5 143.5q0 92 33 169t92.5 133t142.5 87t183 31q162 0 265.5 -50.5t174.5 -148.5l-213 -201q-102 121 -227 121 q-66 0 -108 -35t-42 -92q0 -31 20.5 -55.5t55.5 -45t82 -39t100 -34.5q106 -33 178 -75t115 -96t60.5 -119.5t17.5 -143.5q0 -205 -126 -318.5t-357 -113.5q-90 0 -163 18.5t-131 50t-105.5 75.5t-84.5 97zM393 -604l66 221h-60v268h279v-258l-148 -231h-137z" />
<glyph unicode="&#x219;" horiz-adv-x="905" d="M51 172l199 168q39 -57 87 -79.5t107 -22.5q57 0 88 24.5t31 52.5q0 35 -22.5 52.5t-75.5 27.5q-68 12 -137.5 31.5t-125 54.5t-91 89.5t-35.5 138.5q0 74 30.5 132t83 99t121 62.5t146.5 21.5q137 0 226 -41t155 -113l-172 -180q-39 45 -85 65.5t-112 20.5 q-59 0 -81.5 -20.5t-22.5 -40.5q0 -18 12 -30.5t32.5 -21t44 -14.5t48.5 -10q70 -14 134 -34.5t113.5 -57.5t78 -93.5t28.5 -140.5q0 -145 -107.5 -234t-295.5 -89q-139 0 -234.5 42t-167.5 140zM297 -604l65 221h-59v268h279v-258l-148 -231h-137z" />
<glyph unicode="&#x2c6;" horiz-adv-x="923" d="M98 1159l289 322h186l283 -320l-111 -100l-268 203q-18 -12 -56 -41t-80 -61t-79 -59.5t-55 -39.5z" />
<glyph unicode="&#x2c7;" horiz-adv-x="923" d="M98 1382l109 99q18 -12 55 -41t79 -60.5t80 -60.5t56 -41l268 203l111 -99l-283 -321h-186z" />
<glyph unicode="&#x2d8;" horiz-adv-x="1042" d="M176 1456h211q0 -23 9.5 -48.5t24.5 -48t37.5 -36.5t51.5 -14q31 0 52.5 14t36.5 36.5t22.5 48.5t7.5 48h213q-4 -51 -23.5 -111.5t-58.5 -112.5t-100.5 -87t-149.5 -35q-92 0 -154.5 35t-101.5 87t-57.5 112.5t-20.5 111.5z" />
<glyph unicode="&#x2d9;" horiz-adv-x="763" d="M266 1143v266h273v-266h-273z" />
<glyph unicode="&#x2da;" horiz-adv-x="946" d="M281 1294q0 45 18 86t49 72t73 48.5t91 17.5t91 -17.5t73 -48.5t48 -72t17 -86q0 -47 -17 -87t-49 -70.5t-74 -48t-91 -17.5q-47 0 -89 17.5t-73 48t-49 70.5t-18 87zM438 1292q0 -29 21.5 -49t52.5 -20q29 0 50.5 20t21.5 49t-21.5 49.5t-50.5 20.5q-31 0 -52.5 -20.5 t-21.5 -49.5z" />
<glyph unicode="&#x2db;" horiz-adv-x="704" d="M297 -223q0 47 22.5 105.5t69.5 129.5h170q-53 -76 -69.5 -127t-16.5 -80q0 -35 21.5 -53t56.5 -18q18 0 48 7t71 23l51 -131q-49 -29 -104.5 -44t-106.5 -15q-92 0 -152.5 56.5t-60.5 146.5z" />
<glyph unicode="&#x2dc;" horiz-adv-x="899" d="M80 1221q49 111 113.5 162t140.5 51q37 0 70.5 -14.5t64.5 -30t57.5 -28.5t48.5 -13q33 0 60 18t67 70q35 -18 69 -38t69 -40q-53 -117 -110.5 -165t-123.5 -48q-39 0 -73.5 13t-67.5 28.5t-61.5 29t-55.5 13.5q-31 0 -62.5 -18.5t-72.5 -71.5z" />
<glyph unicode="&#x2dd;" horiz-adv-x="1007" d="M199 1196l190 399l246 -98l-277 -375zM522 1167l191 400l245 -99l-276 -374z" />
<glyph unicode="&#x3a9;" horiz-adv-x="1099" d="M63 0v270h103q0 4 1 5t1 4q-47 41 -62.5 108.5t-15.5 147.5v444q0 80 24.5 161t80 146.5t142.5 107.5t212 42q117 0 203 -40t141 -104.5t83 -146.5t28 -166v-457q0 -78 -16.5 -142.5t-63.5 -103.5q0 -2 1 -3t1 -3h106v-270h-432v287q43 16 74 55t31 92v557q0 20 -7.5 47 t-26 51.5t-48 42t-74.5 17.5t-76 -15.5t-50.5 -39t-28.5 -51t-9 -52.5v-522q0 -66 26.5 -116t82.5 -66v-287h-431z" />
<glyph unicode="&#x3c0;" horiz-adv-x="987" d="M102 0v1016h781v-1016h-289v793h-207v-793h-285z" />
<glyph unicode="&#x401;" horiz-adv-x="1003" d="M125 0v1425h829v-274h-532v-295h459v-272h-459v-303h532v-281h-829zM199 1509v269h278v-269h-278zM598 1509v269h276v-269h-276z" />
<glyph unicode="&#x402;" horiz-adv-x="1306" d="M10 1157v266h953v-266h-369v-297l4 -2q41 45 114.5 75t143.5 30q104 0 173 -36t110 -99.5t57 -151.5t16 -193q0 -125 -20.5 -224t-74.5 -166.5t-148.5 -99.5t-241.5 -24v234q66 0 102.5 25.5t55 65.5t23.5 88t5 91q0 45 -5 86t-21.5 72t-46 49t-78.5 18 q-57 0 -104.5 -30.5t-65.5 -67.5v-600h-295v1157h-287z" />
<glyph unicode="&#x403;" horiz-adv-x="983" d="M125 0v1425h829v-274h-532v-1151h-297zM334 1626l354 264l172 -204l-420 -199z" />
<glyph unicode="&#x404;" horiz-adv-x="1052" d="M92 463v86v319v82t4 82q8 88 42 162t91.5 127t138.5 84t185 31q98 0 176 -27t135.5 -76t91 -115.5t43.5 -146.5l-284 -76q-10 68 -52 114t-112 46q-43 0 -74 -15.5t-50 -40t-28.5 -54t-9.5 -60.5v-131h313v-270h-313v-113q0 -35 5 -70.5t21.5 -64.5t47.5 -48.5t82 -19.5 q70 0 111.5 43t52.5 119q72 -18 144.5 -36.5t143.5 -39.5q-29 -168 -143.5 -267t-302.5 -99q-215 0 -326.5 102.5t-128.5 288.5q-4 41 -4 84z" />
<glyph unicode="&#x405;" horiz-adv-x="1083" d="M63 231l234 189q55 -78 115.5 -115t138.5 -37q94 0 130 41t36 101q0 41 -19.5 70.5t-53.5 52t-79 39t-98 30.5q-98 31 -168 70t-114 88t-64.5 112.5t-20.5 143.5q0 92 33 169t92.5 133t142.5 87t183 31q162 0 265.5 -50.5t174.5 -148.5l-213 -201q-102 121 -227 121 q-66 0 -108 -35t-42 -92q0 -31 20.5 -55.5t55.5 -45t82 -39t100 -34.5q106 -33 178 -75t115 -96t60.5 -119.5t17.5 -143.5q0 -205 -126 -318.5t-357 -113.5q-90 0 -163 18.5t-131 50t-105.5 75.5t-84.5 97z" />
<glyph unicode="&#x406;" horiz-adv-x="548" d="M129 0v1425h297v-1425h-297z" />
<glyph unicode="&#x407;" horiz-adv-x="548" d="M-74 1509v267h273v-267h-273zM129 0v1425h297v-1425h-297zM328 1509v267h274v-267h-274z" />
<glyph unicode="&#x408;" horiz-adv-x="892" d="M-16 170l194 199q18 -29 41 -48.5t46.5 -32t46 -17.5t38.5 -5q63 0 97 42t34 106v1011h295v-1022q0 -111 -32.5 -188.5t-89 -127.5t-133.5 -73.5t-163 -23.5q-111 0 -206 41t-168 139z" />
<glyph unicode="&#x409;" horiz-adv-x="1671" d="M10 201q80 29 124 70.5t65.5 101t26.5 140.5t5 187v725h777v-534h180q113 0 196.5 -33t138 -90t81 -138t26.5 -175q0 -113 -32.5 -198t-91 -142.5t-141.5 -86t-183 -28.5h-471v1149h-211v-438q0 -156 -14.5 -283t-58.5 -222t-128 -154.5t-221 -80.5zM1006 274h165 q82 0 123 48.5t41 126.5q0 92 -44 128.5t-122 36.5h-163v-340z" />
<glyph unicode="&#x40a;" horiz-adv-x="1632" d="M115 0v1425h297v-540h264v540h297v-540h180q113 0 197 -32t138 -89t80.5 -137t26.5 -174q0 -115 -32.5 -199t-91 -141.5t-141.5 -85t-183 -27.5h-471v608h-264v-608h-297zM971 274h166q82 0 122.5 46.5t40.5 123.5q0 92 -44 128t-121 36h-164v-334z" />
<glyph unicode="&#x40b;" horiz-adv-x="1308" d="M29 1155v270h968v-270h-385v-295l6 -2q47 45 123 76t152 31q84 0 144.5 -26t100.5 -70t58 -105.5t18 -130.5v-633h-296v551q0 63 -27 106t-111 43q-41 0 -88 -24.5t-80 -67.5v-608h-297v1155h-286z" />
<glyph unicode="&#x40c;" horiz-adv-x="1124" d="M125 0v1427h297v-577h74q29 0 58.5 9t55 31.5t48 60.5t36.5 96l97 374h284l-108 -424q-25 -104 -76 -170.5t-117 -89.5q86 -29 134 -94t73 -170l117 -473h-299l-92 385q-31 113 -77 159t-124 46h-84v-590h-297zM393 1626l355 264l172 -204l-420 -199z" />
<glyph unicode="&#x40e;" horiz-adv-x="1034" d="M18 1423h308l116 -395l93 -307h10l84 309q25 100 50.5 197.5t51.5 197.5h287l-305 -997q-12 -41 -24.5 -78t-26.5 -71q-33 -92 -71 -147.5t-84 -86.5t-99.5 -42t-114.5 -13h-115v239h72q43 0 71.5 16.5t57.5 67.5q4 10 10 21.5t10 23.5zM211 1821h211q0 -23 9 -48.5 t24.5 -48t38 -37t51.5 -14.5q31 0 52 14.5t36.5 37t23 48t7.5 48.5h213q-4 -51 -23.5 -111.5t-58.5 -113t-100.5 -87t-149.5 -34.5q-92 0 -154.5 34.5t-101.5 87t-57.5 112.5t-20.5 112z" />
<glyph unicode="&#x40f;" horiz-adv-x="1144" d="M125 0v1425h297v-1144h307v1144h293v-1425h-324v-307h-249v307h-324z" />
<glyph unicode="&#x410;" horiz-adv-x="1136" d="M6 0l412 1425h295l411 -1425h-319l-70 291h-338q-18 -72 -37.5 -145.5t-40.5 -145.5h-313zM463 555h205l-39 203l-58 284h-10l-57 -282z" />
<glyph unicode="&#x411;" horiz-adv-x="1062" d="M106 0v1425h799v-274h-502v-260h181q113 0 196.5 -33t138 -90t81 -138t26.5 -175q0 -115 -31.5 -200t-90 -141.5t-141.5 -85t-183 -28.5h-474zM403 274h166q82 0 122 47.5t40 127.5q0 92 -43 128.5t-121 36.5h-164v-340z" />
<glyph unicode="&#x412;" horiz-adv-x="1110" d="M125 0v1425h461q209 0 317.5 -106.5t108.5 -294.5q0 -80 -39 -159t-129 -115v-11q49 -16 84 -49t57.5 -75t32.5 -89t10 -92q0 -104 -30.5 -185t-86 -136.5t-133.5 -84t-172 -28.5h-481zM422 281h164q88 0 120.5 49t32.5 121t-35.5 114.5t-115.5 42.5h-166v-327zM422 866 h147q82 0 117 41t35 107q0 72 -35 106.5t-119 34.5h-145v-289z" />
<glyph unicode="&#x413;" horiz-adv-x="983" d="M125 0v1425h829v-274h-532v-1151h-297z" />
<glyph unicode="&#x414;" horiz-adv-x="1306" d="M31 252l121 24q43 45 66.5 100.5t35.5 124t16 154.5t11 195l26 575h815v-1155h127v-569h-245v299h-728v-299h-245v551zM463 270h368v879h-270l-16 -365q-4 -68 -7 -141.5t-11.5 -142t-24 -129t-39.5 -101.5z" />
<glyph unicode="&#x415;" horiz-adv-x="1003" d="M125 0v1425h829v-274h-532v-295h459v-272h-459v-303h532v-281h-829z" />
<glyph unicode="&#x416;" horiz-adv-x="1712" d="M31 0l116 473q25 102 71 167t124 93l2 8q-59 27 -109.5 91.5t-72.5 164.5l-107 424h285l94 -374q29 -115 84 -156t115 -41h76v577h297v-577h73q29 0 58.5 9t55.5 31.5t48.5 60.5t36.5 96l96 374h285l-109 -424q-23 -100 -71.5 -164.5t-110.5 -91.5l2 -8q78 -29 124 -93.5 t71 -166.5l116 -473h-299l-92 385q-31 113 -77 159t-123 46h-84v-590h-297v590h-84q-78 0 -125 -46t-76 -159l-92 -385h-301z" />
<glyph unicode="&#x417;" horiz-adv-x="1048" d="M66 338q72 23 141 44t141 44q16 -70 63.5 -112t114.5 -42q39 0 69 15.5t48.5 40t27.5 54.5t9 58q0 33 -6 65t-24.5 56.5t-51.5 38.5t-84 14h-102v248h104q66 0 112 35t46 123q0 20 -7.5 43.5t-22.5 44t-42 33t-63 12.5q-72 0 -118 -41t-63 -106l-268 102 q41 152 155.5 242t301.5 90q201 0 314.5 -102.5t113.5 -288.5q0 -31 -6 -74t-22.5 -86t-49.5 -81t-84 -63v-6q49 -16 82 -50t52.5 -76t28.5 -91t9 -96q0 -117 -37 -199t-99.5 -135t-145 -77.5t-177.5 -24.5q-188 0 -306.5 94t-153.5 254z" />
<glyph unicode="&#x418;" horiz-adv-x="1208" d="M119 0v1425h295v-827h4l407 827h269v-1425h-297v776h-2l-398 -776h-278z" />
<glyph unicode="&#x419;" horiz-adv-x="1208" d="M119 0v1425h295v-827h4l407 827h269v-1425h-297v776h-2l-398 -776h-278zM287 1831h211q0 -23 9 -48.5t24.5 -48t38 -37t51.5 -14.5q31 0 52 14.5t36.5 37t22.5 48t7 48.5h213q-4 -51 -23.5 -111.5t-58.5 -113t-100 -87t-149 -34.5q-92 0 -155 34.5t-101.5 87t-57 113 t-20.5 111.5z" />
<glyph unicode="&#x41a;" horiz-adv-x="1124" d="M125 0v1427h297v-577h74q29 0 58.5 9t55 31.5t48 60.5t36.5 96l97 374h284l-108 -424q-25 -104 -76 -170.5t-117 -89.5q86 -29 134 -94t73 -170l117 -473h-299l-92 385q-31 113 -77 159t-124 46h-84v-590h-297z" />
<glyph unicode="&#x41b;" horiz-adv-x="1187" d="M25 203q80 27 124 68.5t66.5 101t27.5 140.5t5 187v725h803v-1425h-293v1149h-242v-440q0 -156 -14.5 -283t-59.5 -221t-128 -154.5t-220 -81.5z" />
<glyph unicode="&#x41c;" horiz-adv-x="1396" d="M119 0v1425h272l166 -397l141 -356h11l137 358l164 395h278v-1425h-295v672l-8 2l-98 -256l-76 -185h-213l-80 197l-96 246l-8 -2v-674h-295z" />
<glyph unicode="&#x41d;" horiz-adv-x="1161" d="M123 0v1425h297v-569h323v569h293v-1425h-293v586h-323v-586h-297z" />
<glyph unicode="&#x41e;" horiz-adv-x="1095" d="M90 471v508q0 80 24.5 161t80 146.5t142.5 107.5t212 42q117 0 203 -40t141 -104.5t83 -146.5t28 -166v-530q0 -106 -34 -191.5t-94.5 -146t-143.5 -92t-183 -31.5q-123 0 -210 39t-142.5 105.5t-81 154.5t-25.5 184zM385 463q0 -82 38 -135.5t126 -53.5q63 0 109.5 41 t46.5 113v563q0 20 -7.5 47t-26 51.5t-48 42t-74.5 17.5t-76 -15.5t-50.5 -39t-28.5 -51t-9 -52.5v-528z" />
<glyph unicode="&#x41f;" horiz-adv-x="1146" d="M125 0v1425h897v-1425h-293v1147h-307v-1147h-297z" />
<glyph unicode="&#x420;" horiz-adv-x="1062" d="M125 0v1425h453q100 0 185 -26.5t145.5 -81.5t94 -140t33.5 -202q0 -102 -30.5 -186t-88 -143.5t-139.5 -92.5t-184 -33h-172v-520h-297zM422 797h158q66 0 115.5 41t49.5 141q0 92 -45 132t-122 40h-156v-354z" />
<glyph unicode="&#x421;" horiz-adv-x="1052" d="M92 471v508q0 80 24.5 161t79 146.5t141.5 107.5t212 42q98 0 176 -30t133 -79t90 -113.5t49 -134.5l-280 -84q-4 20 -13.5 48t-30 50.5t-51 39t-73.5 16.5q-45 0 -76 -15.5t-49 -39t-26.5 -51t-8.5 -52.5v-528q0 -82 36 -135.5t124 -53.5q61 0 108.5 40t55.5 110 l282 -82q-31 -166 -151.5 -260t-294.5 -94q-123 0 -210 39t-141.5 105.5t-80 154.5t-25.5 184z" />
<glyph unicode="&#x422;" horiz-adv-x="937" d="M12 1155v270h906v-270h-306v-1155h-295v1155h-305z" />
<glyph unicode="&#x423;" horiz-adv-x="1034" d="M18 1423h308l116 -395l93 -307h10l84 309q25 100 50.5 197.5t51.5 197.5h287l-305 -997q-12 -41 -24.5 -78t-26.5 -71q-33 -92 -71 -147.5t-84 -86.5t-99.5 -42t-114.5 -13h-115v239h72q43 0 71.5 16.5t57.5 67.5q4 10 10 21.5t10 23.5z" />
<glyph unicode="&#x424;" horiz-adv-x="1429" d="M90 733q0 113 19.5 216.5t73 186.5t146.5 138t242 72v79h285v-79q141 -8 234.5 -61.5t147.5 -136.5t76.5 -187.5t22.5 -215.5q0 -117 -17 -224t-69.5 -191t-146.5 -138.5t-248 -66.5v-125h-285v125q-154 12 -249 65.5t-146 135.5t-68.5 187t-17.5 220zM379 741 q0 -61 3 -123.5t21.5 -112.5t57.5 -83t110 -39v700q-59 -6 -96 -34.5t-58.5 -73.5t-29.5 -105.5t-8 -128.5zM856 383q70 6 110 38t59 83t23.5 113.5t4.5 130.5t-8.5 127t-31 103t-60.5 71.5t-97 33.5v-700z" />
<glyph unicode="&#x425;" horiz-adv-x="1105" d="M2 0l389 735l-364 690h342q45 -98 89 -196.5t89 -194.5l184 391h342l-368 -690l393 -735h-342l-205 434l-209 -434h-340z" />
<glyph unicode="&#x426;" horiz-adv-x="1210" d="M123 0v1425h297v-1153h321v1153h295v-1155h150v-571h-246v301h-817z" />
<glyph unicode="&#x427;" horiz-adv-x="1118" d="M96 903v522h293v-411q0 -131 35 -181.5t121 -50.5q35 0 80 10.5t75 26.5v606h295v-1425h-295v565q-51 -23 -111.5 -32t-117.5 -9q-80 0 -148.5 20.5t-118.5 65.5t-79 117t-29 176z" />
<glyph unicode="&#x428;" horiz-adv-x="1646" d="M125 0v1425h297v-1155h254v1155h297v-1155h256v1155h295v-1425h-1399z" />
<glyph unicode="&#x429;" horiz-adv-x="1708" d="M123 0v1425h297v-1153h256v1153h297v-1153h256v1153h295v-1155h149v-571h-246v301h-1304z" />
<glyph unicode="&#x42a;" horiz-adv-x="1345" d="M25 1151v274h665v-534h182q113 0 197 -33t137.5 -90t80 -138t26.5 -175q0 -113 -32 -198t-90 -142.5t-141 -86t-184 -28.5h-473v1151h-368zM690 274h166q82 0 122 48.5t40 126.5q0 92 -43 128.5t-121 36.5h-164v-340z" />
<glyph unicode="&#x42b;" horiz-adv-x="1576" d="M123 0v1425h297v-534h182q113 0 197 -33t137 -90t79.5 -138t26.5 -175q0 -115 -31.5 -200t-90 -141.5t-141.5 -85t-183 -28.5h-473zM420 274h166q82 0 122 47.5t40 127.5q0 92 -43 128.5t-121 36.5h-164v-340zM1155 0v1425h297v-1425h-297z" />
<glyph unicode="&#x42c;" horiz-adv-x="1075" d="M125 0v1425h297v-534h180q113 0 197 -33t138 -90t80.5 -138t26.5 -175q0 -113 -32.5 -198t-91 -142.5t-141.5 -86t-183 -28.5h-471zM420 274h166q82 0 123 48.5t41 126.5q0 92 -44 128.5t-122 36.5h-164v-340z" />
<glyph unicode="&#x42d;" horiz-adv-x="1062" d="M63 342l283 82q8 -70 55.5 -113t108.5 -43q88 0 124 56.5t36 138.5v129h-316v266h316v133q0 25 -3 53.5t-18.5 53t-46.5 41t-84 16.5q-43 0 -74.5 -17.5t-53 -42t-34 -52t-14.5 -48.5l-276 84q14 70 49 134.5t92 113.5t135 79t176 30q131 0 218 -42t138.5 -107.5 t72 -146.5t20.5 -161v-508q0 -96 -26 -184t-80 -154.5t-141 -105.5t-210 -39q-174 0 -295 94t-152 260z" />
<glyph unicode="&#x42e;" horiz-adv-x="1501" d="M117 0v1425h297v-569h118v121q0 100 28 185t83 145.5t137 94.5t191 34q225 0 331.5 -123t106.5 -336v-531q0 -219 -114.5 -338.5t-325.5 -119.5q-113 0 -195 33.5t-136 94t-80 144.5t-26 186v140h-118v-586h-297zM821 432q0 -72 35 -118t111 -46q74 0 111.5 44t37.5 120 v561q0 72 -36.5 116t-110.5 44q-76 0 -112 -46t-36 -114v-561z" />
<glyph unicode="&#x42f;" horiz-adv-x="1136" d="M61 0l93 426q16 70 52 129t103 86q-106 43 -154.5 137t-48.5 217q0 104 34 184.5t92.5 135.5t138.5 82.5t170 27.5h477v-1425h-297v578h-88q-70 0 -114 -49.5t-73 -161.5l-79 -367h-306zM403 987q0 -45 14.5 -72.5t39 -43t56.5 -20.5t69 -5h139v305h-150 q-168 0 -168 -164z" />
<glyph unicode="&#x430;" horiz-adv-x="946" d="M66 303q0 63 21.5 119.5t64.5 99.5t107.5 67.5t152.5 24.5h163v60q0 33 -24.5 65.5t-93.5 32.5q-53 0 -94 -17.5t-70 -66.5l-207 131q57 113 154.5 159t224.5 46q86 0 159.5 -16.5t126 -54.5t82 -100t29.5 -157v-696h-287v82l-8 2q-39 -51 -98 -72.5t-107 -21.5 q-150 0 -223 80t-73 233zM344 324q0 -29 23.5 -56.5t85.5 -27.5q49 0 85.5 28.5t36.5 83.5v62h-124q-57 0 -82 -24.5t-25 -65.5z" />
<glyph unicode="&#x431;" horiz-adv-x="933" d="M68 561q0 98 3 178t11 150q10 92 30.5 161.5t52.5 124t78 95.5t109 73q43 20 80 36t79 30t94 32.5t126 49.5q23 -53 45.5 -106.5t44.5 -106.5q-92 -41 -160.5 -67.5t-119.5 -49.5q-47 -20 -80 -40.5t-55.5 -49.5t-35 -66.5t-18.5 -91.5l6 -4q39 35 87 46.5t79 11.5 q88 0 147.5 -29t100.5 -76q53 -66 73.5 -158t20.5 -198q0 -162 -30.5 -263.5t-92.5 -160.5q-53 -51 -125.5 -73.5t-168.5 -22.5q-109 0 -178.5 27.5t-110.5 78.5q-59 72 -75.5 197t-16.5 272zM356 473q0 -47 4.5 -88t16.5 -70t33.5 -46t58.5 -17q68 0 88 53q16 31 19.5 75 t3.5 89q0 125 -21 178q-22 58 -90 58q-27 0 -49.5 -12.5t-40.5 -47.5q-10 -18 -16.5 -55t-6.5 -117z" />
<glyph unicode="&#x432;" horiz-adv-x="935" d="M96 0v1014h418q176 0 261 -75t85 -210q0 -61 -26.5 -119.5t-96.5 -83.5q72 -29 104.5 -89t32.5 -120q0 -145 -94 -231t-245 -86h-439zM375 242h119q37 0 66.5 24.5t29.5 71.5q0 43 -27.5 64.5t-68.5 21.5h-119v-182zM375 623h102q37 0 66.5 19t29.5 60q0 47 -31.5 63.5 t-64.5 16.5h-102v-159z" />
<glyph unicode="&#x433;" horiz-adv-x="829" d="M96 0v1014h719v-250h-440v-764h-279z" />
<glyph unicode="&#x434;" horiz-adv-x="1118" d="M35 240l110 18q25 27 42.5 52.5t28.5 57t18.5 73.5t11.5 100l26 473h691v-760h114v-526h-237v272h-568v-272h-237v512zM436 252h244v512h-170q-6 -186 -20.5 -316.5t-53.5 -195.5z" />
<glyph unicode="&#x435;" horiz-adv-x="950" d="M74 506q0 119 20.5 215t67.5 163.5t125 104.5t194 37q123 0 201 -41t122 -109.5t60.5 -160.5t16.5 -197v-80h-516v-16q0 -35 4 -65.5t16 -54t33.5 -37t56.5 -13.5q43 0 78 19.5t70 70.5l239 -129q-53 -115 -157.5 -169t-227.5 -54q-113 0 -189.5 34.5t-124.5 101.5 t-68.5 162t-20.5 218zM365 618h215q0 27 -4.5 53.5t-15.5 47t-32.5 33t-56.5 12.5q-29 0 -49.5 -13.5t-32.5 -34t-17 -47t-7 -51.5z" />
<glyph unicode="&#x436;" horiz-adv-x="1456" d="M37 0l84 326q18 72 53 124t96 72v8q-51 18 -87 67.5t-52 119.5l-76 295h275l59 -240q12 -49 28.5 -77.5t36 -44t41 -19.5t42.5 -4h49v387h284v-387h50q20 0 41.5 4t41 19.5t37 44t29.5 77.5l59 240h275l-76 -295q-16 -70 -53 -119t-88 -68v-8q59 -23 96 -74t53 -122 l86 -326h-288l-54 240q-12 49 -27.5 79.5t-34 48t-41 22.5t-48.5 5h-58v-395h-284v395h-58q-29 0 -50 -5t-39.5 -22.5t-33 -48t-26.5 -79.5l-55 -240h-287z" />
<glyph unicode="&#x437;" horiz-adv-x="866" d="M37 205l217 114q16 -39 63.5 -62.5t94.5 -23.5q49 0 74.5 27t25.5 62q0 55 -30.5 76.5t-80.5 21.5h-104v196h117q47 0 69.5 25t22.5 66q0 35 -26.5 54t-73.5 19q-35 0 -78 -24.5t-68 -53.5l-192 121q47 96 141 149.5t221 53.5q174 0 268.5 -74.5t94.5 -222.5 q0 -47 -27 -108.5t-102 -96.5l-2 -6q78 -29 107.5 -85t29.5 -128q0 -152 -104.5 -233.5t-276.5 -81.5q-154 0 -243 55t-138 160z" />
<glyph unicode="&#x438;" horiz-adv-x="1028" d="M94 0v1014h277v-537h4l309 537h252v-1014h-277v489h-6l-301 -489h-258z" />
<glyph unicode="&#x439;" horiz-adv-x="1028" d="M94 0v1014h277v-537h4l309 537h252v-1014h-277v489h-6l-301 -489h-258zM184 1448h211q0 -23 9.5 -48.5t24.5 -48t37.5 -37t51.5 -14.5q31 0 52.5 14.5t37 37t22.5 48t7 48.5h213q-4 -51 -23.5 -110.5t-58.5 -110.5t-100.5 -85t-149.5 -34q-92 0 -154.5 34t-101.5 85 t-57.5 110.5t-20.5 110.5z" />
<glyph unicode="&#x43a;" horiz-adv-x="968" d="M102 0v1010h285v-385h45q20 0 42 4t41.5 19.5t36.5 45t30 78.5l59 240h274l-75 -295q-18 -74 -58.5 -124t-95.5 -67q68 -16 105.5 -70.5t56.5 -129.5l86 -326h-289l-53 240q-12 49 -27.5 79.5t-34 48t-41 22.5t-49.5 5h-53v-395h-285z" />
<glyph unicode="&#x43b;" horiz-adv-x="1003" d="M23 188q63 18 99 44t54.5 67t23.5 104.5t5 157.5v453h696v-1014h-283v762h-157v-215q0 -141 -19.5 -244.5t-64.5 -173.5t-119 -106.5t-182 -45.5z" />
<glyph unicode="&#x43c;" horiz-adv-x="1179" d="M94 0v1014h252l141 -293l105 -213h4l100 215l142 291h258v-1014h-281v428h-4l-55 -123l-64 -143h-192l-68 143l-55 123h-4v-428h-279z" />
<glyph unicode="&#x43d;" horiz-adv-x="976" d="M96 0v1014h279v-393h229v393h279v-1014h-279v403h-229v-403h-279z" />
<glyph unicode="&#x43e;" horiz-adv-x="940" d="M74 504q2 86 10 173t31 140q43 98 132 154.5t232 56.5q141 0 224 -55t118 -139q29 -66 37 -149t8 -181q0 -109 -11 -188.5t-40 -139.5q-53 -109 -146.5 -149.5t-209.5 -40.5q-104 0 -177 32.5t-120 92.5q-49 66 -68.5 162t-19.5 231zM358 500q0 -51 3.5 -98.5t17.5 -82.5 q25 -70 92 -69q14 0 29.5 3t30 14.5t25.5 33t17 55.5q4 29 7.5 71t3.5 97q0 106 -21 166q-27 74 -88 74q-68 0 -96 -72q-12 -35 -16.5 -81t-4.5 -111z" />
<glyph unicode="&#x43f;" horiz-adv-x="987" d="M102 0v1016h781v-1016h-289v793h-207v-793h-285z" />
<glyph unicode="&#x440;" horiz-adv-x="956" d="M98 -412v1426h287v-72l6 -4q35 45 85 65.5t95 20.5q113 0 176.5 -51t95 -129t40 -170t8.5 -174q0 -92 -10.5 -183.5t-44 -164t-97 -118.5t-170.5 -46q-20 0 -44.5 6t-49 17.5t-46 26.5t-36.5 36l-8 -2v-484h-287zM385 510q0 -41 3 -86t13.5 -82t32 -61.5t58.5 -24.5 t58 23.5t32.5 59.5t14.5 80t3 85q0 55 -3 102t-14.5 80t-32 51.5t-54.5 18.5q-68 0 -89.5 -63.5t-21.5 -182.5z" />
<glyph unicode="&#x441;" horiz-adv-x="864" d="M59 502q0 111 19.5 207t65.5 166.5t122 110.5t189 40q129 0 225 -59.5t137 -175.5l-242 -117q-23 49 -47 69.5t-59 20.5q-78 0 -99.5 -71.5t-21.5 -190.5q0 -129 23.5 -189.5t97.5 -60.5q37 0 61.5 21.5t47.5 66.5l241 -119q-41 -113 -136 -172t-224 -59q-115 0 -192 38 t-123 106.5t-65.5 162.5t-19.5 205z" />
<glyph unicode="&#x442;" horiz-adv-x="808" d="M10 782v232h781v-232h-252v-782h-279v782h-250z" />
<glyph unicode="&#x443;" horiz-adv-x="905" d="M2 1014h307l70 -328l63 -280h11l65 278l82 330h299l-379 -1192q-39 -123 -118.5 -177.5t-194.5 -54.5h-101v246h60q84 0 115 105l32 112z" />
<glyph unicode="&#x444;" horiz-adv-x="1296" d="M82 475q0 90 10 172t35 141q41 98 144.5 163t236.5 71v434h274v-434q127 -4 210 -47t132.5 -112.5t69.5 -162t20 -194.5q0 -141 -33.5 -238.5t-92 -157t-136.5 -87t-168 -33.5v-383h-276v381q-109 6 -188.5 36.5t-133 89t-79 147.5t-25.5 214zM369 492 q0 -129 30.5 -185.5t108.5 -60.5v514q-35 -6 -61.5 -22.5t-44 -47.5t-25.5 -80t-8 -118zM782 246q86 6 114 71.5t28 176.5q0 80 -8.5 129t-26 78.5t-44 42t-63.5 16.5v-514z" />
<glyph unicode="&#x445;" horiz-adv-x="960" d="M6 0l313 516l-301 498h332l127 -275h2l127 275h328l-305 -498l319 -516h-332q-35 72 -69.5 145.5t-69.5 145.5l-141 -291h-330z" />
<glyph unicode="&#x446;" horiz-adv-x="1056" d="M104 0v1014h283v-758h225v758h285v-758h131v-526h-237v270h-687z" />
<glyph unicode="&#x447;" horiz-adv-x="931" d="M68 623v391h286v-266q0 -70 16.5 -109t82.5 -39q25 0 53.5 7t54.5 18v389h283v-1014h-283v393q-49 -16 -104.5 -26.5t-110.5 -10.5q-59 0 -110.5 15.5t-88 48.5t-58 83t-21.5 120z" />
<glyph unicode="&#x448;" horiz-adv-x="1445" d="M104 0v1014h281v-756h199v756h282v-756h199v756h278v-1014h-1239z" />
<glyph unicode="&#x449;" horiz-adv-x="1505" d="M104 0v1014h281v-758h199v758h282v-758h199v758h281v-758h131v-526h-240v270h-1133z" />
<glyph unicode="&#x44a;" horiz-adv-x="1130" d="M23 772v242h585v-338h125q102 0 173 -25.5t115 -69.5t63.5 -104.5t19.5 -128.5q0 -82 -28.5 -146.5t-78 -109.5t-116 -68.5t-140.5 -23.5h-413v772h-305zM606 233h117q55 0 83 29t28 76q0 41 -24 73.5t-83 32.5h-121v-211z" />
<glyph unicode="&#x44b;" horiz-adv-x="1337" d="M98 0v1014h281v-338h125q102 0 173 -25.5t115 -69.5t63 -104.5t19 -128.5q0 -82 -28.5 -146.5t-77.5 -109.5t-115.5 -68.5t-140.5 -23.5h-414zM377 233h117q55 0 82.5 29t27.5 76q0 41 -23.5 73.5t-82.5 32.5h-121v-211zM961 0v1014h278v-1014h-278z" />
<glyph unicode="&#x44c;" horiz-adv-x="907" d="M90 0v1014h281v-338h125q102 0 172.5 -25.5t114.5 -69.5t63.5 -104.5t19.5 -128.5q0 -82 -28.5 -146.5t-77.5 -109.5t-115.5 -68.5t-140.5 -23.5h-414zM369 233h116q55 0 83 29t28 76q0 41 -23.5 73.5t-83.5 32.5h-120v-211z" />
<glyph unicode="&#x44d;" horiz-adv-x="874" d="M45 229l231 107q16 -47 47 -65.5t64 -18.5q63 0 91 45t32 111h-217v206h217q-6 70 -30.5 111t-90.5 41q-31 0 -61.5 -21.5t-51.5 -70.5q-55 27 -109 53.5t-110 54.5q47 117 140.5 179.5t216.5 62.5q111 0 185.5 -33t120.5 -98.5t66.5 -162.5t20.5 -226q0 -117 -22.5 -212 t-71.5 -163t-129 -103.5t-195 -35.5q-129 0 -218 62.5t-126 176.5z" />
<glyph unicode="&#x44e;" horiz-adv-x="1329" d="M92 0v1014h279v-393h98q4 57 13.5 108t25.5 86q41 98 134 154.5t224 56.5q137 0 219 -55.5t117 -139.5q27 -66 37 -147.5t10 -179.5q0 -109 -12 -188.5t-41 -139.5q-53 -109 -143 -149.5t-207 -40.5q-104 0 -175 32.5t-116 92.5q-41 51 -61.5 122.5t-28.5 169.5h-94v-403 h-279zM748 500q0 -51 3 -96.5t17 -79.5q25 -70 90 -70q14 0 29.5 3t29 14.5t24.5 33t17 55.5q4 29 6.5 69t2.5 93t-4.5 92t-14.5 70q-27 74 -86 74q-66 0 -94 -72q-12 -35 -16 -79t-4 -107z" />
<glyph unicode="&#x44f;" horiz-adv-x="958" d="M49 0l72 279q14 53 40.5 94t74.5 65q-86 33 -121 98.5t-37 143.5q0 160 97 247t261 87h428v-1014h-286v379h-56q-45 0 -80.5 -31t-56.5 -121l-51 -227h-285zM356 676q0 -47 33 -63.5t80 -16.5h109v176h-115q-43 0 -75 -21.5t-32 -74.5z" />
<glyph unicode="&#x451;" horiz-adv-x="950" d="M74 506q0 119 20.5 215t67.5 163.5t125 104.5t194 37q123 0 201 -41t122 -109.5t60.5 -160.5t16.5 -197v-80h-516v-16q0 -35 4 -65.5t16 -54t33.5 -37t56.5 -13.5q43 0 78 19.5t70 70.5l239 -129q-53 -115 -157.5 -169t-227.5 -54q-113 0 -189.5 34.5t-124.5 101.5 t-68.5 162t-20.5 218zM141 1157v266h273v-266h-273zM365 618h215q0 27 -4.5 53.5t-15.5 47t-32.5 33t-56.5 12.5q-29 0 -49.5 -13.5t-32.5 -34t-17 -47t-7 -51.5zM543 1157v266h274v-266h-274z" />
<glyph unicode="&#x452;" horiz-adv-x="1050" d="M2 1151v166h125v170h287v-170h317v-166h-315v-238h4q41 47 103.5 73t115.5 26q94 0 156.5 -31t101.5 -94.5t55.5 -159.5t16.5 -227q0 -268 -91.5 -394t-302.5 -133h-59v234q51 2 83 20.5t48.5 55t22.5 95t6 140.5q0 43 -4 84t-17.5 74t-38 53.5t-65.5 20.5 q-72 0 -103.5 -62.5t-31.5 -171.5q0 -129 -1 -258t-1 -258h-287v1151h-125z" />
<glyph unicode="&#x453;" horiz-adv-x="829" d="M80 0v1014h719v-250h-443v-764h-276zM303 1167l189 400l247 -99l-278 -374z" />
<glyph unicode="&#x454;" horiz-adv-x="868" d="M61 504q0 522 420 522q127 0 216 -57.5t132 -167.5l-223 -115q-25 43 -57.5 61.5t-61.5 18.5q-53 0 -84.5 -30.5t-42.5 -121.5h222v-206h-224q10 -86 40 -121t87 -35q31 0 62 18.5t55 65.5l234 -121q-47 -104 -138.5 -164.5t-214.5 -60.5q-121 0 -201.5 36.5t-130 103.5 t-70 162t-20.5 212z" />
<glyph unicode="&#x455;" horiz-adv-x="905" d="M51 172l199 168q39 -57 87 -79.5t107 -22.5q57 0 88 24.5t31 52.5q0 35 -22.5 52.5t-75.5 27.5q-68 12 -137.5 31.5t-125 54.5t-91 89.5t-35.5 138.5q0 74 30.5 132t83 99t121 62.5t146.5 21.5q137 0 226 -41t155 -113l-172 -180q-39 45 -85 65.5t-112 20.5 q-59 0 -81.5 -20.5t-22.5 -40.5q0 -18 12 -30.5t32.5 -21t44 -14.5t48.5 -10q70 -14 134 -34.5t113.5 -57.5t78 -93.5t28.5 -140.5q0 -145 -107.5 -234t-295.5 -89q-139 0 -234.5 42t-167.5 140z" />
<glyph unicode="&#x456;" horiz-adv-x="518" d="M117 0v1014h286v-1014h-286zM117 1165v260h286v-260h-286z" />
<glyph unicode="&#x457;" horiz-adv-x="518" d="M-76 1143v266h273v-266h-273zM117 0v1014h286v-1014h-286zM326 1143v266h274v-266h-274z" />
<glyph unicode="&#x458;" horiz-adv-x="524" d="M-23 -147h52q57 0 74.5 40.5t17.5 92.5v1030h287v-1106q0 -156 -97.5 -236t-261.5 -80h-72v259zM121 1165v260h287v-260h-287z" />
<glyph unicode="&#x459;" horiz-adv-x="1406" d="M20 188q45 14 76 31t52.5 40.5t33 56t15.5 77.5q6 63 6 152v469h674v-338h124q102 0 174 -25.5t116 -69.5t63.5 -104.5t19.5 -128.5q0 -96 -29.5 -161.5t-83 -107.5t-130 -60.5t-168.5 -18.5h-369v762h-135v-215q0 -35 -1 -69t-3 -66q-10 -211 -104.5 -316.5 t-276.5 -118.5zM877 250h106q47 0 77 23.5t30 64.5t-26 66.5t-83 25.5h-104v-180z" />
<glyph unicode="&#x45a;" horiz-adv-x="1361" d="M88 0v1014h279v-342h182v342h278v-342h125q104 0 175 -25.5t115 -68.5t63.5 -102.5t19.5 -127.5q0 -160 -97.5 -254t-277.5 -94h-401v440h-182v-440h-279zM827 236h117q55 0 83 26.5t28 73.5q0 104 -113 104h-115v-204z" />
<glyph unicode="&#x45b;" horiz-adv-x="1017" d="M8 1151v166h127v170h287v-170h305v-166h-305v-225l10 -2q35 35 95.5 62.5t113.5 27.5q141 0 207.5 -87t66.5 -231v-696h-286v629q0 59 -27 86.5t-70 27.5q-45 0 -77.5 -33.5t-32.5 -93.5v-616h-287v1151h-127z" />
<glyph unicode="&#x45c;" horiz-adv-x="968" d="M102 0v1010h285v-385h45q20 0 42 4t41.5 19.5t36.5 45t30 78.5l59 240h274l-75 -295q-18 -74 -58.5 -124t-95.5 -67q68 -16 105.5 -70.5t56.5 -129.5l86 -326h-289l-53 240q-12 49 -27.5 79.5t-34 48t-41 22.5t-49.5 5h-53v-395h-285zM317 1167l191 400l246 -99 l-277 -374z" />
<glyph unicode="&#x45e;" horiz-adv-x="905" d="M2 1014h307l70 -328l63 -280h11l65 278l82 330h299l-379 -1192q-39 -123 -118.5 -177.5t-194.5 -54.5h-101v246h60q84 0 115 105l32 112zM125 1456h211q0 -23 9 -48.5t24.5 -48t38 -36.5t51.5 -14q31 0 52 14t36.5 36.5t23 48.5t7.5 48h213q-4 -51 -23.5 -111.5 t-58.5 -112.5t-100.5 -87t-149.5 -35q-92 0 -154.5 35t-101.5 87t-57.5 112.5t-20.5 111.5z" />
<glyph unicode="&#x45f;" horiz-adv-x="983" d="M102 0v1014h279v-758h227v758h279v-1014h-277v-287h-237v287h-271z" />
<glyph unicode="&#x490;" horiz-adv-x="983" d="M125 0v1425h594v244h235v-518h-532v-1151h-297z" />
<glyph unicode="&#x491;" horiz-adv-x="829" d="M96 0v1014h496v225h223v-475h-434v-764h-285z" />
<glyph unicode="&#x4d9;" horiz-adv-x="950" d="M74 498v80h516v16q0 35 -4 65.5t-16.5 54t-34 37t-56.5 13.5q-43 0 -77.5 -19.5t-69.5 -70.5l-240 129q53 115 160.5 169t230.5 54q113 0 190 -35t123 -101.5t65.5 -161.5t19.5 -218q0 -121 -20.5 -217t-68 -164t-125 -103.5t-194.5 -35.5q-123 0 -200.5 41t-122 109.5 t-60.5 160.5t-16 197zM375 397q0 -27 4 -53.5t15.5 -47t33 -32.5t55.5 -12q29 0 48.5 13.5t31.5 33.5t18.5 47t8.5 51h-215z" />
<glyph unicode="&#x1e80;" horiz-adv-x="1531" d="M8 1423h324q23 -131 45 -259t43 -257q12 -72 22.5 -142.5t22.5 -141.5h8q23 98 43.5 197.5t42.5 197.5l92 405h232q25 -102 48 -203.5t46 -203.5q23 -100 44 -200.5t44 -201.5h10q10 72 20.5 141.5t20.5 141.5l84 526h324l-301 -1425h-267q-27 111 -55.5 222.5 t-54.5 221.5l-74 306h-8q-18 -78 -36.5 -155t-39.5 -155q-25 -111 -55.5 -221.5t-57.5 -218.5h-266zM399 1716l172 205l355 -264l-107 -139z" />
<glyph unicode="&#x1e81;" horiz-adv-x="1368" d="M14 1014h305l54 -301l53 -289h10l62 289l61 301h250l63 -303l66 -287h10l53 291l52 299h299l-269 -1014h-278l-55 227l-62 277h-8l-62 -275l-57 -229h-276zM375 1464l248 103l198 -389l-157 -84z" />
<glyph unicode="&#x1e82;" horiz-adv-x="1531" d="M8 1423h324q23 -131 45 -259t43 -257q12 -72 22.5 -142.5t22.5 -141.5h8q23 98 43.5 197.5t42.5 197.5l92 405h232q25 -102 48 -203.5t46 -203.5q23 -100 44 -200.5t44 -201.5h10q10 72 20.5 141.5t20.5 141.5l84 526h324l-301 -1425h-267q-27 111 -55.5 222.5 t-54.5 221.5l-74 306h-8q-18 -78 -36.5 -155t-39.5 -155q-25 -111 -55.5 -221.5t-57.5 -218.5h-266zM600 1626l354 264l172 -204l-419 -199z" />
<glyph unicode="&#x1e83;" horiz-adv-x="1368" d="M14 1014h305l54 -301l53 -289h10l62 289l61 301h250l63 -303l66 -287h10l53 291l52 299h299l-269 -1014h-278l-55 227l-62 277h-8l-62 -275l-57 -229h-276zM594 1167l190 400l246 -99l-276 -374z" />
<glyph unicode="&#x1e84;" horiz-adv-x="1531" d="M8 1423h324q23 -131 45 -259t43 -257q12 -72 22.5 -142.5t22.5 -141.5h8q23 98 43.5 197.5t42.5 197.5l92 405h232q25 -102 48 -203.5t46 -203.5q23 -100 44 -200.5t44 -201.5h10q10 72 20.5 141.5t20.5 141.5l84 526h324l-301 -1425h-267q-27 111 -55.5 222.5 t-54.5 221.5l-74 306h-8q-18 -78 -36.5 -155t-39.5 -155q-25 -111 -55.5 -221.5t-57.5 -218.5h-266zM432 1509v269h279v-269h-279zM831 1509v269h277v-269h-277z" />
<glyph unicode="&#x1e85;" horiz-adv-x="1368" d="M14 1014h305l54 -301l53 -289h10l62 289l61 301h250l63 -303l66 -287h10l53 291l52 299h299l-269 -1014h-278l-55 227l-62 277h-8l-62 -275l-57 -229h-276zM344 1143v266h272v-266h-272zM745 1143v266h275v-266h-275z" />
<glyph unicode="&#x1ef2;" horiz-adv-x="1044" d="M10 1430h330l94 -291l84 -273h12l88 275l105 284h315l-368 -854v-571h-291v571zM172 1686l172 204l354 -264l-106 -139z" />
<glyph unicode="&#x1ef3;" horiz-adv-x="905" d="M2 1014h307l70 -328l63 -280h11l65 278l82 330h299l-379 -1192q-39 -123 -118.5 -177.5t-194.5 -54.5h-101v246h60q84 0 115 105l32 112zM131 1464l248 103l199 -389l-158 -84z" />
<glyph unicode="&#x2000;" horiz-adv-x="960" />
<glyph unicode="&#x2001;" horiz-adv-x="1921" />
<glyph unicode="&#x2002;" horiz-adv-x="960" />
<glyph unicode="&#x2003;" horiz-adv-x="1921" />
<glyph unicode="&#x2004;" horiz-adv-x="640" />
<glyph unicode="&#x2005;" horiz-adv-x="480" />
<glyph unicode="&#x2006;" horiz-adv-x="320" />
<glyph unicode="&#x2007;" horiz-adv-x="320" />
<glyph unicode="&#x2008;" horiz-adv-x="240" />
<glyph unicode="&#x2009;" horiz-adv-x="384" />
<glyph unicode="&#x200a;" horiz-adv-x="106" />
<glyph unicode="&#x2010;" horiz-adv-x="843" d="M98 418v256h658v-256h-658z" />
<glyph unicode="&#x2011;" horiz-adv-x="843" d="M98 418v256h658v-256h-658z" />
<glyph unicode="&#x2012;" horiz-adv-x="843" d="M98 418v256h658v-256h-658z" />
<glyph unicode="&#x2013;" horiz-adv-x="1024" d="M41 451v237h936v-237h-936z" />
<glyph unicode="&#x2014;" horiz-adv-x="2048" d="M41 451v237h1964v-237h-1964z" />
<glyph unicode="&#x2015;" horiz-adv-x="2099" d="M41 451v237h2017v-237h-2017z" />
<glyph unicode="&#x2018;" horiz-adv-x="595" d="M127 838v317l168 318h151l-71 -306h65v-329h-313z" />
<glyph unicode="&#x2019;" horiz-adv-x="595" d="M127 840l74 305h-68v330h313v-318l-165 -317h-154z" />
<glyph unicode="&#x201a;" horiz-adv-x="546" d="M113 -311l73 307h-67v328h313v-318l-166 -317h-153z" />
<glyph unicode="&#x201c;" horiz-adv-x="858" d="M76 838v317l168 318h151l-71 -306h65v-329h-313zM463 838v317l166 318h153l-73 -306h67v-329h-313z" />
<glyph unicode="&#x201d;" horiz-adv-x="858" d="M76 840l74 305h-68v330h313v-318l-166 -317h-153zM463 840l74 305h-68v330h313v-318l-166 -317h-153z" />
<glyph unicode="&#x201e;" horiz-adv-x="1032" d="M113 -311l73 307h-67v328h313v-318l-166 -317h-153zM594 -311l72 307h-66v328h311v-318l-166 -317h-151z" />
<glyph unicode="&#x2020;" horiz-adv-x="925" d="M35 739v244h295v422h268v-422h295v-244h-295v-1067h-268v1067h-295z" />
<glyph unicode="&#x2021;" horiz-adv-x="925" d="M35 213v244h295v282h-295v244h295v422h268v-422h295v-244h-295v-282h295v-244h-295v-541h-268v541h-295z" />
<glyph unicode="&#x2022;" horiz-adv-x="962" d="M176 575q0 66 24.5 124.5t67.5 101.5t100.5 67.5t123.5 24.5t123 -24.5t99 -67.5t66.5 -101.5t24.5 -124.5t-24.5 -123t-66.5 -100t-99.5 -67.5t-122.5 -24.5q-66 0 -123.5 24.5t-100.5 67.5t-67.5 100t-24.5 123z" />
<glyph unicode="&#x2023;" horiz-adv-x="1196" d="M166 12v1129l948 -553z" />
<glyph unicode="&#x2026;" horiz-adv-x="1912" d="M135 0v324h311v-324h-311zM809 0v324h311v-324h-311zM1462 0v324h312v-324h-312z" />
<glyph unicode="&#x202f;" horiz-adv-x="384" />
<glyph unicode="&#x2030;" horiz-adv-x="2168" d="M98 801v401q0 55 21.5 98t58.5 74t84 46.5t100 15.5q55 0 103.5 -15.5t84.5 -46.5t57.5 -74t21.5 -98v-401q0 -55 -21.5 -98.5t-58.5 -73t-85 -46t-102 -16.5q-53 0 -101 16.5t-84 46t-57.5 72.5t-21.5 99zM303 -35l758 1495h188l-760 -1495h-186zM305 807 q0 -23 15.5 -38t41.5 -15q25 0 40.5 15t15.5 38v389q0 25 -14.5 40t-43.5 15q-27 0 -41 -15t-14 -40v-389zM950 227v402q0 55 21.5 98t58.5 73.5t84 46t100 15.5q55 0 103.5 -15.5t84.5 -46t57.5 -73.5t21.5 -98v-402q0 -55 -21.5 -98t-58.5 -72.5t-85 -46t-102 -16.5 q-53 0 -101 16.5t-84 46t-57.5 72.5t-21.5 98zM1157 233q0 -23 15.5 -38t41.5 -15q25 0 40.5 15.5t15.5 37.5v390q0 25 -14.5 40t-43.5 15q-27 0 -41 -15.5t-14 -39.5v-390zM1540 227v402q0 55 21.5 98t58.5 73.5t84 46t100 15.5q55 0 103.5 -15.5t84.5 -46t57.5 -73.5 t21.5 -98v-402q0 -55 -21.5 -98t-58.5 -72.5t-85 -46t-102 -16.5q-53 0 -101 16.5t-84 46t-57.5 72.5t-21.5 98zM1747 233q0 -23 15.5 -38t41.5 -15q25 0 40.5 15.5t15.5 37.5v390q0 25 -14.5 40t-43.5 15q-27 0 -41 -15.5t-14 -39.5v-390z" />
<glyph unicode="&#x2039;" horiz-adv-x="757" d="M96 481l269 424h276l-264 -424l264 -424h-276z" />
<glyph unicode="&#x203a;" horiz-adv-x="757" d="M94 57l266 424l-266 424h277l268 -424l-268 -424h-277z" />
<glyph unicode="&#x2044;" horiz-adv-x="368" d="M-295 -35l758 1495h188l-760 -1495h-186z" />
<glyph unicode="&#x205f;" horiz-adv-x="480" />
<glyph unicode="&#x2070;" horiz-adv-x="641" d="M57 985v401q0 55 21.5 98.5t58.5 74t84 46t101 15.5q55 0 103 -15.5t84 -46t57.5 -73.5t21.5 -99v-401q0 -55 -21.5 -98t-58.5 -73t-85 -46t-101 -16t-101.5 16t-84.5 46t-57.5 73t-21.5 98zM264 991q0 -23 15.5 -38t42.5 -15q25 0 40 15.5t15 37.5v389q0 25 -14.5 40.5 t-43.5 15.5q-27 0 -41 -15.5t-14 -40.5v-389z" />
<glyph unicode="&#x2074;" horiz-adv-x="649" d="M27 872v152l252 586h215l-238 -559h98v161h201v-161h61v-179h-61v-116h-201v116h-327z" />
<glyph unicode="&#x2075;" horiz-adv-x="645" d="M53 987q53 8 103.5 15.5t101.5 13.5q4 -51 23.5 -65.5t42.5 -14.5q25 0 37 12.5t18 32.5t6 44v48q0 14 -1 31.5t-7 33t-18.5 24.5t-34.5 9q-12 0 -30 -11t-34 -44h-182v494h497v-183h-296v-104q23 14 49 19.5t49 5.5q68 0 109.5 -19.5t66.5 -55.5t34 -87t9 -113 q0 -74 -13.5 -133t-45 -102t-84 -66.5t-127.5 -23.5q-113 0 -185.5 55t-87.5 184z" />
<glyph unicode="&#x2076;" horiz-adv-x="638" d="M61 1004q0 43 12.5 101t28.5 93l201 410h227l-163 -342q8 4 18 5t18 1q37 0 70 -13.5t58.5 -42t41 -73.5t15.5 -111q0 -135 -65.5 -207.5t-203.5 -72.5q-127 0 -192.5 58t-65.5 194zM266 1024q0 -51 13.5 -72.5t42.5 -21.5q35 0 47 25.5t12 82.5q0 43 -13 61.5t-40 18.5 q-31 0 -46.5 -21.5t-15.5 -72.5z" />
<glyph unicode="&#x2077;" horiz-adv-x="610" d="M49 1331v279h543v-160l-287 -694h-219l268 669h-102v-94h-203z" />
<glyph unicode="&#x2078;" horiz-adv-x="649" d="M53 1014q0 47 15.5 100t68.5 90q-45 29 -60.5 74t-15.5 92q0 111 67 180.5t194 69.5q123 0 194.5 -60.5t71.5 -189.5q0 -49 -16.5 -94t-63.5 -72q51 -29 69.5 -84t18.5 -106q0 -74 -22.5 -124t-60.5 -81t-87 -45t-104 -14t-103.5 14t-85.5 45t-58.5 81t-21.5 124z M258 1028q0 -53 15.5 -75.5t48.5 -22.5q37 0 53 26.5t16 73.5q0 86 -69 86q-33 0 -48.5 -23.5t-15.5 -64.5zM268 1364q0 -47 13.5 -65.5t42.5 -18.5q59 0 59 88q0 33 -14.5 52.5t-44.5 19.5q-29 0 -42.5 -20.5t-13.5 -55.5z" />
<glyph unicode="&#x2079;" horiz-adv-x="643" d="M57 1337q0 133 64.5 207t200.5 74q117 0 189.5 -58.5t72.5 -193.5q0 -43 -12.5 -101.5t-28.5 -93.5l-201 -409h-227l164 342q-16 -6 -37 -6q-37 0 -70 13t-58.5 42t-41 74t-15.5 110zM264 1331q0 -43 13 -61.5t40 -18.5q31 0 46.5 21.5t15.5 73.5q0 51 -13.5 72.5 t-41.5 21.5q-35 0 -47.5 -25.5t-12.5 -83.5z" />
<glyph unicode="&#x207a;" horiz-adv-x="653" d="M16 1040v162h220v199h180v-199h217v-162h-217v-202h-180v202h-220z" />
<glyph unicode="&#x207b;" horiz-adv-x="548" d="M53 993v176h449v-176h-449z" />
<glyph unicode="&#x207c;" horiz-adv-x="653" d="M16 922v157h619v-157h-619zM16 1163v158h619v-158h-619z" />
<glyph unicode="&#x207d;" horiz-adv-x="446" d="M70 1135q0 152 67.5 283.5t165.5 242.5l135 -66q-80 -113 -122 -232.5t-42 -221.5q0 -113 43 -235t119 -226l-123 -82q-104 117 -173.5 251t-69.5 286z" />
<glyph unicode="&#x207e;" horiz-adv-x="446" d="M55 680q78 104 121 226t43 235q0 102 -41 222t-123 232l135 66q49 -53 91.5 -113.5t75 -127t51 -138t18.5 -147.5q0 -152 -69.5 -286t-174.5 -251z" />
<glyph unicode="&#x207f;" horiz-adv-x="681" d="M66 571v672h217v-51q23 25 58.5 42t74.5 17q109 0 154.5 -57t45.5 -156v-467h-217v422q0 33 -16 47.5t-41 14.5q-27 0 -43 -16.5t-16 -45.5v-422h-217z" />
<glyph unicode="&#x2080;" horiz-adv-x="641" d="M57 43v401q0 55 21.5 98.5t58.5 74t84 46t101 15.5q55 0 103 -15.5t84 -46t57.5 -73.5t21.5 -99v-401q0 -55 -21.5 -98t-58.5 -73t-85 -46t-101 -16t-101.5 16t-84.5 46t-57.5 73t-21.5 98zM264 49q0 -23 15.5 -38t42.5 -15q25 0 40 15.5t15 37.5v389q0 25 -14.5 40.5 t-43.5 15.5q-27 0 -41 -15.5t-14 -40.5v-389z" />
<glyph unicode="&#x2081;" horiz-adv-x="522" d="M68 350v215l155 103h183v-854h-213v622z" />
<glyph unicode="&#x2082;" horiz-adv-x="638" d="M41 416q6 63 29.5 112.5t61.5 82t85 50t100 17.5q127 0 199 -60.5t72 -173.5q0 -51 -17.5 -95t-50.5 -89l-192 -258h250v-188h-529v166l299 382q25 33 25 74q0 23 -13.5 39.5t-42.5 16.5q-25 0 -45 -23t-24 -80z" />
<glyph unicode="&#x2083;" horiz-adv-x="641" d="M49 49l203 25q4 -47 25.5 -61.5t39.5 -14.5q25 0 38.5 9t19.5 23.5t7 31t1 28.5q0 35 -12.5 60.5t-55.5 25.5h-75v160h67q45 0 59.5 24.5t14.5 61.5q0 20 -10.5 45t-51.5 25q-20 0 -40.5 -19.5t-24.5 -73.5l-201 31q16 117 93.5 182.5t181.5 65.5q74 0 124 -20.5 t82.5 -54.5t47 -81t14.5 -98q0 -41 -19.5 -92t-70.5 -76q57 -20 75.5 -70.5t18.5 -107.5q0 -119 -68.5 -195t-209.5 -76q-49 0 -95.5 14.5t-83.5 44.5t-62.5 76t-31.5 107z" />
<glyph unicode="&#x2084;" horiz-adv-x="649" d="M27 -70v152l252 586h215l-238 -559h98v161h201v-161h61v-179h-61v-116h-201v116h-327z" />
<glyph unicode="&#x2085;" horiz-adv-x="645" d="M53 45q53 8 103.5 15.5t101.5 13.5q4 -51 23.5 -65.5t42.5 -14.5q25 0 37 12t18 32.5t6 44v48.5q0 14 -1 31.5t-7 33t-18.5 24.5t-34.5 9q-12 0 -30 -11t-34 -44h-182v494h497v-183h-296v-104q23 14 49 19.5t49 5.5q68 0 109.5 -19.5t66.5 -55.5t34 -87t9 -113 q0 -74 -13.5 -133t-45 -102t-84 -67t-127.5 -24q-113 0 -185.5 55.5t-87.5 184.5z" />
<glyph unicode="&#x2086;" horiz-adv-x="638" d="M61 61q0 43 12.5 101.5t28.5 93.5l201 410h227l-163 -342q8 4 18 5t18 1q37 0 70 -13.5t58.5 -42t41 -73.5t15.5 -111q0 -135 -65.5 -207.5t-203.5 -72.5q-127 0 -192.5 58t-65.5 193zM266 82q0 -51 13.5 -72.5t42.5 -21.5q35 0 47 25.5t12 82.5q0 43 -13 61.5t-40 18.5 q-31 0 -46.5 -21.5t-15.5 -72.5z" />
<glyph unicode="&#x2087;" horiz-adv-x="610" d="M49 389v279h543v-160l-287 -694h-219l268 669h-102v-94h-203z" />
<glyph unicode="&#x2088;" horiz-adv-x="649" d="M53 72q0 47 15.5 100t68.5 90q-45 29 -60.5 74t-15.5 92q0 111 67 180.5t194 69.5q123 0 194.5 -60.5t71.5 -189.5q0 -49 -16.5 -94t-63.5 -72q51 -29 69.5 -84t18.5 -106q0 -74 -22.5 -124t-60.5 -81t-87 -45.5t-104 -14.5t-103.5 14.5t-85.5 45.5t-58.5 81t-21.5 124z M258 86q0 -53 15.5 -75.5t48.5 -22.5q37 0 53 26.5t16 73.5q0 86 -69 86q-33 0 -48.5 -23.5t-15.5 -64.5zM268 422q0 -47 13.5 -65.5t42.5 -18.5q59 0 59 88q0 33 -14.5 52.5t-44.5 19.5q-29 0 -42.5 -20.5t-13.5 -55.5z" />
<glyph unicode="&#x2089;" horiz-adv-x="643" d="M57 395q0 133 64.5 207t200.5 74q117 0 189.5 -58.5t72.5 -193.5q0 -43 -12.5 -101.5t-28.5 -93.5l-201 -409h-227l164 342q-16 -6 -37 -6q-37 0 -70 13t-58.5 42t-41 74t-15.5 110zM264 389q0 -43 13 -61.5t40 -18.5q31 0 46.5 21.5t15.5 72.5t-13.5 73t-41.5 22 q-35 0 -47.5 -26t-12.5 -83z" />
<glyph unicode="&#x208a;" horiz-adv-x="653" d="M16 96v162h220v199h180v-199h217v-162h-217v-200h-180v200h-220z" />
<glyph unicode="&#x208b;" horiz-adv-x="548" d="M53 49v178h449v-178h-449z" />
<glyph unicode="&#x208c;" horiz-adv-x="653" d="M16 -23v158h619v-158h-619zM16 219v158h619v-158h-619z" />
<glyph unicode="&#x208d;" horiz-adv-x="446" d="M70 193q0 152 67.5 283.5t165.5 242.5l135 -66q-80 -113 -122 -232.5t-42 -221.5q0 -113 43 -235t119 -226l-123 -82q-104 117 -173.5 251t-69.5 286z" />
<glyph unicode="&#x208e;" horiz-adv-x="446" d="M55 -262q78 104 121 226t43 235q0 102 -41 222t-123 232l135 66q49 -53 91.5 -113.5t75 -127t51 -138t18.5 -147.5q0 -152 -69.5 -286t-174.5 -251z" />
<glyph unicode="&#x20ab;" horiz-adv-x="1003" d="M152 670q0 63 6 133.5t31.5 129t77.5 96.5t147 38q31 0 69.5 -10t69.5 -41v112h-150v158h150v123h256v-123h86v-158h-86v-862h-250v51q-29 -29 -72 -44t-73 -15q-78 0 -129.5 26.5t-81 78t-40.5 128t-11 179.5zM170 -16v198h645v-198h-645zM418 655q0 -82 11 -125t58 -43 q37 0 52.5 38t15.5 132q0 35 -1 68t-8 57.5t-20.5 39t-38.5 14.5t-39 -15.5t-21 -41t-8 -58.5t-1 -66z" />
<glyph unicode="&#x20ac;" horiz-adv-x="1003" d="M43 524v150h80v74h-80v149h80v82q0 80 23.5 161t75.5 146.5t134 107.5t201 42q94 0 167 -30t126 -79t87 -113.5t46 -134.5l-266 -84q-4 20 -13.5 48t-28 50.5t-48 39t-70.5 16.5q-43 0 -71.5 -15.5t-46 -39t-25.5 -51t-8 -52.5v-94h307v-149h-307v-74h307v-150h-307v-61 q0 -82 33.5 -135.5t117.5 -53.5q59 0 103.5 40t52.5 110l268 -82q-14 -84 -52 -149.5t-93.5 -110.5t-126 -69.5t-152.5 -24.5q-117 0 -200 39t-135 105.5t-75.5 154.5t-23.5 184v53h-80z" />
<glyph unicode="&#x2105;" horiz-adv-x="1447" d="M72 1065q0 78 14 145.5t47 117.5t87 79t134 29q94 0 164 -46.5t100 -134.5l-186 -88q-18 35 -32.5 50.5t-34.5 15.5q-47 0 -60.5 -46t-13.5 -122q0 -86 14 -125t60 -39q23 0 38 15.5t31 48.5l187 -88q-33 -86 -101.5 -132.5t-161.5 -46.5q-82 0 -137 28t-88 76t-47 115.5 t-14 147.5zM242 -35l757 1495h189l-760 -1495h-186zM805 356q0 63 10 124t27 98q31 70 94.5 110.5t155.5 40.5q98 0 160.5 -40t86.5 -99q18 -45 26.5 -104.5t8.5 -129.5q0 -150 -39 -229q-37 -76 -101.5 -106.5t-150.5 -30.5q-145 0 -213 90q-35 47 -50 113.5t-15 162.5z M1020 358q0 -35 2 -67.5t12 -54.5q14 -43 58 -43q16 0 34.5 11t26.5 56q6 39 6 111q0 35 -1 62.5t-11 49.5q-8 18 -22.5 31.5t-30.5 13.5q-18 0 -35 -12t-25 -33q-10 -23 -12 -54.5t-2 -70.5z" />
<glyph unicode="&#x2116;" horiz-adv-x="1816" d="M129 0v1425h262l203 -426q41 -86 82 -167.5t82 -167.5q4 0 4 1t4 1v759h293v-1425h-258l-197 406q-41 86 -84 178t-88 182q-4 0 -4 -1t-4 -1v-764h-295zM1153 1094q2 55 7 111.5t22 90.5q29 66 95.5 104t162.5 38q98 0 156.5 -37t84.5 -94q18 -41 24.5 -95.5t6.5 -117.5 q0 -72 -7 -124t-30 -91q-39 -72 -103.5 -100.5t-146.5 -28.5q-74 0 -125 22.5t-86 61.5q-35 43 -48 106.5t-13 153.5zM1176 510v172h518v-172h-518zM1366 1090q0 -35 1 -65t11 -52q16 -33 54 -33q39 0 53 35q8 18 10 51t2 80q0 35 -2 61.5t-10 44.5q-16 37 -51 37 q-39 0 -56 -37q-10 -23 -11 -53.5t-1 -68.5z" />
<glyph unicode="&#x2122;" horiz-adv-x="1779" d="M84 1243v182h623v-182h-213v-657h-197v657h-213zM793 586v837h227l104 -239q25 -55 46.5 -110.5t43.5 -108.5h5l88 217l106 241h227v-837h-192v493h-6l-82 -217l-86 -205h-117q-23 53 -44 103.5t-44 101.5l-82 217h-6v-493h-188z" />
<glyph unicode="&#x2153;" horiz-adv-x="1576" d="M137 1108v215l156 102h182v-854h-213v623zM256 -35l758 1495h188l-760 -1495h-186zM887 233l203 25q4 -47 25.5 -61.5t39.5 -14.5q25 0 38 9.5t19.5 23.5t7.5 30.5t1 28.5q0 35 -12.5 60.5t-55.5 25.5h-76v160h68q45 0 59.5 24.5t14.5 61.5q0 20 -10.5 45t-51.5 25 q-20 0 -40.5 -19.5t-24.5 -72.5l-201 30q16 117 93 182.5t181 65.5q74 0 124 -20.5t83 -54t47.5 -81t14.5 -98.5q0 -41 -19.5 -92t-71.5 -76q57 -20 76 -70.5t19 -107.5q0 -119 -69 -194.5t-210 -75.5q-49 0 -95 14t-83 44t-62.5 76t-31.5 107z" />
<glyph unicode="&#x2154;" horiz-adv-x="1576" d="M61 1174q6 63 30 112t61.5 82t85 50.5t100.5 17.5q127 0 198.5 -60.5t71.5 -173.5q0 -51 -17.5 -95t-49.5 -89l-193 -258h250v-189h-528v166l299 383q25 33 24 74q0 23 -13 39t-42 16q-25 0 -45.5 -22.5t-24.5 -79.5zM336 -35l758 1495h188l-760 -1495h-186zM963 233 l202 25q4 -47 25.5 -61.5t40.5 -14.5q25 0 38 9.5t19 23.5t7 30.5t1 28.5q0 35 -12 60.5t-55 25.5h-76v160h68q45 0 59 24.5t14 61.5q0 20 -10 45t-51 25q-20 0 -41 -19.5t-25 -72.5l-200 30q16 117 93 182.5t181 65.5q74 0 124 -20.5t83 -54t47 -81t14 -98.5 q0 -41 -19.5 -92t-70.5 -76q57 -20 75.5 -70.5t18.5 -107.5q0 -119 -68.5 -194.5t-209.5 -75.5q-49 0 -95 14t-83 44t-62.5 76t-31.5 107z" />
<glyph unicode="&#x2155;" horiz-adv-x="1576" d="M123 1108v215l156 102h182v-854h-213v623zM223 -35l758 1495h188l-759 -1495h-187zM909 229q53 8 103.5 15.5t101.5 13.5q4 -51 23.5 -65.5t42.5 -14.5q25 0 37 12.5t18 33t6 44v47.5q0 14 -1 32t-7 33t-18.5 24.5t-34.5 9.5q-12 0 -29.5 -11.5t-34.5 -44.5h-182v494h498 v-182h-297v-105q23 14 49 19.5t49 5.5q68 0 109.5 -19.5t66.5 -55.5t34 -87t9 -113q0 -74 -13.5 -133t-45 -102t-84 -66.5t-127.5 -23.5q-113 0 -185.5 55t-87.5 184z" />
<glyph unicode="&#x2156;" horiz-adv-x="1576" d="M47 1174q6 63 29.5 112t61.5 82t85 50.5t101 17.5q127 0 198.5 -60.5t71.5 -173.5q0 -51 -17.5 -95t-50.5 -89l-192 -258h250v-189h-529v166l299 383q25 33 25 74q0 23 -13.5 39t-41.5 16q-25 0 -45.5 -22.5t-24.5 -79.5zM319 -35l758 1495h189l-760 -1495h-187zM985 229 q53 8 103.5 15.5t101.5 13.5q4 -51 23.5 -65.5t41.5 -14.5q25 0 37.5 12.5t18.5 33t6 44v47.5q0 14 -1 32t-7 33t-18.5 24.5t-35.5 9.5q-12 0 -29.5 -11.5t-33.5 -44.5h-182v494h497v-182h-297v-105q23 14 49.5 19.5t49.5 5.5q68 0 109.5 -19.5t66 -55.5t34 -87t9.5 -113 q0 -74 -13.5 -133t-45 -102t-84 -66.5t-128.5 -23.5q-113 0 -185.5 55t-86.5 184z" />
<glyph unicode="&#x2157;" horiz-adv-x="1576" d="M53 807l203 24q4 -47 25.5 -61t40.5 -14q25 0 38 9t19 23.5t7 31t1 28.5q0 35 -12.5 60.5t-55.5 25.5h-75v160h67q45 0 59.5 24.5t14.5 61.5q0 20 -10 44.5t-51 24.5q-20 0 -41 -19.5t-25 -72.5l-201 31q16 117 93.5 182.5t181.5 65.5q74 0 124 -20.5t82.5 -54.5t47 -81 t14.5 -98q0 -41 -19.5 -92.5t-70.5 -75.5q57 -20 75.5 -70.5t18.5 -107.5q0 -119 -68.5 -195t-209.5 -76q-49 0 -95.5 14.5t-83 44t-62.5 75.5t-32 108zM293 -35l758 1495h188l-760 -1495h-186zM979 229q53 8 103.5 15.5t101.5 13.5q4 -51 23.5 -65.5t41.5 -14.5 q25 0 37 12.5t18.5 33t6.5 44v47.5q0 14 -1 32t-7.5 33t-18.5 24.5t-35 9.5q-12 0 -29.5 -11.5t-33.5 -44.5h-182v494h497v-182h-297v-105q23 14 49.5 19.5t49.5 5.5q68 0 109.5 -19.5t66 -55.5t34 -87t9.5 -113q0 -74 -13.5 -133t-45 -102t-84 -66.5t-128.5 -23.5 q-113 0 -185.5 55t-86.5 184z" />
<glyph unicode="&#x2158;" horiz-adv-x="1576" d="M37 688v152l252 585h215l-238 -559h99v162h200v-162h62v-178h-62v-117h-200v117h-328zM332 -35l758 1495h188l-760 -1495h-186zM995 229q53 8 103.5 15.5t101.5 13.5q4 -51 23.5 -65.5t42.5 -14.5q25 0 37 12.5t18 33t6 44v47.5q0 14 -1 32t-7 33t-18.5 24.5t-34.5 9.5 q-12 0 -29.5 -11.5t-34.5 -44.5h-182v494h498v-182h-297v-105q23 14 49 19.5t49 5.5q68 0 109.5 -19.5t66.5 -55.5t34 -87t9 -113q0 -74 -13.5 -133t-45 -102t-84 -66.5t-127.5 -23.5q-113 0 -185.5 55t-87.5 184z" />
<glyph unicode="&#x2159;" horiz-adv-x="1576" d="M164 1108v215l155 102h183v-854h-213v623zM295 -35l758 1495h188l-760 -1495h-186zM885 246q0 43 12 101.5t29 92.5l200 410h228l-164 -342q8 4 18.5 5t18.5 1q37 0 69.5 -13.5t58 -42t41 -73.5t15.5 -111q0 -135 -65.5 -207.5t-202.5 -72.5q-127 0 -192.5 58.5 t-65.5 193.5zM1090 266q0 -51 13 -72.5t42 -21.5q35 0 47 25.5t12 83.5q0 43 -13 61t-40 18q-31 0 -46 -21.5t-15 -72.5z" />
<glyph unicode="&#x215a;" horiz-adv-x="1576" d="M121 803q53 8 103 15t102 13q4 -51 23.5 -65t41.5 -14q25 0 37 12t18.5 32.5t6.5 44v48.5q0 14 -1 31.5t-7.5 33t-18.5 24.5t-35 9q-12 0 -29.5 -11t-33.5 -44h-183v493h498v-182h-297v-104q23 14 49 19t49 5q68 0 110 -19.5t66.5 -55t34 -87t9.5 -112.5 q0 -74 -13.5 -133.5t-45.5 -102.5t-84 -66.5t-128 -23.5q-113 0 -185.5 55.5t-86.5 184.5zM340 -35l758 1495h188l-760 -1495h-186zM928 246q0 43 12 101.5t29 92.5l200 410h228l-164 -342q8 4 18.5 5t18.5 1q37 0 69.5 -13.5t58 -42t41 -73.5t15.5 -111 q0 -135 -65.5 -207.5t-202.5 -72.5q-127 0 -192.5 58.5t-65.5 193.5zM1133 266q0 -51 13 -72.5t42 -21.5q35 0 47 25.5t12 83.5q0 43 -13 61t-40 18q-31 0 -46 -21.5t-15 -72.5z" />
<glyph unicode="&#x215b;" horiz-adv-x="1576" d="M131 1108v215l156 102h182v-854h-213v623zM274 -35l758 1495h189l-760 -1495h-187zM903 256q0 47 15.5 100.5t68.5 89.5q-45 29 -60.5 74t-15.5 92q0 111 66.5 180.5t193.5 69.5q123 0 195 -60.5t72 -189.5q0 -49 -16.5 -94t-63.5 -72q51 -29 69.5 -84t18.5 -106 q0 -74 -22.5 -124t-60.5 -81t-87 -45t-105 -14q-55 0 -103 14t-85 45t-58.5 81t-21.5 124zM1108 270q0 -53 15 -75.5t48 -22.5q37 0 53.5 26.5t16.5 73.5q0 86 -70 86q-33 0 -48 -23.5t-15 -64.5zM1118 606q0 -47 13.5 -65.5t42.5 -18.5q59 0 59 88q0 33 -14.5 52.5 t-44.5 19.5q-29 0 -42.5 -20.5t-13.5 -55.5z" />
<glyph unicode="&#x215c;" horiz-adv-x="1576" d="M96 807l203 24q4 -47 25.5 -61t40.5 -14q25 0 38 9t19 23.5t7 31t1 28.5q0 35 -12 60.5t-56 25.5h-75v160h67q45 0 59.5 24.5t14.5 61.5q0 20 -10 44.5t-51 24.5q-20 0 -41 -19.5t-25 -72.5l-201 31q16 117 93.5 182.5t181.5 65.5q74 0 124 -20.5t82.5 -54.5t47 -81 t14.5 -98q0 -41 -19.5 -92.5t-70.5 -75.5q57 -20 75.5 -70.5t18.5 -107.5q0 -119 -68.5 -195t-209.5 -76q-49 0 -95.5 14.5t-83 44t-62.5 75.5t-32 108zM317 -35l758 1495h189l-760 -1495h-187zM938 256q0 47 15.5 100.5t68.5 89.5q-45 29 -60.5 74t-15.5 92 q0 111 66.5 180.5t193.5 69.5q123 0 195 -60.5t72 -189.5q0 -49 -16.5 -94t-63.5 -72q51 -29 69.5 -84t18.5 -106q0 -74 -22.5 -124t-60.5 -81t-87 -45t-105 -14q-55 0 -103 14t-85 45t-58.5 81t-21.5 124zM1143 270q0 -53 15 -75.5t48 -22.5q37 0 53.5 26.5t16.5 73.5 q0 86 -70 86q-33 0 -48 -23.5t-15 -64.5zM1153 606q0 -47 13 -65.5t42 -18.5q59 0 60 88q0 33 -14.5 52.5t-45.5 19.5q-29 0 -42 -20.5t-13 -55.5z" />
<glyph unicode="&#x215d;" horiz-adv-x="1576" d="M82 803q53 8 103.5 15t101.5 13q4 -51 23.5 -65t41.5 -14q25 0 37 12t18.5 32.5t6.5 44v48.5q0 14 -1 31.5t-7.5 33t-18.5 24.5t-35 9q-12 0 -29.5 -11t-33.5 -44h-183v493h498v-182h-297v-104q23 14 49.5 19t49.5 5q68 0 109.5 -19.5t66 -55t34 -87t9.5 -112.5 q0 -74 -13.5 -133.5t-45 -102.5t-84 -66.5t-128.5 -23.5q-113 0 -185.5 55.5t-86.5 184.5zM313 -35l758 1495h189l-760 -1495h-187zM950 256q0 47 15.5 100.5t68.5 89.5q-45 29 -60.5 74t-15.5 92q0 111 67 180.5t194 69.5q123 0 194.5 -60.5t71.5 -189.5q0 -49 -16.5 -94 t-63.5 -72q51 -29 69.5 -84t18.5 -106q0 -74 -22.5 -124t-60.5 -81t-87 -45t-104 -14t-103.5 14t-85.5 45t-58.5 81t-21.5 124zM1155 270q0 -53 15.5 -75.5t48.5 -22.5q37 0 53 26.5t16 73.5q0 86 -69 86q-33 0 -48.5 -23.5t-15.5 -64.5zM1165 606q0 -47 13.5 -65.5 t42.5 -18.5q59 0 59 88q0 33 -14.5 52.5t-44.5 19.5q-29 0 -42.5 -20.5t-13.5 -55.5z" />
<glyph unicode="&#x215e;" horiz-adv-x="1576" d="M111 1147v278h542v-159l-286 -695h-220l269 670h-103v-94h-202zM258 -35l758 1495h188l-760 -1495h-186zM924 256q0 47 15 100.5t69 89.5q-45 29 -60.5 74t-15.5 92q0 111 66.5 180.5t193.5 69.5q123 0 194.5 -60.5t71.5 -189.5q0 -49 -16.5 -94t-63.5 -72 q51 -29 69.5 -84t18.5 -106q0 -74 -22.5 -124t-60 -81t-87 -45t-104.5 -14t-103.5 14t-85 45t-58 81t-21.5 124zM1128 270q0 -53 15.5 -75.5t48.5 -22.5q37 0 53.5 26.5t16.5 73.5q0 86 -70 86q-33 0 -48.5 -23.5t-15.5 -64.5zM1139 606q0 -47 13 -65.5t42 -18.5q59 0 59 88 q0 33 -14 52.5t-45 19.5q-29 0 -42 -20.5t-13 -55.5z" />
<glyph unicode="&#x2190;" horiz-adv-x="1697" d="M102 662l484 487l145 -145l-246 -242h1090v-203h-1090l246 -237l-145 -146z" />
<glyph unicode="&#x2191;" horiz-adv-x="1060" d="M49 958l486 484l487 -484l-145 -145l-242 244v-1057h-203v1057l-237 -244z" />
<glyph unicode="&#x2192;" horiz-adv-x="1697" d="M104 559v203h1092l-246 242l144 145l483 -487l-483 -486l-144 146l246 237h-1092z" />
<glyph unicode="&#x2193;" horiz-adv-x="1060" d="M49 483l146 146l239 -246v1059h201v-1059l242 246l145 -146l-487 -483z" />
<glyph unicode="&#x2196;" horiz-adv-x="1720" d="M248 635v684h688v-201h-344l995 -985l-141 -145l-995 991v-344h-203z" />
<glyph unicode="&#x2198;" horiz-adv-x="1720" d="M248 1178l141 143l995 -989v342h203v-682h-688v201h344z" />
<glyph unicode="&#x21a9;" horiz-adv-x="1775" d="M53 662l482 483l141 -141l-246 -244h907q86 0 120 50t34 122v155q0 68 -37 106t-117 38h-211v196h220q94 0 160.5 -26.5t107.5 -72.5t59.5 -110.5t18.5 -138.5v-147q0 -170 -91.5 -271.5t-279.5 -101.5h-891l246 -240l-141 -141z" />
<glyph unicode="&#x21aa;" horiz-adv-x="1767" d="M55 932v147q0 74 18.5 138.5t59.5 110.5t106.5 72.5t161.5 26.5h220v-196h-209q-84 0 -120 -38t-36 -106v-155q0 -72 35 -122t121 -50h905l-248 244l143 141l480 -483l-480 -484l-143 141l248 240h-889q-190 0 -281.5 101.5t-91.5 271.5z" />
<glyph unicode="&#x21b3;" horiz-adv-x="1748" d="M180 561v858h203v-659h930l-246 244l143 141l480 -483l-480 -484l-143 141l246 242h-1133z" />
<glyph unicode="&#x21b5;" horiz-adv-x="1748" d="M160 662l481 483l141 -141l-243 -244h929v659h201v-858h-1130l243 -242l-141 -141z" />
<glyph unicode="&#x21de;" horiz-adv-x="1044" d="M43 995l469 447l479 -447l-145 -147l-234 211v-309h207v-189h-207v-110h207v-185h-207v-266h-198v266h-211v185h211v110h-211v189h211v309l-226 -211z" />
<glyph unicode="&#x21df;" horiz-adv-x="1044" d="M43 446l145 146l224 -213v313h-209v187h209v112h-209v183h209v268h200v-268h207v-183h-207v-112h207v-187h-207v-313l234 213l145 -146l-479 -446z" />
<glyph unicode="&#x21e0;" horiz-adv-x="1712" d="M104 657l482 488l145 -144l-248 -243h240v-199h-240l248 -242l-145 -143zM801 559v199h203v-199h-203zM1083 559v199h203v-199h-203zM1370 559v199h203v-199h-203z" />
<glyph unicode="&#x21e1;" horiz-adv-x="1069" d="M47 944l485 483l488 -483l-143 -143l-244 246v-238h-201v238l-239 -246zM432 -41v203h201v-203h-201zM432 246v203h201v-203h-201zM432 528v203h201v-203h-201z" />
<glyph unicode="&#x21e2;" horiz-adv-x="1712" d="M106 559v201h205v-201h-205zM393 559v201h203v-201h-203zM676 559v201h203v-201h-203zM948 319l248 240h-240v201h240l-248 241l144 146l483 -488l-483 -485z" />
<glyph unicode="&#x21e3;" horiz-adv-x="1069" d="M47 442l143 144l242 -246v238h199v-238l243 246q35 -35 71 -72t73 -72q-123 -121 -244 -240.5t-244 -238.5zM432 655v203h199v-203h-199zM432 940v201h199v-201h-199zM432 1225v202h199v-202h-199z" />
<glyph unicode="&#x21e4;" horiz-adv-x="1783" d="M135 213v891h217v-891h-217zM434 662l481 487l146 -145l-246 -242h883v-203h-883l246 -237l-146 -146z" />
<glyph unicode="&#x21e5;" horiz-adv-x="1783" d="M137 559v203h883l-246 242l146 145l481 -487l-481 -486l-146 146l246 237h-883zM1483 213v891h217v-891h-217z" />
<glyph unicode="&#x21e7;" horiz-adv-x="1720" d="M76 627l790 813l791 -813h-400v-627h-782v627h-399zM442 774h193v-616h465v616h190l-424 440z" />
<glyph unicode="&#x21ea;" horiz-adv-x="1720" d="M61 627l793 813l791 -813h-400v-422h-784v422h-400zM428 774h193v-409h466v409h191l-424 440zM461 53h782v-424h-782v424zM621 -92v-137h466v137h-466z" />
<glyph unicode="&#x2202;" horiz-adv-x="985" d="M39 465q0 111 32.5 201t89 153.5t132.5 97t162 33.5q51 0 98 -12t96 -35q-4 70 -26.5 131.5t-57.5 105.5t-82 69.5t-102 25.5q-29 0 -71 -5t-111 -32l-2 248q53 16 105 23.5t93 7.5q150 0 252.5 -62.5t166 -167t91 -242t27.5 -286.5q0 -184 -35 -322.5t-97.5 -230.5 t-148.5 -139t-188 -47q-90 0 -168 31.5t-135.5 93t-89 151.5t-31.5 209zM315 469q0 -127 45.5 -184.5t104.5 -57.5q49 0 84 36t57.5 92.5t34.5 125t16 133.5q-53 57 -102 77t-90 20q-33 0 -60.5 -21.5t-47 -55.5t-31 -78t-11.5 -87z" />
<glyph unicode="&#x220f;" horiz-adv-x="1146" d="M125 -160v1585h897v-1585h-293v1307h-307v-1307h-297z" />
<glyph unicode="&#x2211;" horiz-adv-x="921" d="M49 1161v264h807v-274h-463l236 -508l-230 -518h482v-285h-830v273l240 528z" />
<glyph unicode="&#x221a;" horiz-adv-x="1132" d="M39 778q25 8 79 24.5t115.5 36t117 37t79.5 25.5l160 -545q12 51 30.5 150.5t41 222.5t46 258t46 258t41 222.5t30.5 152.5h267l-365 -1778h-238l-243 768l-129 -35z" />
<glyph unicode="&#x221e;" horiz-adv-x="1417" d="M92 557q0 66 25.5 126t70.5 106.5t103.5 73t126.5 26.5q41 0 83 -14.5t79.5 -37t72.5 -50t62 -56.5q57 78 125.5 118t173.5 40q68 0 125 -24.5t98 -68.5t64.5 -105.5t23.5 -133.5q0 -68 -25.5 -128t-68.5 -106.5t-102.5 -74t-127.5 -27.5q-94 0 -163.5 48t-126.5 114 q-59 -68 -129 -115t-174 -47q-66 0 -123.5 24.5t-100.5 69.5t-67.5 106.5t-24.5 135.5zM317 559q0 -51 30 -88t67 -37q45 0 86 36t75 85q-31 45 -70.5 81t-86.5 36q-39 0 -70 -33t-31 -80zM844 559q41 -49 81 -87t79 -38t69.5 37t30.5 86q0 47 -30.5 81t-67.5 34 q-41 0 -81 -33t-81 -80z" />
<glyph unicode="&#x222b;" horiz-adv-x="647" d="M-94 -262l51 184q76 -18 113 -14q20 0 37.5 9t31 30.5t22.5 58.5t15 94q6 51 10 123t7.5 168t4.5 221t1 283q0 27 2 68t5 85t6 86t7 72q27 205 117 290t237 85q35 0 84.5 -9t87.5 -26l-49 -196q-70 14 -104 14q-31 0 -52.5 -11.5t-37 -40t-24.5 -76.5t-15 -124 q-2 -27 -4 -78t-3 -115.5t-2 -138t-2 -145.5t-1 -136.5v-111.5q0 -197 -21.5 -329t-66 -211.5t-114 -113.5t-167.5 -34q-35 0 -85 9t-91 30z" />
<glyph unicode="&#x2248;" horiz-adv-x="1024" d="M43 352q57 121 126 184.5t173 63.5q43 0 85 -17.5t79 -38t69.5 -36.5t61.5 -16q72 0 156 110l153 -92q-59 -131 -127.5 -188.5t-146.5 -57.5q-45 0 -88 16.5t-82 37t-75 37t-67 16.5q-39 0 -78.5 -22.5t-88.5 -88.5zM55 733q57 121 126 184.5t173 63.5q43 0 85 -17.5 t79 -38t70 -37t61 -16.5q72 0 156 111l153 -92q-59 -131 -127.5 -188.5t-146.5 -57.5q-45 0 -88 16.5t-82 37t-75 37t-66 16.5q-39 0 -79 -22.5t-89 -88.5z" />
<glyph unicode="&#x2260;" horiz-adv-x="1003" d="M37 291v227h291l110 191h-401v227h530l144 248h233l-143 -248h162v-227h-293l-111 -191h404v-227h-533l-143 -250h-232l142 250h-160z" />
<glyph unicode="&#x2264;" horiz-adv-x="1024" d="M57 670v202l914 342v-266l-522 -176h2l520 -164v-268zM59 0v238h912v-238h-912z" />
<glyph unicode="&#x2265;" horiz-adv-x="1024" d="M59 0v238h912v-238h-912zM59 340v268l521 164h2l-523 176v266l914 -342v-202z" />
<glyph unicode="&#x2303;" horiz-adv-x="1628" d="M221 848l592 592l594 -592l-104 -107l-490 490l-485 -490z" />
<glyph unicode="&#x2318;" horiz-adv-x="1732" d="M133 276q0 57 19.5 110.5t57.5 92.5t92 62.5t124 23.5h145v297h-145q-59 0 -112.5 23.5t-93.5 62.5t-63.5 91.5t-23.5 111.5t21.5 112.5t60.5 93.5t92 62.5t119 22.5q72 0 126 -22.5t90 -62.5t54.5 -93.5t18.5 -112.5v-147h295v147q0 59 21.5 112.5t59 93.5t91 62.5 t118.5 22.5q70 0 124.5 -23.5t91 -63.5t55 -92.5t18.5 -111.5q0 -57 -22.5 -109.5t-61.5 -92.5t-92 -63.5t-113 -23.5h-147v-297h147q74 0 128.5 -23.5t90 -63.5t53 -92t17.5 -110q0 -59 -17.5 -111t-53 -92t-90 -63.5t-128.5 -23.5q-70 0 -124 23.5t-90.5 63.5t-56 92 t-19.5 111v148h-295v-148q0 -57 -18.5 -109t-54.5 -92t-90 -64.5t-126 -24.5q-68 0 -122 22.5t-92 62.5t-58.5 92t-20.5 113zM276 276q0 -63 42 -106t108 -43q61 0 103 43t42 106v148h-145q-66 0 -108 -44t-42 -104zM276 1151q0 -63 42 -105t108 -42h145v147q0 61 -43 104 t-102 43q-63 0 -106.5 -42t-43.5 -105zM715 565h295v297h-295v-297zM1153 276q0 -63 43 -106t104 -43t104.5 43t43.5 106q0 59 -43 103.5t-105 44.5h-147v-148zM1153 1004h147q61 0 104.5 43t43.5 104t-43 104t-105 43q-61 0 -104 -42t-43 -105v-147z" />
<glyph unicode="&#x2324;" horiz-adv-x="1628" d="M221 610l592 623l594 -623l-104 -106l-490 520l-485 -520zM221 1276v149h1188v-149h-1188z" />
<glyph unicode="&#x2325;" horiz-adv-x="2433" d="M90 1243v150h580l583 -1246h1074v-147h-1194l-584 1243h-459zM1081 1243v150h1246v-150h-1246z" />
<glyph unicode="&#x2326;" horiz-adv-x="2328" d="M197 0v1423h1343l690 -712l-690 -711h-1343zM338 141h1124l561 570l-561 569h-1124v-1139zM522 393l318 318l-318 319l101 100l315 -317l319 317l101 -100l-318 -319l318 -318l-101 -100l-319 319l-315 -319z" />
<glyph unicode="&#x232b;" horiz-adv-x="2385" d="M158 711l690 712h1343v-1423h-1343zM365 711l561 -570h1124v1139h-1124zM1010 393l317 318l-317 319l100 100l320 -317l315 317l100 -100l-317 -319l317 -318l-100 -100l-315 319l-320 -319z" />
<glyph unicode="&#x235f;" horiz-adv-x="1646" d="M94 711q0 150 56.5 281.5t154.5 230t230.5 155t283.5 56.5q150 0 282 -57.5t230.5 -156t154.5 -230.5t56 -281h-2q0 -150 -57.5 -282t-155.5 -230.5t-230 -154.5t-282 -56t-281 56t-229 154.5t-154.5 230.5t-56.5 284zM211 709q0 -125 47 -234.5t129 -191.5t192.5 -129.5 t235.5 -47.5t235.5 47.5t192.5 129.5t129 191.5t47 234.5t-47 235.5t-129 192.5t-192.5 129t-235.5 47t-235.5 -47t-192.5 -129t-129 -192.5t-47 -235.5zM311 848l334 65l154 304l164 -299l335 -70l-231 -232l53 -346l-321 156l-289 -156l43 338z" />
<glyph unicode="&#x23cf;" horiz-adv-x="1748" d="M135 186v279h1438v-279h-1438zM135 643l719 719l719 -719h-1438z" />
<glyph unicode="&#x25a0;" horiz-adv-x="1792" d="M252 82v1296h1296v-1296h-1296z" />
<glyph unicode="&#x25a1;" horiz-adv-x="1722" d="M170 0v1419h1407v-1419h-1407zM293 121h1163v1175h-1163v-1175z" />
<glyph unicode="&#x25b2;" horiz-adv-x="1679" d="M162 360l719 719l718 -719h-1437z" />
<glyph unicode="&#x25b6;" horiz-adv-x="1218" d="M283 0v1436l718 -717z" />
<glyph unicode="&#x25bc;" horiz-adv-x="1679" d="M162 1079h1437l-718 -719z" />
<glyph unicode="&#x25c0;" horiz-adv-x="1218" d="M207 719l719 717v-1436z" />
<glyph unicode="&#x25ca;" horiz-adv-x="690" d="M35 610l215 611h186l217 -611l-215 -608h-186zM176 606h4l164 -471h6l162 471l-168 475h-6z" />
<glyph unicode="&#x25cf;" horiz-adv-x="1726" d="M227 731q0 135 53.5 253t142.5 205t207 138t247 51t245.5 -51t205.5 -140t142.5 -207t53.5 -249t-51.5 -248.5t-140.5 -207t-206.5 -141.5t-248.5 -52q-133 0 -251 51t-207 140t-140.5 207t-51.5 251z" />
<glyph unicode="&#x25fc;" horiz-adv-x="1013" d="M0 0v1014h1014v-1014h-1014z" />
<glyph unicode="&#x2602;" horiz-adv-x="1597" d="M102 745q0 131 62.5 253t159 217.5t215 152.5t231.5 57v64h59v-66q113 0 231 -56t214 -150.5t157.5 -217t61.5 -254.5q-33 37 -82 58.5t-102 21.5q-47 0 -92.5 -19.5t-83.5 -60.5h-5q-47 80 -153 80q-57 0 -127 -28v-623q0 -86 -52.5 -138t-150.5 -52q-86 0 -142.5 48 t-56.5 152v27h97v-27q0 -57 27.5 -83.5t70.5 -26.5q33 0 53.5 10t31.5 26.5t15 37t4 40.5v607q-29 14 -55 19t-51 5q-53 0 -95 -20.5t-79 -55.5q-35 41 -82 60.5t-96 19.5q-51 0 -99.5 -19.5t-83.5 -60.5zM1493 745l2 -2q-2 0 -2 2z" />
<glyph unicode="&#x2605;" horiz-adv-x="1667" d="M86 874l510 99l233 463l252 -457l512 -105l-354 -354l80 -528l-490 239l-438 -239l66 514z" />
<glyph unicode="&#x2606;" horiz-adv-x="1716" d="M80 887l520 100l231 461l254 -457l521 -104l-361 -361l80 -530l-491 240l-447 -244l68 522zM199 850l313 -313l-55 -443l377 203l421 -203l-71 453l305 303l-436 88l-219 395l-201 -401z" />
<glyph unicode="&#x2610;" horiz-adv-x="1722" d="M170 0v1419h1407v-1419h-1407zM293 121h1163v1175h-1163v-1175z" />
<glyph unicode="&#x2611;" horiz-adv-x="1740" d="M170 0v1419h1407v-1419h-1407zM293 121h1163v1175h-1163v-1175zM397 745q35 29 78 40.5t72 11.5q18 0 44.5 -35t52.5 -90.5t47.5 -123t31.5 -134.5q57 98 139 212.5t175 226.5t190.5 207t187.5 152l23 -20q-55 -39 -115.5 -107.5t-123 -152.5t-124 -178.5t-117 -186.5 t-101.5 -175t-77 -146q-113 -23 -151 -43q-16 61 -44 146t-59.5 167t-65.5 145.5t-63 83.5z" />
<glyph unicode="&#x2612;" horiz-adv-x="1740" d="M170 0v1419h1407v-1419h-1407zM293 121h1163v1175h-1163v-1175zM379 326l389 389l-389 389l96 98l391 -393l387 393l97 -96l-387 -387l393 -393l-101 -97l-391 394l-391 -398z" />
<glyph unicode="&#x2622;" horiz-adv-x="1714" d="M102 719q0 137 53.5 270t152 239.5t236.5 172t308 65.5q160 0 299 -57t241.5 -156.5t161 -233.5t58.5 -290q0 -158 -58.5 -297t-160 -242.5t-239.5 -164t-298 -60.5q-158 0 -295 58.5t-239.5 160t-161 239.5t-58.5 296zM176 719q0 -143 54.5 -267t147.5 -216.5 t218 -144.5t264 -52q135 0 257 54t215 146.5t147.5 212t54.5 250.5q0 162 -58.5 291t-153.5 219.5t-218 139.5t-252 49q-139 0 -262 -54.5t-215 -147.5t-145.5 -217t-53.5 -263zM236 719q0 176 72.5 305t234.5 233l202 -352q-47 -29 -73.5 -77t-32.5 -109h-403zM547 184 l201 348q61 -29 110 -28q41 0 103 28l204 -350q-162 -84 -315 -84q-166 0 -303 86zM692 719q0 70 48 118t116 48q33 0 62.5 -14.5t51 -37t34 -52t12.5 -62.5t-12.5 -61.5t-34 -50t-51 -35t-62.5 -13.5q-63 0 -113.5 45t-50.5 115zM961 909l204 351q147 -82 229.5 -221.5 t82.5 -319.5h-404q-12 127 -112 190z" />
<glyph unicode="&#x2623;" horiz-adv-x="1753" d="M113 494q0 59 16 116.5t54 107.5t98.5 92t150.5 71q0 129 23.5 224t71.5 159.5t122 104.5t176 58l11 -30q-279 -81 -279 -310q0 -139 78 -220t227 -99v-45q-47 -10 -66.5 -38t-19.5 -56q0 -10 2 -19.5t6 -19.5l-39 -21q-123 147 -272 148q-59 0 -115.5 -24.5t-99.5 -66.5 t-69.5 -97.5t-26.5 -116.5q0 -45 12 -115l-22 -10q-16 51 -27.5 103t-11.5 104zM207 180l22 17q139 -123 240 -123q68 0 127 25.5t103 68.5t70 101.5t26 123.5q0 25 -5.5 62t-31.5 84l45 26q14 -23 35.5 -30t42.5 -7q37 0 67 35l47 -24q-35 -84 -34 -148q0 -63 24.5 -119.5 t67.5 -99.5t98 -67.5t117 -24.5q135 0 250 110l24 -16q-39 -53 -78 -87t-81 -53.5t-89 -26.5t-102 -7q-78 0 -158.5 21.5t-156.5 87.5q-86 -66 -166 -87.5t-152 -21.5q-53 0 -100 8t-89 28.5t-82 55.5t-81 88zM463 606q0 43 8 78h25q45 -4 86 -25v-61q0 -156 180 -246 q-4 -29 -15.5 -56t-27.5 -50q-57 25 -104.5 61.5t-81 84.5t-52 102.5t-18.5 111.5zM623 946q66 43 127 65.5t127 22.5q131 0 256 -88q-27 -55 -76 -88q-90 61 -176 62q-84 0 -183 -62q-29 16 -45 38t-30 50zM891 723v45q147 18 225 101.5t78 222.5q0 223 -242 303l11 32 q186 -41 274 -157.5t88 -317.5v-32.5t-2 -34.5q160 -63 237.5 -171t77.5 -245q0 -92 -36 -197l-27 9q16 88 16 133q0 61 -25.5 115.5t-68.5 94.5t-101.5 62.5t-123.5 22.5q-82 0 -146.5 -39t-113.5 -107l-47 27q6 20 6 41q0 33 -18.5 56.5t-61.5 35.5zM991 352 q180 90 180 254v24.5t-2 28.5q23 14 55.5 17.5t55.5 3.5q8 -33 8 -76q0 -111 -68.5 -207t-191.5 -151q-14 25 -23.5 51.5t-13.5 54.5z" />
<glyph unicode="&#x262e;" horiz-adv-x="1708" d="M96 723q0 154 58.5 289t160 234.5t236.5 156.5t289 57q160 0 298 -57t240.5 -156.5t160.5 -232.5t58 -285q0 -158 -59 -295t-162.5 -238.5t-243 -160t-296.5 -58.5q-150 0 -284 59.5t-235.5 161t-161 237.5t-59.5 288zM229 719q0 -55 5.5 -96t15.5 -74t25.5 -64.5 t37.5 -68.5l473 430v489q-123 -16 -225 -67t-176 -132t-115 -187.5t-41 -229.5zM383 324q47 -45 92 -82t92 -67t100.5 -49.5t118.5 -29.5v596zM903 100q121 14 219.5 69.5t190.5 154.5l-410 368v-592zM903 846l479 -428q37 66 58.5 141.5t21.5 169.5q0 119 -39 221.5 t-111.5 181t-176 132t-232.5 71.5v-489z" />
<glyph unicode="&#x262f;" horiz-adv-x="1695" d="M102 729q0 168 64.5 304t169 233.5t238 150.5t272.5 53q168 0 306 -60t236.5 -162.5t151.5 -239t53 -287.5q0 -168 -60 -304t-162.5 -233.5t-237 -149.5t-283.5 -52q-166 0 -304 62t-236.5 165.5t-153 239t-54.5 280.5zM500 1337l10 -8q43 12 86 12q84 0 152.5 -31.5 t116.5 -79.5t75 -104.5t27 -107.5q0 -104 -40 -193.5t-139 -187.5q-43 -43 -59 -105.5t-16 -105.5q0 -152 93 -237t263 -85q88 0 174 48.5t153.5 132.5t109.5 196.5t42 241.5q0 135 -50 263t-142 226.5t-221 159t-289 60.5q-92 0 -179 -24t-167 -71zM518 999 q0 -41 26.5 -71.5t73.5 -30.5q45 0 75 30.5t30 71.5q0 37 -28.5 69t-78.5 32q-35 0 -66.5 -28t-31.5 -73zM977 457q0 47 31.5 76.5t66.5 29.5q45 0 75 -32.5t30 -73.5q0 -45 -32 -73t-73 -28q-43 0 -70.5 32t-27.5 69z" />
<glyph unicode="&#x2672;" horiz-adv-x="1882" d="M102 862h433l174 -375l-123 72l-64 -57q-33 -31 -33 -60q0 -51 64 -51h393v-432h-379q-66 0 -92 21.5t-47 58.5l-231 426q-14 25 -19.5 51.5t-5.5 54.5q0 53 14.5 102.5t51.5 88.5zM188 831l97 -65q-39 -37 -60.5 -87t-21.5 -104q0 -59 19.5 -95t51 -55t70.5 -26.5 t76 -7.5h57q-23 16 -22 49q0 41 39 80l86 78l57 -35l-125 268h-324zM268 391l181 -334q18 -33 39.5 -52t68.5 -19h361v379h-486q-35 0 -58.5 2t-41 5t-32.5 8t-32 11zM365 1026l210 340q23 37 56 57.5t86 20.5h497q41 0 56.5 -5t29.5 -28l109 -178l131 78l-172 -393l-432 43 l123 77l-94 166l-254 -379zM408 1032l294 -170l246 371q-39 76 -97 125t-146 49q-59 0 -99 -57zM801 1417q63 -14 105 -67.5t79 -118.5l115 -205l-76 -47l326 -31l137 297l-82 -53l-121 190q-12 20 -26.5 27.5t-38.5 7.5h-418zM1001 160l226 346v-144h223l-236 400l353 209 l194 -361q18 -37 19 -61q0 -23 -7.5 -42.5t-17.5 -37.5l-221 -397q-18 -33 -31.5 -54.5t-27 -35t-31 -18.5t-43.5 -5h-172v-158zM1036 160l166 -266v92h197q18 0 41.5 10t42.5 43l211 385q-66 -61 -138.5 -76.5t-181.5 -15.5h-172v90zM1251 754l236 -392q39 4 84 20.5 t84 42.5t64.5 58.5t25.5 69.5q0 14 -4 26.5t-8 22.5l-183 326z" />
<glyph unicode="&#x2673;" horiz-adv-x="1779" d="M102 213q0 74 50 160l149 268l-94 51l14 27l242 45l86 -229l-17 -31l-96 59l-131 -237q-27 -49 -26 -88q0 -37 27.5 -62.5t92.5 -25.5h406v-150h-436q-123 0 -195 58.5t-72 154.5zM449 897l217 379q45 78 101 111.5t118 33.5q63 0 121.5 -36.5t95.5 -102.5l149 -264 l105 59l12 -28l-90 -230l-248 43l-12 25l100 55l-145 246q-16 29 -40 45t-52 16q-29 0 -55.5 -20.5t-43.5 -50.5l-202 -357zM739 662v116l86 62h101v-594h-113v467zM913 74l160 200l27 -4v-120h262q74 0 107.5 24.5t33.5 65.5q0 39 -33 94l-204 348l137 80l227 -397 q47 -80 47 -150q0 -98 -83 -156.5t-210 -58.5h-286v-121h-33z" />
<glyph unicode="&#x2674;" horiz-adv-x="1779" d="M102 213q0 74 50 160l149 268l-94 51l14 27l242 45l86 -229l-17 -31l-96 59l-131 -237q-27 -49 -26 -88q0 -37 27.5 -62.5t92.5 -25.5h406v-150h-436q-123 0 -195 58.5t-72 154.5zM449 897l217 379q45 78 101 111.5t118 33.5q63 0 121.5 -36.5t95.5 -102.5l149 -264 l105 59l12 -28l-90 -230l-248 43l-12 25l100 55l-145 246q-16 29 -40 45t-52 16q-29 0 -55.5 -20.5t-43.5 -50.5l-202 -357zM674 254v94l219 275q29 31 29 67q0 23 -16.5 41.5t-47.5 18.5q-29 0 -48 -24t-26 -64l-106 12q12 86 63.5 132t116.5 46q74 0 123 -41t49 -119 q0 -29 -10 -60.5t-33 -60.5l-170 -213h203v-104h-346zM913 74l160 200l27 -4v-120h262q74 0 107.5 24.5t33.5 65.5q0 39 -33 94l-204 348l137 80l227 -397q47 -80 47 -150q0 -98 -83 -156.5t-210 -58.5h-286v-121h-33z" />
<glyph unicode="&#x2675;" horiz-adv-x="1779" d="M102 213q0 74 50 160l149 268l-94 51l14 27l242 45l86 -229l-17 -31l-96 59l-131 -237q-27 -49 -26 -88q0 -37 27.5 -62.5t92.5 -25.5h406v-150h-436q-123 0 -195 58.5t-72 154.5zM449 897l217 379q45 78 101 111.5t118 33.5q63 0 121.5 -36.5t95.5 -102.5l149 -264 l105 59l12 -28l-90 -230l-248 43l-12 25l100 55l-145 246q-16 29 -40 45t-52 16q-29 0 -55.5 -20.5t-43.5 -50.5l-202 -357zM674 406l104 14q8 -39 27.5 -55.5t44.5 -16.5q37 0 58.5 25.5t21.5 62.5q0 39 -21.5 58.5t-54.5 19.5h-59v98h53q33 0 54.5 19.5t21.5 48.5 t-20.5 49.5t-49.5 20.5q-23 0 -41 -19.5t-29 -54.5l-106 12q14 72 63.5 118t112.5 46q92 0 134 -51t42 -119q0 -31 -10 -59.5t-45 -55.5q35 -29 47 -61.5t12 -67.5q0 -86 -50 -138t-136 -52q-29 0 -56.5 7t-51 25.5t-41 49t-25.5 76.5zM913 74l160 200l27 -4v-120h262 q74 0 107.5 24.5t33.5 65.5q0 39 -33 94l-204 348l137 80l227 -397q47 -80 47 -150q0 -98 -83 -156.5t-210 -58.5h-286v-121h-33z" />
<glyph unicode="&#x2676;" horiz-adv-x="1779" d="M102 213q0 74 50 160l149 268l-94 51l14 27l242 45l86 -229l-17 -31l-96 59l-131 -237q-27 -49 -26 -88q0 -37 27.5 -62.5t92.5 -25.5h406v-150h-436q-123 0 -195 58.5t-72 154.5zM449 897l217 379q45 78 101 111.5t118 33.5q63 0 121.5 -36.5t95.5 -102.5l149 -264 l105 59l12 -28l-90 -230l-248 43l-12 25l100 55l-145 246q-16 29 -40 45t-52 16q-29 0 -55.5 -20.5t-43.5 -50.5l-202 -357zM633 342v88l196 422h115l-190 -410h118v144h105v-144h45v-100h-45v-84h-105v84h-239zM913 74l160 200l27 -4v-120h262q74 0 107.5 24.5t33.5 65.5 q0 39 -33 94l-204 348l137 80l227 -397q47 -80 47 -150q0 -98 -83 -156.5t-210 -58.5h-286v-121h-33z" />
<glyph unicode="&#x2677;" horiz-adv-x="1779" d="M102 213q0 74 50 160l149 268l-94 51l14 27l242 45l86 -229l-17 -31l-96 59l-131 -237q-27 -49 -26 -88q0 -37 27.5 -62.5t92.5 -25.5h406v-150h-436q-123 0 -195 58.5t-72 154.5zM449 897l217 379q45 78 101 111.5t118 33.5q63 0 121.5 -36.5t95.5 -102.5l149 -264 l105 59l12 -28l-90 -230l-248 43l-12 25l100 55l-145 246q-16 29 -40 45t-52 16q-29 0 -55.5 -20.5t-43.5 -50.5l-202 -357zM684 397l104 21q16 -78 74 -78q27 0 42.5 11t23.5 28.5t11 38t3 39.5q0 39 -13.5 70.5t-58.5 31.5q-20 0 -36.5 -14.5t-30.5 -36.5h-96v332h309 v-103h-209v-96q20 10 39.5 14t40.5 4q78 0 117.5 -51t39.5 -131v-37q0 -84 -45 -141t-137 -57q-63 0 -111.5 32.5t-66.5 122.5zM913 74l160 200l27 -4v-120h262q74 0 107.5 24.5t33.5 65.5q0 39 -33 94l-204 348l137 80l227 -397q47 -80 47 -150q0 -98 -83 -156.5 t-210 -58.5h-286v-121h-33z" />
<glyph unicode="&#x2678;" horiz-adv-x="1779" d="M102 213q0 74 50 160l149 268l-94 51l14 27l242 45l86 -229l-17 -31l-96 59l-131 -237q-27 -49 -26 -88q0 -37 27.5 -62.5t92.5 -25.5h406v-150h-436q-123 0 -195 58.5t-72 154.5zM449 897l217 379q45 78 101 111.5t118 33.5q63 0 121.5 -36.5t95.5 -102.5l149 -264 l105 59l12 -28l-90 -230l-248 43l-12 25l100 55l-145 246q-16 29 -40 45t-52 16q-29 0 -55.5 -20.5t-43.5 -50.5l-202 -357zM694 426q0 29 7.5 61.5t25.5 67.5q35 68 75 141.5t75 143.5h114l-112 -232h12q72 0 117 -52t45 -124q0 -49 -15.5 -86t-41 -59.5t-58.5 -33.5 t-68 -11q-78 0 -127 46t-49 138zM801 428q0 -41 19.5 -63.5t51.5 -22.5q29 0 49.5 22.5t20.5 63.5t-20.5 61.5t-49.5 20.5t-50 -20.5t-21 -61.5zM913 74l160 200l27 -4v-120h262q74 0 107.5 24.5t33.5 65.5q0 39 -33 94l-204 348l137 80l227 -397q47 -80 47 -150 q0 -98 -83 -156.5t-210 -58.5h-286v-121h-33z" />
<glyph unicode="&#x2679;" horiz-adv-x="1779" d="M102 213q0 74 50 160l149 268l-94 51l14 27l242 45l86 -229l-17 -31l-96 59l-131 -237q-27 -49 -26 -88q0 -37 27.5 -62.5t92.5 -25.5h406v-150h-436q-123 0 -195 58.5t-72 154.5zM449 897l217 379q45 78 101 111.5t118 33.5q63 0 121.5 -36.5t95.5 -102.5l149 -264 l105 59l12 -28l-90 -230l-248 43l-12 25l100 55l-145 246q-16 29 -40 45t-52 16q-29 0 -55.5 -20.5t-43.5 -50.5l-202 -357zM692 641v188h352v-90l-200 -503h-115l195 489h-125v-84h-107zM913 74l160 200l27 -4v-120h262q74 0 107.5 24.5t33.5 65.5q0 39 -33 94l-204 348 l137 80l227 -397q47 -80 47 -150q0 -98 -83 -156.5t-210 -58.5h-286v-121h-33z" />
<glyph unicode="&#x267a;" horiz-adv-x="1779" d="M102 213q0 74 50 160l149 268l-94 51l14 27l242 45l86 -229l-17 -31l-96 59l-131 -237q-27 -49 -26 -88q0 -37 27.5 -62.5t92.5 -25.5h406v-150h-436q-123 0 -195 58.5t-72 154.5zM449 897l217 379q45 78 101 111.5t118 33.5q63 0 121.5 -36.5t95.5 -102.5l149 -264 l105 59l12 -28l-90 -230l-248 43l-12 25l100 55l-145 246q-16 29 -40 45t-52 16q-29 0 -55.5 -20.5t-43.5 -50.5l-202 -357zM913 74l160 200l27 -4v-120h262q74 0 107.5 24.5t33.5 65.5q0 39 -33 94l-204 348l137 80l227 -397q47 -80 47 -150q0 -98 -83 -156.5t-210 -58.5 h-286v-121h-33z" />
<glyph unicode="&#x267b;" horiz-adv-x="1820" d="M102 606q0 16 11 47l102 176l-84 41h330l160 -276l-95 55l-147 -268q-35 -55 -51.5 -97t-16.5 -69l-180 311q-29 49 -29 80zM326 1032l170 299q27 35 67.5 63.5t93.5 28.5q74 0 130.5 -38.5t86.5 -79.5l-247 -451zM358 172q0 37 13.5 73t36.5 77h510v-322h-388 q-23 0 -52 9t-56 28.5t-45.5 52.5t-18.5 82zM823 1421h371q57 0 76.5 -12t32.5 -35l94 -168l98 56l-168 -295h-342l107 67l-152 273q-25 43 -56.5 70.5t-60.5 43.5zM961 164l176 280v-122h305q33 0 90 15t104 46l-204 -311q-31 -47 -66 -59.5t-63 -12.5h-166v-119zM1202 836 l309 178l177 -303q31 -51 30 -107q0 -49 -22.5 -90t-57 -70.5t-80 -46t-88.5 -16.5h-16z" />
<glyph unicode="&#x267c;" horiz-adv-x="1712" d="M102 721q0 156 59.5 293t162 239.5t239.5 162t293 59.5t293 -59.5t239.5 -162t162 -239.5t59.5 -293t-59.5 -293t-162 -239.5t-239.5 -162t-293 -59.5t-293 59.5t-239.5 162t-162 239.5t-59.5 293zM242 651q0 -27 20 -61l141 -228q0 41 48 123l112 199l70 -39l-119 205 h-246l62 -29l-78 -131q-10 -16 -10 -39zM414 971l227 -133l184 338q-25 31 -66.5 59.5t-96.5 28.5q-41 0 -73 -19.5t-48 -50.5zM438 330q0 -37 13.5 -62.5t34 -41t42 -21.5t37.5 -6h291v239h-381q-37 -55 -37 -108zM784 1262q23 -10 46.5 -31t41.5 -53l113 -205l-80 -51h256 l127 221l-74 -41l-69 125q-10 18 -24.5 26.5t-55.5 8.5h-281zM889 324l131 -213v88h125q18 0 46 10t50 45l154 231q-35 -20 -79 -33.5t-67 -13.5h-229v94zM1069 825l188 -340h13q33 0 65.5 12.5t59 34t43 52t16.5 67.5q0 18 -4 39t-18 41l-132 227z" />
<glyph unicode="&#x267d;" horiz-adv-x="1712" d="M102 723q0 156 59.5 293t162 239.5t239.5 162t293 59.5t293 -59.5t239.5 -162t162 -239.5t59.5 -293t-59.5 -293t-162 -239.5t-239.5 -162t-293 -59.5t-293 59.5t-239.5 162t-162 239.5t-59.5 293zM141 723q0 -147 56.5 -278.5t154 -227.5t227.5 -152.5t277 -56.5 t278.5 56.5t227.5 152.5t152.5 227.5t56.5 278.5t-56.5 277t-152.5 227.5t-227 154t-279 56.5q-147 0 -277 -56.5t-227.5 -154t-154 -227.5t-56.5 -277zM246 651q0 23 10 39l78 131l-62 29h246l119 -205l-70 39l-112 -199q-47 -82 -47 -123l-142 228q-20 35 -20 61zM418 971 l127 223q16 31 48 50.5t73 19.5q55 0 97 -29t66 -59l-184 -338zM442 330q0 53 37 108h381v-239h-291q-16 0 -37.5 6t-42 21.5t-34 41t-13.5 62.5zM788 1262h281q41 0 55.5 -8.5t24.5 -26.5l70 -125l73 41l-127 -221h-256l80 51l-112 205q-18 33 -42 53t-47 31zM893 324 l131 208v-94h229q23 0 67 13.5t79 33.5l-154 -231q-23 -35 -50.5 -45t-45.5 -10h-125v-88zM1073 825l232 133l131 -227q14 -20 18 -40.5t4 -39.5q0 -37 -16.5 -67.5t-43 -52t-59 -34t-65.5 -12.5h-12z" />
<glyph unicode="&#x2693;" horiz-adv-x="1429" d="M131 432l291 -84l-82 -72q45 -43 86 -68.5t80 -39.5t74.5 -20.5t70.5 -8.5v813h-262v99h262v24q-55 16 -90 65.5t-35 108.5q0 78 54.5 131.5t130.5 53.5q37 0 69.5 -14.5t57 -39t39 -58.5t14.5 -73q0 -59 -32 -103t-83 -65v-30h266v-99h-266v-813h4q68 6 143.5 30 t166.5 107l-82 72l290 84l-43 -311l-77 84q-111 -113 -227.5 -162t-235.5 -59q-119 10 -236 59t-225 162l-78 -84z" />
<glyph unicode="&#x26a0;" horiz-adv-x="1810" d="M100 94q0 37 23 76l678 1200q23 39 49.5 56.5t54.5 17.5q27 0 52.5 -17.5t46.5 -52.5l677 -1204q20 -35 21 -76q0 -41 -25.5 -67.5t-83.5 -26.5h-1382q-59 0 -85 27.5t-26 66.5zM231 133q0 -10 12.5 -14t47.5 -4h1222q35 0 47.5 4t12.5 14t-8.5 23.5t-18.5 29.5 l-608 1078q-18 35 -39 34q-10 0 -20.5 -10t-18.5 -24l-604 -1080q-10 -16 -17.5 -28.5t-7.5 -22.5zM803 242q0 8 4 22.5t15.5 28.5t28.5 23.5t44 9.5q35 0 60.5 -23.5t25.5 -64.5q0 -39 -25.5 -61.5t-60.5 -22.5q-12 0 -28.5 4t-30 13t-23.5 26.5t-10 44.5zM805 981 q0 33 24.5 63.5t65.5 30.5q49 0 73.5 -27.5t24.5 -66.5l-59 -575q-4 -16 -17.5 -26.5t-23.5 -10.5q-12 0 -25.5 10t-15.5 27z" />
<glyph unicode="&#x2706;" horiz-adv-x="884" d="M215 713q0 231 42 374.5t98.5 223.5t111.5 109.5t82 31.5v-426q-53 0 -73.5 -78t-20.5 -256q0 -25 4 -74t14 -99t28.5 -89t47.5 -43v-412q-18 0 -49 12.5t-68 43t-76 84t-70.5 135.5t-51 195.5t-19.5 267.5zM575 -25v412h123q16 0 28.5 -9t12.5 -32v-328q0 -16 -9 -29.5 t-32 -13.5h-123zM575 1026v426h123q16 0 28.5 -12.5t12.5 -28.5v-334q0 -51 -41 -51h-123z" />
<glyph unicode="&#x2708;" horiz-adv-x="1822" d="M96 858h154l131 -172h393l-229 735h194l424 -735h506q51 0 78 -29.5t27 -64.5q0 -33 -26 -60.5t-77 -27.5h-512l-426 -719h-196l235 719h-391l-125 -164h-154l78 260z" />
<glyph unicode="&#x2709;" horiz-adv-x="2191" d="M131 0v1374h1927v-1374h-1927zM254 213l469 463l-469 467v-930zM332 1249l753 -760l750 760h-1503zM346 131h1487l-455 459l-293 -295l-280 278zM1458 690l465 -465v934z" />
<glyph unicode="&#x2713;" horiz-adv-x="1564" d="M131 729q47 41 106.5 58.5t100.5 17.5q27 0 63.5 -48t72.5 -125t64.5 -171t39.5 -187q76 133 186 292t236 312.5t259.5 285.5t258.5 214l30 -35q-72 -55 -154.5 -148t-167.5 -210t-169 -249t-160 -260t-138.5 -245.5t-103.5 -205.5q-74 -16 -127 -33t-79 -33 q-14 59 -36 136t-48.5 159t-57.5 162t-61.5 146.5t-60 110.5t-54.5 56z" />
<glyph unicode="&#x2716;" horiz-adv-x="1519" d="M51 352l359 353l-359 352l355 356l354 -356l354 356l354 -356l-356 -352l356 -353l-354 -356l-354 358l-354 -358z" />
<glyph unicode="&#x271a;" horiz-adv-x="1531" d="M104 446v472h437v446h471v-446h446v-472h-436v-446h-473v446h-445z" />
<glyph unicode="&#x272a;" horiz-adv-x="1630" d="M86 709q0 150 57.5 282.5t155.5 231t230.5 156t283.5 57.5q152 0 284 -57.5t230 -156t155.5 -231t57.5 -282.5q0 -152 -57.5 -284t-155.5 -230.5t-230 -154.5t-284 -56t-284 56t-230 154.5t-155.5 230.5t-57.5 284zM207 874l289 -286l-50 -408l349 189l387 -189l-66 418 l281 276l-406 84l-196 363l-187 -367z" />
<glyph unicode="&#x2794;" horiz-adv-x="1507" d="M43 600v219h1006l-484 481h305l590 -589l-592 -590l-301 -4l484 483h-1008z" />
<glyph unicode="&#xe000;" horiz-adv-x="1003" d="M109 367v690q0 90 31.5 160.5t86 118.5t125 74t150.5 26t151.5 -26t124.5 -74t84 -118.5t31 -160.5v-690q0 -90 -32 -160t-85 -118t-123.5 -73.5t-150.5 -25.5t-151.5 25.5t-125 73.5t-85 117.5t-31.5 160.5zM395 369q0 -53 30 -80t77 -27q45 0 74.5 26.5t29.5 80.5v688 q0 53 -29.5 79.5t-74.5 26.5q-47 0 -77 -26.5t-30 -79.5v-688z" />
<glyph unicode="&#xe001;" horiz-adv-x="833" d="M115 946v311l229 168h258v-1425h-287v1094z" />
<glyph unicode="&#xe002;" horiz-adv-x="1003" d="M80 1030q6 98 40 174t88 127t124.5 78t148.5 27q190 0 296 -97.5t106 -281.5q0 -88 -23.5 -160t-71.5 -145l-331 -476h415v-276h-784v250l461 651q23 35 31 70t8 73q0 43 -25.5 81t-79.5 38q-41 0 -77.5 -36.5t-43.5 -137.5z" />
<glyph unicode="&#xe003;" horiz-adv-x="1003" d="M66 375l282 37q0 -45 11.5 -74t29 -46.5t39 -23.5t43.5 -6q47 0 84 35t37 121q0 102 -32 151t-118 49h-92v234h103q78 0 109.5 43t31.5 117q0 25 -6 51.5t-19.5 48t-35 35.5t-52.5 14q-39 0 -74.5 -30.5t-44.5 -126.5l-278 43q8 92 45 164.5t91 122.5t124 76t148 26 q121 0 198.5 -37t121.5 -95.5t61.5 -132t17.5 -147.5q0 -37 -8.5 -79t-26.5 -82t-47 -73t-70 -51q55 -37 86 -74.5t46.5 -79.5t19.5 -87t4 -95q0 -92 -28.5 -168.5t-83 -131t-133.5 -84t-177 -29.5q-84 0 -154.5 22.5t-125 69.5t-87 119.5t-40.5 173.5z" />
<glyph unicode="&#xe004;" horiz-adv-x="1003" d="M55 199v233l400 993h303l-385 -958h192v313h285v-313h98v-268h-98v-199h-285v199h-510z" />
<glyph unicode="&#xe005;" horiz-adv-x="989" d="M82 420h287q2 -92 32.5 -123t77.5 -31q68 0 87.5 66.5t19.5 165.5q0 45 -3 86t-14.5 69.5t-33 46t-58.5 17.5q-27 0 -60.5 -18.5t-54.5 -77.5h-251v804h741v-268h-467v-237h10q41 35 91.5 44t74.5 9q88 0 148.5 -32t98.5 -92.5t54.5 -146.5t16.5 -192q0 -121 -21.5 -217 t-69 -164t-123 -103.5t-184.5 -35.5q-84 0 -155.5 18.5t-125 67.5t-85 132t-33.5 212z" />
<glyph unicode="&#xe006;" horiz-adv-x="980" d="M92 432q0 74 14.5 149.5t36.5 125.5l324 718h319q-66 -145 -125 -292.5t-129 -288.5l7 -6q16 6 38.5 9t34.5 3q51 0 100.5 -21.5t87.5 -69.5t61.5 -123t23.5 -181q0 -223 -98.5 -344t-307.5 -121q-188 0 -287.5 102.5t-99.5 339.5zM381 440q0 -98 23.5 -138t78.5 -40 q66 0 87.5 48t21.5 155q0 86 -24.5 121t-75.5 35q-53 0 -82 -41t-29 -140z" />
<glyph unicode="&#xe007;" horiz-adv-x="946" d="M86 989v436h788v-245l-432 -1180h-297l410 1153h-193v-164h-276z" />
<glyph unicode="&#xe008;" horiz-adv-x="1003" d="M94 422q0 41 6 87t22.5 89t45.5 80t76 59v11q-41 18 -66.5 49.5t-41 68.5t-21.5 78t-6 80q0 90 24.5 166t73.5 130t121.5 85t169.5 31q186 0 291.5 -100.5t105.5 -311.5q0 -41 -6 -82t-21.5 -78t-42 -67.5t-67.5 -48.5l2 -11q45 -18 73.5 -54t45 -80t22.5 -91t6 -90 q0 -119 -32.5 -201t-89 -133t-131 -74.5t-156.5 -23.5t-156 23.5t-129 74.5t-87 133t-32 201zM383 446q0 -100 29 -142t88 -42q66 0 93.5 51.5t27.5 137.5q0 78 -29 120.5t-92 42.5q-59 0 -88 -46t-29 -122zM397 1016q0 -86 26 -121t79 -35q57 0 81.5 42t24.5 118 q0 68 -25.5 105.5t-80.5 37.5q-53 0 -79 -40t-26 -107z" />
<glyph unicode="&#xe009;" horiz-adv-x="1003" d="M104 973q0 223 94.5 343t303.5 120q109 0 183.5 -30t121.5 -86t68.5 -137t21.5 -184q0 -37 -4 -77.5t-11.5 -78.5t-17.5 -72t-20 -54l-322 -717h-319l252 582l-6 6q-16 -6 -35 -9.5t-31 -3.5q-129 0 -204 93.5t-75 304.5zM397 950q0 -78 24 -111.5t73 -33.5q57 0 83.5 41 t30.5 139q0 92 -22.5 135t-77.5 43q-66 0 -88.5 -50t-22.5 -163z" />
<glyph unicode="&#xe00a;" horiz-adv-x="1067" d="M47 420v196h174q8 53 16.5 101.5t18.5 101.5h-143v199h174q16 102 32.5 202.5t32.5 202.5h221l-65 -405h158l67 405h221l-67 -405h149v-199h-180l-33 -203h150v-196h-182q-16 -106 -33 -211t-33 -209h-223l67 420h-157l-68 -420h-225l69 420h-141zM442 616h160 q8 53 16.5 101.5t18.5 101.5h-160z" />
<glyph unicode="&#xe00b;" horiz-adv-x="1003" d="M35 268l235 152q84 -127 195 -148v322q-100 37 -172 76t-118 88t-68.5 112.5t-22.5 149.5t27.5 158.5t78 128t120 89.5t155.5 42v133h94v-133q133 -10 225.5 -71.5t151.5 -156.5l-203 -163q-41 47 -84 71.5t-90 34.5v-276q111 -47 188.5 -91.5t127 -96.5t71 -116.5 t21.5 -150.5q0 -193 -105.5 -304.5t-302.5 -125.5v-185h-94v185q-154 8 -254 80.5t-176 195.5zM369 1034q0 -37 25.5 -64.5t70.5 -49.5v233q-43 -10 -69.5 -42t-26.5 -77zM559 274q61 10 86 48.5t25 87.5q0 53 -31 87.5t-80 59.5v-283z" />
<glyph unicode="&#xe00c;" horiz-adv-x="1003" d="M31 524v150h80v74h-80v149h80v82q0 80 23.5 161t75.5 146.5t134 107.5t201 42q94 0 166.5 -30t126 -79t87 -113.5t46.5 -134.5l-266 -84q-4 20 -13.5 48t-28 50.5t-48 39t-70.5 16.5q-43 0 -72 -15.5t-46 -39t-25.5 -51t-8.5 -52.5v-94h307v-149h-307v-74h307v-150h-307 v-61q0 -82 34 -135.5t118 -53.5q59 0 103 40t52 110l269 -82q-14 -84 -52 -149.5t-93.5 -110.5t-126 -69.5t-152.5 -24.5q-117 0 -200 39t-135 105.5t-75.5 154.5t-23.5 184v53h-80z" />
<glyph unicode="&#xe00d;" horiz-adv-x="937" d="M-20 -139l67 223q45 -20 69.5 -24.5t43.5 -4.5q47 0 72.5 44t37.5 147l47 405h-137l-2 238h174l15 125q8 74 29.5 149.5t64.5 135t110.5 97.5t165.5 38q49 0 103.5 -8.5t101.5 -28.5l-57 -232q-49 20 -76 23.5t-55 3.5q-27 0 -46.5 -15.5t-32.5 -40t-21.5 -55 t-12.5 -61.5l-16 -131h168l2 -238h-199l-47 -405q-12 -96 -34.5 -177t-62.5 -138.5t-99.5 -89t-145.5 -31.5q-43 0 -106.5 13t-120.5 38z" />
<glyph unicode="&#xe00e;" horiz-adv-x="962" d="M63 549v211h117q-23 82 -47 151.5t-24 149.5q0 78 26.5 146.5t78.5 118.5t129 80t175 30q158 0 260.5 -69t159.5 -232l-250 -111q-33 76 -70 107.5t-90 31.5q-37 0 -77.5 -30.5t-40.5 -88.5q0 -31 9 -62.5t22.5 -65t26.5 -72.5t24 -84h245v-211h-243q-12 -170 -74 -293 h493v-256h-843v225q55 74 85.5 147.5t39.5 176.5h-132z" />
<glyph unicode="&#xe00f;" horiz-adv-x="864" d="M59 502q0 106 17.5 199.5t59.5 163t111.5 111.5t174.5 48v168h70v-168q117 -8 202.5 -67.5t122.5 -165.5l-242 -117q-20 41 -38.5 61.5t-44.5 26.5v-508q47 10 86 86l241 -119q-39 -106 -125 -164.5t-202 -64.5v-193h-70v193q-104 6 -174 46t-112 107.5t-59.5 158.5 t-17.5 198zM348 502q0 -104 14.5 -163.5t59.5 -78.5v494q-47 -23 -60.5 -88.5t-13.5 -163.5z" />
<glyph unicode="&#xe010;" horiz-adv-x="1003" d="M-2 1425h317q29 -76 57.5 -154.5t51.5 -156.5l74 -248h12q18 59 33.5 126t38.5 126l106 307h318l-289 -690h168v-153h-228l-10 -21v-63h238v-154h-238v-344h-291v344h-231v154h231v63l-10 21h-221v153h160z" />
<glyph unicode="&#xe024;" horiz-adv-x="1003" d="M109 367v280q0 90 31.5 161t86 119t125 73.5t150.5 25.5t151.5 -25.5t124.5 -73.5t84 -119t31 -161v-280q0 -90 -32 -160t-85 -118t-123.5 -73.5t-150.5 -25.5t-151.5 25.5t-125 73.5t-85 117.5t-31.5 160.5zM395 369q0 -53 30 -80t77 -27q45 0 74.5 26.5t29.5 80.5v278 q0 53 -29.5 80t-74.5 27q-47 0 -77 -27t-30 -80v-278z" />
<glyph unicode="&#xe025;" horiz-adv-x="1003" d="M117 0v264h245v418l-200 -145v309l229 168h258v-750h238v-264h-770z" />
<glyph unicode="&#xe026;" horiz-adv-x="1003" d="M98 653q10 98 49 168t97.5 116t131.5 67.5t146 21.5q84 0 153.5 -23.5t119 -65.5t76 -101.5t26.5 -128.5q0 -53 -18.5 -103.5t-59.5 -104t-107.5 -110.5t-162.5 -125l2 -2h354v-262h-790v229q111 90 202 162t160 131q57 47 77.5 85t20.5 69t-19 49t-60 18q-10 0 -25.5 -3 t-33 -16t-34 -40t-26.5 -74z" />
<glyph unicode="&#xe027;" horiz-adv-x="1003" d="M49 37l285 35q0 -41 10 -69t25.5 -43t35 -21.5t39.5 -6.5q43 0 77 31t34 109q0 92 -28.5 137t-108.5 45h-94v229h102q72 0 101.5 38t29.5 104q0 45 -22.5 89t-79.5 44q-18 0 -36 -6.5t-33 -21.5t-25.5 -44t-14.5 -74l-278 41q8 88 42.5 158t89 118t123 72.5t142.5 24.5 q117 0 192.5 -35t119.5 -90t60.5 -124.5t16.5 -139.5q0 -33 -7 -71t-22.5 -72.5t-41 -65.5t-60.5 -49v-17q49 -31 75.5 -65.5t40 -72.5t16.5 -80t3 -87q0 -84 -27.5 -155.5t-81 -123.5t-130 -82t-173.5 -30q-162 0 -271 89t-126 282z" />
<glyph unicode="&#xe028;" horiz-adv-x="1003" d="M59 0v225l344 789h308l-330 -752h170v293h287v-293h92v-262h-92v-324h-287v324h-492z" />
<glyph unicode="&#xe029;" horiz-adv-x="1003" d="M119 80h287q2 -86 30.5 -114.5t69.5 -28.5q61 0 78.5 60t17.5 148q0 86 -16.5 142.5t-81.5 56.5q-23 0 -55.5 -17.5t-51.5 -70.5h-252v760h725v-262h-450v-209h2q41 33 90 42t74 9q86 0 145.5 -29.5t95 -87t52 -138.5t16.5 -183q0 -115 -20.5 -206t-66.5 -154.5 t-120 -97.5t-180 -34q-82 0 -152.5 18.5t-122 64.5t-82 127t-32.5 204z" />
<glyph unicode="&#xe02a;" horiz-adv-x="1003" d="M115 408q0 70 11 136t36 122q76 162 157.5 337t155.5 336h322l-90 -202l-156 -342q16 6 30.5 8t28.5 2q63 -2 114.5 -22.5t87.5 -65.5t55.5 -116t19.5 -171q0 -211 -95.5 -325.5t-299.5 -114.5q-178 0 -277.5 103.5t-99.5 314.5zM401 416q0 -88 21.5 -124t73.5 -36 q59 0 78.5 44t19.5 138q0 78 -21.5 110t-68.5 32q-49 0 -76 -38t-27 -126z" />
<glyph unicode="&#xe02b;" horiz-adv-x="1003" d="M106 598v418h768v-238l-415 -1102h-299l395 1076h-172v-154h-277z" />
<glyph unicode="&#xe02c;" horiz-adv-x="1003" d="M100 399q0 39 6.5 82t21.5 83t43 75t71 57v2q-78 39 -103.5 113t-25.5 150q0 86 25.5 157.5t74.5 122.5t119.5 80t161.5 29q180 0 283.5 -94.5t103.5 -294.5q0 -76 -27 -149t-102 -112v-4q43 -18 70.5 -52t43 -75t21.5 -86t6 -84q0 -109 -32 -186.5t-87 -126.5 t-128 -72.5t-152 -23.5q-80 0 -152 24.5t-126 74.5t-85 127t-31 183zM387 422q0 -90 27 -126t82 -36q59 0 84.5 44t25.5 122q0 70 -26.5 108.5t-83.5 38.5q-55 0 -82 -42t-27 -109zM401 952q0 -78 24 -107.5t73 -29.5q53 0 74.5 37t21.5 104q0 59 -22.5 93t-73.5 34 q-49 0 -73 -34.5t-24 -96.5z" />
<glyph unicode="&#xe02d;" horiz-adv-x="1003" d="M115 588q0 211 96 323.5t301 112.5q201 0 289 -108.5t88 -303.5q0 -35 -4 -73.5t-11.5 -74.5t-16.5 -67.5t-17 -50.5l-314 -670h-321l246 545q-14 -4 -34 -7t-30 -3q-61 2 -112.5 23.5t-86 66.5t-54 115.5t-19.5 171.5zM408 565q0 -70 21.5 -99.5t66.5 -29.5 q53 0 76.5 38t27.5 124q0 86 -18.5 123t-67.5 37q-61 0 -83.5 -44t-22.5 -149z" />
<glyph unicode="&#xe02e;" horiz-adv-x="1003" d="M57 356v168h156l33 172h-129v168h155l60 346h198l-59 -346h143l60 346h198l-59 -346h133v-168h-162l-28 -172h135v-168h-166l-57 -356h-201l59 356h-141l-61 -356h-203l63 356h-127zM412 524h145l31 172h-144z" />
<glyph unicode="&#xe02f;" horiz-adv-x="1003" d="M57 233l222 134q78 -102 165 -123v260q-90 31 -153.5 63.5t-104.5 74.5t-60.5 95.5t-19.5 126.5q0 150 92.5 247t245.5 114v110h99v-110q119 -10 200.5 -64.5t135.5 -134.5l-189 -147q-35 41 -70.5 62.5t-76.5 31.5v-223q98 -41 167.5 -78t112.5 -82t62.5 -100.5 t19.5 -129.5q0 -164 -93 -259t-269 -107v-156h-99v156q-137 6 -227 68.5t-160 170.5zM371 877q0 -29 19.5 -48.5t53.5 -35.5v178q-73 -22 -73 -94zM543 246q47 10 65.5 39.5t18.5 66.5q0 41 -21.5 66.5t-62.5 46.5v-219z" />
<glyph unicode="&#xe030;" horiz-adv-x="1003" d="M96 442v140h70v47h-70v139h70v63q0 68 21.5 137.5t68.5 126t122 92.5t181 36q86 0 152.5 -26t114.5 -69t79 -99t43 -118l-250 -75q-4 18 -12 41.5t-24.5 43t-42 34t-60.5 14.5q-37 0 -61.5 -12.5t-40 -32t-21.5 -42t-6 -42.5v-72h275v-139h-275v-47h275v-140h-275v-47 q0 -66 28.5 -108.5t100.5 -42.5q53 0 90 33.5t45 93.5l252 -72q-29 -145 -132 -227t-255 -82q-104 0 -179 32.5t-123 90t-69.5 132t-21.5 158.5v39h-70z" />
<glyph unicode="&#xe031;" horiz-adv-x="1003" d="M35 -166l65 211q43 -20 68 -24.5t43 -4.5q47 0 70.5 42t35.5 139l45 381h-133l-2 223h170l15 117q8 70 28.5 140t62.5 126.5t106.5 92.5t160.5 36q47 0 100.5 -8.5t98.5 -26.5l-56 -217q-47 18 -73.5 21t-53.5 3q-25 0 -44 -14t-32.5 -37.5t-21.5 -52.5t-10 -57l-16 -123 h161l2 -223h-192l-45 -381q-12 -92 -34 -167t-60.5 -129.5t-97 -84t-140.5 -29.5q-41 0 -103.5 12.5t-117.5 34.5z" />
<glyph unicode="&#xe032;" horiz-adv-x="1003" d="M104 463v188h101l-23 70q-16 45 -27.5 88t-11.5 90q0 68 25 127t73 102t116.5 69t158.5 26q141 0 234.5 -60.5t146.5 -204.5l-235 -98q-29 66 -60 93.5t-78 27.5q-31 0 -65.5 -24.5t-34.5 -69.5q0 -29 9 -56.5t24 -60.5q10 -29 21 -56.5t20 -62.5h219v-188h-217 q-6 -74 -20.5 -129t-41.5 -107h434v-227h-761v199q49 61 75.5 120.5t34.5 143.5h-117z" />
<glyph unicode="&#xe033;" horiz-adv-x="1003" d="M154 510q0 92 16 171t54 138.5t99.5 95t153.5 41.5v144h76v-144q102 -8 180 -60t113 -146l-228 -101q-33 61 -65 72v-412q20 6 35.5 24.5t32.5 49.5l227 -104q-35 -92 -114 -143.5t-181 -59.5v-162h-76v162q-92 6 -153.5 41t-99.5 92t-54 134t-16 167zM424 510 q0 -78 10 -126t43 -67v396q-35 -23 -44 -75t-9 -128z" />
<glyph unicode="&#xe034;" horiz-adv-x="1003" d="M41 1214h299l88 -253l70 -216h10l72 226l82 243h299l-259 -583h148v-142h-207l-8 -12v-45h215v-141h-215v-291h-268v291h-209v141h209v45l-9 12h-200v142h139z" />
<glyph unicode="&#xe059;" horiz-adv-x="1402" d="M94 705v327q0 45 18.5 80t50.5 59.5t74 38t87 13.5q94 0 162.5 -50.5t68.5 -140.5v-327q0 -90 -68.5 -140.5t-162.5 -50.5q-45 0 -87 13.5t-74 38t-50.5 59t-18.5 80.5zM266 -29l680 1272h191l-682 -1272h-189zM274 709q0 -41 48 -41q49 0 49 41v317q0 43 -49 43 q-47 0 -48 -43v-317zM848 188v324q0 45 18.5 82t50 61.5t73.5 38t87 13.5q92 0 161 -51.5t69 -143.5v-324q0 -45 -18.5 -80.5t-50.5 -60t-74 -38t-87 -13.5q-47 0 -88 13.5t-72.5 38t-50 60t-18.5 80.5zM1028 193q0 -41 47 -41q49 0 49 41v315q0 45 -49 45q-47 0 -47 -45 v-315z" />
<glyph unicode="&#xe05a;" horiz-adv-x="1927" d="M96 705v327q0 45 18.5 80t50.5 59.5t74 38t87 13.5q94 0 161.5 -50.5t67.5 -140.5v-327q0 -90 -67.5 -140.5t-161.5 -50.5q-47 0 -88 13.5t-73 38t-50.5 59t-18.5 80.5zM268 -29l680 1272h191l-682 -1272h-189zM276 709q0 -41 48 -41q49 0 49 41v317q0 43 -49 43 q-47 0 -48 -43v-317zM848 188v324q0 45 18.5 82t50 61.5t73.5 38t87 13.5q47 0 89 -13.5t74 -38t50.5 -61.5t18.5 -82v-324q0 -45 -18.5 -80.5t-51.5 -60t-75 -38t-87 -13.5t-87 13.5t-73.5 38t-50 60t-18.5 80.5zM1028 193q0 -41 49 -41q47 0 47 41v315q0 45 -49 45 q-47 0 -47 -45v-315zM1395 188v324q0 45 18.5 82t50 61.5t72.5 38t86 13.5q96 0 163.5 -51.5t67.5 -143.5v-324q0 -45 -18 -80.5t-50 -60t-74 -38t-89 -13.5q-45 0 -86 13.5t-72.5 38t-50 60t-18.5 80.5zM1573 193q0 -41 49 -41t49 41v315q0 45 -49 45t-49 -45v-315z" />
<glyph unicode="&#xe06c;" horiz-adv-x="653" d="M39 776q0 86 59.5 145.5t186.5 59.5h100v33q0 16 -16.5 33.5t-51.5 17.5q-29 0 -57.5 -10.5t-48.5 -40.5l-154 94q45 78 114 110.5t157 32.5q125 0 198.5 -50t73.5 -177v-453h-215v58q-29 -35 -69 -50.5t-70 -15.5q-109 0 -158 55.5t-49 157.5zM244 791q0 -16 16 -32 t51 -16q31 0 52.5 15.5t21.5 50.5v35h-76q-33 0 -49 -15.5t-16 -37.5z" />
<glyph unicode="&#xe06d;" horiz-adv-x="661" d="M59 571v977h217v-340q25 23 61.5 33t61.5 10q78 0 121 -27.5t64.5 -74.5t26.5 -107.5t5 -126.5q0 -80 -7 -145t-29.5 -110.5t-63.5 -70t-108 -24.5q-31 0 -71 16.5t-63 51.5v-62h-215zM274 905q0 -70 12.5 -108.5t47.5 -38.5q37 0 49 35.5t12 109.5q0 66 -10 112t-51 46 q-29 0 -44.5 -33t-15.5 -123z" />
<glyph unicode="&#xe06f;" horiz-adv-x="667" d="M53 903q0 53 5 113.5t28 113t68 87t127 34.5q23 0 54.5 -8t57.5 -31v334h215v-975h-211v60q-23 -33 -66.5 -49.5t-72.5 -16.5q-68 0 -108.5 20.5t-62 61.5t-28 105.5t-6.5 150.5zM274 903q0 -27 1 -52.5t7.5 -46t17.5 -33.5t34 -13q41 0 50 40t11 109q0 86 -13 120 t-48 34q-20 0 -31.5 -13.5t-17.5 -35t-8.5 -50t-2.5 -59.5z" />
<glyph unicode="&#xe070;" horiz-adv-x="655" d="M41 905q0 166 65.5 256t219.5 90q80 0 134 -23.5t87 -66.5t47 -103.5t14 -131.5v-64h-346v-28q0 -78 66 -78q18 0 44.5 10t49.5 47l174 -88q-41 -80 -111.5 -121t-156.5 -41q-84 0 -139.5 23.5t-88 67.5t-46 107.5t-13.5 143.5zM262 989h123q0 29 -16.5 51.5t-42.5 22.5 q-31 0 -46.5 -21.5t-17.5 -52.5z" />
<glyph unicode="&#xe071;" horiz-adv-x="655" d="M41 905q0 166 65.5 256t219.5 90q80 0 134 -23.5t87 -66.5t47 -103.5t14 -131.5v-64h-346v-28q0 -78 66 -78q18 0 44.5 10t49.5 47l174 -88q-41 -80 -111.5 -121t-156.5 -41q-84 0 -139.5 23.5t-88 67.5t-46 107.5t-13.5 143.5zM102 1548l183 70l143 -260l-121 -62z M262 989h123q0 29 -16.5 51.5t-42.5 22.5q-31 0 -46.5 -21.5t-17.5 -52.5z" />
<glyph unicode="&#xe073;" horiz-adv-x="681" d="M66 571v975h215v-350q27 25 60.5 40t70.5 15q104 0 154 -58t50 -157v-465h-217v422q0 33 -16 47.5t-39 14.5q-27 0 -44 -16.5t-17 -45.5v-422h-217z" />
<glyph unicode="&#xe074;" horiz-adv-x="358" d="M70 571v672h217v-672h-217zM70 1317v190h217v-190h-217z" />
<glyph unicode="&#xe077;" horiz-adv-x="366" d="M57 764v782h219v-741q0 -31 15.5 -40t30.5 -9h34v-187h-73q-102 0 -164 44t-62 151z" />
<glyph unicode="&#xe078;" horiz-adv-x="1028" d="M72 571v672h217v-53q25 27 60.5 44t72.5 17q59 0 98 -18.5t66 -56.5q35 35 77 55t89 20q59 0 99 -18.5t64.5 -51t35 -78.5t10.5 -99v-433h-218v424q0 33 -17 47.5t-42 14.5t-43 -16.5t-18 -45.5v-424h-215v424q0 33 -17.5 47.5t-40.5 14.5q-27 0 -44 -16.5t-17 -47.5 v-422h-217z" />
<glyph unicode="&#xe079;" horiz-adv-x="649" d="M47 907q2 55 7 111.5t22 91.5q29 66 95.5 103.5t162.5 37.5q98 0 156.5 -36.5t84.5 -94.5q18 -41 24.5 -95t6.5 -118q0 -72 -7 -124t-30 -91q-39 -72 -103.5 -100.5t-146.5 -28.5q-74 0 -125 22.5t-85 61.5q-35 43 -48.5 106.5t-13.5 153.5zM260 903q0 -35 1 -64.5 t11 -52.5q16 -33 54 -32q39 0 53 34q8 18 10 51t2 81q0 35 -2 61.5t-10 44.5q-16 37 -51 37q-39 0 -56 -37q-10 -23 -11 -53.5t-1 -69.5z" />
<glyph unicode="&#xe07c;" horiz-adv-x="514" d="M68 571v674h219v-71q35 45 78 59t81 14q33 0 76 -18l-39 -195q-31 14 -53 18.5t-41 4.5q-43 0 -71.5 -23.5t-28.5 -77.5v-385h-221z" />
<glyph unicode="&#xe07d;" horiz-adv-x="624" d="M23 684l133 127q29 -39 64.5 -53.5t74.5 -14.5q33 0 50 12.5t17 28.5q0 27 -63 41q-43 10 -88 25.5t-82 40t-60.5 60.5t-23.5 87q0 49 22.5 89t58.5 68t82 42t93 14q96 0 156.5 -26.5t111.5 -77.5l-123 -129q-29 33 -61.5 43t-54.5 10q-43 0 -57.5 -10t-14.5 -21 q0 -16 23.5 -27.5t52.5 -17.5q49 -10 94 -25.5t79 -41t54.5 -61.5t20.5 -85q0 -100 -76 -159.5t-209 -59.5q-182 0 -274 121z" />
<glyph unicode="&#xe07e;" horiz-adv-x="432" d="M25 1081v162h71v176h209v-176h90v-162h-90v-270q0 -29 10.5 -41t38.5 -12h41v-187h-104q-98 0 -147.5 52.5t-49.5 130.5v327h-69z" />
<glyph unicode="&#xe0d8;" horiz-adv-x="686" d="M123 698q0 129 27.5 249t74.5 230.5t110.5 211t135.5 190.5l176 -98q-61 -92 -107 -190.5t-77 -198t-46.5 -196.5t-15.5 -187q0 -98 16.5 -200.5t48.5 -204t77 -199t102 -183.5l-160 -112q-78 94 -143.5 197.5t-114.5 216t-76.5 231t-27.5 243.5z" />
<glyph unicode="&#xe0d9;" horiz-adv-x="686" d="M111 1481l176 98q72 -90 135 -190.5t111.5 -211t76 -230.5t27.5 -249q0 -125 -27.5 -243.5t-77 -231t-116 -216t-142.5 -197.5l-161 112q57 86 103 183.5t78 199t48 203.5t16 201q0 90 -15 187t-47 196.5t-78 198t-107 190.5z" />
<glyph unicode="&#xe0da;" horiz-adv-x="843" d="M98 489v256h658v-256h-658z" />
<glyph unicode="&#xe0db;" horiz-adv-x="587" d="M131 -129v1630h422v-209h-158v-1214h158v-207h-422z" />
<glyph unicode="&#xe0dc;" horiz-adv-x="587" d="M35 76h155v1216h-155v209h420v-1632h-420v207z" />
<glyph unicode="&#xe0dd;" horiz-adv-x="587" d="M23 594v190q68 4 103.5 46t35.5 135v280q0 117 67.5 184.5t165.5 67.5h170v-203h-65q-33 0 -54.5 -28.5t-21.5 -75.5v-258q0 -90 -40 -150.5t-99 -89.5q63 -35 101 -92t38 -156v-241q0 -25 2 -48.5t9 -42t22.5 -29.5t42.5 -11h65v-201h-170q-98 0 -165.5 67.5 t-67.5 184.5v291q0 92 -37 135t-102 45z" />
</font>
</defs>
</svg>
