<?xml version="1.0" standalone="no"?>
<!DOCTYPE svg PUBLIC "-//W3C//DTD SVG 1.1//EN" "http://www.w3.org/Graphics/SVG/1.1/DTD/svg11.dtd" >
<svg xmlns="http://www.w3.org/2000/svg">
<metadata></metadata>
<defs>
<font id="pf_dintext_probold_italic" horiz-adv-x="3723" >
<font-face units-per-em="2048" ascent="1536" descent="-512" />
<missing-glyph horiz-adv-x="550" />
<glyph unicode="fj" horiz-adv-x="1153" d="M10 -305l211 1091h-110l45 226h110l23 123q20 100 65 171.5t109.5 117.5t144.5 67.5t170 21.5q104 0 202.5 -32.5t174.5 -116.5l-188 -195q-35 45 -86.5 68t-122.5 23q-53 0 -87 -15.5t-54.5 -37t-31 -46t-12.5 -41.5l-20 -108h571l-219 -1118q-27 -137 -124 -220.5 t-263 -83.5h-121l49 254h54q74 0 98.5 33t32.5 74l162 835h-285l-211 -1091h-287z" />
<glyph unicode="ffj" horiz-adv-x="1722" d="M8 -305l211 1091h-113l46 226h112l15 82q20 100 68 171.5t115.5 118t150.5 68t173 21.5q66 0 129.5 -11.5t122.5 -42.5q68 47 142.5 70.5t167.5 23.5q104 0 202.5 -31.5t175.5 -117.5l-190 -195q-68 90 -209 91q-53 0 -87 -15.5t-54.5 -37t-30.5 -46t-12 -41.5l-21 -108 h572l-219 -1118q-27 -137 -123.5 -220.5t-261.5 -83.5h-121l49 254h51q74 0 98.5 33t32.5 74l162 835h-285l-211 -1091h-284l211 1091h-289l-211 -1091h-285zM549 1012h289l22 123q6 35 14 57q-29 12 -59.5 19.5t-69.5 7.5q-53 0 -86.5 -15.5t-54 -37t-31 -46t-12.5 -41.5z " />
<glyph unicode="&#xfb00;" horiz-adv-x="1249" d="M16 -305l211 1091h-110l45 228h110l17 86q18 100 65 175t115 125t153 74.5t181 24.5q57 0 114.5 -8t108.5 -31q33 23 94.5 46.5t149.5 25.5q39 0 86 -4t94 -17l-45 -235q-27 6 -56.5 7t-48.5 1q-43 -2 -69.5 -15.5t-41.5 -32.5t-21.5 -39.5t-8.5 -37.5l-31 -145h195 l-45 -228h-195l-211 -1091h-284l211 1091h-285l-211 -1091h-287zM559 1014h285l41 209q-29 10 -57.5 16t-65.5 6q-55 0 -90 -15.5t-54.5 -37t-28.5 -46t-14 -40.5z" />
<glyph unicode="&#xfb01;" horiz-adv-x="1153" d="M10 -305l211 1091h-110l45 226h110l23 123q20 100 65 171.5t109.5 117.5t144.5 67.5t170 21.5q104 0 199.5 -31.5t173.5 -117.5l-184 -195q-35 45 -86.5 68t-122.5 23q-53 0 -87 -15.5t-54.5 -37t-31 -46t-12.5 -41.5l-20 -108h571l-196 -1012h-287l152 786h-285 l-211 -1091h-287z" />
<glyph unicode="&#xfb02;" horiz-adv-x="1175" d="M10 -305l211 1091h-110l45 226h110l23 110q18 100 63 172t109.5 118t144.5 67.5t170 21.5q25 0 70 -4t103.5 -13t127 -24.5t140.5 -40.5l-207 -1063q-12 -68 13.5 -88t66.5 -20h40l-49 -248h-131q-59 0 -109 20.5t-83 60.5t-45.5 100.5t4.5 140.5l176 903q-41 14 -80 18 t-57 4q-57 0 -91 -15t-53.5 -36.5t-28 -46.5t-10.5 -41l-20 -96h197l-45 -226h-197l-211 -1091h-287z" />
<glyph unicode="&#xfb03;" horiz-adv-x="1703" d="M10 -305l211 1091h-110l45 226h110l15 82q20 100 68 171.5t117 118t151.5 68t173.5 21.5q66 0 129 -11.5t122 -42.5q133 94 316 94q104 0 199.5 -31.5t171.5 -117.5l-189 -195q-68 90 -209 91q-53 0 -87 -15.5t-54.5 -37t-30.5 -46t-12 -41.5l-21 -108h572l-197 -1012 h-287l152 786h-285l-211 -1091h-284l211 1091h-289l-211 -1091h-287zM553 1012h289l22 123q6 35 15 57q-29 12 -60 19.5t-69 7.5q-53 0 -87 -15.5t-54.5 -37t-31 -46t-12.5 -41.5z" />
<glyph unicode="&#xfb04;" horiz-adv-x="1736" d="M10 -305l211 1091h-110l45 226h110l15 82q20 100 63 171.5t105.5 118t142.5 68t174 21.5q125 0 274 -60q68 47 147 73.5t171 26.5q49 0 162.5 -16t257.5 -65l-209 -1076q-12 -68 13.5 -88t66.5 -20h41l-50 -248h-131q-59 0 -109 20.5t-83 60.5t-45 100.5t4 140.5l178 915 q-41 14 -73 18.5t-50 4.5q-53 0 -87 -15.5t-54.5 -37t-30.5 -46t-12 -41.5l-21 -108h183l-45 -226h-183l-211 -1091h-284l211 1091h-289l-211 -1091h-287zM553 1012h289l22 123q6 35 15 57q-29 12 -60 19.5t-69 7.5q-53 0 -87 -15.5t-54.5 -37t-31 -46t-12.5 -41.5z" />
<glyph unicode="ft" horiz-adv-x="1222" d="M10 -305l211 1091h-110l45 228h110l37 178q12 63 39 120.5t73 100.5t114.5 68.5t166.5 25.5q37 0 77 -4t83 -14l-45 -240q-33 8 -53.5 9.5t-38.5 1.5q-37 0 -61.5 -10.5t-40 -25t-23.5 -32.5t-10 -33l-31 -145h285l53 280h278l-53 -278h152l-45 -230h-148l-82 -428 q-14 -66 4.5 -85t61.5 -19h63l-49 -254h-155q-121 0 -187.5 71.5t-42.5 200.5l100 514h-280l-211 -1091h-287z" />
<glyph horiz-adv-x="0" />
<glyph horiz-adv-x="682" />
<glyph unicode=" "  horiz-adv-x="550" />
<glyph unicode="&#x09;" horiz-adv-x="550" />
<glyph unicode="&#xa0;" horiz-adv-x="550" />
<glyph unicode="!" horiz-adv-x="589" d="M66 0l51 262h295l-52 -262h-294zM166 391l178 1034h291l-221 -1034h-248z" />
<glyph unicode="&#x22;" horiz-adv-x="821" d="M213 961l90 464h248l-90 -464h-248zM553 961l90 464h248l-90 -464h-248z" />
<glyph unicode="#" horiz-adv-x="1126" d="M45 416l39 200h203l67 195h-176l39 203h205l139 411h238l-137 -411h169l142 411h235l-137 -411h182l-39 -203h-213l-65 -195h184l-39 -200h-213l-139 -416h-244l142 416h-166l-142 -416h-243l141 416h-172zM526 616h170l68 195h-172z" />
<glyph unicode="$" horiz-adv-x="1126" d="M0 193l213 239q66 -66 127 -100.5t139 -42.5l56 282q-66 18 -128.5 51t-109.5 80.5t-75.5 108.5t-28.5 139q0 102 38.5 189.5t106.5 150t161 100t201 42.5l27 137h113l-25 -135q104 -4 195.5 -40t185.5 -112l-186 -260q-74 55 -130.5 84t-121.5 35l-53 -269 q92 -33 164.5 -70.5t122.5 -85.5t76 -109.5t26 -139.5q0 -119 -45 -208t-122 -147.5t-178.5 -88t-213.5 -31.5l-41 -209h-113l41 211q-125 8 -224.5 56t-197.5 143zM530 1026q0 -35 15.5 -60.5t56.5 -47.5l41 217q-41 -10 -72 -36t-41 -73zM592 291q143 27 143 137 q0 39 -24.5 63.5t-71.5 45.5z" />
<glyph unicode="%" horiz-adv-x="1894" d="M250 831l65 340q23 125 111 193t215 68q59 0 113.5 -18.5t93.5 -52.5t58.5 -84t6.5 -114l-69 -340q-25 -131 -107 -194.5t-215 -63.5q-61 0 -115.5 20.5t-92.5 55.5t-56 84t-8 106zM309 -35l1157 1495h242l-1159 -1495h-240zM467 825q-4 -33 17.5 -51t56.5 -18 q68 0 84 78l67 337q6 35 -14.5 53.5t-54.5 18.5q-35 0 -58.5 -21.5t-29.5 -58.5zM1112 260l66 340q23 125 110.5 192.5t214.5 67.5q59 0 113.5 -18.5t93.5 -52t58.5 -84t7.5 -113.5l-70 -340q-25 -131 -106.5 -194.5t-215.5 -63.5q-61 0 -115.5 20.5t-92 55t-56 84 t-8.5 106.5zM1329 254q-4 -33 17.5 -51.5t56.5 -18.5q68 0 84 78l67 338q6 35 -14 53.5t-55 18.5t-58.5 -21.5t-29.5 -58.5z" />
<glyph unicode="&#x26;" horiz-adv-x="1355" d="M119 334q0 125 88 249t237 212l-20 32q-23 39 -44.5 102.5t-21.5 133.5q0 174 115 273.5t336 99.5q43 0 93 -7.5t99.5 -23.5t96.5 -43t86 -68l-172 -217q-66 66 -122 83.5t-110 17.5q-61 0 -98 -38t-37 -87q0 -23 7 -42.5t24 -47.5l244 -426q25 39 48 90t42 104l243 -67 q-35 -92 -88 -187.5t-112 -167.5l188 -309h-338l-65 117q-86 -61 -178.5 -95t-186.5 -34q-98 0 -165.5 28.5t-109.5 75.5t-60.5 110.5t-18.5 131.5zM391 356q0 -47 34 -77.5t103 -30.5q49 0 98.5 20.5t92.5 48.5l-160 275q-72 -45 -120 -107.5t-48 -128.5z" />
<glyph unicode="'" horiz-adv-x="522" d="M240 961l90 464h250l-91 -464h-249z" />
<glyph unicode="(" horiz-adv-x="763" d="M152 457q2 160 54 309t137 285.5t193.5 257.5t223.5 223l153 -113q-96 -100 -179 -217t-144.5 -246t-96 -265t-34.5 -277q0 -147 38 -295t111 -281l-196 -129q-115 158 -190 347.5t-70 400.5z" />
<glyph unicode=")" horiz-adv-x="763" d="M-6 -162q92 98 175 212t145.5 239t99.5 259t37 273q0 147 -33 301t-115 297l197 113q111 -154 184.5 -332t73.5 -383q0 -166 -52.5 -319.5t-139.5 -294t-198.5 -265t-228.5 -229.5z" />
<glyph unicode="*" horiz-adv-x="950" d="M227 1063l107 209l209 -94l20 243h232l-76 -243l244 94l24 -209l-248 -53l129 -183l-213 -133l-80 211l-169 -211l-158 133l203 183z" />
<glyph unicode="+" horiz-adv-x="1126" d="M51 492l47 237h398l71 375h254l-71 -375h397l-47 -237h-398l-73 -381h-254l74 381h-398z" />
<glyph unicode="," horiz-adv-x="600" d="M-16 -309l137 307h-74l68 340h338l-62 -324l-260 -323h-147z" />
<glyph unicode="-" horiz-adv-x="882" d="M90 393l51 269h695l-54 -269h-692z" />
<glyph unicode="." horiz-adv-x="595" d="M-35 0l66 338h338l-66 -338h-338z" />
<glyph unicode="/" horiz-adv-x="753" d="M-131 -86l821 1571h246l-825 -1571h-242z" />
<glyph unicode="0" horiz-adv-x="1126" d="M61 418l113 588q41 207 174 318.5t322 111.5q88 0 168 -29t137 -84t82.5 -135t5.5 -182l-115 -588q-43 -219 -169 -323.5t-322 -104.5q-94 0 -175 28.5t-136.5 83t-80 134t-4.5 182.5zM356 420q-16 -80 26 -119t107 -39q131 0 162 158l115 586q16 80 -24 118.5t-107 38.5 q-133 0 -166 -157z" />
<glyph unicode="1" horiz-adv-x="1126" d="M264 940l60 315l274 170h264l-278 -1425h-295l211 1087z" />
<glyph unicode="2" horiz-adv-x="1126" d="M12 0l49 252l684 653q33 31 46.5 68t13.5 74q0 47 -30 76.5t-87 29.5t-110.5 -34t-81.5 -132l-279 62q27 92 79 164.5t118.5 121.5t144.5 75t158 26q82 0 154.5 -18.5t128 -58.5t87 -101.5t31.5 -145.5q0 -55 -14 -109.5t-38 -101.5t-52.5 -87t-59.5 -69l-487 -462h491 l-55 -283h-891z" />
<glyph unicode="3" horiz-adv-x="1126" d="M41 377l287 43q2 -90 44 -119t103 -29q41 0 78 15.5t63.5 43t42 63.5t15.5 77q0 66 -37 110t-98 44h-160l45 225h143q39 0 76 14.5t64.5 39t44 58t16.5 74.5q0 51 -36 84t-91 33q-23 0 -50.5 -7t-53 -23.5t-47 -44t-33.5 -68.5l-281 51q31 96 81 166.5t116.5 117 t145.5 69t165 22.5q96 0 171 -30t126 -79t77.5 -115.5t26.5 -140.5q0 -111 -64.5 -203t-170.5 -129l-2 -10q82 -35 111.5 -105.5t29.5 -142.5q0 -111 -43 -201t-115.5 -154.5t-168 -100t-199.5 -35.5q-76 0 -149.5 21.5t-134 68.5t-98.5 119.5t-40 177.5z" />
<glyph unicode="4" horiz-adv-x="1126" d="M37 199l45 235l676 991h329l-657 -954h242l65 354h295l-65 -354h112l-53 -272h-113l-39 -199h-294l38 199h-581z" />
<glyph unicode="5" horiz-adv-x="1126" d="M94 373l285 41q-2 -41 11 -68t34.5 -43t45.5 -23.5t44 -7.5q61 0 102 36t63.5 87t32 106.5t9.5 92.5q0 59 -26.5 98t-98.5 39q-41 0 -87 -26.5t-87 -92.5h-264l159 813h816l-56 -282h-532l-41 -201l8 -6q47 31 98.5 46t98.5 15q90 0 151.5 -26.5t99 -71.5t54 -103.5 t16.5 -121.5q0 -141 -33.5 -266t-102.5 -217.5t-173.5 -146.5t-245.5 -54q-72 0 -139.5 22.5t-120.5 69.5t-86 118.5t-35 172.5z" />
<glyph unicode="6" horiz-adv-x="1126" d="M76 344q0 86 29.5 174t84.5 166l531 741h332l-406 -569l2 -4q16 2 29.5 3t28.5 1q143 0 217.5 -90t74.5 -225q0 -152 -51 -256.5t-132 -170t-178 -95t-189 -29.5q-96 0 -167 28.5t-117 76.5t-67.5 112.5t-21.5 136.5zM377 397q0 -66 36 -95.5t87 -29.5q27 0 59.5 12.5 t61 38t48 66.5t19.5 98q0 63 -36 97t-85 34q-33 0 -66.5 -14t-61 -43t-45 -69.5t-17.5 -94.5z" />
<glyph unicode="7" horiz-adv-x="1126" d="M16 0l695 1143h-252l-37 -193h-297l94 475h889l-49 -251l-729 -1174h-314z" />
<glyph unicode="8" horiz-adv-x="1126" d="M41 360q0 55 13.5 111.5t43 107t76.5 92.5t113 68q-59 35 -84 89.5t-25 119.5q0 100 39 189.5t108.5 155t164.5 104.5t210 39q92 0 163 -27t120 -74t74.5 -111.5t25.5 -140.5q0 -121 -63.5 -205.5t-167.5 -138.5q33 -16 59.5 -46.5t45 -67.5t28.5 -79t10 -81 q0 -109 -47 -197t-123.5 -149.5t-174 -95t-197.5 -33.5q-92 0 -168 26.5t-130.5 74.5t-84 116.5t-29.5 152.5zM338 403q0 -59 39 -99t108 -40q43 0 83 17.5t69 45t46 64.5t17 78q0 59 -41.5 96t-107.5 37q-41 0 -79 -15.5t-67.5 -43t-48 -63.5t-18.5 -77zM477 975 q0 -53 36 -82t89 -29q33 0 66.5 13.5t59.5 37t42 56.5t16 73q0 53 -31.5 88t-92.5 35q-76 0 -130.5 -53t-54.5 -139z" />
<glyph unicode="9" horiz-adv-x="1126" d="M72 -2l405 569l-2 4q-16 -2 -29.5 -3t-27.5 -1q-143 0 -218 90.5t-75 225.5q0 137 47 239.5t123 172t172 104.5t192 35t169 -29t122 -77t74 -112.5t25 -136.5q0 -86 -30 -174t-85 -166l-531 -741h-331zM436 936q0 -63 36 -97t85 -34q33 0 66.5 14.5t61.5 43t45.5 69.5 t17.5 94q0 66 -36 95.5t-87 29.5q-27 0 -60 -12.5t-61.5 -38t-48 -66.5t-19.5 -98z" />
<glyph unicode=":" horiz-adv-x="608" d="M53 0l66 338h338l-66 -338h-338zM160 549l65 338h338l-65 -338h-338z" />
<glyph unicode=";" horiz-adv-x="608" d="M-12 -309l137 307h-74l68 340h338l-62 -324l-260 -323h-147zM160 549l65 338h338l-65 -338h-338z" />
<glyph unicode="&#x3c;" horiz-adv-x="1126" d="M51 496l43 229l1137 457l-53 -275l-783 -305l664 -305l-51 -262z" />
<glyph unicode="=" horiz-adv-x="1126" d="M4 262l45 227h1053l-45 -227h-1053zM96 731l43 227h1053l-43 -227h-1053z" />
<glyph unicode="&#x3e;" horiz-adv-x="1126" d="M-37 35l49 278l783 305l-664 306l55 258l957 -457l-43 -229z" />
<glyph unicode="?" horiz-adv-x="993" d="M125 1008q41 211 184.5 319.5t354.5 108.5q84 0 156.5 -25t124.5 -69t82 -104t30 -132q0 -78 -26.5 -139.5t-67.5 -113.5t-92.5 -98t-98.5 -94.5t-87 -100.5t-58 -118l-11 -45h-294l10 56q10 59 29.5 107t51 95t78 98.5t107.5 116.5q18 20 42 42t43 45.5t32.5 48 t13.5 51.5q0 45 -37 70.5t-84 25.5q-29 0 -58.5 -7t-55 -27.5t-46 -56.5t-32.5 -91zM244 0l51 262h295l-49 -262h-297z" />
<glyph unicode="@" horiz-adv-x="1896" d="M152 680q12 178 83.5 327.5t191.5 258t279.5 170t350.5 61.5q162 0 297 -49t230 -140t144.5 -221.5t36.5 -291.5q-8 -111 -41.5 -211.5t-92 -176t-142.5 -120.5t-191 -45q-31 0 -67.5 9t-70.5 26.5t-60.5 44t-36.5 61.5h-6q-33 -47 -99.5 -89t-146.5 -42q-72 0 -122 22.5 t-82 60.5t-46 86t-14 97q0 94 20.5 196.5t69.5 187.5t128 140.5t196 55.5q39 0 78.5 -14.5t72.5 -53.5l4 2l12 58h232l-119 -596q-4 -23 14.5 -37.5t38.5 -14.5q55 0 102.5 27t82 74t56 108.5t28.5 132.5q8 123 -26 222.5t-102.5 169t-167 107.5t-218.5 38 q-147 0 -269.5 -52t-211.5 -139.5t-142 -204t-66 -245.5q-10 -139 27 -254t114 -198t189.5 -128t251.5 -45q76 0 140.5 7.5t123 21.5t113.5 33.5t113 44.5l45 -178q-72 -27 -133.5 -48.5t-123 -36t-126 -21.5t-140.5 -7q-184 0 -337.5 53t-260 156.5t-162 254t-42.5 345.5z M793 567q0 -37 19 -66.5t75 -29.5q49 0 81.5 33t52 78t29 94t9.5 84q0 47 -15.5 82t-74.5 35q-51 0 -85 -34t-54.5 -81t-28.5 -101.5t-8 -93.5z" />
<glyph unicode="A" horiz-adv-x="1323" d="M-86 0l803 1425h268l256 -1425h-321l-46 305h-458l-170 -305h-332zM557 569h279l-23 179l-29 282h-6l-133 -278z" />
<glyph unicode="B" horiz-adv-x="1280" d="M51 0l277 1425h555q207 0 312 -90t105 -258q0 -45 -11 -92t-36.5 -92t-68.5 -84t-107 -66l-2 -8q80 -39 119 -119.5t39 -166.5q0 -111 -47 -195t-122 -140.5t-167 -85t-180 -28.5h-666zM422 283h268q55 0 96 16t67 44t39 61.5t13 70.5q0 49 -33.5 86t-119.5 37h-269z M535 858h225q109 0 160 52.5t51 117.5q0 49 -34 85t-118 36h-225z" />
<glyph unicode="C" horiz-adv-x="1228" d="M110 332q-8 45 -8 93q0 59 13 120l65 336q20 111 67.5 211t123 177t184.5 122t254 45q203 0 316.5 -95.5t160.5 -263.5l-291 -112q-6 31 -22.5 63.5t-43 58t-63.5 43t-86 17.5q-68 0 -116 -20.5t-80.5 -54.5t-52 -77t-27.5 -86l-76 -387q-6 -28 -6 -54q0 -18 3 -36 q7 -43 29.5 -75.5t63.5 -53t100 -20.5q96 0 162 48t99 126l292 -115q-78 -166 -227 -260t-366 -94q-139 0 -236.5 45t-155.5 121t-76 178z" />
<glyph unicode="D" horiz-adv-x="1345" d="M61 0l277 1425h557q90 0 172 -20.5t144.5 -65.5t99.5 -116.5t37 -171.5q0 -92 -16.5 -210t-41 -229.5t-54.5 -205t-54 -136.5q-49 -82 -106.5 -134t-122 -82.5t-135 -42t-144.5 -11.5h-613zM430 283h207q80 0 136 21.5t95 61.5t63.5 96t37.5 126l51 260q11 54 11 98 q-1 78 -33 128q-50 79 -199 79h-201z" />
<glyph unicode="E" horiz-adv-x="1173" d="M59 0l277 1425h962l-53 -276h-653l-60 -295h580l-53 -272h-580l-57 -299h686l-53 -283h-996z" />
<glyph unicode="F" horiz-adv-x="1136" d="M59 0l277 1425h967l-60 -272h-657l-56 -311h580l-53 -273h-580l-110 -569h-308z" />
<glyph unicode="G" horiz-adv-x="1280" d="M104 332q-8 46 -8 93q0 58 13 120l65 336q20 111 67.5 211t123 177t184 122t254.5 45q186 0 308 -95.5t169 -263.5l-291 -112q-6 31 -22.5 62.5t-43 56t-63.5 41t-86 16.5q-59 0 -106 -19.5t-82 -52.5t-57.5 -75t-30.5 -85l-76 -387q-6 -28 -6 -54q0 -19 3 -37 q7 -44 29.5 -80t63.5 -57.5t100 -21.5q53 0 101.5 20.5t86.5 55.5t62.5 79t34.5 93l2 10h-283l50 263h598l-56 -285q-25 -127 -84 -223.5t-142 -163t-188.5 -100t-222.5 -33.5q-139 0 -236 45t-154.5 121.5t-76.5 177.5z" />
<glyph unicode="H" horiz-adv-x="1353" d="M59 0l277 1425h307l-111 -571h459l111 571h305l-277 -1425h-307l115 582h-459l-112 -582h-308z" />
<glyph unicode="I" horiz-adv-x="589" d="M53 0l277 1425h309l-279 -1425h-307z" />
<glyph unicode="J" horiz-adv-x="1026" d="M-18 195l215 186q31 -45 81 -78t125 -33q94 0 137.5 50.5t63.5 154.5l184 950h308l-189 -964q-23 -111 -61.5 -200t-100 -150.5t-150.5 -94t-208 -32.5q-55 0 -113.5 15t-113 43t-101.5 66.5t-77 86.5z" />
<glyph unicode="K" horiz-adv-x="1318" d="M59 0l277 1425h307l-113 -591l5 -5l268 275l348 321h375l-602 -577l354 -848h-346l-254 616l-234 -219l-77 -397h-308z" />
<glyph unicode="L" horiz-adv-x="1173" d="M59 0l277 1425h307l-221 -1142h678l-53 -283h-988z" />
<glyph unicode="M" horiz-adv-x="1570" d="M59 0l277 1425h278l109 -413l96 -428h8l258 428l267 413h290l-276 -1425h-307l131 678l-6 2l-183 -289l-133 -201h-237l-58 211l-67 279l-8 -6l-131 -674h-308z" />
<glyph unicode="N" horiz-adv-x="1425" d="M59 0l277 1425h274l207 -462l187 -426h4l170 888h307l-277 -1425h-274l-256 555l-139 326l-4 -2l-168 -879h-308z" />
<glyph unicode="O" horiz-adv-x="1277" d="M104 332q-9 48 -10 98q0 56 12 115l66 336q20 111 62 211t113 177t176 122t255 45q135 0 239.5 -42t171 -116t91.5 -176q13 -53 13 -111q0 -53 -11 -110l-65 -336q-25 -127 -70 -230.5t-118 -176t-175 -111.5t-240 -39q-154 0 -260 45t-168 121t-82 178zM413 427 q3 -42 25.5 -77t67.5 -57.5t123 -22.5q61 0 106 18.5t76 51.5t49.5 77t28.5 93l82 414q3 20 3 40q0 26 -6 50q-10 43 -37.5 74.5t-71.5 51t-101 19.5q-66 0 -111 -21.5t-74.5 -56t-47 -79t-25.5 -87.5l-82 -405q-6 -30 -6 -60q0 -12 1 -23z" />
<glyph unicode="P" horiz-adv-x="1222" d="M59 0l277 1425h549q201 0 316.5 -99t115.5 -275q0 -127 -43 -225.5t-118 -166t-176 -103.5t-218 -36h-293l-102 -520h-308zM522 803h275q43 0 80.5 13t67.5 39t47.5 63.5t17.5 85.5q0 145 -174 145h-242z" />
<glyph unicode="Q" horiz-adv-x="1280" d="M104 332q-9 49 -9 101q0 55 11 112l66 336q20 111 61 211t111 177t173 122t253 45q135 0 241.5 -42t174 -116t93.5 -176q14 -55 14 -114q0 -52 -11 -107l-65 -336q-16 -80 -41 -158t-60 -135l129 -121l-192 -194l-127 126q-59 -35 -135 -55t-168 -20q-154 0 -261.5 45 t-172 121.5t-85.5 177.5zM415 439q3 -42 25.5 -76.5t67.5 -57t123 -22.5q12 0 23.5 1t21.5 3l-115 121l195 190l121 -117q4 8 8 20.5t6 20.5l74 383q3 20 3 40q0 26 -6 50q-10 43 -37.5 75t-71.5 51.5t-101 19.5q-66 0 -111 -21.5t-74.5 -56.5t-47 -79t-25.5 -87l-74 -375 q-6 -30 -6 -60q0 -12 1 -23z" />
<glyph unicode="R" horiz-adv-x="1308" d="M59 0l277 1425h571q207 1 315 -107q98 -97 98 -272q0 -19 -1 -40q-8 -145 -98.5 -248t-231.5 -144l197 -614h-338l-166 569h-205l-110 -569h-308zM530 842h244q98 0 157.5 42t63.5 122v13q0 73 -41 103q-45 32 -123 31h-239z" />
<glyph unicode="S" horiz-adv-x="1228" d="M35 207l196 225q169 -149 362 -149h3q129 0 187.5 45t58.5 108q0 66 -76 105t-193 67q-68 16 -132 44t-114.5 70t-81 102.5t-30.5 142.5q0 111 41 197.5t112.5 147t169 92.5t212.5 32q135 0 257.5 -31t235.5 -115l-164 -254q-72 51 -160 83t-171 32q-33 0 -70 -5 t-67.5 -20.5t-50 -42t-19.5 -67.5q0 -37 25.5 -62.5t67.5 -45t97 -35t117 -29.5q98 -25 162.5 -66t102.5 -93t53.5 -111.5t15.5 -122.5q0 -123 -48.5 -210t-129 -142.5t-187 -82t-223.5 -26.5q-158 0 -298 47t-261 170z" />
<glyph unicode="T" horiz-adv-x="1116" d="M158 1153l53 272h1071l-53 -272h-381l-225 -1153h-306l224 1153h-383z" />
<glyph unicode="U" horiz-adv-x="1318" d="M135 516l176 909h307l-172 -893q-7 -36 -7 -67q0 -77 40 -123q56 -66 154 -66q102 0 181 59.5t101 178.5l177 911h307l-180 -927q-23 -115 -72 -208t-125 -160t-178.5 -103.5t-233.5 -36.5q-113 0 -210 38t-163.5 106.5t-96.5 165.5q-16 53 -16 114q0 49 11 102z" />
<glyph unicode="V" horiz-adv-x="1218" d="M195 1425h323l66 -577l30 -363h11l172 357l288 583h336l-770 -1425h-243z" />
<glyph unicode="W" horiz-adv-x="1714" d="M197 1425h321l19 -421l8 -406h6l184 406l203 421h225l39 -419l29 -408h8l164 406l180 421h322l-650 -1425h-247l-41 463l-23 389h-6l-176 -395l-219 -457h-250z" />
<glyph unicode="X" horiz-adv-x="1280" d="M-82 0l617 729l-314 696h359l165 -438l336 438h359l-584 -696l336 -729h-361l-186 473l-371 -473h-356z" />
<glyph unicode="Y" horiz-adv-x="1214" d="M211 1425h330l84 -307l65 -276h8l172 274l203 309h332l-614 -841l-113 -584h-297l115 584z" />
<glyph unicode="Z" horiz-adv-x="1101" d="M-25 0l52 262l786 891h-588l51 272h963l-49 -251l-787 -891h613l-55 -283h-986z" />
<glyph unicode="[" horiz-adv-x="630" d="M14 -195l318 1627h459l-43 -218h-187l-231 -1194h186l-41 -215h-461z" />
<glyph unicode="\" horiz-adv-x="753" d="M174 1485h246l213 -1571h-244z" />
<glyph unicode="]" horiz-adv-x="630" d="M-63 -195l40 215h187l231 1194h-184l41 218h459l-318 -1627h-456z" />
<glyph unicode="^" horiz-adv-x="1126" d="M59 481l582 942h229l209 -938h-256l-123 615l-364 -619h-277z" />
<glyph unicode="_" horiz-adv-x="1024" d="M-145 -328l36 187h1022l-36 -187h-1022z" />
<glyph unicode="`" horiz-adv-x="1056" d="M498 1485l254 92l247 -389l-143 -88z" />
<glyph unicode="a" horiz-adv-x="1071" d="M82 313q0 117 23.5 242t80 229.5t148.5 172t227 67.5q47 0 104.5 -18.5t98.5 -65.5l4 2l14 72h287l-197 -1014h-286l16 80l-6 2q-18 -18 -45 -35.5t-57.5 -30t-61.5 -20.5t-55 -8q-92 0 -150.5 27.5t-90.5 73.5t-43 104.5t-11 119.5zM377 375q0 -47 24.5 -83t90.5 -36 q57 0 97 40t64.5 96.5t34.5 116.5t10 101q0 29 -4 55.5t-15 46t-32.5 31t-56.5 11.5q-61 0 -102.5 -41t-66 -100.5t-34.5 -124t-10 -113.5z" />
<glyph unicode="b" horiz-adv-x="1071" d="M33 -2l291 1491h286l-108 -557l4 -2q43 41 104.5 67.5t112.5 26.5q92 0 150.5 -27.5t93 -72.5t47 -103.5t12.5 -122.5q-2 -123 -29.5 -249.5t-88 -228t-156 -166t-232.5 -64.5q-53 0 -99 18.5t-81 65.5l-6 -4l-15 -72h-286zM406 387q0 -23 5 -45.5t17 -40.5t33.5 -29.5 t52.5 -11.5q61 0 102 39t65 95.5t34 120t10 114.5t-24.5 88t-90.5 37q-59 0 -98 -40t-62.5 -96.5t-33.5 -120t-10 -110.5z" />
<glyph unicode="c" horiz-adv-x="901" d="M57 403q0 162 48.5 280t125 193.5t175 111.5t200.5 36t191.5 -38t154.5 -109l-204 -199q-35 45 -74 64.5t-76 19.5q-47 0 -91 -19.5t-78 -60.5t-54.5 -107.5t-20.5 -158.5q0 -86 38 -124t116 -38q39 0 81 19.5t97 66.5l152 -201q-98 -76 -192.5 -112.5t-199.5 -36.5 q-78 0 -148.5 23.5t-123.5 73.5t-85 128t-32 188z" />
<glyph unicode="d" horiz-adv-x="1071" d="M98 332q0 115 23.5 237.5t79 224t144.5 166t220 64.5q51 0 106.5 -19.5t104.5 -72.5l6 2l109 555h285l-289 -1491h-287l14 72l-4 4q-53 -47 -106 -65.5t-109 -18.5q-90 0 -147.5 28.5t-90 75.5t-46 109.5t-13.5 128.5zM393 391q0 -20 5 -42.5t18.5 -42t35 -33t56.5 -13.5 q59 0 98 40t62.5 96.5t34 117.5t10.5 104q0 53 -21.5 94.5t-87.5 41.5q-59 0 -100 -38t-65.5 -93.5t-35 -119t-10.5 -112.5z" />
<glyph unicode="e" horiz-adv-x="1034" d="M74 362q0 125 28.5 245t93 213t166 149.5t248.5 56.5q109 0 182.5 -24.5t119.5 -64.5t65.5 -91t19.5 -103q0 -102 -49 -168.5t-126 -106.5t-172 -56.5t-187 -16.5h-43.5t-40.5 2q-2 -10 -2 -17v-15q0 -35 12 -57.5t32.5 -35t48.5 -17.5t60 -5q39 0 99.5 15.5t140.5 62.5 l123 -215q-68 -43 -129.5 -68t-116.5 -37t-105 -15t-98 -3q-72 0 -139 17.5t-118.5 60.5t-82 114.5t-30.5 179.5zM422 614q18 -2 34.5 -2h32.5q59 0 99.5 8.5t64 21.5t32.5 29.5t9 30.5q0 29 -21.5 45.5t-74.5 16.5q-55 0 -103.5 -41t-72.5 -109z" />
<glyph unicode="f" horiz-adv-x="653" d="M-207 -401l45 241q29 -4 46.5 -5t33.5 -1q39 0 63.5 11.5t40 27.5t21.5 36.5t10 37.5l170 839h-121l45 228h119l37 178q12 63 39 120.5t73 100.5t114.5 68.5t166.5 25.5q37 0 77 -4t83 -14l-45 -240q-33 8 -53.5 9.5t-38.5 1.5q-37 0 -61.5 -10.5t-40 -25t-23.5 -32.5 t-10 -33l-31 -145h180l-45 -228h-178l-178 -890q-12 -63 -41 -121t-77 -101t-114.5 -68.5t-152.5 -25.5q-35 0 -74 4t-80 15z" />
<glyph unicode="g" horiz-adv-x="1071" d="M4 -295l152 217q53 -41 119.5 -62.5t105.5 -21.5q84 0 134 51.5t63 122.5q2 8 4 19q2 10 3 22.5t5 28.5l-4 2q-43 -43 -110.5 -69.5t-117.5 -26.5q-94 0 -150 27.5t-86 73.5t-39 105.5t-9 124.5q0 113 25.5 238t84 227.5t151.5 170t230 67.5q53 0 107.5 -17.5t89.5 -64.5 l4 2l14 72h287q-53 -272 -87 -447.5t-53.5 -281t-28.5 -154.5t-12 -70.5t-4 -27.5t-5 -25q-83 -430 -508 -430h-27q-86 4 -173 32t-165 95zM377 385q0 -47 23.5 -87t88.5 -40q55 0 94.5 40t64 94t35.5 111.5t11 94.5q0 29 -3 56.5t-14 49t-32.5 35t-58.5 13.5 q-61 0 -101.5 -39t-65 -95.5t-33.5 -120t-9 -112.5z" />
<glyph unicode="h" horiz-adv-x="1105" d="M37 -2l295 1491h286l-110 -547l8 -2q47 35 108.5 59.5t118.5 24.5q76 0 137.5 -23.5t100.5 -69.5q39 -47 53 -115q6 -30 6 -63q0 -44 -10 -94l-125 -661h-291l117 600q5 28 5 50q0 106 -118 106q-63 0 -112 -39t-66 -117l-116 -600h-287z" />
<glyph unicode="i" horiz-adv-x="538" d="M45 0l197 1014h286l-196 -1014h-287zM272 1169l50 256h286l-49 -256h-287z" />
<glyph unicode="j" horiz-adv-x="573" d="M-180 -410l49 254h68q31 0 52 14.5t35.5 34t21.5 41t11 35.5l203 1047h287l-217 -1122q-27 -137 -126.5 -220.5t-240.5 -83.5h-143zM291 1169l49 256h287l-49 -256h-287z" />
<glyph unicode="k" horiz-adv-x="1071" d="M25 -2l290 1491h287l-160 -821l4 -2l162 159l207 189h361l-461 -416l291 -600h-328l-189 403l-120 -108l-58 -295h-286z" />
<glyph unicode="l" horiz-adv-x="573" d="M96 182q-5 27 -5 56q0 39 9 84l228 1167h286l-221 -1133q-4 -22 -4 -39q-1 -36 17 -49q26 -20 67 -20h41l-49 -248h-131q-59 0 -109.5 20.5t-83.5 61t-45 100.5z" />
<glyph unicode="m" horiz-adv-x="1703" d="M53 0l197 1014h287l-17 -82l8 -2q49 41 115 67.5t117 26.5q90 0 158.5 -37t105.5 -108q66 59 144.5 102t166.5 43q156 0 239 -92q58 -65 59 -173q0 -46 -11 -100l-127 -659h-287l117 602q6 30 6 54q1 44 -19 67q-30 35 -100 35q-66 0 -113.5 -39t-64.5 -117l-116 -602 h-289l119 602q5 26 5 48q0 108 -120 108q-63 0 -112.5 -39t-63.5 -117l-119 -602h-285z" />
<glyph unicode="n" horiz-adv-x="1105" d="M37 0l199 1016h286l-14 -76h4q47 35 110.5 60.5t120.5 25.5q76 0 137.5 -23.5t100.5 -69.5q39 -47 53 -115q6 -30 7 -62q0 -44 -11 -94l-129 -662h-287l117 600q5 25 5 46q0 45 -24 71q-34 39 -94 39q-63 0 -112 -39t-66 -117l-116 -600h-287z" />
<glyph unicode="o" horiz-adv-x="1056" d="M74 336q0 135 31.5 260t98 220t171.5 151.5t252 56.5q96 0 169.5 -29.5t125 -81t77 -121t25.5 -149.5q0 -117 -27.5 -233.5t-92 -211t-174 -152.5t-271.5 -58q-193 0 -289 97t-96 251zM369 385q0 -16 3 -38.5t16 -43t39 -35t71 -14.5q59 0 102 36t70.5 93t40 124.5 t12.5 133.5q0 59 -36 90t-89 31q-68 0 -112 -39t-70.5 -96.5t-36.5 -123t-10 -118.5z" />
<glyph unicode="p" horiz-adv-x="1071" d="M-37 -414l279 1428h284l-12 -72l4 -2q53 47 106.5 64.5t106.5 17.5q88 0 147.5 -26.5t93.5 -70.5t48 -101.5t14 -118.5q0 -125 -25.5 -252t-83 -230.5t-150.5 -169t-228 -65.5q-51 0 -108.5 20.5t-88.5 71.5l-4 -2l-96 -492h-287zM414 399q0 -25 4 -51t16 -46.5t32.5 -34 t55.5 -13.5q61 0 101.5 41t65 99.5t34.5 123t10 111.5q0 53 -23 90t-89 37q-70 0 -111 -49.5t-62.5 -112t-27.5 -120.5t-6 -75z" />
<glyph unicode="q" horiz-adv-x="1071" d="M76 311q0 115 25.5 240t84 229.5t150.5 173t227 68.5q53 0 108.5 -19.5t90.5 -66.5l6 2l14 76h287l-278 -1428h-287l96 494l-4 2q-43 -41 -104.5 -67.5t-110.5 -26.5q-92 0 -151.5 28.5t-93.5 74.5t-47 103.5t-13 116.5zM377 381q0 -51 27.5 -88t87.5 -37q70 0 109.5 47 t61 109.5t27.5 125t6 91.5q0 53 -22.5 89t-85.5 36q-72 0 -113 -46t-63.5 -108.5t-28.5 -125t-6 -93.5z" />
<glyph unicode="r" horiz-adv-x="823" d="M35 -2l198 1016h287l-22 -115l6 -2q49 55 115.5 91t134.5 36q63 0 107 -13.5t85 -49.5l-143 -261q-47 33 -92 43.5t-86 10.5q-76 0 -119 -46t-57 -114l-121 -596h-293z" />
<glyph unicode="s" horiz-adv-x="966" d="M-4 150l162 192q70 -66 139.5 -90.5t155.5 -24.5q25 0 50 5.5t46.5 15.5t36 26.5t14.5 38.5q0 25 -23.5 42.5t-89.5 29.5q-49 10 -111.5 25.5t-117.5 46t-92 82t-37 133.5q0 94 36 160.5t95 109.5t134 62.5t153 19.5q49 0 102 -5t107.5 -18.5t105.5 -38t96 -61.5 l-153 -209q-37 27 -74 44.5t-72.5 25.5t-66.5 11t-51 3q-82 0 -106.5 -22.5t-24.5 -44.5q0 -18 20.5 -32.5t50 -24t63.5 -15.5t60 -10q47 -8 99.5 -23.5t97.5 -47.5t73.5 -81t28.5 -125q0 -96 -41 -163.5t-105.5 -111.5t-144.5 -64.5t-155 -20.5q-135 0 -249 30.5 t-212 129.5z" />
<glyph unicode="t" horiz-adv-x="671" d="M102 786l45 230h109l55 278h287l-55 -278h147l-45 -230h-147l-82 -428q-5 -28 -5 -48q0 -26 9 -37q16 -19 61 -19h64l-49 -254h-156q-122 0 -188 72q-47 51 -47 130q0 32 8 70l98 514h-109z" />
<glyph unicode="u" horiz-adv-x="1105" d="M98 354l129 662h287l-117 -600q-5 -24 -5 -45q0 -45 24 -72q35 -39 94 -39q63 0 112.5 39t65.5 117l117 600h287l-197 -1016h-287l23 92h-4q-47 -45 -116 -73.5t-124 -28.5q-70 0 -130 23.5t-101 69.5q-42 45 -58 113q-8 34 -8 75q0 39 8 83z" />
<glyph unicode="v" horiz-adv-x="1019" d="M94 1014h305l37 -273q14 -100 19.5 -203.5t9.5 -193.5h8q94 158 169 319.5t149 350.5h309q-63 -154 -129 -290t-134.5 -259t-140 -237.5t-149.5 -227.5h-260z" />
<glyph unicode="w" horiz-adv-x="1509" d="M88 1014h295l20 -252q7 -96 11 -186q1 -33 2 -69q0 -62 -4 -132h8q39 68 77 146.5t72.5 162.5t66.5 168t56 162h260l29 -252q6 -47 10 -86t7 -79t4.5 -84t1.5 -101h12q66 113 131 273.5t121 328.5h315q-63 -156 -123.5 -289t-125 -255t-135.5 -237.5t-152 -232.5h-240 l-27 250q-8 68 -11 140.5t-5 164.5h-8q-66 -160 -135.5 -295t-147.5 -260h-252z" />
<glyph unicode="x" horiz-adv-x="1032" d="M-98 0l481 516l-270 498h344l112 -279l219 279h347l-465 -498l282 -516h-346l-123 291l-235 -291h-346z" />
<glyph unicode="y" horiz-adv-x="974" d="M-88 -190q150 18 234.5 82.5t140.5 175.5l-189 946h308l43 -256q4 -25 9 -73t9 -106.5t5 -120.5v-24q0 -47 -3 -88h8q72 119 138.5 294t134.5 372l307 2q-121 -285 -233.5 -534t-250.5 -468q-53 -84 -113.5 -162.5t-138 -140t-175 -97.5t-224.5 -36z" />
<glyph unicode="z" horiz-adv-x="960" d="M-25 0l48 244l559 520h-430l47 250h786l-45 -234l-557 -518h457l-52 -262h-813z" />
<glyph unicode="{" horiz-adv-x="630" d="M41 510l41 213q154 6 190 184l52 264q10 57 37.5 104.5t66.5 80.5t86 51t96 18h197l-41 -206h-82q-45 0 -70.5 -40t-31.5 -79l-47 -240q-16 -90 -71.5 -148.5t-115.5 -88.5l-2 -11q59 -29 85 -88t9 -147l-47 -242q-4 -18 -7 -39.5t1 -40t18.5 -30t45.5 -11.5h81l-40 -204 h-175q-66 0 -109.5 22.5t-69 60t-32 89t6.5 108.5l47 242q33 178 -119 178z" />
<glyph unicode="|" horiz-adv-x="530" d="M137 -467v1962h254v-1962h-254z" />
<glyph unicode="}" horiz-adv-x="630" d="M-96 -190l39 204h82q31 0 49 11.5t29.5 30t16.5 40t9 39.5l47 242q16 86 64.5 145.5t117.5 87.5l2 15q-47 31 -76.5 89t-13.5 146l45 240q4 18 5.5 39.5t-5 39t-25 29t-50.5 11.5h-64l41 206h197q117 0 164 -68.5t24 -185.5l-51 -264q-37 -178 119 -184l-43 -213 q-152 0 -189 -178l-51 -269q-12 -57 -40 -104t-66.5 -80t-86 -51t-96.5 -18h-194z" />
<glyph unicode="~" horiz-adv-x="1126" d="M72 463q80 139 167 196.5t185 57.5q47 0 90 -18.5t82 -39t74 -38t63 -17.5q41 0 91 32t104 97l133 -110q-76 -135 -159 -192.5t-169 -57.5q-49 0 -93 17.5t-85 36.5t-78 36.5t-69 17.5q-41 0 -88.5 -27.5t-112.5 -95.5z" />
<glyph unicode="&#xa1;" horiz-adv-x="602" d="M-6 -412l223 1035h252l-180 -1035h-295zM217 752l51 262h301l-51 -262h-301z" />
<glyph unicode="&#xa2;" horiz-adv-x="901" d="M57 403q0 156 45 272t118 191.5t166 114.5t192 43l55 279h106l-55 -285q78 -12 146.5 -47t121.5 -94l-204 -199q-31 47 -72 65.5t-78 18.5q-47 0 -91 -19.5t-78 -60.5t-54.5 -107.5t-20.5 -158.5q0 -86 38 -124t116 -38q39 0 87 19.5t99 66.5l152 -201 q-88 -80 -179.5 -110.5t-183.5 -36.5l-51 -268h-106l53 272q-68 8 -126 36.5t-101 78t-69 122t-26 170.5z" />
<glyph unicode="&#xa3;" horiz-adv-x="1126" d="M-10 0l41 221q78 80 126 154t76 172h-149l43 213h133q-8 66 -18.5 124t-10.5 111q0 61 24 138t81 143.5t155.5 112t245.5 45.5q178 0 300 -71t182 -202l-275 -153q-27 51 -74 95t-129 44q-84 0 -130 -40t-46 -112q0 -49 16.5 -102t18.5 -133h289l-43 -213h-287 q-23 -78 -56.5 -154t-78.5 -137h582l-50 -256h-966z" />
<glyph unicode="&#xa4;" horiz-adv-x="1138" d="M53 299l137 135q-61 111 -61 223q0 106 64 222l-140 137l150 151l139 -139q55 31 109.5 48.5t113.5 17.5q61 0 115.5 -15.5t107.5 -46.5q29 29 69 68t69 67l149 -151l-139 -137q31 -55 48 -110.5t17 -111.5q0 -61 -14 -113t-49 -110q29 -25 70 -65.5t67 -67.5l-149 -151 l-135 137q-53 -31 -109.5 -48.5t-116.5 -17.5q-59 0 -116.5 18.5t-108.5 47.5l-137 -137zM344 657q0 -45 17.5 -85t47 -69.5t69.5 -47t85 -17.5t85 17.5t71 47t48 69.5t17 85q0 47 -17 87t-48 70t-71 46.5t-85 16.5t-85 -16.5t-69.5 -46.5t-47 -70t-17.5 -87z" />
<glyph unicode="&#xa5;" horiz-adv-x="1126" d="M100 326l33 168h291l18 86h-290l30 168h201l-215 677h338l86 -338l47 -253h8l144 258l219 333h338l-484 -677h207l-31 -168h-297l-18 -86h297l-33 -168h-297l-61 -326h-301l61 326h-291z" />
<glyph unicode="&#xa6;" horiz-adv-x="530" d="M137 449h254v-916h-254v916zM137 582v913h254v-913h-254z" />
<glyph unicode="&#xa7;" horiz-adv-x="1044" d="M2 -2l178 192q51 -57 119 -90.5t133 -33.5q92 0 141.5 34.5t49.5 89.5q0 31 -37 56.5t-140 56.5q-66 18 -122 46t-98 66t-65.5 86t-23.5 109q0 41 13.5 83t38 78t59.5 62.5t78 38.5q-37 35 -59.5 88.5t-22.5 106.5q0 86 36.5 154.5t99 114.5t142.5 71t166 25 q123 0 228.5 -24t189.5 -97l-158 -199q-72 47 -141.5 63.5t-136.5 16.5q-80 0 -115 -35t-35 -72q0 -29 29 -49t68.5 -34.5t79.5 -25.5t65 -22q33 -16 76 -35.5t80.5 -52t63.5 -82t26 -122.5q0 -49 -17.5 -94.5t-44 -81t-60.5 -61.5t-65 -38q37 -29 60.5 -73t23.5 -91 q0 -109 -42 -183.5t-109.5 -122.5t-154.5 -69.5t-177 -21.5q-123 0 -235.5 45t-184.5 127zM408 664q0 -29 25.5 -47.5t65.5 -33t89 -28.5t96 -33q23 12 37 34t14 56q0 31 -37 57.5t-139 55.5q-23 6 -44 12t-40 15q-35 -12 -51 -36t-16 -52z" />
<glyph unicode="&#xa8;" horiz-adv-x="1034" d="M297 1165l51 267h297l-51 -267h-297zM735 1165l51 267h299l-51 -267h-299z" />
<glyph unicode="&#xa9;" horiz-adv-x="1679" d="M115 700q0 160 55 295t153.5 233.5t231.5 154t287 55.5t287 -54.5t231 -152.5t153.5 -233.5t55.5 -297.5q0 -160 -55.5 -294t-153.5 -232t-231 -152.5t-287 -54.5t-287 53.5t-231.5 149.5t-153.5 231.5t-55 298.5zM295 700q0 -123 42 -227t114.5 -181t173 -121t217.5 -44 t217 44t173 121t115 181.5t42 226.5q0 127 -42 233.5t-115 182.5t-173 118t-217 42t-217.5 -44t-173 -122t-114.5 -182.5t-42 -227.5zM496 578v210q0 70 21.5 133.5t64.5 112.5t108.5 78t153.5 29q129 0 216 -62.5t120 -167.5l-189 -67q-10 47 -48 78.5t-101 31.5 q-76 0 -111 -45t-35 -102v-244q0 -59 35 -105t111 -46q59 0 99 31.5t50 82.5l189 -73q-33 -109 -120 -168.5t-216 -59.5q-88 0 -153.5 27t-108.5 73t-64.5 110.5t-21.5 142.5z" />
<glyph unicode="&#xaa;" horiz-adv-x="739" d="M133 782q-2 78 14.5 161t55.5 150.5t105.5 111.5t164.5 44q29 0 61.5 -9t61.5 -32l8 35h215l-125 -672h-217l12 70q-31 -41 -67.5 -59.5t-75.5 -18.5q-59 0 -100 18.5t-65.5 49.5t-36 70.5t-11.5 80.5zM356 823q0 -27 14.5 -46t51.5 -19t60.5 24.5t38 58t20.5 71.5t6 63 q-2 31 -12.5 54.5t-49.5 23.5t-63.5 -24.5t-39.5 -60.5t-20.5 -76t-5.5 -69z" />
<glyph unicode="&#xab;" horiz-adv-x="1210" d="M100 459l365 438h287l-359 -438l207 -439h-287zM567 459l365 438h307l-377 -438l205 -439h-287z" />
<glyph unicode="&#xac;" horiz-adv-x="1126" d="M51 492l47 237h1049l-119 -618h-254l74 381h-797z" />
<glyph unicode="&#xad;" horiz-adv-x="882" d="M90 393l51 269h695l-54 -269h-692z" />
<glyph unicode="&#xae;" horiz-adv-x="1077" d="M92 991q0 94 37 176t98.5 141.5t143.5 93.5t172 34q96 0 179 -34t143.5 -93.5t95 -141.5t34.5 -176t-36.5 -175t-99 -139.5t-144.5 -92t-172 -33.5q-96 0 -178 33.5t-142.5 92t-95.5 139.5t-35 175zM205 991q0 -72 25.5 -133t71.5 -107t107.5 -73t133.5 -27t133 27 t106 73t71 107.5t26 132.5q0 72 -26 134.5t-71 108.5t-106 71.5t-133 25.5t-133.5 -25.5t-107.5 -71.5t-71.5 -108.5t-25.5 -134.5zM373 745v500h198q66 0 113 -40t47 -111q0 -41 -19.5 -77t-62.5 -63l96 -209h-120l-86 191h-60v-191h-106zM479 1036h88q29 0 45.5 15.5 t16.5 42.5q0 49 -58 49h-92v-107z" />
<glyph unicode="&#xaf;" horiz-adv-x="1056" d="M336 1184l47 241h682l-47 -241h-682z" />
<glyph unicode="&#xb0;" horiz-adv-x="886" d="M109 1122q0 63 26.5 120.5t71.5 100.5t105.5 68t129.5 25q70 0 131.5 -25t106.5 -68t71.5 -100.5t26.5 -120.5q0 -66 -26.5 -123t-71.5 -100t-106.5 -67.5t-131.5 -24.5t-130 24.5t-105 67.5t-71.5 100.5t-26.5 122.5zM309 1122q0 -53 40 -90t93 -37q55 0 94 37t39 90 t-38.5 89t-94.5 36q-53 0 -93 -35.5t-40 -89.5z" />
<glyph unicode="&#xb1;" horiz-adv-x="1126" d="M-53 0l43 231h1069l-43 -231h-1069zM82 655l45 238h399l74 373h254l-74 -373h400l-45 -238h-400l-69 -354h-254l69 354h-399z" />
<glyph unicode="&#xb2;" horiz-adv-x="702" d="M109 756l30 170l434 381q18 16 24.5 32.5t4.5 34.5q0 20 -14.5 33.5t-42.5 13.5q-29 0 -59.5 -20.5t-49.5 -79.5l-213 43q18 59 53 106.5t80 79t97.5 49t105.5 17.5q55 0 104.5 -12.5t87 -37t60.5 -62.5t23 -91q0 -31 -8.5 -62.5t-24 -61t-34.5 -55.5t-40 -44 q-39 -37 -72.5 -66.5t-65.5 -57.5t-64.5 -55.5t-69.5 -60.5h290l-38 -194h-598z" />
<glyph unicode="&#xb3;" horiz-adv-x="708" d="M121 1004l211 28q2 -53 24.5 -70.5t55.5 -17.5q47 0 77.5 28.5t28.5 71.5q0 29 -18.5 50.5t-50.5 21.5h-119l28 162h107q43 0 76.5 26.5t31.5 65.5q0 23 -18 37t-47 14q-25 0 -57.5 -17.5t-44.5 -66.5l-216 35q41 127 133.5 185.5t208.5 58.5q63 0 114.5 -18.5t86.5 -49 t54.5 -71.5t19.5 -86q2 -61 -32 -113.5t-93 -85.5q41 -25 55.5 -63.5t14.5 -77.5q2 -68 -26 -123.5t-76 -95t-110.5 -61t-131.5 -21.5q-49 0 -100.5 14t-92.5 45t-66.5 79t-27.5 116z" />
<glyph unicode="&#xb4;" horiz-adv-x="1056" d="M518 1161l254 416l256 -88l-352 -389z" />
<glyph unicode="&#xb6;" horiz-adv-x="1153" d="M76 932q0 82 31.5 172t92 164.5t147.5 124t200 49.5h161.5t156.5 1t159 1h168l-35 -176h-88l-278 -1430h-203l278 1430h-145l-279 -1430h-209l156 799h-49q-68 0 -117 23.5t-81.5 63.5t-49 93t-16.5 115z" />
<glyph unicode="&#xb7;" horiz-adv-x="608" d="M143 410l66 338h338l-66 -338h-338z" />
<glyph unicode="&#xb8;" horiz-adv-x="948" d="M162 -391l76 127q47 -25 78.5 -31t66.5 -6t64.5 15.5t29.5 54.5q0 23 -15.5 32t-33.5 9q-20 0 -41 -9l-72 41l131 260h148l-90 -176q94 -10 128 -56t34 -103q0 -43 -19.5 -82t-55.5 -70t-87 -48.5t-115 -17.5q-66 0 -126 15.5t-101 44.5z" />
<glyph unicode="&#xb9;" horiz-adv-x="530" d="M199 1282l45 225l182 103h192l-167 -854h-222l121 612z" />
<glyph unicode="&#xba;" horiz-adv-x="729" d="M133 799q0 88 21.5 170t67.5 144.5t121 99t179 36.5q137 0 207 -73.5t72 -182.5q2 -78 -15.5 -154.5t-61.5 -138t-120 -99.5t-188 -38q-139 0 -211 65.5t-72 170.5zM360 829q0 -8 3.5 -20t11.5 -23.5t22.5 -19.5t38.5 -8q37 0 62.5 22.5t42 56t23.5 74.5t7 80 q0 33 -20 50.5t-51 17.5q-41 0 -69 -23.5t-43 -58.5t-21.5 -75t-6.5 -73z" />
<glyph unicode="&#xbb;" horiz-adv-x="1210" d="M14 20l377 439l-205 438h287l213 -438l-364 -439h-308zM481 20l379 439l-207 438h287l213 -438l-365 -439h-307z" />
<glyph unicode="&#xbc;" horiz-adv-x="1894" d="M262 -35l1157 1495h242l-1159 -1495h-240zM326 1098l45 225l182 102h192l-167 -854h-222l121 613zM938 115l29 157l426 582h249l-409 -549h106l31 131h223l-30 -131h71l-35 -190h-73l-21 -115h-223l25 115h-369z" />
<glyph unicode="&#xbd;" horiz-adv-x="1894" d="M229 -35l1157 1495h242l-1159 -1495h-240zM279 1098l45 225l182 102h192l-168 -854h-221l121 613zM1055 0l30 170l435 381q18 16 24 32.5t4 34.5q0 20 -14 34t-43 14t-59.5 -20.5t-49.5 -80.5l-213 43q18 59 53 106.5t80.5 79t97.5 49t105 17.5q55 0 104.5 -12t87.5 -37 t60.5 -62.5t22.5 -91.5q0 -31 -8.5 -62.5t-23.5 -61t-34.5 -55t-40.5 -44.5q-39 -37 -72.5 -66.5t-65.5 -57t-64.5 -55.5t-69.5 -60h291l-39 -195h-598z" />
<glyph unicode="&#xbe;" horiz-adv-x="1894" d="M209 819l211 29q2 -53 24.5 -70.5t55.5 -17.5q47 0 77.5 28.5t28.5 71.5q0 29 -18.5 50.5t-50.5 21.5h-119l28 162h107q43 0 77 26.5t32 65.5q0 23 -18.5 37t-47.5 14q-25 0 -57.5 -17.5t-44.5 -66.5l-215 35q41 127 133 185.5t209 58.5q63 0 114 -18.5t86 -49.5 t54.5 -72t19.5 -86q2 -61 -32 -113.5t-93 -84.5q41 -25 55.5 -64t14.5 -78q2 -68 -26 -123t-76 -95t-110.5 -61.5t-131.5 -21.5q-49 0 -100.5 14.5t-92.5 45t-66.5 79t-27.5 115.5zM358 -35l1158 1495h241l-1159 -1495h-240zM1022 115l29 157l426 582h249l-409 -549h106 l31 131h223l-30 -131h71l-35 -190h-73l-21 -115h-223l25 115h-369z" />
<glyph unicode="&#xbf;" horiz-adv-x="1013" d="M35 -94q0 78 26.5 139t67.5 113.5t92 98.5t98.5 94t87 100.5t58.5 117.5l10 45h295l-10 -55q-10 -59 -29.5 -107.5t-51.5 -95.5t-78 -98t-107 -117q-18 -20 -42 -41.5t-43.5 -45t-33 -48t-13.5 -51.5q0 -45 37 -70.5t84 -25.5q29 0 57.5 7t55.5 27.5t47.5 56.5t32.5 91 l291 -37q-41 -211 -184.5 -319.5t-354.5 -108.5q-84 0 -156.5 24.5t-125 68.5t-82 104.5t-29.5 132.5zM502 750l49 262h297l-51 -262h-295z" />
<glyph unicode="&#xc0;" horiz-adv-x="1351" d="M-86 0l803 1425h268l256 -1425h-321l-46 305h-458l-170 -305h-332zM446 1706l201 182l348 -284l-121 -117zM557 569h279l-23 179l-29 282h-6l-133 -278z" />
<glyph unicode="&#xc1;" horiz-adv-x="1323" d="M-86 0l803 1425h268l256 -1425h-321l-46 305h-458l-170 -305h-332zM557 569h279l-23 179l-29 282h-6l-133 -278zM733 1604l397 284l201 -182l-477 -219z" />
<glyph unicode="&#xc2;" horiz-adv-x="1323" d="M-86 0l803 1425h268l256 -1425h-321l-46 305h-458l-170 -305h-332zM467 1608l352 245h201l262 -245l-127 -121l-274 162l-338 -160zM557 569h279l-23 179l-29 282h-6l-133 -278z" />
<glyph unicode="&#xc3;" horiz-adv-x="1323" d="M-86 0l803 1425h268l256 -1425h-321l-46 305h-458l-170 -305h-332zM467 1573q70 131 141.5 182t151.5 51q39 0 79 -16t75.5 -34.5t67.5 -34t56 -15.5q35 0 70 22.5t86 75.5l127 -78q-66 -127 -132.5 -177t-150.5 -50q-41 0 -79.5 15.5t-73.5 33t-67 32.5t-60 15 q-35 0 -75 -21.5t-95 -80.5zM557 569h279l-23 179l-29 282h-6l-133 -278z" />
<glyph unicode="&#xc4;" horiz-adv-x="1323" d="M-86 0l803 1425h268l256 -1425h-321l-46 305h-458l-170 -305h-332zM510 1524l53 272h314l-54 -272h-313zM557 569h279l-23 179l-29 282h-6l-133 -278zM950 1524l54 272h311l-53 -272h-312z" />
<glyph unicode="&#xc5;" horiz-adv-x="1323" d="M-86 0l803 1425h268l256 -1425h-321l-46 305h-458l-170 -305h-332zM557 569h279l-23 179l-29 282h-6l-133 -278zM649 1638q0 55 20.5 106.5t58.5 90.5t91 61.5t119 22.5q47 0 89 -15.5t72.5 -41t49 -61.5t18.5 -79q0 -55 -20.5 -106t-58 -89t-92 -60.5t-124.5 -22.5 q-47 0 -87 14.5t-70.5 41t-48 62t-17.5 76.5zM823 1665q0 -27 19.5 -44t50.5 -17q35 0 67.5 25.5t32.5 66.5q0 27 -19.5 44t-49.5 17q-43 0 -72 -26.5t-29 -65.5z" />
<glyph unicode="&#xc6;" horiz-adv-x="2189" d="M-76 0l1067 1425h1178l-39 -282h-692l-41 -289h590l-39 -272h-590l-41 -299h692l-39 -283h-1007l41 305h-506l-240 -305h-334zM700 569h342l78 564l-10 2z" />
<glyph unicode="&#xc7;" horiz-adv-x="1228" d="M108.5 346q-14.5 94 6.5 199l65 336q20 111 67.5 211t123 177t184.5 122t254 45q203 0 316.5 -95.5t160.5 -263.5l-291 -112q-6 31 -22.5 63.5t-43 58t-63.5 43t-86 17.5q-68 0 -116 -20.5t-80.5 -54.5t-52 -77t-27.5 -86l-76 -387q-10 -47 -3 -90t29.5 -75.5t63.5 -53 t100 -20.5q96 0 162 48t99 126l292 -115q-72 -154 -203.5 -246t-322.5 -106l-33 -64q94 -10 128 -56t34 -103q0 -43 -19.5 -82t-55 -70t-87 -48.5t-114.5 -17.5q-66 0 -126.5 15.5t-101.5 44.5l76 127q47 -25 79 -31t67 -6t64.5 15.5t29.5 54.5q0 23 -15.5 32t-33.5 9 q-20 0 -41 -9l-72 41l76 150q-117 12 -200 61t-130 124t-61.5 169z" />
<glyph unicode="&#xc8;" horiz-adv-x="1173" d="M59 0l277 1425h962l-53 -276h-653l-60 -295h580l-53 -272h-580l-57 -299h686l-53 -283h-996zM451 1706l200 182l348 -284l-120 -117z" />
<glyph unicode="&#xc9;" horiz-adv-x="1173" d="M59 0l277 1425h962l-53 -276h-653l-60 -295h580l-53 -272h-580l-57 -299h686l-53 -283h-996zM662 1604l397 284l201 -182l-478 -219z" />
<glyph unicode="&#xca;" horiz-adv-x="1173" d="M59 0l277 1425h962l-53 -276h-653l-60 -295h580l-53 -272h-580l-57 -299h686l-53 -283h-996zM440 1608l353 245h200l262 -245l-127 -121l-274 162l-338 -160z" />
<glyph unicode="&#xcb;" horiz-adv-x="1173" d="M59 0l277 1425h962l-53 -276h-653l-60 -295h580l-53 -272h-580l-57 -299h686l-53 -283h-996zM469 1524l53 272h314l-54 -272h-313zM909 1524l54 272h311l-53 -272h-312z" />
<glyph unicode="&#xcc;" horiz-adv-x="589" d="M53 0l277 1425h309l-279 -1425h-307zM100 1706l201 182l348 -284l-121 -117z" />
<glyph unicode="&#xcd;" horiz-adv-x="589" d="M53 0l277 1425h309l-279 -1425h-307zM330 1604l397 284l201 -182l-477 -219z" />
<glyph unicode="&#xce;" horiz-adv-x="589" d="M53 0l277 1425h309l-279 -1425h-307zM133 1608l352 245h201l262 -245l-127 -121l-274 162l-338 -160z" />
<glyph unicode="&#xcf;" horiz-adv-x="589" d="M53 0l277 1425h309l-279 -1425h-307zM139 1524l54 272h313l-53 -272h-314zM580 1524l53 272h311l-53 -272h-311z" />
<glyph unicode="&#xd0;" horiz-adv-x="1345" d="M49 612l41 219h133l115 594h557q90 0 172 -20.5t144.5 -65.5t99.5 -116.5t37 -171.5q0 -92 -16.5 -210t-41 -229.5t-54.5 -205t-54 -136.5q-49 -82 -106.5 -134t-122 -82.5t-135 -42t-144.5 -11.5h-613l119 612h-131zM430 283h207q80 0 136 21.5t95 61.5t63.5 96 t37.5 126l51 260q29 147 -21.5 226t-199.5 79h-201l-63 -322h210l-43 -219h-208z" />
<glyph unicode="&#xd1;" horiz-adv-x="1425" d="M59 0l277 1425h274l207 -462l187 -426h4l170 888h307l-277 -1425h-274l-256 555l-139 326l-4 -2l-168 -879h-308zM522 1575q70 131 141.5 182t151.5 51q39 0 79 -16t76 -34.5t67.5 -34t56.5 -15.5q35 0 69.5 22.5t85.5 75.5l127 -77q-66 -127 -132 -177.5t-150 -50.5 q-41 0 -80 15.5t-74 33t-66.5 32.5t-60.5 15q-35 0 -75 -21.5t-95 -80.5z" />
<glyph unicode="&#xd2;" horiz-adv-x="1277" d="M103.5 332.5q-19.5 101.5 2.5 212.5l66 336q20 111 62 211t113 177t176 122t255 45q135 0 239.5 -42t171 -116t91.5 -176.5t2 -220.5l-65 -336q-25 -127 -70 -230.5t-118 -176t-175 -111.5t-240 -39q-154 0 -260 45t-168.5 121.5t-82 178zM413 427q3 -42 25.5 -77 t67.5 -57.5t123 -22.5q61 0 106 18.5t76 51.5t49.5 77t28.5 93l82 414q8 47 -2.5 90t-38 74.5t-71.5 51t-101 19.5q-66 0 -111 -21.5t-74.5 -56t-47 -79t-25.5 -87.5l-82 -405q-8 -41 -5 -83zM496 1706l200 182l348 -284l-120 -117z" />
<glyph unicode="&#xd3;" horiz-adv-x="1277" d="M103.5 332.5q-19.5 101.5 2.5 212.5l66 336q20 111 62 211t113 177t176 122t255 45q135 0 239.5 -42t171 -116t91.5 -176.5t2 -220.5l-65 -336q-25 -127 -70 -230.5t-118 -176t-175 -111.5t-240 -39q-154 0 -260 45t-168.5 121.5t-82 178zM413 427q3 -42 25.5 -77 t67.5 -57.5t123 -22.5q61 0 106 18.5t76 51.5t49.5 77t28.5 93l82 414q8 47 -2.5 90t-38 74.5t-71.5 51t-101 19.5q-66 0 -111 -21.5t-74.5 -56t-47 -79t-25.5 -87.5l-82 -405q-8 -41 -5 -83zM692 1604l398 284l200 -182l-477 -219z" />
<glyph unicode="&#xd4;" horiz-adv-x="1277" d="M103.5 332.5q-19.5 101.5 2.5 212.5l66 336q20 111 62 211t113 177t176 122t255 45q135 0 239.5 -42t171 -116t91.5 -176.5t2 -220.5l-65 -336q-25 -127 -70 -230.5t-118 -176t-175 -111.5t-240 -39q-154 0 -260 45t-168.5 121.5t-82 178zM413 427q3 -42 25.5 -77 t67.5 -57.5t123 -22.5q61 0 106 18.5t76 51.5t49.5 77t28.5 93l82 414q8 47 -2.5 90t-38 74.5t-71.5 51t-101 19.5q-66 0 -111 -21.5t-74.5 -56t-47 -79t-25.5 -87.5l-82 -405q-8 -41 -5 -83zM475 1608l352 245h201l262 -245l-127 -121l-274 162l-338 -160z" />
<glyph unicode="&#xd5;" horiz-adv-x="1277" d="M103.5 332.5q-19.5 101.5 2.5 212.5l66 336q20 111 62 211t113 177t176 122t255 45q135 0 239.5 -42t171 -116t91.5 -176.5t2 -220.5l-65 -336q-25 -127 -70 -230.5t-118 -176t-175 -111.5t-240 -39q-154 0 -260 45t-168.5 121.5t-82 178zM413 427q3 -42 25.5 -77 t67.5 -57.5t123 -22.5q61 0 106 18.5t76 51.5t49.5 77t28.5 93l82 414q8 47 -2.5 90t-38 74.5t-71.5 51t-101 19.5q-66 0 -111 -21.5t-74.5 -56t-47 -79t-25.5 -87.5l-82 -405q-8 -41 -5 -83zM455 1573q70 131 141.5 182t151.5 51q39 0 78.5 -16t75.5 -34.5t67.5 -34 t56.5 -15.5q35 0 69.5 22.5t86.5 75.5l127 -78q-66 -127 -132.5 -177t-150.5 -50q-41 0 -80 15.5t-73.5 33t-66.5 32.5t-61 15q-35 0 -74.5 -21.5t-95.5 -80.5z" />
<glyph unicode="&#xd6;" horiz-adv-x="1277" d="M103.5 332.5q-19.5 101.5 2.5 212.5l66 336q20 111 62 211t113 177t176 122t255 45q135 0 239.5 -42t171 -116t91.5 -176.5t2 -220.5l-65 -336q-25 -127 -70 -230.5t-118 -176t-175 -111.5t-240 -39q-154 0 -260 45t-168.5 121.5t-82 178zM413 427q3 -42 25.5 -77 t67.5 -57.5t123 -22.5q61 0 106 18.5t76 51.5t49.5 77t28.5 93l82 414q8 47 -2.5 90t-38 74.5t-71.5 51t-101 19.5q-66 0 -111 -21.5t-74.5 -56t-47 -79t-25.5 -87.5l-82 -405q-8 -41 -5 -83zM481 1524l54 272h313l-53 -272h-314zM922 1524l53 272h311l-53 -272h-311z" />
<glyph unicode="&#xd7;" horiz-adv-x="1126" d="M53 287l391 327l-274 340l201 168l274 -340l383 324l146 -180l-386 -322l275 -340l-201 -168l-274 340l-391 -327z" />
<glyph unicode="&#xd8;" horiz-adv-x="1277" d="M84 66l88 106q-55 76 -70.5 171t4.5 202l66 336q20 111 62 211t113 177t176 122t255 45q109 0 196 -28t152 -75l91 109l79 -76l-90 -109q57 -74 78 -169t-2 -207l-65 -336q-25 -127 -70 -230.5t-118 -176t-175 -111.5t-240 -39q-123 0 -215 28.5t-155 79.5l-86 -102z M412 463l516 629q-29 31 -72 49t-98 18q-66 0 -111 -21.5t-74.5 -56t-47 -79t-25.5 -87.5l-82 -405q-4 -12 -4 -23.5t-2 -23.5zM444 340q25 -31 69 -50.5t116 -19.5q61 0 106 18.5t76 51.5t49.5 77t28.5 93l82 414q4 14 4 27.5v25.5z" />
<glyph unicode="&#xd9;" horiz-adv-x="1318" d="M135 516l176 909h307l-172 -893q-23 -123 33 -189.5t154 -66.5q102 0 181 59.5t101 178.5l177 911h307l-180 -927q-23 -115 -72 -208t-125 -160t-178.5 -103.5t-233.5 -36.5q-113 0 -210 38t-163.5 106.5t-96 165.5t-5.5 216zM492 1706l200 182l348 -284l-120 -117z" />
<glyph unicode="&#xda;" horiz-adv-x="1318" d="M135 516l176 909h307l-172 -893q-23 -123 33 -189.5t154 -66.5q102 0 181 59.5t101 178.5l177 911h307l-180 -927q-23 -115 -72 -208t-125 -160t-178.5 -103.5t-233.5 -36.5q-113 0 -210 38t-163.5 106.5t-96 165.5t-5.5 216zM733 1604l397 284l201 -182l-477 -219z" />
<glyph unicode="&#xdb;" horiz-adv-x="1318" d="M135 516l176 909h307l-172 -893q-23 -123 33 -189.5t154 -66.5q102 0 181 59.5t101 178.5l177 911h307l-180 -927q-23 -115 -72 -208t-125 -160t-178.5 -103.5t-233.5 -36.5q-113 0 -210 38t-163.5 106.5t-96 165.5t-5.5 216zM510 1608l352 245h201l262 -245l-127 -121 l-274 162l-338 -160z" />
<glyph unicode="&#xdc;" horiz-adv-x="1318" d="M135 516l176 909h307l-172 -893q-23 -123 33 -189.5t154 -66.5q102 0 181 59.5t101 178.5l177 911h307l-180 -927q-23 -115 -72 -208t-125 -160t-178.5 -103.5t-233.5 -36.5q-113 0 -210 38t-163.5 106.5t-96 165.5t-5.5 216zM510 1524l53 272h314l-54 -272h-313z M950 1524l54 272h311l-53 -272h-312z" />
<glyph unicode="&#xdd;" horiz-adv-x="1214" d="M211 1425h330l84 -307l65 -276h8l172 274l203 309h332l-614 -841l-113 -584h-297l115 584zM674 1604l397 284l201 -182l-477 -219z" />
<glyph unicode="&#xde;" horiz-adv-x="1247" d="M61 0l277 1425h315l-49 -251h252q100 0 181 -25t138.5 -72t89 -114.5t31.5 -151.5q0 -115 -49 -214t-131 -172t-188.5 -115t-220.5 -42h-279l-51 -268h-316zM483 551h271q45 0 86 15.5t71.5 43t49 66.5t18.5 88q0 127 -168 127h-262z" />
<glyph unicode="&#xdf;" horiz-adv-x="1136" d="M35 0l201 1059q41 205 167.5 312.5t323.5 107.5q96 0 169 -27t122 -72t74.5 -102t25.5 -121q0 -98 -51 -182t-143 -125v-6q39 -16 68.5 -47t50 -71t29.5 -83t9 -84q0 -117 -42 -220t-114.5 -180t-173 -121t-216.5 -44h-84l47 250h37q49 0 92 24.5t73.5 67.5t49 101.5 t18.5 123.5q0 55 -23.5 101.5t-99.5 56.5l39 213q70 8 110 57t40 115q0 20 -7.5 42.5t-23 41t-41 31t-64.5 12.5q-41 0 -69.5 -13.5t-48 -34t-30.5 -47t-18 -51.5l-204 -1085h-293z" />
<glyph unicode="&#xe0;" horiz-adv-x="1071" d="M82 313q0 117 23.5 242t80 229.5t148.5 172t227 67.5q47 0 104.5 -18.5t98.5 -65.5l4 2l14 72h287l-197 -1014h-286l16 80l-6 2q-18 -18 -45 -35.5t-57.5 -30t-61.5 -20.5t-55 -8q-92 0 -150.5 27.5t-90.5 73.5t-43 104.5t-11 119.5zM326 1485l254 92l247 -389l-143 -88z M377 375q0 -47 24.5 -83t90.5 -36q57 0 97 40t64.5 96.5t34.5 116.5t10 101q0 29 -4 55.5t-15 46t-32.5 31t-56.5 11.5q-61 0 -102.5 -41t-66 -100.5t-34.5 -124t-10 -113.5z" />
<glyph unicode="&#xe1;" horiz-adv-x="1071" d="M82 313q0 117 23.5 242t80 229.5t148.5 172t227 67.5q47 0 104.5 -18.5t98.5 -65.5l4 2l14 72h287l-197 -1014h-286l16 80l-6 2q-18 -18 -45 -35.5t-57.5 -30t-61.5 -20.5t-55 -8q-92 0 -150.5 27.5t-90.5 73.5t-43 104.5t-11 119.5zM377 375q0 -47 24.5 -83t90.5 -36 q57 0 97 40t64.5 96.5t34.5 116.5t10 101q0 29 -4 55.5t-15 46t-32.5 31t-56.5 11.5q-61 0 -102.5 -41t-66 -100.5t-34.5 -124t-10 -113.5zM606 1161l254 416l256 -88l-352 -389z" />
<glyph unicode="&#xe2;" horiz-adv-x="1071" d="M82 313q0 117 23.5 242t80 229.5t148.5 172t227 67.5q47 0 104.5 -18.5t98.5 -65.5l4 2l14 72h287l-197 -1014h-286l16 80l-6 2q-18 -18 -45 -35.5t-57.5 -30t-61.5 -20.5t-55 -8q-92 0 -150.5 27.5t-90.5 73.5t-43 104.5t-11 119.5zM264 1176l363 317h211l241 -317 l-133 -101l-254 213l-338 -211zM377 375q0 -47 24.5 -83t90.5 -36q57 0 97 40t64.5 96.5t34.5 116.5t10 101q0 29 -4 55.5t-15 46t-32.5 31t-56.5 11.5q-61 0 -102.5 -41t-66 -100.5t-34.5 -124t-10 -113.5z" />
<glyph unicode="&#xe3;" horiz-adv-x="1071" d="M82 313q0 117 23.5 242t80 229.5t148.5 172t227 67.5q47 0 104.5 -18.5t98.5 -65.5l4 2l14 72h287l-197 -1014h-286l16 80l-6 2q-18 -18 -45 -35.5t-57.5 -30t-61.5 -20.5t-55 -8q-92 0 -150.5 27.5t-90.5 73.5t-43 104.5t-11 119.5zM279 1225q70 131 141 182t151 51 q39 0 79 -16.5t76 -34.5t67.5 -33.5t56.5 -15.5q35 0 69.5 22.5t86.5 75.5l127 -78q-66 -127 -132.5 -177t-150.5 -50q-41 0 -80 15.5t-73.5 33t-66.5 32.5t-61 15q-35 0 -74.5 -21.5t-95.5 -80.5zM377 375q0 -47 24.5 -83t90.5 -36q57 0 97 40t64.5 96.5t34.5 116.5t10 101 q0 29 -4 55.5t-15 46t-32.5 31t-56.5 11.5q-61 0 -102.5 -41t-66 -100.5t-34.5 -124t-10 -113.5z" />
<glyph unicode="&#xe4;" horiz-adv-x="1071" d="M82 313q0 117 23.5 242t80 229.5t148.5 172t227 67.5q47 0 104.5 -18.5t98.5 -65.5l4 2l14 72h287l-197 -1014h-286l16 80l-6 2q-18 -18 -45 -35.5t-57.5 -30t-61.5 -20.5t-55 -8q-92 0 -150.5 27.5t-90.5 73.5t-43 104.5t-11 119.5zM297 1165l51 267h297l-51 -267h-297z M377 375q0 -47 24.5 -83t90.5 -36q57 0 97 40t64.5 96.5t34.5 116.5t10 101q0 29 -4 55.5t-15 46t-32.5 31t-56.5 11.5q-61 0 -102.5 -41t-66 -100.5t-34.5 -124t-10 -113.5zM735 1165l51 267h299l-51 -267h-299z" />
<glyph unicode="&#xe5;" horiz-adv-x="1071" d="M82 313q0 117 23.5 242t80 229.5t148.5 172t227 67.5q47 0 104.5 -18.5t98.5 -65.5l4 2l14 72h287l-197 -1014h-286l16 80l-6 2q-18 -18 -45 -35.5t-57.5 -30t-61.5 -20.5t-55 -8q-92 0 -150.5 27.5t-90.5 73.5t-43 104.5t-11 119.5zM377 375q0 -47 24.5 -83t90.5 -36 q57 0 97 40t64.5 96.5t34.5 116.5t10 101q0 29 -4 55.5t-15 46t-32.5 31t-56.5 11.5q-61 0 -102.5 -41t-66 -100.5t-34.5 -124t-10 -113.5zM410 1274q0 55 20.5 106.5t58 90t91 61t118.5 22.5q47 0 89 -15t73 -40.5t49.5 -61.5t18.5 -79q0 -55 -20.5 -106.5t-58.5 -89.5 t-92 -60.5t-124 -22.5q-47 0 -87 14.5t-71 41t-48 62.5t-17 77zM584 1300q0 -27 19 -44t50 -17q35 0 68 25.5t33 66.5q0 27 -19.5 44.5t-50.5 17.5q-43 0 -71.5 -27t-28.5 -66z" />
<glyph unicode="&#xe6;" horiz-adv-x="1669" d="M45 250q0 57 17.5 124.5t71.5 124t151.5 94.5t257.5 38q37 0 76.5 -3t82.5 -7l9 26q4 16 4 29q0 33 -25.5 63.5t-109.5 30.5q-86 0 -155 -15.5t-122 -60.5l-123 178q100 90 214 121t224 31q100 0 185.5 -20.5t138.5 -67.5q59 41 134 65.5t169 24.5q109 0 182.5 -26.5 t119.5 -69.5t65.5 -97.5t19.5 -109.5q0 -98 -46 -162.5t-119.5 -101.5t-166 -51.5t-184.5 -14.5q-27 0 -52.5 1t-49.5 3q-2 -10 -2 -17v-15q0 -35 12 -57.5t32.5 -35t48.5 -17.5t60 -5q39 0 97.5 19.5t136.5 62.5l133 -219q-68 -43 -129.5 -68t-117.5 -37t-107.5 -15 t-98.5 -3q-98 0 -185 32.5t-136 120.5q-35 -27 -80 -54.5t-98.5 -49t-111.5 -35.5t-120 -14q-135 0 -219 61.5t-84 198.5zM332 326q0 -10 2 -25.5t12 -31t35 -27t72 -11.5q33 0 66.5 7.5t62 24t49 42t26.5 62.5l7 43q-41 4 -74 7t-62 3q-70 0 -107.5 -11.5t-57 -26.5 t-24.5 -30.5t-7 -25.5zM1057 614q18 -2 34.5 -2h32.5q59 0 99.5 8.5t64 21.5t32.5 29.5t9 30.5q0 29 -21.5 45.5t-74.5 16.5q-55 0 -103.5 -41t-72.5 -109z" />
<glyph unicode="&#xe7;" horiz-adv-x="901" d="M57 403q0 162 48.5 280t125 193.5t175 111.5t200.5 36t191.5 -38t154.5 -109l-204 -199q-35 45 -74 64.5t-76 19.5q-47 0 -91 -19.5t-78 -60.5t-54.5 -107.5t-20.5 -158.5q0 -86 38 -124t116 -38q39 0 81 19.5t97 66.5l152 -201q-152 -117 -297 -141l-37 -72 q94 -10 128 -56t34 -103q0 -43 -19.5 -82t-55.5 -70t-87 -48.5t-115 -17.5q-66 0 -126 15.5t-101 44.5l76 127q47 -25 78.5 -31t66.5 -6t64.5 15.5t29.5 54.5q0 23 -15.5 32t-33.5 9q-20 0 -41 -9l-72 41l76 152q-70 6 -130 33.5t-105 78t-72 124t-27 173.5z" />
<glyph unicode="&#xe8;" horiz-adv-x="1034" d="M74 362q0 125 28.5 245t93 213t166 149.5t248.5 56.5q109 0 182.5 -24.5t119.5 -64.5t65.5 -91t19.5 -103q0 -102 -49 -168.5t-126 -106.5t-172 -56.5t-187 -16.5h-43.5t-40.5 2q-2 -10 -2 -17v-15q0 -35 12 -57.5t32.5 -35t48.5 -17.5t60 -5q39 0 99.5 15.5t140.5 62.5 l123 -215q-68 -43 -129.5 -68t-116.5 -37t-105 -15t-98 -3q-72 0 -139 17.5t-118.5 60.5t-82 114.5t-30.5 179.5zM311 1485l254 92l248 -389l-143 -88zM422 614q18 -2 34.5 -2h32.5q59 0 99.5 8.5t64 21.5t32.5 29.5t9 30.5q0 29 -21.5 45.5t-74.5 16.5q-55 0 -103.5 -41 t-72.5 -109z" />
<glyph unicode="&#xe9;" horiz-adv-x="1034" d="M74 362q0 125 28.5 245t93 213t166 149.5t248.5 56.5q109 0 182.5 -24.5t119.5 -64.5t65.5 -91t19.5 -103q0 -102 -49 -168.5t-126 -106.5t-172 -56.5t-187 -16.5h-43.5t-40.5 2q-2 -10 -2 -17v-15q0 -35 12 -57.5t32.5 -35t48.5 -17.5t60 -5q39 0 99.5 15.5t140.5 62.5 l123 -215q-68 -43 -129.5 -68t-116.5 -37t-105 -15t-98 -3q-72 0 -139 17.5t-118.5 60.5t-82 114.5t-30.5 179.5zM422 614q18 -2 34.5 -2h32.5q59 0 99.5 8.5t64 21.5t32.5 29.5t9 30.5q0 29 -21.5 45.5t-74.5 16.5q-55 0 -103.5 -41t-72.5 -109zM506 1161l254 416l256 -88 l-352 -389z" />
<glyph unicode="&#xea;" horiz-adv-x="1034" d="M74 362q0 125 28.5 245t93 213t166 149.5t248.5 56.5q109 0 182.5 -24.5t119.5 -64.5t65.5 -91t19.5 -103q0 -102 -49 -168.5t-126 -106.5t-172 -56.5t-187 -16.5h-43.5t-40.5 2q-2 -10 -2 -17v-15q0 -35 12 -57.5t32.5 -35t48.5 -17.5t60 -5q39 0 99.5 15.5t140.5 62.5 l123 -215q-68 -43 -129.5 -68t-116.5 -37t-105 -15t-98 -3q-72 0 -139 17.5t-118.5 60.5t-82 114.5t-30.5 179.5zM248 1176l362 317h211l242 -317l-133 -101l-254 213l-338 -211zM422 614q18 -2 34.5 -2h32.5q59 0 99.5 8.5t64 21.5t32.5 29.5t9 30.5q0 29 -21.5 45.5 t-74.5 16.5q-55 0 -103.5 -41t-72.5 -109z" />
<glyph unicode="&#xeb;" horiz-adv-x="1034" d="M74 362q0 125 28.5 245t93 213t166 149.5t248.5 56.5q109 0 182.5 -24.5t119.5 -64.5t65.5 -91t19.5 -103q0 -102 -49 -168.5t-126 -106.5t-172 -56.5t-187 -16.5h-43.5t-40.5 2q-2 -10 -2 -17v-15q0 -35 12 -57.5t32.5 -35t48.5 -17.5t60 -5q39 0 99.5 15.5t140.5 62.5 l123 -215q-68 -43 -129.5 -68t-116.5 -37t-105 -15t-98 -3q-72 0 -139 17.5t-118.5 60.5t-82 114.5t-30.5 179.5zM297 1165l51 267h297l-51 -267h-297zM422 614q18 -2 34.5 -2h32.5q59 0 99.5 8.5t64 21.5t32.5 29.5t9 30.5q0 29 -21.5 45.5t-74.5 16.5q-55 0 -103.5 -41 t-72.5 -109zM735 1165l51 267h299l-51 -267h-299z" />
<glyph unicode="&#xec;" horiz-adv-x="589" d="M123 1485l254 92l248 -389l-144 -88zM127 0l197 1014h286l-196 -1014h-287z" />
<glyph unicode="&#xed;" horiz-adv-x="538" d="M45 0l197 1014h286l-196 -1014h-287zM281 1161l254 416l256 -88l-353 -389z" />
<glyph unicode="&#xee;" horiz-adv-x="638" d="M72 1176l362 317h211l242 -317l-133 -101l-254 213l-338 -211zM90 0l197 1014h286l-196 -1014h-287z" />
<glyph unicode="&#xef;" horiz-adv-x="643" d="M90 0l197 1014h286l-196 -1014h-287zM102 1165l52 267h297l-52 -267h-297zM541 1165l51 267h299l-51 -267h-299z" />
<glyph unicode="&#xf0;" horiz-adv-x="1005" d="M53 336q0 102 24.5 216t82 209t154 156.5t239.5 61.5q27 0 62.5 -6t72.5 -20.5t68.5 -40t52.5 -62.5l8 -2q6 31 8 58.5t2 54.5q0 88 -32 157l-138 -88l-69 115l117 74q-47 35 -112 52t-140 21l59 209q139 -8 236.5 -46t162.5 -103l168 106l70 -112l-158 -103 q35 -68 50.5 -147.5t15.5 -171.5q0 -166 -30 -333t-101.5 -301t-192.5 -218t-301 -84q-184 0 -281.5 97t-97.5 251zM348 385q0 -16 3 -38.5t16.5 -43t39 -35t70.5 -14.5q53 0 93 28.5t66 76t38 105.5t12 120q0 59 -33 97t-92 38q-61 0 -102 -32t-65.5 -81t-35 -108.5 t-10.5 -112.5z" />
<glyph unicode="&#xf1;" horiz-adv-x="1105" d="M37 0l199 1016h286l-14 -76h4q47 35 110.5 60.5t120.5 25.5q76 0 137.5 -23.5t100.5 -69.5t53.5 -114.5t-4.5 -156.5l-129 -662h-287l117 600q16 78 -18.5 117t-94.5 39q-63 0 -112 -39t-66 -117l-116 -600h-287zM219 1225q70 131 141.5 182t151.5 51q39 0 79 -16.5 t75.5 -34.5t67.5 -33.5t57 -15.5q35 0 69.5 22.5t85.5 75.5l127 -78q-66 -127 -132.5 -177t-149.5 -50q-41 0 -80 15.5t-74 33t-66.5 32.5t-60.5 15q-35 0 -75 -21.5t-95 -80.5z" />
<glyph unicode="&#xf2;" horiz-adv-x="1056" d="M74 336q0 135 31.5 260t98 220t171.5 151.5t252 56.5q96 0 169.5 -29.5t125 -81t77 -121t25.5 -149.5q0 -117 -27.5 -233.5t-92 -211t-174 -152.5t-271.5 -58q-193 0 -289 97t-96 251zM330 1485l254 92l247 -389l-143 -88zM369 385q0 -16 3 -38.5t16 -43t39 -35t71 -14.5 q59 0 102 36t70.5 93t40 124.5t12.5 133.5q0 59 -36 90t-89 31q-68 0 -112 -39t-70.5 -96.5t-36.5 -123t-10 -118.5z" />
<glyph unicode="&#xf3;" horiz-adv-x="1056" d="M74 336q0 135 31.5 260t98 220t171.5 151.5t252 56.5q96 0 169.5 -29.5t125 -81t77 -121t25.5 -149.5q0 -117 -27.5 -233.5t-92 -211t-174 -152.5t-271.5 -58q-193 0 -289 97t-96 251zM369 385q0 -16 3 -38.5t16 -43t39 -35t71 -14.5q59 0 102 36t70.5 93t40 124.5 t12.5 133.5q0 59 -36 90t-89 31q-68 0 -112 -39t-70.5 -96.5t-36.5 -123t-10 -118.5zM555 1161l254 416l256 -88l-352 -389z" />
<glyph unicode="&#xf4;" horiz-adv-x="1056" d="M74 336q0 135 31.5 260t98 220t171.5 151.5t252 56.5q96 0 169.5 -29.5t125 -81t77 -121t25.5 -149.5q0 -117 -27.5 -233.5t-92 -211t-174 -152.5t-271.5 -58q-193 0 -289 97t-96 251zM264 1176l363 317h211l241 -317l-133 -101l-254 213l-338 -211zM369 385 q0 -16 3 -38.5t16 -43t39 -35t71 -14.5q59 0 102 36t70.5 93t40 124.5t12.5 133.5q0 59 -36 90t-89 31q-68 0 -112 -39t-70.5 -96.5t-36.5 -123t-10 -118.5z" />
<glyph unicode="&#xf5;" horiz-adv-x="1056" d="M74 336q0 135 31.5 260t98 220t171.5 151.5t252 56.5q96 0 169.5 -29.5t125 -81t77 -121t25.5 -149.5q0 -117 -27.5 -233.5t-92 -211t-174 -152.5t-271.5 -58q-193 0 -289 97t-96 251zM283 1235q70 131 141 182t151 51q39 0 79 -16t76 -34.5t67.5 -34t56.5 -15.5 q35 0 69.5 22.5t86.5 75.5l127 -77q-66 -127 -132.5 -177.5t-150.5 -50.5q-41 0 -80 15.5t-73.5 33t-66.5 32.5t-61 15q-35 0 -74.5 -21.5t-95.5 -80.5zM369 385q0 -16 3 -38.5t16 -43t39 -35t71 -14.5q59 0 102 36t70.5 93t40 124.5t12.5 133.5q0 59 -36 90t-89 31 q-68 0 -112 -39t-70.5 -96.5t-36.5 -123t-10 -118.5z" />
<glyph unicode="&#xf6;" horiz-adv-x="1056" d="M74 336q0 135 31.5 260t98 220t171.5 151.5t252 56.5q96 0 169.5 -29.5t125 -81t77 -121t25.5 -149.5q0 -117 -27.5 -233.5t-92 -211t-174 -152.5t-271.5 -58q-193 0 -289 97t-96 251zM297 1171l51 267h297l-51 -267h-297zM369 385q0 -16 3 -38.5t16 -43t39 -35t71 -14.5 q59 0 102 36t70.5 93t40 124.5t12.5 133.5q0 59 -36 90t-89 31q-68 0 -112 -39t-70.5 -96.5t-36.5 -123t-10 -118.5zM735 1171l51 267h299l-51 -267h-299z" />
<glyph unicode="&#xf7;" horiz-adv-x="1126" d="M49 492l47 237h1053l-47 -237h-1053zM328 135q0 41 18.5 77t49 63.5t69.5 44t80 16.5q68 0 110.5 -40t42.5 -99q0 -41 -18 -78t-49 -64.5t-71 -44t-81 -16.5q-66 0 -108.5 40t-42.5 101zM498 1004q0 41 18.5 77.5t49 64.5t69.5 44t80 16q68 0 110.5 -40t42.5 -101 q0 -41 -18.5 -77t-49 -63.5t-70.5 -44t-81 -16.5q-66 0 -108.5 40t-42.5 100z" />
<glyph unicode="&#xf8;" horiz-adv-x="1056" d="M70 43l69 76q-66 88 -65 217q0 135 31.5 260t98 220t171.5 151.5t252 56.5q84 0 150.5 -22.5t115.5 -63.5l86 92l53 -55l-86 -92q78 -100 78 -240q0 -117 -27.5 -233.5t-92 -211t-174 -152.5t-271.5 -58q-86 0 -151.5 20.5t-112.5 54.5l-68 -73zM369 367l325 354 q-35 41 -96 41q-68 0 -112 -39t-70.5 -96.5t-36.5 -123t-10 -118.5v-18zM399 287q16 -16 39 -24.5t60 -8.5q59 0 101 36t69.5 92t41 123.5t13.5 131.5z" />
<glyph unicode="&#xf9;" horiz-adv-x="1105" d="M108.5 196.5q-16.5 67.5 0.5 157.5l129 662h286l-116 -600q-16 -78 18.5 -117t93.5 -39q63 0 112.5 39t65.5 117l117 600h287l-197 -1016h-287l23 92h-4q-47 -45 -115.5 -73.5t-124.5 -28.5q-70 0 -130 23.5t-101 69.5t-57.5 113.5zM317 1485l254 92l248 -389l-143 -88z " />
<glyph unicode="&#xfa;" horiz-adv-x="1105" d="M108.5 196.5q-16.5 67.5 0.5 157.5l129 662h286l-116 -600q-16 -78 18.5 -117t93.5 -39q63 0 112.5 39t65.5 117l117 600h287l-197 -1016h-287l23 92h-4q-47 -45 -115.5 -73.5t-124.5 -28.5q-70 0 -130 23.5t-101 69.5t-57.5 113.5zM528 1161l254 416l256 -88l-352 -389z " />
<glyph unicode="&#xfb;" horiz-adv-x="1105" d="M108.5 196.5q-16.5 67.5 0.5 157.5l129 662h286l-116 -600q-16 -78 18.5 -117t93.5 -39q63 0 112.5 39t65.5 117l117 600h287l-197 -1016h-287l23 92h-4q-47 -45 -115.5 -73.5t-124.5 -28.5q-70 0 -130 23.5t-101 69.5t-57.5 113.5zM285 1176l362 317h211l242 -317 l-133 -101l-254 213l-338 -211z" />
<glyph unicode="&#xfc;" horiz-adv-x="1105" d="M108.5 196.5q-16.5 67.5 0.5 157.5l129 662h286l-116 -600q-16 -78 18.5 -117t93.5 -39q63 0 112.5 39t65.5 117l117 600h287l-197 -1016h-287l23 92h-4q-47 -45 -115.5 -73.5t-124.5 -28.5q-70 0 -130 23.5t-101 69.5t-57.5 113.5zM309 1165l51 267h297l-51 -267h-297z M748 1165l51 267h299l-51 -267h-299z" />
<glyph unicode="&#xfd;" horiz-adv-x="974" d="M-88 -190q150 18 234.5 82.5t140.5 175.5l-189 946h308l43 -256q4 -25 9 -73t9 -106.5t5 -120t-3 -112.5h8q72 119 138.5 294t134.5 372l307 2q-121 -285 -233.5 -534t-250.5 -468q-53 -84 -113.5 -162.5t-138 -140t-175 -97.5t-224.5 -36zM467 1161l254 416l256 -88 l-352 -389z" />
<glyph unicode="&#xfe;" horiz-adv-x="1091" d="M-35 -414l371 1903h291l-107 -547l6 -2q53 47 106.5 64.5t108.5 17.5q92 0 151.5 -27.5t95.5 -72.5t49.5 -104.5t13.5 -123.5q0 -41 -6.5 -109.5t-26 -147.5t-54 -158.5t-93 -144t-142.5 -105.5t-199 -41q-51 0 -98 25.5t-74 66.5l-6 -2l-96 -492h-291zM422 393 q0 -55 22.5 -97t90.5 -42t109.5 45t64 106.5t29.5 123t7 96.5q0 53 -22 92t-92 39q-72 0 -114 -49.5t-63.5 -113t-26.5 -121.5t-5 -79z" />
<glyph unicode="&#xff;" horiz-adv-x="974" d="M-88 -190q150 18 234.5 82.5t140.5 175.5l-189 946h308l43 -256q4 -25 9 -73t9 -106.5t5 -120t-3 -112.5h8q72 119 138.5 294t134.5 372l307 2q-121 -285 -233.5 -534t-250.5 -468q-53 -84 -113.5 -162.5t-138 -140t-175 -97.5t-224.5 -36zM215 1165l51 267h297l-51 -267 h-297zM653 1165l52 267h299l-52 -267h-299z" />
<glyph unicode="&#x100;" horiz-adv-x="1323" d="M-86 0l803 1425h268l256 -1425h-321l-46 305h-458l-170 -305h-332zM555 1552l47 242h682l-47 -242h-682zM557 569h279l-23 179l-29 282h-6l-133 -278z" />
<glyph unicode="&#x101;" horiz-adv-x="1071" d="M82 313q0 117 23.5 242t80 229.5t148.5 172t227 67.5q47 0 104.5 -18.5t98.5 -65.5l4 2l14 72h287l-197 -1014h-286l16 80l-6 2q-18 -18 -45 -35.5t-57.5 -30t-61.5 -20.5t-55 -8q-92 0 -150.5 27.5t-90.5 73.5t-43 104.5t-11 119.5zM336 1184l47 241h682l-47 -241h-682z M377 375q0 -47 24.5 -83t90.5 -36q57 0 97 40t64.5 96.5t34.5 116.5t10 101q0 29 -4 55.5t-15 46t-32.5 31t-56.5 11.5q-61 0 -102.5 -41t-66 -100.5t-34.5 -124t-10 -113.5z" />
<glyph unicode="&#x102;" horiz-adv-x="1323" d="M-86 0l803 1425h268l256 -1425h-321l-46 305h-458l-170 -305h-332zM557 569h279l-23 179l-29 282h-6l-133 -278zM598 1827h205q-4 -20 -2 -44t12 -45.5t29.5 -35.5t48.5 -14t53.5 14t43 35.5t29.5 45t15 44.5h205q-14 -47 -40 -104.5t-68 -107.5t-104.5 -84t-150.5 -34 t-144 34t-87 84t-40 107.5t-5 104.5z" />
<glyph unicode="&#x103;" horiz-adv-x="1071" d="M82 313q0 117 23.5 242t80 229.5t148.5 172t227 67.5q47 0 104.5 -18.5t98.5 -65.5l4 2l14 72h287l-197 -1014h-286l16 80l-6 2q-18 -18 -45 -35.5t-57.5 -30t-61.5 -20.5t-55 -8q-92 0 -150.5 27.5t-90.5 73.5t-43 104.5t-11 119.5zM377 375q0 -47 24.5 -83t90.5 -36 q57 0 97 40t64.5 96.5t34.5 116.5t10 101q0 29 -4 55.5t-15 46t-32.5 31t-56.5 11.5q-61 0 -102.5 -41t-66 -100.5t-34.5 -124t-10 -113.5zM430 1479h205q-4 -20 -2 -44t12 -45.5t29.5 -36t48.5 -14.5t53.5 14.5t43 36t29.5 45t15 44.5h205q-10 -47 -34.5 -103.5 t-69.5 -107.5t-110 -85t-153 -34t-143 34t-85 84t-39 107.5t-5 104.5z" />
<glyph unicode="&#x104;" horiz-adv-x="1323" d="M-86 0l803 1425h268l256 -1425h-131q-59 -66 -90 -109t-37 -73q-8 -55 55 -56q18 0 51 5.5t82 27.5l35 -151q-59 -35 -120.5 -46.5t-114.5 -11.5q-98 0 -146 59.5t-32 141.5q8 45 35.5 94t91.5 119l-46 305h-458l-170 -305h-332zM557 569h279l-23 179l-29 282h-6 l-133 -278z" />
<glyph unicode="&#x105;" horiz-adv-x="1071" d="M82 313q0 117 23.5 242t80 229.5t148.5 172t227 67.5q47 0 104.5 -18.5t98.5 -65.5l4 2l14 72h287l-197 -1014h-98q-59 -66 -90 -109t-37 -73q-8 -55 55 -56q18 0 51 5.5t83 27.5l34 -151q-59 -35 -120.5 -46.5t-114.5 -11.5q-98 0 -146 59.5t-32 141.5q8 45 35.5 95 t93.5 122l16 76l-6 2q-18 -18 -45 -35.5t-57.5 -30t-61.5 -20.5t-55 -8q-92 0 -150.5 27.5t-90.5 73.5t-43 104.5t-11 119.5zM377 375q0 -47 24.5 -83t90.5 -36q57 0 97 40t64.5 96.5t34.5 116.5t10 101q0 29 -4 55.5t-15 46t-32.5 31t-56.5 11.5q-61 0 -102.5 -41 t-66 -100.5t-34.5 -124t-10 -113.5z" />
<glyph unicode="&#x106;" horiz-adv-x="1228" d="M110.5 332.5q-18.5 101.5 4.5 212.5l65 336q20 111 67.5 211t123 177t184.5 122t254 45q203 0 316.5 -95.5t160.5 -263.5l-291 -112q-6 31 -22.5 63.5t-43 58t-63.5 43t-86 17.5q-68 0 -116 -20.5t-80.5 -54.5t-52 -77t-27.5 -86l-76 -387q-10 -47 -3 -90t29.5 -75.5 t63.5 -53t100 -20.5q96 0 162 48t99 126l292 -115q-78 -166 -227 -260t-366 -94q-139 0 -236.5 45t-155 121.5t-76 178zM690 1604l397 284l201 -182l-477 -219z" />
<glyph unicode="&#x107;" horiz-adv-x="901" d="M57 403q0 162 48.5 280t125 193.5t175 111.5t200.5 36t191.5 -38t154.5 -109l-204 -199q-35 45 -74 64.5t-76 19.5q-47 0 -91 -19.5t-78 -60.5t-54.5 -107.5t-20.5 -158.5q0 -86 38 -124t116 -38q39 0 81 19.5t97 66.5l152 -201q-98 -76 -192.5 -112.5t-199.5 -36.5 q-78 0 -148.5 23.5t-123.5 73.5t-85 128t-32 188zM403 1161l254 416l256 -88l-352 -389z" />
<glyph unicode="&#x108;" horiz-adv-x="1228" d="M110.5 332.5q-18.5 101.5 4.5 212.5l65 336q20 111 67.5 211t123 177t184.5 122t254 45q203 0 316.5 -95.5t160.5 -263.5l-291 -112q-6 31 -22.5 63.5t-43 58t-63.5 43t-86 17.5q-68 0 -116 -20.5t-80.5 -54.5t-52 -77t-27.5 -86l-76 -387q-10 -47 -3 -90t29.5 -75.5 t63.5 -53t100 -20.5q96 0 162 48t99 126l292 -115q-78 -166 -227 -260t-366 -94q-139 0 -236.5 45t-155 121.5t-76 178zM471 1608l352 245h201l262 -245l-127 -121l-274 162l-338 -160z" />
<glyph unicode="&#x109;" horiz-adv-x="901" d="M57 403q0 162 48.5 280t125 193.5t175 111.5t200.5 36t191.5 -38t154.5 -109l-204 -199q-35 45 -74 64.5t-76 19.5q-47 0 -91 -19.5t-78 -60.5t-54.5 -107.5t-20.5 -158.5q0 -86 38 -124t116 -38q39 0 81 19.5t97 66.5l152 -201q-98 -76 -192.5 -112.5t-199.5 -36.5 q-78 0 -148.5 23.5t-123.5 73.5t-85 128t-32 188zM223 1176l363 317h211l241 -317l-133 -101l-254 213l-338 -211z" />
<glyph unicode="&#x10a;" horiz-adv-x="1228" d="M110.5 332.5q-18.5 101.5 4.5 212.5l65 336q20 111 67.5 211t123 177t184.5 122t254 45q203 0 316.5 -95.5t160.5 -263.5l-291 -112q-6 31 -22.5 63.5t-43 58t-63.5 43t-86 17.5q-68 0 -116 -20.5t-80.5 -54.5t-52 -77t-27.5 -86l-76 -387q-10 -47 -3 -90t29.5 -75.5 t63.5 -53t100 -20.5q96 0 162 48t99 126l292 -115q-78 -166 -227 -260t-366 -94q-139 0 -236.5 45t-155 121.5t-76 178zM676 1528l51 266h303l-51 -266h-303z" />
<glyph unicode="&#x10b;" horiz-adv-x="901" d="M57 403q0 162 48.5 280t125 193.5t175 111.5t200.5 36t191.5 -38t154.5 -109l-204 -199q-35 45 -74 64.5t-76 19.5q-47 0 -91 -19.5t-78 -60.5t-54.5 -107.5t-20.5 -158.5q0 -86 38 -124t116 -38q39 0 81 19.5t97 66.5l152 -201q-98 -76 -192.5 -112.5t-199.5 -36.5 q-78 0 -148.5 23.5t-123.5 73.5t-85 128t-32 188zM457 1159l51 266h303l-51 -266h-303z" />
<glyph unicode="&#x10c;" horiz-adv-x="1228" d="M110.5 332.5q-18.5 101.5 4.5 212.5l65 336q20 111 67.5 211t123 177t184.5 122t254 45q203 0 316.5 -95.5t160.5 -263.5l-291 -112q-6 31 -22.5 63.5t-43 58t-63.5 43t-86 17.5q-68 0 -116 -20.5t-80.5 -54.5t-52 -77t-27.5 -86l-76 -387q-10 -47 -3 -90t29.5 -75.5 t63.5 -53t100 -20.5q96 0 162 48t99 126l292 -115q-78 -166 -227 -260t-366 -94q-139 0 -236.5 45t-155 121.5t-76 178zM489 1739l121 119l277 -160l336 162l82 -121l-359 -246h-201z" />
<glyph unicode="&#x10d;" horiz-adv-x="901" d="M57 403q0 162 48.5 280t125 193.5t175 111.5t200.5 36t191.5 -38t154.5 -109l-204 -199q-35 45 -74 64.5t-76 19.5q-47 0 -91 -19.5t-78 -60.5t-54.5 -107.5t-20.5 -158.5q0 -86 38 -124t116 -38q39 0 81 19.5t97 66.5l152 -201q-98 -76 -192.5 -112.5t-199.5 -36.5 q-78 0 -148.5 23.5t-123.5 73.5t-85 128t-32 188zM262 1401l127 98q66 -51 125 -104.5t123 -106.5l344 213l96 -100l-364 -318h-211z" />
<glyph unicode="&#x10e;" horiz-adv-x="1345" d="M61 0l277 1425h557q90 0 172 -20.5t144.5 -65.5t99.5 -116.5t37 -171.5q0 -92 -16.5 -210t-41 -229.5t-54.5 -205t-54 -136.5q-49 -82 -106.5 -134t-122 -82.5t-135 -42t-144.5 -11.5h-613zM403 1739l121 119l277 -160l336 162l82 -121l-359 -246h-201zM430 283h207 q80 0 136 21.5t95 61.5t63.5 96t37.5 126l51 260q29 147 -21.5 226t-199.5 79h-201z" />
<glyph unicode="&#x10f;" horiz-adv-x="1390" d="M98 332q0 115 23.5 237.5t79 224t144.5 166t220 64.5q51 0 106.5 -19.5t104.5 -72.5l6 2l109 555h285l-289 -1491h-287l14 72l-4 4q-53 -47 -106 -65.5t-109 -18.5q-90 0 -147.5 28.5t-90 75.5t-46 109.5t-13.5 128.5zM393 391q0 -20 5 -42.5t18.5 -42t35 -33t56.5 -13.5 q59 0 98 40t62.5 96.5t34 117.5t10.5 104q0 53 -21.5 94.5t-87.5 41.5q-59 0 -100 -38t-65.5 -93.5t-35 -119t-10.5 -112.5zM1194 961l115 221h-68l59 309h316l-57 -293l-228 -237h-137z" />
<glyph unicode="&#x110;" horiz-adv-x="1345" d="M49 612l41 219h133l115 594h557q90 0 172 -20.5t144.5 -65.5t99.5 -116.5t37 -171.5q0 -92 -16.5 -210t-41 -229.5t-54.5 -205t-54 -136.5q-49 -82 -106.5 -134t-122 -82.5t-135 -42t-144.5 -11.5h-613l119 612h-131zM430 283h207q80 0 136 21.5t95 61.5t63.5 96 t37.5 126l51 260q29 147 -21.5 226t-199.5 79h-201l-63 -322h210l-43 -219h-208z" />
<glyph unicode="&#x111;" horiz-adv-x="1071" d="M98 332q0 115 23.5 237.5t79 224t144.5 166t220 64.5q51 0 106.5 -19.5t104.5 -72.5l6 2l35 180h-217l35 178h217l39 197h285l-39 -197h127l-35 -178h-127l-215 -1116h-287l14 72l-4 4q-53 -47 -106 -65.5t-109 -18.5q-90 0 -147.5 28.5t-90 75.5t-46 109.5t-13.5 128.5z M393 391q0 -20 5 -42.5t18.5 -42t35 -33t56.5 -13.5q59 0 98 40t62.5 96.5t34 117.5t10.5 104q0 53 -21.5 94.5t-87.5 41.5q-59 0 -100 -38t-65.5 -93.5t-35 -119t-10.5 -112.5z" />
<glyph unicode="&#x112;" horiz-adv-x="1173" d="M59 0l277 1425h962l-53 -276h-653l-60 -295h580l-53 -272h-580l-57 -299h686l-53 -283h-996zM500 1552l47 242h682l-47 -242h-682z" />
<glyph unicode="&#x113;" horiz-adv-x="1034" d="M74 362q0 125 28.5 245t93 213t166 149.5t248.5 56.5q109 0 182.5 -24.5t119.5 -64.5t65.5 -91t19.5 -103q0 -102 -49 -168.5t-126 -106.5t-172 -56.5t-187 -16.5h-43.5t-40.5 2q-2 -10 -2 -17v-15q0 -35 12 -57.5t32.5 -35t48.5 -17.5t60 -5q39 0 99.5 15.5t140.5 62.5 l123 -215q-68 -43 -129.5 -68t-116.5 -37t-105 -15t-98 -3q-72 0 -139 17.5t-118.5 60.5t-82 114.5t-30.5 179.5zM336 1184l47 241h682l-47 -241h-682zM422 614q18 -2 34.5 -2h32.5q59 0 99.5 8.5t64 21.5t32.5 29.5t9 30.5q0 29 -21.5 45.5t-74.5 16.5q-55 0 -103.5 -41 t-72.5 -109z" />
<glyph unicode="&#x114;" horiz-adv-x="1173" d="M59 0l277 1425h962l-53 -276h-653l-60 -295h580l-53 -272h-580l-57 -299h686l-53 -283h-996zM563 1827h205q-4 -20 -2 -44t12 -45.5t29.5 -35.5t48.5 -14t53.5 14t43 35.5t29.5 45t15 44.5h205q-14 -47 -39.5 -104.5t-67.5 -107.5t-104.5 -84t-150.5 -34t-144.5 34 t-87 84t-40 107.5t-5.5 104.5z" />
<glyph unicode="&#x115;" horiz-adv-x="1034" d="M74 362q0 125 28.5 245t93 213t166 149.5t248.5 56.5q109 0 182.5 -24.5t119.5 -64.5t65.5 -91t19.5 -103q0 -102 -49 -168.5t-126 -106.5t-172 -56.5t-187 -16.5h-43.5t-40.5 2q-2 -10 -2 -17v-15q0 -35 12 -57.5t32.5 -35t48.5 -17.5t60 -5q39 0 99.5 15.5t140.5 62.5 l123 -215q-68 -43 -129.5 -68t-116.5 -37t-105 -15t-98 -3q-72 0 -139 17.5t-118.5 60.5t-82 114.5t-30.5 179.5zM389 1479h205q-4 -20 -2 -44t12 -45.5t29.5 -36t48.5 -14.5t53.5 14.5t43 36t29.5 45t15 44.5h205q-10 -47 -34.5 -103.5t-69.5 -107.5t-109.5 -85t-152.5 -34 t-143.5 34t-85.5 84t-39 107.5t-5 104.5zM422 614q18 -2 34.5 -2h32.5q59 0 99.5 8.5t64 21.5t32.5 29.5t9 30.5q0 29 -21.5 45.5t-74.5 16.5q-55 0 -103.5 -41t-72.5 -109z" />
<glyph unicode="&#x116;" horiz-adv-x="1173" d="M59 0l277 1425h962l-53 -276h-653l-60 -295h580l-53 -272h-580l-57 -299h686l-53 -283h-996zM696 1528l52 266h303l-52 -266h-303z" />
<glyph unicode="&#x117;" horiz-adv-x="1034" d="M74 362q0 125 28.5 245t93 213t166 149.5t248.5 56.5q109 0 182.5 -24.5t119.5 -64.5t65.5 -91t19.5 -103q0 -102 -49 -168.5t-126 -106.5t-172 -56.5t-187 -16.5h-43.5t-40.5 2q-2 -10 -2 -17v-15q0 -35 12 -57.5t32.5 -35t48.5 -17.5t60 -5q39 0 99.5 15.5t140.5 62.5 l123 -215q-68 -43 -129.5 -68t-116.5 -37t-105 -15t-98 -3q-72 0 -139 17.5t-118.5 60.5t-82 114.5t-30.5 179.5zM422 614q18 -2 34.5 -2h32.5q59 0 99.5 8.5t64 21.5t32.5 29.5t9 30.5q0 29 -21.5 45.5t-74.5 16.5q-55 0 -103.5 -41t-72.5 -109zM500 1169l51 267h303 l-51 -267h-303z" />
<glyph unicode="&#x118;" horiz-adv-x="1173" d="M59 0l277 1425h962l-53 -276h-653l-60 -295h580l-53 -272h-580l-57 -299h686l-53 -283h-8q-59 -66 -90 -109t-37 -73q-8 -55 55 -56q18 0 51 5.5t82 27.5l35 -151q-59 -35 -120.5 -46.5t-115.5 -11.5q-98 0 -146 59.5t-32 141.5q8 43 36 92t89 121h-795z" />
<glyph unicode="&#x119;" horiz-adv-x="1034" d="M74 362q0 125 28.5 245t93 213t166 149.5t248.5 56.5q109 0 182.5 -24.5t119.5 -64.5t65.5 -91t19.5 -103q0 -102 -49 -168.5t-126 -106.5t-172 -56.5t-187 -16.5h-43.5t-40.5 2q-2 -10 -2 -17v-15q0 -35 12 -57.5t32.5 -35t48.5 -17.5t60 -5q39 0 99.5 15.5t140.5 62.5 l123 -215q-10 -8 -21.5 -14.5t-21.5 -12.5q-113 -123 -125 -180q-8 -55 55 -56q18 0 51 5.5t82 27.5l35 -151q-59 -35 -120.5 -46.5t-114.5 -11.5q-98 0 -146 59.5t-32 141.5q10 55 53 123q-39 -4 -74 -6t-70 -2q-72 0 -139 17.5t-118.5 60.5t-82 114.5t-30.5 179.5z M422 614q18 -2 34.5 -2h32.5q59 0 99.5 8.5t64 21.5t32.5 29.5t9 30.5q0 29 -21.5 45.5t-74.5 16.5q-55 0 -103.5 -41t-72.5 -109z" />
<glyph unicode="&#x11a;" horiz-adv-x="1173" d="M59 0l277 1425h962l-53 -276h-653l-60 -295h580l-53 -272h-580l-57 -299h686l-53 -283h-996zM453 1739l120 119l277 -160l336 162l82 -121l-359 -246h-200z" />
<glyph unicode="&#x11b;" horiz-adv-x="1034" d="M74 362q0 125 28.5 245t93 213t166 149.5t248.5 56.5q109 0 182.5 -24.5t119.5 -64.5t65.5 -91t19.5 -103q0 -102 -49 -168.5t-126 -106.5t-172 -56.5t-187 -16.5h-43.5t-40.5 2q-2 -10 -2 -17v-15q0 -35 12 -57.5t32.5 -35t48.5 -17.5t60 -5q39 0 99.5 15.5t140.5 62.5 l123 -215q-68 -43 -129.5 -68t-116.5 -37t-105 -15t-98 -3q-72 0 -139 17.5t-118.5 60.5t-82 114.5t-30.5 179.5zM281 1401l127 98q66 -51 125 -104.5t122 -106.5l344 213l97 -100l-365 -318h-211zM422 614q18 -2 34.5 -2h32.5q59 0 99.5 8.5t64 21.5t32.5 29.5t9 30.5 q0 29 -21.5 45.5t-74.5 16.5q-55 0 -103.5 -41t-72.5 -109z" />
<glyph unicode="&#x11c;" horiz-adv-x="1280" d="M104.5 332.5q-18.5 101.5 4.5 212.5l65 336q20 111 67.5 211t123 177t184 122t254.5 45q186 0 308 -95.5t169 -263.5l-291 -112q-6 31 -22.5 62.5t-43 56t-63.5 41t-86 16.5q-59 0 -106 -19.5t-82 -52.5t-57.5 -75t-30.5 -85l-76 -387q-10 -47 -3 -91t29.5 -80 t63.5 -57.5t100 -21.5q53 0 101.5 20.5t86.5 55.5t62.5 79t34.5 93l2 10h-283l50 263h598l-56 -285q-25 -127 -84 -223.5t-142 -163t-188.5 -100t-222.5 -33.5q-139 0 -236 45t-154.5 121.5t-76 178zM444 1608l353 245h200l263 -245l-127 -121l-275 162l-338 -160z" />
<glyph unicode="&#x11d;" horiz-adv-x="1071" d="M4 -295l152 217q53 -41 119.5 -62.5t105.5 -21.5q84 0 134 51.5t63 122.5q2 8 4 19q2 10 3 22.5t5 28.5l-4 2q-43 -43 -110.5 -69.5t-117.5 -26.5q-94 0 -150 27.5t-86 73.5t-39 105.5t-9 124.5q0 113 25.5 238t84 227.5t151.5 170t230 67.5q53 0 107.5 -17.5t89.5 -64.5 l4 2l14 72h287q-53 -272 -87 -447.5t-53.5 -281t-28.5 -154.5t-12 -70.5t-4 -27.5t-5 -25q-86 -444 -535 -430q-86 4 -173 32t-165 95zM285 1176l362 317h211l242 -317l-133 -101l-254 213l-338 -211zM377 385q0 -47 23.5 -87t88.5 -40q55 0 94.5 40t64 94t35.5 111.5 t11 94.5q0 29 -3 56.5t-14 49t-32.5 35t-58.5 13.5q-61 0 -101.5 -39t-65 -95.5t-33.5 -120t-9 -112.5z" />
<glyph unicode="&#x11e;" horiz-adv-x="1280" d="M104.5 332.5q-18.5 101.5 4.5 212.5l65 336q20 111 67.5 211t123 177t184 122t254.5 45q186 0 308 -95.5t169 -263.5l-291 -112q-6 31 -22.5 62.5t-43 56t-63.5 41t-86 16.5q-59 0 -106 -19.5t-82 -52.5t-57.5 -75t-30.5 -85l-76 -387q-10 -47 -3 -91t29.5 -80 t63.5 -57.5t100 -21.5q53 0 101.5 20.5t86.5 55.5t62.5 79t34.5 93l2 10h-283l50 263h598l-56 -285q-25 -127 -84 -223.5t-142 -163t-188.5 -100t-222.5 -33.5q-139 0 -236 45t-154.5 121.5t-76 178zM573 1827h205q-4 -20 -2 -44t12.5 -45.5t30 -35.5t47.5 -14q29 0 53.5 14 t43 35.5t30 45t15.5 44.5h204q-14 -47 -39.5 -104.5t-67.5 -107.5t-104.5 -84t-150.5 -34t-144.5 34t-87 84t-40 107.5t-5.5 104.5z" />
<glyph unicode="&#x11f;" horiz-adv-x="1071" d="M4 -295l152 217q53 -41 119.5 -62.5t105.5 -21.5q84 0 134 51.5t63 122.5q2 8 4 19q2 10 3 22.5t5 28.5l-4 2q-43 -43 -110.5 -69.5t-117.5 -26.5q-94 0 -150 27.5t-86 73.5t-39 105.5t-9 124.5q0 113 25.5 238t84 227.5t151.5 170t230 67.5q53 0 107.5 -17.5t89.5 -64.5 l4 2l14 72h287q-53 -272 -87 -447.5t-53.5 -281t-28.5 -154.5t-12 -70.5t-4 -27.5t-5 -25q-86 -444 -535 -430q-86 4 -173 32t-165 95zM377 385q0 -47 23.5 -87t88.5 -40q55 0 94.5 40t64 94t35.5 111.5t11 94.5q0 29 -3 56.5t-14 49t-32.5 35t-58.5 13.5q-61 0 -101.5 -39 t-65 -95.5t-33.5 -120t-9 -112.5zM430 1479h205q-4 -20 -2 -44t12 -45.5t29.5 -36t48.5 -14.5t53.5 14.5t43 36t29.5 45t15 44.5h205q-10 -47 -34.5 -103.5t-69.5 -107.5t-110 -85t-153 -34t-143 34t-85 84t-39 107.5t-5 104.5z" />
<glyph unicode="&#x120;" horiz-adv-x="1280" d="M104.5 332.5q-18.5 101.5 4.5 212.5l65 336q20 111 67.5 211t123 177t184 122t254.5 45q186 0 308 -95.5t169 -263.5l-291 -112q-6 31 -22.5 62.5t-43 56t-63.5 41t-86 16.5q-59 0 -106 -19.5t-82 -52.5t-57.5 -75t-30.5 -85l-76 -387q-10 -47 -3 -91t29.5 -80 t63.5 -57.5t100 -21.5q53 0 101.5 20.5t86.5 55.5t62.5 79t34.5 93l2 10h-283l50 263h598l-56 -285q-25 -127 -84 -223.5t-142 -163t-188.5 -100t-222.5 -33.5q-139 0 -236 45t-154.5 121.5t-76 178zM676 1528l51 266h303l-51 -266h-303z" />
<glyph unicode="&#x121;" horiz-adv-x="1071" d="M4 -295l152 217q53 -41 119.5 -62.5t105.5 -21.5q84 0 134 51.5t63 122.5q2 8 4 19q2 10 3 22.5t5 28.5l-4 2q-43 -43 -110.5 -69.5t-117.5 -26.5q-94 0 -150 27.5t-86 73.5t-39 105.5t-9 124.5q0 113 25.5 238t84 227.5t151.5 170t230 67.5q53 0 107.5 -17.5t89.5 -64.5 l4 2l14 72h287q-53 -272 -87 -447.5t-53.5 -281t-28.5 -154.5t-12 -70.5t-4 -27.5t-5 -25q-86 -444 -535 -430q-86 4 -173 32t-165 95zM377 385q0 -47 23.5 -87t88.5 -40q55 0 94.5 40t64 94t35.5 111.5t11 94.5q0 29 -3 56.5t-14 49t-32.5 35t-58.5 13.5q-61 0 -101.5 -39 t-65 -95.5t-33.5 -120t-9 -112.5zM535 1159l51 266h303l-51 -266h-303z" />
<glyph unicode="&#x122;" horiz-adv-x="1280" d="M104.5 332.5q-18.5 101.5 4.5 212.5l65 336q20 111 67.5 211t123 177t184 122t254.5 45q186 0 308 -95.5t169 -263.5l-291 -112q-6 31 -22.5 62.5t-43 56t-63.5 41t-86 16.5q-59 0 -106 -19.5t-82 -52.5t-57.5 -75t-30.5 -85l-76 -387q-10 -47 -3 -91t29.5 -80 t63.5 -57.5t100 -21.5q53 0 101.5 20.5t86.5 55.5t62.5 79t34.5 93l2 10h-283l50 263h598l-56 -285q-25 -127 -84 -223.5t-142 -163t-188.5 -100t-222.5 -33.5q-139 0 -236 45t-154.5 121.5t-76 178zM285 -641l114 221h-67l59 309h316l-58 -292l-227 -238h-137z" />
<glyph unicode="&#x123;" horiz-adv-x="1071" d="M4 -295l152 217q53 -41 119.5 -62.5t105.5 -21.5q84 0 134 51.5t63 122.5q2 8 4 19q2 10 3 22.5t5 28.5l-4 2q-43 -43 -110.5 -69.5t-117.5 -26.5q-94 0 -150 27.5t-86 73.5t-39 105.5t-9 124.5q0 113 25.5 238t84 227.5t151.5 170t230 67.5q53 0 107.5 -17.5t89.5 -64.5 l4 2l14 72h287q-53 -272 -87 -447.5t-53.5 -281t-28.5 -154.5t-12 -70.5t-4 -27.5t-5 -25q-86 -444 -535 -430q-86 4 -173 32t-165 95zM377 385q0 -47 23.5 -87t88.5 -40q55 0 94.5 40t64 94t35.5 111.5t11 94.5q0 29 -3 56.5t-14 49t-32.5 35t-58.5 13.5q-61 0 -101.5 -39 t-65 -95.5t-33.5 -120t-9 -112.5zM494 1225l57 293l229 237h138l-115 -221h67l-61 -309h-315z" />
<glyph unicode="&#x124;" horiz-adv-x="1353" d="M59 0l277 1425h307l-111 -571h459l111 571h305l-277 -1425h-307l115 582h-459l-112 -582h-308zM492 1608l352 245h200l263 -245l-127 -121l-275 162l-338 -160z" />
<glyph unicode="&#x125;" horiz-adv-x="1105" d="M37 -2l295 1491h286l-110 -547l8 -2q47 35 108.5 59.5t118.5 24.5q76 0 137.5 -23.5t100.5 -69.5t53.5 -114.5t-4.5 -157.5l-125 -661h-291l117 600q31 156 -113 156q-63 0 -112 -39t-66 -117l-116 -600h-287zM113 1608l352 245h201l262 -245l-127 -121l-275 162 l-338 -160z" />
<glyph unicode="&#x126;" horiz-adv-x="1353" d="M59 0l199 1028h-121l37 191h121l41 206h307l-41 -206h459l41 206h305l-41 -206h104l-36 -191h-105l-199 -1028h-307l115 582h-459l-112 -582h-308zM532 854h459l33 174h-459z" />
<glyph unicode="&#x127;" horiz-adv-x="1105" d="M37 -2l225 1145h-149l34 190h154l31 156h286l-32 -156h332l-37 -190h-332l-41 -201l8 -2q47 35 108.5 59.5t118.5 24.5q76 0 137.5 -23.5t100.5 -69.5t53.5 -114.5t-4.5 -157.5l-125 -661h-291l117 600q31 156 -113 156q-63 0 -112 -39t-66 -117l-116 -600h-287z" />
<glyph unicode="&#x128;" horiz-adv-x="589" d="M53 0l277 1425h309l-279 -1425h-307zM106 1573q70 131 141.5 182t151.5 51q39 0 79 -16t76 -34.5t67.5 -34t56.5 -15.5q35 0 69.5 22.5t86.5 75.5l127 -78q-66 -127 -132.5 -177t-150.5 -50q-41 0 -80 15.5t-74 33t-66.5 32.5t-60.5 15q-35 0 -74.5 -21.5t-95.5 -80.5z " />
<glyph unicode="&#x129;" horiz-adv-x="753" d="M113 1225q70 131 141.5 182t151.5 51q39 0 78.5 -16.5t75.5 -34.5t67.5 -33.5t56.5 -15.5q35 0 69.5 22.5t86.5 75.5l127 -78q-66 -127 -132.5 -177t-150.5 -50q-41 0 -80 15.5t-73.5 33t-66.5 32.5t-61 15q-35 0 -74.5 -21.5t-95.5 -80.5zM131 0l197 1014h286 l-196 -1014h-287z" />
<glyph unicode="&#x12a;" horiz-adv-x="589" d="M53 0l277 1425h309l-279 -1425h-307zM178 1552l47 242h682l-47 -242h-682z" />
<glyph unicode="&#x12b;" horiz-adv-x="700" d="M139 0l197 1014h287l-197 -1014h-287zM168 1184l47 241h682l-47 -241h-682z" />
<glyph unicode="&#x12c;" horiz-adv-x="602" d="M53 0l277 1425h309l-279 -1425h-307zM229 1827h205q-4 -20 -2 -44t12.5 -45.5t30 -35.5t47.5 -14q29 0 53.5 14t43 35.5t29.5 45t16 44.5h204q-14 -47 -39.5 -104.5t-67.5 -107.5t-104.5 -84t-150.5 -34t-144.5 34t-87 84t-40 107.5t-5.5 104.5z" />
<glyph unicode="&#x12d;" horiz-adv-x="548" d="M53 0l197 1014h287l-197 -1014h-287zM172 1491h205q-4 -20 -2 -44t12 -45.5t29.5 -35.5t48.5 -14t53.5 14t43 35.5t29.5 45t15 44.5h205q-10 -47 -34.5 -103.5t-69.5 -107.5t-110 -85t-153 -34t-143 34t-85 84t-39 107.5t-5 104.5z" />
<glyph unicode="&#x12e;" horiz-adv-x="589" d="M-14 -213q8 43 35.5 92t89.5 121h-58l277 1425h309l-279 -1425h-57q-59 -66 -90 -109t-37 -73q-8 -55 55 -56q18 0 51 5.5t83 27.5l34 -151q-59 -35 -120.5 -46.5t-114.5 -11.5q-98 0 -146 59.5t-32 141.5z" />
<glyph unicode="&#x12f;" horiz-adv-x="538" d="M-31 -211q8 43 36 92t87 119h-47l197 1014h286l-196 -1014h-47q-59 -63 -89 -106.5t-36 -73.5q-8 -55 55 -56q18 0 51 5.5t82 27.5l35 -151q-59 -35 -120.5 -46.5t-115.5 -11.5q-98 0 -146 59.5t-32 141.5zM272 1169l50 256h286l-49 -256h-287z" />
<glyph unicode="&#x130;" horiz-adv-x="589" d="M53 0l277 1425h309l-279 -1425h-307zM350 1528l51 266h304l-52 -266h-303z" />
<glyph unicode="&#x131;" horiz-adv-x="538" d="M45 0l197 1014h286l-196 -1014h-287z" />
<glyph unicode="&#x132;" horiz-adv-x="1556" d="M53 0l277 1425h309l-279 -1425h-307zM514 195l215 186q31 -45 81 -78t126 -33q94 0 137 50.5t64 154.5l184 950h307l-188 -964q-23 -111 -62 -200t-100 -150.5t-150.5 -94t-207.5 -32.5q-55 0 -113.5 15t-113 43t-101.5 66.5t-78 86.5z" />
<glyph unicode="&#x133;" horiz-adv-x="1134" d="M45 0l197 1014h286l-196 -1014h-287zM272 1169l50 256h286l-49 -256h-287zM381 -410l49 254h68q31 0 52 14.5t35.5 34t21.5 41t11 35.5l203 1047h287l-217 -1122q-27 -137 -126 -220.5t-241 -83.5h-143zM852 1169l49 256h287l-49 -256h-287z" />
<glyph unicode="&#x134;" horiz-adv-x="1026" d="M-18 197l215 186q31 -45 81 -78t125 -33q94 0 137.5 50.5t63.5 154.5l184 950h308l-189 -964q-23 -111 -61.5 -200t-100 -150.5t-150.5 -94t-208 -32.5q-55 0 -113.5 15t-113 43t-101.5 67t-77 86zM584 1612l352 246h201l262 -246l-127 -121l-275 162l-338 -160z" />
<glyph unicode="&#x135;" horiz-adv-x="673" d="M-131 -410l49 254h68q31 0 52 14.5t35.5 34t21.5 41t11 35.5l203 1047h287l-217 -1122q-27 -137 -126 -220.5t-241 -83.5h-143zM76 1176l362 317h211l242 -317l-133 -101l-254 213l-338 -211z" />
<glyph unicode="&#x136;" horiz-adv-x="1318" d="M59 0l277 1425h307l-113 -591l5 -5l268 275l348 321h375l-602 -577l354 -848h-346l-254 616l-234 -219l-77 -397h-308zM375 -600l114 221h-67l59 309h316l-58 -292l-227 -238h-137z" />
<glyph unicode="&#x137;" horiz-adv-x="1071" d="M25 -2l290 1491h287l-160 -821l4 -2l162 159l207 189h361l-461 -416l291 -600h-328l-189 403l-120 -108l-58 -295h-286zM221 -641l115 221h-68l60 309h315l-57 -292l-228 -238h-137z" />
<glyph unicode="&#x138;" horiz-adv-x="1071" d="M37 0l199 1014h286l-67 -346l4 -2l162 159l210 189h365l-467 -410l289 -604h-328l-188 401l-121 -108l-57 -293h-287z" />
<glyph unicode="&#x139;" horiz-adv-x="1173" d="M59 0l277 1425h307l-221 -1142h678l-53 -283h-988zM403 1604l398 284l200 -182l-477 -219z" />
<glyph unicode="&#x13a;" horiz-adv-x="573" d="M96.5 181.5q-12.5 60.5 3.5 140.5l228 1167h286l-221 -1133q-12 -68 13.5 -88t66.5 -20h41l-49 -248h-131q-59 0 -109.5 20.5t-83 60.5t-45 100.5zM362 1645l398 284l201 -182l-478 -219z" />
<glyph unicode="&#x13b;" horiz-adv-x="1173" d="M59 0l277 1425h307l-221 -1142h678l-53 -283h-988zM311 -641l115 221h-68l60 309h315l-57 -292l-227 -238h-138z" />
<glyph unicode="&#x13c;" horiz-adv-x="573" d="M-23 -631l115 221h-67l59 310h315l-57 -293l-227 -238h-138zM96.5 181.5q-12.5 60.5 3.5 140.5l228 1167h286l-221 -1133q-12 -68 13.5 -88t66.5 -20h41l-49 -248h-131q-59 0 -109.5 20.5t-83 60.5t-45 100.5z" />
<glyph unicode="&#x13d;" horiz-adv-x="1173" d="M59 0l277 1425h307l-221 -1142h678l-53 -283h-988zM725 895l115 221h-68l59 309h316l-57 -292l-228 -238h-137z" />
<glyph unicode="&#x13e;" horiz-adv-x="956" d="M96.5 181.5q-12.5 60.5 3.5 140.5l228 1167h286l-221 -1133q-12 -68 13.5 -88t66.5 -20h41l-49 -248h-131q-59 0 -109.5 20.5t-83 60.5t-45 100.5zM670 956l114 222h-67l59 309h316l-58 -293l-227 -238h-137z" />
<glyph unicode="&#x13f;" horiz-adv-x="1173" d="M59 0l277 1425h307l-221 -1142h678l-53 -283h-988zM700 614l52 267h303l-51 -267h-304z" />
<glyph unicode="&#x140;" horiz-adv-x="870" d="M96.5 181.5q-12.5 60.5 3.5 140.5l228 1167h286l-221 -1133q-12 -68 13.5 -88t66.5 -20h41l-49 -248h-131q-59 0 -109.5 20.5t-83 60.5t-45 100.5zM596 629l51 266h303l-51 -266h-303z" />
<glyph unicode="&#x141;" horiz-adv-x="1173" d="M-53 543l241 127l148 755h307l-113 -577l199 104l68 -178l-312 -164l-63 -327h678l-53 -283h-988l84 432l-129 -67z" />
<glyph unicode="&#x142;" horiz-adv-x="770" d="M0 639l240 125l141 725h287l-111 -559l145 76l68 -179l-258 -135l-66 -336q-12 -68 13.5 -88t66.5 -20h41l-49 -248h-131q-59 0 -109.5 20.5t-83 60.5t-45 100.5t4.5 140.5l39 204l-125 -65z" />
<glyph unicode="&#x143;" horiz-adv-x="1425" d="M59 0l277 1425h274l207 -462l187 -426h4l170 888h307l-277 -1425h-274l-256 555l-139 326l-4 -2l-168 -879h-308zM756 1604l397 284l201 -182l-477 -219z" />
<glyph unicode="&#x144;" horiz-adv-x="1105" d="M37 0l199 1016h286l-14 -76h4q47 35 110.5 60.5t120.5 25.5q76 0 137.5 -23.5t100.5 -69.5t53.5 -114.5t-4.5 -156.5l-129 -662h-287l117 600q16 78 -18.5 117t-94.5 39q-63 0 -112 -39t-66 -117l-116 -600h-287zM446 1161l254 416l256 -88l-352 -389z" />
<glyph unicode="&#x145;" horiz-adv-x="1425" d="M59 0l277 1425h274l207 -462l187 -426h4l170 888h307l-277 -1425h-274l-256 555l-139 326l-4 -2l-168 -879h-308zM403 -600l115 221h-67l59 309h315l-57 -292l-227 -238h-138z" />
<glyph unicode="&#x146;" horiz-adv-x="1105" d="M37 0l199 1016h286l-14 -76h4q47 35 110.5 60.5t120.5 25.5q76 0 137.5 -23.5t100.5 -69.5t53.5 -114.5t-4.5 -156.5l-129 -662h-287l117 600q16 78 -18.5 117t-94.5 39q-63 0 -112 -39t-66 -117l-116 -600h-287zM158 -641l114 221h-67l59 309h316l-58 -292l-227 -238 h-137z" />
<glyph unicode="&#x147;" horiz-adv-x="1425" d="M59 0l277 1425h274l207 -462l187 -426h4l170 888h307l-277 -1425h-274l-256 555l-139 326l-4 -2l-168 -879h-308zM555 1739l121 119l276 -160l336 162l82 -121l-358 -246h-201z" />
<glyph unicode="&#x148;" horiz-adv-x="1105" d="M37 0l199 1016h286l-14 -76h4q47 35 110.5 60.5t120.5 25.5q76 0 137.5 -23.5t100.5 -69.5t53.5 -114.5t-4.5 -156.5l-129 -662h-287l117 600q16 78 -18.5 117t-94.5 39q-63 0 -112 -39t-66 -117l-116 -600h-287zM242 1401l127 98q66 -51 125 -104.5t122 -106.5l345 213 l96 -100l-365 -318h-211z" />
<glyph unicode="&#x149;" horiz-adv-x="1380" d="M90 848l115 221h-68l60 309h315l-57 -293l-228 -237h-137zM311 0l199 1016h287l-15 -76h4q47 35 111 60.5t121 25.5q76 0 137.5 -23.5t100 -69.5t53 -114.5t-3.5 -156.5l-129 -662h-287l117 600q16 78 -19 117t-94 39q-63 0 -112.5 -39t-65.5 -117l-117 -600h-287z" />
<glyph unicode="&#x14a;" horiz-adv-x="1425" d="M59 0l277 1425h274l207 -462l187 -426h4l170 888h307l-277 -1425l-26 -135q-10 -53 -34 -99.5t-61.5 -80t-91 -54t-123.5 -20.5q-51 0 -111.5 15.5t-107.5 37.5l72 201q88 -27 130 -10.5t54 75.5l17 86l-248 539l-139 326l-4 -2l-168 -879h-308z" />
<glyph unicode="&#x14b;" horiz-adv-x="1105" d="M37 0l199 1014h286l-16 -84h4q53 43 117.5 68.5t122.5 25.5q162 0 237.5 -92t40.5 -273l-154 -794q-10 -53 -33.5 -99.5t-61.5 -80t-91 -54t-123 -20.5q-51 0 -111.5 15.5t-107.5 37.5l72 201q88 -27 130 -10.5t54 75.5l129 668q16 78 -18.5 117t-96.5 39q-63 0 -111 -39 t-65 -117l-116 -598h-287z" />
<glyph unicode="&#x14c;" horiz-adv-x="1277" d="M103.5 332.5q-19.5 101.5 2.5 212.5l66 336q20 111 62 211t113 177t176 122t255 45q135 0 239.5 -42t171 -116t91.5 -176.5t2 -220.5l-65 -336q-25 -127 -70 -230.5t-118 -176t-175 -111.5t-240 -39q-154 0 -260 45t-168.5 121.5t-82 178zM413 427q3 -42 25.5 -77 t67.5 -57.5t123 -22.5q61 0 106 18.5t76 51.5t49.5 77t28.5 93l82 414q8 47 -2.5 90t-38 74.5t-71.5 51t-101 19.5q-66 0 -111 -21.5t-74.5 -56t-47 -79t-25.5 -87.5l-82 -405q-8 -41 -5 -83zM520 1552l47 242h682l-47 -242h-682z" />
<glyph unicode="&#x14d;" horiz-adv-x="1056" d="M74 336q0 135 31.5 260t98 220t171.5 151.5t252 56.5q96 0 169.5 -29.5t125 -81t77 -121t25.5 -149.5q0 -117 -27.5 -233.5t-92 -211t-174 -152.5t-271.5 -58q-193 0 -289 97t-96 251zM342 1184l47 241h682l-47 -241h-682zM369 385q0 -16 3 -38.5t16 -43t39 -35t71 -14.5 q59 0 102 36t70.5 93t40 124.5t12.5 133.5q0 59 -36 90t-89 31q-68 0 -112 -39t-70.5 -96.5t-36.5 -123t-10 -118.5z" />
<glyph unicode="&#x14e;" horiz-adv-x="1277" d="M103.5 332.5q-19.5 101.5 2.5 212.5l66 336q20 111 62 211t113 177t176 122t255 45q135 0 239.5 -42t171 -116t91.5 -176.5t2 -220.5l-65 -336q-25 -127 -70 -230.5t-118 -176t-175 -111.5t-240 -39q-154 0 -260 45t-168.5 121.5t-82 178zM413 427q3 -42 25.5 -77 t67.5 -57.5t123 -22.5q61 0 106 18.5t76 51.5t49.5 77t28.5 93l82 414q8 47 -2.5 90t-38 74.5t-71.5 51t-101 19.5q-66 0 -111 -21.5t-74.5 -56t-47 -79t-25.5 -87.5l-82 -405q-8 -41 -5 -83zM586 1827h205q-4 -20 -2 -44t12 -45.5t29.5 -35.5t48.5 -14t53 14t42.5 35.5 t30 45t15.5 44.5h205q-14 -47 -40 -104.5t-68 -107.5t-104.5 -84t-150.5 -34t-144 34t-87 84t-40 107.5t-5 104.5z" />
<glyph unicode="&#x14f;" horiz-adv-x="1056" d="M74 336q0 135 31.5 260t98 220t171.5 151.5t252 56.5q96 0 169.5 -29.5t125 -81t77 -121t25.5 -149.5q0 -117 -27.5 -233.5t-92 -211t-174 -152.5t-271.5 -58q-193 0 -289 97t-96 251zM369 385q0 -16 3 -38.5t16 -43t39 -35t71 -14.5q59 0 102 36t70.5 93t40 124.5 t12.5 133.5q0 59 -36 90t-89 31q-68 0 -112 -39t-70.5 -96.5t-36.5 -123t-10 -118.5zM410 1479h204q-4 -20 -2 -44t12.5 -45.5t30 -36t47.5 -14.5q29 0 53.5 14.5t43 36t30 45t15.5 44.5h205q-10 -47 -35 -103.5t-70 -107.5t-109.5 -85t-152.5 -34t-143.5 34t-85 84 t-38.5 107.5t-5 104.5z" />
<glyph unicode="&#x150;" horiz-adv-x="1277" d="M103.5 332.5q-19.5 101.5 2.5 212.5l66 336q20 111 62 211t113 177t176 122t255 45q135 0 239.5 -42t171 -116t91.5 -176.5t2 -220.5l-65 -336q-25 -127 -70 -230.5t-118 -176t-175 -111.5t-240 -39q-154 0 -260 45t-168.5 121.5t-82 178zM413 427q3 -42 25.5 -77 t67.5 -57.5t123 -22.5q61 0 106 18.5t76 51.5t49.5 77t28.5 93l82 414q8 47 -2.5 90t-38 74.5t-71.5 51t-101 19.5q-66 0 -111 -21.5t-74.5 -56t-47 -79t-25.5 -87.5l-82 -405q-8 -41 -5 -83zM428 1606l389 309l176 -193l-456 -241zM879 1606l389 309l176 -193l-457 -241z " />
<glyph unicode="&#x151;" horiz-adv-x="1056" d="M74 336q0 135 31.5 260t98 220t171.5 151.5t252 56.5q96 0 169.5 -29.5t125 -81t77 -121t25.5 -149.5q0 -117 -27.5 -233.5t-92 -211t-174 -152.5t-271.5 -58q-193 0 -289 97t-96 251zM313 1161l254 416l256 -88l-352 -389zM369 385q0 -16 3 -38.5t16 -43t39 -35 t71 -14.5q59 0 102 36t70.5 93t40 124.5t12.5 133.5q0 59 -36 90t-89 31q-68 0 -112 -39t-70.5 -96.5t-36.5 -123t-10 -118.5zM702 1161l254 416l256 -88l-352 -389z" />
<glyph unicode="&#x152;" horiz-adv-x="1794" d="M94 424q0 59 12 121l54 336q20 111 63 211t118 177t189.5 122t280.5 45q39 0 75 -3t70 -8h988l-56 -282h-678l-57 -289h580l-54 -272h-579l-58 -299h678l-53 -283h-954q-68 -12 -144 -12q-121 0 -210 33.5t-147 93t-88 138.5t-30 171zM414 469q0 -78 47 -132t149 -54 q72 0 129 28l156 797q-49 33 -123 33q-59 0 -106.5 -19.5t-82 -52.5t-57 -75t-30.5 -85l-78 -381q-4 -14 -4 -30.5v-28.5z" />
<glyph unicode="&#x153;" horiz-adv-x="1662" d="M74 336q0 135 31.5 260t99 220t174 151.5t258.5 56.5q92 0 162.5 -27.5t120.5 -76.5v2q59 49 138 76.5t181 27.5q109 0 182.5 -24.5t119.5 -64.5t65.5 -91t19.5 -103q0 -102 -49 -168.5t-126 -106.5t-172 -56.5t-187 -16.5h-43.5t-40.5 2q-2 -10 -2 -17v-15 q0 -35 12 -57.5t32.5 -35t48 -17.5t60.5 -5q39 0 99.5 15.5t140.5 62.5l123 -215q-68 -43 -129.5 -68t-116.5 -37t-105.5 -15t-97.5 -3q-78 0 -150.5 19.5t-125.5 72.5v6q-63 -47 -146.5 -73.5t-191.5 -26.5q-193 0 -289 97t-96 251zM369 385q0 -16 3 -38.5t16 -43t39 -35 t71 -14.5q59 0 102 36t69.5 93t39 124.5t12.5 133.5q0 59 -35 90t-88 31q-68 0 -112 -39t-70.5 -96.5t-36.5 -123t-10 -118.5zM1051 614q18 -2 34.5 -2h32.5q59 0 99 8.5t64 21.5t33 29.5t9 30.5q0 29 -21.5 45.5t-74.5 16.5q-55 0 -103.5 -41t-72.5 -109z" />
<glyph unicode="&#x154;" horiz-adv-x="1308" d="M59 0l277 1425h571q207 0 315.5 -107.5t96.5 -311.5q-8 -145 -98.5 -248t-231.5 -144l197 -614h-338l-166 569h-205l-110 -569h-308zM530 842h244q98 0 157.5 42t63.5 122q4 84 -41 115.5t-123 31.5h-239zM606 1604l398 284l200 -182l-477 -219z" />
<glyph unicode="&#x155;" horiz-adv-x="823" d="M35 -2l198 1016h287l-22 -115l6 -2q49 55 115.5 91t134.5 36q63 0 107 -13.5t85 -49.5l-143 -261q-47 33 -92 43.5t-86 10.5q-76 0 -119 -46t-57 -114l-121 -596h-293zM383 1161l254 416l256 -88l-352 -389z" />
<glyph unicode="&#x156;" horiz-adv-x="1308" d="M59 0l277 1425h571q207 0 315.5 -107.5t96.5 -311.5q-8 -145 -98.5 -248t-231.5 -144l197 -614h-338l-166 569h-205l-110 -569h-308zM342 -600l115 221h-68l60 309h315l-57 -292l-228 -238h-137zM530 842h244q98 0 157.5 42t63.5 122q4 84 -41 115.5t-123 31.5h-239z" />
<glyph unicode="&#x157;" horiz-adv-x="823" d="M-88 -641l115 221h-68l59 309h316l-58 -292l-227 -238h-137zM35 -2l198 1016h287l-22 -115l6 -2q49 55 115.5 91t134.5 36q63 0 107 -13.5t85 -49.5l-143 -261q-47 33 -92 43.5t-86 10.5q-76 0 -119 -46t-57 -114l-121 -596h-293z" />
<glyph unicode="&#x158;" horiz-adv-x="1308" d="M59 0l277 1425h571q207 0 315.5 -107.5t96.5 -311.5q-8 -145 -98.5 -248t-231.5 -144l197 -614h-338l-166 569h-205l-110 -569h-308zM408 1739l120 119l277 -160l336 162l82 -121l-359 -246h-200zM530 842h244q98 0 157.5 42t63.5 122q4 84 -41 115.5t-123 31.5h-239z " />
<glyph unicode="&#x159;" horiz-adv-x="823" d="M35 -2l198 1016h287l-22 -115l6 -2q49 55 115.5 91t134.5 36q63 0 107 -13.5t85 -49.5l-143 -261q-47 33 -92 43.5t-86 10.5q-76 0 -119 -46t-57 -114l-121 -596h-293zM207 1401l127 98q66 -51 125 -104.5t123 -106.5l344 213l96 -100l-365 -318h-211z" />
<glyph unicode="&#x15a;" horiz-adv-x="1228" d="M35 207l196 225q170 -150 365 -149q129 0 187.5 45t58.5 108q0 66 -76 105t-193 67q-68 16 -132 44t-114.5 70t-81 102.5t-30.5 142.5q0 111 41 197.5t112.5 147t169 92.5t212.5 32q135 0 257.5 -31t235.5 -115l-164 -254q-72 51 -160 83t-171 32q-33 0 -70 -5 t-67.5 -20.5t-50 -42t-19.5 -67.5q0 -37 25.5 -62.5t67.5 -45t97 -35t117 -29.5q98 -25 162.5 -66t102.5 -93t53.5 -111.5t15.5 -122.5q0 -123 -48.5 -210t-129 -142.5t-187 -82t-223.5 -26.5q-158 0 -298 47t-261 170zM651 1604l398 284l200 -182l-477 -219z" />
<glyph unicode="&#x15b;" horiz-adv-x="966" d="M-4 150l162 192q70 -66 139.5 -90.5t155.5 -24.5q25 0 50 5.5t46.5 15.5t36 26.5t14.5 38.5q0 25 -23.5 42.5t-89.5 29.5q-49 10 -111.5 25.5t-117.5 46t-92 82t-37 133.5q0 94 36 160.5t95 109.5t134 62.5t153 19.5q49 0 102 -5t107.5 -18.5t105.5 -38t96 -61.5 l-153 -209q-37 27 -74 44.5t-72.5 25.5t-66.5 11t-51 3q-82 0 -106.5 -22.5t-24.5 -44.5q0 -18 20.5 -32.5t50 -24t63.5 -15.5t60 -10q47 -8 99.5 -23.5t97.5 -47.5t73.5 -81t28.5 -125q0 -96 -41 -163.5t-105.5 -111.5t-144.5 -64.5t-155 -20.5q-135 0 -249 30.5 t-212 129.5zM446 1161l254 416l256 -88l-352 -389z" />
<glyph unicode="&#x15c;" horiz-adv-x="1228" d="M35 207l196 225q170 -150 365 -149q129 0 187.5 45t58.5 108q0 66 -76 105t-193 67q-68 16 -132 44t-114.5 70t-81 102.5t-30.5 142.5q0 111 41 197.5t112.5 147t169 92.5t212.5 32q135 0 257.5 -31t235.5 -115l-164 -254q-72 51 -160 83t-171 32q-33 0 -70 -5 t-67.5 -20.5t-50 -42t-19.5 -67.5q0 -37 25.5 -62.5t67.5 -45t97 -35t117 -29.5q98 -25 162.5 -66t102.5 -93t53.5 -111.5t15.5 -122.5q0 -123 -48.5 -210t-129 -142.5t-187 -82t-223.5 -26.5q-158 0 -298 47t-261 170zM430 1608l352 245h201l262 -245l-127 -121l-274 162 l-338 -160z" />
<glyph unicode="&#x15d;" horiz-adv-x="966" d="M-4 150l162 192q70 -66 139.5 -90.5t155.5 -24.5q25 0 50 5.5t46.5 15.5t36 26.5t14.5 38.5q0 25 -23.5 42.5t-89.5 29.5q-49 10 -111.5 25.5t-117.5 46t-92 82t-37 133.5q0 94 36 160.5t95 109.5t134 62.5t153 19.5q49 0 102 -5t107.5 -18.5t105.5 -38t96 -61.5 l-153 -209q-37 27 -74 44.5t-72.5 25.5t-66.5 11t-51 3q-82 0 -106.5 -22.5t-24.5 -44.5q0 -18 20.5 -32.5t50 -24t63.5 -15.5t60 -10q47 -8 99.5 -23.5t97.5 -47.5t73.5 -81t28.5 -125q0 -96 -41 -163.5t-105.5 -111.5t-144.5 -64.5t-155 -20.5q-135 0 -249 30.5 t-212 129.5zM231 1176l363 317h211l242 -317l-134 -101l-254 213l-337 -211z" />
<glyph unicode="&#x15e;" horiz-adv-x="1228" d="M35 207l196 225q170 -150 365 -149q129 0 187.5 45t58.5 108q0 66 -76 105t-193 67q-68 16 -132 44t-114.5 70t-81 102.5t-30.5 142.5q0 111 41 197.5t112.5 147t169 92.5t212.5 32q135 0 257.5 -31t235.5 -115l-164 -254q-72 51 -160 83t-171 32q-33 0 -70 -5 t-67.5 -20.5t-50 -42t-19.5 -67.5q0 -37 25.5 -62.5t67.5 -45t97 -35t117 -29.5q98 -25 162.5 -66t102.5 -93t53.5 -111.5t15.5 -122.5q0 -111 -39 -192t-105.5 -137t-156.5 -88t-193 -40l-35 -68q94 -10 128 -56t34 -103q0 -43 -19.5 -82t-55 -70t-87 -48.5t-114.5 -17.5 q-66 0 -126.5 15.5t-101.5 44.5l76 127q47 -25 79 -31t66 -6q35 0 65 15.5t30 54.5q0 23 -15.5 32t-33.5 9q-20 0 -41 -9l-72 41l74 150q-141 6 -267.5 55t-236.5 160z" />
<glyph unicode="&#x15f;" horiz-adv-x="966" d="M-4 150l162 192q70 -66 139.5 -90.5t155.5 -24.5q25 0 50 5.5t46.5 15.5t36 26.5t14.5 38.5q0 25 -23.5 42.5t-89.5 29.5q-49 10 -111.5 25.5t-117.5 46t-92 82t-37 133.5q0 94 36 160.5t95 109.5t134 62.5t153 19.5q49 0 102 -5t107.5 -18.5t105.5 -38t96 -61.5 l-153 -209q-37 27 -74 44.5t-72.5 25.5t-66.5 11t-51 3q-82 0 -106.5 -22.5t-24.5 -44.5q0 -18 20.5 -32.5t50 -24t63.5 -15.5t60 -10q47 -8 99.5 -23.5t97.5 -47.5t73.5 -81t28.5 -125q0 -86 -33.5 -149.5t-88 -107.5t-124 -68.5t-141.5 -30.5l-33 -68q94 -10 128 -56 t34 -103q0 -43 -19.5 -82t-55 -70t-87 -48.5t-114.5 -17.5q-66 0 -126.5 15.5t-101.5 44.5l76 127q47 -25 79 -31t66 -6q35 0 65 15.5t30 54.5q0 23 -15.5 32t-33.5 9q-20 0 -41 -9l-72 41l76 152q-109 6 -202 39t-173 117z" />
<glyph unicode="&#x160;" horiz-adv-x="1228" d="M35 207l196 225q170 -150 365 -149q129 0 187.5 45t58.5 108q0 66 -76 105t-193 67q-68 16 -132 44t-114.5 70t-81 102.5t-30.5 142.5q0 111 41 197.5t112.5 147t169 92.5t212.5 32q135 0 257.5 -31t235.5 -115l-164 -254q-72 51 -160 83t-171 32q-33 0 -70 -5 t-67.5 -20.5t-50 -42t-19.5 -67.5q0 -37 25.5 -62.5t67.5 -45t97 -35t117 -29.5q98 -25 162.5 -66t102.5 -93t53.5 -111.5t15.5 -122.5q0 -123 -48.5 -210t-129 -142.5t-187 -82t-223.5 -26.5q-158 0 -298 47t-261 170zM444 1739l121 119l277 -160l336 162l82 -121 l-359 -246h-201z" />
<glyph unicode="&#x161;" horiz-adv-x="966" d="M-4 150l162 192q70 -66 139.5 -90.5t155.5 -24.5q25 0 50 5.5t46.5 15.5t36 26.5t14.5 38.5q0 25 -23.5 42.5t-89.5 29.5q-49 10 -111.5 25.5t-117.5 46t-92 82t-37 133.5q0 94 36 160.5t95 109.5t134 62.5t153 19.5q49 0 102 -5t107.5 -18.5t105.5 -38t96 -61.5 l-153 -209q-37 27 -74 44.5t-72.5 25.5t-66.5 11t-51 3q-82 0 -106.5 -22.5t-24.5 -44.5q0 -18 20.5 -32.5t50 -24t63.5 -15.5t60 -10q47 -8 99.5 -23.5t97.5 -47.5t73.5 -81t28.5 -125q0 -96 -41 -163.5t-105.5 -111.5t-144.5 -64.5t-155 -20.5q-135 0 -249 30.5 t-212 129.5zM322 1401l127 98q66 -51 125 -104.5t122 -106.5l344 213l97 -100l-365 -318h-211z" />
<glyph unicode="&#x162;" horiz-adv-x="1116" d="M158 1153l53 272h1071l-53 -272h-381l-225 -1153h-306l224 1153h-383zM193 -641l114 221h-67l59 309h315l-57 -292l-227 -238h-137z" />
<glyph unicode="&#x163;" horiz-adv-x="671" d="M-18 -641l114 221h-67l59 309h315l-57 -292l-227 -238h-137zM102 786l45 230h109l55 278h287l-55 -278h147l-45 -230h-147l-82 -428q-12 -66 4 -85t61 -19h64l-49 -254h-156q-121 0 -187.5 71.5t-39.5 200.5l98 514h-109z" />
<glyph unicode="&#x164;" horiz-adv-x="1116" d="M158 1153l53 272h1071l-53 -272h-381l-225 -1153h-306l224 1153h-383zM412 1739l120 119l277 -160l336 162l82 -121l-359 -246h-200z" />
<glyph unicode="&#x165;" horiz-adv-x="911" d="M115 786l45 230h108l56 278h286l-55 -278h147l-45 -230h-147l-82 -428q-12 -66 4.5 -85t61.5 -19h63l-49 -254h-156q-121 0 -187.5 71.5t-39.5 200.5l98 514h-108zM727 1141l115 221h-68l60 309h315l-57 -293l-228 -237h-137z" />
<glyph unicode="&#x166;" horiz-adv-x="1116" d="M104 623l41 202h332l64 328h-383l53 272h1071l-53 -272h-381l-64 -328h332l-41 -202h-332l-120 -623h-306l121 623h-334z" />
<glyph unicode="&#x167;" horiz-adv-x="671" d="M31 446l37 191h114l29 149h-109l45 230h109l55 278h287l-55 -278h147l-45 -230h-147l-29 -149h149l-36 -191h-150l-16 -88q-12 -66 4 -85t61 -19h64l-49 -254h-156q-121 0 -187.5 71.5t-39.5 200.5l32 174h-114z" />
<glyph unicode="&#x168;" horiz-adv-x="1318" d="M135 516l176 909h307l-172 -893q-23 -123 33 -189.5t154 -66.5q102 0 181 59.5t101 178.5l177 911h307l-180 -927q-23 -115 -72 -208t-125 -160t-178.5 -103.5t-233.5 -36.5q-113 0 -210 38t-163.5 106.5t-96 165.5t-5.5 216zM477 1573q70 131 141.5 182t151.5 51 q39 0 79 -16t76 -34.5t67.5 -34t56.5 -15.5q35 0 69.5 22.5t85.5 75.5l127 -78q-66 -127 -132 -177t-150 -50q-41 0 -80 15.5t-74 33t-66.5 32.5t-60.5 15q-35 0 -75 -21.5t-95 -80.5z" />
<glyph unicode="&#x169;" horiz-adv-x="1105" d="M108.5 196.5q-16.5 67.5 0.5 157.5l129 662h286l-116 -600q-16 -78 18.5 -117t93.5 -39q63 0 112.5 39t65.5 117l117 600h287l-197 -1016h-287l23 92h-4q-47 -45 -115.5 -73.5t-124.5 -28.5q-70 0 -130 23.5t-101 69.5t-57.5 113.5zM293 1225q70 131 141.5 182t151.5 51 q39 0 79 -16.5t75.5 -34.5t67.5 -33.5t56 -15.5q35 0 70 22.5t86 75.5l127 -78q-66 -127 -132.5 -177t-150.5 -50q-41 0 -80 15.5t-73.5 33t-66.5 32.5t-60 15q-35 0 -75 -21.5t-95 -80.5z" />
<glyph unicode="&#x16a;" horiz-adv-x="1318" d="M135 516l176 909h307l-172 -893q-23 -123 33 -189.5t154 -66.5q102 0 181 59.5t101 178.5l177 911h307l-180 -927q-23 -115 -72 -208t-125 -160t-178.5 -103.5t-233.5 -36.5q-113 0 -210 38t-163.5 106.5t-96 165.5t-5.5 216zM541 1552l47 242h682l-47 -242h-682z" />
<glyph unicode="&#x16b;" horiz-adv-x="1105" d="M108.5 196.5q-16.5 67.5 0.5 157.5l129 662h286l-116 -600q-16 -78 18.5 -117t93.5 -39q63 0 112.5 39t65.5 117l117 600h287l-197 -1016h-287l23 92h-4q-47 -45 -115.5 -73.5t-124.5 -28.5q-70 0 -130 23.5t-101 69.5t-57.5 113.5zM356 1184l47 241h682l-47 -241h-682z " />
<glyph unicode="&#x16c;" horiz-adv-x="1318" d="M135 516l176 909h307l-172 -893q-23 -123 33 -189.5t154 -66.5q102 0 181 59.5t101 178.5l177 911h307l-180 -927q-23 -115 -72 -208t-125 -160t-178.5 -103.5t-233.5 -36.5q-113 0 -210 38t-163.5 106.5t-96 165.5t-5.5 216zM598 1827h205q-4 -20 -2 -44t12 -45.5 t29.5 -35.5t48.5 -14t53.5 14t43 35.5t29.5 45t15 44.5h205q-14 -47 -40 -104.5t-68 -107.5t-104.5 -84t-150.5 -34t-144 34t-87 84t-40 107.5t-5 104.5z" />
<glyph unicode="&#x16d;" horiz-adv-x="1105" d="M108.5 196.5q-16.5 67.5 0.5 157.5l129 662h286l-116 -600q-16 -78 18.5 -117t93.5 -39q63 0 112.5 39t65.5 117l117 600h287l-197 -1016h-287l23 92h-4q-47 -45 -115.5 -73.5t-124.5 -28.5q-70 0 -130 23.5t-101 69.5t-57.5 113.5zM422 1479h205q-4 -20 -2 -44t12 -45.5 t29.5 -36t48.5 -14.5t53.5 14.5t42.5 36t29.5 45t15.5 44.5h205q-10 -47 -35 -103.5t-70 -107.5t-109.5 -85t-152.5 -34t-143 34t-85 84t-39 107.5t-5 104.5z" />
<glyph unicode="&#x16e;" horiz-adv-x="1318" d="M135 516l176 909h307l-172 -893q-23 -123 33 -189.5t154 -66.5q102 0 181 59.5t101 178.5l177 911h307l-180 -927q-23 -115 -72 -208t-125 -160t-178.5 -103.5t-233.5 -36.5q-113 0 -210 38t-163.5 106.5t-96 165.5t-5.5 216zM639 1622q0 55 20.5 106.5t58.5 90.5 t91 61.5t119 22.5q47 0 89 -15.5t72.5 -41t49 -61.5t18.5 -79q0 -55 -20.5 -106.5t-58.5 -89t-92 -60.5t-124 -23q-47 0 -87 14.5t-70.5 41t-48 62.5t-17.5 77zM813 1649q0 -27 19.5 -44.5t50.5 -17.5q35 0 67.5 25.5t32.5 66.5q0 27 -19.5 44.5t-50.5 17.5 q-43 0 -71.5 -26.5t-28.5 -65.5z" />
<glyph unicode="&#x16f;" horiz-adv-x="1105" d="M108.5 196.5q-16.5 67.5 0.5 157.5l129 662h286l-116 -600q-16 -78 18.5 -117t93.5 -39q63 0 112.5 39t65.5 117l117 600h287l-197 -1016h-287l23 92h-4q-47 -45 -115.5 -73.5t-124.5 -28.5q-70 0 -130 23.5t-101 69.5t-57.5 113.5zM457 1274q0 55 20.5 106.5t58 90 t91 61t118.5 22.5q47 0 89.5 -15t73 -40.5t49 -61.5t18.5 -79q0 -55 -20.5 -106.5t-58.5 -89.5t-92 -60.5t-124 -22.5q-47 0 -87 14.5t-70.5 41t-48 62.5t-17.5 77zM631 1300q0 -27 19 -44t50 -17q35 0 68 25.5t33 66.5q0 27 -19.5 44.5t-50.5 17.5q-43 0 -71.5 -27 t-28.5 -66z" />
<glyph unicode="&#x170;" horiz-adv-x="1318" d="M135 516l176 909h307l-172 -893q-23 -123 33 -189.5t154 -66.5q102 0 181 59.5t101 178.5l177 911h307l-180 -927q-23 -115 -72 -208t-125 -160t-178.5 -103.5t-233.5 -36.5q-113 0 -210 38t-163.5 106.5t-96 165.5t-5.5 216zM485 1606l389 309l177 -193l-457 -241z M936 1606l389 309l176 -193l-457 -241z" />
<glyph unicode="&#x171;" horiz-adv-x="1105" d="M108.5 196.5q-16.5 67.5 0.5 157.5l129 662h286l-116 -600q-16 -78 18.5 -117t93.5 -39q63 0 112.5 39t65.5 117l117 600h287l-197 -1016h-287l23 92h-4q-47 -45 -115.5 -73.5t-124.5 -28.5q-70 0 -130 23.5t-101 69.5t-57.5 113.5zM369 1161l254 416l256 -88l-353 -389z M758 1161l254 416l256 -88l-353 -389z" />
<glyph unicode="&#x172;" horiz-adv-x="1318" d="M133.5 322.5q-20.5 89.5 1.5 193.5l176 909h307l-172 -893q-23 -123 33 -189.5t154 -66.5q102 0 181 59.5t101 178.5l177 911h307l-180 -927q-20 -104 -63.5 -191.5t-108 -153t-152.5 -106.5t-199 -53q-55 -59 -82.5 -101.5t-33.5 -70.5q-8 -55 55 -55q18 0 51 5t82 27 l35 -151q-59 -35 -120.5 -46.5t-115.5 -11.5q-98 0 -146 59.5t-32 141.5q6 43 33 91t86 116q-94 14 -172 58t-130 110.5t-72.5 156z" />
<glyph unicode="&#x173;" horiz-adv-x="1105" d="M108.5 196.5q-16.5 67.5 0.5 157.5l129 662h286l-116 -600q-16 -78 18.5 -117t93.5 -39q63 0 112.5 39t65.5 117l117 600h287l-197 -1016h-96q-59 -63 -88 -105t-35 -73q-8 -55 55 -55q18 0 51 5t82 27l35 -151q-59 -35 -120.5 -46.5t-114.5 -11.5q-98 0 -146 59.5 t-32 141.5q8 43 34.5 92t87.5 119l23 90h-4q-47 -45 -115.5 -73.5t-124.5 -28.5q-70 0 -130 23.5t-101 69.5t-57.5 113.5z" />
<glyph unicode="&#x174;" horiz-adv-x="1714" d="M197 1425h321l19 -421l8 -406h6l184 406l203 421h225l39 -419l29 -408h8l164 406l180 421h322l-650 -1425h-247l-41 463l-23 389h-6l-176 -395l-219 -457h-250zM696 1608l353 245h200l262 -245l-127 -121l-274 162l-338 -160z" />
<glyph unicode="&#x175;" horiz-adv-x="1509" d="M88 1014h295l20 -252q8 -96 11.5 -185.5t-2.5 -201.5h8q39 68 77 146.5t72.5 162.5t66.5 168t56 162h260l29 -252q6 -47 10 -86t7 -79t4.5 -84t1.5 -101h12q66 113 131 273.5t121 328.5h315q-63 -156 -123.5 -289t-125 -255t-135.5 -237.5t-152 -232.5h-240l-27 250 q-8 68 -11 140.5t-5 164.5h-8q-66 -160 -135.5 -295t-147.5 -260h-252zM473 1176l363 317h211l241 -317l-133 -101l-254 213l-338 -211z" />
<glyph unicode="&#x176;" horiz-adv-x="1214" d="M211 1425h330l84 -307l65 -276h8l172 274l203 309h332l-614 -841l-113 -584h-297l115 584zM446 1608l353 245h200l263 -245l-127 -121l-275 162l-338 -160z" />
<glyph unicode="&#x177;" horiz-adv-x="974" d="M-88 -190q150 18 234.5 82.5t140.5 175.5l-189 946h308l43 -256q4 -25 9 -73t9 -106.5t5 -120t-3 -112.5h8q72 119 138.5 294t134.5 372l307 2q-121 -285 -233.5 -534t-250.5 -468q-53 -84 -113.5 -162.5t-138 -140t-175 -97.5t-224.5 -36zM211 1176l362 317h211 l242 -317l-133 -101l-254 213l-338 -211z" />
<glyph unicode="&#x178;" horiz-adv-x="1214" d="M211 1425h330l84 -307l65 -276h8l172 274l203 309h332l-614 -841l-113 -584h-297l115 584zM463 1524l53 272h313l-53 -272h-313zM903 1524l53 272h312l-54 -272h-311z" />
<glyph unicode="&#x179;" horiz-adv-x="1101" d="M-25 0l52 262l786 891h-588l51 272h963l-49 -251l-787 -891h613l-55 -283h-986zM616 1604l398 284l200 -182l-477 -219z" />
<glyph unicode="&#x17a;" horiz-adv-x="960" d="M-25 0l48 244l559 520h-430l47 250h786l-45 -234l-557 -518h457l-52 -262h-813zM461 1161l254 416l256 -88l-353 -389z" />
<glyph unicode="&#x17b;" horiz-adv-x="1101" d="M-25 0l52 262l786 891h-588l51 272h963l-49 -251l-787 -891h613l-55 -283h-986zM600 1528l51 266h303l-51 -266h-303z" />
<glyph unicode="&#x17c;" horiz-adv-x="960" d="M-25 0l48 244l559 520h-430l47 250h786l-45 -234l-557 -518h457l-52 -262h-813zM444 1159l52 266h303l-51 -266h-304z" />
<glyph unicode="&#x17d;" horiz-adv-x="1101" d="M-25 0l52 262l786 891h-588l51 272h963l-49 -251l-787 -891h613l-55 -283h-986zM444 1739l121 119l277 -160l336 162l82 -121l-359 -246h-201z" />
<glyph unicode="&#x17e;" horiz-adv-x="960" d="M-25 0l48 244l559 520h-430l47 250h786l-45 -234l-557 -518h457l-52 -262h-813zM225 1401l127 98q66 -51 125.5 -104.5t122.5 -106.5l344 213l96 -100l-364 -318h-211z" />
<glyph unicode="&#x192;" horiz-adv-x="1126" d="M27 -152l90 226q55 -25 87 -31t56 -6q102 0 152 223l80 375h-156l16 239h193l24 123q14 74 45 152t82.5 141.5t127 103.5t184.5 40q53 -2 111.5 -14.5t101.5 -28.5l-80 -230q-29 12 -49.5 18.5t-36 9.5t-30.5 3h-36q-31 0 -54.5 -18.5t-40.5 -48t-29.5 -65.5t-20.5 -71 l-25 -115h193l-17 -239h-223l-86 -397q-20 -92 -51 -174t-80 -143.5t-116.5 -97.5t-162.5 -36q-25 0 -56.5 5t-65 13.5t-67.5 19.5t-60 23z" />
<glyph unicode="&#x1a0;" horiz-adv-x="1347" d="M103.5 332.5q-19.5 101.5 2.5 212.5l66 336q20 111 62 211t113 177t176 122t255 45q106 0 193.5 -27t152.5 -74h6q43 0 73 11.5t50.5 37t35 66.5t26.5 100l20 111h221l-32 -172q-27 -133 -86.5 -223t-169.5 -123q41 -119 14 -262l-65 -336q-25 -127 -70 -230.5t-118 -176 t-175 -111.5t-240 -39q-154 0 -260 45t-168.5 121.5t-82 178zM413 427q3 -42 25.5 -77t67.5 -57.5t123 -22.5q61 0 106 18.5t76 51.5t49.5 77t28.5 93l82 414q8 47 -2.5 90t-38 74.5t-71.5 51t-101 19.5q-66 0 -111 -21.5t-74.5 -56t-47 -79t-25.5 -87.5l-82 -405 q-8 -41 -5 -83z" />
<glyph unicode="&#x1a1;" horiz-adv-x="1171" d="M74 336q0 135 31.5 260t98 220t171.5 151.5t252 56.5q98 0 171.5 -29.5t125.5 -83.5q66 8 96.5 56.5t52.5 156.5l21 111h221l-33 -172q-27 -135 -87 -226.5t-177 -121.5q6 -35 6 -72q0 -117 -27.5 -233.5t-92 -211t-174 -152.5t-271.5 -58q-193 0 -289 97t-96 251z M369 385q0 -16 3 -38.5t16 -43t39 -35t71 -14.5q59 0 102 36t70.5 93t40 124.5t12.5 133.5q0 59 -36 90t-89 31q-68 0 -112 -39t-70.5 -96.5t-36.5 -123t-10 -118.5z" />
<glyph unicode="&#x1af;" horiz-adv-x="1488" d="M135 516l176 909h307l-172 -893q-23 -123 33 -189.5t154 -66.5q102 0 181 59.5t101 178.5l177 911h307l-19 -90q39 2 66 14.5t45 38t31.5 65.5t25.5 97l21 111h221l-33 -172q-16 -82 -45 -148.5t-73 -113.5t-108.5 -73t-150.5 -26h-39l-122 -630q-23 -115 -72 -208 t-125 -160t-178.5 -103.5t-233.5 -36.5q-113 0 -210 38t-163.5 106.5t-96 165.5t-5.5 216z" />
<glyph unicode="&#x1b0;" horiz-adv-x="1300" d="M98 354l129 662h287l-117 -600q-16 -78 19 -117t94 -39q63 0 112.5 39t65.5 117l117 600h287l-21 -107q76 4 111 52.5t57 162.5l21 111h221l-33 -172q-16 -82 -45 -148.5t-73 -113.5t-108.5 -73t-150.5 -26h-41l-135 -702h-287l23 92h-4q-47 -45 -116 -73.5t-124 -28.5 q-70 0 -130 23.5t-101 69.5t-57.5 113.5t-0.5 157.5z" />
<glyph unicode="&#x1fc;" horiz-adv-x="2189" d="M-76 0l1067 1425h1178l-39 -282h-692l-41 -289h590l-39 -272h-590l-41 -299h692l-39 -283h-1007l41 305h-506l-240 -305h-334zM700 569h342l78 564l-10 2zM1282 1604l397 284l201 -182l-477 -219z" />
<glyph unicode="&#x1fd;" horiz-adv-x="1669" d="M45 250q0 57 17.5 124.5t71.5 124t151.5 94.5t257.5 38q37 0 76.5 -3t82.5 -7l9 26q4 16 4 29q0 33 -25.5 63.5t-109.5 30.5q-86 0 -155 -15.5t-122 -60.5l-123 178q100 90 214 121t224 31q100 0 185.5 -20.5t138.5 -67.5q59 41 134 65.5t169 24.5q109 0 182.5 -26.5 t119.5 -69.5t65.5 -97.5t19.5 -109.5q0 -98 -46 -162.5t-119.5 -101.5t-166 -51.5t-184.5 -14.5q-27 0 -52.5 1t-49.5 3q-2 -10 -2 -17v-15q0 -35 12 -57.5t32.5 -35t48.5 -17.5t60 -5q39 0 97.5 19.5t136.5 62.5l133 -219q-68 -43 -129.5 -68t-117.5 -37t-107.5 -15 t-98.5 -3q-98 0 -185 32.5t-136 120.5q-35 -27 -80 -54.5t-98.5 -49t-111.5 -35.5t-120 -14q-135 0 -219 61.5t-84 198.5zM332 326q0 -10 2 -25.5t12 -31t35 -27t72 -11.5q33 0 66.5 7.5t62 24t49 42t26.5 62.5l7 43q-41 4 -74 7t-62 3q-70 0 -107.5 -11.5t-57 -26.5 t-24.5 -30.5t-7 -25.5zM825 1161l254 416l256 -88l-352 -389zM1057 614q18 -2 34.5 -2h32.5q59 0 99.5 8.5t64 21.5t32.5 29.5t9 30.5q0 29 -21.5 45.5t-74.5 16.5q-55 0 -103.5 -41t-72.5 -109z" />
<glyph unicode="&#x1fe;" horiz-adv-x="1277" d="M84 66l88 106q-55 76 -70.5 171t4.5 202l66 336q20 111 62 211t113 177t176 122t255 45q109 0 196 -28t152 -75l91 109l79 -76l-90 -109q57 -74 78 -169t-2 -207l-65 -336q-25 -127 -70 -230.5t-118 -176t-175 -111.5t-240 -39q-123 0 -215 28.5t-155 79.5l-86 -102z M412 463l516 629q-29 31 -72 49t-98 18q-66 0 -111 -21.5t-74.5 -56t-47 -79t-25.5 -87.5l-82 -405q-4 -12 -4 -23.5t-2 -23.5zM444 340q25 -31 69 -50.5t116 -19.5q61 0 106 18.5t76 51.5t49.5 77t28.5 93l82 414q4 14 4 27.5v25.5zM690 1604l397 284l201 -182l-477 -219z " />
<glyph unicode="&#x1ff;" horiz-adv-x="1056" d="M70 43l69 76q-66 88 -65 217q0 135 31.5 260t98 220t171.5 151.5t252 56.5q84 0 150.5 -22.5t115.5 -63.5l86 92l53 -55l-86 -92q78 -100 78 -240q0 -117 -27.5 -233.5t-92 -211t-174 -152.5t-271.5 -58q-86 0 -151.5 20.5t-112.5 54.5l-68 -73zM369 367l325 354 q-35 41 -96 41q-68 0 -112 -39t-70.5 -96.5t-36.5 -123t-10 -118.5v-18zM399 287q16 -16 39 -24.5t60 -8.5q59 0 101 36t69.5 92t41 123.5t13.5 131.5zM518 1161l254 416l256 -88l-352 -389z" />
<glyph unicode="&#x218;" horiz-adv-x="1228" d="M35 207l196 225q170 -150 365 -149q129 0 187.5 45t58.5 108q0 66 -76 105t-193 67q-68 16 -132 44t-114.5 70t-81 102.5t-30.5 142.5q0 111 41 197.5t112.5 147t169 92.5t212.5 32q135 0 257.5 -31t235.5 -115l-164 -254q-72 51 -160 83t-171 32q-33 0 -70 -5 t-67.5 -20.5t-50 -42t-19.5 -67.5q0 -37 25.5 -62.5t67.5 -45t97 -35t117 -29.5q98 -25 162.5 -66t102.5 -93t53.5 -111.5t15.5 -122.5q0 -123 -48.5 -210t-129 -142.5t-187 -82t-223.5 -26.5q-158 0 -298 47t-261 170zM297 -641l115 221h-68l59 309h316l-57 -292l-228 -238 h-137z" />
<glyph unicode="&#x219;" horiz-adv-x="966" d="M-4 150l162 192q70 -66 139.5 -90.5t155.5 -24.5q25 0 50 5.5t46.5 15.5t36 26.5t14.5 38.5q0 25 -23.5 42.5t-89.5 29.5q-49 10 -111.5 25.5t-117.5 46t-92 82t-37 133.5q0 94 36 160.5t95 109.5t134 62.5t153 19.5q49 0 102 -5t107.5 -18.5t105.5 -38t96 -61.5 l-153 -209q-37 27 -74 44.5t-72.5 25.5t-66.5 11t-51 3q-82 0 -106.5 -22.5t-24.5 -44.5q0 -18 20.5 -32.5t50 -24t63.5 -15.5t60 -10q47 -8 99.5 -23.5t97.5 -47.5t73.5 -81t28.5 -125q0 -96 -41 -163.5t-105.5 -111.5t-144.5 -64.5t-155 -20.5q-135 0 -249 30.5 t-212 129.5zM139 -641l115 221h-68l60 309h315l-57 -292l-228 -238h-137z" />
<glyph unicode="&#x2c6;" horiz-adv-x="1056" d="M264 1176l363 317h211l241 -317l-133 -101l-254 213l-338 -211z" />
<glyph unicode="&#x2c7;" horiz-adv-x="1056" d="M342 1401l127 98q66 -51 125 -104.5t123 -106.5l344 213l96 -100l-364 -318h-211z" />
<glyph unicode="&#x2d8;" horiz-adv-x="1091" d="M430 1479h205q-4 -20 -2 -44t12 -45.5t29.5 -36t48.5 -14.5t53.5 14.5t43 36t29.5 45t15 44.5h205q-10 -47 -34.5 -103.5t-69.5 -107.5t-110 -85t-153 -34t-143 34t-85 84t-39 107.5t-5 104.5z" />
<glyph unicode="&#x2d9;" horiz-adv-x="1071" d="M539 1159l51 266h303l-51 -266h-303z" />
<glyph unicode="&#x2da;" horiz-adv-x="1071" d="M430 1274q0 55 20.5 106.5t58.5 90t91 61t119 22.5q47 0 89 -15t72.5 -40.5t49 -61.5t18.5 -79q0 -55 -20.5 -106.5t-58.5 -89.5t-92 -60.5t-124 -22.5q-47 0 -87 14.5t-70.5 41t-48 62.5t-17.5 77zM604 1300q0 -27 19.5 -44t50.5 -17q35 0 67.5 25.5t32.5 66.5 q0 27 -19.5 44.5t-49.5 17.5q-43 0 -72 -27t-29 -66z" />
<glyph unicode="&#x2db;" horiz-adv-x="1071" d="M459 -213q8 45 37.5 96t95.5 125h182l2 -8q-59 -66 -90 -109t-37 -73q-8 -55 56 -56q18 0 50.5 5.5t82.5 27.5l34 -151q-59 -35 -120.5 -46.5t-114.5 -11.5q-98 0 -146 59.5t-32 141.5z" />
<glyph unicode="&#x2dc;" horiz-adv-x="1056" d="M303 1225q70 131 141.5 182t151.5 51q39 0 79 -16.5t75.5 -34.5t67.5 -33.5t56 -15.5q35 0 70 22.5t86 75.5l127 -78q-66 -127 -132.5 -177t-150.5 -50q-41 0 -79.5 15.5t-73.5 33t-66.5 32.5t-60.5 15q-35 0 -75 -21.5t-95 -80.5z" />
<glyph unicode="&#x2dd;" horiz-adv-x="1179" d="M293 1161l254 416l256 -88l-352 -389zM682 1161l254 416l256 -88l-352 -389z" />
<glyph unicode="&#x3a9;" horiz-adv-x="1286" d="M-29 0l54 283h122l5 10q-23 27 -34.5 62.5t-14.5 75.5t1.5 83t12.5 84l55 283q20 111 72.5 211t133.5 177t190.5 122t248.5 45q129 0 226.5 -42t158 -116t82 -176.5t-1.5 -220.5l-55 -283q-16 -92 -53 -169t-105 -142v-4h129l-53 -283h-522l57 297q86 20 141.5 82.5 t71.5 148.5l74 381q8 47 1 89t-32 74t-66 50.5t-98 18.5q-59 0 -106.5 -19.5t-82 -52.5t-57 -75t-30.5 -85l-74 -381q-16 -80 12.5 -147.5t112.5 -85.5l-55 -295h-521z" />
<glyph unicode="&#x3c0;" horiz-adv-x="1087" d="M25 0l198 1016h864l-198 -1016h-287l148 772h-291l-148 -772h-286z" />
<glyph unicode="&#x401;" horiz-adv-x="1173" d="M59 0l277 1425h962l-53 -276h-653l-60 -295h580l-53 -272h-580l-57 -299h686l-53 -283h-996zM481 1524l54 272h313l-53 -272h-314zM922 1524l53 272h311l-53 -272h-311z" />
<glyph unicode="&#x402;" horiz-adv-x="1595" d="M156 1155l53 268h1147l-53 -268h-465l-64 -328q31 33 73 59.5t89 45t94 29t84 10.5q82 0 151.5 -22.5t121 -68.5t80 -119t28.5 -171q0 -137 -28.5 -252t-98.5 -199t-183.5 -131t-285.5 -47q-23 0 -45.5 1t-46.5 3l51 256q104 0 165.5 23.5t94.5 64.5t43 97.5t10 119.5 q0 68 -40.5 123.5t-139.5 55.5q-119 0 -198.5 -87.5t-108.5 -238.5l-72 -379h-309l223 1155h-370z" />
<glyph unicode="&#x403;" horiz-adv-x="1136" d="M59 0l277 1425h987l-55 -282h-678l-223 -1143h-308zM733 1604l397 284l201 -182l-477 -219z" />
<glyph unicode="&#x404;" horiz-adv-x="1204" d="M110.5 332.5q-18.5 101.5 4.5 212.5l65 336q20 111 64.5 211t118 177t179 122t251.5 45q203 0 321.5 -95.5t165.5 -263.5l-291 -112q-6 31 -22.5 62.5t-43 56t-63.5 41t-86 16.5q-59 0 -105 -19.5t-80 -52.5t-55.5 -75t-29.5 -85l-12 -57h454l-51 -266h-455l-12 -64 q-10 -47 -3 -90t29.5 -75.5t63.5 -53t100 -20.5q96 0 162 48t99 126l292 -115q-78 -166 -227 -260t-366 -94q-139 0 -236.5 45t-155 121.5t-76 178z" />
<glyph unicode="&#x405;" horiz-adv-x="1228" d="M35 207l196 225q170 -150 365 -149q129 0 187.5 45t58.5 108q0 66 -76 105t-193 67q-68 16 -132 44t-114.5 70t-81 102.5t-30.5 142.5q0 111 41 197.5t112.5 147t169 92.5t212.5 32q135 0 257.5 -31t235.5 -115l-164 -254q-72 51 -160 83t-171 32q-33 0 -70 -5 t-67.5 -20.5t-50 -42t-19.5 -67.5q0 -37 25.5 -62.5t67.5 -45t97 -35t117 -29.5q98 -25 162.5 -66t102.5 -93t53.5 -111.5t15.5 -122.5q0 -123 -48.5 -210t-129 -142.5t-187 -82t-223.5 -26.5q-158 0 -298 47t-261 170z" />
<glyph unicode="&#x406;" horiz-adv-x="589" d="M53 0l277 1425h309l-279 -1425h-307z" />
<glyph unicode="&#x407;" horiz-adv-x="589" d="M53 0l277 1425h309l-279 -1425h-307zM143 1532l52 266h297l-52 -266h-297zM582 1532l51 266h299l-51 -266h-299z" />
<glyph unicode="&#x408;" horiz-adv-x="1026" d="M-18 195l215 186q31 -45 81 -78t125 -33q94 0 137.5 50.5t63.5 154.5l184 950h308l-189 -964q-23 -111 -61.5 -200t-100 -150.5t-150.5 -94t-208 -32.5q-55 0 -113.5 15t-113 43t-101.5 66.5t-77 86.5z" />
<glyph unicode="&#x409;" horiz-adv-x="1970" d="M-18 -18l6 256q102 12 165.5 67t101.5 134t58.5 170t36.5 173l125 643h877l-109 -546h273q184 0 296.5 -102.5t112.5 -291.5q0 -125 -44 -216t-119.5 -151.5t-177 -89t-216.5 -28.5h-606l223 1143h-278l-68 -342q-29 -143 -68 -289.5t-110.5 -264.5t-186 -191.5 t-292.5 -73.5zM1124 283h277q43 0 81 9t67.5 30.5t47 55.5t17.5 81q0 76 -51.5 107.5t-118.5 31.5h-258z" />
<glyph unicode="&#x40a;" horiz-adv-x="1894" d="M43 0l276 1425h310l-107 -546h346l107 546h307l-104 -546h272q184 0 297 -102.5t113 -291.5q0 -125 -44 -216t-120 -151.5t-177.5 -89t-215.5 -28.5h-607l115 598h-344l-115 -598h-309zM1059 283h264q43 0 81 9t67.5 30.5t47 55.5t17.5 81q0 76 -51 107.5t-119 31.5h-246 z" />
<glyph unicode="&#x40b;" horiz-adv-x="1603" d="M182 1153l54 272h1177l-53 -272h-496l-57 -293l8 -2q27 25 69 45.5t89 35.5t94 23.5t88 8.5q209 0 298 -106.5t54 -286.5l-110 -578h-312l95 487q6 31 4 68t-19.5 68.5t-54.5 54t-104 22.5q-31 0 -72 -12t-80 -42t-71.5 -80t-49.5 -126l-92 -440h-309l223 1153h-373z" />
<glyph unicode="&#x40c;" horiz-adv-x="1288" d="M61 0l277 1427h307l-102 -538h86q33 0 70.5 6t76.5 27.5t77 62.5t73 113l172 323h329l-198 -383q-49 -96 -109.5 -163.5t-126.5 -96.5l-4 -12q78 -31 108.5 -102.5t41.5 -174.5l37 -489h-304l-28 395q-8 70 -28.5 114t-49.5 67.5t-64.5 31.5t-74.5 8h-138l-120 -616h-308 zM676 1604l397 284l201 -182l-477 -219z" />
<glyph unicode="&#x40e;" horiz-adv-x="1220" d="M125 -18l49 251h82q51 0 90 14.5t80 69.5l31 43l-234 1065h318l65 -383l58 -342h10l176 347l192 378h326l-567 -1030q-63 -115 -124 -193.5t-124.5 -127.5t-133 -70.5t-151.5 -21.5h-143zM543 1827h200q-4 -20 -2 -44t12.5 -45.5t29 -35.5t46.5 -14q29 0 52.5 14t42 35.5 t30 45t15.5 44.5h200q-14 -47 -42.5 -104.5t-73.5 -107.5t-109.5 -84t-150.5 -34t-138.5 34t-78 84t-31.5 107.5t-2 104.5z" />
<glyph unicode="&#x40f;" horiz-adv-x="1353" d="M59 0l271 1425h309l-217 -1140h457l217 1140h305l-271 -1425h-393l-71 -371h-279l72 371h-400z" />
<glyph unicode="&#x410;" horiz-adv-x="1323" d="M-86 0l803 1425h268l256 -1425h-321l-46 305h-458l-170 -305h-332zM557 569h279l-23 179l-29 282h-6l-133 -278z" />
<glyph unicode="&#x411;" horiz-adv-x="1222" d="M25 0l276 1425h858l-55 -282h-547l-51 -264h274q184 0 296 -102.5t112 -291.5q0 -125 -44 -216t-120 -151.5t-177.5 -89t-215.5 -28.5h-606zM389 283h264q43 0 81 9t67.5 30.5t47 55.5t17.5 81q0 76 -50 107.5t-120 31.5h-245z" />
<glyph unicode="&#x412;" horiz-adv-x="1280" d="M51 0l277 1425h555q207 0 312 -90t105 -258q0 -45 -11 -92t-36.5 -92t-68.5 -84t-107 -66l-2 -8q80 -39 119 -119.5t39 -166.5q0 -111 -47 -195t-122 -140.5t-167 -85t-180 -28.5h-666zM422 283h268q55 0 96 16t67 44t39 61.5t13 70.5q0 49 -33.5 86t-119.5 37h-269z M535 858h225q109 0 160 52.5t51 117.5q0 49 -34 85t-118 36h-225z" />
<glyph unicode="&#x413;" horiz-adv-x="1136" d="M59 0l277 1425h987l-55 -282h-678l-223 -1143h-308z" />
<glyph unicode="&#x414;" horiz-adv-x="1517" d="M-104 -330l112 592l158 33q43 33 74.5 70.5t58.5 96t53.5 146.5t61.5 223l145 594h950l-223 -1144h141l-118 -611h-256l65 330h-901l-65 -330h-256zM485 281h496l168 860h-381l-84 -330q-16 -66 -34.5 -139.5t-42 -144t-53.5 -135t-69 -111.5z" />
<glyph unicode="&#x415;" horiz-adv-x="1173" d="M59 0l277 1425h962l-53 -276h-653l-60 -295h580l-53 -272h-580l-57 -299h686l-53 -283h-996z" />
<glyph unicode="&#x416;" horiz-adv-x="1996" d="M-41 0l221 457q49 102 108.5 173.5t145.5 102.5l4 12q-59 25 -92 93.5t-43 167.5l-47 415h299l45 -356q6 -72 28.5 -113t53.5 -62.5t65.5 -27.5t67.5 -6h117l110 571h310l-111 -571h84q33 0 71 6t76.5 27.5t76.5 62.5t73 113l178 356h320l-205 -415q-47 -100 -109.5 -169 t-130.5 -96v-8q78 -31 109 -102.5t41 -173.5l45 -457h-309l-27 362q-8 70 -27.5 114t-48 67.5t-64.5 32t-75 8.5h-131l-113 -584h-309l113 584h-127q-41 0 -79 -8.5t-76 -32t-75 -67.5t-73 -114l-177 -362h-313z" />
<glyph unicode="&#x417;" horiz-adv-x="1157" d="M25 317l266 113q35 -78 103.5 -118t156.5 -40q98 0 157.5 51.5t59.5 143.5q0 72 -47 104.5t-123 32.5h-135l49 252h109q117 0 174 49t57 121q0 63 -47 98t-121 35q-78 0 -144.5 -39t-121.5 -110l-219 174q113 137 248 194.5t276 57.5q209 0 327.5 -89.5t118.5 -254.5 q0 -41 -12 -88.5t-42 -94.5t-81 -90t-129 -71q98 -41 141.5 -121t43.5 -152q0 -123 -47.5 -214t-124 -151.5t-173 -90t-196.5 -29.5q-98 0 -185.5 22.5t-156 64.5t-115.5 102.5t-67 137.5z" />
<glyph unicode="&#x418;" horiz-adv-x="1396" d="M61 0l277 1425h309l-180 -897h4q53 66 110.5 139.5t110.5 139.5q129 156 259 310.5t261 307.5h271l-271 -1425h-309l170 854h-4q-57 -74 -116.5 -152.5t-118.5 -150.5q-117 -141 -236 -278.5t-242 -272.5h-295z" />
<glyph unicode="&#x419;" horiz-adv-x="1396" d="M61 0l277 1425h309l-180 -897h4q53 66 110.5 139.5t110.5 139.5q129 156 259 310.5t261 307.5h271l-271 -1425h-309l170 854h-4q-57 -74 -116.5 -152.5t-118.5 -150.5q-117 -141 -236 -278.5t-242 -272.5h-295zM678 1827h205q-4 -20 -2 -44t12 -45.5t29.5 -35.5t48.5 -14 t53.5 14t42.5 35.5t29.5 45t15.5 44.5h205q-14 -47 -40 -104.5t-68 -107.5t-104.5 -84t-150.5 -34t-144 34t-87 84t-40 107.5t-5 104.5z" />
<glyph unicode="&#x41a;" horiz-adv-x="1288" d="M61 0l277 1427h307l-102 -538h86q33 0 70.5 6t76.5 27.5t77 62.5t73 113l172 323h329l-198 -383q-49 -96 -109.5 -163.5t-126.5 -96.5l-4 -12q78 -31 108.5 -102.5t41.5 -174.5l37 -489h-304l-28 395q-8 70 -28.5 114t-49.5 67.5t-64.5 31.5t-74.5 8h-138l-120 -616h-308 z" />
<glyph unicode="&#x41b;" horiz-adv-x="1376" d="M2 229q98 27 157.5 72t98.5 111.5t61.5 158t47.5 211.5l125 643h919l-276 -1425h-306l222 1141h-330l-66 -340q-33 -164 -69.5 -308.5t-101 -253t-167 -177t-266.5 -80.5z" />
<glyph unicode="&#x41c;" horiz-adv-x="1570" d="M59 0l277 1425h278l109 -413l96 -428h8l258 428l267 413h290l-276 -1425h-307l131 678l-6 2l-183 -289l-133 -201h-237l-58 211l-67 279l-8 -6l-131 -674h-308z" />
<glyph unicode="&#x41d;" horiz-adv-x="1353" d="M59 0l277 1425h307l-111 -571h459l111 571h305l-277 -1425h-307l115 582h-459l-112 -582h-308z" />
<glyph unicode="&#x41e;" horiz-adv-x="1277" d="M103.5 332.5q-19.5 101.5 2.5 212.5l66 336q20 111 62 211t113 177t176 122t255 45q135 0 239.5 -42t171 -116t91.5 -176.5t2 -220.5l-65 -336q-25 -127 -70 -230.5t-118 -176t-175 -111.5t-240 -39q-154 0 -260 45t-168.5 121.5t-82 178zM413 427q3 -42 25.5 -77 t67.5 -57.5t123 -22.5q61 0 106 18.5t76 51.5t49.5 77t28.5 93l82 414q8 47 -2.5 90t-38 74.5t-71.5 51t-101 19.5q-66 0 -111 -21.5t-74.5 -56t-47 -79t-25.5 -87.5l-82 -405q-8 -41 -5 -83z" />
<glyph unicode="&#x41f;" horiz-adv-x="1353" d="M59 0l277 1425h1071l-277 -1425h-307l228 1151h-459l-225 -1151h-308z" />
<glyph unicode="&#x420;" horiz-adv-x="1222" d="M59 0l277 1425h549q201 0 316.5 -99t115.5 -275q0 -127 -43 -225.5t-118 -166t-176 -103.5t-218 -36h-293l-102 -520h-308zM522 803h275q43 0 80.5 13t67.5 39t47.5 63.5t17.5 85.5q0 145 -174 145h-242z" />
<glyph unicode="&#x421;" horiz-adv-x="1220" d="M102.5 332.5q-18.5 101.5 3.5 212.5l66 336q20 111 67.5 211t123 177t184 122t254.5 45q203 0 316.5 -95.5t160.5 -263.5l-291 -112q-6 31 -22.5 63.5t-43 58t-63.5 43t-86 17.5q-68 0 -116 -20.5t-80.5 -54.5t-52 -77t-27.5 -86l-76 -387q-10 -47 -3 -90t29.5 -75.5 t63.5 -53t100 -20.5q96 0 162 48t98 126l293 -115q-78 -166 -227.5 -260t-366.5 -94q-139 0 -236 45t-154.5 121.5t-76 178z" />
<glyph unicode="&#x422;" horiz-adv-x="1116" d="M158 1153l53 272h1071l-53 -272h-381l-225 -1153h-306l224 1153h-383z" />
<glyph unicode="&#x423;" horiz-adv-x="1220" d="M125 -20l49 251h82q51 0 90 15.5t80 70.5l31 43l-234 1065h318l65 -383l58 -342h10l176 347l192 378h326l-567 -1030q-63 -115 -124 -194.5t-124.5 -128.5t-133 -70.5t-151.5 -21.5h-143z" />
<glyph unicode="&#x424;" horiz-adv-x="1570" d="M139 594q0 147 48.5 279.5t137.5 233.5t215 160.5t279 63.5l19 94h286l-18 -94q223 -16 338 -143t115 -330q0 -158 -48.5 -287t-137.5 -224t-216 -151.5t-285 -64.5l-24 -131h-287l25 131q-115 12 -199 53t-139 102.5t-82 140.5t-27 167zM432 610q0 -92 52.5 -152.5 t150.5 -78.5l135 698q-90 -6 -154.5 -51t-105.5 -111.5t-59.5 -146.5t-18.5 -158zM922 379q94 12 159.5 56t105.5 107.5t58.5 143.5t18.5 164q0 39 -11.5 79t-36 72.5t-63.5 54t-96 25.5z" />
<glyph unicode="&#x425;" horiz-adv-x="1263" d="M-90 0l616 729l-313 696h358l166 -438l336 438h359l-584 -696l336 -729h-361l-186 473l-371 -473h-356z" />
<glyph unicode="&#x426;" horiz-adv-x="1435" d="M59 0l271 1425h309l-217 -1140h457l217 1140h305l-219 -1144h184l-117 -611h-258l66 330h-998z" />
<glyph unicode="&#x427;" horiz-adv-x="1286" d="M203.5 746.5q-21.5 82.5 3.5 205.5l92 475h305l-84 -434q-23 -111 21.5 -168t165.5 -57q49 0 104 13.5t102 35.5l119 610h307l-276 -1425h-309l110 576q-68 -33 -140.5 -47.5t-150.5 -14.5q-88 0 -165.5 22.5t-130 74t-74 134z" />
<glyph unicode="&#x428;" horiz-adv-x="1927" d="M76 0l272 1425h303l-217 -1140h348l217 1140h304l-218 -1140h351l219 1140h299l-275 -1425h-1603z" />
<glyph unicode="&#x429;" horiz-adv-x="2002" d="M59 0l271 1425h309l-217 -1140h356l217 1140h310l-218 -1140h359l217 1140h307l-219 -1144h182l-116 -611h-256l63 330h-1565z" />
<glyph unicode="&#x42a;" horiz-adv-x="1529" d="M166 1143l55 282h707l-107 -546h273q184 0 295.5 -103t111.5 -291q0 -125 -44 -216t-118.5 -151.5t-176 -89t-216.5 -28.5h-606l221 1143h-395zM702 283h275q43 0 82 9t68.5 30.5t47 55.5t17.5 81q0 76 -51 107.5t-121 31.5h-256z" />
<glyph unicode="&#x42b;" horiz-adv-x="1779" d="M57 0l277 1425h311l-106 -546h274q184 0 296 -103t112 -291q0 -125 -44 -216t-120 -151.5t-177.5 -89t-215.5 -28.5h-607zM422 283h272q43 0 81 9t67.5 30.5t47 55.5t17.5 81q0 76 -50 107.5t-120 31.5h-254zM1247 0l277 1425h309l-277 -1425h-309z" />
<glyph unicode="&#x42c;" horiz-adv-x="1245" d="M57 0l277 1425h311l-106 -546h274q184 0 296 -103t112 -291q0 -125 -44 -216t-120 -151.5t-177.5 -89t-215.5 -28.5h-607zM422 283h270q43 0 81 9t67.5 30.5t47 55.5t17.5 81q0 76 -50 107.5t-120 31.5h-252z" />
<glyph unicode="&#x42d;" horiz-adv-x="1226" d="M51 348l297 113q6 -31 22.5 -62.5t43 -56.5t63.5 -41t86 -16q66 0 114 19.5t82 52t53 74.5t28 85l12 68h-463l53 266h463l10 53q8 45 3 89t-26.5 77t-60 53.5t-98.5 20.5q-80 0 -145.5 -40t-100.5 -106l-268 136q82 143 218 224t337 81q139 0 235.5 -45t153 -122 t71.5 -178.5t-5 -211.5l-60 -336q-23 -111 -66.5 -211.5t-117.5 -177t-179.5 -121.5t-250.5 -45q-203 0 -330 95t-174 263z" />
<glyph unicode="&#x42e;" horiz-adv-x="1785" d="M57 0l277 1425h309l-111 -571h162l6 27q20 111 64.5 211t115 177t172 122t240.5 45q129 0 228.5 -42t162 -116t86 -176.5t0.5 -220.5l-65 -336q-25 -127 -69 -230.5t-114.5 -176t-172 -111.5t-238.5 -39q-139 0 -238.5 45t-160 121.5t-80 178t3.5 212.5l6 37h-162 l-112 -582h-310zM943 432q5 -43 26.5 -75.5t62.5 -53t107 -20.5q113 0 166 68.5t73 170.5l76 387q8 47 1 89t-31.5 74t-65.5 50.5t-98 18.5q-59 0 -100.5 -19.5t-69 -52.5t-43 -75t-23.5 -85l-76 -387q-10 -47 -5 -90z" />
<glyph unicode="&#x42f;" horiz-adv-x="1316" d="M10 0l154 410q14 37 32.5 75.5t46 71.5t65.5 58.5t89 35.5q-31 12 -63.5 37t-58 61.5t-41 86t-13.5 110.5q4 135 55.5 227.5t130 148.5t174 79.5t187.5 23.5h602l-274 -1425h-312l117 586h-141q-37 0 -74 -8.5t-70.5 -34t-65.5 -70.5t-63 -119l-143 -354h-334zM541 969 q0 -72 46 -97.5t132 -25.5h229l60 303h-267q-86 0 -143 -49t-57 -131z" />
<glyph unicode="&#x430;" horiz-adv-x="1071" d="M82 313q0 117 23.5 242t80 229.5t148.5 172t227 67.5q47 0 104.5 -18.5t98.5 -65.5l4 2l14 72h287l-197 -1014h-286l16 80l-6 2q-18 -18 -45 -35.5t-57.5 -30t-61.5 -20.5t-55 -8q-92 0 -150.5 27.5t-90.5 73.5t-43 104.5t-11 119.5zM377 375q0 -47 24.5 -83t90.5 -36 q57 0 97 40t64.5 96.5t34.5 116.5t10 101q0 29 -4 55.5t-15 46t-32.5 31t-56.5 11.5q-61 0 -102.5 -41t-66 -100.5t-34.5 -124t-10 -113.5z" />
<glyph unicode="&#x431;" horiz-adv-x="1056" d="M61 346q0 76 11.5 177.5t32 209t50 215t66.5 195.5q47 113 116 179.5t163 102t216 50t279 24.5l19 -246q-86 -10 -168 -13t-150.5 -18.5t-123 -51t-85.5 -107.5q-16 -37 -30.5 -79t-26.5 -99h4q20 20 52 37.5t66 30t67.5 18.5t58.5 6q88 0 150.5 -27.5t101.5 -74 t57.5 -106.5t18.5 -126q0 -127 -30 -245.5t-94.5 -210t-167 -146.5t-245.5 -55q-211 0 -309.5 95t-98.5 265zM360 387q0 -53 27 -93t102 -40q86 0 147.5 82t61.5 229q0 72 -28.5 110t-91.5 38q-53 0 -93.5 -28t-68 -74t-42 -104t-14.5 -120z" />
<glyph unicode="&#x432;" horiz-adv-x="1060" d="M70.5 255q-11.5 77 9.5 167l51 221q16 74 50 142.5t91.5 123t141 87t198.5 32.5q106 0 177 -22.5t113 -59.5t59.5 -83t17.5 -91q0 -49 -32 -110.5t-95 -94.5q72 -29 104.5 -85t32.5 -111q0 -70 -31.5 -138.5t-97 -123t-166 -88t-237.5 -33.5q-121 4 -203 38.5t-127 93 t-56.5 135.5zM352 418q-14 -82 27 -125t119 -43q51 0 83.5 12t53 30.5t29 39t8.5 37.5q0 33 -24.5 52t-96.5 19h-68l39 185h66q61 0 84.5 24.5t23.5 52.5q0 29 -22 55.5t-88 26.5q-80 0 -123 -44t-57 -101z" />
<glyph unicode="&#x433;" horiz-adv-x="956" d="M39 266q0 90 33.5 150.5t86 99.5t117 62.5t127.5 39.5q47 12 90.5 21.5t75 22t51 28t19.5 37.5q0 33 -34 40t-64 7q-76 0 -154 -25.5t-149 -64.5l-103 209q98 63 217 98t232 35q66 0 129 -15.5t112 -50t80 -89t31 -130.5q0 -82 -29.5 -139t-78 -95t-109 -62.5 t-119.5 -41.5q-49 -14 -94 -24t-81 -22.5t-56.5 -28t-20.5 -37.5q0 -20 11.5 -30.5t29 -15.5t37.5 -6t39 -1q35 0 77 8t85 23.5t83 34t70 40.5l115 -211q-115 -78 -243 -112.5t-267 -34.5q-66 0 -127 15t-110.5 49t-79 87t-29.5 129z" />
<glyph unicode="&#x434;" horiz-adv-x="1105" d="M70 360q0 102 26.5 212t84 200t145.5 148.5t211 58.5q78 0 143 -26.5t108 -84.5l9 -2q4 37 7 67t3 58q0 115 -47 173.5t-162 58.5q-41 0 -87 -7.5t-101 -19.5l-52 227q162 45 289 45q125 0 209 -39.5t134 -105.5t70.5 -152t20.5 -180q-2 -109 -16 -226.5t-45 -229 t-78 -212t-114.5 -176t-154.5 -119.5t-198 -44t-187.5 29.5t-124.5 79.5t-70.5 119t-22.5 148zM365 387q0 -59 28.5 -99t91.5 -40q57 0 97.5 35.5t65 89t34.5 112t10 105.5q0 57 -34 95t-97 38q-49 0 -86 -32t-61.5 -81t-36.5 -108.5t-12 -114.5z" />
<glyph unicode="&#x435;" horiz-adv-x="1034" d="M74 362q0 125 28.5 245t93 213t166 149.5t248.5 56.5q109 0 182.5 -24.5t119.5 -64.5t65.5 -91t19.5 -103q0 -102 -49 -168.5t-126 -106.5t-172 -56.5t-187 -16.5h-43.5t-40.5 2q-2 -10 -2 -17v-15q0 -35 12 -57.5t32.5 -35t48.5 -17.5t60 -5q39 0 99.5 15.5t140.5 62.5 l123 -215q-68 -43 -129.5 -68t-116.5 -37t-105 -15t-98 -3q-72 0 -139 17.5t-118.5 60.5t-82 114.5t-30.5 179.5zM422 614q18 -2 34.5 -2h32.5q59 0 99.5 8.5t64 21.5t32.5 29.5t9 30.5q0 29 -21.5 45.5t-74.5 16.5q-55 0 -103.5 -41t-72.5 -109z" />
<glyph unicode="&#x436;" horiz-adv-x="1988" d="M-31 90l152 205q33 -31 76 -43t73 -12q39 0 79 22.5t72 66.5t52.5 111.5t20.5 159.5q0 74 -32 117t-85 43q-35 0 -79 -10.5t-89 -44.5l-105 215q84 61 171 82.5t145 21.5q129 0 215 -60.5t119 -195.5q4 -23 9 -54.5t5 -64.5l6 -6q35 49 64.5 94t57.5 89t53.5 89.5 t54.5 94.5h237l-129 -613l8 -2q37 72 67 124t56.5 97.5t53 88.5t59.5 96q82 129 181 175t208 46q86 0 160.5 -27.5t134.5 -74.5q-39 -53 -77 -100.5t-77 -98.5q-35 29 -78 41t-71 12q-39 0 -78 -23.5t-69.5 -70.5t-49 -116.5t-18.5 -162.5q0 -74 30.5 -113.5t94.5 -39.5 q35 0 76.5 14t86.5 49l138 -198q-82 -59 -165 -91t-186 -32q-135 0 -226 74.5t-105 222.5q-2 14 -2 36.5v36.5l-11 2q-29 -47 -52 -89t-47 -84t-47.5 -88t-53.5 -101h-271l123 578l-8 2q-31 -59 -58.5 -107.5t-55 -92.5t-58.5 -87t-68 -94q-41 -57 -81.5 -96.5t-86 -64 t-95.5 -35.5t-111 -11q-88 0 -171 25.5t-143 72.5z" />
<glyph unicode="&#x437;" horiz-adv-x="915" d="M-35 139l180 185q41 -41 96.5 -61.5t98.5 -20.5q84 0 122 30.5t38 69.5q0 37 -30 53.5t-75 16.5h-116l40 219h99q66 0 96.5 20.5t30.5 48.5q0 76 -109 76q-37 0 -83 -15.5t-87 -49.5l-137 188q92 66 187.5 99.5t215.5 33.5q76 0 138.5 -16.5t108.5 -48t72 -77.5t26 -104 q0 -27 -7.5 -60.5t-29 -67t-59.5 -66.5t-99 -57v-5q37 -12 63.5 -34.5t44 -49t24.5 -54t7 -52.5q0 -86 -36.5 -150.5t-97 -109.5t-140.5 -67.5t-166 -22.5q-141 0 -239.5 32.5t-176.5 116.5z" />
<glyph unicode="&#x438;" horiz-adv-x="1105" d="M108.5 196.5q-16.5 67.5 0.5 157.5l129 662h286l-116 -600q-16 -78 18.5 -117t93.5 -39q63 0 112.5 39t65.5 117l117 600h287l-197 -1016h-287l23 92h-4q-47 -45 -115.5 -73.5t-124.5 -28.5q-70 0 -130 23.5t-101 69.5t-57.5 113.5z" />
<glyph unicode="&#x439;" horiz-adv-x="1105" d="M108.5 196.5q-16.5 67.5 0.5 157.5l129 662h286l-116 -600q-16 -78 18.5 -117t93.5 -39q63 0 112.5 39t65.5 117l117 600h287l-197 -1016h-287l23 92h-4q-47 -45 -115.5 -73.5t-124.5 -28.5q-70 0 -130 23.5t-101 69.5t-57.5 113.5zM426 1483h205q-4 -20 -2 -44t12 -45.5 t29.5 -36t48.5 -14.5t53.5 14.5t43 36t29.5 45t15 44.5h205q-10 -53 -35.5 -111.5t-68.5 -106.5t-107 -80t-152 -32t-144 34t-87 84t-40 107.5t-5 104.5z" />
<glyph unicode="&#x43a;" horiz-adv-x="1071" d="M33 0l194 1010h287l-74 -385h66q25 0 48.5 4t47 19.5t48 45t48.5 78.5l119 240h301l-147 -295q-37 -74 -86 -124t-109 -67q68 -16 94.5 -70.5t32.5 -129.5l37 -326h-278l-25 240q-6 49 -19.5 79.5t-34 47t-45 22.5t-53.5 6h-90l-76 -395h-286z" />
<glyph unicode="&#x43b;" horiz-adv-x="1103" d="M-8 199q76 23 123 53.5t76.5 73.5t47 100t31.5 131l90 457h750l-197 -1014h-284l147 760h-215l-39 -195q-25 -121 -55.5 -223t-84.5 -178t-139 -121t-216 -51z" />
<glyph unicode="&#x43c;" horiz-adv-x="1259" d="M29 0l196 1014h242q47 -133 93 -265.5t91 -267.5q92 137 185.5 268.5t191.5 264.5h254l-199 -1014h-270l84 457q-53 -84 -107.5 -164t-111.5 -160h-191q-27 80 -51 161t-47 163l-90 -457h-270z" />
<glyph unicode="&#x43d;" horiz-adv-x="1085" d="M27 0l196 1014h271l-76 -396h332l75 396h269l-197 -1014h-268l78 401h-332l-78 -401h-270z" />
<glyph unicode="&#x43e;" horiz-adv-x="1056" d="M74 336q0 135 31.5 260t98 220t171.5 151.5t252 56.5q96 0 169.5 -29.5t125 -81t77 -121t25.5 -149.5q0 -117 -27.5 -233.5t-92 -211t-174 -152.5t-271.5 -58q-193 0 -289 97t-96 251zM369 385q0 -16 3 -38.5t16 -43t39 -35t71 -14.5q59 0 102 36t70.5 93t40 124.5 t12.5 133.5q0 59 -36 90t-89 31q-68 0 -112 -39t-70.5 -96.5t-36.5 -123t-10 -118.5z" />
<glyph unicode="&#x43f;" horiz-adv-x="1105" d="M37 0l199 1016h286l-14 -76h4q47 35 110.5 60.5t120.5 25.5q76 0 137.5 -23.5t100.5 -69.5t53.5 -114.5t-4.5 -156.5l-129 -662h-287l117 600q16 78 -18.5 117t-94.5 39q-63 0 -112 -39t-66 -117l-116 -600h-287z" />
<glyph unicode="&#x440;" horiz-adv-x="1071" d="M-37 -414l279 1428h284l-12 -72l4 -2q53 47 106.5 64.5t106.5 17.5q88 0 147.5 -26.5t93.5 -70.5t48 -101.5t14 -118.5q0 -125 -25.5 -252t-83 -230.5t-150.5 -169t-228 -65.5q-51 0 -108.5 20.5t-88.5 71.5l-4 -2l-96 -492h-287zM414 399q0 -25 4 -51t16 -46.5t32.5 -34 t55.5 -13.5q61 0 101.5 41t65 99.5t34.5 123t10 111.5q0 53 -23 90t-89 37q-70 0 -111 -49.5t-62.5 -112t-27.5 -120.5t-6 -75z" />
<glyph unicode="&#x441;" horiz-adv-x="901" d="M57 403q0 162 48.5 280t125 193.5t175 111.5t200.5 36t191.5 -38t154.5 -109l-204 -199q-35 45 -74 64.5t-76 19.5q-47 0 -91 -19.5t-78 -60.5t-54.5 -107.5t-20.5 -158.5q0 -86 38 -124t116 -38q39 0 81 19.5t97 66.5l152 -201q-98 -76 -192.5 -112.5t-199.5 -36.5 q-78 0 -148.5 23.5t-123.5 73.5t-85 128t-32 188z" />
<glyph unicode="&#x442;" horiz-adv-x="1703" d="M53 0l197 1014h287l-17 -82l8 -2q49 41 115 67.5t117 26.5q90 0 158.5 -37t105.5 -108q66 59 144.5 102t166.5 43q156 0 239 -92t48 -273l-127 -659h-287l117 602q16 86 -13.5 121t-99.5 35q-66 0 -113.5 -39t-64.5 -117l-116 -602h-289l119 602q29 156 -115 156 q-63 0 -112.5 -39t-63.5 -117l-119 -602h-285z" />
<glyph unicode="&#x443;" horiz-adv-x="974" d="M-88 -190q150 18 234.5 82.5t140.5 175.5l-189 946h308l43 -256q4 -25 9 -73t9 -106.5t5 -120t-3 -112.5h8q72 119 138.5 294t134.5 372l307 2q-121 -285 -233.5 -534t-250.5 -468q-53 -84 -113.5 -162.5t-138 -140t-175 -97.5t-224.5 -36z" />
<glyph unicode="&#x444;" horiz-adv-x="1392" d="M72 375q2 125 40 239.5t112.5 203.5t185 143.5t258.5 60.5l82 414h282l-82 -414q98 0 173 -32t126 -85t77 -123.5t26 -150.5q0 -123 -37 -237.5t-113 -204t-188.5 -143.5t-261.5 -56l-76 -387h-283l78 387q-94 0 -168 29.5t-125 81t-78.5 122t-27.5 152.5zM358 416 q0 -33 8.5 -62.5t27 -52t49 -38t75.5 -17.5l100 514q-63 -2 -111 -33t-81 -80t-50.5 -109.5t-17.5 -121.5zM801 246q74 2 124 36.5t79.5 86t43 110t13.5 111.5q0 31 -8.5 60.5t-26.5 53t-49 39t-76 17.5z" />
<glyph unicode="&#x445;" horiz-adv-x="1021" d="M-98 0l481 516l-270 498h344l112 -279l219 279h347l-465 -498l282 -516h-346l-123 291l-235 -291h-346z" />
<glyph unicode="&#x446;" horiz-adv-x="1105" d="M100 268q0 23 2 42.5t7 41.5l129 662h286l-116 -600q-2 -10 -3.5 -20.5t-1.5 -20.5q0 -53 32 -84t85 -31q72 0 119 43t61 111l117 602h287l-141 -723q-8 -41 -6.5 -71t12 -53.5t29 -44t46.5 -42.5l-94 -377h-223l55 287q-45 27 -66.5 66.5t-25.5 66.5q-57 -49 -137 -91 t-158 -42q-129 0 -212 72.5t-83 205.5z" />
<glyph unicode="&#x447;" horiz-adv-x="1024" d="M129 532.5q-14 59.5 2 137.5l68 344h264l-55 -279q-4 -35 -3 -61.5t13 -45t37.5 -27.5t70.5 -9q39 0 81 10t83 27l76 385h256l-188 -1014h-265l80 395q-51 -16 -113.5 -27.5t-115.5 -11.5q-74 0 -135.5 19.5t-101.5 58.5t-54 98.5z" />
<glyph unicode="&#x448;" horiz-adv-x="1703" d="M76 262q0 51 8 92l129 660h287l-117 -602q-6 -25 -6 -54q0 -57 32.5 -79.5t86.5 -22.5q72 0 117.5 44t60.5 112l117 602h286l-116 -602q-6 -25 -7 -50q0 -57 33 -81.5t86 -24.5q72 0 118 44t60 112l117 602h287l-197 -1014h-287l17 82l-8 2q-45 -35 -109.5 -64.5 t-124.5 -29.5q-82 0 -152.5 34.5t-109.5 110.5q-66 -57 -143.5 -101t-167.5 -44q-131 0 -214 67.5t-83 204.5z" />
<glyph unicode="&#x449;" horiz-adv-x="1703" d="M76 262q0 51 8 92l129 660h287l-117 -602q-6 -25 -6 -54q0 -57 32.5 -79.5t86.5 -22.5q72 0 117.5 44t60.5 112l117 602h286l-116 -602q-6 -25 -7 -50q0 -57 33 -81.5t86 -24.5q72 0 119 43t61 111l117 602h287l-141 -723q-8 -41 -6.5 -71t12 -53.5t29 -44t46.5 -42.5 l-94 -377h-223l55 287q-45 27 -66.5 66.5t-25.5 66.5q-29 -25 -63.5 -48.5t-73.5 -42t-80 -29.5t-80 -11q-82 0 -152.5 34.5t-109.5 110.5q-66 -57 -143.5 -101t-167.5 -44q-131 0 -214 67.5t-83 204.5z" />
<glyph unicode="&#x44a;" horiz-adv-x="1198" d="M45 762l49 252h557l-63 -314h180q131 0 206 -37.5t110.5 -88t44 -102.5t8.5 -79q0 -70 -28 -141.5t-89.5 -130t-157.5 -96t-233 -37.5q-188 0 -284.5 86t-96.5 233q0 53 12 115l66 340h-281zM520 350q0 -53 27.5 -76.5t109.5 -23.5q55 0 90 13t55.5 32.5t29 40t8.5 33.5 q0 33 -20.5 57.5t-84.5 24.5h-200l-7 -33q-4 -18 -6 -34.5t-2 -33.5z" />
<glyph unicode="&#x44b;" horiz-adv-x="1490" d="M92 307q0 53 12 115l117 592h275l-64 -314h180q131 0 206 -37.5t111 -88t44 -102.5t8 -79q0 -70 -27.5 -141.5t-89 -130t-158 -96t-233.5 -37.5q-188 0 -284.5 86t-96.5 233zM365 350q0 -53 27.5 -76.5t109.5 -23.5q55 0 90 13t55.5 32.5t28.5 40t8 33.5q0 33 -20.5 57.5 t-83.5 24.5h-201l-6 -33q-4 -18 -6 -34.5t-2 -33.5zM1010 0l204 1014h263l-199 -1014h-268z" />
<glyph unicode="&#x44c;" horiz-adv-x="1042" d="M92 307q0 53 12 115l117 592h275l-64 -314h180q131 0 206 -37.5t111 -88t44 -102.5t8 -79q0 -70 -27.5 -141.5t-89 -130t-158 -96t-233.5 -37.5q-188 0 -284.5 86t-96.5 233zM365 350q0 -53 27.5 -76.5t109.5 -23.5q55 0 90 13t55.5 32.5t28.5 40t8 33.5q0 33 -20.5 57.5 t-83.5 24.5h-201l-6 -33q-4 -18 -6 -34.5t-2 -33.5z" />
<glyph unicode="&#x44d;" horiz-adv-x="948" d="M18 141l187 185q37 -43 79 -57.5t81 -14.5q78 0 132 35t81 121h-254l38 198h254v19q0 57 -37.5 94t-103.5 37q-39 0 -95 -15.5t-104 -60.5l-133 211q86 74 171 102.5t188 28.5q88 0 163.5 -23.5t131 -73.5t86 -130t30.5 -191q0 -166 -43 -283.5t-114.5 -191.5 t-165.5 -107.5t-195 -33.5q-102 0 -199.5 30.5t-177.5 120.5z" />
<glyph unicode="&#x44e;" horiz-adv-x="1415" d="M16 0l197 1014h270l-77 -396h122q25 88 67 162t102.5 128.5t141.5 85t183 30.5q90 0 157.5 -29.5t113.5 -81t68.5 -121t22.5 -149.5q0 -117 -25.5 -233.5t-87 -211t-162.5 -152.5t-255 -58q-180 0 -270 97t-90 251v32.5t2 32.5h-134l-77 -401h-269zM770 385 q0 -16 3 -38.5t15.5 -43t36 -35t66.5 -14.5q57 0 97 36t64.5 93t36 124.5t11.5 133.5q0 59 -33 90t-82 31q-63 0 -105 -39t-67 -96.5t-34 -123t-9 -118.5z" />
<glyph unicode="&#x44f;" horiz-adv-x="1069" d="M-6 0l104 272q25 55 64 105.5t104 66.5q-137 66 -137 209q0 92 32 161t85 113t125.5 65.5t156.5 21.5h527l-187 -1014h-288l69 395h-86q-49 0 -87 -24.5t-73 -96.5l-108 -274h-301zM408 678q0 -29 25.5 -47.5t80.5 -18.5h178l35 164h-201q-41 0 -79.5 -19.5t-38.5 -78.5z " />
<glyph unicode="&#x451;" horiz-adv-x="1034" d="M74 362q0 125 28.5 245t93 213t166 149.5t248.5 56.5q109 0 182.5 -24.5t119.5 -64.5t65.5 -91t19.5 -103q0 -102 -49 -168.5t-126 -106.5t-172 -56.5t-187 -16.5h-43.5t-40.5 2q-2 -10 -2 -17v-15q0 -35 12 -57.5t32.5 -35t48.5 -17.5t60 -5q39 0 99.5 15.5t140.5 62.5 l123 -215q-68 -43 -129.5 -68t-116.5 -37t-105 -15t-98 -3q-72 0 -139 17.5t-118.5 60.5t-82 114.5t-30.5 179.5zM281 1180l51 266h297l-51 -266h-297zM422 614q18 -2 34.5 -2h32.5q59 0 99.5 8.5t64 21.5t32.5 29.5t9 30.5q0 29 -21.5 45.5t-74.5 16.5q-55 0 -103.5 -41 t-72.5 -109zM719 1180l51 266h299l-51 -266h-299z" />
<glyph unicode="&#x452;" horiz-adv-x="1202" d="M55 0l221 1143h-176l37 190h176l31 156h291l-31 -156h354l-36 -190h-353l-49 -252q63 68 145.5 94.5t139.5 26.5q70 0 130 -22.5t105 -71t71 -122t26 -173.5q0 -141 -34 -261t-107.5 -209.5t-188.5 -139.5t-277 -50h-28.5t-30.5 2l49 256q162 -4 235.5 88t73.5 264 q0 37 -6 69t-21.5 55.5t-44 38t-71.5 14.5q-92 0 -154.5 -73t-91.5 -208l-94 -469h-291z" />
<glyph unicode="&#x453;" horiz-adv-x="956" d="M39 266q0 90 33.5 150.5t86 99.5t117 62.5t127.5 39.5q47 12 90.5 21.5t75 22t51 28t19.5 37.5q0 33 -34 40t-64 7q-76 0 -154 -25.5t-149 -64.5l-103 209q98 63 217 98t232 35q66 0 129 -15.5t112 -50t80 -89t31 -130.5q0 -82 -29.5 -139t-78 -95t-109 -62.5 t-119.5 -41.5q-49 -14 -94 -24t-81 -22.5t-56.5 -28t-20.5 -37.5q0 -20 11.5 -30.5t29 -15.5t37.5 -6t39 -1q35 0 77 8t85 23.5t83 34t70 40.5l115 -211q-115 -78 -243 -112.5t-267 -34.5q-66 0 -127 15t-110.5 49t-79 87t-29.5 129zM426 1161l254 416l256 -88l-352 -389z " />
<glyph unicode="&#x454;" horiz-adv-x="948" d="M63 506q16 135 67.5 233.5t125.5 161t164 93t186 30.5q102 0 191.5 -38t154.5 -109l-204 -199q-35 45 -74 64.5t-76 19.5q-72 0 -125 -35t-86 -119h256l-39 -198h-250q2 -84 39 -120t115 -36q39 0 84 15.5t100 62.5l152 -201q-96 -76 -187.5 -108.5t-210.5 -32.5 q-86 0 -162.5 28.5t-132 91t-81 161t-7.5 235.5z" />
<glyph unicode="&#x455;" horiz-adv-x="966" d="M-4 150l162 192q70 -66 139.5 -90.5t155.5 -24.5q25 0 50 5.5t46.5 15.5t36 26.5t14.5 38.5q0 25 -23.5 42.5t-89.5 29.5q-49 10 -111.5 25.5t-117.5 46t-92 82t-37 133.5q0 94 36 160.5t95 109.5t134 62.5t153 19.5q49 0 102 -5t107.5 -18.5t105.5 -38t96 -61.5 l-153 -209q-37 27 -74 44.5t-72.5 25.5t-66.5 11t-51 3q-82 0 -106.5 -22.5t-24.5 -44.5q0 -18 20.5 -32.5t50 -24t63.5 -15.5t60 -10q47 -8 99.5 -23.5t97.5 -47.5t73.5 -81t28.5 -125q0 -96 -41 -163.5t-105.5 -111.5t-144.5 -64.5t-155 -20.5q-135 0 -249 30.5 t-212 129.5z" />
<glyph unicode="&#x456;" horiz-adv-x="538" d="M45 0l197 1014h286l-196 -1014h-287zM272 1169l50 256h286l-49 -256h-287z" />
<glyph unicode="&#x457;" horiz-adv-x="538" d="M45 0l197 1014h286l-196 -1014h-287zM57 1165l52 267h297l-52 -267h-297zM496 1165l51 267h299l-51 -267h-299z" />
<glyph unicode="&#x458;" horiz-adv-x="573" d="M-180 -410l49 254h68q31 0 52 14.5t35.5 34t21.5 41t11 35.5l203 1047h287l-217 -1122q-27 -137 -126.5 -220.5t-240.5 -83.5h-143zM291 1169l49 256h287l-49 -256h-287z" />
<glyph unicode="&#x459;" horiz-adv-x="1613" d="M-18 -14l4 204q80 8 129 46t77.5 90.5t43 114t24.5 116.5l88 457h715l-64 -314h181q131 0 205.5 -37.5t110.5 -88t44 -102.5t8 -79q0 -70 -27.5 -141.5t-89 -130t-157.5 -96t-234 -37.5q-188 0 -284.5 86t-96.5 233q0 53 13 115l71 366h-186q-18 -90 -34.5 -184t-41 -183 t-61.5 -169t-94.5 -138.5t-141.5 -93t-202 -34.5zM932 350q0 -53 27.5 -76.5t109.5 -23.5q55 0 90 13t55.5 32.5t28.5 40t8 33.5q0 33 -20.5 57.5t-83.5 24.5h-201l-6 -33q-4 -18 -6 -34.5t-2 -33.5z" />
<glyph unicode="&#x45a;" horiz-adv-x="1556" d="M25 0l196 1014h271l-62 -314h244l61 314h275l-64 -314h180q131 0 206 -37.5t111 -88t44 -102.5t8 -79q0 -70 -27.5 -141.5t-89 -130t-158 -96t-233.5 -37.5q-188 0 -284.5 86t-96.5 233q0 53 12 115l7 29h-242l-88 -451h-270zM879 350q0 -53 27.5 -76.5t109.5 -23.5 q55 0 90 13t55.5 32.5t28.5 40t8 33.5q0 33 -20.5 57.5t-83.5 24.5h-201l-6 -33q-4 -18 -6 -34.5t-2 -33.5z" />
<glyph unicode="&#x45b;" horiz-adv-x="1189" d="M98 0l221 1143h-147l37 190h147l31 154h287l-31 -154h338l-37 -190h-338l-41 -211l8 -2q47 35 112 59.5t120 24.5q74 0 134 -23.5t99 -70t53.5 -115t-4.5 -156.5l-124 -649h-287l112 588q16 78 -18.5 116.5t-93.5 38.5q-63 0 -112.5 -38.5t-65.5 -116.5l-113 -588h-287z " />
<glyph unicode="&#x45c;" horiz-adv-x="1071" d="M33 0l194 1010h287l-74 -385h66q25 0 48.5 4t47 19.5t48 45t48.5 78.5l119 240h301l-147 -295q-37 -74 -86 -124t-109 -67q68 -16 94.5 -70.5t32.5 -129.5l37 -326h-278l-25 240q-6 49 -19.5 79.5t-34 47t-45 22.5t-53.5 6h-90l-76 -395h-286zM528 1161l254 416l256 -88 l-352 -389z" />
<glyph unicode="&#x45e;" horiz-adv-x="974" d="M-88 -190q150 18 234.5 82.5t140.5 175.5l-189 946h308l43 -256q4 -25 9 -73t9 -106.5t5 -120t-3 -112.5h8q72 119 138.5 294t134.5 372l307 2q-121 -285 -233.5 -534t-250.5 -468q-53 -84 -113.5 -162.5t-138 -140t-175 -97.5t-224.5 -36zM326 1479h204q-4 -20 -2 -44 t12.5 -45.5t30 -36t47.5 -14.5q29 0 53.5 14.5t43 36t30 45t15.5 44.5h205q-10 -47 -35 -103.5t-70 -107.5t-109.5 -85t-152.5 -34t-143.5 34t-85 84t-38.5 107.5t-5 104.5z" />
<glyph unicode="&#x45f;" horiz-adv-x="1105" d="M108.5 196.5q-16.5 67.5 0.5 157.5l129 662h286l-116 -600q-16 -78 18.5 -117t93.5 -39q63 0 112.5 39t65.5 117l117 600h287l-197 -1016h-287l23 92h-4q-47 -45 -115.5 -73.5t-124.5 -28.5q-70 0 -130 23.5t-101 69.5t-57.5 113.5zM250 -438l80 344l252 24l-93 -368 h-239z" />
<glyph unicode="&#x490;" horiz-adv-x="1136" d="M59 0l277 1425h711l55 271h252l-107 -553h-657l-221 -1143h-310z" />
<glyph unicode="&#x491;" horiz-adv-x="913" d="M27 0l196 1014h557l45 217h226l-90 -467v2l-3 -2h-514l-149 -764h-268z" />
<glyph unicode="&#x4d9;" horiz-adv-x="1034" d="M76 272q0 100 49 168t126 108t172 56.5t187 16.5h43.5t40.5 -3q2 10 2 17.5v15.5q0 35 -12 57.5t-32.5 35t-48.5 17.5t-60 5q-39 0 -99.5 -15.5t-140.5 -62.5l-123 215q68 43 129.5 67.5t116.5 37t105.5 15.5t97.5 3q72 0 139.5 -17.5t118.5 -60.5t81.5 -114.5 t30.5 -180.5q0 -127 -28.5 -245.5t-93 -212t-166 -149.5t-248.5 -56q-109 0 -182.5 24.5t-119.5 64.5t-65.5 90t-19.5 103zM379 313q0 -29 21.5 -45t74.5 -16q55 0 103.5 41t72.5 108q-18 2 -34.5 2h-32.5q-59 0 -99.5 -8t-64 -21.5t-32.5 -29.5t-9 -31z" />
<glyph unicode="&#x1e80;" horiz-adv-x="1714" d="M197 1425h321l19 -421l8 -406h6l184 406l203 421h225l39 -419l29 -408h8l164 406l180 421h322l-650 -1425h-247l-41 463l-23 389h-6l-176 -395l-219 -457h-250zM698 1706l201 182l348 -284l-121 -117z" />
<glyph unicode="&#x1e81;" horiz-adv-x="1509" d="M88 1014h295l20 -252q8 -96 11.5 -185.5t-2.5 -201.5h8q39 68 77 146.5t72.5 162.5t66.5 168t56 162h260l29 -252q6 -47 10 -86t7 -79t4.5 -84t1.5 -101h12q66 113 131 273.5t121 328.5h315q-63 -156 -123.5 -289t-125 -255t-135.5 -237.5t-152 -232.5h-240l-27 250 q-8 68 -11 140.5t-5 164.5h-8q-66 -160 -135.5 -295t-147.5 -260h-252zM508 1485l254 92l248 -389l-144 -88z" />
<glyph unicode="&#x1e82;" horiz-adv-x="1714" d="M197 1425h321l19 -421l8 -406h6l184 406l203 421h225l39 -419l29 -408h8l164 406l180 421h322l-650 -1425h-247l-41 463l-23 389h-6l-176 -395l-219 -457h-250zM934 1604l397 284l201 -182l-477 -219z" />
<glyph unicode="&#x1e83;" horiz-adv-x="1509" d="M88 1014h295l20 -252q8 -96 11.5 -185.5t-2.5 -201.5h8q39 68 77 146.5t72.5 162.5t66.5 168t56 162h260l29 -252q6 -47 10 -86t7 -79t4.5 -84t1.5 -101h12q66 113 131 273.5t121 328.5h315q-63 -156 -123.5 -289t-125 -255t-135.5 -237.5t-152 -232.5h-240l-27 250 q-8 68 -11 140.5t-5 164.5h-8q-66 -160 -135.5 -295t-147.5 -260h-252zM813 1161l254 416l256 -88l-352 -389z" />
<glyph unicode="&#x1e84;" horiz-adv-x="1714" d="M197 1425h321l19 -421l8 -406h6l184 406l203 421h225l39 -419l29 -408h8l164 406l180 421h322l-650 -1425h-247l-41 463l-23 389h-6l-176 -395l-219 -457h-250zM709 1524l53 272h313l-53 -272h-313zM1149 1524l53 272h311l-53 -272h-311z" />
<glyph unicode="&#x1e85;" horiz-adv-x="1509" d="M88 1014h295l20 -252q8 -96 11.5 -185.5t-2.5 -201.5h8q39 68 77 146.5t72.5 162.5t66.5 168t56 162h260l29 -252q6 -47 10 -86t7 -79t4.5 -84t1.5 -101h12q66 113 131 273.5t121 328.5h315q-63 -156 -123.5 -289t-125 -255t-135.5 -237.5t-152 -232.5h-240l-27 250 q-8 68 -11 140.5t-5 164.5h-8q-66 -160 -135.5 -295t-147.5 -260h-252zM516 1165l51 267h297l-51 -267h-297zM954 1165l52 267h299l-52 -267h-299z" />
<glyph unicode="&#x1ef2;" horiz-adv-x="1214" d="M211 1425h330l84 -307l65 -276h8l172 274l203 309h332l-614 -841l-113 -584h-297l115 584zM449 1706l200 182l348 -284l-120 -117z" />
<glyph unicode="&#x1ef3;" horiz-adv-x="974" d="M-88 -190q150 18 234.5 82.5t140.5 175.5l-189 946h308l43 -256q4 -25 9 -73t9 -106.5t5 -120t-3 -112.5h8q72 119 138.5 294t134.5 372l307 2q-121 -285 -233.5 -534t-250.5 -468q-53 -84 -113.5 -162.5t-138 -140t-175 -97.5t-224.5 -36zM227 1485l254 92l248 -389 l-143 -88z" />
<glyph unicode="&#x2000;" horiz-adv-x="964" />
<glyph unicode="&#x2001;" horiz-adv-x="1929" />
<glyph unicode="&#x2002;" horiz-adv-x="964" />
<glyph unicode="&#x2003;" horiz-adv-x="1929" />
<glyph unicode="&#x2004;" horiz-adv-x="643" />
<glyph unicode="&#x2005;" horiz-adv-x="482" />
<glyph unicode="&#x2006;" horiz-adv-x="321" />
<glyph unicode="&#x2007;" horiz-adv-x="321" />
<glyph unicode="&#x2008;" horiz-adv-x="241" />
<glyph unicode="&#x2009;" horiz-adv-x="385" />
<glyph unicode="&#x200a;" horiz-adv-x="107" />
<glyph unicode="&#x2010;" horiz-adv-x="882" d="M90 393l51 269h695l-54 -269h-692z" />
<glyph unicode="&#x2011;" horiz-adv-x="882" d="M90 393l51 269h695l-54 -269h-692z" />
<glyph unicode="&#x2012;" horiz-adv-x="882" d="M90 393l51 269h695l-54 -269h-692z" />
<glyph unicode="&#x2013;" horiz-adv-x="1052" d="M45 451l49 254h975l-51 -254h-973z" />
<glyph unicode="&#x2014;" horiz-adv-x="2150" d="M45 451l49 254h2069l-49 -254h-2069z" />
<glyph unicode="&#x2015;" horiz-adv-x="2107" d="M45 449l49 253h2028l-49 -253h-2028z" />
<glyph unicode="&#x2018;" horiz-adv-x="569" d="M182 838l64 323l258 324h147l-135 -307h72l-66 -340h-340z" />
<glyph unicode="&#x2019;" horiz-adv-x="569" d="M182 838l135 307h-71l65 340h340l-63 -324l-260 -323h-146z" />
<glyph unicode="&#x201a;" horiz-adv-x="612" d="M37 -307l137 307h-74l68 340h346l-63 -324l-265 -323h-149z" />
<glyph unicode="&#x201c;" horiz-adv-x="886" d="M141 838l64 323l260 324h145l-135 -307h72l-66 -340h-340zM557 838l64 323l258 324h147l-135 -307h72l-66 -340h-340z" />
<glyph unicode="&#x201d;" horiz-adv-x="886" d="M141 838l138 307h-74l67 340h338l-61 -324l-260 -323h-148zM557 838l135 307h-71l65 340h340l-63 -324l-258 -323h-148z" />
<glyph unicode="&#x201e;" horiz-adv-x="1019" d="M37 -307l137 307h-74l68 340h338l-62 -324l-260 -323h-147zM453 -307l135 307h-72l66 340h340l-64 -324l-258 -323h-147z" />
<glyph unicode="&#x2020;" horiz-adv-x="1024" d="M98 731l45 238h334l88 456h283l-88 -456h334l-47 -238h-334l-209 -1077h-283l209 1077h-332z" />
<glyph unicode="&#x2021;" horiz-adv-x="1044" d="M-6 199l47 237h340l57 295h-340l45 238h340l90 456h289l-90 -456h338l-45 -238h-338l-57 -295h338l-47 -237h-338l-105 -545h-289l105 545h-340z" />
<glyph unicode="&#x2022;" horiz-adv-x="976" d="M193 578q0 68 25.5 126t69.5 102t102.5 69.5t125.5 25.5q68 0 126 -25.5t102 -69.5t70 -102.5t26 -125.5q0 -68 -26 -126.5t-70 -102.5t-102 -69.5t-126 -25.5t-126 25.5t-102 69.5t-69.5 102.5t-25.5 126.5z" />
<glyph unicode="&#x2023;" horiz-adv-x="1196" d="M166 12v1129l948 -553z" />
<glyph unicode="&#x2026;" horiz-adv-x="2105" d="M92 0l66 338h346l-66 -338h-346zM813 0l66 338h346l-66 -338h-346zM1493 0l66 338h346l-66 -338h-346z" />
<glyph unicode="&#x202f;" horiz-adv-x="385" />
<glyph unicode="&#x2030;" horiz-adv-x="2607" d="M250 831l65 340q23 125 111 193t215 68q59 0 113.5 -18.5t93.5 -52.5t58.5 -84t6.5 -114l-69 -340q-25 -131 -107 -194.5t-215 -63.5q-61 0 -115.5 20.5t-92.5 55.5t-56 84t-8 106zM311 -35l1157 1495h242l-1159 -1495h-240zM467 825q-4 -33 17.5 -51t56.5 -18 q68 0 84 78l67 337q6 35 -14.5 53.5t-54.5 18.5q-35 0 -58.5 -21.5t-29.5 -58.5zM1112 260l66 340q23 125 110.5 192.5t214.5 67.5q59 0 113.5 -18.5t93.5 -52t58.5 -84t7.5 -113.5l-70 -340q-25 -131 -106.5 -194.5t-215.5 -63.5q-61 0 -115.5 20.5t-92 55t-56 84 t-8.5 106.5zM1329 254q-4 -33 17.5 -51.5t56.5 -18.5q68 0 84 78l67 338q6 35 -14 53.5t-55 18.5t-58.5 -21.5t-29.5 -58.5zM1825 260l65 340q23 125 111 192.5t215 67.5q59 0 113.5 -18.5t93.5 -52t58.5 -84t6.5 -113.5l-69 -340q-25 -131 -107 -194.5t-215 -63.5 q-61 0 -115.5 20.5t-92.5 55t-56 84t-8 106.5zM2042 254q-4 -33 17.5 -51.5t56.5 -18.5q68 0 84 78l67 338q6 35 -14.5 53.5t-54.5 18.5q-35 0 -58.5 -21.5t-30.5 -58.5z" />
<glyph unicode="&#x2039;" horiz-adv-x="827" d="M100 459l385 438h287l-379 -438l207 -439h-287z" />
<glyph unicode="&#x203a;" horiz-adv-x="827" d="M14 20l379 439l-207 438h287l213 -438l-385 -439h-287z" />
<glyph unicode="&#x2044;" horiz-adv-x="434" d="M-373 -35l1157 1495h242l-1159 -1495h-240z" />
<glyph unicode="&#x205f;" horiz-adv-x="482" />
<glyph unicode="&#x2070;" horiz-adv-x="708" d="M106 1016l66 340q23 125 111 192.5t215 67.5q59 0 113.5 -18.5t93 -52.5t58 -84t7.5 -113l-70 -340q-25 -131 -106.5 -194.5t-214.5 -63.5q-61 0 -115.5 20.5t-92.5 55t-56.5 83.5t-8.5 107zM324 1010q-4 -33 17 -51.5t56 -18.5q68 0 84 78l68 338q6 35 -14.5 53 t-55.5 18t-58.5 -21.5t-29.5 -57.5z" />
<glyph unicode="&#x2074;" horiz-adv-x="722" d="M63 870l29 158l426 582h250l-410 -549h107l31 131h223l-31 -131h72l-35 -191h-74l-20 -114h-223l24 114h-369z" />
<glyph unicode="&#x2075;" horiz-adv-x="716" d="M113 999l209 29q2 -47 26.5 -65.5t46.5 -18.5q35 0 57.5 19.5t35 46t16.5 55.5t4 49q-2 29 -15.5 46.5t-50.5 17.5q-25 0 -50 -15.5t-50 -54.5h-197l99 502h551l-35 -195h-340l-12 -76q51 23 102 23q61 0 104 -16.5t70 -45t39 -65.5t12 -76q2 -84 -19.5 -158.5 t-65.5 -130t-112.5 -88t-162.5 -32.5q-49 0 -95.5 14t-83 45t-59 78t-24.5 112z" />
<glyph unicode="&#x2076;" horiz-adv-x="702" d="M104 971q-2 51 17.5 104t54.5 101l334 434h250l-248 -328h2q100 0 152.5 -56.5t54.5 -142.5q2 -92 -32 -155.5t-86 -103.5t-117 -57t-126 -17q-66 0 -113.5 17t-79.5 48t-47.5 71t-15.5 85zM328 999q0 -29 18.5 -42t44.5 -13q14 0 31.5 6t33 19.5t24.5 34t9 49.5t-16 44 t-43 15q-16 0 -34.5 -7t-34 -21.5t-24.5 -36t-9 -48.5z" />
<glyph unicode="&#x2077;" horiz-adv-x="696" d="M102 756l428 659h-114l-23 -110h-223l61 305h598l-32 -170l-457 -684h-238z" />
<glyph unicode="&#x2078;" horiz-adv-x="724" d="M125 979q-2 66 26.5 126t106.5 95q-53 47 -53 119q-2 61 22.5 114.5t70.5 94.5t109.5 64.5t139.5 23.5q123 0 191.5 -61.5t70.5 -157.5q2 -68 -34 -117t-91 -84q35 -29 55.5 -72t20.5 -84q2 -66 -29 -120t-81 -91.5t-113.5 -58t-130.5 -20.5q-125 0 -202 62t-79 167z M344 1004q0 -27 20.5 -45.5t59.5 -18.5q49 0 84 30.5t33 71.5q0 27 -22.5 43.5t-57.5 16.5q-43 0 -81 -27.5t-36 -70.5zM426 1335q0 -25 18.5 -37t47.5 -12q35 0 67.5 24.5t30.5 63.5q0 53 -66 53q-41 0 -70.5 -25.5t-27.5 -66.5z" />
<glyph unicode="&#x2079;" horiz-adv-x="710" d="M127 756l248 327h-2q-100 0 -152.5 56.5t-54.5 142.5q-2 82 28.5 145.5t81 104.5t112.5 62.5t128 21.5q129 0 196.5 -64.5t69.5 -154.5q2 -51 -17.5 -105.5t-53.5 -101.5l-334 -434h-250zM397 1315q0 -31 16.5 -46.5t43.5 -15.5q16 0 34.5 7.5t34 21.5t24.5 35.5t9 48.5 q0 29 -18.5 43t-44.5 14q-14 0 -32 -6t-33 -19.5t-24.5 -34t-9.5 -48.5z" />
<glyph unicode="&#x207a;" horiz-adv-x="733" d="M80 1040l33 168h252l43 217h194l-43 -217h252l-33 -168h-252l-43 -221h-194l43 221h-252z" />
<glyph unicode="&#x207b;" horiz-adv-x="585" d="M176 981l35 188h479l-35 -188h-479z" />
<glyph unicode="&#x207c;" horiz-adv-x="733" d="M59 907l31 162h701l-31 -162h-701zM111 1178l32 161h701l-33 -161h-700z" />
<glyph unicode="&#x207d;" horiz-adv-x="495" d="M115 1036q0 94 32.5 182.5t88 169t126 153.5t144.5 134l125 -82q-123 -123 -206 -273.5t-83 -309.5q0 -84 27.5 -170t79.5 -168l-148 -88q-78 96 -132 212.5t-54 239.5z" />
<glyph unicode="&#x207e;" horiz-adv-x="495" d="M10 678q57 57 109.5 123.5t92.5 139.5t62.5 150.5t22.5 155.5q0 82 -24.5 171t-82.5 179l152 78q76 -94 129 -202.5t53 -229.5q0 -98 -33.5 -189t-89 -175t-127 -158t-147.5 -137z" />
<glyph unicode="&#x207f;" horiz-adv-x="739" d="M109 571l127 672h217l-11 -43q31 25 76 38t78 13q109 0 168 -62.5t37 -184.5l-80 -433h-219l73 398q8 41 -11 63.5t-54 22.5q-37 0 -67.5 -24.5t-41.5 -65.5l-73 -394h-219z" />
<glyph unicode="&#x2080;" horiz-adv-x="708" d="M4 76l66 340q23 125 110.5 192.5t214.5 67.5q59 0 113.5 -18.5t93.5 -52.5t58.5 -84t7.5 -113l-70 -340q-25 -131 -106.5 -194.5t-215.5 -63.5q-61 0 -115.5 20t-92 55t-56 84t-8.5 107zM221 70q-4 -33 17.5 -51.5t56.5 -18.5q68 0 84 78l67 338q6 35 -14 53t-55 18 t-58.5 -21.5t-29.5 -57.5z" />
<glyph unicode="&#x2081;" horiz-adv-x="583" d="M92 342l45 225l182 103h193l-168 -854h-221l121 612z" />
<glyph unicode="&#x2082;" horiz-adv-x="702" d="M-55 -184l30 170l435 381q18 16 24 32.5t4 34.5q0 20 -14 33.5t-43 13.5t-59.5 -20.5t-49.5 -79.5l-213 43q18 59 53 106.5t80.5 79t97.5 49t105 17.5q55 0 104.5 -12.5t87.5 -37t60.5 -62.5t22.5 -91q0 -31 -8.5 -62.5t-23.5 -61.5t-34.5 -55.5t-40.5 -43.5 q-39 -37 -72.5 -66.5t-65.5 -57.5t-64.5 -55.5t-69.5 -60.5h291l-39 -194h-598z" />
<glyph unicode="&#x2083;" horiz-adv-x="708" d="M-18 63l211 29q2 -53 24.5 -70.5t54.5 -17.5q47 0 78 28.5t29 71.5q0 29 -18.5 50.5t-51.5 21.5h-119l29 162h107q43 0 76.5 26.5t31.5 65.5q0 23 -18.5 37t-46.5 14q-25 0 -57.5 -17.5t-45.5 -66.5l-215 35q41 127 133 185.5t209 58.5q63 0 114.5 -18.5t86.5 -49 t54.5 -71.5t19.5 -86q2 -61 -32 -113.5t-93 -85.5q41 -25 55 -63.5t14 -77.5q2 -68 -25.5 -123.5t-75.5 -95t-110.5 -61t-132.5 -21.5q-49 0 -100 14t-92 45t-66.5 79t-27.5 115z" />
<glyph unicode="&#x2084;" horiz-adv-x="722" d="M-55 -70l28 158l426 582h250l-409 -549h106l31 131h223l-31 -131h72l-35 -191h-74l-20 -114h-223l24 114h-368z" />
<glyph unicode="&#x2085;" horiz-adv-x="716" d="M2 59l209 29q2 -47 26.5 -65.5t47.5 -18.5q35 0 57.5 19.5t34.5 46t16 55.5t4 49q-2 29 -15 46.5t-50 17.5q-25 0 -50.5 -15.5t-50.5 -54.5h-196l98 502h551l-35 -195h-340l-12 -76q51 23 102 23q61 0 104.5 -16.5t70 -45t39 -65.5t12.5 -76q2 -84 -19.5 -158.5 t-65.5 -130t-113 -88t-163 -32.5q-49 0 -95 14t-83 45t-59.5 78t-24.5 112z" />
<glyph unicode="&#x2086;" horiz-adv-x="702" d="M0 31q-2 51 17.5 104t54.5 101l334 434h249l-247 -328h2q100 0 152 -56.5t54 -142.5q2 -92 -31.5 -155.5t-86 -103.5t-117 -57t-125.5 -17q-66 0 -114 17t-79.5 48t-47 71t-15.5 85zM223 59q0 -29 18.5 -42t45.5 -13q14 0 31.5 6t33 19.5t24.5 34t9 49.5t-16 44t-43 15 q-16 0 -35 -7t-34 -21.5t-24.5 -36t-9.5 -48.5z" />
<glyph unicode="&#x2087;" horiz-adv-x="696" d="M-18 -184l428 659h-115l-23 -110h-223l62 305h598l-33 -170l-457 -684h-237z" />
<glyph unicode="&#x2088;" horiz-adv-x="724" d="M-4 39q-2 66 26.5 126t106.5 95q-53 47 -53 119q-2 61 22.5 114.5t70.5 94.5t109.5 64.5t139.5 23.5q123 0 191.5 -61.5t70.5 -157.5q2 -68 -34 -117t-91 -84q35 -29 55.5 -72t20.5 -84q2 -66 -29 -120t-81 -92t-113.5 -58t-131.5 -20q-125 0 -201.5 62t-78.5 167z M215 63q0 -27 20.5 -45t59.5 -18q49 0 84 30.5t33 71.5q0 27 -22.5 43.5t-57.5 16.5q-43 0 -81 -28t-36 -71zM297 395q0 -25 18.5 -37t46.5 -12q35 0 68 24.5t31 63.5q0 53 -66 53q-41 0 -70.5 -25.5t-27.5 -66.5z" />
<glyph unicode="&#x2089;" horiz-adv-x="710" d="M12 -186l248 327h-2q-100 0 -152.5 56.5t-54.5 142.5q-2 82 29 145.5t81 104.5t112 62.5t128 21.5q129 0 197 -64.5t70 -154.5q2 -51 -17.5 -105.5t-54.5 -101.5l-334 -434h-250zM283 373q0 -31 16 -46.5t43 -15.5q16 0 34.5 7.5t34 21.5t24.5 35.5t9 48.5q0 29 -18 43 t-45 14q-14 0 -31.5 -6t-33 -19.5t-24.5 -34t-9 -48.5z" />
<glyph unicode="&#x208a;" horiz-adv-x="733" d="M-39 100l33 168h252l43 217h194l-43 -217h252l-33 -168h-251l-43 -221h-195l43 221h-252z" />
<glyph unicode="&#x208b;" horiz-adv-x="585" d="M-4 41l35 188h479l-35 -188h-479z" />
<glyph unicode="&#x208c;" horiz-adv-x="733" d="M-51 -33l31 162h700l-31 -162h-700zM0 238l33 161h700l-33 -161h-700z" />
<glyph unicode="&#x208d;" horiz-adv-x="495" d="M31 158q0 94 32.5 182t88 169t126 153.5t144.5 134.5l125 -82q-123 -123 -206 -273.5t-83 -310.5q0 -84 27.5 -170t79.5 -168l-148 -88q-78 96 -132 213t-54 240z" />
<glyph unicode="&#x208e;" horiz-adv-x="495" d="M-72 -201q57 57 109.5 124t92.5 139.5t62.5 150.5t22.5 156q0 82 -24.5 171t-81.5 179l151 78q76 -94 129 -203t53 -229q0 -98 -33.5 -189.5t-89 -175.5t-127 -157.5t-147.5 -137.5z" />
<glyph unicode="&#x20ab;" horiz-adv-x="1126" d="M35 -8l41 215h731l-41 -215h-731zM150 530q0 31 4 83.5t18 112.5t40 120.5t69 110t104.5 80t149.5 30.5q41 0 88 -13.5t69 -43.5l23 114h-170l30 156h170l25 123h260l-24 -123h73l-30 -156h-74l-164 -845h-260l8 47q-35 -25 -83 -39.5t-83 -14.5q-76 0 -123 21.5 t-73.5 57.5t-36.5 83t-10 96zM424 590q0 -35 15.5 -61.5t62.5 -26.5q45 0 72.5 32.5t41 75.5t17.5 84t4 56q0 35 -14.5 60.5t-55.5 25.5q-43 0 -71.5 -26t-44 -62.5t-21.5 -79.5t-6 -78z" />
<glyph unicode="&#x20ac;" horiz-adv-x="1126" d="M59 508l33 168h78q2 8 3 19.5t9 37.5h-76l27 166h78q20 106 67.5 201.5t121 167t171 113.5t215.5 42q176 0 285 -93t150 -247l-283 -108q-6 35 -23.5 63.5t-44 48t-57.5 28.5t-63 9q-92 -2 -150.5 -59t-83.5 -166h340l-27 -166h-348q-2 -6 -5 -18.5t-7 -38.5h348 l-33 -168h-346q-4 -16 -4 -31.5v-30.5q0 -76 42 -118.5t128 -42.5q66 0 127.5 40t102.5 115l262 -106q-92 -170 -226.5 -258t-320.5 -88q-104 0 -183 29.5t-132.5 83t-81 127t-27.5 163.5q0 29 2 56.5t8 60.5h-76z" />
<glyph unicode="&#x2105;" horiz-adv-x="1736" d="M209 987q0 117 38 202t97 140t135 81t150 26t135 -28t113 -89l-166 -158q-53 63 -105 64q-63 0 -108 -47.5t-45 -157.5q0 -59 21 -85t56 -26q25 0 56.5 14.5t79.5 51.5l129 -156q-80 -72 -158 -98.5t-152 -26.5q-57 0 -107 16.5t-88 52.5t-59.5 91t-21.5 133zM238 -35 l1157 1495h241l-1159 -1495h-239zM977 252q0 231 101.5 357t287.5 126q59 0 113.5 -16.5t94.5 -48t63.5 -80.5t23.5 -113q0 -129 -29.5 -221t-80 -151.5t-119 -87t-146.5 -27.5q-66 0 -122 17.5t-98 50t-65.5 81.5t-23.5 113zM1219 297q0 -43 20.5 -67.5t54.5 -24.5 q49 0 87 51t38 174q0 53 -21.5 72.5t-54.5 19.5q-53 0 -88.5 -58t-35.5 -167z" />
<glyph unicode="&#x2116;" horiz-adv-x="2076" d="M61 0l277 1425h280l173 -438l153 -409l6 2l164 845h316l-277 -1425h-281l-219 526l-108 320l-4 -2l-164 -844h-316zM1419 494l33 172h561l-33 -172h-561zM1460 995q0 88 21.5 170t67.5 144.5t121 99.5t179 37q137 0 207 -74t72 -182q2 -78 -15.5 -155t-61.5 -138 t-120 -99t-188 -38q-139 0 -211 65.5t-72 169.5zM1688 1026q0 -8 3 -20.5t11 -23.5t22.5 -19.5t38.5 -8.5q37 0 62.5 22.5t42 56.5t23.5 75t7 80q0 33 -20 50t-51 17q-41 0 -68.5 -23.5t-43 -58t-21.5 -74.5t-6 -73z" />
<glyph unicode="&#x2122;" horiz-adv-x="1875" d="M76 1229v196h723v-196h-254v-668h-215v668h-254zM893 561v862h188l222 -477l208 477h197v-862h-207l-4 365l-117 -252h-161l-119 254v-367h-207z" />
<glyph unicode="&#x2153;" horiz-adv-x="1894" d="M219 -35l1157 1495h242l-1159 -1495h-240zM281 1098l45 225l182 102h192l-168 -854h-221l121 613zM1067 248l211 28q2 -53 24.5 -70.5t55.5 -17.5q47 0 77.5 29t28.5 72q0 29 -18.5 50t-50.5 21h-119l29 162h106q43 0 77 26.5t32 65.5q0 23 -18.5 37.5t-47.5 14.5 q-25 0 -57.5 -17.5t-44.5 -66.5l-215 34q41 127 133 185.5t209 58.5q63 0 114.5 -18.5t86 -49t54 -71.5t19.5 -86q2 -61 -31.5 -113.5t-93.5 -85.5q41 -25 55.5 -63.5t14.5 -77.5q2 -68 -25.5 -123t-76 -95t-111 -61.5t-131.5 -21.5q-49 0 -100.5 14.5t-92.5 45t-66.5 78.5 t-27.5 116z" />
<glyph unicode="&#x2154;" horiz-adv-x="1894" d="M123 571l31 170l434 381q18 16 24 32.5t4 35.5q0 20 -14 33.5t-43 13.5t-59.5 -20.5t-48.5 -79.5l-213 43q18 59 53 106t80 79t97 49.5t105 17.5q55 0 104.5 -12.5t87.5 -37t60.5 -62.5t22.5 -91q0 -31 -8.5 -62.5t-23.5 -61.5t-34.5 -55.5t-40.5 -43.5 q-39 -37 -72.5 -67t-65.5 -57.5t-64.5 -55t-69.5 -60.5h291l-39 -195h-598zM350 -35l1157 1495h242l-1159 -1495h-240zM1178 248l211 28q2 -53 24.5 -70.5t54.5 -17.5q47 0 78 29t29 72q0 29 -18.5 50t-51.5 21h-119l29 162h107q43 0 76.5 26.5t31.5 65.5q0 23 -18.5 37.5 t-46.5 14.5q-25 0 -57.5 -17.5t-45.5 -66.5l-215 34q41 127 133.5 185.5t208.5 58.5q63 0 114.5 -18.5t86.5 -49t54.5 -71.5t19.5 -86q2 -61 -32 -113.5t-93 -85.5q41 -25 55 -63.5t14 -77.5q2 -68 -25.5 -123t-75.5 -95t-110.5 -61.5t-132.5 -21.5q-49 0 -100 14.5t-92 45 t-66.5 78.5t-27.5 116z" />
<glyph unicode="&#x2155;" horiz-adv-x="1894" d="M180 -35l1157 1495h242l-1159 -1495h-240zM264 1098l45 225l183 102h192l-168 -854h-221l121 613zM1087 244l209 28q2 -47 27 -65.5t47 -18.5q35 0 57.5 19.5t35 46.5t16.5 55.5t4 48.5q-2 29 -15.5 46.5t-50.5 17.5q-25 0 -50.5 -15.5t-49.5 -54.5h-197l99 502h550 l-34 -195h-340l-13 -75q51 23 103 22q61 0 104 -16.5t70 -45t39 -65.5t12 -76q2 -84 -19.5 -158.5t-65.5 -130t-112.5 -88t-162.5 -32.5q-49 0 -95.5 14.5t-83 45t-59 77.5t-25.5 113z" />
<glyph unicode="&#x2156;" horiz-adv-x="1894" d="M102 571l31 170l434 381q18 16 24.5 32.5t4.5 35.5q0 20 -14.5 33.5t-42.5 13.5q-29 0 -59.5 -20.5t-49.5 -79.5l-213 43q18 59 53 106t80 79t97.5 49.5t105.5 17.5q55 0 104.5 -12.5t87 -37t60 -62.5t22.5 -91q0 -31 -8 -62.5t-23.5 -61.5t-35 -55.5t-39.5 -43.5 q-39 -37 -73 -67t-65.5 -57.5t-64.5 -55t-69 -60.5h290l-39 -195h-598zM281 -35l1157 1495h241l-1159 -1495h-239zM1133 244l208 28q2 -47 27 -65.5t47 -18.5q35 0 57.5 19.5t35 46.5t16.5 55.5t4 48.5q-2 29 -15.5 46.5t-50.5 17.5q-25 0 -50.5 -15.5t-49.5 -54.5h-197 l99 502h551l-35 -195h-340l-13 -75q51 23 103 22q61 0 104 -16.5t70 -45t39 -65.5t12 -76q2 -84 -19.5 -158.5t-65.5 -130t-112.5 -88t-162.5 -32.5q-49 0 -95.5 14.5t-83 45t-59 77.5t-24.5 113z" />
<glyph unicode="&#x2157;" horiz-adv-x="1894" d="M141 819l211 29q2 -53 24.5 -70.5t55.5 -17.5q47 0 78 28.5t29 71.5q0 29 -18.5 50.5t-51.5 21.5h-119l29 162h106q43 0 77 26.5t32 65.5q0 23 -18.5 37t-47.5 14q-25 0 -57.5 -17.5t-44.5 -66.5l-215 35q41 127 133 185.5t209 58.5q63 0 114.5 -18.5t86 -49.5t54 -72 t19.5 -86q2 -61 -31.5 -113.5t-93.5 -84.5q41 -25 55.5 -64t14.5 -78q2 -68 -25.5 -123t-75.5 -95t-110.5 -61.5t-132.5 -21.5q-49 0 -100.5 14.5t-92 45t-66.5 79t-28 115.5zM250 -35l1157 1495h242l-1160 -1495h-239zM1126 244l209 28q2 -47 26.5 -65.5t47.5 -18.5 q35 0 57.5 19.5t34.5 46.5t16.5 55.5t4.5 48.5q-2 29 -15.5 46.5t-50.5 17.5q-25 0 -50.5 -15.5t-49.5 -54.5h-197l98 502h551l-34 -195h-340l-13 -75q51 23 103 22q61 0 104 -16.5t69.5 -45t39 -65.5t12.5 -76q2 -84 -19.5 -158.5t-65.5 -130t-112.5 -88t-162.5 -32.5 q-49 0 -95.5 14.5t-83 45t-59.5 77.5t-25 113z" />
<glyph unicode="&#x2158;" horiz-adv-x="1894" d="M98 686l29 158l426 581h250l-410 -548h107l30 131h224l-31 -131h72l-35 -191h-74l-20 -115h-224l25 115h-369zM285 -35l1157 1495h241l-1159 -1495h-239zM1155 244l209 28q2 -47 26.5 -65.5t47.5 -18.5q35 0 57.5 19.5t34.5 46.5t16 55.5t4 48.5q-2 29 -15 46.5t-50 17.5 q-25 0 -50.5 -15.5t-50.5 -54.5h-196l98 502h551l-35 -195h-340l-12 -75q51 23 102 22q61 0 104.5 -16.5t70 -45t39 -65.5t12.5 -76q2 -84 -19.5 -158.5t-65.5 -130t-113 -88t-163 -32.5q-49 0 -95 14.5t-83 45t-59.5 77.5t-24.5 113z" />
<glyph unicode="&#x2159;" horiz-adv-x="1894" d="M246 -35l1157 1495h242l-1160 -1495h-239zM299 1098l45 225l182 102h193l-168 -854h-221l121 613zM1014 215q-2 51 17.5 104.5t53.5 100.5l334 434h250l-248 -328h2q100 0 152.5 -56t54.5 -142q2 -92 -31.5 -155.5t-86 -103.5t-117 -57.5t-125.5 -17.5q-66 0 -114 17.5 t-80 48t-47 70.5t-15 85zM1237 244q0 -29 18.5 -42.5t44.5 -13.5q14 0 32 6.5t33 19.5t24.5 33.5t9.5 49.5t-16.5 44t-43.5 15q-16 0 -34.5 -7t-34 -21.5t-24.5 -36t-9 -47.5z" />
<glyph unicode="&#x215a;" horiz-adv-x="1896" d="M160 815l209 29q2 -47 26.5 -65.5t46.5 -18.5q35 0 57.5 19.5t35 46t16.5 55t4 49.5q-2 29 -15.5 46t-50.5 17q-25 0 -50 -15t-50 -54h-196l98 501h551l-35 -194h-340l-12 -76q51 23 102 23q61 0 104.5 -16.5t70 -45.5t38.5 -65.5t12 -75.5q2 -84 -19.5 -159t-65.5 -130 t-112.5 -88t-162.5 -33q-49 0 -95 14.5t-83 45t-59.5 78t-24.5 112.5zM319 -35l1158 1495h241l-1159 -1495h-240zM1071 215q-2 51 17.5 104.5t54.5 100.5l334 434h249l-247 -328h2q100 0 152.5 -56t54.5 -142q2 -92 -32 -155.5t-86 -103.5t-117 -57.5t-126 -17.5 q-66 0 -114 17.5t-79.5 48t-47 70.5t-15.5 85zM1294 244q0 -29 18.5 -42.5t45.5 -13.5q14 0 31.5 6.5t33 19.5t24.5 33.5t9 49.5t-16 44t-43 15q-16 0 -35 -7t-34 -21.5t-24.5 -36t-9.5 -47.5z" />
<glyph unicode="&#x215b;" horiz-adv-x="1894" d="M172 -35l1157 1495h242l-1159 -1495h-240zM231 1098l45 225l183 102h192l-168 -854h-221l121 613zM1034 223q-2 66 27 126.5t106 94.5q-25 23 -39 53.5t-14 65.5q-2 61 22.5 114.5t70.5 94.5t109.5 64.5t139.5 23.5q123 0 191.5 -61.5t70.5 -157.5q2 -68 -33.5 -117 t-91.5 -84q35 -29 55.5 -71.5t20.5 -83.5q2 -66 -28.5 -120t-81 -92t-114 -58.5t-130.5 -20.5q-125 0 -202 62.5t-79 166.5zM1253 248q0 -27 20.5 -45.5t59.5 -18.5q49 0 84 31t33 72q0 27 -22.5 43t-57.5 16q-43 0 -81 -27.5t-36 -70.5zM1335 580q0 -25 18.5 -37.5 t47.5 -12.5q35 0 67.5 25t30.5 63q1 54 -65 54q-41 0 -71 -25.5t-28 -66.5z" />
<glyph unicode="&#x215c;" horiz-adv-x="1894" d="M115 819l211 29q2 -53 24.5 -70.5t55.5 -17.5q47 0 77.5 28.5t28.5 71.5q0 29 -18.5 50.5t-51.5 21.5h-118l28 162h107q43 0 76.5 26.5t31.5 65.5q0 23 -18.5 37t-46.5 14q-25 0 -57.5 -17.5t-45.5 -66.5l-215 35q41 127 133.5 185.5t208.5 58.5q63 0 114.5 -18.5 t86.5 -49.5t54.5 -72t19.5 -86q2 -61 -32 -113.5t-93 -84.5q41 -25 55 -64t14 -78q2 -68 -25.5 -123t-75.5 -95t-110.5 -61.5t-132.5 -21.5q-49 0 -100 14.5t-92 45t-66.5 79t-27.5 115.5zM287 -35l1157 1495h242l-1160 -1495h-239zM1120 223q-2 66 27 126.5t106 94.5 q-25 23 -39 53.5t-14 65.5q-2 61 22.5 114.5t70.5 94.5t109.5 64.5t139.5 23.5q123 0 191.5 -61.5t70.5 -157.5q2 -68 -33.5 -117t-91.5 -84q35 -29 55.5 -71.5t20.5 -83.5q2 -66 -28.5 -120t-81 -92t-114 -58.5t-130.5 -20.5q-125 0 -202 62.5t-79 166.5zM1339 248 q0 -27 20.5 -45.5t59.5 -18.5q49 0 84 31t33 72q0 27 -22.5 43t-57.5 16q-43 0 -81 -27.5t-36 -70.5zM1421 580q0 -25 18.5 -37.5t47.5 -12.5q35 0 67.5 25t30.5 63q1 54 -65 54q-41 0 -71 -25.5t-28 -66.5z" />
<glyph unicode="&#x215d;" horiz-adv-x="1894" d="M104 815l209 29q2 -47 27 -65.5t47 -18.5q35 0 57.5 19.5t35 46t16.5 55t4 49.5q-2 29 -15.5 46t-50.5 17q-25 0 -50.5 -15t-49.5 -54h-197l99 501h550l-34 -194h-340l-13 -76q51 23 103 23q61 0 104 -16.5t69.5 -45.5t39 -65.5t12.5 -75.5q2 -84 -19.5 -159t-65.5 -130 t-112.5 -88t-162.5 -33q-49 0 -95.5 14.5t-83 45t-59.5 78t-25 112.5zM258 -35l1157 1495h242l-1159 -1495h-240zM1122 223q-2 66 27 126.5t106 94.5q-25 23 -39 53.5t-14 65.5q-2 61 22.5 114.5t70.5 94.5t109.5 64.5t139.5 23.5q123 0 191.5 -61.5t70.5 -157.5 q2 -68 -33.5 -117t-91.5 -84q35 -29 55.5 -71.5t20.5 -83.5q2 -66 -28.5 -120t-81 -92t-114 -58.5t-130.5 -20.5q-125 0 -202 62.5t-79 166.5zM1341 248q0 -27 20.5 -45.5t59.5 -18.5q49 0 84 31t33 72q0 27 -22.5 43t-57.5 16q-43 0 -81 -27.5t-36 -70.5zM1423 580 q0 -25 18.5 -37.5t47.5 -12.5q35 0 67.5 25t30.5 63q1 54 -65 54q-41 0 -71 -25.5t-28 -66.5z" />
<glyph unicode="&#x215e;" horiz-adv-x="1894" d="M195 571l428 660h-115l-23 -111h-223l62 305h598l-33 -170l-457 -684h-237zM205 -35l1157 1495h242l-1160 -1495h-239zM1057 223q-2 66 26.5 126.5t106.5 94.5q-25 23 -39 53.5t-14 65.5q-2 61 22.5 114.5t70.5 94.5t109.5 64.5t139.5 23.5q123 0 191.5 -61.5 t70.5 -157.5q2 -68 -34 -117t-91 -84q35 -29 55.5 -71.5t20.5 -83.5q2 -66 -29 -120t-81 -92t-113.5 -58.5t-131.5 -20.5q-125 0 -201.5 62.5t-78.5 166.5zM1276 248q0 -27 20.5 -45.5t59.5 -18.5q49 0 84 31t33 72q0 27 -22.5 43t-57.5 16q-43 0 -81 -27.5t-36 -70.5z M1358 580q0 -25 18.5 -37.5t46.5 -12.5q35 0 68 25t31 63q0 54 -66 54q-41 0 -70.5 -25.5t-27.5 -66.5z" />
<glyph unicode="&#x2190;" horiz-adv-x="1697" d="M102 662l484 487l145 -145l-246 -242h1090v-203h-1090l246 -237l-145 -146z" />
<glyph unicode="&#x2191;" horiz-adv-x="1060" d="M49 958l486 484l487 -484l-145 -145l-242 244v-1057h-203v1057l-237 -244z" />
<glyph unicode="&#x2192;" horiz-adv-x="1697" d="M104 559v203h1092l-246 242l144 145l483 -487l-483 -486l-144 146l246 237h-1092z" />
<glyph unicode="&#x2193;" horiz-adv-x="1060" d="M49 483l146 146l239 -246v1059h201v-1059l242 246l145 -146l-487 -483z" />
<glyph unicode="&#x2196;" horiz-adv-x="1720" d="M248 635v684h688v-201h-344l995 -985l-141 -145l-995 991v-344h-203z" />
<glyph unicode="&#x2198;" horiz-adv-x="1720" d="M248 1178l141 143l995 -989v342h203v-682h-688v201h344z" />
<glyph unicode="&#x21a9;" horiz-adv-x="1775" d="M53 662l482 483l141 -141l-246 -244h907q86 0 120 50t34 122v155q0 68 -37 106t-117 38h-211v196h220q94 0 160.5 -26.5t107.5 -72.5t59.5 -110.5t18.5 -138.5v-147q0 -170 -91.5 -271.5t-279.5 -101.5h-891l246 -240l-141 -141z" />
<glyph unicode="&#x21aa;" horiz-adv-x="1767" d="M55 932v147q0 74 18.5 138.5t59.5 110.5t106.5 72.5t161.5 26.5h220v-196h-209q-84 0 -120 -38t-36 -106v-155q0 -72 35 -122t121 -50h905l-248 244l143 141l480 -483l-480 -484l-143 141l248 240h-889q-190 0 -281.5 101.5t-91.5 271.5z" />
<glyph unicode="&#x21b3;" horiz-adv-x="1748" d="M180 561v858h203v-659h930l-246 244l143 141l480 -483l-480 -484l-143 141l246 242h-1133z" />
<glyph unicode="&#x21b5;" horiz-adv-x="1748" d="M160 662l481 483l141 -141l-243 -244h929v659h201v-858h-1130l243 -242l-141 -141z" />
<glyph unicode="&#x21de;" horiz-adv-x="1044" d="M43 995l469 447l479 -447l-145 -147l-234 211v-309h207v-189h-207v-110h207v-185h-207v-266h-198v266h-211v185h211v110h-211v189h211v309l-226 -211z" />
<glyph unicode="&#x21df;" horiz-adv-x="1044" d="M43 446l145 146l224 -213v313h-209v187h209v112h-209v183h209v268h200v-268h207v-183h-207v-112h207v-187h-207v-313l234 213l145 -146l-479 -446z" />
<glyph unicode="&#x21e0;" horiz-adv-x="1712" d="M104 657l482 488l145 -144l-248 -243h240v-199h-240l248 -242l-145 -143zM801 559v199h203v-199h-203zM1083 559v199h203v-199h-203zM1370 559v199h203v-199h-203z" />
<glyph unicode="&#x21e1;" horiz-adv-x="1069" d="M47 944l485 483l488 -483l-143 -143l-244 246v-238h-201v238l-239 -246zM432 -41v203h201v-203h-201zM432 246v203h201v-203h-201zM432 528v203h201v-203h-201z" />
<glyph unicode="&#x21e2;" horiz-adv-x="1712" d="M106 559v201h205v-201h-205zM393 559v201h203v-201h-203zM676 559v201h203v-201h-203zM948 319l248 240h-240v201h240l-248 241l144 146l483 -488l-483 -485z" />
<glyph unicode="&#x21e3;" horiz-adv-x="1069" d="M47 442l143 144l242 -246v238h199v-238l243 246q35 -35 71 -72t73 -72q-123 -121 -244 -240.5t-244 -238.5zM432 655v203h199v-203h-199zM432 940v201h199v-201h-199zM432 1225v202h199v-202h-199z" />
<glyph unicode="&#x21e4;" horiz-adv-x="1783" d="M135 213v891h217v-891h-217zM434 662l481 487l146 -145l-246 -242h883v-203h-883l246 -237l-146 -146z" />
<glyph unicode="&#x21e5;" horiz-adv-x="1783" d="M137 559v203h883l-246 242l146 145l481 -487l-481 -486l-146 146l246 237h-883zM1483 213v891h217v-891h-217z" />
<glyph unicode="&#x21e7;" horiz-adv-x="1720" d="M76 627l790 813l791 -813h-400v-627h-782v627h-399zM442 774h193v-616h465v616h190l-424 440z" />
<glyph unicode="&#x21ea;" horiz-adv-x="1720" d="M61 627l793 813l791 -813h-400v-422h-784v422h-400zM428 774h193v-409h466v409h191l-424 440zM461 53h782v-424h-782v424zM621 -92v-137h466v137h-466z" />
<glyph unicode="&#x2202;" horiz-adv-x="1085" d="M35 342q0 137 48 250t127 192.5t180.5 122.5t207.5 43q111 0 215 -47q2 12 3 24.5t1 24.5q0 123 -68.5 200t-179.5 77q-29 0 -79 -8.5t-132 -34.5l50 256q61 16 119.5 23.5t105.5 7.5q131 0 222 -40t148.5 -109t83 -164t25.5 -206q0 -113 -25 -235q-37 -184 -103 -322.5 t-154.5 -230.5t-193.5 -139t-218 -47q-86 0 -155.5 23.5t-121 69.5t-79 113.5t-27.5 155.5zM342 387q0 -84 37 -122t90 -38t99 36t84 92.5t67 125t47 133.5q-49 57 -103.5 77t-99.5 20q-49 0 -90 -32t-69.5 -81t-45 -105.5t-16.5 -105.5z" />
<glyph unicode="&#x220f;" horiz-adv-x="1380" d="M29 -160l309 1585h1094l-310 -1585h-311l254 1301h-467l-254 -1301h-315z" />
<glyph unicode="&#x2211;" horiz-adv-x="1124" d="M-55 -160l57 291l414 506l-219 506l55 282h981l-55 -282h-603l213 -504l-405 -508h627l-58 -291h-1007z" />
<glyph unicode="&#x221a;" horiz-adv-x="1255" d="M111 778q106 31 208.5 60.5t206.5 62.5l101 -547q133 313 267 631t265 635h287l-772 -1778h-238l-151 768q-35 -8 -68 -17t-67 -18q-8 53 -18.5 101.5t-20.5 101.5z" />
<glyph unicode="&#x221e;" horiz-adv-x="1558" d="M92 569q0 70 29 132.5t78 109.5t115.5 75.5t140.5 28.5q45 0 92 -14t90 -37.5t81 -53.5t66 -58q66 80 141.5 121.5t192.5 41.5q76 0 139.5 -25.5t109.5 -71.5t72.5 -109.5t26.5 -139.5q0 -70 -27.5 -132t-76.5 -110t-115.5 -77t-142.5 -29q-104 0 -182 50.5t-142 117.5 q-66 -72 -143.5 -120t-194.5 -48q-74 0 -137 25.5t-111.5 72t-75 110t-26.5 140.5zM342 571q0 -53 34 -91t75 -38q49 0 95 37t85 88q-35 47 -80 85t-96 38q-43 0 -78 -34.5t-35 -84.5zM930 571q45 -51 90 -90t88 -39q41 0 76 38t35 89t-34 86t-75 35q-45 0 -90 -33.5 t-90 -85.5z" />
<glyph unicode="&#x222b;" horiz-adv-x="647" d="M-188 -260l69 186q35 -8 64.5 -13t54.5 -1q33 4 58.5 27.5t43.5 83.5q16 47 33 119.5t38.5 178t48 248t63.5 326.5q23 117 48 238.5t73.5 221t129 163t214.5 63.5q33 0 82 -9t83 -22l-55 -200q-29 4 -53.5 8t-46.5 4q-29 0 -54.5 -7t-48 -35t-43 -81t-36.5 -145 q-8 -41 -25.5 -130.5t-37 -193.5t-39 -208.5t-32.5 -174.5q-35 -197 -70.5 -329t-84.5 -213t-120 -114.5t-175 -33.5q-33 0 -88.5 11t-93.5 32z" />
<glyph unicode="&#x2248;" horiz-adv-x="1165" d="M31 373q31 43 68.5 82t83.5 69.5t102.5 49t126.5 18.5q47 0 96 -21.5t97 -47t94 -47t89 -21.5q12 0 26.5 1t37 15t54.5 44t77 89l162 -129q-90 -133 -192.5 -196.5t-198.5 -63.5q-57 0 -104.5 20.5t-92.5 45t-93 45t-106 20.5q-41 0 -87 -23.5t-111 -95.5zM88 772 q31 43 69 82t84 69.5t102 49t126 18.5q47 0 96 -21.5t97.5 -47t94.5 -47t89 -21.5q12 0 26.5 1t37 15.5t54 44t76.5 89.5l162 -130q-90 -133 -192.5 -196.5t-198.5 -63.5q-57 0 -104.5 20.5t-92.5 45.5t-93 45t-105 20q-41 0 -87 -23.5t-112 -94.5z" />
<glyph unicode="&#x2260;" horiz-adv-x="1126" d="M-6 2l205 260h-195l45 227h332l192 242h-477l43 227h615l209 263h249l-211 -263h191l-43 -227h-328l-192 -242h473l-45 -227h-611l-204 -260h-248z" />
<glyph unicode="&#x2264;" horiz-adv-x="1165" d="M-23 0l46 238h1048l-45 -238h-1049zM109 688l38 203l1123 364l-53 -266l-654 -198h2l580 -173l-51 -268z" />
<glyph unicode="&#x2265;" horiz-adv-x="1165" d="M-23 0l46 238h1048l-45 -238h-1049zM45 350l51 268l649 173h3l-580 198l53 266l979 -364l-39 -203z" />
<glyph unicode="&#x2303;" horiz-adv-x="1525" d="M150 844l606 606l608 -606l-135 -139l-473 462l-469 -462z" />
<glyph unicode="&#x2318;" horiz-adv-x="1687" d="M125 293q0 61 20.5 116.5t60.5 97.5t96 66.5t130 24.5h115v231h-115q-61 0 -117.5 25t-98.5 67t-66.5 97t-24.5 117q0 63 22.5 118.5t62.5 97.5t97.5 66.5t124.5 24.5q76 0 133.5 -24.5t95 -66.5t57 -97.5t19.5 -118.5v-115h232v115q0 63 22.5 118.5t62.5 97.5t96 66.5 t124 24.5q74 0 131 -24.5t96 -66.5t59.5 -98.5t20.5 -117.5q0 -59 -24.5 -114.5t-65.5 -97.5t-97.5 -68t-119.5 -26h-115v-231h115q76 0 134 -24.5t96 -66.5t57.5 -97.5t19.5 -116.5t-19.5 -116.5t-57.5 -98.5t-96 -67.5t-134 -24.5q-74 0 -130.5 24.5t-95 66.5t-59 98 t-20.5 118v115h-232v-115q0 -59 -19.5 -114.5t-57 -98.5t-95 -68.5t-133.5 -25.5q-72 0 -128 24.5t-96 65.5t-61.5 97t-21.5 120zM313 293q0 -51 34 -85t85 -34q49 0 82 34t33 85v115h-115q-51 0 -85 -34t-34 -81zM313 1135q0 -49 34 -82t85 -33h115v115q0 49 -34 82.5 t-81 33.5q-49 0 -84 -32.5t-35 -83.5zM737 598h232v231h-232v-231zM1159 293q0 -51 34 -85t81 -34q49 0 83 34t34 85q0 47 -34 81t-83 34h-115v-115zM1159 1020h115q49 0 83 33.5t34 81.5q0 49 -34 82.5t-83 33.5q-47 0 -81 -32.5t-34 -83.5v-115z" />
<glyph unicode="&#x2324;" horiz-adv-x="1587" d="M176 561l608 639l607 -639l-138 -139l-469 502q-37 -41 -101.5 -110t-133 -143.5t-133 -142t-101.5 -106.5zM186 1229v196h1198v-196h-1198z" />
<glyph unicode="&#x2325;" horiz-adv-x="2433" d="M117 1196v199h600l663 -1200h942v-195h-1089l-664 1196h-452zM1167 1196v199h1155v-199h-1155z" />
<glyph unicode="&#x2326;" horiz-adv-x="2392" d="M205 0v1423h1331l690 -712l-690 -711h-1331zM393 188h1047l514 523l-514 522h-1047v-1045zM592 406l291 288l-291 291l125 125l289 -289l290 289l125 -125l-291 -291l291 -288l-125 -125l-290 290l-289 -290z" />
<glyph unicode="&#x232b;" horiz-adv-x="2392" d="M207 711l692 712h1329v-1423h-1329zM479 711l516 -523h1047v1045h-1047zM1014 406l289 288l-289 291l125 125l291 -289l286 289l125 -125l-289 -291l289 -288l-125 -125l-286 290l-291 -290z" />
<glyph unicode="&#x235f;" horiz-adv-x="1646" d="M94 711q0 150 56.5 281.5t154.5 230t230.5 155t283.5 56.5q150 0 282 -57.5t230.5 -156t154.5 -230.5t56 -281h-2q0 -150 -57.5 -282t-155.5 -230.5t-230 -154.5t-282 -56t-281 56t-229 154.5t-154.5 230.5t-56.5 284zM211 709q0 -125 47 -234.5t129 -191.5t192.5 -129.5 t235.5 -47.5t235.5 47.5t192.5 129.5t129 191.5t47 234.5t-47 235.5t-129 192.5t-192.5 129t-235.5 47t-235.5 -47t-192.5 -129t-129 -192.5t-47 -235.5zM311 848l334 65l154 304l164 -299l335 -70l-231 -232l53 -346l-321 156l-289 -156l43 338z" />
<glyph unicode="&#x23cf;" horiz-adv-x="1748" d="M135 186v279h1438v-279h-1438zM135 643l719 719l719 -719h-1438z" />
<glyph unicode="&#x25a0;" horiz-adv-x="1792" d="M252 82v1296h1296v-1296h-1296z" />
<glyph unicode="&#x25a1;" horiz-adv-x="1722" d="M166 0v1419h1407v-1419h-1407zM336 170h1069v1079h-1069v-1079z" />
<glyph unicode="&#x25b2;" horiz-adv-x="1679" d="M162 360l719 719l718 -719h-1437z" />
<glyph unicode="&#x25b6;" horiz-adv-x="1218" d="M283 0v1436l718 -717z" />
<glyph unicode="&#x25bc;" horiz-adv-x="1679" d="M162 1079h1437l-718 -719z" />
<glyph unicode="&#x25c0;" horiz-adv-x="1218" d="M207 719l719 717v-1436z" />
<glyph unicode="&#x25ca;" horiz-adv-x="1085" d="M78 651l358 690h168l352 -690l-354 -688h-168q-8 16 -35.5 69.5t-64.5 124t-78 149.5t-78 149.5t-64.5 124t-35.5 71.5zM315 653q8 -20 39 -79.5t66 -127t64.5 -128t37.5 -78.5q10 20 40 78.5t62.5 126t61.5 127t39 79.5l-207 414q-10 -20 -38.5 -79.5t-62.5 -126 t-63.5 -126t-38.5 -80.5z" />
<glyph unicode="&#x25cf;" horiz-adv-x="1726" d="M227 731q0 135 53.5 253t142.5 205t207 138t247 51t245.5 -51t205.5 -140t142.5 -207t53.5 -249t-51.5 -248.5t-140.5 -207t-206.5 -141.5t-248.5 -52q-133 0 -251 51t-207 140t-140.5 207t-51.5 251z" />
<glyph unicode="&#x25fc;" horiz-adv-x="1013" d="M0 0v1014h1014v-1014h-1014z" />
<glyph unicode="&#x2602;" horiz-adv-x="1597" d="M102 745q0 131 62.5 253t159 217.5t215 152.5t231.5 57v64h59v-66q113 0 231 -56t214 -150.5t157.5 -217t61.5 -254.5q-33 37 -82 58.5t-102 21.5q-47 0 -92.5 -19.5t-83.5 -60.5h-5q-47 80 -153 80q-57 0 -127 -28v-623q0 -86 -52.5 -138t-150.5 -52q-86 0 -142.5 48 t-56.5 152v27h97v-27q0 -57 27.5 -83.5t70.5 -26.5q33 0 53.5 10t31.5 26.5t15 37t4 40.5v607q-29 14 -55 19t-51 5q-53 0 -95 -20.5t-79 -55.5q-35 41 -82 60.5t-96 19.5q-51 0 -99.5 -19.5t-83.5 -60.5zM1493 745l2 -2q-2 0 -2 2z" />
<glyph unicode="&#x2605;" horiz-adv-x="1667" d="M86 874l510 99l233 463l252 -457l512 -105l-354 -354l80 -528l-490 239l-438 -239l66 514z" />
<glyph unicode="&#x2606;" horiz-adv-x="1716" d="M80 887l520 100l231 461l254 -457l521 -104l-361 -361l80 -530l-491 240l-447 -244l68 522zM199 850l313 -313l-55 -443l377 203l421 -203l-71 453l305 303l-436 88l-219 395l-201 -401z" />
<glyph unicode="&#x2610;" horiz-adv-x="1722" d="M166 0v1419h1407v-1419h-1407zM336 170h1069v1079h-1069v-1079z" />
<glyph unicode="&#x2611;" horiz-adv-x="1740" d="M166 0v1419h1407v-1419h-1407zM334 168h1071v981q-88 -86 -179 -199.5t-174 -236.5t-153 -243t-115 -216q-115 -23 -172 -55q-16 63 -44.5 149t-62.5 169t-70 149.5t-66 89.5q51 41 100 56t78 15q18 0 44.5 -28.5t52.5 -75.5t48.5 -107.5t34.5 -123.5q47 76 115.5 164.5 t147.5 180t162 174.5t159 146q23 25 43 48.5t43 43.5h-1063v-1081z" />
<glyph unicode="&#x2612;" horiz-adv-x="1740" d="M168 0v1419h1407v-1419h-1407zM338 170h1069v1079h-1069v-1079zM408 369l340 338l-340 342l120 120l342 -340l338 340l121 -118l-338 -340l344 -344l-125 -117l-340 340l-344 -346z" />
<glyph unicode="&#x2622;" horiz-adv-x="1714" d="M102 719q0 137 53.5 270t152 239.5t236.5 172t308 65.5q160 0 299 -57t241.5 -156.5t161 -233.5t58.5 -290q0 -158 -58.5 -297t-160 -242.5t-239.5 -164t-298 -60.5q-158 0 -295 58.5t-239.5 160t-161 239.5t-58.5 296zM176 719q0 -143 54.5 -267t147.5 -216.5 t218 -144.5t264 -52q135 0 257 54t215 146.5t147.5 212t54.5 250.5q0 162 -58.5 291t-153.5 219.5t-218 139.5t-252 49q-139 0 -262 -54.5t-215 -147.5t-145.5 -217t-53.5 -263zM236 719q0 176 72.5 305t234.5 233l202 -352q-47 -29 -73.5 -77t-32.5 -109h-403zM547 184 l201 348q61 -29 110 -28q41 0 103 28l204 -350q-162 -84 -315 -84q-166 0 -303 86zM692 719q0 70 48 118t116 48q33 0 62.5 -14.5t51 -37t34 -52t12.5 -62.5t-12.5 -61.5t-34 -50t-51 -35t-62.5 -13.5q-63 0 -113.5 45t-50.5 115zM961 909l204 351q147 -82 229.5 -221.5 t82.5 -319.5h-404q-12 127 -112 190z" />
<glyph unicode="&#x2623;" horiz-adv-x="1753" d="M113 494q0 59 16 116.5t54 107.5t98.5 92t150.5 71q0 129 23.5 224t71.5 159.5t122 104.5t176 58l11 -30q-279 -81 -279 -310q0 -139 78 -220t227 -99v-45q-47 -10 -66.5 -38t-19.5 -56q0 -10 2 -19.5t6 -19.5l-39 -21q-123 147 -272 148q-59 0 -115.5 -24.5t-99.5 -66.5 t-69.5 -97.5t-26.5 -116.5q0 -45 12 -115l-22 -10q-16 51 -27.5 103t-11.5 104zM207 180l22 17q139 -123 240 -123q68 0 127 25.5t103 68.5t70 101.5t26 123.5q0 25 -5.5 62t-31.5 84l45 26q14 -23 35.5 -30t42.5 -7q37 0 67 35l47 -24q-35 -84 -34 -148q0 -63 24.5 -119.5 t67.5 -99.5t98 -67.5t117 -24.5q135 0 250 110l24 -16q-39 -53 -78 -87t-81 -53.5t-89 -26.5t-102 -7q-78 0 -158.5 21.5t-156.5 87.5q-86 -66 -166 -87.5t-152 -21.5q-53 0 -100 8t-89 28.5t-82 55.5t-81 88zM463 606q0 43 8 78h25q45 -4 86 -25v-61q0 -156 180 -246 q-4 -29 -15.5 -56t-27.5 -50q-57 25 -104.5 61.5t-81 84.5t-52 102.5t-18.5 111.5zM623 946q66 43 127 65.5t127 22.5q131 0 256 -88q-27 -55 -76 -88q-90 61 -176 62q-84 0 -183 -62q-29 16 -45 38t-30 50zM891 723v45q147 18 225 101.5t78 222.5q0 223 -242 303l11 32 q186 -41 274 -157.5t88 -317.5v-32.5t-2 -34.5q160 -63 237.5 -171t77.5 -245q0 -92 -36 -197l-27 9q16 88 16 133q0 61 -25.5 115.5t-68.5 94.5t-101.5 62.5t-123.5 22.5q-82 0 -146.5 -39t-113.5 -107l-47 27q6 20 6 41q0 33 -18.5 56.5t-61.5 35.5zM991 352 q180 90 180 254v24.5t-2 28.5q23 14 55.5 17.5t55.5 3.5q8 -33 8 -76q0 -111 -68.5 -207t-191.5 -151q-14 25 -23.5 51.5t-13.5 54.5z" />
<glyph unicode="&#x262e;" horiz-adv-x="1708" d="M96 723q0 154 58.5 289t160 234.5t236.5 156.5t289 57q160 0 298 -57t240.5 -156.5t160.5 -232.5t58 -285q0 -158 -59 -295t-162.5 -238.5t-243 -160t-296.5 -58.5q-150 0 -284 59.5t-235.5 161t-161 237.5t-59.5 288zM229 719q0 -55 5.5 -96t15.5 -74t25.5 -64.5 t37.5 -68.5l473 430v489q-123 -16 -225 -67t-176 -132t-115 -187.5t-41 -229.5zM383 324q47 -45 92 -82t92 -67t100.5 -49.5t118.5 -29.5v596zM903 100q121 14 219.5 69.5t190.5 154.5l-410 368v-592zM903 846l479 -428q37 66 58.5 141.5t21.5 169.5q0 119 -39 221.5 t-111.5 181t-176 132t-232.5 71.5v-489z" />
<glyph unicode="&#x262f;" horiz-adv-x="1695" d="M102 729q0 168 64.5 304t169 233.5t238 150.5t272.5 53q168 0 306 -60t236.5 -162.5t151.5 -239t53 -287.5q0 -168 -60 -304t-162.5 -233.5t-237 -149.5t-283.5 -52q-166 0 -304 62t-236.5 165.5t-153 239t-54.5 280.5zM500 1337l10 -8q43 12 86 12q84 0 152.5 -31.5 t116.5 -79.5t75 -104.5t27 -107.5q0 -104 -40 -193.5t-139 -187.5q-43 -43 -59 -105.5t-16 -105.5q0 -152 93 -237t263 -85q88 0 174 48.5t153.5 132.5t109.5 196.5t42 241.5q0 135 -50 263t-142 226.5t-221 159t-289 60.5q-92 0 -179 -24t-167 -71zM518 999 q0 -41 26.5 -71.5t73.5 -30.5q45 0 75 30.5t30 71.5q0 37 -28.5 69t-78.5 32q-35 0 -66.5 -28t-31.5 -73zM977 457q0 47 31.5 76.5t66.5 29.5q45 0 75 -32.5t30 -73.5q0 -45 -32 -73t-73 -28q-43 0 -70.5 32t-27.5 69z" />
<glyph unicode="&#x2672;" horiz-adv-x="1882" d="M102 862h433l174 -375l-123 72l-64 -57q-33 -31 -33 -60q0 -51 64 -51h393v-432h-379q-66 0 -92 21.5t-47 58.5l-231 426q-14 25 -19.5 51.5t-5.5 54.5q0 53 14.5 102.5t51.5 88.5zM188 831l97 -65q-39 -37 -60.5 -87t-21.5 -104q0 -59 19.5 -95t51 -55t70.5 -26.5 t76 -7.5h57q-23 16 -22 49q0 41 39 80l86 78l57 -35l-125 268h-324zM268 391l181 -334q18 -33 39.5 -52t68.5 -19h361v379h-486q-35 0 -58.5 2t-41 5t-32.5 8t-32 11zM365 1026l210 340q23 37 56 57.5t86 20.5h497q41 0 56.5 -5t29.5 -28l109 -178l131 78l-172 -393l-432 43 l123 77l-94 166l-254 -379zM408 1032l294 -170l246 371q-39 76 -97 125t-146 49q-59 0 -99 -57zM801 1417q63 -14 105 -67.5t79 -118.5l115 -205l-76 -47l326 -31l137 297l-82 -53l-121 190q-12 20 -26.5 27.5t-38.5 7.5h-418zM1001 160l226 346v-144h223l-236 400l353 209 l194 -361q18 -37 19 -61q0 -23 -7.5 -42.5t-17.5 -37.5l-221 -397q-18 -33 -31.5 -54.5t-27 -35t-31 -18.5t-43.5 -5h-172v-158zM1036 160l166 -266v92h197q18 0 41.5 10t42.5 43l211 385q-66 -61 -138.5 -76.5t-181.5 -15.5h-172v90zM1251 754l236 -392q39 4 84 20.5 t84 42.5t64.5 58.5t25.5 69.5q0 14 -4 26.5t-8 22.5l-183 326z" />
<glyph unicode="&#x2673;" horiz-adv-x="1779" d="M102 213q0 74 50 160l149 268l-94 51l14 27l242 45l86 -229l-17 -31l-96 59l-131 -237q-27 -49 -26 -88q0 -37 27.5 -62.5t92.5 -25.5h406v-150h-436q-123 0 -195 58.5t-72 154.5zM449 897l217 379q45 78 101 111.5t118 33.5q63 0 121.5 -36.5t95.5 -102.5l149 -264 l105 59l12 -28l-90 -230l-248 43l-12 25l100 55l-145 246q-16 29 -40 45t-52 16q-29 0 -55.5 -20.5t-43.5 -50.5l-202 -357zM739 662v116l86 62h101v-594h-113v467zM913 74l160 200l27 -4v-120h262q74 0 107.5 24.5t33.5 65.5q0 39 -33 94l-204 348l137 80l227 -397 q47 -80 47 -150q0 -98 -83 -156.5t-210 -58.5h-286v-121h-33z" />
<glyph unicode="&#x2674;" horiz-adv-x="1779" d="M102 213q0 74 50 160l149 268l-94 51l14 27l242 45l86 -229l-17 -31l-96 59l-131 -237q-27 -49 -26 -88q0 -37 27.5 -62.5t92.5 -25.5h406v-150h-436q-123 0 -195 58.5t-72 154.5zM449 897l217 379q45 78 101 111.5t118 33.5q63 0 121.5 -36.5t95.5 -102.5l149 -264 l105 59l12 -28l-90 -230l-248 43l-12 25l100 55l-145 246q-16 29 -40 45t-52 16q-29 0 -55.5 -20.5t-43.5 -50.5l-202 -357zM674 254v94l219 275q29 31 29 67q0 23 -16.5 41.5t-47.5 18.5q-29 0 -48 -24t-26 -64l-106 12q12 86 63.5 132t116.5 46q74 0 123 -41t49 -119 q0 -29 -10 -60.5t-33 -60.5l-170 -213h203v-104h-346zM913 74l160 200l27 -4v-120h262q74 0 107.5 24.5t33.5 65.5q0 39 -33 94l-204 348l137 80l227 -397q47 -80 47 -150q0 -98 -83 -156.5t-210 -58.5h-286v-121h-33z" />
<glyph unicode="&#x2675;" horiz-adv-x="1779" d="M102 213q0 74 50 160l149 268l-94 51l14 27l242 45l86 -229l-17 -31l-96 59l-131 -237q-27 -49 -26 -88q0 -37 27.5 -62.5t92.5 -25.5h406v-150h-436q-123 0 -195 58.5t-72 154.5zM449 897l217 379q45 78 101 111.5t118 33.5q63 0 121.5 -36.5t95.5 -102.5l149 -264 l105 59l12 -28l-90 -230l-248 43l-12 25l100 55l-145 246q-16 29 -40 45t-52 16q-29 0 -55.5 -20.5t-43.5 -50.5l-202 -357zM674 406l104 14q8 -39 27.5 -55.5t44.5 -16.5q37 0 58.5 25.5t21.5 62.5q0 39 -21.5 58.5t-54.5 19.5h-59v98h53q33 0 54.5 19.5t21.5 48.5 t-20.5 49.5t-49.5 20.5q-23 0 -41 -19.5t-29 -54.5l-106 12q14 72 63.5 118t112.5 46q92 0 134 -51t42 -119q0 -31 -10 -59.5t-45 -55.5q35 -29 47 -61.5t12 -67.5q0 -86 -50 -138t-136 -52q-29 0 -56.5 7t-51 25.5t-41 49t-25.5 76.5zM913 74l160 200l27 -4v-120h262 q74 0 107.5 24.5t33.5 65.5q0 39 -33 94l-204 348l137 80l227 -397q47 -80 47 -150q0 -98 -83 -156.5t-210 -58.5h-286v-121h-33z" />
<glyph unicode="&#x2676;" horiz-adv-x="1779" d="M102 213q0 74 50 160l149 268l-94 51l14 27l242 45l86 -229l-17 -31l-96 59l-131 -237q-27 -49 -26 -88q0 -37 27.5 -62.5t92.5 -25.5h406v-150h-436q-123 0 -195 58.5t-72 154.5zM449 897l217 379q45 78 101 111.5t118 33.5q63 0 121.5 -36.5t95.5 -102.5l149 -264 l105 59l12 -28l-90 -230l-248 43l-12 25l100 55l-145 246q-16 29 -40 45t-52 16q-29 0 -55.5 -20.5t-43.5 -50.5l-202 -357zM633 342v88l196 422h115l-190 -410h118v144h105v-144h45v-100h-45v-84h-105v84h-239zM913 74l160 200l27 -4v-120h262q74 0 107.5 24.5t33.5 65.5 q0 39 -33 94l-204 348l137 80l227 -397q47 -80 47 -150q0 -98 -83 -156.5t-210 -58.5h-286v-121h-33z" />
<glyph unicode="&#x2677;" horiz-adv-x="1779" d="M102 213q0 74 50 160l149 268l-94 51l14 27l242 45l86 -229l-17 -31l-96 59l-131 -237q-27 -49 -26 -88q0 -37 27.5 -62.5t92.5 -25.5h406v-150h-436q-123 0 -195 58.5t-72 154.5zM449 897l217 379q45 78 101 111.5t118 33.5q63 0 121.5 -36.5t95.5 -102.5l149 -264 l105 59l12 -28l-90 -230l-248 43l-12 25l100 55l-145 246q-16 29 -40 45t-52 16q-29 0 -55.5 -20.5t-43.5 -50.5l-202 -357zM684 397l104 21q16 -78 74 -78q27 0 42.5 11t23.5 28.5t11 38t3 39.5q0 39 -13.5 70.5t-58.5 31.5q-20 0 -36.5 -14.5t-30.5 -36.5h-96v332h309 v-103h-209v-96q20 10 39.5 14t40.5 4q78 0 117.5 -51t39.5 -131v-37q0 -84 -45 -141t-137 -57q-63 0 -111.5 32.5t-66.5 122.5zM913 74l160 200l27 -4v-120h262q74 0 107.5 24.5t33.5 65.5q0 39 -33 94l-204 348l137 80l227 -397q47 -80 47 -150q0 -98 -83 -156.5 t-210 -58.5h-286v-121h-33z" />
<glyph unicode="&#x2678;" horiz-adv-x="1779" d="M102 213q0 74 50 160l149 268l-94 51l14 27l242 45l86 -229l-17 -31l-96 59l-131 -237q-27 -49 -26 -88q0 -37 27.5 -62.5t92.5 -25.5h406v-150h-436q-123 0 -195 58.5t-72 154.5zM449 897l217 379q45 78 101 111.5t118 33.5q63 0 121.5 -36.5t95.5 -102.5l149 -264 l105 59l12 -28l-90 -230l-248 43l-12 25l100 55l-145 246q-16 29 -40 45t-52 16q-29 0 -55.5 -20.5t-43.5 -50.5l-202 -357zM694 426q0 29 7.5 61.5t25.5 67.5q35 68 75 141.5t75 143.5h114l-112 -232h12q72 0 117 -52t45 -124q0 -49 -15.5 -86t-41 -59.5t-58.5 -33.5 t-68 -11q-78 0 -127 46t-49 138zM801 428q0 -41 19.5 -63.5t51.5 -22.5q29 0 49.5 22.5t20.5 63.5t-20.5 61.5t-49.5 20.5t-50 -20.5t-21 -61.5zM913 74l160 200l27 -4v-120h262q74 0 107.5 24.5t33.5 65.5q0 39 -33 94l-204 348l137 80l227 -397q47 -80 47 -150 q0 -98 -83 -156.5t-210 -58.5h-286v-121h-33z" />
<glyph unicode="&#x2679;" horiz-adv-x="1779" d="M102 213q0 74 50 160l149 268l-94 51l14 27l242 45l86 -229l-17 -31l-96 59l-131 -237q-27 -49 -26 -88q0 -37 27.5 -62.5t92.5 -25.5h406v-150h-436q-123 0 -195 58.5t-72 154.5zM449 897l217 379q45 78 101 111.5t118 33.5q63 0 121.5 -36.5t95.5 -102.5l149 -264 l105 59l12 -28l-90 -230l-248 43l-12 25l100 55l-145 246q-16 29 -40 45t-52 16q-29 0 -55.5 -20.5t-43.5 -50.5l-202 -357zM692 641v188h352v-90l-200 -503h-115l195 489h-125v-84h-107zM913 74l160 200l27 -4v-120h262q74 0 107.5 24.5t33.5 65.5q0 39 -33 94l-204 348 l137 80l227 -397q47 -80 47 -150q0 -98 -83 -156.5t-210 -58.5h-286v-121h-33z" />
<glyph unicode="&#x267a;" horiz-adv-x="1779" d="M102 213q0 74 50 160l149 268l-94 51l14 27l242 45l86 -229l-17 -31l-96 59l-131 -237q-27 -49 -26 -88q0 -37 27.5 -62.5t92.5 -25.5h406v-150h-436q-123 0 -195 58.5t-72 154.5zM449 897l217 379q45 78 101 111.5t118 33.5q63 0 121.5 -36.5t95.5 -102.5l149 -264 l105 59l12 -28l-90 -230l-248 43l-12 25l100 55l-145 246q-16 29 -40 45t-52 16q-29 0 -55.5 -20.5t-43.5 -50.5l-202 -357zM913 74l160 200l27 -4v-120h262q74 0 107.5 24.5t33.5 65.5q0 39 -33 94l-204 348l137 80l227 -397q47 -80 47 -150q0 -98 -83 -156.5t-210 -58.5 h-286v-121h-33z" />
<glyph unicode="&#x267b;" horiz-adv-x="1820" d="M102 606q0 16 11 47l102 176l-84 41h330l160 -276l-95 55l-147 -268q-35 -55 -51.5 -97t-16.5 -69l-180 311q-29 49 -29 80zM326 1032l170 299q27 35 67.5 63.5t93.5 28.5q74 0 130.5 -38.5t86.5 -79.5l-247 -451zM358 172q0 37 13.5 73t36.5 77h510v-322h-388 q-23 0 -52 9t-56 28.5t-45.5 52.5t-18.5 82zM823 1421h371q57 0 76.5 -12t32.5 -35l94 -168l98 56l-168 -295h-342l107 67l-152 273q-25 43 -56.5 70.5t-60.5 43.5zM961 164l176 280v-122h305q33 0 90 15t104 46l-204 -311q-31 -47 -66 -59.5t-63 -12.5h-166v-119zM1202 836 l309 178l177 -303q31 -51 30 -107q0 -49 -22.5 -90t-57 -70.5t-80 -46t-88.5 -16.5h-16z" />
<glyph unicode="&#x267c;" horiz-adv-x="1712" d="M102 721q0 156 59.5 293t162 239.5t239.5 162t293 59.5t293 -59.5t239.5 -162t162 -239.5t59.5 -293t-59.5 -293t-162 -239.5t-239.5 -162t-293 -59.5t-293 59.5t-239.5 162t-162 239.5t-59.5 293zM242 651q0 -27 20 -61l141 -228q0 41 48 123l112 199l70 -39l-119 205 h-246l62 -29l-78 -131q-10 -16 -10 -39zM414 971l227 -133l184 338q-25 31 -66.5 59.5t-96.5 28.5q-41 0 -73 -19.5t-48 -50.5zM438 330q0 -37 13.5 -62.5t34 -41t42 -21.5t37.5 -6h291v239h-381q-37 -55 -37 -108zM784 1262q23 -10 46.5 -31t41.5 -53l113 -205l-80 -51h256 l127 221l-74 -41l-69 125q-10 18 -24.5 26.5t-55.5 8.5h-281zM889 324l131 -213v88h125q18 0 46 10t50 45l154 231q-35 -20 -79 -33.5t-67 -13.5h-229v94zM1069 825l188 -340h13q33 0 65.5 12.5t59 34t43 52t16.5 67.5q0 18 -4 39t-18 41l-132 227z" />
<glyph unicode="&#x267d;" horiz-adv-x="1712" d="M102 723q0 156 59.5 293t162 239.5t239.5 162t293 59.5t293 -59.5t239.5 -162t162 -239.5t59.5 -293t-59.5 -293t-162 -239.5t-239.5 -162t-293 -59.5t-293 59.5t-239.5 162t-162 239.5t-59.5 293zM141 723q0 -147 56.5 -278.5t154 -227.5t227.5 -152.5t277 -56.5 t278.5 56.5t227.5 152.5t152.5 227.5t56.5 278.5t-56.5 277t-152.5 227.5t-227 154t-279 56.5q-147 0 -277 -56.5t-227.5 -154t-154 -227.5t-56.5 -277zM246 651q0 23 10 39l78 131l-62 29h246l119 -205l-70 39l-112 -199q-47 -82 -47 -123l-142 228q-20 35 -20 61zM418 971 l127 223q16 31 48 50.5t73 19.5q55 0 97 -29t66 -59l-184 -338zM442 330q0 53 37 108h381v-239h-291q-16 0 -37.5 6t-42 21.5t-34 41t-13.5 62.5zM788 1262h281q41 0 55.5 -8.5t24.5 -26.5l70 -125l73 41l-127 -221h-256l80 51l-112 205q-18 33 -42 53t-47 31zM893 324 l131 208v-94h229q23 0 67 13.5t79 33.5l-154 -231q-23 -35 -50.5 -45t-45.5 -10h-125v-88zM1073 825l232 133l131 -227q14 -20 18 -40.5t4 -39.5q0 -37 -16.5 -67.5t-43 -52t-59 -34t-65.5 -12.5h-12z" />
<glyph unicode="&#x2693;" horiz-adv-x="1429" d="M131 432l291 -84l-82 -72q45 -43 86 -68.5t80 -39.5t74.5 -20.5t70.5 -8.5v813h-262v99h262v24q-55 16 -90 65.5t-35 108.5q0 78 54.5 131.5t130.5 53.5q37 0 69.5 -14.5t57 -39t39 -58.5t14.5 -73q0 -59 -32 -103t-83 -65v-30h266v-99h-266v-813h4q68 6 143.5 30 t166.5 107l-82 72l290 84l-43 -311l-77 84q-111 -113 -227.5 -162t-235.5 -59q-119 10 -236 59t-225 162l-78 -84z" />
<glyph unicode="&#x26a0;" horiz-adv-x="1810" d="M100 94q0 37 23 76l678 1200q23 39 49.5 56.5t54.5 17.5q27 0 52.5 -17.5t46.5 -52.5l677 -1204q20 -35 21 -76q0 -41 -25.5 -67.5t-83.5 -26.5h-1382q-59 0 -85 27.5t-26 66.5zM231 133q0 -10 12.5 -14t47.5 -4h1222q35 0 47.5 4t12.5 14t-8.5 23.5t-18.5 29.5 l-608 1078q-18 35 -39 34q-10 0 -20.5 -10t-18.5 -24l-604 -1080q-10 -16 -17.5 -28.5t-7.5 -22.5zM803 242q0 8 4 22.5t15.5 28.5t28.5 23.5t44 9.5q35 0 60.5 -23.5t25.5 -64.5q0 -39 -25.5 -61.5t-60.5 -22.5q-12 0 -28.5 4t-30 13t-23.5 26.5t-10 44.5zM805 981 q0 33 24.5 63.5t65.5 30.5q49 0 73.5 -27.5t24.5 -66.5l-59 -575q-4 -16 -17.5 -26.5t-23.5 -10.5q-12 0 -25.5 10t-15.5 27z" />
<glyph unicode="&#x2706;" horiz-adv-x="884" d="M215 713q0 231 42 374.5t98.5 223.5t111.5 109.5t82 31.5v-426q-53 0 -73.5 -78t-20.5 -256q0 -25 4 -74t14 -99t28.5 -89t47.5 -43v-412q-18 0 -49 12.5t-68 43t-76 84t-70.5 135.5t-51 195.5t-19.5 267.5zM575 -25v412h123q16 0 28.5 -9t12.5 -32v-328q0 -16 -9 -29.5 t-32 -13.5h-123zM575 1026v426h123q16 0 28.5 -12.5t12.5 -28.5v-334q0 -51 -41 -51h-123z" />
<glyph unicode="&#x2708;" horiz-adv-x="1822" d="M96 858h154l131 -172h393l-229 735h194l424 -735h506q51 0 78 -29.5t27 -64.5q0 -33 -26 -60.5t-77 -27.5h-512l-426 -719h-196l235 719h-391l-125 -164h-154l78 260z" />
<glyph unicode="&#x2709;" horiz-adv-x="2191" d="M131 0v1374h1927v-1374h-1927zM254 213l469 463l-469 467v-930zM332 1249l753 -760l750 760h-1503zM346 131h1487l-455 459l-293 -295l-280 278zM1458 690l465 -465v934z" />
<glyph unicode="&#x2713;" horiz-adv-x="1564" d="M131 729q47 41 106.5 58.5t100.5 17.5q27 0 63.5 -48t72.5 -125t64.5 -171t39.5 -187q76 133 186 292t236 312.5t259.5 285.5t258.5 214l30 -35q-72 -55 -154.5 -148t-167.5 -210t-169 -249t-160 -260t-138.5 -245.5t-103.5 -205.5q-74 -16 -127 -33t-79 -33 q-14 59 -36 136t-48.5 159t-57.5 162t-61.5 146.5t-60 110.5t-54.5 56z" />
<glyph unicode="&#x2716;" horiz-adv-x="1519" d="M51 352l359 353l-359 352l355 356l354 -356l354 356l354 -356l-356 -352l356 -353l-354 -356l-354 358l-354 -358z" />
<glyph unicode="&#x271a;" horiz-adv-x="1531" d="M104 446v472h437v446h471v-446h446v-472h-436v-446h-473v446h-445z" />
<glyph unicode="&#x272a;" horiz-adv-x="1630" d="M86 709q0 150 57.5 282.5t155.5 231t230.5 156t283.5 57.5q152 0 284 -57.5t230 -156t155.5 -231t57.5 -282.5q0 -152 -57.5 -284t-155.5 -230.5t-230 -154.5t-284 -56t-284 56t-230 154.5t-155.5 230.5t-57.5 284zM207 874l289 -286l-50 -408l349 189l387 -189l-66 418 l281 276l-406 84l-196 363l-187 -367z" />
<glyph unicode="&#x2794;" horiz-adv-x="1544" d="M70 567v285h899l-459 457h397l596 -598l-598 -600l-393 -2l459 458h-901z" />
<glyph unicode="&#xe000;" horiz-adv-x="1081" d="M78 418l112 588q41 207 174.5 318.5t321.5 111.5q88 0 168 -29t137.5 -84t83 -135t4.5 -182l-114 -588q-43 -219 -169 -323.5t-323 -104.5q-94 0 -175 28.5t-136.5 83t-80 134t-3.5 182.5zM373 420q-16 -80 25.5 -119t107.5 -39q131 0 162 158l114 586q16 80 -23.5 118.5 t-107.5 38.5q-133 0 -166 -157z" />
<glyph unicode="&#xe001;" horiz-adv-x="817" d="M176 940l60 315l274 170h264l-278 -1425h-295l211 1087z" />
<glyph unicode="&#xe002;" horiz-adv-x="1081" d="M10 0l49 252l684 653q33 31 46.5 68t13.5 74q0 47 -30 76.5t-87 29.5t-110.5 -34t-81.5 -132l-279 62q27 92 79 164.5t118.5 121.5t144.5 75t158 26q82 0 154.5 -18.5t128 -58.5t87 -101.5t31.5 -145.5q0 -55 -14.5 -109.5t-38 -101.5t-52 -87t-59.5 -69l-487 -462h491 l-55 -283h-891z" />
<glyph unicode="&#xe003;" horiz-adv-x="1091" d="M61 377l287 43q2 -90 44 -119t104 -29q41 0 77.5 15.5t63.5 43t42 63.5t15 77q0 66 -36.5 110t-98.5 44h-160l45 225h144q39 0 75.5 14.5t64.5 39t44 58t16 74.5q0 51 -35.5 84t-90.5 33q-23 0 -50.5 -7t-53.5 -23.5t-47.5 -44t-33.5 -68.5l-280 51q31 96 81 166.5 t116.5 117t145 69t165.5 22.5q96 0 170.5 -30t126 -79t78 -115.5t26.5 -140.5q0 -111 -64.5 -203t-171.5 -129l-2 -10q82 -35 112 -105.5t30 -142.5q0 -111 -43 -201t-116 -154.5t-168 -100t-200 -35.5q-76 0 -149.5 21.5t-134 68.5t-98.5 119.5t-40 177.5z" />
<glyph unicode="&#xe004;" horiz-adv-x="1046" d="M-18 199l45 235l675 991h330l-657 -954h241l66 354h295l-66 -354h113l-53 -272h-113l-39 -199h-295l39 199h-581z" />
</font>
</defs>
</svg>
