<?xml version="1.0" standalone="no"?>
<!DOCTYPE svg PUBLIC "-//W3C//DTD SVG 1.1//EN" "http://www.w3.org/Graphics/SVG/1.1/DTD/svg11.dtd" >
<svg xmlns="http://www.w3.org/2000/svg">
<metadata></metadata>
<defs>
<font id="pf_din_text_comp_proMdIt" horiz-adv-x="3723" >
<font-face units-per-em="2048" ascent="1536" descent="-512" />
<missing-glyph horiz-adv-x="419" />
<glyph unicode="fj" horiz-adv-x="884" d="M-20 -313l221 1153h-95l35 172h92l35 172q33 166 135.5 241.5t237.5 75.5q86 0 162 -24.5t129 -79.5l-121 -166q-39 35 -83 47t-89 12q-41 0 -68.5 -12t-46 -30.5t-28 -41t-13.5 -43.5l-30 -151h454l-213 -1116q-29 -141 -107.5 -221.5t-226.5 -80.5q-10 0 -36.5 1.5 t-36.5 3.5l39 208q4 -2 14 -2h14q70 0 93.5 35t35.5 99l176 901h-241l-221 -1153h-217z" />
<glyph unicode="ffj" horiz-adv-x="1341" d="M-18 -309l219 1149h-95l35 174h95l26 141q31 164 133.5 239.5t237.5 75.5q106 0 207 -47q104 92 258 93q86 0 165.5 -29t129.5 -76l-119 -164q-39 33 -85 46.5t-91 13.5q-80 0 -114 -39t-44 -88l-31 -166h453l-211 -1114q-14 -68 -40 -124.5t-65.5 -96t-96 -61 t-132.5 -21.5q-41 0 -78 6l39 209q10 -2 31 -2q37 0 59.5 11t36 32.5t21.5 51t16 64.5l168 871h-236l-221 -1149h-217l221 1149h-239l-219 -1149h-217zM453 1014h239l29 160q4 10 8 30.5t10 36.5q-29 12 -58 17.5t-56 5.5q-39 0 -66 -12.5t-44 -31t-25.5 -42t-12.5 -43.5z " />
<glyph unicode="&#xfb00;" horiz-adv-x="968" d="M-20 -309q53 289 109 574.5t112 574.5h-95l33 170h94l27 135q29 150 125 237.5t250 87.5q45 0 98 -9t90 -25q35 41 103.5 59t134.5 18q20 0 44.5 -1t47.5 -5l-35 -194h-39q-66 0 -97.5 -28t-41.5 -83l-35 -192h150l-35 -170h-150l-221 -1149h-217l221 1149h-235 l-223 -1149h-215zM451 1010h237l45 233q-53 18 -106 19q-80 0 -115 -48.5t-45 -107.5z" />
<glyph unicode="&#xfb01;" horiz-adv-x="884" d="M-23 -311l224 1151h-95l35 172h92l35 170q33 166 135.5 241.5t237.5 75.5q86 0 162 -23.5t129 -80.5l-121 -166q-39 35 -83 47t-89 12q-41 0 -68.5 -11t-45 -29.5t-28 -41t-14.5 -43.5l-30 -151h456l-194 -1012h-217l161 840h-241l-221 -1151h-220z" />
<glyph unicode="&#xfb02;" horiz-adv-x="931" d="M-20 -313l221 1153h-95l35 172h92l33 170q33 166 123 243.5t234 77.5q16 0 55 -2t91 -10t110.5 -23.5t113.5 -40.5l-219 -1122q-2 -12 -3 -22.5t-1 -20.5q0 -37 20.5 -54.5t77.5 -23.5l-45 -196h-30q-127 0 -190.5 53t-63.5 154q0 25 5 55.5t13 68.5l186 955 q-33 10 -64.5 14t-51.5 4q-41 0 -66.5 -11t-42 -30.5t-25 -44t-14.5 -49.5l-26 -145h157l-35 -172h-157l-219 -1153h-219z" />
<glyph unicode="&#xfb03;" horiz-adv-x="1341" d="M-20 -311l221 1151h-95l35 174h95l26 141q31 164 133.5 239.5t237.5 75.5q106 0 207 -47q104 93 258 93q86 0 165.5 -29t129.5 -76l-119 -164q-39 33 -85 46.5t-91 13.5q-80 0 -114 -39t-44 -88l-31 -166h457l-197 -1014h-217l162 840h-240l-221 -1151h-217l221 1151 h-239l-219 -1151h-219zM453 1014h239l29 160q4 10 8 30.5t10 36.5q-29 12 -58 17.5t-56 5.5q-39 0 -66 -12.5t-44 -31t-25.5 -42t-12.5 -43.5z" />
<glyph unicode="&#xfb04;" horiz-adv-x="1388" d="M-18 -311q53 289 108 575.5t111 575.5h-95l33 172h94l27 137q33 166 114 243.5t240 77.5q59 0 118 -12t99 -35q53 47 120 70t141 23q37 0 134 -12.5t224 -65.5l-221 -1133q-2 -12 -3 -22.5t-1 -20.5q0 -37 20.5 -54.5t77.5 -23.5l-45 -196h-31q-127 0 -190.5 53 t-63.5 154q0 25 5.5 55.5t13.5 68.5l188 965q-33 10 -60.5 15.5t-47.5 5.5q-78 0 -112 -42t-44 -96l-31 -155h158l-35 -172h-156l-221 -1151h-217l221 1151h-237l-221 -1151h-215zM451 1012h237l33 164q2 10 5 24t9 37q-29 10 -63.5 16.5t-61.5 6.5q-59 0 -86.5 -26 t-38.5 -71z" />
<glyph unicode="ft" horiz-adv-x="964" d="M-18 -309l219 1149h-95l33 172h90l35 174q12 66 31.5 122t56.5 97t95.5 64.5t150.5 23.5q41 0 90 -6l-41 -197q-86 8 -118.5 -19.5t-41.5 -74.5l-34 -184h239l51 268h213l-51 -268h123l-33 -172h-123l-100 -514q-2 -12 -3 -22.5t-1 -20.5q0 -35 21.5 -55.5t80.5 -24.5 q-10 -51 -19 -102.5t-20 -102.5q-10 0 -19 -1t-19 -1q-141 0 -198.5 51t-57.5 137q0 31 6 68l114 588h-239l-219 -1149h-217z" />
<glyph horiz-adv-x="0" />
<glyph horiz-adv-x="682" />
<glyph unicode=" "  horiz-adv-x="419" />
<glyph unicode="&#x09;" horiz-adv-x="419" />
<glyph unicode="&#xa0;" horiz-adv-x="419" />
<glyph unicode="!" horiz-adv-x="516" d="M70 0l43 223h213l-43 -223h-213zM160 389l182 1036h219l-219 -1036h-182z" />
<glyph unicode="&#x22;" horiz-adv-x="573" d="M190 1004l84 421h156l-84 -421h-156zM453 1004l82 421h157l-84 -421h-155z" />
<glyph unicode="#" horiz-adv-x="829" d="M-37 0l166 442h-115l29 152h141l101 256h-117l29 151h141l162 429h155l-161 -429h159q10 25 33 86.5t48.5 129t48 128t32.5 85.5h156l-164 -429h119l-29 -151h-145l-97 -256h117l-29 -152h-145q-10 -27 -33.5 -89t-50.5 -131.5t-50.5 -132t-31.5 -89.5h-153l165 442h-161 q-10 -27 -34 -89t-49.5 -131.5t-49 -132t-31.5 -89.5h-156zM340 594h160l100 256h-162z" />
<glyph unicode="$" horiz-adv-x="829" d="M37 258q0 45 12 98q55 4 111.5 10.5t111.5 12.5q-10 -41 -10 -74q0 -35 15.5 -62.5t58.5 -35.5l84 430h-2q-141 63 -189.5 138t-48.5 159q0 223 101.5 357t293.5 145q6 37 14.5 74.5t14.5 74.5h76l-29 -149q70 -6 119 -30t80 -59.5t44 -80.5t13 -95q0 -29 -3 -58.5 t-13 -57.5l-221 -19q4 18 8 38t4 38q0 33 -17.5 61.5t-56.5 38.5q-18 -92 -36.5 -184t-34.5 -184q133 -59 189 -126t56 -163q0 -121 -22.5 -223.5t-71.5 -178t-128 -118.5t-191 -47q-8 -41 -15.5 -84t-17.5 -84h-76q10 43 17.5 85t15.5 85q-133 10 -194.5 87t-61.5 181z M406 985q0 -29 13 -54.5t48 -47.5l65 329q-39 -10 -63.5 -36.5t-38.5 -60.5t-19 -68.5t-5 -61.5zM412 209q41 10 68.5 36.5t45 65.5t24.5 85t7 93q0 39 -16.5 64t-51.5 47z" />
<glyph unicode="%" horiz-adv-x="1269" d="M133 735v17.5t2 17.5q8 47 18.5 104.5t22.5 121t25.5 127t25.5 122.5q20 88 76.5 137.5t149.5 49.5q102 0 148 -49.5t46 -135.5q0 -27 -6 -53l-88 -442q-39 -186 -227 -187q-86 0 -139.5 47t-53.5 123zM180 -35l934 1497h135l-934 -1497h-135zM289 754q0 -16 12 -29.5 t37 -13.5q29 0 40 15t15 36l92 473v8q0 16 -10 30.5t-37 14.5t-39 -15.5t-16 -31.5q-23 -121 -46.5 -238.5t-47.5 -238.5v-10zM786 162v17t2 18q8 47 18.5 104t23 120.5t25.5 127t26 123.5q20 88 76.5 137t148.5 49q102 0 148 -49t46 -135q0 -27 -6 -53l-88 -443 q-39 -186 -227 -186q-86 0 -139.5 47t-53.5 123zM942 180q0 -16 12.5 -29.5t36.5 -13.5q29 0 40 15.5t16 35.5l92 474v8q0 16 -10.5 30.5t-36.5 14.5q-27 0 -39.5 -15.5t-16.5 -31.5q-23 -121 -46 -239t-48 -239v-10z" />
<glyph unicode="&#x26;" horiz-adv-x="983" d="M57 287q0 76 20.5 142.5t58.5 125.5t90.5 111.5t115.5 99.5q-23 70 -43 143.5t-20 159.5q0 78 24.5 144.5t69.5 115.5t108.5 78t141.5 29q104 0 180 -47.5t108 -147.5q-47 -23 -92 -45t-90 -45q-10 43 -41 66.5t-72 23.5q-35 0 -58 -15.5t-37.5 -38t-21.5 -51t-7 -53.5 q0 -33 10 -89t33 -122l147 -407q20 37 35.5 87t25.5 93h191q-20 -92 -62.5 -196.5t-99.5 -184.5q25 -66 50.5 -132t51.5 -132h-233l-37 92q-78 -66 -149.5 -85t-143.5 -19q-119 0 -186.5 79.5t-67.5 219.5zM272 315q0 -57 27 -96t80 -39q41 0 85 20.5t77 53.5l-129 332 q-72 -66 -106 -132.5t-34 -138.5z" />
<glyph unicode="'" horiz-adv-x="380" d="M227 1004l84 421h158l-84 -421h-158z" />
<glyph unicode="(" horiz-adv-x="518" d="M109 373q0 154 37.5 307.5t102 296.5t148.5 270t178 230l113 -62q-182 -248 -284.5 -522.5t-102.5 -566.5q0 -133 20.5 -256t57.5 -228l-123 -71q-66 131 -106.5 280.5t-40.5 321.5z" />
<glyph unicode=")" horiz-adv-x="518" d="M-16 -158q84 113 154.5 242t120.5 267t79 282.5t29 288.5q0 131 -20.5 257t-61.5 236l139 62q59 -123 98 -270.5t39 -317.5q0 -158 -37 -311.5t-102.5 -297t-153.5 -272.5t-188 -237z" />
<glyph unicode="*" horiz-adv-x="763" d="M184 1122l78 142l199 -90l28 249h154l-70 -247l232 88l24 -142l-243 -61l121 -195l-140 -86l-86 209l-170 -211l-106 88l194 195z" />
<glyph unicode="+" horiz-adv-x="829" d="M47 518l33 176h299l63 324h172l-63 -324h299l-33 -176h-299l-63 -321h-172l63 321h-299z" />
<glyph unicode="," horiz-adv-x="438" d="M-39 -281l111 269h-52l52 258h227l-49 -252l-166 -275h-123z" />
<glyph unicode="-" horiz-adv-x="747" d="M111 479l39 193h567l-37 -193h-569z" />
<glyph unicode="." horiz-adv-x="432" d="M18 0l50 248h227l-47 -248h-230z" />
<glyph unicode="/" horiz-adv-x="559" d="M-117 -86l686 1571h164l-686 -1571h-164z" />
<glyph unicode="0" horiz-adv-x="829" d="M91 200.5q-9 65.5 5 143.5q4 27 15.5 88.5t27 142t31.5 170t31.5 168t28 140t16.5 86.5q29 145 119 222t223 77q76 0 133 -27t93 -75t47 -113.5t-3 -143.5l-160 -798q-27 -135 -107.5 -214t-221.5 -79q-84 0 -142.5 26.5t-92.5 73.5t-43 112.5zM305 326q-10 -53 5.5 -89 t68.5 -36q90 0 108 102q29 150 57.5 295t51 260t36.5 186l15 72q10 53 -17.5 81t-64.5 28q-43 0 -68.5 -24.5t-33.5 -65.5z" />
<glyph unicode="1" horiz-adv-x="829" d="M322 0l229 1178l-227 -156l47 238l239 165h207l-276 -1425h-219z" />
<glyph unicode="2" horiz-adv-x="829" d="M25 0l36 195l494 694q47 63 69.5 127.5t22.5 113.5q0 39 -19.5 69t-66.5 30q-18 0 -39.5 -10.5t-40 -33t-33 -59t-20.5 -88.5l-209 31q27 184 127 276.5t248 92.5q135 0 206.5 -70t71.5 -199q0 -115 -43 -206t-110 -187l-400 -567h357l-41 -209h-610z" />
<glyph unicode="3" horiz-adv-x="829" d="M48 182.5q-13 65.5 5 153.5l223 29q-25 -94 1 -131t75 -37q43 0 71 23.5t38 82.5l39 207q25 131 -99 131h-61l37 188h72q59 0 95 29t48 96l31 146q4 18 4 40.5t-8.5 42t-26 32t-49.5 12.5q-45 0 -84 -36t-51 -142l-211 30q29 186 129 272.5t241 86.5q84 0 141.5 -28 t90 -73t43 -102t0.5 -119l-19 -102q-8 -41 -19 -81t-29.5 -75t-48.5 -64.5t-75 -50.5l-2 -10q66 -29 77 -93.5t-3 -141.5l-33 -176q-12 -74 -37.5 -134.5t-68.5 -105.5t-105.5 -69.5t-148.5 -24.5q-76 0 -135.5 21.5t-96.5 64.5t-50 108.5z" />
<glyph unicode="4" horiz-adv-x="829" d="M16 213l35 186l490 1026h215l-475 -1007h182l63 336h215l-65 -336h90l-39 -205h-90l-41 -213h-215l41 213h-406z" />
<glyph unicode="5" horiz-adv-x="829" d="M89 182.5q-13 65.5 5 153.5l223 29q-25 -94 1 -131t75 -37q43 0 71 29.5t38 76.5l59 305q14 76 -15.5 103.5t-68.5 27.5q-27 0 -60.5 -17t-60.5 -58h-184l150 761h593l-38 -202h-396l-65 -344q2 0 3 -1t3 -1q33 29 77 42t83 13q55 0 98 -17.5t69.5 -56.5t35 -100.5 t-6.5 -149.5l-47 -286q-12 -74 -37.5 -134.5t-68.5 -105.5t-105.5 -69.5t-148.5 -24.5q-76 0 -135.5 21.5t-96.5 64.5t-50 108.5z" />
<glyph unicode="6" horiz-adv-x="829" d="M90 219q0 31 8 103.5t33 177.5q23 88 49.5 154.5t67.5 138.5l360 632h236q-68 -117 -121 -210t-95 -167.5t-74 -132t-58 -102.5l6 -8q23 16 51.5 23.5t54.5 7.5q72 0 118 -44t46 -149q0 -43 -7 -90t-20 -111q-8 -43 -19 -94t-28 -106q-33 -117 -113.5 -185.5 t-228.5 -68.5q-113 0 -189.5 58t-76.5 173zM311 283q-4 -37 14.5 -62.5t63.5 -25.5q55 0 75.5 28.5t33.5 75.5q23 86 35 152.5t22 109.5q10 51 -17.5 73.5t-66.5 22.5t-64.5 -21.5t-37.5 -55.5q-4 -16 -7.5 -32t-7.5 -32q-20 -98 -29.5 -148.5t-13.5 -84.5z" />
<glyph unicode="7" horiz-adv-x="829" d="M74 0l585 1223h-204l-31 -154h-195l70 356h629l-37 -186l-600 -1239h-217z" />
<glyph unicode="8" horiz-adv-x="829" d="M90 225q0 35 6 83t19 116q8 49 20 100t30.5 96.5t48.5 78t73 44.5q-59 47 -65.5 119t9.5 160q18 96 39 158.5t44.5 104.5t51 66.5t62.5 43.5q74 43 168 43q160 0 227 -97q14 -20 23.5 -46.5t12.5 -66.5t-3 -95.5t-20 -131.5q-16 -78 -52 -147.5t-104 -103.5q-2 -2 0 -2 q33 -25 48 -55.5t17.5 -79t-9 -118t-31.5 -169.5q-16 -78 -44 -142.5t-65 -105.5q-47 -53 -107.5 -71.5t-132.5 -18.5q-111 0 -165 35.5t-82 97.5q-10 20 -14.5 44.5t-4.5 59.5zM299 281q-8 -39 11.5 -67t70.5 -28q39 0 65.5 28t34.5 67l54 270q8 43 -5.5 78t-64.5 35 q-59 0 -82 -35t-31 -78zM424 920q-8 -39 14.5 -62.5t61.5 -23.5t68.5 23.5t37.5 62.5l39 204q10 45 -8.5 78t-69.5 33q-37 0 -64.5 -25.5t-35.5 -64.5z" />
<glyph unicode="9" horiz-adv-x="829" d="M111 0q68 117 121 210t95 168t73.5 132t58.5 102l-6 9q-23 -16 -51.5 -23.5t-55.5 -7.5q-72 0 -118 44t-46 148q0 43 7.5 90.5t19.5 110.5q8 43 19.5 94t27.5 107q33 117 114 185.5t228 68.5q113 0 189.5 -58.5t76.5 -173.5q0 -31 -8 -103.5t-33 -176.5 q-23 -88 -49 -154.5t-67 -138.5l-361 -633h-235zM399 864q-10 -51 17.5 -73.5t66.5 -22.5t64.5 21.5t38.5 56.5q4 16 7 31.5t7 31.5q20 98 29.5 148.5t13.5 85.5q4 37 -14.5 62.5t-63.5 25.5q-55 0 -75.5 -28.5t-32.5 -76.5q-23 -86 -35 -152.5t-23 -109.5z" />
<glyph unicode=":" horiz-adv-x="432" d="M18 0l50 248h227l-47 -248h-230zM129 571l49 248h228l-48 -248h-229z" />
<glyph unicode=";" horiz-adv-x="438" d="M-39 -281l111 269h-52l52 258h227l-49 -252l-166 -275h-123zM133 571l49 248h228l-48 -248h-229z" />
<glyph unicode="&#x3c;" horiz-adv-x="829" d="M53 537l29 147l840 383l-41 -215l-607 -254l504 -252l-37 -192z" />
<glyph unicode="=" horiz-adv-x="829" d="M14 352l35 178h770l-35 -178h-770zM82 692l33 178h770l-33 -178h-770z" />
<glyph unicode="&#x3e;" horiz-adv-x="829" d="M-16 154l39 219l602 252l-506 254l39 188l692 -383l-29 -147z" />
<glyph unicode="?" horiz-adv-x="784" d="M164 1075q27 193 121 278t258 85q143 0 230 -77t87 -224q0 -68 -10 -117t-26.5 -89t-40 -75t-54.5 -74q-66 -84 -101.5 -135t-57 -92t-33 -81t-25.5 -97h-217q18 92 40.5 173t78.5 152q61 82 103 134.5t67.5 93.5t36 79t10.5 87q0 47 -23.5 86t-83.5 39q-25 0 -49 -7.5 t-44.5 -27t-36 -53t-19.5 -84.5zM227 0l43 223h211l-43 -223h-211z" />
<glyph unicode="@" horiz-adv-x="1601" d="M160 483q0 205 58 383t167 310.5t263.5 207t348.5 74.5q147 0 254 -41t175.5 -113.5t102.5 -172t34 -216.5q0 -178 -42 -302t-108.5 -200.5t-147.5 -110.5t-159 -34q-12 0 -39 4t-56.5 16.5t-55 33t-33.5 55.5h-4q-29 -41 -80.5 -71t-106.5 -30q-80 0 -136 43t-56 136 q0 53 14 143t33 174q14 68 31.5 127t46 105.5t72.5 73t112 26.5q33 0 70.5 -16.5t62.5 -55.5l2 2l12 62h185l-111 -574q0 -10 -1 -17t-1 -13q0 -35 19.5 -50.5t52.5 -15.5q51 0 99 35t84 98.5t57.5 153.5t21.5 198q0 184 -108.5 291t-305.5 107q-168 0 -293 -67.5 t-208 -180.5t-123.5 -256t-40.5 -293q0 -219 105 -341t327 -122q49 0 91 4t85 14.5t87 28t97 43.5q10 -35 21.5 -69.5t23.5 -69.5q-102 -43 -204.5 -70.5t-206.5 -27.5q-279 0 -433.5 141t-154.5 440zM731 516q0 -65 68 -65q29 0 50 16t32 43l16 70q16 78 25.5 135t19.5 104 q4 16 4 23.5v13.5q0 31 -16.5 50.5t-42.5 19.5q-35 0 -56.5 -15.5t-39.5 -70.5l-37 -166q-14 -70 -18.5 -104.5t-4.5 -53.5z" />
<glyph unicode="A" horiz-adv-x="864" d="M-59 0l563 1425h246l14 -1425h-223l2 297h-262l-111 -297h-229zM354 506h195l6 280l16 310h-10l-104 -312z" />
<glyph unicode="B" horiz-adv-x="880" d="M25 0l276 1425h289q160 0 236.5 -72.5t76.5 -215.5q0 -164 -56 -256t-165 -127q0 -4 -1 -5t-1 -6q68 -23 93.5 -77t25.5 -127q0 -264 -119 -401.5t-324 -137.5h-331zM281 205h61q70 0 117 23.5t75.5 63.5t41 95t12.5 121q0 141 -146 141h-73q-23 -113 -44.5 -223.5 t-43.5 -220.5zM408 848h71q98 0 153.5 64.5t55.5 181.5q0 66 -35 94.5t-106 28.5h-66z" />
<glyph unicode="C" horiz-adv-x="841" d="M70 246q0 25 2 52.5t8 55.5l135 695q14 80 41 150.5t72 123.5t113.5 84t168.5 31q150 0 223.5 -67.5t81.5 -174.5q0 -27 -1 -52.5t-7 -53.5l-221 -37q6 33 6 57q0 55 -26.5 87t-75.5 32q-39 0 -65.5 -16.5t-44 -42t-28 -55.5t-16.5 -56l-141 -729q-4 -23 -5 -45.5t6 -41 t25.5 -29.5t53.5 -11q57 0 107 38t65 134q53 -10 106.5 -20.5t106.5 -20.5q-25 -158 -114 -252t-263 -94q-154 0 -232.5 67.5t-80.5 190.5z" />
<glyph unicode="D" horiz-adv-x="890" d="M25 0l276 1425h315q127 0 208 -49t91 -153q1 -14 1 -30q0 -67 -14 -173q-17 -131 -50 -305q-33 -176 -58.5 -305t-66.5 -213q-59 -115 -143 -156t-195 -41h-364zM285 209h96q84 0 123 43t55 125q25 121 48.5 243.5t42 223t30.5 164t12 67.5q3 19 3 36q1 41 -17 65 q-24 36 -100 36h-97z" />
<glyph unicode="E" horiz-adv-x="778" d="M25 0l276 1425h633l-41 -208h-412l-75 -388h358l-41 -211h-358l-80 -411h411l-39 -207h-632z" />
<glyph unicode="F" horiz-adv-x="778" d="M25 0l276 1425h633l-41 -208h-412l-75 -388h358l-41 -211h-358l-119 -618h-221z" />
<glyph unicode="G" horiz-adv-x="874" d="M74 240q0 94 45 311t108 539q35 162 127.5 255t266.5 93q158 0 230.5 -82t72.5 -211q0 -18 -2 -36.5t-7 -39.5q-55 -8 -106 -15t-107 -18q2 10 3 31q0 72 -28 117t-85 45q-45 0 -72.5 -16.5t-45 -44t-27 -64.5t-17.5 -76q-35 -178 -57.5 -297t-38 -197.5t-23.5 -129 t-16 -91.5q-3 -15 -3 -29q0 -30 16 -54q22 -33 91 -33q129 0 154 129l53 264h-131l37 192h350l-88 -454q-18 -96 -54 -161t-87 -104.5t-113.5 -57t-134.5 -17.5q-66 0 -122 16t-98 48t-66.5 79t-24.5 109z" />
<glyph unicode="H" horiz-adv-x="907" d="M25 0l276 1425h221l-116 -596h253l117 596h219l-276 -1425h-219l118 623h-253l-119 -623h-221z" />
<glyph unicode="I" horiz-adv-x="444" d="M29 0l276 1425h223l-276 -1425h-223z" />
<glyph unicode="J" horiz-adv-x="753" d="M-51 154l180 118q16 -35 51 -55t70 -20q63 0 98 34.5t45 87.5l215 1106h221l-215 -1097q-66 -340 -383 -340q-92 0 -164.5 40t-117.5 126z" />
<glyph unicode="K" horiz-adv-x="880" d="M25 0l276 1425h221l-104 -542h10l360 542h242l-405 -591l170 -834h-220l-112 614l-137 -198l-80 -416h-221z" />
<glyph unicode="L" horiz-adv-x="735" d="M25 0l276 1425h221l-237 -1214h395l-39 -211h-616z" />
<glyph unicode="M" horiz-adv-x="1173" d="M18 0l277 1425h207l71 -417l60 -301h8l172 309l236 409h219l-277 -1425h-221l160 819h-10l-140 -252l-149 -256h-133l-52 264l-40 246h-9l-159 -821h-220z" />
<glyph unicode="N" horiz-adv-x="954" d="M18 0l277 1425h199l116 -585q2 -16 9.5 -58.5t15.5 -90.5l15 -90t9 -60l9 2l163 882h218l-277 -1425h-194l-119 592l-49 264h-9l-163 -856h-220z" />
<glyph unicode="O" horiz-adv-x="851" d="M49 279q0 27 3 54t7 56l138 711q33 168 120.5 253t247.5 85q156 0 238 -81t82 -216q0 -49 -13 -107l-133 -704q-29 -160 -114.5 -251t-249.5 -91q-170 0 -248 81t-78 210zM268 311q0 -47 27 -77.5t84 -30.5t91 34.5t46 96.5l137 706q6 33 6 66q0 51 -24.5 82t-81.5 35 q-59 0 -91 -35t-44 -92l-142 -717q-4 -16 -6 -33.5t-2 -34.5z" />
<glyph unicode="P" horiz-adv-x="843" d="M25 0l276 1425h305q156 0 238 -69.5t82 -229.5q0 -129 -28 -236.5t-86 -183t-147.5 -117.5t-211.5 -42h-103l-104 -547h-221zM391 758h80q113 0 174.5 78.5t61.5 232.5q0 72 -36 110t-116 38h-74z" />
<glyph unicode="Q" horiz-adv-x="880" d="M80 279q0 27 3 54t7 56l137 711q33 168 121 253t248 85q156 0 237.5 -81t81.5 -216q0 -49 -12 -107l-133 -704q-14 -84 -47 -152l98 -98l-129 -135l-92 90q-78 -47 -194 -47q-170 0 -248 81t-78 210zM299 311q0 -47 36 -76.5t93 -29.5h6l-57 57l129 135l45 -45l133 688 q6 33 6 66q0 51 -24.5 82t-81.5 35q-59 0 -91 -35t-44 -92l-142 -717q-4 -16 -6 -33.5t-2 -34.5z" />
<glyph unicode="R" horiz-adv-x="880" d="M25 0l276 1425h305q154 0 237 -73.5t83 -239.5q0 -193 -65.5 -305.5t-188.5 -169.5l88 -637h-225l-72 590h-105l-112 -590h-221zM399 797h90q92 0 156 68.5t64 203.5q0 147 -154 148h-74z" />
<glyph unicode="S" horiz-adv-x="841" d="M45 258q0 49 12 98l224 23q-10 -41 -11 -74q0 -41 22.5 -72.5t86.5 -31.5q53 0 89 25.5t57.5 66.5t29.5 92t8 104t-28.5 82t-100.5 62q-74 33 -121 67.5t-74.5 71.5t-39 77t-11.5 85q0 115 28 208t82 158.5t132 101.5t180 36q82 0 140.5 -21.5t95.5 -57.5t53 -84t16 -104 q0 -29 -3 -58.5t-13 -57.5l-221 -19q10 45 10 78q0 43 -23.5 76t-86.5 33q-49 0 -81 -27t-50.5 -63.5t-25.5 -77.5t-7 -70q0 -43 31.5 -78t125.5 -76q127 -55 173.5 -118.5t46.5 -155.5q0 -123 -23 -226.5t-75 -180t-135 -119.5t-202 -43q-162 0 -236.5 76.5t-74.5 193.5z " />
<glyph unicode="T" horiz-adv-x="696" d="M156 0l235 1217h-231l41 208h682l-41 -208h-232l-235 -1217h-219z" />
<glyph unicode="U" horiz-adv-x="886" d="M82 340l209 1085h221q-4 -23 -19.5 -102.5t-37 -189t-46 -233.5t-46 -234.5t-38 -193.5t-20.5 -112q-4 -24 -5 -46q0 -38 14 -66q20 -46 92 -45q51 0 88.5 28.5t52.5 102.5l213 1091h223l-213 -1095q-35 -184 -131 -263t-254 -79q-172 0 -253 95q-59 69 -59 172 q0 40 9 85z" />
<glyph unicode="V" horiz-adv-x="862" d="M213 0l10 1425h232l-23 -628q0 -27 -2 -82.5t-5 -117.5t-7 -119.5t-8 -90.5h12l147 418l219 620h240l-549 -1425h-266z" />
<glyph unicode="W" horiz-adv-x="1251" d="M162 0l74 1425h233q-2 -27 -8 -98.5t-15.5 -167.5t-18.5 -201.5t-18.5 -199.5t-15.5 -163t-8 -87h10l117 328l215 589h186l-16 -589l-14 -334h10l98 336l172 587h246q-123 -358 -241.5 -712.5t-239.5 -712.5h-226l9 618l6 242h-8q-23 -61 -45.5 -122.5t-45.5 -123.5 q-59 -154 -116.5 -307t-114.5 -307h-225z" />
<glyph unicode="X" horiz-adv-x="847" d="M-70 0l432 745l-135 680h242l57 -417q66 100 119 205.5t107 211.5h264l-408 -680l152 -745h-242l-69 479h-5q-63 -121 -125.5 -239.5t-128.5 -239.5h-260z" />
<glyph unicode="Y" horiz-adv-x="808" d="M211 0l115 582q-29 211 -57.5 421.5t-57.5 421.5h227q10 -111 18.5 -191.5t12.5 -146.5q6 -66 7 -126t3 -113h13q63 145 127.5 288.5t128.5 288.5h239l-442 -843l-113 -582h-221z" />
<glyph unicode="Z" horiz-adv-x="698" d="M-39 0l39 205l573 1012h-358l41 208h596l-41 -198l-571 -1020h372l-39 -207h-612z" />
<glyph unicode="[" horiz-adv-x="481" d="M4 -209l318 1636h323l-29 -149h-129l-260 -1335h129l-28 -152h-324z" />
<glyph unicode="\" horiz-adv-x="512" d="M186 1462h164l39 -1513h-164z" />
<glyph unicode="]" horiz-adv-x="481" d="M-90 -211l27 152h129l258 1337h-129l30 149h322l-318 -1638h-319z" />
<glyph unicode="^" horiz-adv-x="829" d="M59 659l476 762h147l184 -766h-192l-101 523l-305 -519h-209z" />
<glyph unicode="_" horiz-adv-x="1024" d="M-139 -299l30 156h1022l-30 -156h-1022z" />
<glyph unicode="`" horiz-adv-x="759" d="M385 1468l166 97l178 -396l-104 -61z" />
<glyph unicode="a" horiz-adv-x="819" d="M43 182q2 78 15.5 174.5t29.5 186.5q23 113 49.5 203t64.5 151t94 94t136 33q47 0 92 -23.5t64 -66.5q4 0 6 2q4 18 8 37.5t8 38.5h221l-196 -1012h-219l14 78q-2 0 -3 1t-3 1q-78 -92 -184 -92q-84 0 -140.5 43t-56.5 151zM274 295q0 -41 17.5 -70.5t64.5 -29.5 q43 0 73 31.5t46 103.5q16 82 32.5 163.5t31.5 163.5q6 31 6 58.5t-8.5 49t-26.5 34t-51 12.5q-47 0 -74 -39q-29 -47 -45 -111.5t-37 -162.5q-12 -61 -19.5 -112.5t-9.5 -90.5z" />
<glyph unicode="b" horiz-adv-x="790" d="M-4 0q72 375 143.5 743.5t143.5 743.5h223l-109 -551h9q41 49 90 68.5t88 19.5q102 0 150 -50t48 -143v-16q0 -59 -12 -145q-14 -98 -37 -217q-10 -68 -26.5 -127.5t-34.5 -110.5q-23 -68 -54.5 -112t-68.5 -69.5t-77 -35.5t-79 -10q-59 0 -96 20.5t-59 69.5l-7 -4 l-16 -74h-219zM272 290q-1 -6 0 -11q0 -17 6 -33q8 -20 25.5 -32.5t52.5 -12.5q29 0 48.5 11t31.5 28q41 53 82 252q8 39 15.5 81.5t11.5 80.5t5 69v12q0 22 -3 35q-12 45 -74 45q-35 0 -65.5 -25.5t-49.5 -84.5q-8 -23 -14 -54q-16 -78 -31.5 -156.5t-31.5 -156.5 q-7 -24 -9 -48z" />
<glyph unicode="c" horiz-adv-x="737" d="M47 203q-1 10 -1 22q0 17 2 37q3 34 8 74.5t11.5 82.5t12.5 81q8 49 18.5 99t22.5 97t25.5 87t29.5 69q41 78 112.5 127t194.5 49q70 0 125.5 -20.5t91.5 -60.5q38 -40 52 -97q7 -29 7 -62q0 -32 -7 -69l-228 -27q7 32 7 56q0 30 -11 46q-20 30 -59 29q-35 0 -55.5 -17.5 t-34.5 -43.5q-16 -29 -32.5 -100.5t-39.5 -176.5q-15 -78 -25 -137q-9 -50 -9 -79q0 -6 1 -11q4 -33 22.5 -49t55.5 -16q86 0 111 126l217 -32q-31 -141 -114.5 -220t-235.5 -79q-74 0 -125.5 18.5t-84 48t-48 68.5t-17.5 80z" />
<glyph unicode="d" horiz-adv-x="788" d="M29 193q0 16 1 32.5t3 36.5q4 47 15 121t26 145q16 92 36.5 175t47.5 143q14 35 35.5 67.5t52 57t71.5 40t99 15.5q43 0 91 -19.5t73 -56.5h6l104 537h219l-284 -1487h-219l14 76q-2 0 -3 1t-3 1q-41 -49 -87.5 -69.5t-103.5 -20.5q-37 0 -71.5 8t-62.5 31.5t-44 63.5 t-16 102zM266 281q0 -35 19.5 -57.5t60.5 -22.5q55 0 82 37.5t43 111.5q10 49 16.5 77t12.5 62q6 29 13 65t12 69.5t9.5 59.5t4.5 36q0 37 -16.5 61.5t-53.5 28.5q-10 1 -19 1q-34 0 -54 -18q-26 -22 -46 -63q-12 -35 -27.5 -104.5t-29.5 -145.5q-12 -70 -19.5 -122 t-7.5 -76z" />
<glyph unicode="e" horiz-adv-x="784" d="M49 281q0 55 7 112.5t18 110.5q18 96 42.5 190t67.5 168t113 120t176 46q133 0 209 -63.5t76 -173.5q0 -100 -33 -172t-88 -118t-128 -67.5t-153 -21.5q-37 0 -75 6q-6 -31 -11.5 -68t-5.5 -63q0 -41 16.5 -67.5t59.5 -26.5q90 0 113 112l225 -29q-16 -63 -42 -116.5 t-68 -91t-101 -59t-141 -21.5q-84 0 -137.5 23.5t-84 64.5t-43 93t-12.5 112zM313 596q16 -2 29.5 -3t30.5 -1q70 4 119 40t49 120q0 33 -20.5 54t-57.5 21q-59 0 -93 -55t-57 -176z" />
<glyph unicode="f" horiz-adv-x="561" d="M-154 -309l39 198q15 -1 28 -1q113 0 132 92l164 854h-109q10 45 18.5 89t16.5 87h109l35 176q12 63 31.5 117.5t56 96.5t93 66.5t142.5 28.5q23 0 49.5 -2t50.5 -6q-10 -49 -19 -99.5t-21 -97.5q-19 2 -36 2q-57 0 -83 -22q-33 -27 -41 -74l-35 -186h151q-8 -43 -16 -87 t-18 -89h-152l-162 -840q-12 -66 -32.5 -122t-57.5 -98t-95 -66.5t-144 -24.5q-47 0 -95 8z" />
<glyph unicode="g" horiz-adv-x="790" d="M-27 -158l217 49v-12q0 -27 15.5 -57.5t68.5 -30.5q45 0 72 27.5t35 68.5l39 189h-8q-41 -47 -90.5 -66.5t-88.5 -19.5q-102 0 -150 50t-48 142q0 59 10 150.5t33 204.5q14 66 29.5 129t31.5 116q23 72 54.5 119t68.5 75t77 39t81 11q55 0 96 -20.5t64 -69.5q2 0 3 1t3 1 l16 76h221l-217 -1106q-12 -68 -36.5 -126t-65.5 -100t-101.5 -67t-148.5 -25q-135 0 -208 69t-73 183zM268 356q-5 -32 -5 -58q0 -31 7 -54q12 -45 74 -45q53 0 84 49t45 112q16 78 31.5 153t32.5 161q4 23 5 47v5q0 21 -8 40q-8 20 -25 33.5t-48 13.5q-55 0 -80 -41 q-23 -25 -41 -89.5t-39 -160.5q-23 -98 -33 -166z" />
<glyph unicode="h" horiz-adv-x="800" d="M0 0l289 1487h221l-115 -572l8 -2q45 57 100.5 84t106.5 27q61 0 99.5 -19.5t56.5 -52t22 -73.5q1 -17 1 -34q0 -25 -3 -52q0 -10 -14 -86t-35.5 -190t-47 -250t-50.5 -267h-223q23 115 47 237.5t43.5 227t33 175.5t13.5 79q1 7 1 14q0 29 -14 51q-18 26 -63 27 q-55 0 -86 -40t-41 -95l-131 -676h-219z" />
<glyph unicode="i" horiz-adv-x="407" d="M10 0l197 1012h221l-197 -1012h-221zM244 1210l43 215h221l-41 -215h-223z" />
<glyph unicode="j" horiz-adv-x="411" d="M-197 -397l39 209q10 -2 31 -2q37 0 59.5 11t36 32.5t21.5 51t16 64.5l205 1045h223l-219 -1114q-14 -68 -39.5 -124.5t-65.5 -96t-96.5 -61t-132.5 -21.5q-41 0 -78 6zM248 1210l43 215h223l-43 -215h-223z" />
<glyph unicode="k" horiz-adv-x="825" d="M8 0l289 1485h219l-162 -817l8 -2l279 346h268l-342 -400l162 -612h-242l-94 422l-110 -139l-56 -283h-219z" />
<glyph unicode="l" horiz-adv-x="454" d="M49 195q0 25 5 55.5t14 68.5l225 1168h223l-231 -1182q-2 -12 -3 -22.5t-1 -20.5q0 -37 20.5 -54.5t77.5 -23.5l-45 -196h-31q-127 0 -190.5 53t-63.5 154z" />
<glyph unicode="m" horiz-adv-x="1222" d="M10 0l197 1014h221l-18 -92l8 -2q41 45 91 74.5t107 29.5q84 0 122 -33t50 -86q53 53 116 86t124 33q57 0 93 -17.5t55.5 -46t24.5 -68.5q3 -22 3 -46q0 -19 -2 -39q0 -10 -13 -83t-34.5 -186.5t-49.5 -254t-54 -283.5h-224q23 119 47.5 243t44 228t33 174t13.5 78 q1 10 1 18q0 68 -71 68q-39 0 -73 -26.5t-46 -75.5l-135 -707h-223q25 119 49.5 245t43.5 229.5t32.5 172t13.5 74.5v12q0 76 -72 76q-41 0 -75.5 -32t-44.5 -87l-134 -690h-221z" />
<glyph unicode="n" horiz-adv-x="798" d="M-2 0q47 256 96 506t99 506h221l-21 -99h8q43 57 98.5 84t108.5 27q104 0 143.5 -53t39.5 -129q0 -33 -13 -90q-4 -16 -13 -68.5t-23.5 -124.5t-30 -156t-30.5 -162.5t-27.5 -143t-18.5 -97.5h-221q23 119 42 217t36.5 181t31 153t23.5 129q4 20 5 31.5t1 21.5 q0 35 -19.5 56.5t-60.5 21.5q-55 0 -86 -40t-41 -95l-129 -676h-219z" />
<glyph unicode="o" horiz-adv-x="782" d="M55 279q6 104 29 219q23 113 47.5 211t58.5 159q45 78 122 119t171 41q74 0 127.5 -20.5t88 -55t51 -79t16.5 -91.5q0 -31 -4 -71.5t-10.5 -84.5t-13.5 -87t-13 -78q-25 -125 -53.5 -215t-73.5 -147.5t-109.5 -85t-158.5 -27.5q-86 0 -140.5 27.5t-84 69.5t-40 94 t-10.5 102zM272 281q0 -37 20.5 -62.5t63.5 -25.5q35 0 59.5 19t37.5 48q8 18 24.5 83t31.5 140.5t27.5 145t12.5 98.5q0 41 -18.5 69.5t-57.5 28.5q-37 0 -62.5 -16t-43.5 -59t-48 -175q-4 -23 -10 -51t-12 -59t-12 -60.5t-9 -52.5q-2 -20 -3 -37.5t-1 -33.5z" />
<glyph unicode="p" horiz-adv-x="792" d="M-92 -395l274 1409h219l-14 -76l6 -4q39 51 85 71.5t106 20.5q41 0 76.5 -10t61.5 -34t40 -63.5t14 -99.5q0 -20 -4 -65t-12 -104.5t-19.5 -127t-26 -133t-30.5 -124t-35 -97.5q-16 -35 -37.5 -67.5t-51.5 -57.5t-72 -40t-97 -15q-43 0 -92 18.5t-72 56.5h-8l-90 -458 h-221zM268 279q4 -35 22.5 -54.5t53.5 -19.5q41 0 67.5 20.5t43.5 59.5q12 35 27.5 104.5t29.5 145.5q29 143 29 196q0 35 -19.5 57.5t-62.5 22.5q-55 0 -83 -43t-40 -104l-27 -142l-35 -172q-6 -43 -6 -71z" />
<glyph unicode="q" horiz-adv-x="796" d="M45 197q2 78 20.5 208t53.5 263q25 100 57.5 168.5t72.5 109.5t87 59.5t98 18.5q57 0 95 -19.5t61 -68.5l6 2l16 74h222l-275 -1407h-223l96 471h-6q-41 -49 -92 -68.5t-90 -19.5q-106 0 -154 56q-45 52 -45 138v15zM276 276q0 -77 78 -77h4q41 0 72 35q33 38 47 104 l68 336q6 23 6 47t-8 43.5t-24.5 33t-47.5 13.5q-61 0 -89 -47t-48 -150q-6 -27 -16.5 -70.5t-19.5 -93t-15.5 -96.5t-6.5 -78z" />
<glyph unicode="r" horiz-adv-x="587" d="M20 0l197 1014h223l-26 -131h4q47 82 103.5 113.5t129.5 31.5h17.5t17.5 -2l-47 -235q-14 2 -28.5 3t-28.5 1q-86 0 -144.5 -50.5t-81.5 -158.5l-112 -586h-224z" />
<glyph unicode="s" horiz-adv-x="743" d="M29 209q0 33 6 67l217 29q-6 -25 -6 -41q0 -33 19.5 -53.5t62.5 -20.5q66 0 94.5 44.5t28.5 101.5q0 37 -20.5 57.5t-65.5 36.5q-55 20 -99.5 43t-76 50.5t-48 65.5t-16.5 91q0 76 24.5 139.5t70.5 109.5t112.5 72.5t152.5 26.5q141 0 205 -59.5t64 -157.5 q0 -18 -2 -36.5t-7 -39.5l-219 -26q6 20 6 36q0 31 -19 54.5t-62 23.5q-35 0 -56.5 -13t-33 -31.5t-15.5 -39t-4 -34.5q0 -27 20.5 -46.5t73.5 -40.5q57 -20 100.5 -41.5t73 -51t45 -68.5t15.5 -95q0 -78 -21.5 -146.5t-66.5 -118.5t-116 -79.5t-169 -29.5q-133 0 -200.5 58 t-67.5 163z" />
<glyph unicode="t" horiz-adv-x="516" d="M80 184q0 31 6 68l115 588h-99l33 172h101l51 268h213l-51 -268h122l-32 -172h-123l-101 -514q-2 -12 -3 -22.5t-1 -20.5q0 -35 21.5 -55.5t81.5 -24.5q-10 -51 -19.5 -102.5t-19.5 -102.5q-10 0 -19.5 -1t-19.5 -1q-141 0 -198.5 51t-57.5 137z" />
<glyph unicode="u" horiz-adv-x="800" d="M46 132q-1 18 -1 37q0 25 2 50q0 10 14.5 86t36 189.5t48 250t51.5 269.5h221q-23 -115 -47.5 -239t-44 -228.5t-32.5 -175t-13 -78.5q-1 -7 -1 -14q0 -27 14 -49q17 -26 64 -27q49 0 82 40t43 95l131 676h222l-197 -1014h-223l22 98h-8q-45 -57 -100.5 -83.5 t-106.5 -26.5q-61 0 -99 19.5t-56.5 51t-21.5 73.5z" />
<glyph unicode="v" horiz-adv-x="755" d="M102 1012h238q-4 -102 -5 -202.5t-3 -203.5q-2 -66 -4 -136.5t-13 -174.5h11q72 160 138 345t126 372h244q-90 -260 -197 -503t-238 -509h-254z" />
<glyph unicode="w" horiz-adv-x="1202" d="M109 1012h241q-4 -104 -7 -207t-7 -207q-2 -35 -3 -65.5t-2 -64.5t-4 -71t-8 -84h11q66 158 131 341.5t117 357.5h235l-20 -363q-4 -100 -9.5 -180t-15.5 -156h10q68 170 127.5 334t122.5 365h244q-90 -272 -193.5 -515t-232.5 -497h-246l6 238q6 96 8 188t13 190h-11 q-33 -104 -64.5 -196t-70.5 -187q-25 -57 -48 -115.5t-50 -117.5h-248q-8 256 -14 506t-12 506z" />
<glyph unicode="x" horiz-adv-x="759" d="M-74 0l346 516q-35 125 -69.5 248t-69.5 248h242l55 -305h4l168 305h256l-336 -496l152 -516h-242l-55 322l-195 -322h-256z" />
<glyph unicode="y" horiz-adv-x="737" d="M-115 -219q53 6 93 20.5t72 40t58.5 64.5t57.5 98l-60 1008h230v-379q0 -33 -1 -77t-3 -92t-6 -94t-9 -83h9q33 70 66.5 155.5t67.5 180t65.5 193.5t60.5 196h233q-109 -309 -224.5 -580.5t-236.5 -505.5q-41 -76 -85 -137t-99 -105t-126 -69t-161 -27z" />
<glyph unicode="z" horiz-adv-x="671" d="M-33 0l37 201l438 614h-295l39 197h543l-35 -187l-444 -618h323l-38 -207h-568z" />
<glyph unicode="{" horiz-adv-x="501" d="M55 561l27 135q68 8 108.5 66.5t61.5 155.5l55 286q10 49 27.5 90t49.5 70t79 45t115 16h86l-29 -151h-33q-47 0 -72.5 -30t-35.5 -83l-54 -274q-10 -53 -29.5 -96t-44 -74t-50 -52.5t-50.5 -31.5l-2 -10q41 -16 68.5 -79t7.5 -173l-57 -310q-14 -70 7 -94t56 -24h33 l-31 -154h-78q-98 0 -154.5 62.5t-31.5 195.5l53 293q20 100 2 156.5t-84 64.5z" />
<glyph unicode="|" horiz-adv-x="481" d="M156 -330v1825h174v-1825h-174z" />
<glyph unicode="}" horiz-adv-x="501" d="M-82 -209l29 152h30q41 0 68 30.5t41 104.5l51 264q10 53 29.5 95t44.5 74t50.5 52.5t49.5 30.5l2 10q-41 16 -69.5 80t-5.5 172l57 289q14 76 -7.5 102.5t-56.5 26.5h-32l30 153h78q98 0 154.5 -62t32.5 -196l-54 -280q-20 -102 -1.5 -158.5t83.5 -62.5l-26 -138 q-68 -8 -109 -66t-61 -153l-58 -299q-10 -49 -27.5 -90t-48 -69.5t-80 -45t-120.5 -16.5h-74z" />
<glyph unicode="~" horiz-adv-x="829" d="M53 518q59 90 126 140.5t151 50.5q45 0 78.5 -16.5t63.5 -35t57.5 -34t58.5 -15.5q35 0 66.5 17.5t74.5 68.5l113 -71q-59 -100 -125 -145.5t-137 -45.5q-41 0 -74 15.5t-64.5 33t-62.5 32.5t-66 15q-39 0 -70.5 -15t-84.5 -71z" />
<glyph unicode="&#xa1;" horiz-adv-x="516" d="M6 -414l219 1037h185l-185 -1037h-219zM242 788l45 226h213l-43 -226h-215z" />
<glyph unicode="&#xa2;" horiz-adv-x="813" d="M76 203q-2 25 1 59.5t8 74.5t11 82t13 81q8 49 18 99t22.5 97t25.5 87t30 69q37 72 99.5 119t166.5 55l41 207h106l-40 -211q111 -18 169 -96t33 -207l-227 -27q16 72 -4.5 101.5t-59.5 29.5q-35 0 -55 -17.5t-35 -43.5q-16 -29 -32.5 -100.5t-38.5 -176.5 q-14 -78 -24.5 -137t-8.5 -90q4 -33 22.5 -49t55.5 -16q86 0 110 126l217 -32q-29 -135 -107.5 -213t-217.5 -84l-43 -230h-107l45 236q-102 16 -146 75.5t-48 131.5z" />
<glyph unicode="&#xa3;" horiz-adv-x="829" d="M-33 0l33 186q74 90 123 180.5t74 217.5h-117l33 172h106q0 72 -9 138.5t-9 131.5q0 94 28.5 171t79.5 130t121 83t150 30q154 0 232.5 -77t78.5 -200q0 -51 -12 -108q-55 -4 -110.5 -8.5t-109.5 -8.5q6 33 7 70q0 20 -5.5 40.5t-17.5 37t-32.5 28t-49.5 11.5 q-72 0 -104.5 -52.5t-32.5 -125.5q0 -53 9 -124t9 -143q0 -6 -1 -12t-1 -12h199l-33 -172h-192q-12 -66 -28.5 -117t-35 -96t-42 -85t-50.5 -81h422q-10 -53 -19.5 -103.5t-19.5 -101.5h-674z" />
<glyph unicode="&#xa4;" horiz-adv-x="1030" d="M76 391l121 119q-47 84 -47 170q0 90 49 174q-29 31 -59.5 60.5t-59.5 58.5q63 66 129 129l117 -119q82 49 176 49q88 0 172 -47l119 123q37 -35 64.5 -64.5t64.5 -64.5l-121 -119q49 -84 49 -174q0 -88 -51 -174l121 -119l-129 -131l-119 121q-84 -49 -174 -49 q-94 0 -176 49l-119 -121l-75 75t-52 54zM311 686q0 -37 13.5 -71.5t38 -60.5t58.5 -41t73 -15q78 0 133 55q27 27 42 61.5t15 73.5q0 78 -53 130t-131 52t-133.5 -53t-55.5 -131z" />
<glyph unicode="&#xa5;" horiz-adv-x="829" d="M94 358q4 31 11.5 61t11.5 60h200q6 27 11.5 52.5t9.5 52.5h-201q6 29 12.5 59.5t10.5 58.5h162l-93 723h222q6 -78 11 -152.5t9 -152.5q4 -70 8 -144.5t4 -154.5h13l112 264l148 340h231l-375 -723h170q-4 -29 -10 -59.5t-12 -58.5h-203q-8 -27 -13 -52.5t-12 -52.5h207 q-4 -31 -11 -60.5t-11 -60.5h-209l-70 -358h-213l70 358h-201z" />
<glyph unicode="&#xa6;" horiz-adv-x="481" d="M156 -340v840h174v-840h-174zM156 635v838h174v-838h-174z" />
<glyph unicode="&#xa7;" horiz-adv-x="866" d="M6 0q35 35 63.5 67.5t61.5 67.5q53 -59 105.5 -78.5t93.5 -19.5q74 0 125 33.5t51 111.5q0 47 -40 97.5t-128 111.5q-47 33 -85 62.5t-64.5 60.5t-40 65.5t-13.5 77.5q0 92 48 163t141 114q-33 39 -46.5 80t-13.5 88q0 72 27.5 133t77 106t118 71t152.5 26q98 0 170 -34 t135 -99l-139 -144q-53 59 -99.5 74.5t-89.5 15.5q-66 0 -103.5 -35.5t-37.5 -91.5q0 -35 27.5 -66.5t68.5 -64t90.5 -67.5t90.5 -75t68.5 -87t27.5 -102q0 -92 -45 -162t-123 -115q43 -80 43 -164q0 -78 -27.5 -144.5t-80 -114.5t-125 -75.5t-162.5 -27.5q-43 0 -89 10 t-89.5 28.5t-80 45t-63.5 57.5zM342 705q0 -31 19.5 -61t50 -55.5t67.5 -49t72 -43.5q45 16 67.5 55t22.5 74q0 47 -47.5 92t-151.5 102q-37 -12 -68.5 -45t-31.5 -69z" />
<glyph unicode="&#xa8;" horiz-adv-x="724" d="M244 1163l41 215h192l-43 -215h-190zM580 1163l41 215h192l-41 -215h-192z" />
<glyph unicode="&#xa9;" horiz-adv-x="1439" d="M88 698q0 156 40 287t119 227.5t195.5 150.5t268.5 54q150 0 265.5 -54t195 -150.5t120.5 -227.5t41 -287q0 -154 -41 -283.5t-120.5 -226t-195 -150.5t-265.5 -54q-154 0 -269.5 54t-194.5 150.5t-119 226.5t-40 283zM233 698q0 -121 32 -226t92.5 -184t149.5 -125 t204 -46q119 0 209 46t149 125t89 184.5t30 225.5q0 121 -31 228.5t-91 187.5t-149 126t-206 46q-121 0 -211 -46t-149.5 -126t-88.5 -187.5t-29 -228.5zM481 483v404q0 111 66 171t168 60q98 0 165.5 -61.5t67.5 -159.5l-137 -35q-2 53 -26.5 85t-69.5 32 q-47 0 -69.5 -26.5t-22.5 -61.5v-418q0 -35 25.5 -59.5t64.5 -24.5q88 0 94 117l141 -29q-4 -111 -66.5 -169t-166.5 -58q-98 0 -166 58.5t-68 174.5z" />
<glyph unicode="&#xaa;" horiz-adv-x="565" d="M113 700q0 53 10 115t20 119q14 74 32 132t45.5 100t66.5 63.5t98 21.5q31 0 59.5 -13t44.5 -36l11 43h170l-133 -672h-170l8 37h-4q-20 -23 -50 -35t-61 -12q-63 0 -105 31t-42 106zM293 770q0 -23 7 -40t36 -17q55 0 74 90l45 207q8 33 2 61.5t-45 28.5 q-23 0 -39.5 -16.5t-26.5 -41.5q-6 -18 -15 -55t-17.5 -77t-14.5 -78.5t-6 -61.5z" />
<glyph unicode="&#xab;" horiz-adv-x="997" d="M106 492l304 395h213l-316 -402l148 -391h-199zM481 492l305 395h211l-313 -402l145 -391h-198z" />
<glyph unicode="&#xac;" horiz-adv-x="829" d="M47 518l33 176h768l-96 -497h-174l63 321h-594z" />
<glyph unicode="&#xad;" horiz-adv-x="747" d="M111 479l39 193h567l-37 -193h-569z" />
<glyph unicode="&#xae;" horiz-adv-x="995" d="M92 981q0 100 25.5 186t78 148.5t128 97.5t178.5 35q96 0 171 -35t126 -97.5t77.5 -148.5t26.5 -186q0 -98 -26.5 -183t-77.5 -147.5t-126 -97.5t-171 -35q-102 0 -178 35t-128.5 97.5t-78 147.5t-25.5 183zM199 985q0 -80 19.5 -147.5t58 -116.5t95 -76t130.5 -27 q76 0 132 29t92 78t53.5 115.5t17.5 144.5q0 76 -19.5 143.5t-56.5 118.5t-92 80t-127 29q-78 0 -135.5 -29t-94 -80t-55 -118.5t-18.5 -143.5zM350 707v555h154q154 0 153 -170q0 -47 -13 -86t-54 -64q4 -14 16 -48t26.5 -71t27 -69.5t18.5 -46.5h-115l-71 217h-35v-217 h-107zM457 1016h39q35 0 47 20.5t12 55.5q0 37 -13.5 57t-52.5 20h-32v-153z" />
<glyph unicode="&#xaf;" horiz-adv-x="761" d="M301 1182l35 182h504l-37 -182h-502z" />
<glyph unicode="&#xb0;" horiz-adv-x="649" d="M92 1198q0 49 18.5 93t51.5 76t76 51.5t92 19.5t92 -19.5t75.5 -51.5t51 -76t18.5 -93t-18.5 -92t-51 -76t-75.5 -51t-92 -18t-92 18t-76 51t-51.5 76t-18.5 92zM225 1198q0 -45 30 -75.5t75 -30.5t74.5 30.5t29.5 75.5q0 47 -29.5 77t-74.5 30t-75 -30t-30 -77z" />
<glyph unicode="&#xb1;" horiz-adv-x="829" d="M-53 0l33 168h770l-33 -168h-770zM53 553l33 172h299l61 313h172l-61 -313h299l-33 -172h-299l-59 -313h-172l59 313h-299z" />
<glyph unicode="&#xb2;" horiz-adv-x="530" d="M92 758l25 127l311 399q25 33 39 70t18 59q2 23 -8 40t-41 17t-51 -26.5t-31 -93.5l-155 22q23 119 88 181.5t170 62.5q96 0 146 -47t46 -135q-4 -53 -28.5 -106.5t-67.5 -113.5l-240 -307h226l-29 -149h-418z" />
<glyph unicode="&#xb3;" horiz-adv-x="530" d="M115 922v26.5t4 26.5l164 16q-6 -29 -7 -45q0 -23 11.5 -36t42.5 -13q23 0 36 18.5t17 36.5l20 111q12 68 -61 67h-49l24 130h58q29 0 53.5 19t34.5 67l12 65q4 18 -3 38.5t-44 20.5q-29 0 -52.5 -25.5t-27.5 -80.5q-39 4 -77 10t-78 12q20 109 82.5 168.5t173.5 59.5 q98 0 141 -46t43 -118q0 -14 -3 -49t-9 -58q-12 -45 -35 -82.5t-66 -60.5q29 -14 40 -34.5t11 -51.5q0 -41 -9 -96t-19 -94q-23 -88 -83.5 -131t-148.5 -43q-94 0 -145 46t-51 126z" />
<glyph unicode="&#xb4;" horiz-adv-x="759" d="M416 1176l243 362l168 -82l-303 -344z" />
<glyph unicode="&#xb6;" horiz-adv-x="882" d="M125 907q0 82 24.5 175.5t74.5 171t129 129t188 51.5h479l-39 -195h-92l-268 -1382h-175l269 1382h-103l-268 -1382h-178l153 790h-12q-96 10 -139 84t-43 176z" />
<glyph unicode="&#xb7;" horiz-adv-x="432" d="M111 434l47 248h229l-49 -248h-227z" />
<glyph unicode="&#xb8;" horiz-adv-x="882" d="M27 -385l51 96q37 -18 64.5 -22t52.5 -4q39 0 61.5 22.5t22.5 52.5q0 51 -72 52h-8l-43 38l100 201h100l-71 -143q84 -10 111.5 -52t27.5 -85q0 -25 -9 -57.5t-34 -63.5t-67 -52.5t-107 -21.5q-8 0 -27.5 1t-45 5t-53.5 11.5t-54 21.5z" />
<glyph unicode="&#xb9;" horiz-adv-x="436" d="M199 1341l30 168l160 101h150l-166 -852h-164l133 676q-10 -6 -29.5 -18.5t-42 -28t-43 -27.5t-28.5 -19z" />
<glyph unicode="&#xba;" horiz-adv-x="540" d="M111 748q0 39 4 77.5t12 79.5q12 59 25.5 117.5t33.5 97.5q35 66 86.5 99.5t133.5 33.5q104 0 154 -51t50 -117q0 -41 -7 -101t-17 -107q-16 -80 -37 -139.5t-51.5 -98.5t-75.5 -57.5t-111 -18.5q-59 0 -97 16.5t-61.5 42t-32.5 58.5t-9 68zM274 760q0 -23 11.5 -36 t33.5 -13q25 0 40.5 12t25.5 34.5t16.5 53.5t14.5 68q10 49 19 103t9 83q0 20 -13.5 31.5t-31.5 11.5t-34.5 -9t-26.5 -32q-8 -16 -16.5 -48t-18.5 -79q-4 -18 -9 -42t-9 -49.5t-7.5 -49t-3.5 -39.5z" />
<glyph unicode="&#xbb;" horiz-adv-x="997" d="M25 96l319 402l-154 389h199l154 -395l-305 -396h-213zM401 96l316 402l-152 389h199l154 -395l-306 -396h-211z" />
<glyph unicode="&#xbc;" horiz-adv-x="1269" d="M182 -35l934 1497h135l-934 -1497h-135zM260 1157l31 168l160 100h149l-166 -852h-164l133 676q-10 -6 -29.5 -18t-42 -27.5t-43 -28t-28.5 -18.5zM705 121l24 127l305 604h156l-297 -592h108l41 201h154l-41 -201h59l-26 -139h-60l-24 -121h-152l25 121h-272z" />
<glyph unicode="&#xbd;" horiz-adv-x="1269" d="M141 -35l934 1497h135l-934 -1497h-135zM236 1157l30 168l160 100h149l-165 -852h-164l133 676q-10 -6 -29.5 -18t-42 -27.5t-43 -28t-28.5 -18.5zM733 0l25 127l311 399q25 33 39 70t18 59q2 23 -8 40.5t-41 17.5t-51 -27t-31 -94l-155 22q23 119 88 181.5t170 62.5 q96 0 146 -47t46 -135q-4 -53 -28.5 -106.5t-67.5 -112.5l-240 -307h226l-29 -150h-418z" />
<glyph unicode="&#xbe;" horiz-adv-x="1269" d="M139 737v26.5t4 27.5l164 16q-6 -29 -6 -45q0 -23 11.5 -36t41.5 -13q23 0 36 18.5t18 36.5l20 111q12 68 -61 67h-50l25 129h57q29 0 53.5 19.5t34.5 66.5l13 66q4 18 -3.5 38.5t-43.5 20.5q-29 0 -52.5 -25.5t-27.5 -80.5q-39 4 -77 10t-79 12q20 109 82.5 168.5 t173.5 59.5q98 0 141 -46.5t43 -117.5q0 -14 -3 -49t-9 -58q-12 -45 -34.5 -83t-65.5 -60q29 -14 40 -34.5t11 -51.5q0 -41 -9 -96.5t-20 -94.5q-23 -88 -83 -131t-148 -43q-94 0 -145.5 46t-51.5 126zM225 -35l934 1497h135l-934 -1497h-135zM735 121l25 127l305 604h156 l-297 -592h108l41 201h154l-41 -201h59l-26 -139h-60l-24 -121h-152l25 121h-273z" />
<glyph unicode="&#xbf;" horiz-adv-x="784" d="M25 -121q0 125 38.5 206t92.5 146q63 82 101 134.5t59.5 93.5t32.5 81t24 97h217q-20 -88 -41 -170t-78 -156q-59 -76 -100 -128t-66.5 -94t-38 -82t-12.5 -89q0 -47 24.5 -85t81.5 -38q25 0 49.5 7.5t45 25.5t36 51t19.5 86l211 -26q-27 -190 -121 -275.5t-258 -85.5 q-143 0 -230 77t-87 224zM403 791l43 223h211l-43 -223h-211z" />
<glyph unicode="&#xc0;" horiz-adv-x="864" d="M-59 0l563 1425h246l14 -1425h-223l2 297h-262l-111 -297h-229zM283 1669l112 158l310 -244l-70 -108zM354 506h195l6 280l16 310h-10l-104 -312z" />
<glyph unicode="&#xc1;" horiz-adv-x="864" d="M-59 0l563 1425h246l14 -1425h-223l2 297h-262l-111 -297h-229zM354 506h195l6 280l16 310h-10l-104 -312zM553 1577l367 248l98 -154l-406 -201z" />
<glyph unicode="&#xc2;" horiz-adv-x="864" d="M-59 0l563 1425h246l14 -1425h-223l2 297h-262l-111 -297h-229zM295 1563l321 270h129l207 -266l-92 -82l-205 166l-280 -166zM354 506h195l6 280l16 310h-10l-104 -312z" />
<glyph unicode="&#xc3;" horiz-adv-x="864" d="M-59 0l563 1425h246l14 -1425h-223l2 297h-262l-111 -297h-229zM307 1583q51 86 111.5 128t118.5 42q31 0 59.5 -11t54 -24.5t49 -25t45.5 -11.5q29 0 54.5 12.5t66.5 59.5l107 -65q-53 -100 -112.5 -136t-112.5 -36q-35 0 -63 11t-52.5 24.5t-48 24.5t-47.5 11 q-25 0 -54.5 -16.5t-68.5 -57.5zM354 506h195l6 280l16 310h-10l-104 -312z" />
<glyph unicode="&#xc4;" horiz-adv-x="864" d="M-59 0l563 1425h246l14 -1425h-223l2 297h-262l-111 -297h-229zM354 506h195l6 280l16 310h-10l-104 -312zM375 1509l41 217h192l-41 -217h-192zM713 1509l41 217h190l-41 -217h-190z" />
<glyph unicode="&#xc5;" horiz-adv-x="864" d="M-59 0l563 1425h246l14 -1425h-223l2 297h-262l-111 -297h-229zM354 506h195l6 280l16 310h-10l-104 -312zM459 1589q0 47 18.5 89t49 75t72.5 51.5t91 18.5q74 0 122 -45t48 -113q0 -47 -17.5 -90t-48 -75t-72.5 -51t-91 -19q-74 0 -123 46t-49 113zM578 1610 q0 -29 20 -47.5t49 -18.5q37 0 65.5 26.5t28.5 67.5q0 29 -19 47.5t-48 18.5q-37 0 -66.5 -28.5t-29.5 -65.5z" />
<glyph unicode="&#xc6;" horiz-adv-x="1296" d="M-31 0l635 1425h799l-29 -208h-411l-56 -388h359l-29 -211h-358l-56 -401h412l-29 -217h-635l47 340h-270l-149 -340h-230zM438 551h209l94 663h-8z" />
<glyph unicode="&#xc7;" horiz-adv-x="841" d="M70 246q0 25 2 52.5t8 55.5l135 695q14 80 41 150.5t72 123.5t113.5 84t168.5 31q150 0 223.5 -67.5t81.5 -174.5q0 -27 -1 -52.5t-7 -53.5l-221 -37q6 33 6 57q0 55 -26.5 87t-75.5 32q-39 0 -65.5 -16.5t-44 -42t-28 -55.5t-16.5 -56l-141 -729q-4 -23 -5 -45.5t6 -41 t25.5 -29.5t53.5 -11q57 0 107 38t65 134q53 -10 106.5 -20.5t106.5 -20.5q-25 -156 -111 -249t-258 -97q-10 -20 -19.5 -40t-19.5 -40q84 -10 112 -52t28 -85q0 -25 -9.5 -57.5t-34 -63.5t-66.5 -52.5t-108 -21.5q-8 0 -27.5 1t-45 5t-53 11.5t-54.5 21.5l51 96 q37 -18 65 -22t52 -4q39 0 61.5 22.5t22.5 52.5q0 51 -72 52h-8l-43 38q16 37 34.5 73t37.5 71q-111 18 -167 82.5t-58 169.5z" />
<glyph unicode="&#xc8;" horiz-adv-x="778" d="M25 0l276 1425h633l-41 -208h-412l-75 -388h358l-41 -211h-358l-80 -411h411l-39 -207h-632zM330 1669l112 158l310 -244l-70 -108z" />
<glyph unicode="&#xc9;" horiz-adv-x="778" d="M25 0l276 1425h633l-41 -208h-412l-75 -388h358l-41 -211h-358l-80 -411h411l-39 -207h-632zM489 1577l367 248l98 -154l-405 -201z" />
<glyph unicode="&#xca;" horiz-adv-x="778" d="M25 0l276 1425h633l-41 -208h-412l-75 -388h358l-41 -211h-358l-80 -411h411l-39 -207h-632zM287 1563l321 270h129l207 -266l-92 -82l-205 166l-280 -166z" />
<glyph unicode="&#xcb;" horiz-adv-x="778" d="M25 0l276 1425h633l-41 -208h-412l-75 -388h358l-41 -211h-358l-80 -411h411l-39 -207h-632zM356 1509l41 217h193l-41 -217h-193zM694 1509l41 217h191l-41 -217h-191z" />
<glyph unicode="&#xcc;" horiz-adv-x="444" d="M29 0l276 1425h223l-276 -1425h-223zM84 1669l113 158l309 -244l-70 -108z" />
<glyph unicode="&#xcd;" horiz-adv-x="444" d="M29 0l276 1425h223l-276 -1425h-223zM385 1577l367 248l98 -154l-406 -201z" />
<glyph unicode="&#xce;" horiz-adv-x="444" d="M29 0l276 1425h223l-276 -1425h-223zM98 1563l322 270h129l207 -266l-92 -82l-205 166l-281 -166z" />
<glyph unicode="&#xcf;" horiz-adv-x="444" d="M29 0l276 1425h223l-276 -1425h-223zM166 1509l41 217h192l-41 -217h-192zM504 1509l41 217h190l-41 -217h-190z" />
<glyph unicode="&#xd0;" horiz-adv-x="890" d="M25 0l125 645h-93l29 150h92l123 630h315q127 0 208 -49t91 -153q4 -72 -13 -203t-50 -305q-33 -176 -58.5 -305t-66.5 -213q-59 -115 -143 -156t-195 -41h-364zM285 209h96q84 0 123 43t55 125q25 121 48.5 243.5t42 223t30.5 164t12 67.5q10 66 -14.5 101.5t-99.5 35.5 h-97l-82 -417h115l-29 -150h-116z" />
<glyph unicode="&#xd1;" horiz-adv-x="954" d="M18 0l277 1425h199l116 -585q2 -16 9.5 -58.5t15.5 -90.5l15 -90t9 -60l9 2l163 882h218l-277 -1425h-194l-119 592l-49 264h-9l-163 -856h-220zM354 1573q51 86 111.5 128t118.5 42q31 0 59.5 -11.5t54 -24.5t49 -24.5t46.5 -11.5q29 0 54 12.5t66 59.5l107 -66 q-53 -100 -112.5 -136t-112.5 -36q-35 0 -62.5 11.5t-52.5 24.5t-48.5 24.5t-47.5 11.5q-25 0 -54.5 -16.5t-68.5 -57.5z" />
<glyph unicode="&#xd2;" horiz-adv-x="851" d="M49 279q0 27 3 54t7 56l138 711q33 168 120.5 253t247.5 85q156 0 238 -81t82 -216q0 -49 -13 -107l-133 -704q-29 -160 -114.5 -251t-249.5 -91q-170 0 -248 81t-78 210zM268 311q0 -47 27 -77.5t84 -30.5t91 34.5t46 96.5l137 706q6 33 6 66q0 51 -24.5 82t-81.5 35 q-59 0 -91 -35t-44 -92l-142 -717q-4 -16 -6 -33.5t-2 -34.5zM326 1669l112 158l310 -244l-70 -108z" />
<glyph unicode="&#xd3;" horiz-adv-x="851" d="M49 279q0 27 3 54t7 56l138 711q33 168 120.5 253t247.5 85q156 0 238 -81t82 -216q0 -49 -13 -107l-133 -704q-29 -160 -114.5 -251t-249.5 -91q-170 0 -248 81t-78 210zM268 311q0 -47 27 -77.5t84 -30.5t91 34.5t46 96.5l137 706q6 33 6 66q0 51 -24.5 82t-81.5 35 q-59 0 -91 -35t-44 -92l-142 -717q-4 -16 -6 -33.5t-2 -34.5zM516 1577l367 248l98 -154l-406 -201z" />
<glyph unicode="&#xd4;" horiz-adv-x="851" d="M49 279q0 27 3 54t7 56l138 711q33 168 120.5 253t247.5 85q156 0 238 -81t82 -216q0 -49 -13 -107l-133 -704q-29 -160 -114.5 -251t-249.5 -91q-170 0 -248 81t-78 210zM268 311q0 -47 27 -77.5t84 -30.5t91 34.5t46 96.5l137 706q6 33 6 66q0 51 -24.5 82t-81.5 35 q-59 0 -91 -35t-44 -92l-142 -717q-4 -16 -6 -33.5t-2 -34.5zM279 1563l321 270h129l207 -266l-92 -82l-205 166l-281 -166z" />
<glyph unicode="&#xd5;" horiz-adv-x="851" d="M49 279q0 27 3 54t7 56l138 711q33 168 120.5 253t247.5 85q156 0 238 -81t82 -216q0 -49 -13 -107l-133 -704q-29 -160 -114.5 -251t-249.5 -91q-170 0 -248 81t-78 210zM268 311q0 -47 27 -77.5t84 -30.5t91 34.5t46 96.5l137 706q6 33 6 66q0 51 -24.5 82t-81.5 35 q-59 0 -91 -35t-44 -92l-142 -717q-4 -16 -6 -33.5t-2 -34.5zM293 1583q51 86 111.5 128t117.5 42q31 0 59.5 -11t54.5 -24.5t49.5 -25t45.5 -11.5q29 0 54.5 12.5t66.5 59.5l106 -65q-53 -100 -112.5 -136t-112.5 -36q-35 0 -62.5 11t-52 24.5t-48 24.5t-48.5 11 t-54.5 -16.5t-68.5 -57.5z" />
<glyph unicode="&#xd6;" horiz-adv-x="851" d="M49 279q0 27 3 54t7 56l138 711q33 168 120.5 253t247.5 85q156 0 238 -81t82 -216q0 -49 -13 -107l-133 -704q-29 -160 -114.5 -251t-249.5 -91q-170 0 -248 81t-78 210zM268 311q0 -47 27 -77.5t84 -30.5t91 34.5t46 96.5l137 706q6 33 6 66q0 51 -24.5 82t-81.5 35 q-59 0 -91 -35t-44 -92l-142 -717q-4 -16 -6 -33.5t-2 -34.5zM354 1509l41 217h193l-41 -217h-193zM692 1509l41 217h191l-41 -217h-191z" />
<glyph unicode="&#xd7;" horiz-adv-x="829" d="M8 344l322 264l-207 262l137 113l207 -262l321 264l103 -135l-320 -262l205 -264l-137 -113l-209 262l-319 -264z" />
<glyph unicode="&#xd8;" horiz-adv-x="880" d="M27 25l75 118q-25 57 -24 136q0 27 3 54t7 56l137 711q33 168 121 253t248 85q94 0 161.5 -31t106.5 -88l78 121l72 -43l-109 -168q10 -45 10 -88q0 -49 -12 -107l-133 -704q-29 -160 -115 -251t-250 -91q-90 0 -151.5 22.5t-101.5 63.5l-58 -88zM297 301q4 -45 31 -71.5 t80 -26.5q57 0 90.5 34.5t46.5 96.5l96 493zM326 489l356 549v2q6 33 6 66q0 51 -24.5 82t-81.5 35q-59 0 -91 -35t-45 -92z" />
<glyph unicode="&#xd9;" horiz-adv-x="886" d="M82 340l209 1085h221q-4 -23 -19.5 -102.5t-37 -189t-46 -233.5t-46 -234.5t-38 -193.5t-20.5 -112q-12 -66 8.5 -111.5t92.5 -45.5q51 0 88.5 28.5t52.5 102.5l213 1091h223l-213 -1095q-35 -184 -131 -263t-254 -79q-172 0 -253 95t-50 257zM348 1669l113 158l309 -244 l-70 -108z" />
<glyph unicode="&#xda;" horiz-adv-x="886" d="M82 340l209 1085h221q-4 -23 -19.5 -102.5t-37 -189t-46 -233.5t-46 -234.5t-38 -193.5t-20.5 -112q-12 -66 8.5 -111.5t92.5 -45.5q51 0 88.5 28.5t52.5 102.5l213 1091h223l-213 -1095q-35 -184 -131 -263t-254 -79q-172 0 -253 95t-50 257zM561 1577l367 248l98 -154 l-405 -201z" />
<glyph unicode="&#xdb;" horiz-adv-x="886" d="M82 340l209 1085h221q-4 -23 -19.5 -102.5t-37 -189t-46 -233.5t-46 -234.5t-38 -193.5t-20.5 -112q-12 -66 8.5 -111.5t92.5 -45.5q51 0 88.5 28.5t52.5 102.5l213 1091h223l-213 -1095q-35 -184 -131 -263t-254 -79q-172 0 -253 95t-50 257zM326 1563l321 270h129 l207 -266l-92 -82l-205 166l-280 -166z" />
<glyph unicode="&#xdc;" horiz-adv-x="886" d="M82 340l209 1085h221q-4 -23 -19.5 -102.5t-37 -189t-46 -233.5t-46 -234.5t-38 -193.5t-20.5 -112q-12 -66 8.5 -111.5t92.5 -45.5q51 0 88.5 28.5t52.5 102.5l213 1091h223l-213 -1095q-35 -184 -131 -263t-254 -79q-172 0 -253 95t-50 257zM389 1509l41 217h193 l-41 -217h-193zM727 1509l41 217h190l-40 -217h-191z" />
<glyph unicode="&#xdd;" horiz-adv-x="808" d="M211 0l115 582q-29 211 -57.5 421.5t-57.5 421.5h227q10 -111 18.5 -191.5t12.5 -146.5q6 -66 7 -126t3 -113h13q63 145 127.5 288.5t128.5 288.5h239l-442 -843l-113 -582h-221zM481 1577l367 248l98 -154l-405 -201z" />
<glyph unicode="&#xde;" horiz-adv-x="843" d="M25 0l274 1425h219l-51 -262h94q315 0 316 -282q0 -119 -25 -226.5t-81 -189.5t-148.5 -131t-229.5 -49h-92l-55 -285h-221zM340 496h78q59 0 103 24.5t74 67.5t45 100t15 125q0 66 -32.5 103.5t-110.5 37.5h-82z" />
<glyph unicode="&#xdf;" horiz-adv-x="823" d="M6 0l217 1118q10 76 37 143.5t72 118t110.5 79t151.5 28.5q129 0 201.5 -64.5t72.5 -177.5v-17t-2 -25.5t-6 -44.5t-12 -71q-10 -66 -45 -119.5t-98 -82.5q0 -4 -1.5 -5t-1.5 -3q57 -31 77 -89.5t5 -119.5q-12 -66 -25.5 -150t-39.5 -213q-12 -68 -34.5 -126t-59.5 -101 t-91.5 -67.5t-130.5 -24.5q-16 0 -36.5 2t-38.5 6l30 180q96 0 121 80q6 23 11.5 46.5t9.5 45.5l61 316q4 23 5 28.5t1 9.5q0 33 -21.5 56.5t-70.5 23.5l35 181q53 0 78.5 29.5t36.5 90.5l15 92.5t3 24.5q0 35 -18.5 57.5t-59.5 22.5q-43 0 -71.5 -25.5t-38.5 -70.5 l-228 -1182h-221z" />
<glyph unicode="&#xe0;" horiz-adv-x="819" d="M43 182q2 78 15.5 174.5t29.5 186.5q23 113 49.5 203t64.5 151t94 94t136 33q47 0 92 -23.5t64 -66.5q4 0 6 2q4 18 8 37.5t8 38.5h221l-196 -1012h-219l14 78q-2 0 -3 1t-3 1q-78 -92 -184 -92q-84 0 -140.5 43t-56.5 151zM274 295q0 -41 17.5 -70.5t64.5 -29.5 q43 0 73 31.5t46 103.5q16 82 32.5 163.5t31.5 163.5q6 31 6 58.5t-8.5 49t-26.5 34t-51 12.5q-47 0 -74 -39q-29 -47 -45 -111.5t-37 -162.5q-12 -61 -19.5 -112.5t-9.5 -90.5zM295 1468l166 97l178 -396l-104 -61z" />
<glyph unicode="&#xe1;" horiz-adv-x="819" d="M43 182q2 78 15.5 174.5t29.5 186.5q23 113 49.5 203t64.5 151t94 94t136 33q47 0 92 -23.5t64 -66.5q4 0 6 2q4 18 8 37.5t8 38.5h221l-196 -1012h-219l14 78q-2 0 -3 1t-3 1q-78 -92 -184 -92q-84 0 -140.5 43t-56.5 151zM274 295q0 -41 17.5 -70.5t64.5 -29.5 q43 0 73 31.5t46 103.5q16 82 32.5 163.5t31.5 163.5q6 31 6 58.5t-8.5 49t-26.5 34t-51 12.5q-47 0 -74 -39q-29 -47 -45 -111.5t-37 -162.5q-12 -61 -19.5 -112.5t-9.5 -90.5zM465 1176l244 362l168 -82l-304 -344z" />
<glyph unicode="&#xe2;" horiz-adv-x="819" d="M43 182q2 78 15.5 174.5t29.5 186.5q23 113 49.5 203t64.5 151t94 94t136 33q47 0 92 -23.5t64 -66.5q4 0 6 2q4 18 8 37.5t8 38.5h221l-196 -1012h-219l14 78q-2 0 -3 1t-3 1q-78 -92 -184 -92q-84 0 -140.5 43t-56.5 151zM229 1169l330 306h129l203 -314l-96 -65 l-199 202l-291 -206zM274 295q0 -41 17.5 -70.5t64.5 -29.5q43 0 73 31.5t46 103.5q16 82 32.5 163.5t31.5 163.5q6 31 6 58.5t-8.5 49t-26.5 34t-51 12.5q-47 0 -74 -39q-29 -47 -45 -111.5t-37 -162.5q-12 -61 -19.5 -112.5t-9.5 -90.5z" />
<glyph unicode="&#xe3;" horiz-adv-x="819" d="M43 182q2 78 15.5 174.5t29.5 186.5q23 113 49.5 203t64.5 151t94 94t136 33q47 0 92 -23.5t64 -66.5q4 0 6 2q4 18 8 37.5t8 38.5h221l-196 -1012h-219l14 78q-2 0 -3 1t-3 1q-78 -92 -184 -92q-84 0 -140.5 43t-56.5 151zM250 1225q51 86 111.5 128t117.5 42 q31 0 59.5 -11.5t54 -24.5t49.5 -24.5t46 -11.5q29 0 54.5 12.5t66.5 59.5l106 -66q-53 -100 -112.5 -136t-112.5 -36q-35 0 -62.5 11.5t-52 24.5t-48 24.5t-48.5 11.5t-54.5 -16.5t-68.5 -57.5zM274 295q0 -41 17.5 -70.5t64.5 -29.5q43 0 73 31.5t46 103.5 q16 82 32.5 163.5t31.5 163.5q6 31 6 58.5t-8.5 49t-26.5 34t-51 12.5q-47 0 -74 -39q-29 -47 -45 -111.5t-37 -162.5q-12 -61 -19.5 -112.5t-9.5 -90.5z" />
<glyph unicode="&#xe4;" horiz-adv-x="819" d="M43 182q2 78 15.5 174.5t29.5 186.5q23 113 49.5 203t64.5 151t94 94t136 33q47 0 92 -23.5t64 -66.5q4 0 6 2q4 18 8 37.5t8 38.5h221l-196 -1012h-219l14 78q-2 0 -3 1t-3 1q-78 -92 -184 -92q-84 0 -140.5 43t-56.5 151zM274 295q0 -41 17.5 -70.5t64.5 -29.5 q43 0 73 31.5t46 103.5q16 82 32.5 163.5t31.5 163.5q6 31 6 58.5t-8.5 49t-26.5 34t-51 12.5q-47 0 -74 -39q-29 -47 -45 -111.5t-37 -162.5q-12 -61 -19.5 -112.5t-9.5 -90.5zM297 1163l41 215h192l-43 -215h-190zM633 1163l41 215h192l-41 -215h-192z" />
<glyph unicode="&#xe5;" horiz-adv-x="819" d="M43 182q2 78 15.5 174.5t29.5 186.5q23 113 49.5 203t64.5 151t94 94t136 33q47 0 92 -23.5t64 -66.5q4 0 6 2q4 18 8 37.5t8 38.5h221l-196 -1012h-219l14 78q-2 0 -3 1t-3 1q-78 -92 -184 -92q-84 0 -140.5 43t-56.5 151zM274 295q0 -41 17.5 -70.5t64.5 -29.5 q43 0 73 31.5t46 103.5q16 82 32.5 163.5t31.5 163.5q6 31 6 58.5t-8.5 49t-26.5 34t-51 12.5q-47 0 -74 -39q-29 -47 -45 -111.5t-37 -162.5q-12 -61 -19.5 -112.5t-9.5 -90.5zM383 1245q0 47 18.5 89t49 75t72.5 51.5t91 18.5q74 0 122 -45t48 -113q0 -47 -17 -90t-48 -75 t-73 -51.5t-91 -19.5q-74 0 -123 46.5t-49 113.5zM502 1266q0 -29 20.5 -47.5t48.5 -18.5q37 0 66 26.5t29 67.5q0 29 -19.5 47.5t-48.5 18.5q-37 0 -66.5 -28.5t-29.5 -65.5z" />
<glyph unicode="&#xe6;" horiz-adv-x="1210" d="M20 195q0 55 13.5 127.5t55.5 137t122 108.5t215 44q20 0 43 -2t47 -6l23 119q2 10 2 29q0 31 -19.5 49t-62.5 18q-31 0 -68 -17.5t-53 -74.5l-188 59q43 117 135 178.5t225 61.5q59 0 111.5 -17.5t80.5 -54.5q86 74 228 74q133 0 207.5 -64.5t74.5 -175.5 q0 -98 -33.5 -169.5t-91 -117.5t-131 -67.5t-155.5 -21.5q-41 0 -84 6q-8 -31 -13.5 -63.5t-5.5 -61.5q0 -41 15.5 -69.5t62.5 -28.5q92 0 117 110l221 -26q-35 -139 -121 -215t-245 -76q-94 0 -151.5 32.5t-86.5 94.5q-37 -47 -78 -73t-79 -38t-70.5 -14t-53.5 -2 q-59 0 -99 16t-64.5 44t-35 66t-10.5 81zM248 279q0 -82 88 -82q47 0 81 34.5t44 90.5l20 120q-14 2 -30.5 4.5t-32.5 2.5q-90 0 -130 -45.5t-40 -124.5zM750 596q14 -2 26 -3t27 -1q74 0 126 36t52 122q0 33 -18.5 52t-57.5 19q-63 0 -98 -52t-57 -173z" />
<glyph unicode="&#xe7;" horiz-adv-x="737" d="M47 203q-2 25 1 59.5t8 74.5t11.5 82t12.5 81q8 49 18.5 99t22.5 97t25.5 87t29.5 69q41 78 112.5 127t194.5 49q70 0 125.5 -20.5t92 -60.5t51 -97t0.5 -131l-228 -27q16 72 -4 101.5t-59 29.5q-35 0 -55.5 -17.5t-34.5 -43.5q-16 -29 -32.5 -100.5t-39.5 -176.5 q-14 -78 -24.5 -137t-8.5 -90q4 -33 22.5 -49t55.5 -16q86 0 111 126l217 -32q-29 -137 -108 -214t-220 -83l-39 -82q84 -10 111.5 -52t27.5 -85q0 -25 -9 -57.5t-33.5 -63.5t-66.5 -52.5t-108 -21.5q-8 0 -27.5 1t-45 5t-53 11.5t-54.5 21.5l51 96q37 -18 64.5 -22t52.5 -4 q39 0 61.5 22.5t22.5 52.5q0 51 -72 52h-8l-43 38q16 37 34.5 73t37.5 71q-53 8 -91 28.5t-61.5 48t-35 61.5t-13.5 71z" />
<glyph unicode="&#xe8;" horiz-adv-x="784" d="M49 281q0 55 7 112.5t18 110.5q18 96 42.5 190t67.5 168t113 120t176 46q133 0 209 -63.5t76 -173.5q0 -100 -33 -172t-88 -118t-128 -67.5t-153 -21.5q-37 0 -75 6q-6 -31 -11.5 -68t-5.5 -63q0 -41 16.5 -67.5t59.5 -26.5q90 0 113 112l225 -29q-16 -63 -42 -116.5 t-68 -91t-101 -59t-141 -21.5q-84 0 -137.5 23.5t-84 64.5t-43 93t-12.5 112zM283 1468l166 97l178 -396l-105 -61zM313 596q16 -2 29.5 -3t30.5 -1q70 4 119 40t49 120q0 33 -20.5 54t-57.5 21q-59 0 -93 -55t-57 -176z" />
<glyph unicode="&#xe9;" horiz-adv-x="784" d="M49 281q0 55 7 112.5t18 110.5q18 96 42.5 190t67.5 168t113 120t176 46q133 0 209 -63.5t76 -173.5q0 -100 -33 -172t-88 -118t-128 -67.5t-153 -21.5q-37 0 -75 6q-6 -31 -11.5 -68t-5.5 -63q0 -41 16.5 -67.5t59.5 -26.5q90 0 113 112l225 -29q-16 -63 -42 -116.5 t-68 -91t-101 -59t-141 -21.5q-84 0 -137.5 23.5t-84 64.5t-43 93t-12.5 112zM313 596q16 -2 29.5 -3t30.5 -1q70 4 119 40t49 120q0 33 -20.5 54t-57.5 21q-59 0 -93 -55t-57 -176zM424 1176l244 362l168 -82l-304 -344z" />
<glyph unicode="&#xea;" horiz-adv-x="784" d="M49 281q0 55 7 112.5t18 110.5q18 96 42.5 190t67.5 168t113 120t176 46q133 0 209 -63.5t76 -173.5q0 -100 -33 -172t-88 -118t-128 -67.5t-153 -21.5q-37 0 -75 6q-6 -31 -11.5 -68t-5.5 -63q0 -41 16.5 -67.5t59.5 -26.5q90 0 113 112l225 -29q-16 -63 -42 -116.5 t-68 -91t-101 -59t-141 -21.5q-84 0 -137.5 23.5t-84 64.5t-43 93t-12.5 112zM190 1169l330 306h129l203 -314l-96 -65l-199 202l-291 -206zM313 596q16 -2 29.5 -3t30.5 -1q70 4 119 40t49 120q0 33 -20.5 54t-57.5 21q-59 0 -93 -55t-57 -176z" />
<glyph unicode="&#xeb;" horiz-adv-x="784" d="M49 281q0 55 7 112.5t18 110.5q18 96 42.5 190t67.5 168t113 120t176 46q133 0 209 -63.5t76 -173.5q0 -100 -33 -172t-88 -118t-128 -67.5t-153 -21.5q-37 0 -75 6q-6 -31 -11.5 -68t-5.5 -63q0 -41 16.5 -67.5t59.5 -26.5q90 0 113 112l225 -29q-16 -63 -42 -116.5 t-68 -91t-101 -59t-141 -21.5q-84 0 -137.5 23.5t-84 64.5t-43 93t-12.5 112zM268 1163l41 215h193l-43 -215h-191zM313 596q16 -2 29.5 -3t30.5 -1q70 4 119 40t49 120q0 33 -20.5 54t-57.5 21q-59 0 -93 -55t-57 -176zM604 1163l41 215h193l-41 -215h-193z" />
<glyph unicode="&#xec;" horiz-adv-x="497" d="M100 0l197 1012h221l-196 -1012h-222zM145 1468l166 97l178 -396l-104 -61z" />
<glyph unicode="&#xed;" horiz-adv-x="438" d="M10 0l197 1012h221l-197 -1012h-221zM283 1176l243 362l168 -82l-303 -344z" />
<glyph unicode="&#xee;" horiz-adv-x="581" d="M92 0l197 1012h221l-197 -1012h-221zM98 1169l330 306h129l203 -314l-96 -65l-199 202l-291 -206z" />
<glyph unicode="&#xef;" horiz-adv-x="499" d="M55 0l197 1012h221l-197 -1012h-221zM127 1163l41 215h192l-43 -215h-190zM463 1163l41 215h192l-41 -215h-192z" />
<glyph unicode="&#xf0;" horiz-adv-x="806" d="M63 268q2 49 11.5 111.5t19.5 122.5q20 106 47 191t49 126q83 160 261 160q14 0 36.5 -4t47 -13.5t47 -25.5t36.5 -41h3q10 51 15 98t5 88q0 16 -1 30.5t-3 29.5l-133 -88q-12 20 -23.5 39.5t-23.5 37.5l153 101q-33 47 -85 69.5t-119 30.5l47 162q76 -4 133 -21.5 t96 -40t61.5 -47t32.5 -45.5l144 93q12 -18 23 -38t24 -40l-152 -99q12 -49 12 -125q0 -88 -18 -244.5t-70 -416.5q-23 -111 -51.5 -200t-73.5 -151.5t-109.5 -96t-156.5 -33.5q-125 0 -199.5 63.5t-82.5 155.5q-2 16 -2.5 30.5t-0.5 30.5zM281 295q0 -41 16 -71.5t65 -30.5 q43 0 66 24.5t35 54.5q10 27 24.5 83.5t28.5 119t23.5 121.5t9.5 94t-21.5 59.5t-56.5 24.5q-33 0 -58.5 -14.5t-43.5 -50.5q-10 -23 -26.5 -82.5t-33.5 -137.5q-10 -47 -18 -99t-10 -95z" />
<glyph unicode="&#xf1;" horiz-adv-x="798" d="M-2 0q47 256 96 506t99 506h221l-21 -99h8q43 57 98.5 84t108.5 27q104 0 143.5 -53t39.5 -129q0 -33 -13 -90q-4 -16 -13 -68.5t-23.5 -124.5t-30 -156t-30.5 -162.5t-27.5 -143t-18.5 -97.5h-221q23 119 42 217t36.5 181t31 153t23.5 129q4 20 5 31.5t1 21.5 q0 35 -19.5 56.5t-60.5 21.5q-55 0 -86 -40t-41 -95l-129 -676h-219zM209 1225q51 86 111.5 128t117.5 42q31 0 59.5 -11.5t54.5 -24.5t49.5 -24.5t45.5 -11.5q29 0 54.5 12.5t66.5 59.5l106 -66q-53 -100 -112.5 -136t-112.5 -36q-35 0 -62.5 11.5t-52 24.5t-48 24.5 t-48.5 11.5t-54.5 -16.5t-68.5 -57.5z" />
<glyph unicode="&#xf2;" horiz-adv-x="782" d="M55 279q6 104 29 219q23 113 47.5 211t58.5 159q45 78 122 119t171 41q74 0 127.5 -20.5t88 -55t51 -79t16.5 -91.5q0 -31 -4 -71.5t-10.5 -84.5t-13.5 -87t-13 -78q-25 -125 -53.5 -215t-73.5 -147.5t-109.5 -85t-158.5 -27.5q-86 0 -140.5 27.5t-84 69.5t-40 94 t-10.5 102zM248 1468l166 97l178 -396l-105 -61zM272 281q0 -37 20.5 -62.5t63.5 -25.5q35 0 59.5 19t37.5 48q8 18 24.5 83t31.5 140.5t27.5 145t12.5 98.5q0 41 -18.5 69.5t-57.5 28.5q-37 0 -62.5 -16t-43.5 -59t-48 -175q-4 -23 -10 -51t-12 -59t-12 -60.5t-9 -52.5 q-2 -20 -3 -37.5t-1 -33.5z" />
<glyph unicode="&#xf3;" horiz-adv-x="782" d="M55 279q6 104 29 219q23 113 47.5 211t58.5 159q45 78 122 119t171 41q74 0 127.5 -20.5t88 -55t51 -79t16.5 -91.5q0 -31 -4 -71.5t-10.5 -84.5t-13.5 -87t-13 -78q-25 -125 -53.5 -215t-73.5 -147.5t-109.5 -85t-158.5 -27.5q-86 0 -140.5 27.5t-84 69.5t-40 94 t-10.5 102zM272 281q0 -37 20.5 -62.5t63.5 -25.5q35 0 59.5 19t37.5 48q8 18 24.5 83t31.5 140.5t27.5 145t12.5 98.5q0 41 -18.5 69.5t-57.5 28.5q-37 0 -62.5 -16t-43.5 -59t-48 -175q-4 -23 -10 -51t-12 -59t-12 -60.5t-9 -52.5q-2 -20 -3 -37.5t-1 -33.5zM403 1176 l244 362l168 -82l-303 -344z" />
<glyph unicode="&#xf4;" horiz-adv-x="782" d="M55 279q6 104 29 219q23 113 47.5 211t58.5 159q45 78 122 119t171 41q74 0 127.5 -20.5t88 -55t51 -79t16.5 -91.5q0 -31 -4 -71.5t-10.5 -84.5t-13.5 -87t-13 -78q-25 -125 -53.5 -215t-73.5 -147.5t-109.5 -85t-158.5 -27.5q-86 0 -140.5 27.5t-84 69.5t-40 94 t-10.5 102zM190 1169l330 306h129l203 -314l-96 -65l-199 202l-291 -206zM272 281q0 -37 20.5 -62.5t63.5 -25.5q35 0 59.5 19t37.5 48q8 18 24.5 83t31.5 140.5t27.5 145t12.5 98.5q0 41 -18.5 69.5t-57.5 28.5q-37 0 -62.5 -16t-43.5 -59t-48 -175q-4 -23 -10 -51t-12 -59 t-12 -60.5t-9 -52.5q-2 -20 -3 -37.5t-1 -33.5z" />
<glyph unicode="&#xf5;" horiz-adv-x="782" d="M55 279q6 104 29 219q23 113 47.5 211t58.5 159q45 78 122 119t171 41q74 0 127.5 -20.5t88 -55t51 -79t16.5 -91.5q0 -31 -4 -71.5t-10.5 -84.5t-13.5 -87t-13 -78q-25 -125 -53.5 -215t-73.5 -147.5t-109.5 -85t-158.5 -27.5q-86 0 -140.5 27.5t-84 69.5t-40 94 t-10.5 102zM182 1225q51 86 111.5 128t118.5 42q31 0 59.5 -11.5t54 -24.5t49 -24.5t46.5 -11.5q29 0 54 12.5t66 59.5l107 -66q-53 -100 -112.5 -136t-112.5 -36q-35 0 -63 11.5t-52.5 24.5t-48 24.5t-47.5 11.5q-25 0 -54.5 -16.5t-68.5 -57.5zM272 281q0 -37 20.5 -62.5 t63.5 -25.5q35 0 59.5 19t37.5 48q8 18 24.5 83t31.5 140.5t27.5 145t12.5 98.5q0 41 -18.5 69.5t-57.5 28.5q-37 0 -62.5 -16t-43.5 -59t-48 -175q-4 -23 -10 -51t-12 -59t-12 -60.5t-9 -52.5q-2 -20 -3 -37.5t-1 -33.5z" />
<glyph unicode="&#xf6;" horiz-adv-x="782" d="M55 279q6 104 29 219q23 113 47.5 211t58.5 159q45 78 122 119t171 41q74 0 127.5 -20.5t88 -55t51 -79t16.5 -91.5q0 -31 -4 -71.5t-10.5 -84.5t-13.5 -87t-13 -78q-25 -125 -53.5 -215t-73.5 -147.5t-109.5 -85t-158.5 -27.5q-86 0 -140.5 27.5t-84 69.5t-40 94 t-10.5 102zM246 1163l41 215h192l-43 -215h-190zM272 281q0 -37 20.5 -62.5t63.5 -25.5q35 0 59.5 19t37.5 48q8 18 24.5 83t31.5 140.5t27.5 145t12.5 98.5q0 41 -18.5 69.5t-57.5 28.5q-37 0 -62.5 -16t-43.5 -59t-48 -175q-4 -23 -10 -51t-12 -59t-12 -60.5t-9 -52.5 q-2 -20 -3 -37.5t-1 -33.5zM582 1163l41 215h192l-41 -215h-192z" />
<glyph unicode="&#xf7;" horiz-adv-x="829" d="M47 512l33 174h768l-33 -174h-768zM254 236q0 31 13.5 58.5t35 50t50 35.5t59.5 13q47 0 76.5 -30.5t29.5 -77.5q0 -31 -13 -59.5t-36 -50t-51.5 -34t-59.5 -12.5q-47 0 -75.5 30.5t-28.5 76.5zM385 915q0 31 13.5 58.5t36 49t50 35t58.5 13.5q47 0 76.5 -30.5 t29.5 -77.5q0 -31 -13 -58.5t-35.5 -49t-51.5 -35t-57 -13.5q-47 0 -77 30.5t-30 77.5z" />
<glyph unicode="&#xf8;" horiz-adv-x="782" d="M23 -6q18 27 36.5 52.5t34.5 51.5q-23 41 -31 88t-8 93q6 104 29 219q23 113 47.5 211t58.5 159q45 78 122 119t171 41q66 0 115 -16.5t84 -44.5l70 102l57 -35q-20 -31 -40.5 -60.5t-41.5 -58.5q39 -59 39 -133q0 -31 -4 -71.5t-10.5 -84.5t-13.5 -87t-13 -78 q-25 -125 -53.5 -215t-73.5 -147.5t-109.5 -85t-158.5 -27.5q-68 0 -115 16t-78 45q-16 -23 -30.5 -44t-28.5 -44q-14 8 -27.5 16.5t-27.5 18.5zM274 250q16 -57 82 -57q35 0 59.5 19t37.5 48q6 14 17 56t23.5 96.5t24 114t19.5 108.5q-66 -98 -131.5 -192.5t-131.5 -192.5z M279 371l266 391q-8 29 -25.5 46t-46.5 17q-37 0 -62.5 -16t-43.5 -59t-48 -175q-10 -41 -22 -99t-18 -105z" />
<glyph unicode="&#xf9;" horiz-adv-x="800" d="M46 132q-3 42 1 87q0 10 14.5 86t36 189.5t48 250t51.5 269.5h221q-23 -115 -47.5 -239t-44 -228.5t-32.5 -175t-13 -78.5q-4 -37 13 -63.5t64 -26.5q49 0 82 40t43 95l131 676h222l-197 -1014h-223l22 98h-8q-45 -57 -100.5 -83.5t-106.5 -26.5q-61 0 -99 19.5t-56.5 51 t-21.5 73.5zM270 1468l166 97l178 -396l-104 -61z" />
<glyph unicode="&#xfa;" horiz-adv-x="800" d="M46 132q-3 42 1 87q0 10 14.5 86t36 189.5t48 250t51.5 269.5h221q-23 -115 -47.5 -239t-44 -228.5t-32.5 -175t-13 -78.5q-4 -37 13 -63.5t64 -26.5q49 0 82 40t43 95l131 676h222l-197 -1014h-223l22 98h-8q-45 -57 -100.5 -83.5t-106.5 -26.5q-61 0 -99 19.5t-56.5 51 t-21.5 73.5zM467 1176l244 362l168 -82l-304 -344z" />
<glyph unicode="&#xfb;" horiz-adv-x="800" d="M46 132q-3 42 1 87q0 10 14.5 86t36 189.5t48 250t51.5 269.5h221q-23 -115 -47.5 -239t-44 -228.5t-32.5 -175t-13 -78.5q-4 -37 13 -63.5t64 -26.5q49 0 82 40t43 95l131 676h222l-197 -1014h-223l22 98h-8q-45 -57 -100.5 -83.5t-106.5 -26.5q-61 0 -99 19.5t-56.5 51 t-21.5 73.5zM199 1169l329 306h129l203 -314l-96 -65l-199 202l-291 -206z" />
<glyph unicode="&#xfc;" horiz-adv-x="800" d="M46 132q-3 42 1 87q0 10 14.5 86t36 189.5t48 250t51.5 269.5h221q-23 -115 -47.5 -239t-44 -228.5t-32.5 -175t-13 -78.5q-4 -37 13 -63.5t64 -26.5q49 0 82 40t43 95l131 676h222l-197 -1014h-223l22 98h-8q-45 -57 -100.5 -83.5t-106.5 -26.5q-61 0 -99 19.5t-56.5 51 t-21.5 73.5zM276 1163l41 215h193l-43 -215h-191zM612 1163l41 215h193l-41 -215h-193z" />
<glyph unicode="&#xfd;" horiz-adv-x="737" d="M-115 -219q53 6 93 20.5t72 40t58.5 64.5t57.5 98l-60 1008h230v-379q0 -33 -1 -77t-3 -92t-6 -94t-9 -83h9q33 70 66.5 155.5t67.5 180t65.5 193.5t60.5 196h233q-109 -309 -224.5 -580.5t-236.5 -505.5q-41 -76 -85 -137t-99 -105t-126 -69t-161 -27zM410 1176l243 362 l168 -82l-303 -344z" />
<glyph unicode="&#xfe;" horiz-adv-x="784" d="M-92 -395l356 1820h219q0 -6 -8 -42.5t-18.5 -89t-21.5 -112t-21.5 -111.5t-18.5 -89t-8 -43l6 -4q39 51 85 71.5t106 20.5q41 0 76.5 -10t61.5 -34t40 -63.5t14 -99.5q0 -20 -4 -65t-12 -104.5t-19.5 -127t-26 -133t-30.5 -124t-35 -97.5q-16 -35 -37.5 -67.5 t-51.5 -57.5t-72 -40t-97 -15q-43 0 -92 18.5t-72 56.5h-8l-90 -458h-221zM268 279q4 -35 22.5 -54.5t53.5 -19.5q41 0 67.5 20.5t43.5 59.5q12 35 27.5 104.5t29.5 145.5q29 143 29 196q0 35 -19.5 57.5t-62.5 22.5q-55 0 -83 -43t-40 -104l-27 -142l-35 -172 q-6 -43 -6 -71z" />
<glyph unicode="&#xff;" horiz-adv-x="737" d="M-115 -219q53 6 93 20.5t72 40t58.5 64.5t57.5 98l-60 1008h230v-379q0 -33 -1 -77t-3 -92t-6 -94t-9 -83h9q33 70 66.5 155.5t67.5 180t65.5 193.5t60.5 196h233q-109 -309 -224.5 -580.5t-236.5 -505.5q-41 -76 -85 -137t-99 -105t-126 -69t-161 -27zM225 1163l41 215 h193l-43 -215h-191zM561 1163l41 215h193l-41 -215h-193z" />
<glyph unicode="&#x100;" horiz-adv-x="864" d="M-59 0l563 1425h246l14 -1425h-223l2 297h-262l-111 -297h-229zM354 506h195l6 280l16 310h-10l-104 -312zM389 1532l37 182h502l-37 -182h-502z" />
<glyph unicode="&#x101;" horiz-adv-x="819" d="M43 182q2 78 15.5 174.5t29.5 186.5q23 113 49.5 203t64.5 151t94 94t136 33q47 0 92 -23.5t64 -66.5q4 0 6 2q4 18 8 37.5t8 38.5h221l-196 -1012h-219l14 78q-2 0 -3 1t-3 1q-78 -92 -184 -92q-84 0 -140.5 43t-56.5 151zM274 295q0 -41 17.5 -70.5t64.5 -29.5 q43 0 73 31.5t46 103.5q16 82 32.5 163.5t31.5 163.5q6 31 6 58.5t-8.5 49t-26.5 34t-51 12.5q-47 0 -74 -39q-29 -47 -45 -111.5t-37 -162.5q-12 -61 -19.5 -112.5t-9.5 -90.5zM309 1182l35 182h504l-37 -182h-502z" />
<glyph unicode="&#x102;" horiz-adv-x="864" d="M-59 0l563 1425h246l14 -1425h-223l2 297h-262l-111 -297h-229zM354 506h195l6 280l16 310h-10l-104 -312zM379 1761v21.5t2 21.5h166q-8 -59 22.5 -101t85.5 -42q37 0 65 13.5t49.5 35t33.5 47t18 47.5h174q-14 -55 -40.5 -107t-69.5 -93t-102.5 -66t-139.5 -25 q-74 0 -125 21.5t-81.5 57.5t-44 80t-13.5 89z" />
<glyph unicode="&#x103;" horiz-adv-x="819" d="M43 182q2 78 15.5 174.5t29.5 186.5q23 113 49.5 203t64.5 151t94 94t136 33q47 0 92 -23.5t64 -66.5q4 0 6 2q4 18 8 37.5t8 38.5h221l-196 -1012h-219l14 78q-2 0 -3 1t-3 1q-78 -92 -184 -92q-84 0 -140.5 43t-56.5 151zM274 295q0 -41 17.5 -70.5t64.5 -29.5 q43 0 73 31.5t46 103.5q16 82 32.5 163.5t31.5 163.5q6 31 6 58.5t-8.5 49t-26.5 34t-51 12.5q-47 0 -74 -39q-29 -47 -45 -111.5t-37 -162.5q-12 -61 -19.5 -112.5t-9.5 -90.5zM289 1384v19.5t2 19.5h166q0 -63 27.5 -103t82.5 -40q33 0 60.5 13.5t49 35t35 47t19.5 47.5 h178q-14 -53 -41.5 -105t-70.5 -93t-102.5 -66.5t-135.5 -25.5t-127 22.5t-83 57t-46 79.5t-14 92z" />
<glyph unicode="&#x104;" horiz-adv-x="864" d="M-59 0l563 1425h246l14 -1425h-100q-63 -78 -81 -131t-18 -76q0 -33 20.5 -49t53.5 -16q20 0 44 3t65 19l22 -110q-47 -27 -98 -40.5t-97 -13.5q-72 0 -116.5 41t-44.5 119q0 51 27.5 115.5t99.5 150.5l2 285h-262l-111 -297h-229zM354 506h195l6 280l16 310h-10 l-104 -312z" />
<glyph unicode="&#x105;" horiz-adv-x="819" d="M43 182q2 78 15.5 174.5t29.5 186.5q23 113 49.5 203t64.5 151t94 94t136 33q47 0 92 -23.5t64 -66.5q4 0 6 2q4 18 8 37.5t8 38.5h221l-196 -1012h-103q-63 -78 -80.5 -131t-17.5 -76q0 -33 20.5 -49t53.5 -16q20 0 43.5 3t64.5 19l23 -110q-47 -27 -98.5 -40.5 t-96.5 -13.5q-72 0 -116.5 41t-44.5 119q0 51 27.5 115.5t99.5 150.5h8l12 66q-2 0 -3 1t-3 1q-78 -92 -184 -92q-84 0 -140.5 43t-56.5 151zM274 295q0 -41 17.5 -70.5t64.5 -29.5q43 0 73 31.5t46 103.5q16 82 32.5 163.5t31.5 163.5q6 31 6 58.5t-8.5 49t-26.5 34 t-51 12.5q-47 0 -74 -39q-29 -47 -45 -111.5t-37 -162.5q-12 -61 -19.5 -112.5t-9.5 -90.5z" />
<glyph unicode="&#x106;" horiz-adv-x="841" d="M70 246q0 25 2 52.5t8 55.5l135 695q14 80 41 150.5t72 123.5t113.5 84t168.5 31q150 0 223.5 -67.5t81.5 -174.5q0 -27 -1 -52.5t-7 -53.5l-221 -37q6 33 6 57q0 55 -26.5 87t-75.5 32q-39 0 -65.5 -16.5t-44 -42t-28 -55.5t-16.5 -56l-141 -729q-4 -23 -5 -45.5t6 -41 t25.5 -29.5t53.5 -11q57 0 107 38t65 134q53 -10 106.5 -20.5t106.5 -20.5q-25 -158 -114 -252t-263 -94q-154 0 -232.5 67.5t-80.5 190.5zM537 1577l366 248l98 -154l-405 -201z" />
<glyph unicode="&#x107;" horiz-adv-x="737" d="M47 203q-2 25 1 59.5t8 74.5t11.5 82t12.5 81q8 49 18.5 99t22.5 97t25.5 87t29.5 69q41 78 112.5 127t194.5 49q70 0 125.5 -20.5t92 -60.5t51 -97t0.5 -131l-228 -27q16 72 -4 101.5t-59 29.5q-35 0 -55.5 -17.5t-34.5 -43.5q-16 -29 -32.5 -100.5t-39.5 -176.5 q-14 -78 -24.5 -137t-8.5 -90q4 -33 22.5 -49t55.5 -16q86 0 111 126l217 -32q-31 -141 -114.5 -220t-235.5 -79q-74 0 -125.5 18.5t-84 48t-48 68.5t-17.5 80zM416 1176l243 362l168 -82l-303 -344z" />
<glyph unicode="&#x108;" horiz-adv-x="841" d="M70 246q0 25 2 52.5t8 55.5l135 695q14 80 41 150.5t72 123.5t113.5 84t168.5 31q150 0 223.5 -67.5t81.5 -174.5q0 -27 -1 -52.5t-7 -53.5l-221 -37q6 33 6 57q0 55 -26.5 87t-75.5 32q-39 0 -65.5 -16.5t-44 -42t-28 -55.5t-16.5 -56l-141 -729q-4 -23 -5 -45.5t6 -41 t25.5 -29.5t53.5 -11q57 0 107 38t65 134q53 -10 106.5 -20.5t106.5 -20.5q-25 -158 -114 -252t-263 -94q-154 0 -232.5 67.5t-80.5 190.5zM303 1563l322 270h129l207 -266l-93 -82l-204 166l-281 -166z" />
<glyph unicode="&#x109;" horiz-adv-x="737" d="M47 203q-2 25 1 59.5t8 74.5t11.5 82t12.5 81q8 49 18.5 99t22.5 97t25.5 87t29.5 69q41 78 112.5 127t194.5 49q70 0 125.5 -20.5t92 -60.5t51 -97t0.5 -131l-228 -27q16 72 -4 101.5t-59 29.5q-35 0 -55.5 -17.5t-34.5 -43.5q-16 -29 -32.5 -100.5t-39.5 -176.5 q-14 -78 -24.5 -137t-8.5 -90q4 -33 22.5 -49t55.5 -16q86 0 111 126l217 -32q-31 -141 -114.5 -220t-235.5 -79q-74 0 -125.5 18.5t-84 48t-48 68.5t-17.5 80zM213 1169l330 306h129l202 -314l-96 -65l-198 202l-291 -206z" />
<glyph unicode="&#x10a;" horiz-adv-x="841" d="M70 246q0 25 2 52.5t8 55.5l135 695q14 80 41 150.5t72 123.5t113.5 84t168.5 31q150 0 223.5 -67.5t81.5 -174.5q0 -27 -1 -52.5t-7 -53.5l-221 -37q6 33 6 57q0 55 -26.5 87t-75.5 32q-39 0 -65.5 -16.5t-44 -42t-28 -55.5t-16.5 -56l-141 -729q-4 -23 -5 -45.5t6 -41 t25.5 -29.5t53.5 -11q57 0 107 38t65 134q53 -10 106.5 -20.5t106.5 -20.5q-25 -158 -114 -252t-263 -94q-154 0 -232.5 67.5t-80.5 190.5zM547 1520l41 215h190l-41 -215h-190z" />
<glyph unicode="&#x10b;" horiz-adv-x="737" d="M47 203q-2 25 1 59.5t8 74.5t11.5 82t12.5 81q8 49 18.5 99t22.5 97t25.5 87t29.5 69q41 78 112.5 127t194.5 49q70 0 125.5 -20.5t92 -60.5t51 -97t0.5 -131l-228 -27q16 72 -4 101.5t-59 29.5q-35 0 -55.5 -17.5t-34.5 -43.5q-16 -29 -32.5 -100.5t-39.5 -176.5 q-14 -78 -24.5 -137t-8.5 -90q4 -33 22.5 -49t55.5 -16q86 0 111 126l217 -32q-31 -141 -114.5 -220t-235.5 -79q-74 0 -125.5 18.5t-84 48t-48 68.5t-17.5 80zM412 1151l41 215h190l-41 -215h-190z" />
<glyph unicode="&#x10c;" horiz-adv-x="841" d="M70 246q0 25 2 52.5t8 55.5l135 695q14 80 41 150.5t72 123.5t113.5 84t168.5 31q150 0 223.5 -67.5t81.5 -174.5q0 -27 -1 -52.5t-7 -53.5l-221 -37q6 33 6 57q0 55 -26.5 87t-75.5 32q-39 0 -65.5 -16.5t-44 -42t-28 -55.5t-16.5 -56l-141 -729q-4 -23 -5 -45.5t6 -41 t25.5 -29.5t53.5 -11q57 0 107 38t65 134q53 -10 106.5 -20.5t106.5 -20.5q-25 -158 -114 -252t-263 -94q-154 0 -232.5 67.5t-80.5 190.5zM354 1757l99 78l204 -164l277 164l78 -80l-316 -268h-129z" />
<glyph unicode="&#x10d;" horiz-adv-x="737" d="M47 203q-2 25 1 59.5t8 74.5t11.5 82t12.5 81q8 49 18.5 99t22.5 97t25.5 87t29.5 69q41 78 112.5 127t194.5 49q70 0 125.5 -20.5t92 -60.5t51 -97t0.5 -131l-228 -27q16 72 -4 101.5t-59 29.5q-35 0 -55.5 -17.5t-34.5 -43.5q-16 -29 -32.5 -100.5t-39.5 -176.5 q-14 -78 -24.5 -137t-8.5 -90q4 -33 22.5 -49t55.5 -16q86 0 111 126l217 -32q-31 -141 -114.5 -220t-235.5 -79q-74 0 -125.5 18.5t-84 48t-48 68.5t-17.5 80zM250 1409l102 78l203 -193l279 193l73 -82l-317 -301h-129z" />
<glyph unicode="&#x10e;" horiz-adv-x="890" d="M25 0l276 1425h315q127 0 208 -49t91 -153q4 -72 -13 -203t-50 -305q-33 -176 -58.5 -305t-66.5 -213q-59 -115 -143 -156t-195 -41h-364zM285 209h96q84 0 123 43t55 125q25 121 48.5 243.5t42 223t30.5 164t12 67.5q10 66 -14.5 101.5t-99.5 35.5h-97zM346 1757l98 78 l205 -164l277 164l78 -80l-316 -268h-129z" />
<glyph unicode="&#x10f;" horiz-adv-x="999" d="M29 193q0 16 1 32.5t3 36.5q4 47 15 121t26 145q16 92 36.5 175t47.5 143q14 35 35.5 67.5t52 57t71.5 40t99 15.5q43 0 91 -19.5t73 -56.5h6l104 537h219l-284 -1487h-219l14 76q-2 0 -3 1t-3 1q-41 -49 -87.5 -69.5t-103.5 -20.5q-37 0 -71.5 8t-62.5 31.5t-44 63.5 t-16 102zM266 281q0 -35 19.5 -57.5t60.5 -22.5q55 0 82 37.5t43 111.5q10 49 16.5 77t12.5 62q6 29 13 65t12 69.5t9.5 59.5t4.5 36q0 37 -16.5 61.5t-53.5 28.5q-47 6 -73.5 -16.5t-45.5 -63.5q-12 -35 -27.5 -104.5t-29.5 -145.5q-12 -70 -19.5 -122t-7.5 -76zM918 1071 l92 201h-45l41 215h206l-41 -211l-141 -205h-112z" />
<glyph unicode="&#x110;" horiz-adv-x="890" d="M25 0l125 647h-93l29 148h92l123 630h315q127 0 208 -49t91 -153q4 -72 -13 -203t-50 -305q-33 -176 -58.5 -305t-66.5 -213q-59 -115 -143 -156t-195 -41h-364zM285 209h96q84 0 123 43t55 125q25 121 48.5 243.5t42 223t30.5 164t12 67.5q10 66 -14.5 101.5t-99.5 35.5 h-97l-82 -417h115l-29 -148h-114z" />
<glyph unicode="&#x111;" horiz-adv-x="811" d="M29 193q0 16 1 32.5t3 36.5q4 47 15 121t26 145q16 92 36.5 175t47.5 143q14 35 35.5 67.5t52 57t71.5 40t99 15.5q43 0 91 -19.5t73 -56.5h6l43 219h-164l29 150h163q8 41 15.5 83t17.5 85h219l-32 -168h84l-31 -150h-82l-223 -1169h-219l14 76q-2 0 -3 1t-3 1 q-41 -49 -87 -69.5t-104 -20.5q-37 0 -71.5 8t-62.5 31.5t-44 63.5t-16 102zM266 281q0 -35 19.5 -57.5t60.5 -22.5q55 0 82 37.5t43 111.5q10 49 16.5 77t12.5 62q6 29 13 65t12 69.5t9.5 59.5t4.5 36q0 37 -16.5 61.5t-53.5 28.5q-47 6 -73.5 -16.5t-45.5 -63.5 q-12 -35 -27.5 -104.5t-29.5 -145.5q-12 -70 -19.5 -122t-7.5 -76z" />
<glyph unicode="&#x112;" horiz-adv-x="778" d="M25 0l276 1425h633l-41 -208h-412l-75 -388h358l-41 -211h-358l-80 -411h411l-39 -207h-632zM375 1532l37 182h501l-36 -182h-502z" />
<glyph unicode="&#x113;" horiz-adv-x="784" d="M49 281q0 55 7 112.5t18 110.5q18 96 42.5 190t67.5 168t113 120t176 46q133 0 209 -63.5t76 -173.5q0 -100 -33 -172t-88 -118t-128 -67.5t-153 -21.5q-37 0 -75 6q-6 -31 -11.5 -68t-5.5 -63q0 -41 16.5 -67.5t59.5 -26.5q90 0 113 112l225 -29q-16 -63 -42 -116.5 t-68 -91t-101 -59t-141 -21.5q-84 0 -137.5 23.5t-84 64.5t-43 93t-12.5 112zM293 1182l35 182h503l-36 -182h-502zM313 596q16 -2 29.5 -3t30.5 -1q70 4 119 40t49 120q0 33 -20.5 54t-57.5 21q-59 0 -93 -55t-57 -176z" />
<glyph unicode="&#x114;" horiz-adv-x="778" d="M25 0l276 1425h633l-41 -208h-412l-75 -388h358l-41 -211h-358l-80 -411h411l-39 -207h-632zM367 1757v21.5t2 21.5h166q-8 -59 22.5 -101t85.5 -42q37 0 64.5 13t49 34.5t34 47.5t18.5 48h174q-14 -55 -41 -107.5t-70 -93t-102 -65.5t-139 -25q-74 0 -125 21.5t-82 57.5 t-44 80t-13 89z" />
<glyph unicode="&#x115;" horiz-adv-x="784" d="M49 281q0 55 7 112.5t18 110.5q18 96 42.5 190t67.5 168t113 120t176 46q133 0 209 -63.5t76 -173.5q0 -100 -33 -172t-88 -118t-128 -67.5t-153 -21.5q-37 0 -75 6q-6 -31 -11.5 -68t-5.5 -63q0 -41 16.5 -67.5t59.5 -26.5q90 0 113 112l225 -29q-16 -63 -42 -116.5 t-68 -91t-101 -59t-141 -21.5q-84 0 -137.5 23.5t-84 64.5t-43 93t-12.5 112zM254 1384v19.5t2 19.5h166q0 -63 27.5 -103t82.5 -40q33 0 61 13.5t49.5 35t34.5 47t19 47.5h178q-14 -53 -41.5 -105t-70.5 -93t-102.5 -66.5t-135.5 -25.5t-127 22.5t-82.5 57t-46 79.5 t-14.5 92zM313 596q16 -2 29.5 -3t30.5 -1q70 4 119 40t49 120q0 33 -20.5 54t-57.5 21q-59 0 -93 -55t-57 -176z" />
<glyph unicode="&#x116;" horiz-adv-x="778" d="M25 0l276 1425h633l-41 -208h-412l-75 -388h358l-41 -211h-358l-80 -411h411l-39 -207h-632zM528 1509l41 215h191l-41 -215h-191z" />
<glyph unicode="&#x117;" horiz-adv-x="784" d="M49 281q0 55 7 112.5t18 110.5q18 96 42.5 190t67.5 168t113 120t176 46q133 0 209 -63.5t76 -173.5q0 -100 -33 -172t-88 -118t-128 -67.5t-153 -21.5q-37 0 -75 6q-6 -31 -11.5 -68t-5.5 -63q0 -41 16.5 -67.5t59.5 -26.5q90 0 113 112l225 -29q-16 -63 -42 -116.5 t-68 -91t-101 -59t-141 -21.5q-84 0 -137.5 23.5t-84 64.5t-43 93t-12.5 112zM313 596q16 -2 29.5 -3t30.5 -1q70 4 119 40t49 120q0 33 -20.5 54t-57.5 21q-59 0 -93 -55t-57 -176zM397 1151l41 215h191l-41 -215h-191z" />
<glyph unicode="&#x118;" horiz-adv-x="778" d="M25 0l276 1425h633l-41 -208h-412l-75 -388h358l-41 -211h-358l-80 -411h411l-39 -207h-8q-63 -78 -80.5 -131t-17.5 -76q0 -33 20.5 -49t53.5 -16q20 0 43.5 3t64.5 19l23 -110q-47 -27 -98.5 -40.5t-96.5 -13.5q-72 0 -117 41t-45 119q0 49 26 111.5t91 142.5h-491z " />
<glyph unicode="&#x119;" horiz-adv-x="784" d="M49 281q0 55 7 112.5t18 110.5q18 96 42.5 190t67.5 168t113 120t176 46q133 0 209 -63.5t76 -173.5q0 -100 -33 -172t-88 -118t-128 -67.5t-153 -21.5q-37 0 -75 6q-6 -31 -11.5 -68t-5.5 -63q0 -41 16.5 -67.5t59.5 -26.5q90 0 113 112l225 -29q-16 -68 -45 -124 t-76 -95q-66 -78 -84 -132t-18 -77q0 -33 20.5 -49t52.5 -16q20 0 44 3t65 19l22 -110q-47 -27 -98 -40t-96 -13q-72 0 -117 41t-45 118q0 39 15.5 85t52.5 104q-10 0 -21.5 -1t-23.5 -1q-84 0 -137.5 23.5t-84 64.5t-43 93t-12.5 112zM313 596q16 -2 29.5 -3t30.5 -1 q70 4 119 40t49 120q0 33 -20.5 54t-57.5 21q-59 0 -93 -55t-57 -176z" />
<glyph unicode="&#x11a;" horiz-adv-x="778" d="M25 0l276 1425h633l-41 -208h-412l-75 -388h358l-41 -211h-358l-80 -411h411l-39 -207h-632zM326 1757l98 78l205 -164l276 164l78 -80l-315 -268h-129z" />
<glyph unicode="&#x11b;" horiz-adv-x="784" d="M49 281q0 55 7 112.5t18 110.5q18 96 42.5 190t67.5 168t113 120t176 46q133 0 209 -63.5t76 -173.5q0 -100 -33 -172t-88 -118t-128 -67.5t-153 -21.5q-37 0 -75 6q-6 -31 -11.5 -68t-5.5 -63q0 -41 16.5 -67.5t59.5 -26.5q90 0 113 112l225 -29q-16 -63 -42 -116.5 t-68 -91t-101 -59t-141 -21.5q-84 0 -137.5 23.5t-84 64.5t-43 93t-12.5 112zM240 1409l102 78l203 -193l278 193l74 -82l-317 -301h-129zM313 596q16 -2 29.5 -3t30.5 -1q70 4 119 40t49 120q0 33 -20.5 54t-57.5 21q-59 0 -93 -55t-57 -176z" />
<glyph unicode="&#x11c;" horiz-adv-x="874" d="M74 240q0 94 45 311t108 539q35 162 127.5 255t266.5 93q158 0 230.5 -82t72.5 -211q0 -18 -2 -36.5t-7 -39.5q-55 -8 -106 -15t-107 -18q2 10 3 31q0 72 -28 117t-85 45q-45 0 -72.5 -16.5t-45 -44t-27 -64.5t-17.5 -76q-35 -178 -57.5 -297t-38 -197.5t-23.5 -129 t-16 -91.5q-10 -49 12.5 -82.5t91.5 -33.5q129 0 154 129l53 264h-131l37 192h350l-88 -454q-18 -96 -54 -161t-87 -104.5t-113.5 -57t-134.5 -17.5q-66 0 -122 16t-98 48t-66.5 79t-24.5 109zM295 1563l321 270h129l207 -266l-92 -82l-205 166l-280 -166z" />
<glyph unicode="&#x11d;" horiz-adv-x="790" d="M-27 -158l217 49v-12q0 -27 15.5 -57.5t68.5 -30.5q45 0 72 27.5t35 68.5l39 189h-8q-41 -47 -90.5 -66.5t-88.5 -19.5q-102 0 -150 50t-48 142q0 59 10 150.5t33 204.5q14 66 29.5 129t31.5 116q23 72 54.5 119t68.5 75t77 39t81 11q55 0 96 -20.5t64 -69.5q2 0 3 1t3 1 l16 76h221l-217 -1106q-12 -68 -36.5 -126t-65.5 -100t-101.5 -67t-148.5 -25q-135 0 -208 69t-73 183zM193 1169l329 306h129l203 -314l-96 -65l-199 202l-291 -206zM268 355.5q-10 -68.5 2 -111.5q12 -45 74 -45q53 0 84 49t45 112q16 78 31.5 153t32.5 161q4 23 5 47 t-7.5 44.5t-25.5 34t-48 13.5q-55 0 -80 -41q-23 -25 -41 -89.5t-39 -160.5q-23 -98 -33 -166.5z" />
<glyph unicode="&#x11e;" horiz-adv-x="874" d="M74 240q0 94 45 311t108 539q35 162 127.5 255t266.5 93q158 0 230.5 -82t72.5 -211q0 -18 -2 -36.5t-7 -39.5q-55 -8 -106 -15t-107 -18q2 10 3 31q0 72 -28 117t-85 45q-45 0 -72.5 -16.5t-45 -44t-27 -64.5t-17.5 -76q-35 -178 -57.5 -297t-38 -197.5t-23.5 -129 t-16 -91.5q-10 -49 12.5 -82.5t91.5 -33.5q129 0 154 129l53 264h-131l37 192h350l-88 -454q-18 -96 -54 -161t-87 -104.5t-113.5 -57t-134.5 -17.5q-66 0 -122 16t-98 48t-66.5 79t-24.5 109zM385 1761v21.5t2 21.5h166q-8 -59 22.5 -101t86.5 -42q37 0 64.5 13.5t49 35 t33.5 47t18 47.5h174q-14 -55 -40.5 -107t-69.5 -93t-102.5 -66t-139.5 -25q-74 0 -125 21.5t-81.5 57.5t-44 80t-13.5 89z" />
<glyph unicode="&#x11f;" horiz-adv-x="790" d="M-27 -158l217 49v-12q0 -27 15.5 -57.5t68.5 -30.5q45 0 72 27.5t35 68.5l39 189h-8q-41 -47 -90.5 -66.5t-88.5 -19.5q-102 0 -150 50t-48 142q0 59 10 150.5t33 204.5q14 66 29.5 129t31.5 116q23 72 54.5 119t68.5 75t77 39t81 11q55 0 96 -20.5t64 -69.5q2 0 3 1t3 1 l16 76h221l-217 -1106q-12 -68 -36.5 -126t-65.5 -100t-101.5 -67t-148.5 -25q-135 0 -208 69t-73 183zM254 1384v19.5t2 19.5h166q0 -63 27.5 -103t82.5 -40q33 0 61 13.5t49.5 35t34.5 47t19 47.5h178q-14 -53 -41.5 -105t-70.5 -93t-102.5 -66.5t-135.5 -25.5t-127 22.5 t-82.5 57t-46 79.5t-14.5 92zM268 355.5q-10 -68.5 2 -111.5q12 -45 74 -45q53 0 84 49t45 112q16 78 31.5 153t32.5 161q4 23 5 47t-7.5 44.5t-25.5 34t-48 13.5q-55 0 -80 -41q-23 -25 -41 -89.5t-39 -160.5q-23 -98 -33 -166.5z" />
<glyph unicode="&#x120;" horiz-adv-x="874" d="M74 240q0 94 45 311t108 539q35 162 127.5 255t266.5 93q158 0 230.5 -82t72.5 -211q0 -18 -2 -36.5t-7 -39.5q-55 -8 -106 -15t-107 -18q2 10 3 31q0 72 -28 117t-85 45q-45 0 -72.5 -16.5t-45 -44t-27 -64.5t-17.5 -76q-35 -178 -57.5 -297t-38 -197.5t-23.5 -129 t-16 -91.5q-10 -49 12.5 -82.5t91.5 -33.5q129 0 154 129l53 264h-131l37 192h350l-88 -454q-18 -96 -54 -161t-87 -104.5t-113.5 -57t-134.5 -17.5q-66 0 -122 16t-98 48t-66.5 79t-24.5 109zM551 1509l41 215h190l-41 -215h-190z" />
<glyph unicode="&#x121;" horiz-adv-x="790" d="M-27 -158l217 49v-12q0 -27 15.5 -57.5t68.5 -30.5q45 0 72 27.5t35 68.5l39 189h-8q-41 -47 -90.5 -66.5t-88.5 -19.5q-102 0 -150 50t-48 142q0 59 10 150.5t33 204.5q14 66 29.5 129t31.5 116q23 72 54.5 119t68.5 75t77 39t81 11q55 0 96 -20.5t64 -69.5q2 0 3 1t3 1 l16 76h221l-217 -1106q-12 -68 -36.5 -126t-65.5 -100t-101.5 -67t-148.5 -25q-135 0 -208 69t-73 183zM268 355.5q-10 -68.5 2 -111.5q12 -45 74 -45q53 0 84 49t45 112q16 78 31.5 153t32.5 161q4 23 5 47t-7.5 44.5t-25.5 34t-48 13.5q-55 0 -80 -41q-23 -25 -41 -89.5 t-39 -160.5q-23 -98 -33 -166.5zM428 1151l41 215h190l-41 -215h-190z" />
<glyph unicode="&#x122;" horiz-adv-x="874" d="M74 240q0 94 45 311t108 539q35 162 127.5 255t266.5 93q158 0 230.5 -82t72.5 -211q0 -18 -2 -36.5t-7 -39.5q-55 -8 -106 -15t-107 -18q2 10 3 31q0 72 -28 117t-85 45q-45 0 -72.5 -16.5t-45 -44t-27 -64.5t-17.5 -76q-35 -178 -57.5 -297t-38 -197.5t-23.5 -129 t-16 -91.5q-10 -49 12.5 -82.5t91.5 -33.5q129 0 154 129l53 264h-131l37 192h350l-88 -454q-18 -96 -54 -161t-87 -104.5t-113.5 -57t-134.5 -17.5q-66 0 -122 16t-98 48t-66.5 79t-24.5 109zM158 -541l92 201h-45l41 215h207l-41 -211l-142 -205h-112z" />
<glyph unicode="&#x123;" horiz-adv-x="790" d="M-27 -158l217 49v-12q0 -27 15.5 -57.5t68.5 -30.5q45 0 72 27.5t35 68.5l39 189h-8q-41 -47 -90.5 -66.5t-88.5 -19.5q-102 0 -150 50t-48 142q0 59 10 150.5t33 204.5q14 66 29.5 129t31.5 116q23 72 54.5 119t68.5 75t77 39t81 11q55 0 96 -20.5t64 -69.5q2 0 3 1t3 1 l16 76h221l-217 -1106q-12 -68 -36.5 -126t-65.5 -100t-101.5 -67t-148.5 -25q-135 0 -208 69t-73 183zM268 355.5q-10 -68.5 2 -111.5q12 -45 74 -45q53 0 84 49t45 112q16 78 31.5 153t32.5 161q4 23 5 47t-7.5 44.5t-25.5 34t-48 13.5q-55 0 -80 -41q-23 -25 -41 -89.5 t-39 -160.5q-23 -98 -33 -166.5zM436 1135q10 53 20.5 104t20.5 104l144 205h112l-92 -200h45q-10 -53 -20.5 -106.5t-20.5 -106.5h-209z" />
<glyph unicode="&#x124;" horiz-adv-x="907" d="M25 0l276 1425h221l-116 -596h253l117 596h219l-276 -1425h-219l118 623h-253l-119 -623h-221zM328 1563l321 270h129l207 -266l-92 -82l-205 166l-280 -166z" />
<glyph unicode="&#x125;" horiz-adv-x="800" d="M0 0l289 1487h221l-115 -572l8 -2q45 57 100.5 84t106.5 27q61 0 99.5 -19.5t56.5 -52t21.5 -73.5t-1.5 -86q0 -10 -14 -86t-35.5 -190t-47 -250t-50.5 -267h-223q23 115 47 237.5t43.5 227t33 175.5t13.5 79q4 39 -13.5 65.5t-62.5 26.5q-55 0 -86 -40t-41 -95 l-131 -676h-219zM63 1563l322 270h129l207 -266l-92 -82l-205 166l-281 -166z" />
<glyph unicode="&#x126;" horiz-adv-x="907" d="M2 0l209 1079h-90l26 140h91l41 206h221l-41 -206h254l41 206h219l-41 -206h94l-27 -140h-94l-209 -1079h-219l119 623h-254l-119 -623h-221zM383 829h254l49 250h-254z" />
<glyph unicode="&#x127;" horiz-adv-x="800" d="M0 0l225 1165h-73l24 135h76l37 187h221l-37 -187h250l-27 -135h-250l-49 -250l9 -2q43 57 98 84t108 27q61 0 99.5 -19.5t56.5 -52t21.5 -73.5t-1.5 -86q0 -10 -14 -86t-35.5 -190t-48 -250t-51.5 -267h-223q23 115 47 237.5t44.5 227t34 175.5t13.5 79q4 39 -13.5 65.5 t-64.5 26.5q-55 0 -86 -40t-41 -95l-129 -676h-221z" />
<glyph unicode="&#x128;" horiz-adv-x="444" d="M29 0l276 1425h223l-276 -1425h-223zM119 1583q51 86 111.5 128t117.5 42q31 0 59.5 -11t54 -24.5t49.5 -25t46 -11.5q29 0 54.5 12.5t66.5 59.5l106 -65q-53 -100 -112.5 -136t-112.5 -36q-35 0 -62.5 11t-52 24.5t-48 24.5t-48.5 11t-54.5 -16.5t-68.5 -57.5z" />
<glyph unicode="&#x129;" horiz-adv-x="585" d="M109 1225q51 86 111.5 128t117.5 42q31 0 59.5 -11.5t54 -24.5t49 -24.5t46.5 -11.5q29 0 54.5 12.5t66.5 59.5l106 -66q-53 -100 -112.5 -136t-112.5 -36q-35 0 -62.5 11.5t-52 24.5t-48.5 24.5t-48 11.5q-25 0 -54.5 -16.5t-68.5 -57.5zM115 0l196 1012h221l-196 -1012 h-221z" />
<glyph unicode="&#x12a;" horiz-adv-x="444" d="M29 0l276 1425h223l-276 -1425h-223zM176 1532l37 182h502l-37 -182h-502z" />
<glyph unicode="&#x12b;" horiz-adv-x="458" d="M35 0l196 1012h222l-197 -1012h-221zM111 1182l34 182h504l-37 -182h-501z" />
<glyph unicode="&#x12c;" horiz-adv-x="444" d="M29 0l276 1425h223l-276 -1425h-223zM168 1761v21.5t2 21.5h166q-8 -59 22.5 -101t85.5 -42q37 0 65 13.5t49.5 35t33.5 47t18 47.5h174q-14 -55 -40.5 -107t-69.5 -93t-102.5 -66t-139.5 -25q-74 0 -125 21.5t-81.5 57.5t-44 80t-13.5 89z" />
<glyph unicode="&#x12d;" horiz-adv-x="552" d="M86 0l197 1012h221l-197 -1012h-221zM154 1395v19t2 20h166q0 -63 27.5 -103.5t82.5 -40.5q33 0 60.5 13.5t49 35t35 47t19.5 48.5h178q-14 -53 -41.5 -105.5t-71 -93.5t-102.5 -66.5t-135 -25.5t-127 22.5t-83 57t-46 80t-14 92.5z" />
<glyph unicode="&#x12e;" horiz-adv-x="444" d="M-41 -250q0 49 24.5 110.5t88.5 139.5h-43l276 1425h223l-276 -1425h-45q-61 -78 -78.5 -129t-17.5 -74q0 -33 20.5 -49t52.5 -16q20 0 44 3t65 19l22 -110q-47 -27 -98 -40.5t-96 -13.5q-72 0 -117 41t-45 119z" />
<glyph unicode="&#x12f;" horiz-adv-x="407" d="M-66 -250q0 49 25 110.5t88 139.5h-37l197 1012h221l-197 -1012h-49q-61 -78 -78.5 -129t-17.5 -74q0 -33 20.5 -49t53.5 -16q20 0 43.5 3t64.5 19l23 -110q-47 -27 -98.5 -40.5t-96.5 -13.5q-72 0 -117 41t-45 119zM244 1210l43 215h221l-41 -215h-223z" />
<glyph unicode="&#x130;" horiz-adv-x="444" d="M29 0l276 1425h223l-276 -1425h-223zM334 1509l41 215h190l-41 -215h-190z" />
<glyph unicode="&#x131;" horiz-adv-x="407" d="M10 0l197 1012h221l-197 -1012h-221z" />
<glyph unicode="&#x132;" horiz-adv-x="1148" d="M29 0l276 1425h223l-276 -1425h-223zM344 154l180 118q16 -35 51 -55t70 -20q63 0 98 34.5t45 87.5l216 1106h221l-215 -1097q-66 -340 -383 -340q-92 0 -165 40t-118 126z" />
<glyph unicode="&#x133;" horiz-adv-x="817" d="M10 0l197 1012h221l-197 -1012h-221zM209 -397l39 209q10 -2 31 -2q37 0 59 11t35.5 32.5t21.5 51t17 64.5l204 1045h224l-219 -1114q-14 -68 -40 -124.5t-66 -96t-96.5 -61t-131.5 -21.5q-41 0 -78 6zM244 1210l43 215h221l-41 -215h-223zM653 1210l43 215h224l-43 -215 h-224z" />
<glyph unicode="&#x134;" horiz-adv-x="720" d="M-84 156l180 118q16 -35 51 -55t70 -20q63 0 98 34.5t45 88.5l215 1105h222l-215 -1097q-66 -340 -383 -340q-92 0 -165 40t-118 126zM352 1567l322 270h129l207 -266l-92 -82l-205 166l-281 -166z" />
<glyph unicode="&#x135;" horiz-adv-x="563" d="M-123 -410l39 207q10 -2 31 -2q37 0 59.5 11.5t36.5 33t22.5 51t14.5 66.5l207 1057h223l-219 -1127q-29 -137 -107 -220t-229 -83q-18 0 -37.5 1t-40.5 5zM86 1169l330 306h129l203 -314l-97 -65l-196 202l-293 -206z" />
<glyph unicode="&#x136;" horiz-adv-x="880" d="M25 0l276 1425h221l-104 -542h10l360 542h242l-405 -591l170 -834h-220l-112 614l-137 -198l-80 -416h-221zM211 -500l92 201h-45l41 215h207l-41 -211l-141 -205h-113z" />
<glyph unicode="&#x137;" horiz-adv-x="825" d="M8 0l289 1485h219l-162 -817l8 -2l279 346h268l-342 -400l162 -612h-242l-94 422l-110 -139l-56 -283h-219zM154 -541l92 201h-45l41 215h207l-41 -211l-142 -205h-112z" />
<glyph unicode="&#x138;" horiz-adv-x="825" d="M8 0l195 1010h219l-68 -342l8 -2l279 346h268l-342 -400l162 -612h-242l-94 422l-110 -139l-56 -283h-219z" />
<glyph unicode="&#x139;" horiz-adv-x="735" d="M25 0l276 1425h221l-237 -1214h395l-39 -211h-616zM360 1577l367 248l98 -154l-405 -201z" />
<glyph unicode="&#x13a;" horiz-adv-x="454" d="M49 195q0 25 5 55.5t14 68.5l225 1168h223l-231 -1182q-2 -12 -3 -22.5t-1 -20.5q0 -37 20.5 -54.5t77.5 -23.5l-45 -196h-31q-127 0 -190.5 53t-63.5 154zM346 1618l367 248l98 -154l-405 -201z" />
<glyph unicode="&#x13b;" horiz-adv-x="735" d="M25 0l276 1425h221l-237 -1214h395l-39 -211h-616zM117 -541l92 201h-45l41 215h207l-41 -211l-142 -205h-112z" />
<glyph unicode="&#x13c;" horiz-adv-x="454" d="M-41 -541l92 201h-45l41 215h207l-41 -211l-141 -205h-113zM49 195q0 25 5 55.5t14 68.5l225 1168h223l-231 -1182q-2 -12 -3 -22.5t-1 -20.5q0 -37 20.5 -54.5t77.5 -23.5l-45 -196h-31q-127 0 -190.5 53t-63.5 154z" />
<glyph unicode="&#x13d;" horiz-adv-x="735" d="M25 0l276 1425h221l-237 -1214h395l-39 -211h-616zM549 1010l92 200h-45l41 215h207l-41 -211l-141 -204h-113z" />
<glyph unicode="&#x13e;" horiz-adv-x="624" d="M49 195q0 25 5 55.5t14 68.5l225 1168h223l-231 -1182q-2 -12 -3 -22.5t-1 -20.5q0 -37 20.5 -54.5t77.5 -23.5l-45 -196h-31q-127 0 -190.5 53t-63.5 154zM528 1073l93 201h-46l41 215h207l-41 -211l-141 -205h-113z" />
<glyph unicode="&#x13f;" horiz-adv-x="735" d="M25 0l276 1425h221l-237 -1214h395l-39 -211h-616zM561 614l41 215h191l-41 -215h-191z" />
<glyph unicode="&#x140;" horiz-adv-x="661" d="M49 195q0 25 5 55.5t14 68.5l225 1168h223l-231 -1182q-2 -12 -3 -22.5t-1 -20.5q0 -37 20.5 -54.5t77.5 -23.5l-45 -196h-31q-127 0 -190.5 53t-63.5 154zM473 674q10 53 20.5 107.5t20.5 107.5h191q-10 -53 -20.5 -107.5t-20.5 -107.5h-191z" />
<glyph unicode="&#x141;" horiz-adv-x="774" d="M-10 524l198 125l152 776h221l-121 -616l181 115l53 -107l-264 -168l-86 -438h395l-39 -211h-617l95 492l-117 -74z" />
<glyph unicode="&#x142;" horiz-adv-x="528" d="M-10 608q45 29 90 56.5t90 56.5l149 766h224q-31 -154 -60.5 -304.5t-58.5 -301.5l135 84l53 -107l-219 -137l-82 -416q-2 -12 -3 -22.5t-1 -20.5q0 -37 20.5 -54.5t78.5 -23.5l-46 -196h-30q-127 0 -190.5 53t-63.5 154q0 25 5 55.5t13 68.5l45 244l-98 -61z" />
<glyph unicode="&#x143;" horiz-adv-x="954" d="M18 0l277 1425h199l116 -585q2 -16 9.5 -58.5t15.5 -90.5l15 -90t9 -60l9 2l163 882h218l-277 -1425h-194l-119 592l-49 264h-9l-163 -856h-220zM606 1577l367 248l98 -154l-405 -201z" />
<glyph unicode="&#x144;" horiz-adv-x="798" d="M-2 0q47 256 96 506t99 506h221l-21 -99h8q43 57 98.5 84t108.5 27q104 0 143.5 -53t39.5 -129q0 -33 -13 -90q-4 -16 -13 -68.5t-23.5 -124.5t-30 -156t-30.5 -162.5t-27.5 -143t-18.5 -97.5h-221q23 119 42 217t36.5 181t31 153t23.5 129q4 20 5 31.5t1 21.5 q0 35 -19.5 56.5t-60.5 21.5q-55 0 -86 -40t-41 -95l-129 -676h-219zM416 1176l243 362l168 -82l-303 -344z" />
<glyph unicode="&#x145;" horiz-adv-x="954" d="M18 0l277 1425h199l116 -585q2 -16 9.5 -58.5t15.5 -90.5l15 -90t9 -60l9 2l163 882h218l-277 -1425h-194l-119 592l-49 264h-9l-163 -856h-220zM219 -500l92 201h-45l41 215h207l-41 -211l-141 -205h-113z" />
<glyph unicode="&#x146;" horiz-adv-x="798" d="M-2 0q47 256 96 506t99 506h221l-21 -99h8q43 57 98.5 84t108.5 27q104 0 143.5 -53t39.5 -129q0 -33 -13 -90q-4 -16 -13 -68.5t-23.5 -124.5t-30 -156t-30.5 -162.5t-27.5 -143t-18.5 -97.5h-221q23 119 42 217t36.5 181t31 153t23.5 129q4 20 5 31.5t1 21.5 q0 35 -19.5 56.5t-60.5 21.5q-55 0 -86 -40t-41 -95l-129 -676h-219zM111 -541l92 201h-45l41 215h207l-41 -211l-142 -205h-112z" />
<glyph unicode="&#x147;" horiz-adv-x="954" d="M18 0l277 1425h199l116 -585q2 -16 9.5 -58.5t15.5 -90.5l15 -90t9 -60l9 2l163 882h218l-277 -1425h-194l-119 592l-49 264h-9l-163 -856h-220zM401 1757l99 78l205 -164l276 164l78 -80l-316 -268h-129z" />
<glyph unicode="&#x148;" horiz-adv-x="798" d="M-2 0q47 256 96 506t99 506h221l-21 -99h8q43 57 98.5 84t108.5 27q104 0 143.5 -53t39.5 -129q0 -33 -13 -90q-4 -16 -13 -68.5t-23.5 -124.5t-30 -156t-30.5 -162.5t-27.5 -143t-18.5 -97.5h-221q23 119 42 217t36.5 181t31 153t23.5 129q4 20 5 31.5t1 21.5 q0 35 -19.5 56.5t-60.5 21.5q-55 0 -86 -40t-41 -95l-129 -676h-219zM254 1409l102 78l203 -193l279 193l73 -82l-317 -301h-129z" />
<glyph unicode="&#x149;" horiz-adv-x="946" d="M86 948l92 201h-45l41 215h207l-41 -211l-141 -205h-113zM145 0q47 256 96.5 506t98.5 506h221l-20 -99h8q43 57 98 84t109 27q104 0 143 -53t39 -129q0 -33 -12 -90q-4 -16 -13.5 -68.5t-24 -124.5t-29.5 -156t-30.5 -162.5t-28 -143t-18.5 -97.5h-221q23 119 42.5 217 t36.5 181t30.5 153t23.5 129q4 20 5 31.5t1 21.5q0 35 -19 56.5t-60 21.5q-55 0 -86 -40t-41 -95l-129 -676h-220z" />
<glyph unicode="&#x14a;" horiz-adv-x="954" d="M25 0l276 1425h195q23 -113 41 -224t41 -224q20 -96 39.5 -209t35.5 -209q4 0 5 1t6 1l163 864h213l-305 -1556q-12 -59 -35.5 -100t-56.5 -66t-72 -36t-79 -11q-35 0 -68 7t-66 18l48 169q18 -2 37.5 -3t36 5.5t29.5 19.5t17 38l31 160q-31 147 -55.5 294.5t-57.5 294.5 q-8 45 -17 88.5t-17 88.5h-9l-161 -836h-215z" />
<glyph unicode="&#x14b;" horiz-adv-x="798" d="M4 0l197 1012h217l-19 -90h9q39 43 95 72.5t111 29.5q61 0 98.5 -19.5t55.5 -55.5t19 -83t-9 -102l-174 -895q-12 -59 -35.5 -100t-56.5 -66t-72 -36t-80 -11q-35 0 -67.5 7t-65.5 18l49 172q18 -2 38 -3.5t36.5 4t28.5 18.5t16 38l154 790q10 53 -8.5 81t-61.5 28 q-45 0 -79.5 -32t-45.5 -87l-133 -690h-217z" />
<glyph unicode="&#x14c;" horiz-adv-x="851" d="M49 279q0 27 3 54t7 56l138 711q33 168 120.5 253t247.5 85q156 0 238 -81t82 -216q0 -49 -13 -107l-133 -704q-29 -160 -114.5 -251t-249.5 -91q-170 0 -248 81t-78 210zM268 311q0 -47 27 -77.5t84 -30.5t91 34.5t46 96.5l137 706q6 33 6 66q0 51 -24.5 82t-81.5 35 q-59 0 -91 -35t-44 -92l-142 -717q-4 -16 -6 -33.5t-2 -34.5zM369 1532l37 182h501l-37 -182h-501z" />
<glyph unicode="&#x14d;" horiz-adv-x="782" d="M55 279q6 104 29 219q23 113 47.5 211t58.5 159q45 78 122 119t171 41q74 0 127.5 -20.5t88 -55t51 -79t16.5 -91.5q0 -31 -4 -71.5t-10.5 -84.5t-13.5 -87t-13 -78q-25 -125 -53.5 -215t-73.5 -147.5t-109.5 -85t-158.5 -27.5q-86 0 -140.5 27.5t-84 69.5t-40 94 t-10.5 102zM272 281q0 -37 20.5 -62.5t63.5 -25.5q35 0 59.5 19t37.5 48q8 18 24.5 83t31.5 140.5t27.5 145t12.5 98.5q0 41 -18.5 69.5t-57.5 28.5q-37 0 -62.5 -16t-43.5 -59t-48 -175q-4 -23 -10 -51t-12 -59t-12 -60.5t-9 -52.5q-2 -20 -3 -37.5t-1 -33.5zM276 1182 l35 182h504l-37 -182h-502z" />
<glyph unicode="&#x14e;" horiz-adv-x="851" d="M49 279q0 27 3 54t7 56l138 711q33 168 120.5 253t247.5 85q156 0 238 -81t82 -216q0 -49 -13 -107l-133 -704q-29 -160 -114.5 -251t-249.5 -91q-170 0 -248 81t-78 210zM268 311q0 -47 27 -77.5t84 -30.5t91 34.5t46 96.5l137 706q6 33 6 66q0 51 -24.5 82t-81.5 35 q-59 0 -91 -35t-44 -92l-142 -717q-4 -16 -6 -33.5t-2 -34.5zM362 1761v21.5t3 21.5h165q-8 -59 23 -101t86 -42q37 0 64.5 13.5t49 35t34 47t18.5 47.5h174q-14 -55 -41 -107t-70 -93t-102 -66t-139 -25q-74 0 -125 21.5t-82 57.5t-44.5 80t-13.5 89z" />
<glyph unicode="&#x14f;" horiz-adv-x="782" d="M55 279q6 104 29 219q23 113 47.5 211t58.5 159q45 78 122 119t171 41q74 0 127.5 -20.5t88 -55t51 -79t16.5 -91.5q0 -31 -4 -71.5t-10.5 -84.5t-13.5 -87t-13 -78q-25 -125 -53.5 -215t-73.5 -147.5t-109.5 -85t-158.5 -27.5q-86 0 -140.5 27.5t-84 69.5t-40 94 t-10.5 102zM266 1384v19.5t2 19.5h166q0 -63 27.5 -103t83.5 -40q33 0 60.5 13.5t49 35t34.5 47t20 47.5h178q-14 -53 -42 -105t-71 -93t-102.5 -66.5t-134.5 -25.5q-76 0 -127.5 22.5t-83 57t-46 79.5t-14.5 92zM272 281q0 -37 20.5 -62.5t63.5 -25.5q35 0 59.5 19t37.5 48 q8 18 24.5 83t31.5 140.5t27.5 145t12.5 98.5q0 41 -18.5 69.5t-57.5 28.5q-37 0 -62.5 -16t-43.5 -59t-48 -175q-4 -23 -10 -51t-12 -59t-12 -60.5t-9 -52.5q-2 -20 -3 -37.5t-1 -33.5z" />
<glyph unicode="&#x150;" horiz-adv-x="851" d="M49 279q0 27 3 54t7 56l138 711q33 168 120.5 253t247.5 85q156 0 238 -81t82 -216q0 -49 -13 -107l-133 -704q-29 -160 -114.5 -251t-249.5 -91q-170 0 -248 81t-78 210zM268 311q0 -47 27 -77.5t84 -30.5t91 34.5t46 96.5l137 706q6 33 6 66q0 51 -24.5 82t-81.5 35 q-59 0 -91 -35t-44 -92l-142 -717q-4 -16 -6 -33.5t-2 -34.5zM346 1577l354 248l101 -154l-395 -201zM709 1577l354 248l98 -154l-393 -201z" />
<glyph unicode="&#x151;" horiz-adv-x="782" d="M55 279q6 104 29 219q23 113 47.5 211t58.5 159q45 78 122 119t171 41q74 0 127.5 -20.5t88 -55t51 -79t16.5 -91.5q0 -31 -4 -71.5t-10.5 -84.5t-13.5 -87t-13 -78q-25 -125 -53.5 -215t-73.5 -147.5t-109.5 -85t-158.5 -27.5q-86 0 -140.5 27.5t-84 69.5t-40 94 t-10.5 102zM272 281q0 -37 20.5 -62.5t63.5 -25.5q35 0 59.5 19t37.5 48q8 18 24.5 83t31.5 140.5t27.5 145t12.5 98.5q0 41 -18.5 69.5t-57.5 28.5q-37 0 -62.5 -16t-43.5 -59t-48 -175q-4 -23 -10 -51t-12 -59t-12 -60.5t-9 -52.5q-2 -20 -3 -37.5t-1 -33.5zM289 1176 l241 362l170 -82l-305 -344zM567 1176l244 362l168 -82l-305 -344z" />
<glyph unicode="&#x152;" horiz-adv-x="1193" d="M78 279q0 27 3 53t7 55l137 713q33 168 128.5 253t246.5 85q61 0 111 -13h637q-10 -53 -20.5 -104t-20.5 -104h-412q-18 -98 -36.5 -193.5t-39.5 -194.5h359l-41 -211h-359l-78 -405h412l-41 -213h-571q-53 -12 -119 -12q-37 0 -64 8q-127 16 -183 93t-56 190zM297 309 q0 -47 23.5 -77.5t78.5 -30.5q33 0 57.5 12t39.5 43l174 891q-2 39 -25.5 57.5t-60.5 18.5q-92 0 -125 -86q-8 -20 -13.5 -41t-9.5 -43l-125 -629q-6 -29 -10 -58.5t-4 -56.5z" />
<glyph unicode="&#x153;" horiz-adv-x="1226" d="M49 238q0 53 9.5 122.5t21.5 137.5q23 113 47.5 211t58.5 159q45 80 121 120t172 40q74 0 128.5 -25.5t82.5 -68.5q39 41 96.5 67.5t128.5 26.5q59 0 111.5 -15.5t90.5 -46t60.5 -74.5t22.5 -101q0 -100 -31.5 -171t-87 -117t-127 -68.5t-151.5 -22.5q-37 0 -80 6 q-6 -31 -11 -69t-5 -66q0 -41 17 -65.5t58 -24.5q90 0 113 112l225 -29q-16 -63 -41.5 -116.5t-67.5 -91t-101.5 -59t-141.5 -21.5q-150 0 -209 90q-41 -47 -102.5 -69.5t-141.5 -22.5q-72 0 -122 24.5t-82.5 61.5t-47 81t-14.5 85zM267 297.5q-1 -27.5 5.5 -51t24.5 -38.5 t55 -15q41 0 63.5 22.5t33.5 56.5q10 29 26.5 94.5t31.5 138.5t25.5 139.5t10.5 100.5q0 37 -21.5 58.5t-52.5 21.5q-37 0 -62.5 -16t-44.5 -59q-10 -23 -22 -67t-27 -108q-4 -23 -10 -51t-12 -59t-11.5 -60.5t-7.5 -52.5q-4 -27 -5 -54.5zM756 596q12 -2 24.5 -2h22.5 q37 0 68.5 7t55 24.5t38 47t14.5 75.5q0 31 -20.5 52t-57.5 21q-59 0 -91 -52t-54 -173z" />
<glyph unicode="&#x154;" horiz-adv-x="880" d="M25 0l276 1425h305q154 0 237 -73.5t83 -239.5q0 -193 -65.5 -305.5t-188.5 -169.5l88 -637h-225l-72 590h-105l-112 -590h-221zM399 797h90q92 0 156 68.5t64 203.5q0 147 -154 148h-74zM510 1577l367 248l98 -154l-406 -201z" />
<glyph unicode="&#x155;" horiz-adv-x="587" d="M20 0l197 1014h223l-26 -131h4q47 82 103.5 113.5t129.5 31.5h17.5t17.5 -2l-47 -235q-14 2 -28.5 3t-28.5 1q-86 0 -144.5 -50.5t-81.5 -158.5l-112 -586h-224zM365 1176l243 362l168 -82l-303 -344z" />
<glyph unicode="&#x156;" horiz-adv-x="880" d="M25 0l276 1425h305q154 0 237 -73.5t83 -239.5q0 -193 -65.5 -305.5t-188.5 -169.5l88 -637h-225l-72 590h-105l-112 -590h-221zM197 -500l92 201h-45l41 215h207l-41 -211l-142 -205h-112zM399 797h90q92 0 156 68.5t64 203.5q0 147 -154 148h-74z" />
<glyph unicode="&#x157;" horiz-adv-x="587" d="M-76 -539l92 201h-45l41 215h207l-41 -211l-141 -205h-113zM20 0l197 1014h223l-26 -131h4q47 82 103.5 113.5t129.5 31.5h17.5t17.5 -2l-47 -235q-14 2 -28.5 3t-28.5 1q-86 0 -144.5 -50.5t-81.5 -158.5l-112 -586h-224z" />
<glyph unicode="&#x158;" horiz-adv-x="880" d="M25 0l276 1425h305q154 0 237 -73.5t83 -239.5q0 -193 -65.5 -305.5t-188.5 -169.5l88 -637h-225l-72 590h-105l-112 -590h-221zM309 1757l99 78l204 -164l277 164l78 -80l-316 -268h-129zM399 797h90q92 0 156 68.5t64 203.5q0 147 -154 148h-74z" />
<glyph unicode="&#x159;" horiz-adv-x="587" d="M20 0l197 1014h223l-26 -131h4q47 82 103.5 113.5t129.5 31.5h17.5t17.5 -2l-47 -235q-14 2 -28.5 3t-28.5 1q-86 0 -144.5 -50.5t-81.5 -158.5l-112 -586h-224zM160 1409l102 78l203 -193l278 193l74 -82l-317 -301h-129z" />
<glyph unicode="&#x15a;" horiz-adv-x="841" d="M45 258q0 49 12 98l224 23q-10 -41 -11 -74q0 -41 22.5 -72.5t86.5 -31.5q53 0 89 25.5t57.5 66.5t29.5 92t8 104t-28.5 82t-100.5 62q-74 33 -121 67.5t-74.5 71.5t-39 77t-11.5 85q0 115 28 208t82 158.5t132 101.5t180 36q82 0 140.5 -21.5t95.5 -57.5t53 -84t16 -104 q0 -29 -3 -58.5t-13 -57.5l-221 -19q10 45 10 78q0 43 -23.5 76t-86.5 33q-49 0 -81 -27t-50.5 -63.5t-25.5 -77.5t-7 -70q0 -43 31.5 -78t125.5 -76q127 -55 173.5 -118.5t46.5 -155.5q0 -123 -23 -226.5t-75 -180t-135 -119.5t-202 -43q-162 0 -236.5 76.5t-74.5 193.5z M498 1577l366 248l99 -154l-406 -201z" />
<glyph unicode="&#x15b;" horiz-adv-x="743" d="M29 209q0 33 6 67l217 29q-6 -25 -6 -41q0 -33 19.5 -53.5t62.5 -20.5q66 0 94.5 44.5t28.5 101.5q0 37 -20.5 57.5t-65.5 36.5q-55 20 -99.5 43t-76 50.5t-48 65.5t-16.5 91q0 76 24.5 139.5t70.5 109.5t112.5 72.5t152.5 26.5q141 0 205 -59.5t64 -157.5 q0 -18 -2 -36.5t-7 -39.5l-219 -26q6 20 6 36q0 31 -19 54.5t-62 23.5q-35 0 -56.5 -13t-33 -31.5t-15.5 -39t-4 -34.5q0 -27 20.5 -46.5t73.5 -40.5q57 -20 100.5 -41.5t73 -51t45 -68.5t15.5 -95q0 -78 -21.5 -146.5t-66.5 -118.5t-116 -79.5t-169 -29.5q-133 0 -200.5 58 t-67.5 163zM395 1176l244 362l168 -82l-303 -344z" />
<glyph unicode="&#x15c;" horiz-adv-x="841" d="M45 258q0 49 12 98l224 23q-10 -41 -11 -74q0 -41 22.5 -72.5t86.5 -31.5q53 0 89 25.5t57.5 66.5t29.5 92t8 104t-28.5 82t-100.5 62q-74 33 -121 67.5t-74.5 71.5t-39 77t-11.5 85q0 115 28 208t82 158.5t132 101.5t180 36q82 0 140.5 -21.5t95.5 -57.5t53 -84t16 -104 q0 -29 -3 -58.5t-13 -57.5l-221 -19q10 45 10 78q0 43 -23.5 76t-86.5 33q-49 0 -81 -27t-50.5 -63.5t-25.5 -77.5t-7 -70q0 -43 31.5 -78t125.5 -76q127 -55 173.5 -118.5t46.5 -155.5q0 -123 -23 -226.5t-75 -180t-135 -119.5t-202 -43q-162 0 -236.5 76.5t-74.5 193.5z M289 1563l321 270h129l207 -266l-92 -82l-205 166l-280 -166z" />
<glyph unicode="&#x15d;" horiz-adv-x="743" d="M29 209q0 33 6 67l217 29q-6 -25 -6 -41q0 -33 19.5 -53.5t62.5 -20.5q66 0 94.5 44.5t28.5 101.5q0 37 -20.5 57.5t-65.5 36.5q-55 20 -99.5 43t-76 50.5t-48 65.5t-16.5 91q0 76 24.5 139.5t70.5 109.5t112.5 72.5t152.5 26.5q141 0 205 -59.5t64 -157.5 q0 -18 -2 -36.5t-7 -39.5l-219 -26q6 20 6 36q0 31 -19 54.5t-62 23.5q-35 0 -56.5 -13t-33 -31.5t-15.5 -39t-4 -34.5q0 -27 20.5 -46.5t73.5 -40.5q57 -20 100.5 -41.5t73 -51t45 -68.5t15.5 -95q0 -78 -21.5 -146.5t-66.5 -118.5t-116 -79.5t-169 -29.5q-133 0 -200.5 58 t-67.5 163zM168 1169l330 306h129l202 -314l-96 -65l-198 202l-291 -206z" />
<glyph unicode="&#x15e;" horiz-adv-x="841" d="M45 258q0 49 12 98l224 23q-10 -41 -11 -74q0 -41 22.5 -72.5t86.5 -31.5q53 0 89 25.5t57.5 66.5t29.5 92t8 104t-28.5 82t-100.5 62q-74 33 -121 67.5t-74.5 71.5t-39 77t-11.5 85q0 115 28 208t82 158.5t132 101.5t180 36q82 0 140.5 -21.5t95.5 -57.5t53 -84t16 -104 q0 -29 -3 -58.5t-13 -57.5l-221 -19q10 45 10 78q0 43 -23.5 76t-86.5 33q-49 0 -81 -27t-50.5 -63.5t-25.5 -77.5t-7 -70q0 -43 31.5 -78t125.5 -76q127 -55 173.5 -118.5t46.5 -155.5q0 -119 -21.5 -220t-70 -176t-125 -120t-187.5 -51l-39 -82q84 -10 111.5 -52t27.5 -85 q0 -25 -9 -57.5t-33.5 -63.5t-66.5 -52.5t-108 -21.5q-8 0 -27.5 1t-45 5t-53 11.5t-54.5 21.5l51 96q37 -18 64.5 -22t52.5 -4q39 0 61.5 22.5t22.5 52.5q0 51 -72 52h-8l-43 38l70 142q-127 16 -185.5 89t-58.5 177z" />
<glyph unicode="&#x15f;" horiz-adv-x="743" d="M29 209q0 33 6 67l217 29q-6 -25 -6 -41q0 -33 19.5 -53.5t62.5 -20.5q66 0 94.5 44.5t28.5 101.5q0 37 -20.5 57.5t-65.5 36.5q-55 20 -99.5 43t-76 50.5t-48 65.5t-16.5 91q0 76 24.5 139.5t70.5 109.5t112.5 72.5t152.5 26.5q141 0 205 -59.5t64 -157.5 q0 -18 -2 -36.5t-7 -39.5l-219 -26q6 20 6 36q0 31 -19 54.5t-62 23.5q-35 0 -56.5 -13t-33 -31.5t-15.5 -39t-4 -34.5q0 -27 20.5 -46.5t73.5 -40.5q57 -20 100.5 -41.5t73 -51t45 -68.5t15.5 -95q0 -72 -18.5 -136t-57.5 -113.5t-99.5 -81t-144.5 -39.5 q-10 -23 -20.5 -43.5t-20.5 -40.5q84 -10 112 -52t28 -85q0 -25 -9.5 -57.5t-34 -63.5t-66.5 -52.5t-108 -21.5q-8 0 -27.5 1t-45 5t-53 11.5t-54.5 21.5l51 96q37 -18 65 -22t52 -4q39 0 61.5 22.5t22.5 52.5q0 51 -72 52h-8l-43 38q16 35 33.5 70t36.5 70 q-111 10 -166 66.5t-55 152.5z" />
<glyph unicode="&#x160;" horiz-adv-x="841" d="M45 258q0 49 12 98l224 23q-10 -41 -11 -74q0 -41 22.5 -72.5t86.5 -31.5q53 0 89 25.5t57.5 66.5t29.5 92t8 104t-28.5 82t-100.5 62q-74 33 -121 67.5t-74.5 71.5t-39 77t-11.5 85q0 115 28 208t82 158.5t132 101.5t180 36q82 0 140.5 -21.5t95.5 -57.5t53 -84t16 -104 q0 -29 -3 -58.5t-13 -57.5l-221 -19q10 45 10 78q0 43 -23.5 76t-86.5 33q-49 0 -81 -27t-50.5 -63.5t-25.5 -77.5t-7 -70q0 -43 31.5 -78t125.5 -76q127 -55 173.5 -118.5t46.5 -155.5q0 -123 -23 -226.5t-75 -180t-135 -119.5t-202 -43q-162 0 -236.5 76.5t-74.5 193.5z M350 1757l99 78l204 -164l277 164l78 -80l-316 -268h-129z" />
<glyph unicode="&#x161;" horiz-adv-x="743" d="M29 209q0 33 6 67l217 29q-6 -25 -6 -41q0 -33 19.5 -53.5t62.5 -20.5q66 0 94.5 44.5t28.5 101.5q0 37 -20.5 57.5t-65.5 36.5q-55 20 -99.5 43t-76 50.5t-48 65.5t-16.5 91q0 76 24.5 139.5t70.5 109.5t112.5 72.5t152.5 26.5q141 0 205 -59.5t64 -157.5 q0 -18 -2 -36.5t-7 -39.5l-219 -26q6 20 6 36q0 31 -19 54.5t-62 23.5q-35 0 -56.5 -13t-33 -31.5t-15.5 -39t-4 -34.5q0 -27 20.5 -46.5t73.5 -40.5q57 -20 100.5 -41.5t73 -51t45 -68.5t15.5 -95q0 -78 -21.5 -146.5t-66.5 -118.5t-116 -79.5t-169 -29.5q-133 0 -200.5 58 t-67.5 163zM227 1409l103 78l202 -193l279 193l74 -82l-318 -301h-129z" />
<glyph unicode="&#x162;" horiz-adv-x="696" d="M57 -541l93 201h-46l41 215h207l-41 -211l-141 -205h-113zM156 0l235 1217h-231l41 208h682l-41 -208h-232l-235 -1217h-219z" />
<glyph unicode="&#x163;" horiz-adv-x="516" d="M-37 -541l92 201h-45l41 215h207l-41 -211l-141 -205h-113zM80 184q0 31 6 68l115 588h-99l33 172h101l51 268h213l-51 -268h122l-32 -172h-123l-101 -514q-2 -12 -3 -22.5t-1 -20.5q0 -35 21.5 -55.5t81.5 -24.5q-10 -51 -19.5 -102.5t-19.5 -102.5q-10 0 -19.5 -1 t-19.5 -1q-141 0 -198.5 51t-57.5 137z" />
<glyph unicode="&#x164;" horiz-adv-x="696" d="M156 0l235 1217h-231l41 208h682l-41 -208h-232l-235 -1217h-219zM285 1757l98 78l205 -164l276 164l78 -80l-315 -268h-129z" />
<glyph unicode="&#x165;" horiz-adv-x="667" d="M80 184q0 31 6 68l115 588h-99l33 172h101l51 268h213l-51 -268h122l-32 -172h-123l-101 -514q-2 -12 -3 -22.5t-1 -20.5q0 -35 21.5 -55.5t81.5 -24.5q-10 -51 -19.5 -102.5t-19.5 -102.5q-10 0 -19.5 -1t-19.5 -1q-141 0 -198.5 51t-57.5 137zM569 1106l93 201h-46 l41 215h207l-41 -211l-141 -205h-113z" />
<glyph unicode="&#x166;" horiz-adv-x="696" d="M109 696l32 152h178l72 369h-231l41 208h682l-41 -208h-232l-71 -369h194l-31 -152h-192l-135 -696h-219l135 696h-182z" />
<glyph unicode="&#x167;" horiz-adv-x="516" d="M39 504l29 145h96l37 191h-99l33 172h101l51 268h213l-51 -268h122l-32 -172h-123l-37 -191h125l-29 -145h-125l-35 -178q-2 -12 -3 -22.5t-1 -20.5q0 -35 21.5 -55.5t81.5 -24.5q-10 -51 -19.5 -102.5t-19.5 -102.5q-10 0 -19.5 -1t-19.5 -1q-141 0 -198.5 51t-57.5 137 q0 31 6 68l49 252h-96z" />
<glyph unicode="&#x168;" horiz-adv-x="886" d="M82 340l209 1085h221q-4 -23 -19.5 -102.5t-37 -189t-46 -233.5t-46 -234.5t-38 -193.5t-20.5 -112q-12 -66 8.5 -111.5t92.5 -45.5q51 0 88.5 28.5t52.5 102.5l213 1091h223l-213 -1095q-35 -184 -131 -263t-254 -79q-172 0 -253 95t-50 257zM305 1583q51 86 111.5 128 t118.5 42q31 0 59.5 -11t54 -24.5t49 -25t45.5 -11.5q29 0 54.5 12.5t66.5 59.5l107 -65q-53 -100 -112.5 -136t-113.5 -36q-35 0 -62.5 11t-52 24.5t-48 24.5t-47.5 11q-25 0 -54.5 -16.5t-68.5 -57.5z" />
<glyph unicode="&#x169;" horiz-adv-x="800" d="M46 132q-3 42 1 87q0 10 14.5 86t36 189.5t48 250t51.5 269.5h221q-23 -115 -47.5 -239t-44 -228.5t-32.5 -175t-13 -78.5q-4 -37 13 -63.5t64 -26.5q49 0 82 40t43 95l131 676h222l-197 -1014h-223l22 98h-8q-45 -57 -100.5 -83.5t-106.5 -26.5q-61 0 -99 19.5t-56.5 51 t-21.5 73.5zM201 1225q51 86 111.5 128t117.5 42q31 0 59.5 -11.5t54 -24.5t49 -24.5t46.5 -11.5q29 0 54.5 12.5t66.5 59.5l106 -66q-53 -100 -112.5 -136t-112.5 -36q-35 0 -62.5 11.5t-52 24.5t-48 24.5t-48.5 11.5t-54.5 -16.5t-68.5 -57.5z" />
<glyph unicode="&#x16a;" horiz-adv-x="886" d="M82 340l209 1085h221q-4 -23 -19.5 -102.5t-37 -189t-46 -233.5t-46 -234.5t-38 -193.5t-20.5 -112q-12 -66 8.5 -111.5t92.5 -45.5q51 0 88.5 28.5t52.5 102.5l213 1091h223l-213 -1095q-35 -184 -131 -263t-254 -79q-172 0 -253 95t-50 257zM389 1532l37 182h502 l-37 -182h-502z" />
<glyph unicode="&#x16b;" horiz-adv-x="800" d="M46 132q-3 42 1 87q0 10 14.5 86t36 189.5t48 250t51.5 269.5h221q-23 -115 -47.5 -239t-44 -228.5t-32.5 -175t-13 -78.5q-4 -37 13 -63.5t64 -26.5q49 0 82 40t43 95l131 676h222l-197 -1014h-223l22 98h-8q-45 -57 -100.5 -83.5t-106.5 -26.5q-61 0 -99 19.5t-56.5 51 t-21.5 73.5zM293 1182l35 182h503l-36 -182h-502z" />
<glyph unicode="&#x16c;" horiz-adv-x="886" d="M82 340l209 1085h221q-4 -23 -19.5 -102.5t-37 -189t-46 -233.5t-46 -234.5t-38 -193.5t-20.5 -112q-12 -66 8.5 -111.5t92.5 -45.5q51 0 88.5 28.5t52.5 102.5l213 1091h223l-213 -1095q-35 -184 -131 -263t-254 -79q-172 0 -253 95t-50 257zM391 1761v21.5t2 21.5h166 q-8 -59 22.5 -101t86.5 -42q37 0 64.5 13.5t49 35t33.5 47t19 47.5h174q-14 -55 -41 -107t-70 -93t-102.5 -66t-139.5 -25q-74 0 -125 21.5t-81.5 57.5t-44 80t-13.5 89z" />
<glyph unicode="&#x16d;" horiz-adv-x="800" d="M46 132q-3 42 1 87q0 10 14.5 86t36 189.5t48 250t51.5 269.5h221q-23 -115 -47.5 -239t-44 -228.5t-32.5 -175t-13 -78.5q-4 -37 13 -63.5t64 -26.5q49 0 82 40t43 95l131 676h222l-197 -1014h-223l22 98h-8q-45 -57 -100.5 -83.5t-106.5 -26.5q-61 0 -99 19.5t-56.5 51 t-21.5 73.5zM274 1384v19.5t2 19.5h166q0 -63 28 -103t83 -40q33 0 60.5 13.5t49 35t35 47t19.5 47.5h178q-14 -53 -42 -105t-71 -93t-102 -66.5t-135 -25.5t-127 22.5t-83 57t-46.5 79.5t-14.5 92z" />
<glyph unicode="&#x16e;" horiz-adv-x="886" d="M82 340l209 1085h221q-4 -23 -19.5 -102.5t-37 -189t-46 -233.5t-46 -234.5t-38 -193.5t-20.5 -112q-12 -66 8.5 -111.5t92.5 -45.5q51 0 88.5 28.5t52.5 102.5l213 1091h223l-213 -1095q-35 -184 -131 -263t-254 -79q-172 0 -253 95t-50 257zM485 1620q0 47 18.5 89 t49.5 75t73 51t91 18q74 0 122 -45t48 -112q0 -47 -17.5 -90t-48 -75t-73 -51.5t-91.5 -19.5q-74 0 -123 46t-49 114zM604 1640q0 -29 20.5 -47t49.5 -18q37 0 65.5 26.5t28.5 67.5q0 29 -19.5 47.5t-48.5 18.5q-37 0 -66.5 -29t-29.5 -66z" />
<glyph unicode="&#x16f;" horiz-adv-x="800" d="M46 132q-3 42 1 87q0 10 14.5 86t36 189.5t48 250t51.5 269.5h221q-23 -115 -47.5 -239t-44 -228.5t-32.5 -175t-13 -78.5q-4 -37 13 -63.5t64 -26.5q49 0 82 40t43 95l131 676h222l-197 -1014h-223l22 98h-8q-45 -57 -100.5 -83.5t-106.5 -26.5q-61 0 -99 19.5t-56.5 51 t-21.5 73.5zM371 1245q0 47 18.5 89t49 75t72.5 51.5t91 18.5q74 0 122 -45t48 -113q0 -47 -17.5 -90t-48 -75t-72.5 -51.5t-91 -19.5q-74 0 -123 46.5t-49 113.5zM489 1266q0 -29 20.5 -47.5t49.5 -18.5q37 0 65.5 26.5t28.5 67.5q0 29 -19 47.5t-48 18.5q-37 0 -67 -28.5 t-30 -65.5z" />
<glyph unicode="&#x170;" horiz-adv-x="886" d="M82 340l209 1085h221q-4 -23 -19.5 -102.5t-37 -189t-46 -233.5t-46 -234.5t-38 -193.5t-20.5 -112q-12 -66 8.5 -111.5t92.5 -45.5q51 0 88.5 28.5t52.5 102.5l213 1091h223l-213 -1095q-35 -184 -131 -263t-254 -79q-172 0 -253 95t-50 257zM371 1577l354 248l100 -154 l-395 -201zM733 1577l354 248l99 -154l-393 -201z" />
<glyph unicode="&#x171;" horiz-adv-x="800" d="M46 132q-3 42 1 87q0 10 14.5 86t36 189.5t48 250t51.5 269.5h221q-23 -115 -47.5 -239t-44 -228.5t-32.5 -175t-13 -78.5q-4 -37 13 -63.5t64 -26.5q49 0 82 40t43 95l131 676h222l-197 -1014h-223l22 98h-8q-45 -57 -100.5 -83.5t-106.5 -26.5q-61 0 -99 19.5t-56.5 51 t-21.5 73.5zM301 1176l242 362l170 -82l-305 -344zM580 1176l243 362l168 -82l-305 -344z" />
<glyph unicode="&#x172;" horiz-adv-x="886" d="M82 340l209 1085h221q-4 -23 -19.5 -102.5t-37 -189t-46 -233.5t-46 -234.5t-38 -193.5t-20.5 -112q-12 -66 8.5 -111.5t92.5 -45.5q51 0 88.5 28.5t52.5 102.5l213 1091h223l-213 -1095q-33 -166 -115 -246t-213 -92q-59 -76 -75.5 -126t-16.5 -73q0 -33 20.5 -49 t53.5 -16q20 0 44 3t64 19l23 -110q-47 -27 -98 -40.5t-97 -13.5q-72 0 -116.5 41t-44.5 119q0 47 24.5 108.5t85.5 139.5q-135 20 -195.5 111.5t-31.5 234.5z" />
<glyph unicode="&#x173;" horiz-adv-x="800" d="M46 132q-3 42 1 87q0 10 14.5 86t36 189.5t48 250t51.5 269.5h221q-23 -115 -47.5 -239t-44 -228.5t-32.5 -175t-13 -78.5q-4 -37 13 -63.5t64 -26.5q49 0 82 40t43 95l131 676h222l-197 -1014h-98q-61 -78 -79 -129t-18 -74q0 -33 20.5 -49t53.5 -16q20 0 44 3t65 19 l22 -110q-47 -27 -98 -40.5t-96 -13.5q-72 0 -117 41t-45 119q0 51 27.5 115.5t99.5 148.5v2l18 82h-8q-45 -57 -100.5 -83.5t-106.5 -26.5q-61 0 -99 19.5t-56.5 51t-21.5 73.5z" />
<glyph unicode="&#x174;" horiz-adv-x="1251" d="M162 0l74 1425h233q-2 -27 -8 -98.5t-15.5 -167.5t-18.5 -201.5t-18.5 -199.5t-15.5 -163t-8 -87h10l117 328l215 589h186l-16 -589l-14 -334h10l98 336l172 587h246q-123 -358 -241.5 -712.5t-239.5 -712.5h-226l9 618l6 242h-8q-23 -61 -45.5 -122.5t-45.5 -123.5 q-59 -154 -116.5 -307t-114.5 -307h-225zM485 1563l322 270h129l207 -266l-92 -82l-205 166l-281 -166z" />
<glyph unicode="&#x175;" horiz-adv-x="1202" d="M109 1012h241q-4 -104 -7 -207t-7 -207q-2 -35 -3 -65.5t-2 -64.5t-4 -71t-8 -84h11q66 158 131 341.5t117 357.5h235l-20 -363q-4 -100 -9.5 -180t-15.5 -156h10q68 170 127.5 334t122.5 365h244q-90 -272 -193.5 -515t-232.5 -497h-246l6 238q6 96 8 188t13 190h-11 q-33 -104 -64.5 -196t-70.5 -187q-25 -57 -48 -115.5t-50 -117.5h-248q-8 256 -14 506t-12 506zM379 1169l330 306h129l202 -314l-96 -65l-199 202l-290 -206z" />
<glyph unicode="&#x176;" horiz-adv-x="808" d="M211 0l115 582q-29 211 -57.5 421.5t-57.5 421.5h227q10 -111 18.5 -191.5t12.5 -146.5q6 -66 7 -126t3 -113h13q63 145 127.5 288.5t128.5 288.5h239l-442 -843l-113 -582h-221zM268 1563l322 270h129l207 -266l-92 -82l-205 166l-281 -166z" />
<glyph unicode="&#x177;" horiz-adv-x="737" d="M-115 -219q53 6 93 20.5t72 40t58.5 64.5t57.5 98l-60 1008h230v-379q0 -33 -1 -77t-3 -92t-6 -94t-9 -83h9q33 70 66.5 155.5t67.5 180t65.5 193.5t60.5 196h233q-109 -309 -224.5 -580.5t-236.5 -505.5q-41 -76 -85 -137t-99 -105t-126 -69t-161 -27zM158 1169l329 306 h129l203 -314l-96 -65l-199 202l-291 -206z" />
<glyph unicode="&#x178;" horiz-adv-x="808" d="M211 0l115 582q-29 211 -57.5 421.5t-57.5 421.5h227q10 -111 18.5 -191.5t12.5 -146.5q6 -66 7 -126t3 -113h13q63 145 127.5 288.5t128.5 288.5h239l-442 -843l-113 -582h-221zM334 1509l41 217h192l-41 -217h-192zM672 1509l41 217h190l-41 -217h-190z" />
<glyph unicode="&#x179;" horiz-adv-x="698" d="M-39 0l39 205l573 1012h-358l41 208h596l-41 -198l-571 -1020h372l-39 -207h-612zM461 1577l366 248l99 -154l-406 -201z" />
<glyph unicode="&#x17a;" horiz-adv-x="671" d="M-33 0l37 201l438 614h-295l39 197h543l-35 -187l-444 -618h323l-38 -207h-568zM412 1176l243 362l168 -82l-303 -344z" />
<glyph unicode="&#x17b;" horiz-adv-x="698" d="M-39 0l39 205l573 1012h-358l41 208h596l-41 -198l-571 -1020h372l-39 -207h-612zM479 1509l41 215h191l-41 -215h-191z" />
<glyph unicode="&#x17c;" horiz-adv-x="671" d="M-33 0l37 201l438 614h-295l39 197h543l-35 -187l-444 -618h323l-38 -207h-568zM395 1151l41 215h191l-41 -215h-191z" />
<glyph unicode="&#x17d;" horiz-adv-x="698" d="M-39 0l39 205l573 1012h-358l41 208h596l-41 -198l-571 -1020h372l-39 -207h-612zM291 1757l98 78l205 -164l276 164l78 -80l-315 -268h-129z" />
<glyph unicode="&#x17e;" horiz-adv-x="671" d="M-33 0l37 201l438 614h-295l39 197h543l-35 -187l-444 -618h323l-38 -207h-568zM209 1409l102 78l203 -193l279 193l73 -82l-317 -301h-129z" />
<glyph unicode="&#x192;" horiz-adv-x="829" d="M-39 -137l70 172q27 -14 47 -17.5t37 -3.5q53 0 80.5 50.5t50.5 156.5l94 469h-131l16 189h158l35 157q14 72 38.5 142.5t65.5 126t101.5 90.5t146.5 35q41 0 81 -5.5t75 -23.5l-58 -189q-31 14 -58.5 17.5t-47.5 3.5q-59 0 -89 -48t-46 -132l-37 -174h155l-16 -189h-178 l-92 -454q-39 -201 -111 -306.5t-215 -105.5q-35 0 -81 8t-91 31z" />
<glyph unicode="&#x1a0;" horiz-adv-x="958" d="M74 279q0 27 3 54t7 56l137 711q33 168 121 253t248 85q98 0 166.5 -33t107.5 -92q51 6 81 43t46 133l25 121h168l-25 -131q-29 -137 -88 -217t-162 -103v-18q0 -49 -12 -107l-133 -704q-29 -160 -115 -251t-250 -91q-170 0 -247.5 81t-77.5 210zM293 311 q0 -47 26.5 -77.5t83.5 -30.5t91 34.5t47 96.5l137 706q6 33 6 66q0 51 -24.5 82t-81.5 35q-59 0 -91 -35t-45 -92l-141 -717q-4 -16 -6 -33.5t-2 -34.5z" />
<glyph unicode="&#x1a1;" horiz-adv-x="888" d="M55 279q6 104 29 219q23 113 47.5 211t58.5 159q45 78 122 119t171 41q84 0 141.5 -27.5t92.5 -70.5q35 14 56.5 52t35.5 116l22 110h168q-6 -35 -14 -74.5t-16 -76.5q-47 -221 -203 -279q0 -31 -4 -71.5t-10.5 -83.5t-13.5 -85t-13 -77q-25 -125 -53.5 -215 t-73.5 -147.5t-109.5 -85t-158.5 -27.5q-86 0 -140.5 27.5t-84 69.5t-40 94t-10.5 102zM272 281q0 -37 20.5 -62.5t63.5 -25.5q35 0 59.5 19t37.5 48q8 18 24.5 83t31.5 140.5t27.5 145t12.5 98.5q0 41 -18.5 69.5t-57.5 28.5q-37 0 -62.5 -16t-43.5 -59t-48 -175 q-4 -23 -10 -51t-12 -59t-12 -60.5t-9 -52.5q-2 -20 -3 -37.5t-1 -33.5z" />
<glyph unicode="&#x1af;" horiz-adv-x="1034" d="M82 340l209 1085h221q-4 -23 -19.5 -102.5t-37 -189t-46 -233.5t-46 -234.5t-38 -193.5t-20.5 -112q-12 -66 8.5 -111.5t92.5 -45.5q51 0 88.5 28.5t52.5 102.5l213 1091h223l-22 -114q61 2 93.5 37.5t55.5 140.5l23 121h167l-24 -131q-31 -164 -111 -246t-219 -82h-16 l-160 -821q-35 -184 -131 -263t-254 -79q-172 0 -253 95t-50 257z" />
<glyph unicode="&#x1b0;" horiz-adv-x="993" d="M46 132q-3 42 1 87q0 10 14.5 86t36 189.5t48 250t51.5 269.5h221q-23 -115 -47.5 -239t-44 -228.5t-32.5 -175t-13 -78.5q-4 -37 13 -63.5t64 -26.5q49 0 82 40t43 95l131 676h222l-19 -94q53 6 83 43.5t50 136.5l21 110h168l-23 -123q-29 -164 -109.5 -245.5 t-220.5 -81.5l-147 -760h-223l22 98h-8q-45 -57 -100.5 -83.5t-106.5 -26.5q-61 0 -99 19.5t-56.5 51t-21.5 73.5z" />
<glyph unicode="&#x1fc;" horiz-adv-x="1296" d="M-31 0l635 1425h799l-29 -208h-411l-56 -388h359l-29 -211h-358l-56 -401h412l-29 -217h-635l47 340h-270l-149 -340h-230zM438 551h209l94 663h-8zM829 1577l367 248l98 -154l-405 -201z" />
<glyph unicode="&#x1fd;" horiz-adv-x="1210" d="M20 195q0 55 13.5 127.5t55.5 137t122 108.5t215 44q20 0 43 -2t47 -6l23 119q2 10 2 29q0 31 -19.5 49t-62.5 18q-31 0 -68 -17.5t-53 -74.5l-188 59q43 117 135 178.5t225 61.5q59 0 111.5 -17.5t80.5 -54.5q86 74 228 74q133 0 207.5 -64.5t74.5 -175.5 q0 -98 -33.5 -169.5t-91 -117.5t-131 -67.5t-155.5 -21.5q-41 0 -84 6q-8 -31 -13.5 -63.5t-5.5 -61.5q0 -41 15.5 -69.5t62.5 -28.5q92 0 117 110l221 -26q-35 -139 -121 -215t-245 -76q-94 0 -151.5 32.5t-86.5 94.5q-37 -47 -78 -73t-79 -38t-70.5 -14t-53.5 -2 q-59 0 -99 16t-64.5 44t-35 66t-10.5 81zM248 279q0 -82 88 -82q47 0 81 34.5t44 90.5l20 120q-14 2 -30.5 4.5t-32.5 2.5q-90 0 -130 -45.5t-40 -124.5zM655 1176l244 362l168 -82l-303 -344zM750 596q14 -2 26 -3t27 -1q74 0 126 36t52 122q0 33 -18.5 52t-57.5 19 q-63 0 -98 -52t-57 -173z" />
<glyph unicode="&#x1fe;" horiz-adv-x="880" d="M16 25l80 125q-23 57 -22 129q0 27 3 54t7 56l137 711q33 168 121 253t248 85q92 0 158.5 -31t105.5 -84l76 117l71 -43l-104 -160q12 -47 12 -96t-12 -107l-133 -704q-29 -160 -115 -251t-250 -91q-92 0 -154.5 23.5t-103.5 66.5l-59 -92zM293 309q0 -47 26.5 -76.5 t83.5 -29.5t91 34.5t47 96.5l98 506zM326 504l354 549q4 14 4 27.5v25.5q0 51 -24.5 82t-81.5 35q-59 0 -91 -35t-45 -92zM522 1577l367 248l98 -154l-405 -201z" />
<glyph unicode="&#x1ff;" horiz-adv-x="782" d="M18 -6l74 108q-23 41 -30 87.5t-7 89.5q6 104 29 219q23 113 47.5 211t58.5 159q45 78 122 119t171 41q63 0 111.5 -15.5t83.5 -43.5l67 100q16 -10 29.5 -18.5t30.5 -16.5l-80 -116q41 -63 41 -136q0 -31 -4 -71.5t-10.5 -84.5t-13.5 -87t-13 -78q-25 -125 -53.5 -215 t-73.5 -147.5t-109.5 -85t-158.5 -27.5q-70 0 -117 17t-78 46l-61 -90q-14 8 -27.5 16.5t-28.5 18.5zM274 254q6 -29 27 -45t55 -16q35 0 59.5 19t37.5 48q6 14 17 57t23.5 99.5t24.5 117t21 109.5zM281 381l262 387q-17 57 -70 57q-37 0 -62.5 -16t-43.5 -59t-48 -175 q-8 -37 -19 -93t-19 -101zM426 1176l244 362l168 -82l-303 -344z" />
<glyph unicode="&#x218;" horiz-adv-x="841" d="M45 258q0 49 12 98l224 23q-10 -41 -11 -74q0 -41 22.5 -72.5t86.5 -31.5q53 0 89 25.5t57.5 66.5t29.5 92t8 104t-28.5 82t-100.5 62q-74 33 -121 67.5t-74.5 71.5t-39 77t-11.5 85q0 115 28 208t82 158.5t132 101.5t180 36q82 0 140.5 -21.5t95.5 -57.5t53 -84t16 -104 q0 -29 -3 -58.5t-13 -57.5l-221 -19q10 45 10 78q0 43 -23.5 76t-86.5 33q-49 0 -81 -27t-50.5 -63.5t-25.5 -77.5t-7 -70q0 -43 31.5 -78t125.5 -76q127 -55 173.5 -118.5t46.5 -155.5q0 -123 -23 -226.5t-75 -180t-135 -119.5t-202 -43q-162 0 -236.5 76.5t-74.5 193.5z M129 -541l92 201h-45l41 215h207l-41 -211l-141 -205h-113z" />
<glyph unicode="&#x219;" horiz-adv-x="743" d="M29 209q0 33 6 67l217 29q-6 -25 -6 -41q0 -33 19.5 -53.5t62.5 -20.5q66 0 94.5 44.5t28.5 101.5q0 37 -20.5 57.5t-65.5 36.5q-55 20 -99.5 43t-76 50.5t-48 65.5t-16.5 91q0 76 24.5 139.5t70.5 109.5t112.5 72.5t152.5 26.5q141 0 205 -59.5t64 -157.5 q0 -18 -2 -36.5t-7 -39.5l-219 -26q6 20 6 36q0 31 -19 54.5t-62 23.5q-35 0 -56.5 -13t-33 -31.5t-15.5 -39t-4 -34.5q0 -27 20.5 -46.5t73.5 -40.5q57 -20 100.5 -41.5t73 -51t45 -68.5t15.5 -95q0 -78 -21.5 -146.5t-66.5 -118.5t-116 -79.5t-169 -29.5q-133 0 -200.5 58 t-67.5 163zM78 -541l92 201h-45l41 215h207l-41 -211l-142 -205h-112z" />
<glyph unicode="&#x2c6;" horiz-adv-x="774" d="M223 1169l330 306h129l203 -314l-97 -65l-198 202l-291 -206z" />
<glyph unicode="&#x2c7;" horiz-adv-x="774" d="M270 1409l103 78l202 -193l279 193l74 -82l-318 -301h-129z" />
<glyph unicode="&#x2d8;" horiz-adv-x="874" d="M281 1384v19.5t2 19.5h166q0 -63 27.5 -103t82.5 -40q33 0 60.5 13.5t49 35t35 47t19.5 47.5h178q-14 -53 -42 -105t-71 -93t-102 -66.5t-135 -25.5t-127 22.5t-83 57t-46 79.5t-14 92z" />
<glyph unicode="&#x2d9;" horiz-adv-x="784" d="M424 1151l41 215h190l-41 -215h-190z" />
<glyph unicode="&#x2da;" horiz-adv-x="788" d="M367 1245q0 47 18 89t49 75t73 51.5t91 18.5q74 0 122 -45t48 -113q0 -47 -17.5 -90t-48 -75t-72.5 -51.5t-91 -19.5q-74 0 -123 46.5t-49 113.5zM485 1266q0 -29 20.5 -47.5t49.5 -18.5q37 0 65.5 26.5t28.5 67.5q0 29 -19 47.5t-48 18.5q-37 0 -67 -28.5t-30 -65.5z " />
<glyph unicode="&#x2db;" horiz-adv-x="808" d="M399 -254q0 51 28 115.5t99 150.5h127l2 -6q-66 -82 -85 -136t-19 -77q0 -33 20.5 -49t53.5 -16q20 0 43.5 3t64.5 19l23 -110q-47 -27 -98.5 -40.5t-96.5 -13.5q-72 0 -117 41t-45 119z" />
<glyph unicode="&#x2dc;" horiz-adv-x="741" d="M201 1225q51 86 111.5 128t117.5 42q31 0 59.5 -11.5t54 -24.5t49 -24.5t46.5 -11.5q29 0 54.5 12.5t66.5 59.5l106 -66q-53 -100 -112.5 -136t-112.5 -36q-35 0 -62.5 11.5t-52 24.5t-48 24.5t-48.5 11.5t-54.5 -16.5t-68.5 -57.5z" />
<glyph unicode="&#x2dd;" horiz-adv-x="780" d="M297 1176l242 362l170 -82l-306 -344zM575 1176l244 362l168 -82l-305 -344z" />
<glyph unicode="&#x3a9;" horiz-adv-x="880" d="M-4 0l39 207h90l4 6q-43 57 -44 112.5t13 127.5l127 649q4 16 7.5 29.5t7.5 25.5q39 139 131 210t229 71q154 0 232.5 -75t78.5 -210q0 -45 -10 -102q-20 -117 -49 -266.5t-68 -358.5q-14 -63 -42.5 -120.5t-71.5 -92.5v-6h92q-10 -53 -20.5 -104.5t-20.5 -102.5h-315 q10 57 22 114.5t25 116.5q76 25 92 113q47 244 79.5 413t57.5 296q14 66 -9.5 113.5t-88.5 47.5q-61 0 -95 -39.5t-51 -113.5q-35 -170 -57.5 -288t-38.5 -198.5t-26.5 -137t-18.5 -103.5q0 -35 10 -63.5t45 -39.5l-47 -231h-309z" />
<glyph unicode="&#x3c0;" horiz-adv-x="829" d="M14 0l197 1014h639l-197 -1014h-223l160 831h-195l-159 -831h-222z" />
<glyph unicode="&#x401;" horiz-adv-x="778" d="M25 0l276 1425h633l-41 -208h-412l-75 -388h358l-41 -211h-358l-80 -411h411l-39 -207h-632zM358 1509l41 217h193l-41 -217h-193zM696 1509l41 217h191l-41 -217h-191z" />
<glyph unicode="&#x402;" horiz-adv-x="983" d="M133 0l236 1219h-207l41 206h729l-39 -206h-305l-64 -332h4q57 37 113.5 54t110.5 17q72 0 115.5 -23.5t66 -62t26 -88t-5.5 -100.5l-75 -418q-31 -174 -115 -255t-252 -81h-45l35 185q39 2 64.5 11t43 28.5t27.5 48t18 71.5l68 349q10 59 -1 96t-77 37q-25 0 -73 -16.5 t-89 -49.5l-133 -690h-217z" />
<glyph unicode="&#x403;" horiz-adv-x="770" d="M25 0l276 1425h617l-41 -208h-396l-235 -1217h-221zM500 1577l366 248l99 -154l-406 -201z" />
<glyph unicode="&#x404;" horiz-adv-x="841" d="M82 356l135 693q14 80 43 151.5t75 123.5t113.5 83t163.5 31q88 0 150.5 -24.5t99.5 -69t49.5 -104.5t1.5 -130l-223 -39q10 72 -14.5 115t-83.5 43q-39 0 -65.5 -16.5t-44 -41t-28 -54.5t-16.5 -56l-45 -232h289l-41 -215h-291l-53 -278q-10 -59 6 -100t88 -41 q57 0 97 39.5t57 121.5l215 -37q-27 -154 -120 -242.5t-261 -88.5q-186 0 -259 97t-38 271z" />
<glyph unicode="&#x405;" horiz-adv-x="841" d="M45 258q0 49 12 98l224 23q-10 -41 -11 -74q0 -41 22.5 -72.5t86.5 -31.5q53 0 89 25.5t57.5 66.5t29.5 92t8 104t-28.5 82t-100.5 62q-74 33 -121 67.5t-74.5 71.5t-39 77t-11.5 85q0 115 28 208t82 158.5t132 101.5t180 36q82 0 140.5 -21.5t95.5 -57.5t53 -84t16 -104 q0 -29 -3 -58.5t-13 -57.5l-221 -19q10 45 10 78q0 43 -23.5 76t-86.5 33q-49 0 -81 -27t-50.5 -63.5t-25.5 -77.5t-7 -70q0 -43 31.5 -78t125.5 -76q127 -55 173.5 -118.5t46.5 -155.5q0 -123 -23 -226.5t-75 -180t-135 -119.5t-202 -43q-162 0 -236.5 76.5t-74.5 193.5z " />
<glyph unicode="&#x406;" horiz-adv-x="444" d="M29 0l276 1425h223l-276 -1425h-223z" />
<glyph unicode="&#x407;" horiz-adv-x="444" d="M29 0l276 1425h223l-276 -1425h-223zM168 1530l41 215h192l-43 -215h-190zM504 1530l41 215h192l-41 -215h-192z" />
<glyph unicode="&#x408;" horiz-adv-x="720" d="M-84 154l180 118q16 -35 51 -55t70 -20q63 0 98 34.5t45 87.5l215 1106h222l-215 -1097q-66 -340 -383 -340q-92 0 -165 40t-118 126z" />
<glyph unicode="&#x409;" horiz-adv-x="1275" d="M-80 121q57 31 101.5 70.5t78 97t59 134.5t46.5 183l160 819h596l-107 -546h61q90 0 156 -21.5t108 -60.5t61.5 -93.5t19.5 -117.5q0 -127 -30 -233.5t-88.5 -185.5t-147.5 -123t-208 -44h-323l235 1217h-182l-106 -549q-33 -172 -70 -291t-85 -201t-111.5 -133 t-149.5 -88zM723 209h84q59 0 103 28.5t74 74.5t44 103.5t14 116.5q0 72 -37.5 104t-113.5 32h-78z" />
<glyph unicode="&#x40a;" horiz-adv-x="1273" d="M-2 0l274 1425h222l-111 -569h248l110 569h220l-111 -571h74q90 0 153.5 -21.5t103.5 -60.5t58 -93t18 -118q0 -127 -27.5 -230.5t-85 -177t-145.5 -113.5t-206 -40h-328l123 645h-248l-123 -645h-219zM725 209h84q59 0 103 24.5t72 66.5t41 96.5t13 113.5 q0 72 -36.5 102.5t-112.5 30.5h-80z" />
<glyph unicode="&#x40b;" horiz-adv-x="978" d="M117 0l237 1219h-204l38 206h730l-39 -206h-310l-65 -332h6q57 37 114.5 54t110.5 17q72 0 116 -24.5t65.5 -64.5t23.5 -91t-8 -106l-127 -672h-223l120 623q10 55 -6 93t-82 38q-25 0 -66.5 -15.5t-80.5 -48.5l-133 -690h-217z" />
<glyph unicode="&#x40c;" horiz-adv-x="882" d="M23 0l276 1427h215l-117 -604h52q53 0 108 41t102 156l164 403h209l-170 -426q-41 -104 -100.5 -170.5t-124.5 -89.5q72 -29 103.5 -92t33.5 -170l6 -475h-207l-2 418q2 115 -40 160t-113 45h-60l-120 -623h-215zM539 1577l366 248l99 -154l-406 -201z" />
<glyph unicode="&#x40e;" horiz-adv-x="772" d="M4 -20l35 176h35q61 0 100 32.5t76 104.5l35 72l-105 1058h209l43 -755l10 2l306 755h215l-496 -1106q-53 -117 -101.5 -183t-95.5 -100t-93 -44t-95 -12h-78zM301 1720v19.5t2 19.5h166q0 -63 27.5 -103t83.5 -40q33 0 60.5 13t49 35t34.5 47.5t19 47.5h179 q-14 -53 -42 -105t-71 -93t-102.5 -67t-135.5 -26t-127 22.5t-82.5 57.5t-46 80t-14.5 92z" />
<glyph unicode="&#x40f;" horiz-adv-x="899" d="M25 0l276 1425h221l-235 -1210h225l236 1210h221l-277 -1425h-243l-60 -301h-184l59 301h-239z" />
<glyph unicode="&#x410;" horiz-adv-x="864" d="M-59 0l563 1425h246l14 -1425h-223l2 297h-262l-111 -297h-229zM354 506h195l6 280l16 310h-10l-104 -312z" />
<glyph unicode="&#x411;" horiz-adv-x="843" d="M23 0l276 1425h588l-39 -208h-371q-16 -86 -32.5 -170t-32.5 -170h88q166 0 241.5 -78t75.5 -201q0 -121 -27.5 -228.5t-85 -190.5t-144.5 -131t-206 -48h-331zM283 209h86q119 0 173 89t58 237q0 133 -151 133h-78z" />
<glyph unicode="&#x412;" horiz-adv-x="880" d="M25 0l276 1425h289q160 0 236.5 -72.5t76.5 -215.5q0 -164 -56 -256t-165 -127q0 -4 -1 -5t-1 -6q68 -23 93.5 -77t25.5 -127q0 -264 -119 -401.5t-324 -137.5h-331zM281 205h61q70 0 117 23.5t75.5 63.5t41 95t12.5 121q0 141 -146 141h-73q-23 -113 -44.5 -223.5 t-43.5 -220.5zM408 848h71q98 0 153.5 64.5t55.5 181.5q0 66 -35 94.5t-106 28.5h-66z" />
<glyph unicode="&#x413;" horiz-adv-x="770" d="M25 0l276 1425h617l-41 -208h-396l-235 -1217h-221z" />
<glyph unicode="&#x414;" horiz-adv-x="993" d="M-123 -270l86 452l72 19q37 25 64.5 56.5t48 73.5t37 97t32.5 129q49 217 98.5 434t100.5 434h641l-240 -1222h88l-90 -473h-182l53 270h-575l-54 -270h-180zM274 203h332q49 256 98.5 509t100.5 509h-242l-151 -658q-29 -123 -59.5 -212t-78.5 -148z" />
<glyph unicode="&#x415;" horiz-adv-x="778" d="M25 0l276 1425h633l-41 -208h-412l-75 -388h358l-41 -211h-358l-80 -411h411l-39 -207h-632z" />
<glyph unicode="&#x416;" horiz-adv-x="1339" d="M-55 0l188 475q41 106 97.5 170t140.5 92q-53 23 -88 89.5t-35 170.5l-6 426h200l7 -403q2 -57 15 -95t32.5 -60.5t45 -32t52.5 -9.5h43l119 604h217l-119 -604h45q27 0 54.5 9.5t55 32t54.5 60.5t51 95l164 403h205l-170 -426q-41 -104 -100.5 -170.5t-125.5 -89.5 q72 -29 104 -92t34 -170l6 -475h-211l-2 418q0 115 -39 160t-111 45h-53l-119 -623h-217l119 623h-51q-72 0 -125 -45.5t-100 -159.5l-162 -418h-215z" />
<glyph unicode="&#x417;" horiz-adv-x="782" d="M-8 250q0 18 2 37.5t6 40.5l221 43q-2 -16 -4 -32.5t-2 -31.5q0 -104 88 -104q74 0 131.5 76.5t57.5 242.5q0 55 -26 88t-79 33h-74q8 47 17.5 93t17.5 93h90q78 0 125 78t47 201q0 59 -27.5 85t-78.5 26q-66 0 -106 -47.5t-54 -118.5l-207 47q37 160 144.5 249t259.5 89 q145 0 220 -72t75 -207q0 -49 -9.5 -108.5t-32 -116.5t-60.5 -108.5t-93 -84.5v-6q43 -25 61.5 -72t18.5 -106q0 -135 -31 -240.5t-88 -178t-138 -111.5t-179 -39q-141 0 -217 72.5t-76 189.5z" />
<glyph unicode="&#x418;" horiz-adv-x="948" d="M18 0l275 1425h219l-172 -880q2 0 3 -1t3 -1l467 882h215l-276 -1425h-220q41 219 84 436t86 438h-6l-467 -874h-211z" />
<glyph unicode="&#x419;" horiz-adv-x="948" d="M18 0l275 1425h219l-172 -880q2 0 3 -1t3 -1l467 882h215l-276 -1425h-220q41 219 84 436t86 438h-6l-467 -874h-211zM412 1731v19t2 19h166q0 -63 27.5 -103t82.5 -40q33 0 60.5 13.5t49 35t35 47t19.5 47.5h178q-14 -53 -41.5 -105t-70.5 -93t-102.5 -66.5 t-135.5 -25.5t-127 22.5t-83 57t-46 79.5t-14 93z" />
<glyph unicode="&#x41a;" horiz-adv-x="882" d="M23 0l276 1427h215l-117 -604h52q53 0 108 41t102 156l164 403h209l-170 -426q-41 -104 -100.5 -170.5t-124.5 -89.5q72 -29 103.5 -92t33.5 -170l6 -475h-207l-2 418q2 115 -40 160t-113 45h-60l-120 -623h-215z" />
<glyph unicode="&#x41b;" horiz-adv-x="899" d="M-80 119q57 31 101.5 70.5t79 97t60 135.5t46.5 184l160 819h618l-276 -1425h-215l235 1217h-211l-106 -549q-33 -172 -70 -291t-85 -201t-111.5 -133t-149.5 -88z" />
<glyph unicode="&#x41c;" horiz-adv-x="1173" d="M18 0l277 1425h207l71 -417l60 -301h8l172 309l236 409h219l-277 -1425h-221l160 819h-10l-140 -252l-149 -256h-133l-52 264l-40 246h-9l-159 -821h-220z" />
<glyph unicode="&#x41d;" horiz-adv-x="907" d="M25 0l276 1425h221l-116 -596h253l117 596h219l-276 -1425h-219l118 623h-253l-119 -623h-221z" />
<glyph unicode="&#x41e;" horiz-adv-x="851" d="M49 279q0 27 3 54t7 56l138 711q33 168 120.5 253t247.5 85q156 0 238 -81t82 -216q0 -49 -13 -107l-133 -704q-29 -160 -114.5 -251t-249.5 -91q-170 0 -248 81t-78 210zM268 311q0 -47 27 -77.5t84 -30.5t91 34.5t46 96.5l137 706q6 33 6 66q0 51 -24.5 82t-81.5 35 q-59 0 -91 -35t-44 -92l-142 -717q-4 -16 -6 -33.5t-2 -34.5z" />
<glyph unicode="&#x41f;" horiz-adv-x="880" d="M25 0l276 1425h668l-277 -1425h-221l236 1219h-226l-235 -1219h-221z" />
<glyph unicode="&#x420;" horiz-adv-x="843" d="M25 0l276 1425h305q156 0 238 -69.5t82 -229.5q0 -129 -28 -236.5t-86 -183t-147.5 -117.5t-211.5 -42h-103l-104 -547h-221zM391 758h80q113 0 174.5 78.5t61.5 232.5q0 72 -36 110t-116 38h-74z" />
<glyph unicode="&#x421;" horiz-adv-x="841" d="M70 246q0 25 2 52.5t8 55.5l135 695q14 80 41 150.5t72 123.5t113.5 84t168.5 31q150 0 223.5 -67.5t81.5 -174.5q0 -27 -1 -52.5t-7 -53.5l-221 -37q6 33 6 57q0 55 -26.5 87t-75.5 32q-39 0 -65.5 -16.5t-44 -42t-28 -55.5t-16.5 -56l-141 -729q-4 -23 -5 -45.5t6 -41 t25.5 -29.5t53.5 -11q57 0 107 38t65 134q53 -10 106.5 -20.5t106.5 -20.5q-25 -158 -114 -252t-263 -94q-154 0 -232.5 67.5t-80.5 190.5z" />
<glyph unicode="&#x422;" horiz-adv-x="696" d="M156 0l235 1217h-231l41 208h682l-41 -208h-232l-235 -1217h-219z" />
<glyph unicode="&#x423;" horiz-adv-x="772" d="M4 -20l35 176h35q61 0 100 32.5t76 104.5l35 72l-105 1058h209l43 -755l10 2l306 755h215l-496 -1106q-53 -117 -101.5 -183t-95.5 -100t-93 -44t-95 -12h-78z" />
<glyph unicode="&#x424;" horiz-adv-x="1134" d="M100 442q0 41 11 99l88 446q35 176 151.5 270.5t290.5 96.5l12 71h219l-12 -71q133 -4 214 -83t81 -212q0 -45 -8 -84l-82 -449q-4 -29 -9 -54.5t-14 -51.5q-41 -154 -155.5 -229.5t-268.5 -77.5l-22 -113h-217l22 117q-160 18 -230.5 102t-70.5 223zM309 459 q0 -57 34 -92t97 -39q39 203 78 403.5t80 405.5q-70 -2 -121 -40t-67 -112l-95 -475q-6 -29 -6 -51zM659 328q66 -2 118.5 30.5t68.5 118.5q23 123 47.5 247t46.5 249q4 12 4 22.5v20.5q0 33 -12 56.5t-30.5 37.5t-41 20.5t-43.5 6.5q-39 -205 -79 -406t-79 -403z" />
<glyph unicode="&#x425;" horiz-adv-x="847" d="M-70 0l432 745l-135 680h242l57 -417q66 100 119 205.5t107 211.5h264l-408 -680l152 -745h-242l-69 479h-5q-63 -121 -125.5 -239.5t-128.5 -239.5h-260z" />
<glyph unicode="&#x426;" horiz-adv-x="909" d="M25 0l276 1425h221l-237 -1214h227l236 1214h221l-238 -1214h103l-95 -479h-182l53 268h-585z" />
<glyph unicode="&#x427;" horiz-adv-x="866" d="M161 728q-9 60 9 149l106 548h216l-103 -520q-16 -90 12.5 -118.5t94.5 -28.5q23 0 54.5 6t59.5 18l125 643h217l-276 -1425h-217l112 582q-41 -12 -83 -17.5t-80 -5.5q-70 0 -122.5 16.5t-84 54.5t-40.5 98z" />
<glyph unicode="&#x428;" horiz-adv-x="1275" d="M23 0l276 1425h217l-237 -1214h208l236 1214h217l-238 -1214h209l238 1214h215l-277 -1425h-1064z" />
<glyph unicode="&#x429;" horiz-adv-x="1296" d="M25 0l276 1425h215l-237 -1214h208l238 1214h215l-238 -1214h209l238 1214h217l-238 -1214h93l-93 -481h-182l53 270h-974z" />
<glyph unicode="&#x42a;" horiz-adv-x="1034" d="M154 1217l41 208h507q-29 -137 -54 -274t-52 -274h61q90 0 156 -21.5t108 -60.5t61 -93.5t19 -117.5q0 -125 -28.5 -231.5t-87 -185.5t-146.5 -123t-207 -44h-327l237 1217h-288zM465 209h84q63 0 107 29.5t73 75.5t42 104.5t13 113.5q0 72 -36.5 104t-114.5 32h-78z" />
<glyph unicode="&#x42b;" horiz-adv-x="1226" d="M25 0q4 20 8 38.5t8 39.5q66 338 130.5 673.5t129.5 673.5h219q-27 -137 -52.5 -274t-53.5 -274h63q180 0 262 -83t82 -210q0 -125 -29.5 -231.5t-89 -185.5t-146.5 -123t-204 -44h-327zM285 209h82q63 0 107 29.5t72.5 75.5t42 104.5t13.5 113.5q0 72 -37 104t-112 32 h-80zM815 0l277 1425h221l-277 -1425h-221z" />
<glyph unicode="&#x42c;" horiz-adv-x="813" d="M-6 0q4 20 8 38.5t8 39.5q66 338 130.5 673.5t129.5 673.5h219q-27 -137 -52 -274t-54 -274h63q180 0 262.5 -83t82.5 -210q0 -125 -30 -231.5t-89.5 -185.5t-147.5 -123t-202 -44h-328zM254 209h82q63 0 107 29.5t73 75.5t42 104.5t13 113.5q0 72 -36.5 104t-112.5 32 h-80z" />
<glyph unicode="&#x42d;" horiz-adv-x="798" d="M18 309l218 35q-18 -152 94 -151q74 0 105.5 46t41.5 109l53 270h-282l43 216h282l45 235q10 63 -8 111.5t-92 48.5q-55 0 -95 -37t-52 -113l-213 39q27 150 125 235t256 85q100 0 163.5 -32t97.5 -85t40 -123t-9 -145l-131 -701q-16 -86 -45.5 -153.5t-76 -114.5 t-113 -71.5t-154.5 -24.5q-158 0 -235.5 87t-57.5 234z" />
<glyph unicode="&#x42e;" horiz-adv-x="1222" d="M18 0l277 1425h221l-117 -596h142l45 228q16 82 42.5 150.5t70.5 119.5t109.5 80t158.5 29q90 0 150.5 -29t93 -80t39.5 -121.5t-9 -154.5l-133 -699q-18 -92 -47 -160.5t-74 -113.5t-109.5 -67.5t-152.5 -22.5q-170 0 -239.5 97t-36.5 263l51 275h-142l-118 -623h-222z M657 338q-10 -55 10.5 -99t86.5 -44t96.5 46t42.5 111l141 723q6 29 5 56.5t-12 49t-31.5 35t-55.5 13.5q-37 0 -62.5 -17.5t-42 -43t-25.5 -57.5t-15 -58z" />
<glyph unicode="&#x42f;" horiz-adv-x="878" d="M-16 0l149 453q27 70 66 136t110 95q-63 35 -91 100.5t-28 147.5q0 127 36 220t96.5 153.5t140.5 90t170 29.5h338l-271 -1425h-217l117 608h-57q-55 0 -109.5 -45t-95.5 -160l-133 -403h-221zM406 967q0 -78 44 -116t111 -38h80l78 404h-86q-104 0 -165.5 -63.5 t-61.5 -186.5z" />
<glyph unicode="&#x430;" horiz-adv-x="819" d="M43 182q2 78 15.5 174.5t29.5 186.5q23 113 49.5 203t64.5 151t94 94t136 33q47 0 92 -23.5t64 -66.5q4 0 6 2q4 18 8 37.5t8 38.5h221l-196 -1012h-219l14 78q-2 0 -3 1t-3 1q-78 -92 -184 -92q-84 0 -140.5 43t-56.5 151zM274 295q0 -41 17.5 -70.5t64.5 -29.5 q43 0 73 31.5t46 103.5q16 82 32.5 163.5t31.5 163.5q6 31 6 58.5t-8.5 49t-26.5 34t-51 12.5q-47 0 -74 -39q-29 -47 -45 -111.5t-37 -162.5q-12 -61 -19.5 -112.5t-9.5 -90.5z" />
<glyph unicode="&#x431;" horiz-adv-x="776" d="M49 238q0 63 10.5 149t38.5 225q14 74 25.5 129.5t21 97.5t16.5 73.5t13 60.5q35 145 75 238.5t106.5 148.5t172 79.5t269.5 33.5l6 -185q-102 -6 -172 -20.5t-116 -43t-73.5 -75.5t-48.5 -121q-6 -23 -11 -46.5t-11 -51.5l8 -2q39 27 78 36t71 9q106 0 166 -64.5 t60 -163.5q0 -66 -12.5 -141.5t-24.5 -142.5q-25 -125 -53.5 -215t-72.5 -147.5t-107.5 -85t-157.5 -27.5q-84 0 -138.5 23.5t-85 60t-42 81t-11.5 87.5zM264 291q0 -43 18.5 -70.5t65.5 -27.5q43 0 64.5 24.5t36.5 54.5q10 27 25 83.5t29.5 121t25 125t10.5 94.5 q0 37 -23.5 58.5t-54.5 21.5q-74 0 -107 -74q-10 -18 -23.5 -67t-27.5 -108.5t-25.5 -123t-13.5 -112.5z" />
<glyph unicode="&#x432;" horiz-adv-x="792" d="M45 258q0 29 4 61.5t10 63.5q14 72 29.5 142.5t30.5 142.5q14 70 38.5 134t67.5 114.5t105.5 80t154.5 29.5q86 0 141.5 -21.5t87 -54t44 -73.5t12.5 -80q0 -70 -35 -139.5t-112 -98.5v-4q37 -14 59.5 -35.5t32.5 -47.5t13 -55.5t3 -60.5q0 -47 -16.5 -110.5 t-59.5 -120.5t-118.5 -97t-196.5 -40q-141 0 -214 60.5t-79 172.5q0 10 -1 18.5t-1 18.5zM263 318.5q-5 -33.5 1 -62.5t28.5 -47.5t69.5 -18.5q43 0 72 18.5t45.5 46.5t22.5 60.5t6 59.5q0 43 -24.5 68.5t-80.5 25.5h-30q8 41 15 82t18 82h34q59 0 89 31.5t34 74.5 q4 45 -22.5 67.5t-69.5 22.5q-68 0 -98.5 -54t-44.5 -128l-54 -264q-6 -31 -11 -64.5z" />
<glyph unicode="&#x433;" horiz-adv-x="743" d="M33 221q0 86 23.5 147.5t68.5 107.5t111.5 80t152.5 60q84 29 111.5 62t27.5 76q0 27 -16 49t-61 22q-41 0 -71 -28.5t-40 -75.5l-207 43q31 123 110 193.5t230 70.5q135 0 206 -65.5t71 -167.5q0 -74 -24 -128.5t-70 -97.5t-112.5 -75.5t-154.5 -63.5 q-70 -23 -103.5 -57.5t-33.5 -106.5q0 -35 20.5 -56.5t63.5 -21.5t75.5 29t45.5 78l205 -47q-66 -260 -347 -260q-150 0 -216 65.5t-66 167.5z" />
<glyph unicode="&#x434;" horiz-adv-x="780" d="M35 231q0 63 11 143.5t29.5 159t40 149.5t40.5 116q41 92 101.5 136t152.5 44q29 0 79 -13.5t86 -54.5h7q10 49 15 97.5t5 81.5t-6 64.5t-25.5 57t-56.5 41t-98 15.5h-39t-45 -4l-2 176q43 10 82 12t73 2q92 0 154.5 -24.5t99.5 -69.5t53.5 -106.5t16.5 -137.5 q0 -78 -20.5 -234.5t-73.5 -412.5q-23 -109 -50.5 -197t-72.5 -152.5t-109.5 -99t-156.5 -34.5q-88 0 -144.5 23.5t-89.5 59t-45 78.5t-12 84zM252 297q0 -45 18.5 -74.5t65.5 -29.5q41 0 65.5 25.5t40.5 66.5q12 29 26.5 86t27 119.5t21.5 120t9 85.5q0 37 -26.5 57.5 t-57.5 20.5q-35 0 -58.5 -15.5t-41.5 -51.5q-8 -16 -22.5 -61.5t-29 -104t-25.5 -123t-13 -121.5z" />
<glyph unicode="&#x435;" horiz-adv-x="784" d="M49 281q0 55 7 112.5t18 110.5q18 96 42.5 190t67.5 168t113 120t176 46q133 0 209 -63.5t76 -173.5q0 -100 -33 -172t-88 -118t-128 -67.5t-153 -21.5q-37 0 -75 6q-6 -31 -11.5 -68t-5.5 -63q0 -41 16.5 -67.5t59.5 -26.5q90 0 113 112l225 -29q-16 -63 -42 -116.5 t-68 -91t-101 -59t-141 -21.5q-84 0 -137.5 23.5t-84 64.5t-43 93t-12.5 112zM313 596q16 -2 29.5 -3t30.5 -1q70 4 119 40t49 120q0 33 -20.5 54t-57.5 21q-59 0 -93 -55t-57 -176z" />
<glyph unicode="&#x436;" horiz-adv-x="1679" d="M23 229v19.5t2 19.5q53 6 105 14.5t103 16.5q-2 -8 -2 -15.5v-13.5q0 -41 19.5 -60.5t48.5 -19.5q41 0 62.5 18.5t31.5 49.5q8 27 18.5 72t20.5 97t19.5 105.5t17.5 98.5t12 76.5t4 40.5q0 78 -69 77q-29 0 -57.5 -23.5t-41.5 -76.5q-49 10 -99 20.5t-99 22.5 q29 115 103.5 187.5t209.5 72.5q72 0 120 -19.5t77.5 -52t42 -76.5t12.5 -94q0 -59 -16 -153q4 0 5 -1t5 -1q49 86 94 182t94 199h160q-25 -143 -50.5 -285.5t-51.5 -286.5h8q31 59 55.5 110.5t50 101.5t53 103.5t62.5 114.5q37 66 100.5 111t171.5 45q117 0 184.5 -59.5 t67.5 -169.5v-22.5t-2 -24.5l-200 -33v18q0 47 -22.5 68.5t-51.5 21.5q-43 0 -64.5 -27.5t-31.5 -56.5q-6 -23 -22.5 -85t-33 -137t-29 -147.5t-12.5 -111.5q0 -37 22.5 -55.5t53.5 -18.5q35 0 63.5 31t43.5 84l198 -37q-27 -123 -105.5 -199.5t-217.5 -76.5 q-72 0 -121 18.5t-79 50t-42 76.5t-12 98q0 23 3 60t9 74h-6q-55 -98 -96 -181.5t-88 -183.5h-166l114 573h-6q-27 -53 -47 -93t-38.5 -73.5t-37 -66.5t-41.5 -70q-23 -55 -48 -106t-62 -90t-90.5 -62.5t-128.5 -23.5q-135 0 -197.5 62.5t-62.5 178.5z" />
<glyph unicode="&#x437;" horiz-adv-x="733" d="M2 231v29l223 31q-2 -10 -2 -19.5v-17.5q0 -82 78 -82q45 0 87 45t42 141q0 33 -16.5 57.5t-51.5 24.5h-90q10 41 17.5 83t15.5 83h96q43 0 76 39t33 115q0 31 -15.5 53.5t-56.5 22.5q-102 0 -131 -115l-201 39q35 125 122 194.5t235 69.5q141 0 206.5 -63.5t65.5 -192.5 q-4 -31 -12 -67.5t-25.5 -71.5t-46 -63.5t-69.5 -43.5v-4q41 -18 57 -52t16 -81q0 -111 -32.5 -185.5t-87 -121.5t-123 -67.5t-140.5 -20.5q-135 0 -202.5 64.5t-67.5 176.5z" />
<glyph unicode="&#x438;" horiz-adv-x="800" d="M46 132q-3 42 1 87q0 10 14.5 86t36 189.5t48 250t51.5 269.5h221q-23 -115 -47.5 -239t-44 -228.5t-32.5 -175t-13 -78.5q-4 -37 13 -63.5t64 -26.5q49 0 82 40t43 95l131 676h222l-197 -1014h-223l22 98h-8q-45 -57 -100.5 -83.5t-106.5 -26.5q-61 0 -99 19.5t-56.5 51 t-21.5 73.5z" />
<glyph unicode="&#x439;" horiz-adv-x="800" d="M46 132q-3 42 1 87q0 10 14.5 86t36 189.5t48 250t51.5 269.5h221q-23 -115 -47.5 -239t-44 -228.5t-32.5 -175t-13 -78.5q-4 -37 13 -63.5t64 -26.5q49 0 82 40t43 95l131 676h222l-197 -1014h-223l22 98h-8q-45 -57 -100.5 -83.5t-106.5 -26.5q-61 0 -99 19.5t-56.5 51 t-21.5 73.5zM297 1384v19.5t2 19.5h166q0 -63 27.5 -103t82.5 -40q33 0 61 13.5t49.5 35t34.5 47t19 47.5h179q-14 -53 -42 -105t-71 -93t-102.5 -66.5t-135.5 -25.5t-127 22.5t-82.5 57t-46 79.5t-14.5 92z" />
<glyph unicode="&#x43a;" horiz-adv-x="790" d="M-4 0l194 1012h218l-80 -412h45q23 0 44 4t42.5 19.5t43 45t42.5 79.5l110 264h209l-123 -293q-35 -76 -81 -125t-101 -66q63 -18 87 -72.5t28 -129.5l14 -326h-205l-6 258q0 51 -9 82t-24.5 47t-39 22.5t-52.5 6.5h-61l-80 -416h-215z" />
<glyph unicode="&#x43b;" horiz-adv-x="815" d="M-55 135q45 23 79.5 47.5t60.5 58t44 80t31 111.5l108 582h568l-191 -1014h-217l154 815h-156l-76 -407q-20 -106 -52 -181t-75 -126.5t-98 -83t-123 -52.5z" />
<glyph unicode="&#x43c;" horiz-adv-x="1056" d="M4 0l197 1014h200l91 -355l38 -147h7l133 201l207 301h208l-196 -1014h-225l104 528h-6l-78 -118l-131 -195h-131l-57 203l-29 110h-6l-103 -528h-223z" />
<glyph unicode="&#x43d;" horiz-adv-x="817" d="M6 0l197 1014h225l-80 -410h193l80 410h223l-197 -1014h-223l82 428h-193l-82 -428h-225z" />
<glyph unicode="&#x43e;" horiz-adv-x="782" d="M55 279q6 104 29 219q23 113 47.5 211t58.5 159q45 78 122 119t171 41q74 0 127.5 -20.5t88 -55t51 -79t16.5 -91.5q0 -31 -4 -71.5t-10.5 -84.5t-13.5 -87t-13 -78q-25 -125 -53.5 -215t-73.5 -147.5t-109.5 -85t-158.5 -27.5q-86 0 -140.5 27.5t-84 69.5t-40 94 t-10.5 102zM272 281q0 -37 20.5 -62.5t63.5 -25.5q35 0 59.5 19t37.5 48q8 18 24.5 83t31.5 140.5t27.5 145t12.5 98.5q0 41 -18.5 69.5t-57.5 28.5q-37 0 -62.5 -16t-43.5 -59t-48 -175q-4 -23 -10 -51t-12 -59t-12 -60.5t-9 -52.5q-2 -20 -3 -37.5t-1 -33.5z" />
<glyph unicode="&#x43f;" horiz-adv-x="798" d="M-2 0q47 256 96 506t99 506h221l-21 -99h8q43 57 98.5 84t108.5 27q104 0 143.5 -53t39.5 -129q0 -33 -13 -90q-4 -16 -13 -68.5t-23.5 -124.5t-30 -156t-30.5 -162.5t-27.5 -143t-18.5 -97.5h-221q23 119 42 217t36.5 181t31 153t23.5 129q4 20 5 31.5t1 21.5 q0 35 -19.5 56.5t-60.5 21.5q-55 0 -86 -40t-41 -95l-129 -676h-219z" />
<glyph unicode="&#x440;" horiz-adv-x="792" d="M-92 -395l274 1409h219l-14 -76l6 -4q39 51 85 71.5t106 20.5q41 0 76.5 -10t61.5 -34t40 -63.5t14 -99.5q0 -20 -4 -65t-12 -104.5t-19.5 -127t-26 -133t-30.5 -124t-35 -97.5q-16 -35 -37.5 -67.5t-51.5 -57.5t-72 -40t-97 -15q-43 0 -92 18.5t-72 56.5h-8l-90 -458 h-221zM268 279q4 -35 22.5 -54.5t53.5 -19.5q41 0 67.5 20.5t43.5 59.5q12 35 27.5 104.5t29.5 145.5q29 143 29 196q0 35 -19.5 57.5t-62.5 22.5q-55 0 -83 -43t-40 -104l-27 -142l-35 -172q-6 -43 -6 -71z" />
<glyph unicode="&#x441;" horiz-adv-x="737" d="M47 203q-2 25 1 59.5t8 74.5t11.5 82t12.5 81q8 49 18.5 99t22.5 97t25.5 87t29.5 69q41 78 112.5 127t194.5 49q70 0 125.5 -20.5t92 -60.5t51 -97t0.5 -131l-228 -27q16 72 -4 101.5t-59 29.5q-35 0 -55.5 -17.5t-34.5 -43.5q-16 -29 -32.5 -100.5t-39.5 -176.5 q-14 -78 -24.5 -137t-8.5 -90q4 -33 22.5 -49t55.5 -16q86 0 111 126l217 -32q-31 -141 -114.5 -220t-235.5 -79q-74 0 -125.5 18.5t-84 48t-48 68.5t-17.5 80z" />
<glyph unicode="&#x442;" horiz-adv-x="1222" d="M10 0l197 1014h221l-18 -92l8 -2q41 45 91 74.5t107 29.5q84 0 122 -33t50 -86q53 53 116 86t124 33q57 0 93 -17.5t55.5 -46t24.5 -68.5t1 -85q0 -10 -13 -83t-34.5 -186.5t-49.5 -254t-54 -283.5h-224q23 119 47.5 243t44 228t33 174t13.5 78q10 86 -70 86 q-39 0 -73 -26.5t-46 -75.5l-135 -707h-223q25 119 49.5 245t43.5 229.5t32.5 172t13.5 74.5q6 88 -72 88q-41 0 -75.5 -32t-44.5 -87l-134 -690h-221z" />
<glyph unicode="&#x443;" horiz-adv-x="737" d="M-115 -219q53 6 93 20.5t72 40t58.5 64.5t57.5 98l-60 1008h230v-379q0 -33 -1 -77t-3 -92t-6 -94t-9 -83h9q33 70 66.5 155.5t67.5 180t65.5 193.5t60.5 196h233q-109 -309 -224.5 -580.5t-236.5 -505.5q-41 -76 -85 -137t-99 -105t-126 -69t-161 -27z" />
<glyph unicode="&#x444;" horiz-adv-x="1054" d="M59 270q0 53 8.5 110.5t18.5 117.5q23 119 54.5 220t76.5 154q47 70 129 110t195 42q18 98 37.5 195.5t39.5 195.5h209q-18 -98 -37.5 -195.5t-39.5 -195.5q76 -8 129 -31.5t86.5 -57.5t49 -78t15.5 -91q0 -55 -10 -128t-25 -149q-10 -59 -22 -115.5t-27 -101.5 q-43 -143 -140 -207.5t-255 -76.5l-72 -379h-213l72 377q-147 18 -213 91t-66 193zM274 297q0 -43 28 -69.5t77 -37.5l123 629q-53 0 -86 -25.5t-52.5 -62.5t-28.5 -78t-16 -67q-6 -31 -14 -69t-15 -78t-11.5 -76.5t-4.5 -65.5zM588 190q102 4 137 78q14 29 28.5 88.5 t28.5 130.5q16 76 25.5 139.5t9.5 102.5q0 37 -22.5 62.5t-83.5 29.5z" />
<glyph unicode="&#x445;" horiz-adv-x="759" d="M-74 0l346 516q-35 125 -69.5 248t-69.5 248h242l55 -305h4l168 305h256l-336 -496l152 -516h-242l-55 322l-195 -322h-256z" />
<glyph unicode="&#x446;" horiz-adv-x="854" d="M47 219q0 10 13.5 86t35 189.5t48 250t51.5 267.5h223q-23 -115 -47.5 -238t-45 -227.5t-33.5 -175t-13 -78.5q-4 -39 13 -65.5t64 -26.5q51 0 84 40t43 95l131 676h220l-129 -660q-16 -90 1 -148.5t82 -82.5l-81 -377h-179l52 254q-39 8 -65 42t-30 71h-8 q-57 -74 -129 -98.5t-117 -24.5q-61 0 -100 19.5t-58.5 51t-24.5 73.5t-1 87z" />
<glyph unicode="&#x447;" horiz-adv-x="772" d="M94 598l82 416h219l-71 -359q-20 -100 67 -100q49 0 111 33l84 426h217l-199 -1014h-217l80 412h-2q-115 -49 -203 -50q-100 0 -145 58.5t-23 177.5z" />
<glyph unicode="&#x448;" horiz-adv-x="1204" d="M47 120q-6 40 0 87q0 8 13.5 81.5t35 187.5t48 254t55.5 284h221q-23 -119 -47.5 -244t-45 -228.5t-32.5 -173t-12 -77.5q-10 -86 69 -86q41 0 74 26.5t45 75.5l135 707h223q-25 -121 -49 -247t-43.5 -229.5t-33 -172t-13.5 -74.5q-6 -86 72 -86q41 0 75.5 31.5 t45.5 87.5l133 690h221l-197 -1014h-221l19 92h-9q-41 -45 -89 -74.5t-105 -29.5q-80 0 -122 32.5t-54 88.5q-53 -53 -114 -87t-120 -34t-96 17.5t-56.5 46t-25.5 68.5z" />
<glyph unicode="&#x449;" horiz-adv-x="1257" d="M45 205q0 8 13.5 81.5t35 187.5t48 254t55.5 284h223q-23 -119 -47.5 -243t-45 -228.5t-33.5 -174t-13 -77.5q-6 -86 71 -86q39 0 73 26.5t46 75.5l135 707h221q-23 -121 -47 -246t-44.5 -228.5t-33 -172t-12.5 -74.5q-10 -88 72 -88q41 0 75.5 31.5t45.5 87.5l133 690 h221l-129 -662q-16 -90 2 -147.5t84 -81.5l-84 -377h-176l49 250q-39 10 -64.5 43t-29.5 69h-10q-59 -68 -124 -93t-116 -25q-80 0 -124 32.5t-56 85.5q-53 -53 -113.5 -85.5t-120.5 -32.5q-59 0 -96 17.5t-57.5 46t-25.5 68.5t-1 85z" />
<glyph unicode="&#x44a;" horiz-adv-x="942" d="M61 825l35 189h467l-71 -377h120q141 0 212 -76t71 -196q0 -53 -17.5 -118t-63.5 -123t-124 -97t-196 -39q-166 4 -240 105.5t-39 281.5l84 450h-238zM432 336q-10 -66 12.5 -104.5t81.5 -38.5q72 0 106 48t34 113q0 49 -34 76t-95 27h-82z" />
<glyph unicode="&#x44b;" horiz-adv-x="1159" d="M57 375l121 639h230l-74 -377h123q141 0 210.5 -76t69.5 -196q0 -53 -17.5 -118t-62.5 -123t-122.5 -97t-196.5 -39q-168 4 -240.5 105.5t-40.5 281.5zM276 336q-10 -66 12.5 -104.5t82.5 -38.5q70 0 104.5 48t34.5 113q0 49 -35 76t-96 27h-80zM758 0l196 1014h226 l-197 -1014h-225z" />
<glyph unicode="&#x44c;" horiz-adv-x="800" d="M72 375l121 639h229l-74 -377h123q141 0 211 -76t70 -196q0 -53 -17.5 -118t-62.5 -123t-123 -97t-197 -39q-168 4 -241.5 105.5t-38.5 281.5zM291 336q-10 -66 12.5 -104.5t81.5 -38.5q70 0 104.5 48t34.5 113q0 49 -34.5 76t-96.5 27h-80z" />
<glyph unicode="&#x44d;" horiz-adv-x="757" d="M29 242v22q57 6 112.5 14.5t112.5 14.5v-19q0 -84 72 -84q47 0 71.5 28t34.5 65q8 23 17.5 61.5t15.5 77.5h-248l35 180h246q18 94 18 141q0 80 -72 80q-37 0 -65.5 -26.5t-40.5 -79.5q-55 8 -109.5 15t-109.5 13q31 135 113.5 209t230.5 74q76 0 127 -18.5t83 -50 t46 -73.5t14 -89q0 -59 -9 -140.5t-24 -158.5q-14 -78 -31.5 -159t-39.5 -140q-31 -90 -105.5 -150.5t-214.5 -60.5q-137 0 -208.5 70.5t-71.5 183.5z" />
<glyph unicode="&#x44e;" horiz-adv-x="1101" d="M-2 0q47 256 96 506t99 506h223l-80 -408h110q16 80 36 148.5t46 115.5q45 78 119 119t166 41q72 0 123 -20.5t85 -55t50 -79t16 -89.5q0 -37 -3 -77.5t-9 -83.5t-13 -85t-13 -77q-25 -127 -54.5 -217t-73.5 -147.5t-108.5 -84t-159.5 -26.5q-70 0 -119 24.5t-79.5 61.5 t-45 81t-14.5 85t4 90t13 100h-111q-23 -109 -42 -215.5t-40 -212.5h-221zM608 276q0 -37 17.5 -58t58.5 -21q47 0 68.5 23.5t31.5 51.5q10 29 26.5 93.5t31 138.5t25 141.5t10.5 102.5q0 37 -21.5 57t-52.5 20q-35 0 -59.5 -16t-43.5 -59q-6 -16 -17 -57.5t-23.5 -96.5 t-24.5 -118.5t-21 -125.5q-6 -43 -6 -76z" />
<glyph unicode="&#x44f;" horiz-adv-x="776" d="M-23 0l117 311q18 49 45 92t80 66q-57 31 -78.5 83t-21.5 112q0 90 29.5 155.5t82 108.5t122 64.5t149.5 21.5h311l-190 -1014h-220l80 408h-53q-45 0 -81 -33t-73 -131l-88 -244h-211zM332 678q0 -90 112 -90h74l45 233h-76q-68 0 -111.5 -38t-43.5 -105z" />
<glyph unicode="&#x451;" horiz-adv-x="784" d="M49 281q0 55 7 112.5t18 110.5q18 96 42.5 190t67.5 168t113 120t176 46q133 0 209 -63.5t76 -173.5q0 -100 -33 -172t-88 -118t-128 -67.5t-153 -21.5q-37 0 -75 6q-6 -31 -11.5 -68t-5.5 -63q0 -41 16.5 -67.5t59.5 -26.5q90 0 113 112l225 -29q-16 -63 -42 -116.5 t-68 -91t-101 -59t-141 -21.5q-84 0 -137.5 23.5t-84 64.5t-43 93t-12.5 112zM279 1178l40 215h193l-43 -215h-190zM313 596q16 -2 29.5 -3t30.5 -1q70 4 119 40t49 120q0 33 -20.5 54t-57.5 21q-59 0 -93 -55t-57 -176zM614 1178l41 215h193l-41 -215h-193z" />
<glyph unicode="&#x452;" horiz-adv-x="804" d="M6 0l225 1159h-88l27 141h88l37 187h219l-37 -187h254l-26 -141h-256l-50 -252q4 0 4 -1t3 -1q35 41 95.5 73t119.5 32q78 0 121.5 -37t48.5 -115q2 -27 -3.5 -73t-14.5 -105t-22.5 -131t-27.5 -148q-20 -111 -38.5 -201.5t-58.5 -154t-115 -95.5t-210 -22l35 178 q31 -4 51.5 4.5t33.5 20.5t19 27.5t11 25.5q6 20 20 76.5t27 122.5q18 100 32.5 184t22.5 142q6 43 -17.5 64.5t-58.5 21.5q-31 0 -53.5 -14.5t-37.5 -36t-24.5 -50t-15.5 -55.5l-123 -639h-217z" />
<glyph unicode="&#x453;" horiz-adv-x="743" d="M33 221q0 86 23.5 147.5t68.5 107.5t111.5 80t152.5 60q84 29 111.5 62t27.5 76q0 27 -16 49t-61 22q-41 0 -71 -28.5t-40 -75.5l-207 43q31 123 110 193.5t230 70.5q135 0 206 -65.5t71 -167.5q0 -74 -24 -128.5t-70 -97.5t-112.5 -75.5t-154.5 -63.5 q-70 -23 -103.5 -57.5t-33.5 -106.5q0 -35 20.5 -56.5t63.5 -21.5t75.5 29t45.5 78l205 -47q-66 -260 -347 -260q-150 0 -216 65.5t-66 167.5zM385 1176l244 362l168 -82l-303 -344z" />
<glyph unicode="&#x454;" horiz-adv-x="757" d="M59 217q0 49 9.5 113.5t29.5 185.5q10 49 20.5 102.5t24.5 110.5q18 61 43 116.5t65 95.5t100.5 63.5t146.5 23.5q129 0 202.5 -64.5t73.5 -177.5q0 -10 -1 -22t-3 -25l-221 -24q2 8 2 15v13q0 78 -76 78q-41 0 -67.5 -24.5t-36.5 -65.5q-8 -29 -16.5 -61.5t-16.5 -71.5 h244l-33 -178h-246q-8 -45 -13 -73t-7 -44t-3 -23.5t-1 -13.5q0 -31 16 -51t59 -20q82 0 111 100l217 -31q-35 -137 -122 -206.5t-241 -69.5q-135 0 -195.5 67.5t-64.5 161.5z" />
<glyph unicode="&#x455;" horiz-adv-x="743" d="M29 209q0 33 6 67l217 29q-6 -25 -6 -41q0 -33 19.5 -53.5t62.5 -20.5q66 0 94.5 44.5t28.5 101.5q0 37 -20.5 57.5t-65.5 36.5q-55 20 -99.5 43t-76 50.5t-48 65.5t-16.5 91q0 76 24.5 139.5t70.5 109.5t112.5 72.5t152.5 26.5q141 0 205 -59.5t64 -157.5 q0 -18 -2 -36.5t-7 -39.5l-219 -26q6 20 6 36q0 31 -19 54.5t-62 23.5q-35 0 -56.5 -13t-33 -31.5t-15.5 -39t-4 -34.5q0 -27 20.5 -46.5t73.5 -40.5q57 -20 100.5 -41.5t73 -51t45 -68.5t15.5 -95q0 -78 -21.5 -146.5t-66.5 -118.5t-116 -79.5t-169 -29.5q-133 0 -200.5 58 t-67.5 163z" />
<glyph unicode="&#x456;" horiz-adv-x="407" d="M10 0l197 1012h221l-197 -1012h-221zM244 1210l43 215h221l-41 -215h-223z" />
<glyph unicode="&#x457;" horiz-adv-x="417" d="M10 0l197 1012h221l-197 -1012h-221zM90 1163l41 215h193l-43 -215h-191zM426 1163l41 215h192l-41 -215h-192z" />
<glyph unicode="&#x458;" horiz-adv-x="411" d="M-197 -397l39 209q10 -2 31 -2q37 0 59.5 11t36 32.5t21.5 51t16 64.5l205 1045h223l-219 -1114q-14 -68 -39.5 -124.5t-65.5 -96t-96.5 -61t-132.5 -21.5q-41 0 -78 6zM248 1210l43 215h223l-43 -215h-223z" />
<glyph unicode="&#x459;" horiz-adv-x="1208" d="M-51 135q45 23 79.5 47.5t60.5 58t44.5 80t30.5 111.5l108 582h566l-74 -377h123q141 0 210.5 -76t69.5 -196q0 -53 -17 -118t-62.5 -123t-123 -97t-196.5 -39q-168 4 -240.5 105.5t-40.5 281.5l84 440h-139l-78 -407q-20 -106 -51 -181t-74 -126.5t-99 -83t-124 -52.5z M707 336q-10 -66 12 -104.5t82 -38.5q70 0 104.5 48t34.5 113q0 49 -35 76t-96 27h-80z" />
<glyph unicode="&#x45a;" horiz-adv-x="1214" d="M4 0l197 1014h223l-72 -377h183l71 377h230l-74 -377h123q141 0 210.5 -76t69.5 -196q0 -53 -17.5 -118t-62.5 -123t-122.5 -97t-196.5 -39q-168 4 -241.5 105.5t-39.5 281.5l15 82h-187l-86 -457h-223zM705 336q-10 -66 12 -104.5t82 -38.5q70 0 104.5 48t34.5 113 q0 49 -35 76t-96 27h-80z" />
<glyph unicode="&#x45b;" horiz-adv-x="800" d="M0 0l221 1141h-94l27 141h94l41 205h221l-41 -205h231l-28 -141h-232l-45 -226l8 -2q45 57 100.5 84t106.5 27q61 0 99.5 -19.5t56.5 -52t21.5 -73.5t-1.5 -86q0 -10 -14 -86t-35.5 -190t-47 -250t-50.5 -267h-223q23 115 47 237.5t43.5 227t33 175.5t13.5 79 q4 39 -13.5 65.5t-62.5 26.5q-55 0 -86 -40t-41 -95l-131 -676h-219z" />
<glyph unicode="&#x45c;" horiz-adv-x="790" d="M-4 0l194 1012h218l-80 -412h45q23 0 44 4t42.5 19.5t43 45t42.5 79.5l110 264h209l-123 -293q-35 -76 -81 -125t-101 -66q63 -18 87 -72.5t28 -129.5l14 -326h-205l-6 258q0 51 -9 82t-24.5 47t-39 22.5t-52.5 6.5h-61l-80 -416h-215zM414 1176l243 362l168 -82 l-303 -344z" />
<glyph unicode="&#x45e;" horiz-adv-x="737" d="M-115 -219q53 6 93 20.5t72 40t58.5 64.5t57.5 98l-60 1008h230v-379q0 -33 -1 -77t-3 -92t-6 -94t-9 -83h9q33 70 66.5 155.5t67.5 180t65.5 193.5t60.5 196h233q-109 -309 -224.5 -580.5t-236.5 -505.5q-41 -76 -85 -137t-99 -105t-126 -69t-161 -27zM229 1384v19.5 t2 19.5h166q0 -63 28 -103t83 -40q33 0 60.5 13.5t49 35t35 47t19.5 47.5h178q-14 -53 -42 -105t-71 -93t-102.5 -66.5t-134.5 -25.5q-76 0 -127 22.5t-83 57t-46.5 79.5t-14.5 92z" />
<glyph unicode="&#x45f;" horiz-adv-x="800" d="M46 132q-3 42 1 87q0 10 14.5 86t36 189.5t48 250t51.5 269.5h221q-23 -115 -47.5 -239t-44 -228.5t-32.5 -175t-13 -78.5q-4 -37 13 -63.5t64 -26.5q49 0 82 40t43 95l131 676h222l-197 -1014h-223l22 98h-8q-45 -57 -100.5 -83.5t-106.5 -26.5q-61 0 -99 19.5t-56.5 51 t-21.5 73.5zM174 -367l74 289l188 33q-4 -12 -17 -59.5t-28.5 -101.5t-30 -101t-16.5 -60h-170z" />
<glyph unicode="&#x490;" horiz-adv-x="770" d="M27 0l276 1425h430l55 244h183l-99 -452h-393l-235 -1217h-217z" />
<glyph unicode="&#x491;" horiz-adv-x="694" d="M6 0l197 1012h389l49 248h180l-92 -445h-346q-39 -205 -78 -407.5t-80 -407.5h-219z" />
<glyph unicode="&#x4d9;" horiz-adv-x="784" d="M51 225q0 100 33 172t88 117t128 66.5t153 21.5q18 0 35.5 -1t37.5 -3q8 31 13.5 66.5t5.5 64.5q0 41 -17.5 67.5t-58.5 26.5q-92 0 -115 -112l-223 26q14 63 41 116.5t69 92.5t101 60.5t139 21.5q82 0 135.5 -23.5t84 -64.5t43 -94t12.5 -113q0 -55 -6.5 -111.5 t-16.5 -109.5q-18 -96 -41.5 -190.5t-67.5 -168t-114 -119.5t-176 -46q-133 0 -208 63.5t-75 173.5zM266 262q0 -31 21.5 -52.5t58.5 -21.5q59 0 93 55.5t57 176.5q-10 2 -21.5 3t-21.5 1q-74 0 -130.5 -37t-56.5 -125z" />
<glyph unicode="&#x1e80;" horiz-adv-x="1251" d="M162 0l74 1425h233q-2 -27 -8 -98.5t-15.5 -167.5t-18.5 -201.5t-18.5 -199.5t-15.5 -163t-8 -87h10l117 328l215 589h186l-16 -589l-14 -334h10l98 336l172 587h246q-123 -358 -241.5 -712.5t-239.5 -712.5h-226l9 618l6 242h-8q-23 -61 -45.5 -122.5t-45.5 -123.5 q-59 -154 -116.5 -307t-114.5 -307h-225zM496 1731l112 157l310 -243l-70 -109z" />
<glyph unicode="&#x1e81;" horiz-adv-x="1202" d="M109 1012h241q-4 -104 -7 -207t-7 -207q-2 -35 -3 -65.5t-2 -64.5t-4 -71t-8 -84h11q66 158 131 341.5t117 357.5h235l-20 -363q-4 -100 -9.5 -180t-15.5 -156h10q68 170 127.5 334t122.5 365h244q-90 -272 -193.5 -515t-232.5 -497h-246l6 238q6 96 8 188t13 190h-11 q-33 -104 -64.5 -196t-70.5 -187q-25 -57 -48 -115.5t-50 -117.5h-248q-8 256 -14 506t-12 506zM432 1468l166 97l178 -396l-104 -61z" />
<glyph unicode="&#x1e82;" horiz-adv-x="1251" d="M162 0l74 1425h233q-2 -27 -8 -98.5t-15.5 -167.5t-18.5 -201.5t-18.5 -199.5t-15.5 -163t-8 -87h10l117 328l215 589h186l-16 -589l-14 -334h10l98 336l172 587h246q-123 -358 -241.5 -712.5t-239.5 -712.5h-226l9 618l6 242h-8q-23 -61 -45.5 -122.5t-45.5 -123.5 q-59 -154 -116.5 -307t-114.5 -307h-225zM772 1577l367 248l98 -154l-406 -201z" />
<glyph unicode="&#x1e83;" horiz-adv-x="1202" d="M109 1012h241q-4 -104 -7 -207t-7 -207q-2 -35 -3 -65.5t-2 -64.5t-4 -71t-8 -84h11q66 158 131 341.5t117 357.5h235l-20 -363q-4 -100 -9.5 -180t-15.5 -156h10q68 170 127.5 334t122.5 365h244q-90 -272 -193.5 -515t-232.5 -497h-246l6 238q6 96 8 188t13 190h-11 q-33 -104 -64.5 -196t-70.5 -187q-25 -57 -48 -115.5t-50 -117.5h-248q-8 256 -14 506t-12 506zM676 1176l244 362l167 -82l-303 -344z" />
<glyph unicode="&#x1e84;" horiz-adv-x="1251" d="M162 0l74 1425h233q-2 -27 -8 -98.5t-15.5 -167.5t-18.5 -201.5t-18.5 -199.5t-15.5 -163t-8 -87h10l117 328l215 589h186l-16 -589l-14 -334h10l98 336l172 587h246q-123 -358 -241.5 -712.5t-239.5 -712.5h-226l9 618l6 242h-8q-23 -61 -45.5 -122.5t-45.5 -123.5 q-59 -154 -116.5 -307t-114.5 -307h-225zM569 1509l41 217h193l-41 -217h-193zM907 1509l41 217h191l-41 -217h-191z" />
<glyph unicode="&#x1e85;" horiz-adv-x="1202" d="M109 1012h241q-4 -104 -7 -207t-7 -207q-2 -35 -3 -65.5t-2 -64.5t-4 -71t-8 -84h11q66 158 131 341.5t117 357.5h235l-20 -363q-4 -100 -9.5 -180t-15.5 -156h10q68 170 127.5 334t122.5 365h244q-90 -272 -193.5 -515t-232.5 -497h-246l6 238q6 96 8 188t13 190h-11 q-33 -104 -64.5 -196t-70.5 -187q-25 -57 -48 -115.5t-50 -117.5h-248q-8 256 -14 506t-12 506zM449 1163l40 215h193l-43 -215h-190zM784 1163l41 215h193l-41 -215h-193z" />
<glyph unicode="&#x1ef2;" horiz-adv-x="808" d="M211 0l115 582q-29 211 -57.5 421.5t-57.5 421.5h227q10 -111 18.5 -191.5t12.5 -146.5q6 -66 7 -126t3 -113h13q63 145 127.5 288.5t128.5 288.5h239l-442 -843l-113 -582h-221zM260 1669l113 158l309 -244l-70 -108z" />
<glyph unicode="&#x1ef3;" horiz-adv-x="737" d="M-115 -219q53 6 93 20.5t72 40t58.5 64.5t57.5 98l-60 1008h230v-379q0 -33 -1 -77t-3 -92t-6 -94t-9 -83h9q33 70 66.5 155.5t67.5 180t65.5 193.5t60.5 196h233q-109 -309 -224.5 -580.5t-236.5 -505.5q-41 -76 -85 -137t-99 -105t-126 -69t-161 -27zM197 1468l165 97 l179 -396l-105 -61z" />
<glyph unicode="&#x2000;" horiz-adv-x="944" />
<glyph unicode="&#x2001;" horiz-adv-x="1888" />
<glyph unicode="&#x2002;" horiz-adv-x="944" />
<glyph unicode="&#x2003;" horiz-adv-x="1888" />
<glyph unicode="&#x2004;" horiz-adv-x="629" />
<glyph unicode="&#x2005;" horiz-adv-x="472" />
<glyph unicode="&#x2006;" horiz-adv-x="314" />
<glyph unicode="&#x2007;" horiz-adv-x="314" />
<glyph unicode="&#x2008;" horiz-adv-x="236" />
<glyph unicode="&#x2009;" horiz-adv-x="377" />
<glyph unicode="&#x200a;" horiz-adv-x="104" />
<glyph unicode="&#x2010;" horiz-adv-x="747" d="M111 479l39 193h567l-37 -193h-569z" />
<glyph unicode="&#x2011;" horiz-adv-x="747" d="M111 479l39 193h567l-37 -193h-569z" />
<glyph unicode="&#x2012;" horiz-adv-x="747" d="M111 479l39 193h567l-37 -193h-569z" />
<glyph unicode="&#x2013;" horiz-adv-x="1024" d="M47 461l37 188h942l-37 -188h-942z" />
<glyph unicode="&#x2014;" horiz-adv-x="2048" d="M41 461l37 188h1966l-37 -188h-1966z" />
<glyph unicode="&#x2015;" horiz-adv-x="2048" d="M47 461l37 188h1966l-37 -188h-1966z" />
<glyph unicode="&#x2018;" horiz-adv-x="536" d="M240 924l51 252l166 272h123l-111 -268h51l-51 -256h-229z" />
<glyph unicode="&#x2019;" horiz-adv-x="536" d="M240 926l112 266h-51l49 258h230l-50 -252l-165 -272h-125z" />
<glyph unicode="&#x201a;" horiz-adv-x="438" d="M-39 -281l111 269h-52l52 258h227l-49 -252l-166 -275h-123z" />
<glyph unicode="&#x201c;" horiz-adv-x="706" d="M188 924l52 252l166 272h122l-110 -268h51l-51 -256h-230zM483 924l52 252l163 272h123l-110 -268h51l-49 -256h-230z" />
<glyph unicode="&#x201d;" horiz-adv-x="706" d="M190 926l111 266h-51l51 258h227l-49 -252l-166 -272h-123zM485 926l111 266h-51l49 258h229l-49 -252l-166 -272h-123z" />
<glyph unicode="&#x201e;" horiz-adv-x="731" d="M-39 -279l111 269h-52l52 258h227l-49 -252l-166 -275h-123zM262 -279l111 269h-51l51 258h227l-49 -252l-166 -275h-123z" />
<glyph unicode="&#x2020;" horiz-adv-x="770" d="M94 780l37 197h262l80 407h197l-80 -407h260l-37 -197h-262q-53 -274 -106.5 -547.5t-106.5 -547.5h-195q53 274 106.5 547.5t106.5 547.5h-262z" />
<glyph unicode="&#x2021;" horiz-adv-x="770" d="M-16 205l36 196h263l73 379h-262l39 199h260l80 405h197l-80 -405h262l-39 -199h-260l-74 -379h260l-37 -196h-262l-100 -520h-197l101 520h-260z" />
<glyph unicode="&#x2022;" horiz-adv-x="909" d="M180 559q0 59 22.5 112.5t61.5 92.5t92.5 61.5t112.5 22.5t112.5 -22.5t93.5 -61.5t62.5 -92.5t22.5 -112.5t-22.5 -112.5t-62.5 -92.5t-93.5 -61.5t-112.5 -22.5t-112.5 22.5t-92.5 61.5t-61.5 92.5t-22.5 112.5z" />
<glyph unicode="&#x2023;" horiz-adv-x="1116" d="M166 74v985l876 -481z" />
<glyph unicode="&#x2026;" horiz-adv-x="1439" d="M18 0l50 248h227l-47 -248h-230zM526 0l47 248h228l-47 -248h-228zM1034 0l47 248h228l-47 -248h-228z" />
<glyph unicode="&#x202f;" horiz-adv-x="377" />
<glyph unicode="&#x2030;" horiz-adv-x="1806" d="M133 735v17.5t2 17.5q8 47 18.5 104.5t22.5 121t25.5 127t25.5 122.5q20 88 76.5 137.5t149.5 49.5q102 0 148 -49.5t46 -135.5q0 -27 -6 -53l-88 -442q-39 -186 -227 -187q-86 0 -139.5 47t-53.5 123zM180 -35l934 1497h135l-934 -1497h-135zM289 754q0 -16 12 -29.5 t37 -13.5q29 0 40 15t15 36l92 473v8q0 16 -10 30.5t-37 14.5t-39 -15.5t-16 -31.5q-23 -121 -46.5 -238.5t-47.5 -238.5v-10zM786 162v17t2 18q8 47 18.5 104t23 120.5t25.5 127t26 123.5q20 88 76.5 137t148.5 49q102 0 148 -49t46 -135q0 -27 -6 -53l-88 -443 q-39 -186 -227 -186q-86 0 -139.5 47t-53.5 123zM942 180q0 -16 12.5 -29.5t36.5 -13.5q29 0 40 15.5t16 35.5l92 474v8q0 16 -10.5 30.5t-36.5 14.5q-27 0 -39.5 -15.5t-16.5 -31.5q-23 -121 -46 -239t-48 -239v-10zM1323 162v17t2 18q8 47 18.5 104t22.5 120.5t25.5 127 t25.5 123.5q20 88 76.5 137t148.5 49q102 0 148.5 -49t46.5 -135q0 -27 -6 -53l-88 -443q-39 -186 -227 -186q-86 0 -139.5 47t-53.5 123zM1479 180q0 -16 12 -29.5t37 -13.5q29 0 40 15.5t15 35.5l92 474v8q0 16 -10 30.5t-37 14.5t-39 -15.5t-16 -31.5 q-23 -121 -46.5 -239t-47.5 -239v-10z" />
<glyph unicode="&#x2039;" horiz-adv-x="661" d="M90 492l305 395h211l-317 -404l153 -389h-198z" />
<glyph unicode="&#x203a;" horiz-adv-x="626" d="M25 96l319 402l-154 389h199l154 -395l-305 -396h-213z" />
<glyph unicode="&#x2044;" horiz-adv-x="342" d="M-334 -35l934 1497h135l-934 -1497h-135z" />
<glyph unicode="&#x205f;" horiz-adv-x="472" />
<glyph unicode="&#x2070;" horiz-adv-x="530" d="M123 920v17t2 17q8 47 18.5 104.5t22.5 121t25.5 127t25.5 123.5q20 88 76.5 137t148.5 49q102 0 148.5 -49t46.5 -135q0 -27 -6 -54l-88 -442q-39 -186 -228 -186q-86 0 -139 47t-53 123zM279 938q0 -16 12 -29.5t37 -13.5q29 0 40 15.5t15 35.5l92 473v8q0 16 -10 31 t-37 15t-39 -15.5t-16 -32.5q-23 -121 -46.5 -238.5t-47.5 -238.5v-10z" />
<glyph unicode="&#x2074;" horiz-adv-x="530" d="M80 879l24 127l306 604h155l-297 -592h109l41 201h153l-41 -201h60l-27 -139h-59l-25 -121h-151l24 121h-272z" />
<glyph unicode="&#x2075;" horiz-adv-x="530" d="M125 928q0 10 1 22.5t3 24.5l164 18q-8 -25 -8 -49q0 -49 45 -49q51 0 63 59q12 53 19.5 95.5t13.5 70.5q2 10 4 18.5t2 18.5q0 16 -9 26.5t-32 10.5q-18 0 -36.5 -11.5t-30.5 -39.5h-138q25 117 47.5 233.5t47.5 233.5h401l-29 -140h-250l-34 -172h2q25 14 46 19.5 t46 5.5q135 0 135 -123q0 -27 -8 -67.5t-19 -102.5q-4 -29 -12 -62.5t-16 -60.5q-27 -86 -82.5 -121.5t-141.5 -35.5q-94 0 -144 48t-50 130z" />
<glyph unicode="&#x2076;" horiz-adv-x="530" d="M119 899q0 53 20 137q10 47 26.5 90t33.5 76q6 10 25.5 41t45 73t55 89t55.5 89t44 72.5t25 41.5h176q-78 -129 -129.5 -211t-85.5 -140h2q25 8 45 9q43 0 82 -27t39 -94v-15.5t-3 -17.5q0 -6 -7 -48t-19 -106q-18 -92 -74.5 -151t-169.5 -59q-78 0 -132 37.5t-54 113.5z M276 932q0 -39 46 -39q49 0 59 45l27 133q4 23 -1.5 43.5t-37.5 20.5q-31 0 -46.5 -20.5t-21.5 -49.5q-8 -37 -12 -60.5t-7 -38t-4.5 -21.5t-1.5 -13z" />
<glyph unicode="&#x2077;" horiz-adv-x="481" d="M106 758l369 712h-117l-20 -90h-148l46 230h438l-25 -123l-379 -729h-164z" />
<glyph unicode="&#x2078;" horiz-adv-x="530" d="M111 909q0 20 5 55t19 101q10 41 29.5 79t60.5 58q-39 31 -39 90q0 35 7.5 68t23.5 94q8 27 19.5 47.5t27.5 38.5q31 39 79 56.5t103 17.5q78 0 131.5 -36t53.5 -116q0 -14 -3.5 -38.5t-13.5 -71.5q-10 -45 -29.5 -85t-62.5 -65q37 -37 37 -78t-10 -110 q-4 -29 -10.5 -53.5t-14.5 -51.5q-23 -74 -74 -116.5t-143 -42.5q-39 0 -74.5 11t-62.5 31.5t-43 50t-16 66.5zM272 944q-4 -23 11.5 -37t38.5 -14q45 0 55 45l31 143q4 23 -6.5 41.5t-39.5 18.5q-53 0 -63 -58zM344 1305q0 -16 10.5 -27.5t34.5 -11.5q23 0 39 14t21 33 l20 104q4 25 -9.5 40.5t-35.5 15.5q-29 0 -42 -15.5t-17 -38.5q-12 -63 -15.5 -82.5t-5.5 -31.5z" />
<glyph unicode="&#x2079;" horiz-adv-x="530" d="M137 758q78 129 129 211t86 139h-2q-25 -8 -45 -8q-43 0 -82 26.5t-39 94.5v15t2 17q0 6 7.5 48t19.5 106q18 92 74.5 151.5t169.5 59.5q78 0 132 -38t54 -114q0 -53 -20 -137q-10 -47 -26.5 -90t-33.5 -76q-6 -10 -25.5 -40.5t-45 -72.5t-55 -89.5t-55.5 -89.5 t-44.5 -72.5t-24.5 -40.5h-176zM354 1294q-4 -23 1 -43t38 -20q31 0 46.5 20.5t21.5 48.5q8 37 12 60.5t7 38t4 21.5t1 14q0 39 -45 39q-49 0 -59 -46z" />
<glyph unicode="&#x207a;" horiz-adv-x="518" d="M102 1085l23 119h184l35 182h127l-35 -182h182l-22 -119h-184l-35 -182h-127l35 182h-183z" />
<glyph unicode="&#x207b;" horiz-adv-x="466" d="M129 1063l25 129h372l-24 -129h-373z" />
<glyph unicode="&#x207c;" horiz-adv-x="518" d="M86 993l25 119h493l-24 -119h-494zM123 1182l22 121h496l-23 -121h-495z" />
<glyph unicode="&#x207d;" horiz-adv-x="323" d="M135 1024q0 94 23.5 180t63.5 164t91.5 147.5t108.5 131.5l86 -41q-113 -141 -172.5 -296t-59.5 -300q0 -82 14.5 -157t39.5 -140l-94 -54q-43 78 -72 169.5t-29 195.5z" />
<glyph unicode="&#x207e;" horiz-adv-x="323" d="M33 713q100 127 164.5 282.5t64.5 309.5q0 162 -57 301l100 41q43 -74 70.5 -163t27.5 -190q0 -94 -23.5 -181t-64.5 -166t-94 -151.5t-115 -136.5z" />
<glyph unicode="&#x207f;" horiz-adv-x="550" d="M100 573q35 168 68 336t65 336h173l-9 -47q53 53 125 53q78 0 107.5 -40t29.5 -87q0 -14 -2 -35.5t-6 -39.5q-16 -98 -38.5 -216t-51.5 -260h-174q33 154 56.5 275t33.5 196q0 25 -9 36.5t-34 11.5q-29 0 -47 -21.5t-27 -56.5l-88 -441h-172z" />
<glyph unicode="&#x2080;" horiz-adv-x="530" d="M-49 -5.5q0 7.5 2 17.5q8 47 18.5 104.5t22.5 121t25.5 127t25.5 122.5q20 88 76.5 137.5t148.5 49.5q102 0 148.5 -49.5t46.5 -135.5q0 -27 -6 -53l-88 -442q-39 -186 -228 -187q-86 0 -139 47.5t-53 122.5v17.5zM106 -4q0 -16 12.5 -29.5t37.5 -13.5q29 0 40 15.5 t15 35.5l92 473v8q0 16 -10 30.5t-37 14.5t-39 -15t-16 -32q-23 -121 -46.5 -238.5t-48.5 -238.5v-10z" />
<glyph unicode="&#x2081;" horiz-adv-x="436" d="M27 399l30 168l160 101h150l-166 -852h-164l133 676q-10 -6 -29.5 -18.5t-42 -28t-43 -27.5t-28.5 -19z" />
<glyph unicode="&#x2082;" horiz-adv-x="530" d="M-80 -184l25 127l311 399q25 33 39 70t18 59q2 23 -8 40t-41 17t-51 -26.5t-31 -93.5l-155 22q23 119 88 181.5t170 62.5q96 0 146 -47t46 -135q-4 -53 -28.5 -106.5t-67.5 -113.5l-240 -307h226l-29 -149h-418z" />
<glyph unicode="&#x2083;" horiz-adv-x="530" d="M-57 6q0 12 4 27l164 16q-6 -29 -7 -45q0 -23 11.5 -36t42.5 -13q23 0 36 18.5t17 36.5l20 111q12 68 -61 67h-49l24 129h58q29 0 53.5 19.5t34.5 66.5l12 66q4 18 -3 38.5t-44 20.5q-29 0 -52.5 -25.5t-27.5 -80.5q-39 4 -77 10t-79 12q20 109 82.5 168.5t173.5 59.5 q98 0 141.5 -46t43.5 -118q0 -14 -3 -49t-9 -58q-12 -45 -35 -82.5t-66 -60.5q29 -14 40 -34.5t11 -51.5q0 -41 -9 -96.5t-19 -93.5q-23 -88 -83.5 -131.5t-148.5 -43.5q-94 0 -145 46.5t-51 126.5v26z" />
<glyph unicode="&#x2084;" horiz-adv-x="530" d="M-92 -63l24 126l306 605h155l-297 -592h109l41 200h153l-41 -200h60l-27 -139h-59l-25 -121h-151l24 121h-272z" />
<glyph unicode="&#x2085;" horiz-adv-x="530" d="M-47 -14q0 10 1 22t3 25l164 18q-8 -25 -8 -49q0 -49 45 -49q51 0 63 59q12 53 19.5 95.5t13.5 70.5q2 10 4 18.5t2 18.5q0 16 -9 26.5t-32 10.5q-18 0 -36.5 -11.5t-30.5 -39.5h-138q25 117 47.5 233.5t47.5 233.5h401l-29 -140h-250l-34 -172h2q25 14 46 19.5t46 5.5 q135 0 135 -123q0 -27 -8 -67.5t-19 -102.5q-4 -29 -12 -62.5t-16 -60.5q-27 -86 -82.5 -122t-141.5 -36q-94 0 -144 48.5t-50 130.5z" />
<glyph unicode="&#x2086;" horiz-adv-x="530" d="M-53 -43q0 53 20 137q10 47 26.5 90t33.5 76q6 10 25.5 41t45 73t55 89t55 89t44 72.5t24.5 41.5h177q-78 -129 -129.5 -211t-85.5 -140h2q25 8 45 9q43 0 82 -27t39 -94v-15.5t-3 -17.5q0 -6 -7 -48t-19 -106q-18 -92 -74.5 -151.5t-169.5 -59.5q-78 0 -132 38t-54 114z M104 -10q0 -39 46 -39q49 0 59 45l27 133q4 23 -1.5 43.5t-37.5 20.5q-31 0 -46.5 -20.5t-21.5 -49.5q-8 -37 -12 -60.5t-7.5 -38t-4.5 -21.5t-1 -13z" />
<glyph unicode="&#x2087;" horiz-adv-x="481" d="M-66 -184l369 712h-117l-20 -90h-148l45 230h439l-25 -123l-379 -729h-164z" />
<glyph unicode="&#x2088;" horiz-adv-x="530" d="M-61 -33q0 20 5 55t19 101q10 41 29.5 79t60.5 58q-39 31 -39 90q0 35 7.5 68t23.5 94q8 27 19.5 47.5t27.5 38.5q31 39 79 56.5t103 17.5q78 0 131.5 -36t53.5 -116q0 -14 -3.5 -38.5t-13.5 -71.5q-10 -45 -29.5 -85t-62.5 -65q37 -37 37 -78t-10 -110 q-4 -29 -10.5 -53.5t-14.5 -51.5q-23 -74 -74 -117t-143 -43q-39 0 -74.5 11.5t-62.5 32t-43 50t-16 66.5zM100 2q-4 -23 11.5 -37t38.5 -14q45 0 55 45l31 143q4 23 -6.5 41.5t-39.5 18.5q-53 0 -63 -58zM172 362q0 -16 10.5 -27t34.5 -11q23 0 39 14t20 33l21 104 q4 25 -9.5 40t-35.5 15q-29 0 -42 -15t-17 -38q-12 -63 -15.5 -82.5t-5.5 -32.5z" />
<glyph unicode="&#x2089;" horiz-adv-x="530" d="M-35 -184q78 129 129 211t86 139h-2q-25 -8 -45 -8q-43 0 -82 26.5t-39 94.5v15t2 17q0 6 7.5 48t19.5 106q18 92 74.5 151.5t169.5 59.5q78 0 132 -38t54 -114q0 -53 -20 -137q-10 -47 -26.5 -90t-33.5 -76q-6 -10 -25.5 -40.5t-45 -72.5t-55 -89.5t-55.5 -89.5 t-44.5 -72.5t-24.5 -40.5h-176zM182 352q-4 -23 1 -43t38 -20q31 0 46.5 20.5t21.5 48.5q8 37 12 60.5t7 38t4 21.5t1 14q0 39 -45 38q-49 0 -59 -45z" />
<glyph unicode="&#x208a;" horiz-adv-x="518" d="M-68 109l23 118h184l37 181h127l-37 -181h185l-25 -118h-182l-35 -183h-127l35 183h-185z" />
<glyph unicode="&#x208b;" horiz-adv-x="466" d="M-33 86l25 127h373l-25 -127h-373z" />
<glyph unicode="&#x208c;" horiz-adv-x="518" d="M-92 14l24 121h494l-25 -121h-493zM-55 205l22 121h496l-25 -121h-493z" />
<glyph unicode="&#x208d;" horiz-adv-x="323" d="M-20 47q0 94 23.5 180t62 164t90 147.5t108.5 129.5l86 -39q-113 -141 -172 -296t-59 -300q0 -82 14 -157t39 -140l-94 -53q-43 78 -70.5 169t-27.5 195z" />
<glyph unicode="&#x208e;" horiz-adv-x="323" d="M-82 -264q100 127 163.5 282.5t63.5 309.5q0 78 -13 155.5t-42 145.5l100 39q43 -74 71 -162t28 -191q0 -94 -23.5 -181t-64.5 -166t-94.5 -150.5t-114.5 -134.5z" />
<glyph unicode="&#x20ab;" horiz-adv-x="829" d="M66 -12l30 155h506q-10 -39 -17 -78.5t-16 -76.5h-503zM135 420q0 37 9.5 104.5t23.5 139t30.5 139t32.5 104.5q12 31 30 59.5t42.5 51t59 36t83.5 13.5q33 0 69 -12.5t58 -36.5q8 33 14.5 64.5t12.5 66.5h-186q6 35 12 69.5t14 69.5h187l26 129h193l-27 -129h80 q-6 -35 -12 -69.5t-15 -69.5h-79l-172 -893h-189l14 59q-31 -31 -73.5 -49t-73.5 -18t-59.5 6t-52 24.5t-38 52.5t-14.5 89zM344 494q0 -25 11 -43.5t40 -18.5q35 0 55.5 28.5t30.5 67.5q12 53 20.5 96.5t20.5 110.5q6 35 8 48.5t2 29.5q0 31 -9 47.5t-36 16.5 q-29 0 -47 -17.5t-31.5 -48.5t-22.5 -73t-19 -93q-10 -49 -16.5 -88t-6.5 -63z" />
<glyph unicode="&#x20ac;" horiz-adv-x="829" d="M57 545l25 123h74l20 100h-76l25 123h74l30 158q14 80 43 151.5t75 123.5t113.5 83t164.5 31q88 0 150.5 -24.5t99 -67.5t50 -102.5t3.5 -129.5l-223 -43q10 72 -15.5 115t-85.5 43q-37 0 -63.5 -16.5t-45 -41t-28.5 -54.5t-16 -56l-33 -170h282l-24 -123h-281l-20 -100 h282l-24 -123h-283l-39 -209q-10 -59 6.5 -100t88.5 -41q55 0 95 38.5t58 116.5l213 -37q-29 -152 -121 -238.5t-260 -86.5q-186 0 -258 97t-37 271l35 189h-74z" />
<glyph unicode="&#x2105;" horiz-adv-x="1269" d="M147 -35q231 377 461 748.5t459 748.5h135q-229 -377 -458.5 -748.5t-460.5 -748.5h-136zM180 854q0 35 7.5 96.5t15.5 110.5q12 72 29.5 140.5t39.5 109.5q27 51 77 88t153 37q96 0 142 -46.5t46 -127.5q0 -31 -6 -64q-43 -6 -87 -11t-87 -9q4 20 4 28q2 27 -9 45.5 t-38 18.5q-23 0 -35 -13.5t-18 -31.5q-4 -12 -13.5 -54.5t-19.5 -85.5q-10 -51 -17.5 -99t-7.5 -79q0 -20 10.5 -34.5t34.5 -14.5q53 0 70 92l166 -24q-20 -111 -86.5 -171.5t-177.5 -60.5q-49 0 -86 13.5t-60.5 36t-35 51t-11.5 59.5zM678 147q0 37 6 97.5t16 109.5 q12 74 28.5 140.5t39.5 107.5q33 59 86 94t139 35q98 0 148.5 -48t52.5 -124q0 -14 -2 -36.5t-5 -48t-7 -51.5t-6 -48q-10 -51 -21.5 -109.5t-24.5 -97.5q-18 -55 -44.5 -90t-60.5 -54.5t-72 -26.5t-77 -7q-100 0 -148 47t-48 110zM854 201q0 -20 13.5 -33.5t35.5 -13.5 q18 0 32.5 12t25.5 29q8 14 20 65t20 100q8 41 13.5 84t5.5 62q0 23 -6 42t-39 19q-16 0 -31.5 -8t-25.5 -27q-4 -10 -13.5 -41.5t-19.5 -76.5q-14 -74 -22.5 -128.5t-8.5 -84.5z" />
<glyph unicode="&#x2116;" horiz-adv-x="1454" d="M49 0l277 1425h198l131 -802h11l155 802h217l-276 -1425h-195l-67 393q-16 104 -31.5 205.5t-36.5 206.5h-8q-39 -203 -77 -402.5t-79 -402.5h-219zM985 528q8 37 15.5 75t13.5 75h422q-6 -37 -13.5 -75t-15.5 -75h-422zM1047 946q0 35 5 75t13 77q12 59 24.5 112.5 t32.5 92.5q35 66 86 99.5t133 33.5q104 0 155.5 -51.5t51.5 -116.5q0 -41 -8 -101.5t-18 -107.5q-16 -80 -36 -139.5t-49.5 -98.5t-75.5 -57.5t-114 -18.5q-63 0 -102 17.5t-60.5 46.5t-29.5 64.5t-8 72.5zM1210 942q0 -23 11.5 -36t33.5 -13q25 0 39.5 11t23.5 32.5 t16 52.5t18 72q14 53 21 105.5t7 80.5q0 20 -13.5 31.5t-31.5 11.5t-34.5 -9t-26.5 -32q-8 -16 -16.5 -48t-18.5 -79q-4 -18 -9 -41.5t-9 -49t-7.5 -49.5t-3.5 -40z" />
<glyph unicode="&#x2122;" horiz-adv-x="1433" d="M84 1282v143h498v-143h-172v-668h-154v668h-172zM662 612v811h141q29 -61 54.5 -122.5t51.5 -122.5l80 -177q18 43 36.5 87.5t39.5 87.5l104 247h144v-811h-152v443h-6q-29 -74 -58.5 -149t-60.5 -148h-100q-14 31 -27.5 61.5t-25.5 61.5q-18 45 -35 89t-35 87h-6v-445 h-145z" />
<glyph unicode="&#x2153;" horiz-adv-x="1269" d="M158 -35l934 1497h135l-934 -1497h-135zM248 1157l31 168l159 100h150l-166 -852h-164l133 676q-10 -6 -29.5 -18t-42 -27.5t-43 -28t-28.5 -18.5zM758 164v26.5t4 26.5l164 16q-6 -29 -6 -45q0 -23 11 -36t42 -13q23 0 36 18.5t17 37.5l21 110q12 68 -62 68h-49l25 129 h57q29 0 53.5 19.5t34.5 66.5l12 65q4 18 -3 39t-44 21q-29 0 -52.5 -25.5t-27.5 -81.5q-39 4 -76.5 10.5t-78.5 12.5q20 109 82.5 168t173.5 59q98 0 141 -46t43 -118q0 -14 -3 -49t-9 -57q-12 -45 -35 -83t-66 -61q29 -14 40 -34.5t11 -51.5q0 -41 -9 -96t-19 -94 q-23 -88 -83.5 -131t-148.5 -43q-94 0 -145 46t-51 126z" />
<glyph unicode="&#x2154;" horiz-adv-x="1269" d="M119 573l24 127l312 400q25 33 39 69.5t18 59.5q2 23 -8 40t-41 17t-51.5 -26.5t-30.5 -94.5l-156 23q23 119 88.5 181.5t169.5 62.5q96 0 146.5 -47.5t46.5 -135.5q-4 -53 -28.5 -106t-67.5 -113l-240 -307h225l-28 -150h-418zM219 -35l934 1497h135l-934 -1497h-135z M797 164v26.5t4 26.5l164 16q-6 -29 -7 -45q0 -23 11.5 -36t42.5 -13q23 0 36 18.5t17 37.5l20 110q12 68 -61 68h-49l24 129h58q29 0 53.5 19.5t34.5 66.5l12 65q4 18 -3 39t-44 21q-29 0 -52.5 -25.5t-27.5 -81.5q-39 4 -77 10.5t-79 12.5q20 109 82.5 168t173.5 59 q98 0 141.5 -46t43.5 -118q0 -14 -3 -49t-9 -57q-12 -45 -35 -83t-66 -61q29 -14 40 -34.5t11 -51.5q0 -41 -9 -96t-19 -94q-23 -88 -83.5 -131t-148.5 -43q-94 0 -145 46t-51 126z" />
<glyph unicode="&#x2155;" horiz-adv-x="1269" d="M127 -35l934 1497h135l-934 -1497h-135zM213 1157l31 168l159 100h150l-166 -852h-164l133 676q-10 -6 -29.5 -18t-42 -27.5t-43 -28t-28.5 -18.5zM750 170q0 10 1 22.5t3 24.5l164 19q-8 -25 -9 -50q0 -49 45 -49q51 0 64 60q12 53 19 95t14 70q2 10 4 18.5t2 18.5 q0 16 -9.5 26.5t-31.5 10.5q-18 0 -36.5 -11t-31.5 -40h-137q25 117 47.5 233.5t46.5 233.5h402l-29 -139h-250l-35 -172h2q25 14 46.5 19t45.5 5q135 0 136 -123q0 -27 -8.5 -67.5t-18.5 -102.5q-4 -29 -12 -62.5t-17 -59.5q-27 -86 -82 -122t-141 -36q-94 0 -144 48 t-50 130z" />
<glyph unicode="&#x2156;" horiz-adv-x="1269" d="M90 573l25 127l311 400q25 33 39 69.5t18 59.5q2 23 -8 40t-41 17t-51.5 -26.5t-30.5 -94.5l-155 23q23 119 88 181.5t170 62.5q96 0 146 -47.5t46 -135.5q-4 -53 -28.5 -106t-67.5 -113l-240 -307h226l-29 -150h-418zM188 -35l934 1497h135l-933 -1497h-136zM786 170 q0 10 1 22.5t4 24.5l163 19q-8 -25 -8 -50q0 -49 45 -49q51 0 64 60q12 53 19 95t13 70q2 10 4.5 18.5t2.5 18.5q0 16 -9.5 26.5t-31.5 10.5q-18 0 -37 -11t-31 -40h-137q25 117 47.5 233.5t46.5 233.5h401l-28 -139h-250l-35 -172h2q25 14 46.5 19t45.5 5q135 0 136 -123 q0 -27 -8.5 -67.5t-18.5 -102.5q-4 -29 -12.5 -62.5t-16.5 -59.5q-27 -86 -82 -122t-141 -36q-94 0 -144.5 48t-50.5 130z" />
<glyph unicode="&#x2157;" horiz-adv-x="1269" d="M96 737v26.5t4 27.5l164 16q-6 -29 -6 -45q0 -23 11.5 -36t41.5 -13q23 0 36 18.5t18 36.5l20 111q12 68 -61 67h-50l25 129h57q29 0 53.5 19.5t34.5 66.5l13 66q4 18 -3.5 38.5t-43.5 20.5q-29 0 -52.5 -25.5t-27.5 -80.5q-39 4 -77 10t-79 12q20 109 82.5 168.5 t173.5 59.5q98 0 141 -46.5t43 -117.5q0 -14 -3 -49t-9 -58q-12 -45 -34.5 -83t-65.5 -60q29 -14 40 -34.5t11 -51.5q0 -41 -9 -96.5t-20 -94.5q-23 -88 -83 -131t-148 -43q-94 0 -145.5 46t-51.5 126zM162 -35l934 1497h135l-934 -1497h-135zM778 170q0 10 1 22.5t3 24.5 l164 19q-8 -25 -8 -50q0 -49 45 -49q51 0 64 60q12 53 19 95t13 70q2 10 4 18.5t2 18.5q0 16 -9 26.5t-32 10.5q-18 0 -36.5 -11t-30.5 -40h-137q25 117 47 233.5t47 233.5h401l-28 -139h-250l-35 -172h2q25 14 46.5 19t45.5 5q135 0 135 -123q0 -27 -8 -67.5t-18 -102.5 q-4 -29 -12.5 -62.5t-16.5 -59.5q-27 -86 -82 -122t-141 -36q-94 0 -144.5 48t-50.5 130z" />
<glyph unicode="&#x2158;" horiz-adv-x="1269" d="M82 694l24 127l306 604h155l-297 -591h109l41 200h153l-41 -200h60l-27 -140h-59l-25 -121h-151l24 121h-272zM201 -35l934 1497h135l-934 -1497h-135zM797 170q0 10 1 22.5t3 24.5l164 19q-8 -25 -9 -50q0 -49 45 -49q51 0 64 60q12 53 19.5 95t13.5 70q2 10 4 18.5 t2 18.5q0 16 -9.5 26.5t-31.5 10.5q-18 0 -36.5 -11t-31.5 -40h-137q25 117 47.5 233.5t46.5 233.5h402l-29 -139h-250l-35 -172h2q25 14 46.5 19t46.5 5q135 0 135 -123q0 -27 -8.5 -67.5t-18.5 -102.5q-4 -29 -12 -62.5t-17 -59.5q-27 -86 -82 -122t-141 -36 q-94 0 -144 48t-50 130z" />
<glyph unicode="&#x2159;" horiz-adv-x="1269" d="M182 -35l934 1497h135l-934 -1497h-135zM256 1157l31 168l159 100h150l-166 -852h-164l133 676q-10 -6 -29.5 -18t-42 -27.5t-43 -28t-28.5 -18.5zM721 141q0 53 20 138q10 47 26.5 90t33.5 75q6 10 25.5 41t45 73t55 89t55.5 89t44 73t25 41h176q-78 -129 -129 -211 t-86 -139h2q25 8 45 8q43 0 82 -26.5t39 -94.5v-15t-2 -18q0 -6 -7.5 -48t-19.5 -105q-18 -92 -74.5 -151.5t-169.5 -59.5q-78 0 -132 38t-54 113zM879 174q0 -39 45 -39q49 0 59 45l27 133q4 23 -1 43.5t-38 20.5q-31 0 -46.5 -20.5t-21.5 -49.5q-8 -37 -12 -60.5t-7 -37.5 t-4 -21.5t-1 -13.5z" />
<glyph unicode="&#x215a;" horiz-adv-x="1269" d="M143 743q0 10 1 22.5t3 25.5l164 18q-8 -25 -8 -49q0 -49 45 -49q51 0 64 59q12 53 19 95t13 71q2 10 4.5 18.5t2.5 18.5q0 16 -9.5 26.5t-31.5 10.5q-18 0 -37 -11.5t-31 -40.5h-137q25 117 47 234t47 233h401l-28 -139h-250l-35 -172h2q25 14 46.5 19.5t45.5 5.5 q135 0 135 -123q0 -27 -8 -68t-18 -102q-4 -29 -12.5 -62.5t-16.5 -60.5q-27 -86 -82 -122t-141 -36q-94 0 -144.5 48.5t-50.5 129.5zM221 -35l934 1497h135l-934 -1497h-135zM741 141q0 53 21 138q10 47 26.5 90t32.5 75q6 10 25.5 41t45.5 73t55.5 89t55 89t44 73t24.5 41 h176q-78 -129 -129 -211t-86 -139h2q25 8 45 8q43 0 82 -26.5t39 -94.5v-15t-2 -18q0 -6 -7 -48t-20 -105q-18 -92 -74 -151.5t-169 -59.5q-78 0 -132.5 38t-54.5 113zM899 174q0 -39 45 -39q49 0 60 45l26 133q4 23 -1 43.5t-38 20.5q-31 0 -46 -20.5t-21 -49.5 q-8 -37 -12.5 -60.5t-7.5 -37.5t-4 -21.5t-1 -13.5z" />
<glyph unicode="&#x215b;" horiz-adv-x="1269" d="M158 -35l934 1497h135l-934 -1497h-135zM242 1157l30 168l160 100h150l-166 -852h-164l133 676q-10 -6 -29.5 -18t-42 -27.5t-43 -28t-28.5 -18.5zM756 152q0 20 5 55t19 100q10 41 29.5 79t60.5 58q-39 31 -39 91q0 35 7.5 67.5t23.5 93.5q8 27 19.5 47.5t27.5 38.5 q31 39 79 56.5t104 17.5q78 0 131 -36t53 -115q0 -14 -3 -39t-13 -72q-10 -45 -30 -85t-63 -65q37 -37 37 -77.5t-10 -110.5q-4 -29 -10 -53.5t-15 -50.5q-23 -74 -74 -117t-143 -43q-39 0 -74.5 11t-62.5 31.5t-43 50.5t-16 67zM918 186q-4 -23 11 -37t38 -14q45 0 55 45 l31 144q4 23 -6.5 41t-38.5 18q-53 0 -64 -57zM989 547q0 -16 10.5 -27.5t34.5 -11.5q23 0 39.5 14.5t20.5 32.5l20 104q4 25 -9 40.5t-36 15.5q-29 0 -42 -15.5t-17 -37.5q-12 -63 -15.5 -83t-5.5 -32z" />
<glyph unicode="&#x215c;" horiz-adv-x="1269" d="M131 737v26.5t4 27.5l164 16q-6 -29 -6 -45q0 -23 11 -36t42 -13q23 0 36 18.5t17 36.5l21 111q12 68 -62 67h-49l25 129h57q29 0 53.5 19.5t34.5 66.5l13 66q4 18 -3.5 38.5t-44.5 20.5q-29 0 -52 -25.5t-27 -80.5q-39 4 -77 10t-79 12q20 109 82.5 168.5t173.5 59.5 q98 0 141 -46.5t43 -117.5q0 -14 -3 -49t-9 -58q-12 -45 -34.5 -83t-65.5 -60q29 -14 40 -34.5t11 -51.5q0 -41 -9.5 -96.5t-19.5 -94.5q-23 -88 -83 -131t-148 -43q-94 0 -145.5 46t-51.5 126zM197 -35l933 1497h136l-934 -1497h-135zM780 152q0 20 5.5 55t19.5 100 q10 41 29.5 79t60.5 58q-39 31 -39 91q0 35 7 67.5t24 93.5q8 27 19.5 47.5t27.5 38.5q31 39 79 56.5t103 17.5q78 0 131 -36t53 -115q0 -14 -3 -39t-13 -72q-10 -45 -29.5 -85t-62.5 -65q37 -37 37 -77.5t-10 -110.5q-4 -29 -10.5 -53.5t-14.5 -50.5q-23 -74 -74 -117 t-143 -43q-39 0 -75 11t-62.5 31.5t-43 50.5t-16.5 67zM942 186q-4 -23 11.5 -37t37.5 -14q45 0 56 45l30 144q4 23 -6 41t-39 18q-53 0 -63 -57zM1014 547q0 -16 10 -27.5t35 -11.5q23 0 39 14.5t20 32.5l21 104q4 25 -9.5 40.5t-35.5 15.5q-29 0 -42.5 -15.5t-17.5 -37.5 q-12 -63 -15 -83t-5 -32z" />
<glyph unicode="&#x215d;" horiz-adv-x="1269" d="M137 743q0 10 1 22.5t3 25.5l164 18q-8 -25 -8 -49q0 -49 45 -49q51 0 64 59q12 53 19 95t13 71q2 10 4 18.5t2 18.5q0 16 -9 26.5t-32 10.5q-18 0 -36.5 -11.5t-30.5 -40.5h-137q25 117 47 234t47 233h401l-28 -139h-250l-35 -172h2q25 14 46.5 19.5t45.5 5.5 q135 0 135 -123q0 -27 -8 -68t-18 -102q-4 -29 -12.5 -62.5t-16.5 -60.5q-27 -86 -82 -122t-141 -36q-94 0 -144.5 48.5t-50.5 129.5zM193 -35l933 1497h136l-934 -1497h-135zM776 152q0 20 5 55t20 100q10 41 29.5 79t60.5 58q-39 31 -39 91q0 35 7 67.5t24 93.5 q8 27 19 47.5t28 38.5q31 39 79 56.5t103 17.5q78 0 131 -36t53 -115q0 -14 -3 -39t-13 -72q-10 -45 -29.5 -85t-62.5 -65q37 -37 37 -77.5t-11 -110.5q-4 -29 -10 -53.5t-14 -50.5q-23 -74 -74 -117t-143 -43q-39 0 -75 11t-62.5 31.5t-43 50.5t-16.5 67zM938 186 q-4 -23 11.5 -37t37.5 -14q45 0 55 45l31 144q4 23 -6 41t-39 18q-53 0 -63 -57zM1010 547q0 -16 10 -27.5t35 -11.5q23 0 39 14.5t20 32.5l21 104q4 25 -9.5 40.5t-35.5 15.5q-29 0 -42.5 -15.5t-17.5 -37.5q-12 -63 -15 -83t-5 -32z" />
<glyph unicode="&#x215e;" horiz-adv-x="1269" d="M150 -35l933 1497h136l-934 -1497h-135zM182 573l369 713h-117l-20 -90h-148l45 229h439l-25 -122l-379 -730h-164zM762 152q0 20 5 55t19 100q10 41 30 79t61 58q-39 31 -39 91q0 35 7 67.5t23 93.5q8 27 19.5 47.5t27.5 38.5q31 39 79 56.5t104 17.5q78 0 131 -36 t53 -115q0 -14 -3 -39t-13 -72q-10 -45 -29.5 -85t-62.5 -65q37 -37 36.5 -77.5t-10.5 -110.5q-4 -29 -10 -53.5t-14 -50.5q-23 -74 -74 -117t-144 -43q-39 0 -74.5 11t-62 31.5t-43 50.5t-16.5 67zM924 186q-4 -23 11 -37t38 -14q45 0 55 45l31 144q4 23 -6.5 41t-38.5 18 q-53 0 -64 -57zM995 547q0 -16 10.5 -27.5t34.5 -11.5q23 0 39.5 14.5t20.5 32.5l20 104q4 25 -9 40.5t-36 15.5q-29 0 -42 -15.5t-17 -37.5q-12 -63 -15.5 -83t-5.5 -32z" />
<glyph unicode="&#x2190;" horiz-adv-x="1710" d="M135 659l467 471l119 -118l-272 -271h1136v-166l-1136 3l272 -269l-119 -119z" />
<glyph unicode="&#x2191;" horiz-adv-x="1026" d="M51 969l469 467l471 -467l-119 -119l-270 266v-1114h-166v1114l-266 -266z" />
<glyph unicode="&#x2192;" horiz-adv-x="1710" d="M137 575v166h1137l-273 271l119 118l467 -471l-467 -469l-119 119l273 269z" />
<glyph unicode="&#x2193;" horiz-adv-x="1026" d="M51 469l119 119l268 -273l-2 1121h166v-1121l270 273l119 -119l-471 -467z" />
<glyph unicode="&#x2196;" horiz-adv-x="1720" d="M250 657l2 660l661 2l2 -166l-383 2l1045 -1042l-115 -119l-1046 1044l2 -381h-168z" />
<glyph unicode="&#x2198;" horiz-adv-x="1720" d="M250 1202l115 117l1046 -1045l-2 383h168l-2 -661l-662 -2l-2 166h383z" />
<glyph unicode="&#x21a9;" horiz-adv-x="1746" d="M61 659l465 469l119 -116l-272 -271h950q100 0 140 56.5t40 140.5v160q0 80 -43 124t-137 44h-180v161h188q92 0 156.5 -25.5t104.5 -70.5t57.5 -107.5t17.5 -133.5v-152q0 -164 -88 -263.5t-272 -99.5l-934 3l272 -271l-119 -114z" />
<glyph unicode="&#x21aa;" horiz-adv-x="1730" d="M63 938v152q0 72 17.5 134t57.5 107t104.5 70.5t156.5 25.5h191v-161h-180q-96 0 -138.5 -44t-42.5 -124v-160q0 -84 40 -140.5t141 -56.5h950l-275 271l119 116l465 -469l-465 -466l-119 114l275 271l-934 -3q-184 0 -273.5 99.5t-89.5 263.5z" />
<glyph unicode="&#x21b3;" horiz-adv-x="1734" d="M205 578v839h168v-676h989l-272 271l116 116l465 -469l-465 -466l-116 114l272 271h-1157z" />
<glyph unicode="&#x21b5;" horiz-adv-x="1734" d="M164 659l465 469l119 -116l-273 -271h989v676h166v-839h-1155l273 -271l-119 -114z" />
<glyph unicode="&#x21de;" horiz-adv-x="1017" d="M49 987l459 449l467 -449l-117 -121l-266 252l2 -358h215v-160h-215v-133h215v-158h-215v-309h-168v309h-217v158h217v133h-217v160h217l2 358l-262 -252z" />
<glyph unicode="&#x21df;" horiz-adv-x="1017" d="M49 449l117 118l262 -254l-2 363h-217v158h217v135h-217v155h217v312h168v-312h215v-155h-215v-135h215v-158h-215l-2 -363l266 254l117 -118l-467 -449z" />
<glyph unicode="&#x21e0;" horiz-adv-x="1716" d="M117 657q233 233 465 471l120 -118q-70 -66 -138 -134.5t-138 -136.5h256v-164h-256l276 -268l-120 -119q-117 119 -233 236t-232 233zM791 575v164h182v-164h-182zM1083 575v164h185v-164h-185zM1378 575v164h185v-164h-185z" />
<glyph unicode="&#x21e1;" horiz-adv-x="1030" d="M49 961l467 466l471 -466l-117 -119l-270 272v-252h-166l2 252l-270 -272zM434 -18v184h166v-184h-166zM434 276v185h166v-185h-166zM434 571v183h166v-183h-166z" />
<glyph unicode="&#x21e2;" horiz-adv-x="1716" d="M119 575v166h184v-166h-184zM414 575v166h184v-166h-184zM709 575v166h182v-166h-182zM979 307l276 271l-256 -3v166h256l-276 271l119 116l467 -471l-467 -467z" />
<glyph unicode="&#x21e3;" horiz-adv-x="1030" d="M47 446q29 29 58.5 60t60.5 59l268 -272v254h164v-254l270 272q29 -29 58.5 -59.5t60.5 -59.5l-471 -462q-119 115 -235.5 230.5t-233.5 231.5zM434 653v185h164v-185h-164zM434 948v182h164v-182h-164zM434 1243v184h164v-184h-164z" />
<glyph unicode="&#x21e4;" horiz-adv-x="1751" d="M145 213v891h174v-891h-174zM424 659l467 471l119 -118l-273 -271h946v-166l-946 3l273 -269l-119 -119z" />
<glyph unicode="&#x21e5;" horiz-adv-x="1751" d="M147 575v166h947l-273 271l119 118l467 -471l-467 -469l-119 119l273 269zM1511 213v891h175v-891h-175z" />
<glyph unicode="&#x21e7;" horiz-adv-x="1720" d="M94 639l774 795l774 -795h-389v-639h-770v639h-389zM403 762h215v-629h502v629h213l-465 481z" />
<glyph unicode="&#x21ea;" horiz-adv-x="1720" d="M78 639l774 795l774 -795h-389v-432h-770v432h-389zM387 762h213v-420h504v420h213l-465 481zM467 27h768v-406h-768v406zM600 -100v-152h504v152h-504z" />
<glyph unicode="&#x2202;" horiz-adv-x="768" d="M37 297q0 141 37 259t96 201t134 129t151 46q47 0 85 -16.5t72 -61.5q16 88 17 156q0 139 -49.5 206.5t-137.5 67.5q-51 0 -114 -22l28 188q39 14 83 20.5t75 6.5q82 0 139.5 -32t93 -89.5t51 -136t15.5 -172.5q0 -74 -10 -157t-27 -171q-72 -367 -207 -553t-293 -186 q-111 0 -175 79.5t-64 237.5zM221 340q0 -84 27.5 -122t68.5 -38q45 0 84 40t71 102.5t56.5 139.5t42.5 150q-35 78 -71.5 102.5t-73.5 24.5q-47 0 -85 -42t-64.5 -103.5t-41 -130t-14.5 -123.5z" />
<glyph unicode="&#x220f;" horiz-adv-x="880" d="M-10 -166l311 1591h668l-312 -1591h-219l269 1385h-226l-270 -1385h-221z" />
<glyph unicode="&#x2211;" horiz-adv-x="675" d="M-76 -162l39 197l299 604l-74 594l39 192h598l-41 -208h-360l74 -578l-293 -586h379l-43 -215h-617z" />
<glyph unicode="&#x221a;" horiz-adv-x="856" d="M92 764l316 110l18 -628q20 61 57 170.5t81 242t93.5 277.5t93.5 277.5t80.5 242t57.5 170.5h180l-629 -1788h-172l-37 803q-6 -2 -23.5 -8t-35.5 -12.5t-34.5 -12.5t-22.5 -8z" />
<glyph unicode="&#x221e;" horiz-adv-x="1325" d="M92 557q0 61 21.5 117.5t60.5 98.5t91.5 66.5t113.5 24.5q43 0 84 -16.5t78 -42t68.5 -58t56.5 -65.5q57 82 124.5 132t170.5 50q61 0 111 -22.5t86 -63.5t55.5 -97t19.5 -124q0 -61 -21.5 -117.5t-59.5 -97.5t-90 -65.5t-114 -24.5q-92 0 -159.5 54t-124.5 126 q-61 -76 -128 -128t-171 -52q-119 0 -196 84t-77 221zM252 559q0 -63 35 -103t88 -40q59 0 105 40t83 99q-33 53 -79 99t-105 46q-53 0 -90 -41t-37 -100zM760 559q47 -59 89 -101t101 -42q53 0 89 41t36 100q0 61 -35 102t-86 41q-59 0 -103 -41t-91 -100z" />
<glyph unicode="&#x222b;" horiz-adv-x="647" d="M-166 -276l45 147q29 -8 47.5 -10t32.5 -2q37 0 66.5 13t55 49t48 96.5t45.5 152.5q29 113 62.5 284t74.5 398q6 39 16.5 85t21.5 94t22.5 95.5t21.5 87.5q51 201 132 284t216 83q29 0 70 -7t76 -24l-49 -155q-31 10 -52.5 12t-35.5 2q-78 0 -119 -64.5t-76 -222.5 q-12 -53 -28.5 -140t-36 -187.5t-39 -204t-33.5 -184.5q-23 -121 -48.5 -221.5t-54.5 -182.5q-53 -166 -134 -235.5t-208 -69.5q-29 0 -66.5 6t-72.5 21z" />
<glyph unicode="&#x2248;" horiz-adv-x="829" d="M27 393q59 92 126.5 141.5t151.5 49.5q45 0 79 -15.5t62.5 -34t56 -34t60.5 -15.5q35 0 65.5 16.5t76.5 69.5l110 -73q-57 -98 -122.5 -144.5t-137.5 -46.5q-41 0 -73.5 15.5t-64.5 33t-63.5 32.5t-66.5 15q-37 0 -69 -15t-85 -69zM84 721q59 92 126.5 141t151.5 49 q45 0 79 -15t62.5 -33.5t56.5 -34t61 -15.5q35 0 65.5 16.5t75.5 69.5l110 -74q-57 -98 -122.5 -144t-137.5 -46q-41 0 -73.5 15.5t-64.5 32.5t-63.5 32.5t-66.5 15.5q-37 0 -68.5 -15.5t-85.5 -68.5z" />
<glyph unicode="&#x2260;" horiz-adv-x="829" d="M-61 119l188 233h-154l33 178h264l131 162h-362l35 178h471l182 226h174l-182 -226h125l-35 -178h-234l-131 -162h332l-33 -178h-442l-188 -233h-174z" />
<glyph unicode="&#x2264;" horiz-adv-x="829" d="M-37 0q8 47 16.5 91t18.5 91h747q-10 -47 -18 -91t-16 -91h-748zM74 590q8 41 15 83t17 83q203 76 405 149.5t404 149.5q-10 -49 -19 -98.5t-19 -98.5l-519 -184h2q10 -4 25.5 -11.5t59.5 -27t128 -55t232 -97.5l-39 -200z" />
<glyph unicode="&#x2265;" horiz-adv-x="829" d="M-37 0q10 47 18.5 91t16.5 91h747q-8 -47 -16 -91t-18 -91h-748zM16 283l39 200q129 49 259 95.5t259 95.5l-446 184q10 49 19.5 98.5t19.5 98.5l694 -299q-10 -41 -17 -83t-16 -83z" />
<glyph unicode="&#x2303;" horiz-adv-x="1576" d="M186 846l598 598l602 -598l-120 -123l-482 477l-477 -477z" />
<glyph unicode="&#x2318;" horiz-adv-x="1718" d="M131 285q0 59 20.5 113.5t59.5 95.5t94 64.5t127 23.5h131v264h-131q-61 0 -115.5 23.5t-95.5 64.5t-65.5 95t-24.5 114q0 61 22.5 115.5t62.5 95.5t95.5 64.5t120.5 23.5q74 0 130 -23.5t93 -64.5t55.5 -95.5t18.5 -115.5v-131h264v131q0 61 21.5 115.5t60.5 95.5 t94.5 64.5t120.5 23.5q72 0 127.5 -23.5t93 -64.5t57 -95.5t19.5 -115.5q0 -59 -23.5 -112.5t-63.5 -94.5t-94 -65.5t-116 -24.5h-131v-264h131q76 0 131.5 -25t92 -65.5t55 -94t18.5 -112.5t-18.5 -113.5t-55 -95.5t-92 -65.5t-131.5 -24.5q-72 0 -126 23.5t-93 64.5 t-58.5 95t-19.5 116v131h-264v-131q0 -59 -18.5 -112.5t-55.5 -95.5t-93 -66.5t-130 -24.5q-70 0 -125 23.5t-94 63.5t-60.5 95t-21.5 117zM299 285q0 -57 38 -96t95 -39q55 0 93 38.5t38 96.5v131h-131q-57 0 -95 -39t-38 -92zM299 1143q0 -57 38 -94t95 -37h131v131 q0 55 -39 94t-92 39q-57 0 -95 -38t-38 -95zM729 582h264v264h-264v-264zM1159 285q0 -57 39 -96t92 -39q55 0 94 38.5t39 96.5q0 53 -38.5 92t-94.5 39h-131v-131zM1159 1012h131q55 0 94 37.5t39 93.5q0 55 -38.5 94t-94.5 39q-53 0 -92 -38t-39 -95v-131z" />
<glyph unicode="&#x2324;" horiz-adv-x="1607" d="M199 586l600 631l600 -631l-121 -123l-479 512q-12 -14 -49 -53t-86.5 -92.5t-103.5 -112t-103 -110.5t-86 -92t-49 -52zM205 1253v172h1192v-172h-1192z" />
<glyph unicode="&#x2325;" horiz-adv-x="2433" d="M102 1223v174h590l627 -1227h1005v-170h-1138l-627 1223h-457zM1124 1223v174h1200v-174h-1200z" />
<glyph unicode="&#x2326;" horiz-adv-x="2349" d="M201 0v1423h1337l690 -712l-690 -711h-1337zM365 164h1087l537 547l-537 546h-1087v-1093zM541 399l303 303l-303 306l112 112l301 -303l306 303l112 -112l-303 -306l303 -303l-112 -112l-306 305l-301 -305z" />
<glyph unicode="&#x232b;" horiz-adv-x="2387" d="M176 711l690 712h1338v-1423h-1338zM414 711l538 -547h1088v1093h-1088zM1018 399l303 303l-303 306l112 112l306 -303l301 303l112 -112l-303 -306l303 -303l-112 -112l-301 305l-306 -305z" />
<glyph unicode="&#x235f;" horiz-adv-x="1646" d="M94 711q0 150 56.5 281.5t154.5 230t230.5 155t283.5 56.5q150 0 282 -57.5t230.5 -156t154.5 -230.5t56 -281h-2q0 -150 -57.5 -282t-155.5 -230.5t-230 -154.5t-282 -56t-281 56t-229 154.5t-154.5 230.5t-56.5 284zM211 709q0 -125 47 -234.5t129 -191.5t192.5 -129.5 t235.5 -47.5t235.5 47.5t192.5 129.5t129 191.5t47 234.5t-47 235.5t-129 192.5t-192.5 129t-235.5 47t-235.5 -47t-192.5 -129t-129 -192.5t-47 -235.5zM311 848l334 65l154 304l164 -299l335 -70l-231 -232l53 -346l-321 156l-289 -156l43 338z" />
<glyph unicode="&#x23cf;" horiz-adv-x="1748" d="M135 186v279h1438v-279h-1438zM135 643l719 719l719 -719h-1438z" />
<glyph unicode="&#x25a0;" horiz-adv-x="1792" d="M252 82v1296h1296v-1296h-1296z" />
<glyph unicode="&#x25a1;" horiz-adv-x="1722" d="M168 0v1419h1407v-1419h-1407zM313 145h1119v1129h-1119v-1129z" />
<glyph unicode="&#x25b2;" horiz-adv-x="1679" d="M162 360l719 719l718 -719h-1437z" />
<glyph unicode="&#x25b6;" horiz-adv-x="1218" d="M283 0v1436l718 -717z" />
<glyph unicode="&#x25bc;" horiz-adv-x="1679" d="M162 1079h1437l-718 -719z" />
<glyph unicode="&#x25c0;" horiz-adv-x="1218" d="M207 719l719 717v-1436z" />
<glyph unicode="&#x25ca;" horiz-adv-x="1085" d="M96 649q18 37 47 92.5t62 120t69.5 133t69.5 133t61.5 120t47.5 91.5h155l353 -690l-355 -688h-153zM305 651q20 -39 51 -100.5t64 -126t63.5 -125.5t48.5 -100q20 41 50 101t62 123.5t60.5 124t49.5 101.5l-226 455q-20 -41 -49.5 -101.5t-61.5 -125t-61.5 -125 t-50.5 -101.5z" />
<glyph unicode="&#x25cf;" horiz-adv-x="1726" d="M227 731q0 135 53.5 253t142.5 205t207 138t247 51t245.5 -51t205.5 -140t142.5 -207t53.5 -249t-51.5 -248.5t-140.5 -207t-206.5 -141.5t-248.5 -52q-133 0 -251 51t-207 140t-140.5 207t-51.5 251z" />
<glyph unicode="&#x25fc;" horiz-adv-x="1013" d="M0 0v1014h1014v-1014h-1014z" />
<glyph unicode="&#x2602;" horiz-adv-x="1597" d="M102 745q0 131 62.5 253t159 217.5t215 152.5t231.5 57v64h59v-66q113 0 231 -56t214 -150.5t157.5 -217t61.5 -254.5q-33 37 -82 58.5t-102 21.5q-47 0 -92.5 -19.5t-83.5 -60.5h-5q-47 80 -153 80q-57 0 -127 -28v-623q0 -86 -52.5 -138t-150.5 -52q-86 0 -142.5 48 t-56.5 152v27h97v-27q0 -57 27.5 -83.5t70.5 -26.5q33 0 53.5 10t31.5 26.5t15 37t4 40.5v607q-29 14 -55 19t-51 5q-53 0 -95 -20.5t-79 -55.5q-35 41 -82 60.5t-96 19.5q-51 0 -99.5 -19.5t-83.5 -60.5zM1493 745l2 -2q-2 0 -2 2z" />
<glyph unicode="&#x2605;" horiz-adv-x="1667" d="M86 874l510 99l233 463l252 -457l512 -105l-354 -354l80 -528l-490 239l-438 -239l66 514z" />
<glyph unicode="&#x2606;" horiz-adv-x="1716" d="M80 887l520 100l231 461l254 -457l521 -104l-361 -361l80 -530l-491 240l-447 -244l68 522zM199 850l313 -313l-55 -443l377 203l421 -203l-71 453l305 303l-436 88l-219 395l-201 -401z" />
<glyph unicode="&#x2610;" horiz-adv-x="1722" d="M168 0v1419h1407v-1419h-1407zM313 145h1119v1129h-1119v-1129z" />
<glyph unicode="&#x2611;" horiz-adv-x="1740" d="M168 0v1419h1407v-1419h-1407zM313 145h1119v1129h-1119v-1129zM385 745q43 35 89 47.5t75 12.5q18 0 43.5 -32t52.5 -82t49.5 -114.5t34.5 -127.5q59 96 137 203.5t165 211t178 191.5t180 143l28 -39q-82 -63 -174 -179t-178 -249t-160 -265t-119 -224 q-119 -23 -161 -45q-16 61 -44 146t-62 168t-68.5 147.5t-65.5 86.5z" />
<glyph unicode="&#x2612;" horiz-adv-x="1740" d="M168 0v1419h1407v-1419h-1407zM313 145h1119v1129h-1119v-1129zM379 334l383 381l-383 381l110 116l385 -389l381 389l113 -112l-383 -381l389 -387l-119 -111l-383 387l-385 -393z" />
<glyph unicode="&#x2622;" horiz-adv-x="1714" d="M102 719q0 137 53.5 270t152 239.5t236.5 172t308 65.5q160 0 299 -57t241.5 -156.5t161 -233.5t58.5 -290q0 -158 -58.5 -297t-160 -242.5t-239.5 -164t-298 -60.5q-158 0 -295 58.5t-239.5 160t-161 239.5t-58.5 296zM176 719q0 -143 54.5 -267t147.5 -216.5 t218 -144.5t264 -52q135 0 257 54t215 146.5t147.5 212t54.5 250.5q0 162 -58.5 291t-153.5 219.5t-218 139.5t-252 49q-139 0 -262 -54.5t-215 -147.5t-145.5 -217t-53.5 -263zM236 719q0 176 72.5 305t234.5 233l202 -352q-47 -29 -73.5 -77t-32.5 -109h-403zM547 184 l201 348q61 -29 110 -28q41 0 103 28l204 -350q-162 -84 -315 -84q-166 0 -303 86zM692 719q0 70 48 118t116 48q33 0 62.5 -14.5t51 -37t34 -52t12.5 -62.5t-12.5 -61.5t-34 -50t-51 -35t-62.5 -13.5q-63 0 -113.5 45t-50.5 115zM961 909l204 351q147 -82 229.5 -221.5 t82.5 -319.5h-404q-12 127 -112 190z" />
<glyph unicode="&#x2623;" horiz-adv-x="1753" d="M113 494q0 59 16 116.5t54 107.5t98.5 92t150.5 71q0 129 23.5 224t71.5 159.5t122 104.5t176 58l11 -30q-279 -81 -279 -310q0 -139 78 -220t227 -99v-45q-47 -10 -66.5 -38t-19.5 -56q0 -10 2 -19.5t6 -19.5l-39 -21q-123 147 -272 148q-59 0 -115.5 -24.5t-99.5 -66.5 t-69.5 -97.5t-26.5 -116.5q0 -45 12 -115l-22 -10q-16 51 -27.5 103t-11.5 104zM207 180l22 17q139 -123 240 -123q68 0 127 25.5t103 68.5t70 101.5t26 123.5q0 25 -5.5 62t-31.5 84l45 26q14 -23 35.5 -30t42.5 -7q37 0 67 35l47 -24q-35 -84 -34 -148q0 -63 24.5 -119.5 t67.5 -99.5t98 -67.5t117 -24.5q135 0 250 110l24 -16q-39 -53 -78 -87t-81 -53.5t-89 -26.5t-102 -7q-78 0 -158.5 21.5t-156.5 87.5q-86 -66 -166 -87.5t-152 -21.5q-53 0 -100 8t-89 28.5t-82 55.5t-81 88zM463 606q0 43 8 78h25q45 -4 86 -25v-61q0 -156 180 -246 q-4 -29 -15.5 -56t-27.5 -50q-57 25 -104.5 61.5t-81 84.5t-52 102.5t-18.5 111.5zM623 946q66 43 127 65.5t127 22.5q131 0 256 -88q-27 -55 -76 -88q-90 61 -176 62q-84 0 -183 -62q-29 16 -45 38t-30 50zM891 723v45q147 18 225 101.5t78 222.5q0 223 -242 303l11 32 q186 -41 274 -157.5t88 -317.5v-32.5t-2 -34.5q160 -63 237.5 -171t77.5 -245q0 -92 -36 -197l-27 9q16 88 16 133q0 61 -25.5 115.5t-68.5 94.5t-101.5 62.5t-123.5 22.5q-82 0 -146.5 -39t-113.5 -107l-47 27q6 20 6 41q0 33 -18.5 56.5t-61.5 35.5zM991 352 q180 90 180 254v24.5t-2 28.5q23 14 55.5 17.5t55.5 3.5q8 -33 8 -76q0 -111 -68.5 -207t-191.5 -151q-14 25 -23.5 51.5t-13.5 54.5z" />
<glyph unicode="&#x262e;" horiz-adv-x="1708" d="M96 723q0 154 58.5 289t160 234.5t236.5 156.5t289 57q160 0 298 -57t240.5 -156.5t160.5 -232.5t58 -285q0 -158 -59 -295t-162.5 -238.5t-243 -160t-296.5 -58.5q-150 0 -284 59.5t-235.5 161t-161 237.5t-59.5 288zM229 719q0 -55 5.5 -96t15.5 -74t25.5 -64.5 t37.5 -68.5l473 430v489q-123 -16 -225 -67t-176 -132t-115 -187.5t-41 -229.5zM383 324q47 -45 92 -82t92 -67t100.5 -49.5t118.5 -29.5v596zM903 100q121 14 219.5 69.5t190.5 154.5l-410 368v-592zM903 846l479 -428q37 66 58.5 141.5t21.5 169.5q0 119 -39 221.5 t-111.5 181t-176 132t-232.5 71.5v-489z" />
<glyph unicode="&#x262f;" horiz-adv-x="1695" d="M102 729q0 168 64.5 304t169 233.5t238 150.5t272.5 53q168 0 306 -60t236.5 -162.5t151.5 -239t53 -287.5q0 -168 -60 -304t-162.5 -233.5t-237 -149.5t-283.5 -52q-166 0 -304 62t-236.5 165.5t-153 239t-54.5 280.5zM500 1337l10 -8q43 12 86 12q84 0 152.5 -31.5 t116.5 -79.5t75 -104.5t27 -107.5q0 -104 -40 -193.5t-139 -187.5q-43 -43 -59 -105.5t-16 -105.5q0 -152 93 -237t263 -85q88 0 174 48.5t153.5 132.5t109.5 196.5t42 241.5q0 135 -50 263t-142 226.5t-221 159t-289 60.5q-92 0 -179 -24t-167 -71zM518 999 q0 -41 26.5 -71.5t73.5 -30.5q45 0 75 30.5t30 71.5q0 37 -28.5 69t-78.5 32q-35 0 -66.5 -28t-31.5 -73zM977 457q0 47 31.5 76.5t66.5 29.5q45 0 75 -32.5t30 -73.5q0 -45 -32 -73t-73 -28q-43 0 -70.5 32t-27.5 69z" />
<glyph unicode="&#x2672;" horiz-adv-x="1882" d="M102 862h433l174 -375l-123 72l-64 -57q-33 -31 -33 -60q0 -51 64 -51h393v-432h-379q-66 0 -92 21.5t-47 58.5l-231 426q-14 25 -19.5 51.5t-5.5 54.5q0 53 14.5 102.5t51.5 88.5zM188 831l97 -65q-39 -37 -60.5 -87t-21.5 -104q0 -59 19.5 -95t51 -55t70.5 -26.5 t76 -7.5h57q-23 16 -22 49q0 41 39 80l86 78l57 -35l-125 268h-324zM268 391l181 -334q18 -33 39.5 -52t68.5 -19h361v379h-486q-35 0 -58.5 2t-41 5t-32.5 8t-32 11zM365 1026l210 340q23 37 56 57.5t86 20.5h497q41 0 56.5 -5t29.5 -28l109 -178l131 78l-172 -393l-432 43 l123 77l-94 166l-254 -379zM408 1032l294 -170l246 371q-39 76 -97 125t-146 49q-59 0 -99 -57zM801 1417q63 -14 105 -67.5t79 -118.5l115 -205l-76 -47l326 -31l137 297l-82 -53l-121 190q-12 20 -26.5 27.5t-38.5 7.5h-418zM1001 160l226 346v-144h223l-236 400l353 209 l194 -361q18 -37 19 -61q0 -23 -7.5 -42.5t-17.5 -37.5l-221 -397q-18 -33 -31.5 -54.5t-27 -35t-31 -18.5t-43.5 -5h-172v-158zM1036 160l166 -266v92h197q18 0 41.5 10t42.5 43l211 385q-66 -61 -138.5 -76.5t-181.5 -15.5h-172v90zM1251 754l236 -392q39 4 84 20.5 t84 42.5t64.5 58.5t25.5 69.5q0 14 -4 26.5t-8 22.5l-183 326z" />
<glyph unicode="&#x2673;" horiz-adv-x="1779" d="M102 213q0 74 50 160l149 268l-94 51l14 27l242 45l86 -229l-17 -31l-96 59l-131 -237q-27 -49 -26 -88q0 -37 27.5 -62.5t92.5 -25.5h406v-150h-436q-123 0 -195 58.5t-72 154.5zM449 897l217 379q45 78 101 111.5t118 33.5q63 0 121.5 -36.5t95.5 -102.5l149 -264 l105 59l12 -28l-90 -230l-248 43l-12 25l100 55l-145 246q-16 29 -40 45t-52 16q-29 0 -55.5 -20.5t-43.5 -50.5l-202 -357zM739 662v116l86 62h101v-594h-113v467zM913 74l160 200l27 -4v-120h262q74 0 107.5 24.5t33.5 65.5q0 39 -33 94l-204 348l137 80l227 -397 q47 -80 47 -150q0 -98 -83 -156.5t-210 -58.5h-286v-121h-33z" />
<glyph unicode="&#x2674;" horiz-adv-x="1779" d="M102 213q0 74 50 160l149 268l-94 51l14 27l242 45l86 -229l-17 -31l-96 59l-131 -237q-27 -49 -26 -88q0 -37 27.5 -62.5t92.5 -25.5h406v-150h-436q-123 0 -195 58.5t-72 154.5zM449 897l217 379q45 78 101 111.5t118 33.5q63 0 121.5 -36.5t95.5 -102.5l149 -264 l105 59l12 -28l-90 -230l-248 43l-12 25l100 55l-145 246q-16 29 -40 45t-52 16q-29 0 -55.5 -20.5t-43.5 -50.5l-202 -357zM674 254v94l219 275q29 31 29 67q0 23 -16.5 41.5t-47.5 18.5q-29 0 -48 -24t-26 -64l-106 12q12 86 63.5 132t116.5 46q74 0 123 -41t49 -119 q0 -29 -10 -60.5t-33 -60.5l-170 -213h203v-104h-346zM913 74l160 200l27 -4v-120h262q74 0 107.5 24.5t33.5 65.5q0 39 -33 94l-204 348l137 80l227 -397q47 -80 47 -150q0 -98 -83 -156.5t-210 -58.5h-286v-121h-33z" />
<glyph unicode="&#x2675;" horiz-adv-x="1779" d="M102 213q0 74 50 160l149 268l-94 51l14 27l242 45l86 -229l-17 -31l-96 59l-131 -237q-27 -49 -26 -88q0 -37 27.5 -62.5t92.5 -25.5h406v-150h-436q-123 0 -195 58.5t-72 154.5zM449 897l217 379q45 78 101 111.5t118 33.5q63 0 121.5 -36.5t95.5 -102.5l149 -264 l105 59l12 -28l-90 -230l-248 43l-12 25l100 55l-145 246q-16 29 -40 45t-52 16q-29 0 -55.5 -20.5t-43.5 -50.5l-202 -357zM674 406l104 14q8 -39 27.5 -55.5t44.5 -16.5q37 0 58.5 25.5t21.5 62.5q0 39 -21.5 58.5t-54.5 19.5h-59v98h53q33 0 54.5 19.5t21.5 48.5 t-20.5 49.5t-49.5 20.5q-23 0 -41 -19.5t-29 -54.5l-106 12q14 72 63.5 118t112.5 46q92 0 134 -51t42 -119q0 -31 -10 -59.5t-45 -55.5q35 -29 47 -61.5t12 -67.5q0 -86 -50 -138t-136 -52q-29 0 -56.5 7t-51 25.5t-41 49t-25.5 76.5zM913 74l160 200l27 -4v-120h262 q74 0 107.5 24.5t33.5 65.5q0 39 -33 94l-204 348l137 80l227 -397q47 -80 47 -150q0 -98 -83 -156.5t-210 -58.5h-286v-121h-33z" />
<glyph unicode="&#x2676;" horiz-adv-x="1779" d="M102 213q0 74 50 160l149 268l-94 51l14 27l242 45l86 -229l-17 -31l-96 59l-131 -237q-27 -49 -26 -88q0 -37 27.5 -62.5t92.5 -25.5h406v-150h-436q-123 0 -195 58.5t-72 154.5zM449 897l217 379q45 78 101 111.5t118 33.5q63 0 121.5 -36.5t95.5 -102.5l149 -264 l105 59l12 -28l-90 -230l-248 43l-12 25l100 55l-145 246q-16 29 -40 45t-52 16q-29 0 -55.5 -20.5t-43.5 -50.5l-202 -357zM633 342v88l196 422h115l-190 -410h118v144h105v-144h45v-100h-45v-84h-105v84h-239zM913 74l160 200l27 -4v-120h262q74 0 107.5 24.5t33.5 65.5 q0 39 -33 94l-204 348l137 80l227 -397q47 -80 47 -150q0 -98 -83 -156.5t-210 -58.5h-286v-121h-33z" />
<glyph unicode="&#x2677;" horiz-adv-x="1779" d="M102 213q0 74 50 160l149 268l-94 51l14 27l242 45l86 -229l-17 -31l-96 59l-131 -237q-27 -49 -26 -88q0 -37 27.5 -62.5t92.5 -25.5h406v-150h-436q-123 0 -195 58.5t-72 154.5zM449 897l217 379q45 78 101 111.5t118 33.5q63 0 121.5 -36.5t95.5 -102.5l149 -264 l105 59l12 -28l-90 -230l-248 43l-12 25l100 55l-145 246q-16 29 -40 45t-52 16q-29 0 -55.5 -20.5t-43.5 -50.5l-202 -357zM684 397l104 21q16 -78 74 -78q27 0 42.5 11t23.5 28.5t11 38t3 39.5q0 39 -13.5 70.5t-58.5 31.5q-20 0 -36.5 -14.5t-30.5 -36.5h-96v332h309 v-103h-209v-96q20 10 39.5 14t40.5 4q78 0 117.5 -51t39.5 -131v-37q0 -84 -45 -141t-137 -57q-63 0 -111.5 32.5t-66.5 122.5zM913 74l160 200l27 -4v-120h262q74 0 107.5 24.5t33.5 65.5q0 39 -33 94l-204 348l137 80l227 -397q47 -80 47 -150q0 -98 -83 -156.5 t-210 -58.5h-286v-121h-33z" />
</font>
</defs>
</svg>
