<?xml version="1.0" standalone="no"?>
<!DOCTYPE svg PUBLIC "-//W3C//DTD SVG 1.1//EN" "http://www.w3.org/Graphics/SVG/1.1/DTD/svg11.dtd" >
<svg xmlns="http://www.w3.org/2000/svg">
<metadata></metadata>
<defs>
<font id="pf_din_text_comp_proXThIt" horiz-adv-x="3723" >
<font-face units-per-em="2048" ascent="1536" descent="-512" />
<missing-glyph horiz-adv-x="327" />
<glyph unicode="fj" horiz-adv-x="653" d="M4 -301l238 1253h-115l8 45h115l55 287q20 98 77.5 150.5t156.5 52.5q45 0 93 -12.5t95 -49.5l-35 -36q-41 35 -89 43t-77 8q-66 0 -109.5 -41t-58.5 -111l-57 -291h342l-235 -1218q-23 -113 -71 -155t-134 -42h-29l8 45h8q43 0 72 11.5t47.5 33t29.5 53t19 72.5 l226 1155h-293l-238 -1253h-49z" />
<glyph unicode="ffj" horiz-adv-x="995" d="M-4 -303l246 1255h-115l8 45h111l49 256q20 98 79.5 157.5t160.5 59.5q33 0 76.5 -7t97.5 -36q41 43 91 61.5t99 18.5q45 0 96.5 -11t98.5 -48l-29 -37q-41 35 -89 43t-77 8q-76 0 -127 -41t-70 -131l-59 -293h342l-235 -1218q-23 -113 -76 -155t-142 -42h-16l8 45h8 q43 0 73 11.5t48.5 33t29.5 53t19 72.5l226 1155h-293l-246 -1255h-51l246 1255h-293l-246 -1255h-49zM297 997h297l61 308q4 16 10.5 37.5t18.5 41.5q-47 27 -91 33t-61 6q-82 0 -126 -48t-58 -118z" />
<glyph unicode="&#xfb00;" horiz-adv-x="690" d="M-6 -301l244 1253h-115l8 45h115l55 279q20 98 76.5 150.5t150.5 52.5q33 0 81 -7.5t102 -35.5q35 45 86 64.5t108 19.5h27l-10 -45h-27q-90 0 -133 -48.5t-60 -121.5l-59 -308h174l-8 -45h-174l-244 -1253h-49l244 1253h-297l-244 -1253h-51zM297 997h297l57 297 q4 16 12.5 47t20.5 52q-41 25 -88 32t-64 7q-78 0 -121.5 -41t-58.5 -111z" />
<glyph unicode="&#xfb01;" horiz-adv-x="653" d="M-4 -301l244 1253h-115l8 45h115l55 287q20 98 77.5 150.5t156.5 52.5q45 0 93 -12.5t95 -49.5l-35 -36q-41 35 -89 43t-77 8q-66 0 -109.5 -41t-58.5 -111l-57 -291h346l-192 -997h-50l185 952h-297l-244 -1253h-51z" />
<glyph unicode="&#xfb02;" horiz-adv-x="679" d="M-2 -303l242 1255h-119l8 45h119l53 275q45 231 236 231q37 0 94 -6t110 -29l-243 -1247q-8 -41 -10.5 -75.5t8 -60.5t36 -40t72.5 -14h25l-8 -45h-29q-90 0 -129 48t-17 169l238 1231q-43 12 -79 16t-70 4q-86 0 -126 -50t-59 -142l-51 -265h201l-8 -45h-201l-242 -1255 h-51z" />
<glyph unicode="&#xfb03;" horiz-adv-x="995" d="M-8 -303l244 1255h-115l8 45h115l49 256q20 98 79.5 157.5t159.5 59.5q33 0 77 -7t98 -36q41 43 91 61.5t99 18.5q45 0 96 -11t99 -48l-29 -37q-41 35 -89 43t-77 8q-76 0 -127 -41t-70 -131l-59 -293h348l-192 -997h-52l185 952h-297l-244 -1255h-49l244 1255h-297 l-244 -1255h-51zM295 997h297l61 308q4 16 10.5 37.5t18.5 41.5q-47 27 -91 33t-61 6q-82 0 -126 -48t-58 -118z" />
<glyph unicode="&#xfb04;" horiz-adv-x="1032" d="M-2 -301l240 1253h-115l8 45h115l51 263q18 98 83.5 149t151.5 51q33 0 80 -7t95 -36q41 49 88 67.5t96 18.5q35 0 91 -6t110 -29l-244 -1247q-8 -41 -11 -75.5t4 -60.5t29.5 -40t67.5 -14h39l-8 -45h-29q-92 0 -130 48t-15 169l239 1233q-45 14 -79.5 18t-67.5 4 q-80 0 -127 -52t-66 -144l-51 -265h215l-8 -45h-215l-240 -1253h-49l240 1253h-297l-240 -1253h-51zM297 997h297l53 275q6 29 14.5 55.5t20.5 48.5q-18 14 -41 21.5t-44.5 11.5t-39.5 5t-27 1q-74 0 -121 -41t-61 -110z" />
<glyph unicode="ft" horiz-adv-x="749" d="M-2 -295l244 1247h-115l8 45h115l51 265q25 127 91.5 176t160.5 49h31l-11 -45h-30q-88 0 -131 -48t-60 -122l-53 -275h293l55 287h51l-55 -287h158l-8 -45h-158l-143 -735q-14 -74 10 -123t112 -49h19l-8 -45h-19q-43 0 -78.5 12.5t-59.5 39t-31 69.5t5 106l142 725 h-293l-244 -1247h-49z" />
<glyph horiz-adv-x="0" />
<glyph horiz-adv-x="682" />
<glyph unicode=" "  horiz-adv-x="327" />
<glyph unicode="&#x09;" horiz-adv-x="327" />
<glyph unicode="&#xa0;" horiz-adv-x="327" />
<glyph unicode="!" horiz-adv-x="378" d="M74 0l12 72h70l-13 -72h-69zM145 313q25 131 50.5 271.5t53 284t54.5 283.5t51 273h60q-29 -133 -56.5 -273t-56.5 -283.5t-57.5 -284t-55.5 -271.5h-43z" />
<glyph unicode="&#x22;" horiz-adv-x="329" d="M213 1102l63 323h48l-64 -323h-47zM332 1102l63 323h47l-63 -323h-47z" />
<glyph unicode="#" horiz-adv-x="696" d="M-49 0l174 455h-117l6 39h123l170 442h-104l8 41h113l178 461h47l-178 -461h266l178 461h47l-178 -461h117l-8 -41h-125l-170 -442h98l-6 -39h-107l-174 -455h-45l174 455h-268l-174 -455h-45zM184 494h267l170 442h-267z" />
<glyph unicode="$" horiz-adv-x="696" d="M0 225q0 14 1 27.5t3 28.5l57 10q-6 -35 -6 -66q0 -78 44 -131t149 -59l137 702q-66 37 -107.5 70t-66.5 66.5t-35 67.5t-10 71q0 86 23.5 161.5t68.5 133t111.5 92.5t152.5 39l37 192h45l-39 -194q70 -4 116 -22.5t74.5 -49.5t41 -69t12.5 -78q0 -33 -6 -66l-55 -12 q6 33 6 65q0 74 -44 127t-153 58l-121 -617q119 -59 172.5 -118.5t53.5 -153.5q0 -104 -22 -197.5t-68 -163t-116.5 -110.5t-170.5 -43l-41 -209h-45l41 211q-131 10 -185.5 75.5t-54.5 161.5zM221 1018q0 -68 39 -118t137 -105l115 591q-84 -6 -140.5 -47t-90 -96 t-47 -116.5t-13.5 -108.5zM293 35q90 4 150.5 46t97.5 105.5t52 141t15 155.5q0 84 -42 133.5t-140 100.5z" />
<glyph unicode="%" horiz-adv-x="1073" d="M68 -35l933 1497h52l-934 -1497h-51zM92 733l105 541q16 76 57 117t127 41q74 0 121 -45.5t33 -120.5l-101 -545q-16 -74 -57 -115t-127 -41q-37 0 -70 11.5t-54.5 33t-31.5 52t-2 71.5zM141 731q-10 -45 16.5 -83t98.5 -38q66 0 93.5 35t33.5 76l100 545 q10 47 -19.5 82.5t-88.5 35.5q-66 0 -91.5 -33.5t-35.5 -80.5zM625 158l104 540q16 76 57 117t127 41q74 0 121 -45t33 -121l-100 -545q-16 -74 -57.5 -114.5t-127.5 -40.5q-37 0 -69.5 11t-54 32.5t-32 52.5t-1.5 72zM674 156q-10 -45 16.5 -83t97.5 -38q66 0 93.5 34.5 t33.5 75.5l101 545q10 47 -19.5 83t-89.5 36q-66 0 -91 -34t-36 -81z" />
<glyph unicode="&#x26;" horiz-adv-x="923" d="M70 246q0 143 81.5 276t254.5 258l-31 76q-29 66 -46.5 137.5t-17.5 141.5q0 61 16.5 115.5t52.5 96.5t93 65.5t141 23.5q66 0 129.5 -26t92.5 -75l-52 -32q-18 43 -69 65.5t-101 22.5q-72 0 -120 -21.5t-76.5 -56.5t-42 -82t-13.5 -98q0 -63 16.5 -126t37.5 -116 l250 -641q53 78 84.5 152.5t50.5 144.5h47q-20 -82 -65.5 -176.5t-96.5 -167.5l84 -203h-55l-66 166q-53 -57 -99 -92t-89 -54.5t-81 -26.5t-73 -7q-104 0 -170.5 66.5t-66.5 193.5zM117 248q0 -41 11 -81t35.5 -70.5t63.5 -50t95 -19.5q25 0 59.5 10t76.5 31.5t86 57.5 t85 85l-207 526q-94 -72 -153.5 -138.5t-93.5 -128.5t-46 -117.5t-12 -104.5z" />
<glyph unicode="'" horiz-adv-x="251" d="M233 1102l64 323h47l-63 -323h-48z" />
<glyph unicode="(" horiz-adv-x="448" d="M135 297q0 154 31 310.5t87 307t135 289.5t175 256l21 -10q-184 -262 -293 -560t-109 -611q0 -141 20.5 -269.5t57.5 -240.5l-22 -11q-47 104 -75 243.5t-28 295.5z" />
<glyph unicode=")" horiz-adv-x="448" d="M2 -231q86 121 161 261t128 290.5t84 308t31 313.5q0 135 -19.5 263t-56.5 245l24 10q49 -109 74 -244t25 -282q0 -154 -33 -316.5t-90.5 -318.5t-136 -295t-173.5 -246z" />
<glyph unicode="*" horiz-adv-x="651" d="M209 1202l29 62l215 -103l36 260h64l-64 -260l256 103l9 -62l-258 -78l118 -209l-57 -34l-94 227l-180 -227l-45 34l196 209z" />
<glyph unicode="+" horiz-adv-x="696" d="M68 575l10 50h282l62 313h47l-61 -313h282l-10 -50h-283l-61 -319h-47l61 319h-282z" />
<glyph unicode="," horiz-adv-x="219" d="M-53 -168l67 168h-18l12 74h74l-12 -74l-86 -168h-37z" />
<glyph unicode="-" horiz-adv-x="632" d="M125 557l12 57h455l-12 -57h-455z" />
<glyph unicode="." horiz-adv-x="219" d="M-8 0l14 78h74l-14 -78h-74z" />
<glyph unicode="/" horiz-adv-x="448" d="M-86 -86l684 1571h47l-686 -1571h-45z" />
<glyph unicode="0" horiz-adv-x="696" d="M57.5 144.5q-10.5 48.5 1.5 103.5l189 956q23 119 96.5 176.5t183.5 57.5q53 0 98.5 -18.5t76 -50.5t44 -78t3.5 -101l-187 -959q-12 -70 -40.5 -116.5t-67.5 -75.5t-87.5 -41t-99.5 -12q-57 0 -101 20.5t-71.5 55t-38 83zM109 242q-14 -92 29.5 -149.5t140.5 -57.5 q92 0 153.5 55t77.5 141l188 959q16 84 -31 142.5t-141 58.5q-98 0 -154.5 -50.5t-72.5 -136.5z" />
<glyph unicode="1" horiz-adv-x="696" d="M311 2l264 1364l-253 -152l12 62l250 149h55l-277 -1423h-51z" />
<glyph unicode="2" horiz-adv-x="696" d="M14 0l11 53l561 815q55 80 90 155t35 173q0 80 -44 137.5t-137 57.5q-37 0 -75.5 -13.5t-73.5 -42t-60.5 -71.5t-31.5 -105l-51 10q16 135 98 202t188 67q125 0 181.5 -66.5t56.5 -169.5q0 -115 -44 -202t-102 -169l-538 -780h448l-8 -51h-504z" />
<glyph unicode="3" horiz-adv-x="696" d="M59 195q0 16 1 28.5t6 30.5l49 8q-2 -16 -3 -29.5t-1 -27.5q0 -78 35.5 -126t127.5 -48q201 0 248 241l43 224q4 25 6 45t2 39q0 78 -36.5 109.5t-108.5 31.5h-51l10 55h55q35 0 69 11.5t63.5 36t51 65.5t33.5 100l37 187q6 27 6 51q0 72 -40.5 118t-126.5 46 q-57 0 -99.5 -17.5t-71 -48.5t-46 -71t-25.5 -85l-55 11q27 123 97.5 190.5t205.5 67.5q104 0 158.5 -56.5t54.5 -148.5q0 -18 -3 -36.5t-8 -41.5l-22 -119q-6 -37 -18.5 -82t-34 -87t-56 -74.5t-86.5 -47.5q57 -18 78 -61t21 -96q0 -29 -4.5 -58.5t-10.5 -60.5l-39 -207 q-12 -57 -34.5 -107.5t-58.5 -88t-87 -59t-121 -21.5q-43 0 -81.5 11t-67.5 35.5t-45.5 64.5t-16.5 98z" />
<glyph unicode="4" horiz-adv-x="696" d="M25 260l10 47l512 1118h51l-516 -1118h373l77 402h52l-78 -402h123l-11 -47h-122l-50 -258h-51l49 258h-419z" />
<glyph unicode="5" horiz-adv-x="696" d="M66 199q0 31 6 67h49q-2 -16 -3 -29.5t-1 -27.5q0 -78 35.5 -128t128.5 -50q90 0 155.5 57t85.5 156l78 397q23 111 -20 163t-140 52q-59 0 -116.5 -24.5t-83.5 -65.5h-52l129 659h478l-9 -43h-430l-106 -548h4q37 33 90 51t117 18q109 0 163 -64.5t31 -174.5l-82 -418 q-10 -51 -32.5 -98.5t-58.5 -83t-87 -57t-121 -21.5q-88 0 -148 49t-60 164z" />
<glyph unicode="6" horiz-adv-x="696" d="M55 188q0 29 6 60l50 254q10 55 25.5 96t37.5 78l428 749h53l-397 -694h6q29 25 75 43.5t87 18.5q88 0 146.5 -47.5t58.5 -139.5q0 -27 -6 -57l-62 -313q-25 -123 -100.5 -185.5t-196.5 -62.5q-96 0 -153.5 52t-57.5 148zM106 205q0 -72 44.5 -121t121.5 -49q88 0 155 50 t83 148l61 314q6 25 7 49q0 66 -41 106.5t-127 40.5q-47 0 -88 -18t-73 -50t-53.5 -72t-29.5 -83l-55 -274q-2 -10 -3.5 -20.5t-1.5 -20.5z" />
<glyph unicode="7" horiz-adv-x="696" d="M88 0l662 1382h-428l-35 -180h-49l43 223h528l-8 -43l-662 -1382h-51z" />
<glyph unicode="8" horiz-adv-x="696" d="M53 186q0 27 6 56l56 284q31 162 174 213q-43 20 -69.5 59.5t-26.5 98.5v24.5t4 26.5l55 264q25 119 104 172.5t183 53.5q90 0 151.5 -51.5t61.5 -143.5q0 -29 -7 -55l-45 -240q-16 -84 -61 -135t-109 -78q43 -20 69 -58t26 -95q0 -25 -7 -56l-61 -317 q-25 -125 -103.5 -174t-181.5 -49q-94 0 -156.5 52t-62.5 148zM106 195q0 -72 44.5 -116t121.5 -44q199 0 234 174l61 317q6 25 6 45q0 66 -42 104t-128 38q-90 0 -155.5 -50.5t-81.5 -136.5l-55 -284q-4 -12 -4.5 -24.5t-0.5 -22.5zM244 909q0 -70 46 -108.5t124 -38.5 q90 0 154.5 50t80.5 136l45 240q4 10 4 21.5v21.5q0 72 -42.5 116t-120.5 44q-90 0 -151.5 -46.5t-80.5 -132.5l-55 -264q-2 -10 -3 -19t-1 -20z" />
<glyph unicode="9" horiz-adv-x="696" d="M152 0l397 694h-6q-29 -25 -75 -43t-87 -18q-88 0 -146.5 47t-58.5 139q0 27 6 58l62 313q27 131 103.5 189.5t197.5 58.5q88 0 147.5 -52.5t59.5 -148.5q0 -29 -7 -59l-49 -254q-10 -55 -25.5 -96.5t-37.5 -77.5l-428 -750h-53zM229 829q0 -66 41 -106.5t127 -40.5 q47 0 88 18.5t73 50t53.5 71.5t29.5 83l55 275q2 10 3 20t1 21q0 72 -44 121t-121 49q-88 0 -155 -50.5t-83 -148.5l-61 -313q-6 -25 -7 -50z" />
<glyph unicode=":" horiz-adv-x="219" d="M-6 0l14 78h74l-14 -78h-74zM117 633l14 78h74l-15 -78h-73z" />
<glyph unicode=";" horiz-adv-x="219" d="M-53 -168l67 168h-18l12 74h74l-12 -74l-86 -168h-37zM117 633l14 78h74l-15 -78h-73z" />
<glyph unicode="&#x3c;" horiz-adv-x="696" d="M68 575l10 50l680 354l-8 -53l-633 -330l504 -328l-11 -47z" />
<glyph unicode="=" horiz-adv-x="696" d="M37 420l10 47h612l-10 -47h-612zM94 707l8 47h613l-8 -47h-613z" />
<glyph unicode="&#x3e;" horiz-adv-x="696" d="M0 221l10 55l631 328l-502 330l8 45l545 -354l-10 -50z" />
<glyph unicode="?" horiz-adv-x="673" d="M193 1157q31 131 116.5 206t212.5 75q137 0 193.5 -67.5t56.5 -168.5q0 -70 -11 -124t-28.5 -94t-36 -68.5t-32.5 -47.5q-82 -104 -121 -150t-58 -71q-25 -33 -48 -84t-34 -98l-30 -152h-49l32 164q2 16 10.5 40t18.5 48.5t23.5 48t27.5 41.5l187 232q55 68 75.5 152.5 t20.5 156.5q0 96 -49 144.5t-160 48.5q-84 0 -161 -60.5t-107 -181.5zM256 0l12 72h70l-12 -72h-70z" />
<glyph unicode="@" horiz-adv-x="1499" d="M131 459q0 213 60.5 393t169 310t260 204t335.5 74q123 0 220.5 -36t164 -101.5t101.5 -157.5t35 -203q0 -150 -32 -265.5t-84 -195.5t-119.5 -122t-137.5 -42q-12 0 -39 3.5t-55.5 17.5t-52 41t-27.5 74q-31 -41 -63.5 -64.5t-63.5 -36t-56.5 -15.5t-41.5 -3 q-102 0 -148.5 46t-48.5 101q-4 47 5 121t26 156q33 188 98 272t194 84q66 0 115 -32.5t68 -77.5h4l16 96h47l-106 -594q-6 -37 3 -63.5t28.5 -45t46 -27t55.5 -8.5q57 0 115.5 39t104.5 114t75 181.5t29 241.5q0 109 -36 194t-98.5 143t-150.5 89t-193 31 q-184 0 -328.5 -75t-242.5 -202t-150.5 -293t-52.5 -350q0 -233 129 -368.5t387 -135.5q78 0 174.5 18.5t180.5 55.5l18 -43q-88 -35 -182 -56.5t-191 -21.5q-270 0 -417.5 133t-147.5 402zM557 500q2 -61 45.5 -91t106.5 -30q49 0 89 20.5t69.5 52t49 70.5t27.5 76l45 246 q2 12 3 25.5t1 25.5q0 74 -44 125t-122 51q-59 0 -105 -28.5t-75 -81.5q-14 -27 -30.5 -86.5t-30 -128t-21.5 -136t-8 -110.5z" />
<glyph unicode="A" horiz-adv-x="751" d="M-66 0l596 1425h74l49 -1425h-49l-12 401h-436l-168 -401h-54zM174 449h416l-17 565l-10 364h-4l-151 -368z" />
<glyph unicode="B" horiz-adv-x="835" d="M25 0l276 1425h287q154 0 219 -68.5t65 -185.5q0 -152 -59 -261t-180 -156v-2q76 -29 105.5 -86.5t29.5 -139.5q0 -135 -37 -234t-96.5 -164t-136 -96.5t-156.5 -31.5h-317zM84 51h252q98 0 171 40t120 106.5t69.5 150.5t22.5 172q0 102 -49 156.5t-154 54.5h-299z M225 776h289q72 0 128 30t96 82t61.5 121.5t21.5 151.5q0 109 -56 164t-194 55h-227z" />
<glyph unicode="C" horiz-adv-x="782" d="M74 328l157 809q14 76 49 132t83.5 94t102.5 56.5t109 18.5q125 0 202 -57.5t77 -168.5q0 -16 -2 -33.5t-6 -35.5l-53 -13q10 45 10 74q0 88 -57.5 137.5t-157.5 49.5q-115 0 -198 -67t-107 -189l-160 -820q-9 -43 -9 -81q0 -76 36 -126q54 -76 178 -77q127 0 202.5 64.5 t102.5 199.5l51 -8q-35 -168 -128 -234.5t-228 -66.5q-154 0 -220 88q-44 59 -45 152q0 47 11 102z" />
<glyph unicode="D" horiz-adv-x="808" d="M23 0l278 1425h291q123 0 191.5 -46t76.5 -150q1 -15 1 -31q1 -68 -19 -174q-24 -131 -60 -309q-16 -88 -31.5 -170t-30.5 -152.5t-31.5 -127t-35.5 -89.5q-31 -57 -65.5 -92t-74.5 -53.5t-85 -24.5t-100 -6h-305zM84 49h262q137 0 209 76t100 217l146 754q4 14 6 39.5 t2 46.5q0 86 -48 142t-167 56h-250z" />
<glyph unicode="E" horiz-adv-x="716" d="M25 0l276 1425h565l-10 -47h-514l-119 -618h457l-10 -47h-457l-129 -664h514l-8 -49h-565z" />
<glyph unicode="F" horiz-adv-x="708" d="M27 0l276 1425h565l-10 -47h-514l-119 -618h457l-10 -47h-457l-137 -713h-51z" />
<glyph unicode="G" horiz-adv-x="788" d="M66 219q0 47 12 109l158 809q14 76 48.5 132t83 94t102.5 56.5t110 18.5q125 0 201.5 -57.5t76.5 -168.5q0 -16 -2 -33.5t-6 -35.5l-53 -13q10 45 10 74q0 88 -57.5 137.5t-157.5 49.5q-115 0 -198 -67t-107 -189l-160 -820q-8 -41 -8 -86q0 -111 61.5 -154.5 t151.5 -43.5q115 2 200.5 71.5t108.5 188.5l78 381h-182l10 51h233l-84 -434q-29 -147 -129 -225t-235 -78q-55 0 -103.5 11t-84 37.5t-57 72t-21.5 112.5z" />
<glyph unicode="H" horiz-adv-x="827" d="M25 0l276 1425h51l-131 -669h514l131 669h54l-277 -1425h-53l137 707h-514l-137 -707h-51z" />
<glyph unicode="I" horiz-adv-x="337" d="M61 0l277 1425h51l-276 -1425h-52z" />
<glyph unicode="J" horiz-adv-x="667" d="M-41 37l31 37q33 -23 76 -32t79 -9q39 0 85 8t88 34.5t76 77t50 134.5l224 1138h51l-223 -1146q-27 -147 -112 -220t-243 -73q-51 0 -103 14t-79 37z" />
<glyph unicode="K" horiz-adv-x="794" d="M23 0l276 1425h51l-178 -909h4l680 909h62l-414 -559l203 -866h-58l-188 811l-311 -420l-76 -391h-51z" />
<glyph unicode="L" horiz-adv-x="673" d="M27 0l276 1425h51l-268 -1376h494l-9 -49h-544z" />
<glyph unicode="M" horiz-adv-x="1056" d="M20 0l277 1425h49l170 -1026h6l572 1026h55l-277 -1425h-49l248 1278h-4l-532 -950h-56l-157 934h-7l-243 -1262h-52z" />
<glyph unicode="N" horiz-adv-x="864" d="M20 0l277 1425h49l303 -1292h6l252 1292h49l-276 -1425h-49l-303 1303h-4l-252 -1303h-52z" />
<glyph unicode="O" horiz-adv-x="815" d="M66 238q0 35 6 71l155 807q29 154 128.5 238t240.5 84q115 0 190.5 -63.5t75.5 -182.5q0 -37 -8 -72l-160 -833q-16 -90 -51 -148.5t-82 -92.5t-105.5 -47t-123.5 -13q-115 0 -190.5 65.5t-75.5 186.5zM115 242q0 -98 58 -154.5t157 -56.5q127 0 205.5 55t107.5 203 l160 839q6 33 6 64q0 94 -59.5 146.5t-155.5 52.5q-133 0 -214 -83t-106 -206l-153 -795q-6 -35 -6 -65z" />
<glyph unicode="P" horiz-adv-x="782" d="M25 2l276 1423h250q90 0 152.5 -20.5t100.5 -57t55.5 -89t17.5 -115.5q0 -242 -118 -380t-345 -138h-217l-121 -623h-51zM205 670h211q186 0 297.5 116.5t111.5 350.5q0 55 -13 100t-45 77t-84 49t-130 17h-209z" />
<glyph unicode="Q" horiz-adv-x="811" d="M59 231q0 18 2 37t7 39l161 828q29 154 127.5 228.5t239.5 74.5q123 0 195.5 -59.5t72.5 -176.5q0 -18 -2 -37.5t-6 -40.5l-162 -837q-10 -59 -30.5 -105.5t-47.5 -81.5l107 -90l-37 -41l-106 92q-49 -43 -111.5 -61t-134.5 -18q-123 0 -199 65.5t-76 183.5zM111 242 q0 -98 61 -156.5t160 -58.5q133 0 211 65l-131 113l39 41l129 -113q45 59 63 156l162 844q6 33 6 61q0 96 -59.5 146.5t-157.5 50.5q-135 0 -214 -74t-104 -197l-159 -815q-6 -35 -6 -63z" />
<glyph unicode="R" horiz-adv-x="794" d="M25 2l276 1423h250q180 0 254 -66.5t74 -191.5q0 -205 -88.5 -328.5t-247.5 -158.5q10 -76 24.5 -164t27.5 -179t27.5 -177t24.5 -160h-53l-100 672q-16 -4 -35 -4h-37h-217l-129 -666h-51zM213 713h211q88 0 161.5 26.5t128 80.5t84 139t29.5 202q0 106 -59 162.5 t-215 56.5h-209z" />
<glyph unicode="S" horiz-adv-x="757" d="M35 225q0 14 1 27.5t3 28.5l57 10q-6 -35 -6 -66q0 -80 49 -135t168 -55q96 0 160.5 40t103.5 104.5t55.5 144t16.5 159.5q0 86 -45 137.5t-152 104.5q-74 39 -122 74t-75.5 69.5t-37.5 69.5t-10 74q0 88 24.5 165.5t71.5 135t117.5 91.5t160.5 34q76 0 127.5 -18.5 t83 -49.5t45 -70.5t13.5 -82.5q0 -33 -6 -66l-56 -12q6 33 6 65q0 39 -11 73t-36.5 58.5t-66.5 39t-101 14.5q-92 0 -153.5 -40t-97 -96.5t-51 -121t-15.5 -113.5q0 -39 12.5 -71t40 -62.5t74.5 -61t115 -63.5q115 -55 156.5 -115.5t41.5 -150.5q0 -106 -21.5 -198.5 t-68.5 -161t-119.5 -108.5t-175.5 -40q-76 0 -128 18.5t-84.5 50t-48 75.5t-15.5 95z" />
<glyph unicode="T" horiz-adv-x="653" d="M197 1378l10 47h622l-10 -47h-284l-267 -1378h-51l266 1378h-286z" />
<glyph unicode="U" horiz-adv-x="778" d="M49 184q-5 27 -5 56q0 40 9 84l221 1099h50l-222 -1101q-9 -42 -9 -78q1 -77 39 -132q56 -81 179 -81q127 0 206 66.5t108 209.5l227 1116h53l-229 -1118q-18 -90 -52 -151.5t-81 -98.5t-105.5 -53t-124.5 -16q-70 0 -125 23.5t-91 68t-48 106.5z" />
<glyph unicode="V" horiz-adv-x="757" d="M209 1425h47l29 -1009l8 -369h4l152 365l425 1013h54l-600 -1425h-76z" />
<glyph unicode="W" horiz-adv-x="1191" d="M190 0l21 1425h47l-16 -905l-11 -473h5l180 469l348 909h51l-8 -923l-4 -455h4l170 453l344 925h51l-532 -1425h-80l4 913l2 381h-4l-146 -383l-346 -911h-80z" />
<glyph unicode="X" horiz-adv-x="679" d="M-74 0l439 713l-162 708h55l145 -649l392 649h63l-438 -708l166 -713h-56l-143 651l-397 -651h-64z" />
<glyph unicode="Y" horiz-adv-x="690" d="M211 1425h49l123 -757h4l416 757h57l-461 -825l-114 -600h-52l115 600z" />
<glyph unicode="Z" horiz-adv-x="606" d="M-66 0l9 47l766 1331h-459l10 47h512l-8 -45l-768 -1331h477l-8 -49h-531z" />
<glyph unicode="[" horiz-adv-x="391" d="M0 -227l322 1652h221l-11 -49h-165l-304 -1556h166l-8 -47h-221z" />
<glyph unicode="\" horiz-adv-x="448" d="M213 -86v1571h47v-1571h-47z" />
<glyph unicode="]" horiz-adv-x="391" d="M0 -227l8 47h166l303 1556h-166l11 49h221l-322 -1652h-221z" />
<glyph unicode="^" horiz-adv-x="696" d="M86 809l432 612h49l195 -612h-45l-180 569l-396 -569h-55z" />
<glyph unicode="_" horiz-adv-x="1024" d="M-127 -233l10 49h1022l-10 -49h-1022z" />
<glyph unicode="`" horiz-adv-x="684" d="M446 1436l62 34l164 -323l-27 -17z" />
<glyph unicode="a" horiz-adv-x="714" d="M53 170q0 66 13.5 162t35.5 211q25 131 54.5 221t69.5 145.5t92.5 80t125.5 24.5q84 0 139.5 -34t78.5 -87h4l20 102h49l-190 -995h-51l26 129h-4q-49 -66 -113.5 -104.5t-150.5 -38.5q-55 0 -93 15t-61.5 41t-34 59.5t-10.5 68.5zM106 178q0 -74 47.5 -109.5 t110.5 -35.5q55 0 104.5 23.5t87.5 61.5t63.5 85t33.5 92l82 428q5 27 5 53q0 67 -34 119q-48 72 -157 72q-145 0 -218 -150q-10 -20 -22 -63t-26.5 -101.5t-28 -125t-23.5 -131t-17.5 -122t-7.5 -96.5z" />
<glyph unicode="b" horiz-adv-x="690" d="M2 0l287 1487h51l-121 -617h4q41 66 110.5 105t155.5 39q94 0 140.5 -42t56.5 -102q2 -18 3 -40q0 -16 -2 -34q-3 -44 -10 -97.5t-17.5 -116t-22.5 -125.5q-10 -53 -22.5 -112.5t-32.5 -125.5q-39 -133 -115 -183t-168 -50q-84 0 -141.5 31.5t-79.5 84.5h-4l-23 -102h-49 zM104 276q-7 -33 -7 -61q0 -68 38 -115q54 -67 156 -67q82 0 131 32.5t90 116.5q16 33 34.5 112t37.5 175q8 47 18 102.5t17.5 106.5t11.5 92q3 27 3 47q0 10 -1 17q-6 68 -50 100.5t-108 32.5q-55 0 -104 -23.5t-87 -61.5t-63.5 -85t-34.5 -92z" />
<glyph unicode="c" horiz-adv-x="669" d="M45 158q-1 8 -1 18q0 20 3 46q4 40 11.5 85t15.5 92t16 88q12 55 24.5 111.5t25 107t25.5 90.5t25 64q37 68 102 111t171 43q117 0 181 -62q47 -46 46 -125q0 -28 -6 -61l-55 -10q5 29 5 55q0 61 -29 99q-42 56 -146 55q-57 0 -116.5 -25t-102.5 -94 q-23 -39 -47.5 -141.5t-55.5 -255.5q-8 -37 -15 -80t-13.5 -83t-9.5 -74t-1 -52q10 -59 56.5 -93t124.5 -34q98 0 161.5 50t87.5 159l54 -11q-55 -245 -301 -245h-2q-61 0 -104.5 14t-71 38.5t-42 55.5t-16.5 64z" />
<glyph unicode="d" horiz-adv-x="690" d="M41 182q0 25 4 67t10 87t13.5 88t13.5 72q27 125 52.5 221t62 161.5t94 100.5t149.5 35q53 0 90 -14.5t60.5 -35t38 -43t20.5 -38.5h4l119 604h51l-288 -1487h-52l19 102h-4q-45 -53 -103.5 -84.5t-142.5 -31.5q-41 0 -79 9t-66.5 32.5t-47 61.5t-18.5 93zM96 195 q0 -90 44 -126t124 -36q102 0 176 67.5t97 175.5l81 420q6 33 7 68q0 41 -10.5 77t-34 63.5t-60.5 44t-90 16.5q-63 0 -107 -25t-77 -80t-58.5 -146t-52.5 -225q-16 -88 -27.5 -172t-11.5 -122z" />
<glyph unicode="e" horiz-adv-x="712" d="M61 231q0 53 9.5 119t19.5 129q20 100 45 196.5t65 171.5t103.5 121t159.5 46q131 0 187.5 -54.5t56.5 -140.5q0 -92 -32 -161.5t-85 -115.5t-124 -68.5t-147 -22.5q-23 0 -69.5 4t-104.5 16q-12 -59 -21 -119.5t-9 -105.5q0 -41 7 -79t26.5 -67.5t54.5 -48t90 -18.5 q98 0 161.5 52t86.5 144l49 -10q-29 -117 -106.5 -174t-194.5 -57q-63 0 -107.5 18.5t-71 52t-38 77.5t-11.5 95zM154 522q18 -4 41.5 -8t48 -7t47 -4t39.5 -1q59 0 117.5 17.5t103.5 55t72.5 96t27.5 138.5q0 70 -46 113t-144 43q-115 0 -188.5 -104.5t-118.5 -338.5z" />
<glyph unicode="f" horiz-adv-x="354" d="M-180 -260l10 49q98 0 151.5 40t69.5 126l193 997h-131l8 45h131l51 265q23 123 78 176t154 53q12 0 25 -1t28 -3l-10 -45q-10 2 -18.5 2h-18.5q-47 0 -80 -14.5t-53.5 -38t-33 -54t-18.5 -65.5l-53 -275h176l-8 -45h-176l-191 -987q-43 -227 -247 -227h-18.5t-18.5 2z " />
<glyph unicode="g" horiz-adv-x="714" d="M-16 -219q0 10 1 22.5t3 24.5l49 10q-4 -14 -4 -27.5v-25.5q0 -74 43 -115t129 -41q211 0 258 221l53 279h-4q-49 -66 -114.5 -104.5t-151.5 -38.5q-94 0 -140.5 42t-56.5 101q-2 18 -2 40q0 16 1 35q3 44 10.5 97t17.5 114.5t22 127.5q10 53 22.5 112.5t33.5 124.5 q39 133 114.5 183.5t167.5 50.5q84 0 141.5 -32t79.5 -85h5l22 102h49l-219 -1144q-14 -76 -45 -128.5t-72 -84t-92 -46t-106 -14.5q-90 0 -152.5 47t-62.5 152zM102 166q8 -68 51.5 -100.5t106.5 -32.5q55 0 104.5 23.5t87 61.5t62.5 85t35 92l82 428q7 33 7 61 q0 68 -38 116q-54 67 -156 67q-82 0 -131 -33t-90 -117q-16 -33 -34.5 -111.5t-36.5 -175.5q-10 -47 -19.5 -102t-16.5 -106.5t-12 -93.5q-3 -29 -3 -48q0 -8 1 -14z" />
<glyph unicode="h" horiz-adv-x="722" d="M10 0l289 1489h51l-123 -627h4q49 70 122 111t145 41q57 0 97 -15.5t62.5 -42t32.5 -62.5t10 -77q0 -25 -4 -51.5t-8 -52.5l-139 -713h-53l139 719q10 47 10 88q0 63 -31.5 109.5t-119.5 46.5q-57 0 -107.5 -26t-90.5 -67t-67.5 -91t-35.5 -97l-132 -682h-51z" />
<glyph unicode="i" horiz-adv-x="301" d="M41 0l192 997h52l-193 -997h-51zM279 1237l12 66h57l-12 -66h-57z" />
<glyph unicode="j" horiz-adv-x="276" d="M-190 -416l8 49h8q43 0 72.5 11.5t48 33t30 53t19.5 72.5l233 1194h52l-236 -1212q-23 -113 -77 -157t-142 -44h-16zM276 1237l13 66h57l-12 -66h-58z" />
<glyph unicode="k" horiz-adv-x="679" d="M4 0l289 1489h51l-217 -1116h2l526 622h66l-303 -358l170 -637h-53l-156 592l-270 -324l-54 -268h-51z" />
<glyph unicode="l" horiz-adv-x="303" d="M55 203l250 1284h51l-247 -1266q-9 -45 -9 -80q0 -31 7 -54q14 -50 98 -50h33l-9 -51h-26q-90 0 -130 48q-26 31 -26 92q0 34 8 77z" />
<glyph unicode="m" horiz-adv-x="1171" d="M10 0l193 997h51l-27 -135h4q49 70 117 111t139 41q106 0 147.5 -49.5t45.5 -118.5q70 98 142.5 133t131.5 35q57 0 95 -15.5t61 -42t31 -62.5t8 -77q0 -25 -4 -51.5t-8 -52.5l-140 -713h-53l139 719q10 47 11 88q0 63 -28 109.5t-116 46.5q-55 0 -103 -25t-85 -63.5 t-62.5 -87t-37.5 -93.5l-134 -694h-51l139 719q4 23 7.5 48.5t3.5 39.5q0 63 -28 109.5t-116 46.5q-57 0 -106 -26t-87 -67t-63.5 -91t-33.5 -97l-132 -682h-51z" />
<glyph unicode="n" horiz-adv-x="722" d="M10 0l193 997h51l-27 -135h4q49 70 122 111t145 41q57 0 97 -15.5t62.5 -42t32.5 -62.5t10 -77q0 -25 -4 -51.5t-8 -52.5l-139 -713h-53l139 719q10 47 10 88q0 63 -31.5 109.5t-119.5 46.5q-57 0 -107.5 -26t-90.5 -67t-67.5 -91t-35.5 -97l-132 -682h-51z" />
<glyph unicode="o" horiz-adv-x="702" d="M43 190q0 51 10 137.5t27 164.5q27 137 54.5 236t67.5 162.5t99.5 93.5t149.5 30q61 0 104 -19.5t69.5 -49.5t39 -66.5t12.5 -71.5q0 -59 -11.5 -146.5t-33.5 -203.5q-25 -129 -52.5 -219.5t-67.5 -145.5t-97.5 -80.5t-141.5 -25.5q-66 0 -109.5 18.5t-70 48t-38 65.5 t-11.5 72zM94 195q0 -31 9.5 -61t30 -52.5t55 -36.5t87.5 -14q76 0 136.5 33.5t95.5 115.5q12 31 32.5 105.5t40 166t33 182.5t13.5 154q0 78 -46.5 128.5t-138.5 50.5q-57 0 -113.5 -22.5t-97.5 -94.5q-29 -47 -54 -146.5t-54 -250.5q-18 -92 -23.5 -154.5t-5.5 -103.5z " />
<glyph unicode="p" horiz-adv-x="700" d="M-86 -406l274 1410h52l-19 -103h4q45 53 103.5 85t142.5 32q39 0 78 -9.5t67.5 -33t47 -61t18.5 -93.5q0 -25 -4 -66.5t-10 -86.5t-13.5 -88t-13.5 -72q-29 -125 -53.5 -221.5t-61.5 -163t-94 -100t-149 -33.5q-53 0 -90 14t-60.5 34.5t-38 43t-20.5 39.5h-4l-105 -527 h-51zM98 240q0 -41 10.5 -77t34 -63.5t60.5 -44t90 -16.5q63 0 107 24.5t77 80t58.5 146.5t52.5 224q16 88 27.5 172t11.5 123q0 45 -14.5 75.5t-38 50t-53 28t-62.5 8.5q-102 0 -176 -67.5t-97 -176.5l-82 -420q-6 -35 -6 -67z" />
<glyph unicode="q" horiz-adv-x="714" d="M49 162q0 66 12.5 157t28.5 173l8 43q10 53 20.5 100t20.5 88q39 141 109.5 212t191.5 71q84 0 140.5 -32t78.5 -85h5l20 102h49l-266 -1397h-51l100 527h-4q-49 -66 -113.5 -105t-150.5 -39q-55 0 -93 15.5t-61.5 41t-34 59.5t-10.5 69zM102 170q0 -145 158 -145 q55 0 104.5 23.5t87 61t63.5 85t34 92.5l82 428q6 31 6 57q0 86 -52.5 136t-140.5 50q-86 0 -137 -38.5t-81.5 -103t-47 -147.5t-33.5 -171q-18 -92 -30.5 -182.5t-12.5 -145.5z" />
<glyph unicode="r" horiz-adv-x="456" d="M37 0l192 997h52l-31 -147h6q45 80 111.5 122t144.5 42h26.5t24.5 -4l-10 -56q-12 4 -25.5 4h-23.5q-111 0 -186.5 -83.5t-104.5 -223.5l-125 -651h-51z" />
<glyph unicode="s" horiz-adv-x="643" d="M8 180q0 12 1 24.5t3 26.5l56 11q-4 -12 -4.5 -24.5t-0.5 -24.5q0 -74 46.5 -117t134.5 -43q141 0 201.5 80t60.5 202q0 66 -35 106t-131 81q-63 27 -103 53.5t-63.5 53t-33 56t-9.5 62.5q0 127 77 207t228 80q104 0 169 -47t65 -144q0 -27 -6 -57l-56 -10q6 27 6 51 q0 76 -49 117t-135 41q-68 0 -114 -20.5t-74.5 -53.5t-41 -74t-12.5 -82q0 -61 41 -103t156 -89q106 -43 142 -96.5t36 -124.5q0 -72 -17.5 -133.5t-55 -106.5t-98 -70.5t-144.5 -25.5q-111 0 -175.5 48t-64.5 146z" />
<glyph unicode="t" horiz-adv-x="436" d="M121 121q-3 17 -3 38q0 31 7 68l141 725h-119l9 45h118l56 287h51l-55 -287h161l-8 -45h-162l-143 -735q-5 -26 -5 -49q1 -42 17 -72q26 -47 115 -47h18l-8 -49h-18q-45 0 -81 12.5t-59.5 39t-31.5 69.5z" />
<glyph unicode="u" horiz-adv-x="722" d="M53 180q0 25 4 51.5t9 53.5l139 712h53l-139 -718q-10 -47 -10 -89q0 -31 7 -59.5t24.5 -50t46 -33.5t73.5 -12q57 0 107.5 25.5t90.5 66.5t66.5 91t36.5 97l131 682h51l-192 -997h-51l26 135h-4q-49 -70 -121.5 -110.5t-144.5 -40.5q-59 0 -98 15t-61.5 42t-33 62.5 t-10.5 76.5z" />
<glyph unicode="v" horiz-adv-x="606" d="M94 997h49l52 -684q4 -53 6 -115q1 -31 1 -61.5t-1 -60.5h4q53 100 108.5 215t109.5 234.5t102 240.5t89 231h56q-98 -262 -210 -505.5t-241 -491.5h-53z" />
<glyph unicode="w" horiz-adv-x="1048" d="M98 997h49l31 -698q4 -53 6 -113q1 -20 1 -39q0 -40 -3 -79h4q49 98 99.5 210.5t99.5 232.5t97 244t93 242h64l31 -698q4 -57 7 -117q1 -26 1 -51q0 -33 -2 -63h4q51 100 105.5 216.5t105.5 238.5t97 243t81 229l55 2q-90 -260 -194.5 -504.5t-237.5 -492.5h-59l-29 694 q-2 47 -4 106.5t-2 125.5h-4q-37 -104 -83 -222t-97.5 -239t-105.5 -240t-105 -225h-58z" />
<glyph unicode="x" horiz-adv-x="567" d="M-70 0l330 512l-123 483h58l106 -448l289 448h65l-323 -485l147 -510h-59l-129 469l-299 -469h-62z" />
<glyph unicode="y" horiz-adv-x="622" d="M-129 -373q47 4 89 21.5t82 55.5t78 102.5t77 164.5l-95 1026h56l55 -673q4 -59 13 -137q8 -59 8 -112q0 -16 -1 -32h5q45 88 99 201.5t108.5 238.5t107.5 256t96 258h58q-68 -176 -126.5 -316t-115.5 -267t-117.5 -252t-130.5 -268q-25 -55 -57.5 -110.5t-73.5 -99.5 t-94 -72t-119 -28z" />
<glyph unicode="z" horiz-adv-x="583" d="M-57 0l8 45l624 905h-401l8 45h463l-8 -43l-625 -907h434l-8 -45h-495z" />
<glyph unicode="{" horiz-adv-x="417" d="M104 588l7 26q51 14 83.5 50t54 82.5t33 98.5t21.5 99l53 277q18 92 67.5 148t123.5 56h33l-7 -32h-22q-41 0 -69.5 -20.5t-47 -50.5t-28 -64.5t-15.5 -65.5l-55 -285q-25 -123 -72 -203.5t-104 -99.5v-2q59 -20 70.5 -96t-11.5 -191l-59 -311q-6 -29 -9.5 -63.5t3 -64.5 t27 -50.5t61.5 -20.5h22l-6 -34h-33q-74 0 -101.5 56t-10.5 148l55 287q14 72 22.5 127t3 94t-26 64.5t-63.5 40.5z" />
<glyph unicode="|" horiz-adv-x="325" d="M150 -332v1798h38v-1798h-38z" />
<glyph unicode="}" horiz-adv-x="417" d="M-53 -229l6 34h22q41 0 70 20.5t47.5 50.5t27.5 64.5t15 63.5l60 311q23 115 64.5 191t109.5 96v2q-51 18 -66.5 99t8.5 204l56 285q6 31 9 65.5t-3 64.5t-26.5 50.5t-61.5 20.5h-23l6 32h33q74 0 100.5 -56t8.5 -148l-54 -277q-10 -47 -17 -99t-4 -98.5t22.5 -82 t64.5 -50.5l-6 -26q-47 -14 -78 -40t-50.5 -65t-33.5 -94t-29 -127l-55 -287q-16 -92 -66.5 -148t-123.5 -56h-33z" />
<glyph unicode="~" horiz-adv-x="696" d="M41 477q35 39 82 60.5t96 21.5q45 0 85 -14.5t77 -32.5t70.5 -32.5t66.5 -14.5q35 0 69 11t79 59l26 -25q-73 -90 -182 -90q-39 0 -76 14.5t-73.5 31.5t-74.5 31.5t-79 14.5q-35 0 -69 -13.5t-70 -47.5z" />
<glyph unicode="&#xa1;" horiz-adv-x="378" d="M12 -428q27 131 55.5 272.5t57.5 284.5t57.5 283.5t55.5 271.5h43q-25 -131 -50.5 -271.5t-53 -283.5t-54.5 -284.5t-51 -272.5h-60zM270 926l13 71h69l-12 -71h-70z" />
<glyph unicode="&#xa2;" horiz-adv-x="696" d="M45 158q-2 25 2 64.5t11.5 84.5t15.5 92t16 88q12 55 24.5 111.5t25 107t25.5 90.5t25 64q35 63 93.5 104.5t150.5 47.5l47 235h39l-47 -233q111 -4 172.5 -65.5t38.5 -182.5l-55 -10q18 98 -22 152.5t-142 56.5l-182 -932q96 2 158.5 52t86.5 157l54 -11 q-55 -246 -303 -245h-5l-43 -219h-38l43 221q-49 4 -85 20.5t-58.5 39t-34 51t-13.5 59.5zM98 160q8 -53 46 -86t100 -39l182 928q-51 -4 -100.5 -31t-85.5 -86q-23 -39 -47.5 -141.5t-55.5 -255.5q-8 -37 -15 -80t-13.5 -83t-9.5 -74t-1 -52z" />
<glyph unicode="&#xa3;" horiz-adv-x="696" d="M-20 0l8 49q98 135 165.5 299t82.5 336h-134l11 47h127q-2 86 -9.5 176t-7.5 162q0 82 23.5 149.5t66.5 116.5t104.5 77t139.5 28q49 0 95 -11.5t81 -38t55.5 -67.5t20.5 -100q0 -39 -8 -78l-53 -12q8 39 8 79q0 98 -53.5 139.5t-141.5 41.5q-74 0 -127 -27t-88 -74 t-52.5 -109.5t-17.5 -135.5q0 -72 8.5 -140.5t8.5 -150.5v-25h231l-10 -47h-225q-23 -186 -85.5 -343t-156.5 -292h518l-8 -49h-577z" />
<glyph unicode="&#xa4;" horiz-adv-x="1009" d="M145 340l109 109q-78 90 -78 215q0 61 20.5 116.5t57.5 98.5l-107 106l35 35l107 -107q43 39 98 60.5t119 21.5q61 0 116.5 -21.5t98.5 -58.5l104 105l35 -37l-102 -102q37 -45 58.5 -100.5t21.5 -116.5t-21.5 -116.5t-58.5 -98.5l104 -107l-37 -37l-104 107 q-43 -37 -98.5 -57.5t-116.5 -20.5q-125 0 -215 78l-109 -109zM229 664q0 -57 22.5 -108.5t60.5 -89.5t89.5 -60.5t108.5 -22.5t108.5 22.5t89 60.5t60.5 89t23 109q0 57 -23 108t-60.5 89t-89 60.5t-108.5 22.5t-108.5 -22.5t-89.5 -60.5t-60.5 -89t-22.5 -108z" />
<glyph unicode="&#xa5;" horiz-adv-x="696" d="M78 379l10 43h236l30 162h-235l8 43h225l-112 798h51l102 -755h4l396 755h55l-426 -798h246l-9 -43h-253l-31 -162h254l-11 -43h-253l-72 -379h-51l71 379h-235z" />
<glyph unicode="&#xa6;" horiz-adv-x="325" d="M150 -332v834h38v-834h-38zM150 631v835h38v-835h-38z" />
<glyph unicode="&#xa7;" horiz-adv-x="829" d="M27 -84l26 41q88 -66 205 -66q147 0 228 74t81 185q0 35 -9 66.5t-33.5 65t-67.5 68.5t-111 76q-188 117 -188 250q0 51 20.5 97t53 84t75.5 66.5t90 47.5q-57 51 -80.5 98t-23.5 100q0 119 87 194t232 75q72 0 124 -17.5t106 -62.5l-35 -39q-78 72 -197 72 q-63 0 -112 -17.5t-82 -47.5t-50.5 -68.5t-17.5 -81.5q0 -76 54.5 -133.5t142.5 -114.5q96 -61 160.5 -133t64.5 -166q0 -86 -60.5 -159t-164.5 -136q45 -49 61.5 -96.5t16.5 -90.5q0 -72 -31 -129t-81 -97t-116.5 -60.5t-138.5 -20.5q-57 0 -118.5 19.5t-110.5 56.5z M209 680q0 -55 36 -100t85 -83t100 -69t80 -55q43 20 80 50t65.5 63.5t45 69.5t16.5 71q0 86 -75 159.5t-210 151.5q-37 -16 -77 -40t-71.5 -55.5t-53 -72.5t-21.5 -90z" />
<glyph unicode="&#xa8;" horiz-adv-x="681" d="M311 1194l13 66h57l-12 -66h-58zM602 1194l12 66h58l-13 -66h-57z" />
<glyph unicode="&#xa9;" horiz-adv-x="1439" d="M127 698q0 154 40 285t117.5 228.5t192.5 151.5t266 54q150 0 264.5 -54t192.5 -151.5t119 -228.5t41 -285t-41 -283.5t-119 -226t-192.5 -150.5t-264.5 -54q-152 0 -266.5 54t-192 150.5t-117.5 226.5t-40 283zM178 698q0 -147 39 -269t111.5 -211t177 -138t237.5 -49 q135 0 241 50t177.5 139t109.5 211t38 267t-38 268.5t-109.5 213.5t-177.5 140t-241 50q-141 0 -246.5 -53t-176 -144.5t-106.5 -213t-36 -261.5zM524 487v394q0 106 63.5 161.5t153.5 55.5q86 0 150.5 -52.5t64.5 -158.5l-49 -8q0 82 -47 126t-121 44t-119 -45.5 t-45 -114.5v-406q0 -70 46.5 -113.5t117.5 -43.5q74 0 119 44t45 119l53 -6q0 -49 -17 -87t-47 -64.5t-69 -41t-82 -14.5t-81.5 12.5t-69.5 39t-48.5 66.5t-17.5 93z" />
<glyph unicode="&#xaa;" horiz-adv-x="471" d="M100 710.5q2 28.5 6.5 60.5t10.5 66.5t12 65.5q10 51 19.5 88t21.5 90q10 47 33.5 78t53.5 49.5t61.5 26.5t60.5 8q51 0 87 -18.5t52 -46.5l10 55h54l-129 -660h-52l15 68q-35 -35 -79 -56.5t-91 -21.5q-70 0 -102.5 29t-41.5 70q-4 20 -2 48.5zM156 690 q4 -41 30.5 -59.5t67.5 -18.5q37 0 68.5 14.5t56 37t40 51t21.5 57.5l54 277q12 63 -19.5 104t-99.5 41q-47 0 -89 -26.5t-61 -84.5q-6 -23 -16 -63.5t-23 -99.5q-16 -78 -25 -136.5t-5 -93.5z" />
<glyph unicode="&#xab;" horiz-adv-x="595" d="M80 475l293 381h55l-291 -381l142 -381h-56zM293 475l293 381h55l-291 -381l142 -381h-56z" />
<glyph unicode="&#xac;" horiz-adv-x="696" d="M68 575l10 50h612l-72 -369h-47l62 319h-565z" />
<glyph unicode="&#xad;" horiz-adv-x="632" d="M125 557l12 57h455l-12 -57h-455z" />
<glyph unicode="&#xae;" horiz-adv-x="995" d="M119 1008q0 96 24.5 178t73.5 141t122 93t169 34q92 0 162.5 -34t119 -93t74 -141t25.5 -178q0 -94 -25.5 -175t-75 -140.5t-120 -93.5t-160.5 -34q-92 0 -165 34t-122 93.5t-75.5 140t-26.5 175.5zM166 1012q0 -86 23.5 -160t67.5 -127t107.5 -83t143.5 -30 q82 0 144.5 32t104.5 86t62.5 127t20.5 155q0 84 -22.5 156.5t-65.5 127t-104.5 85t-139.5 30.5q-84 0 -148.5 -30.5t-107.5 -85t-64.5 -127t-21.5 -156.5zM383 743v527h117q70 0 109.5 -38t39.5 -116q0 -41 -18.5 -80t-65.5 -61q23 -55 45.5 -115.5t42.5 -116.5h-55 l-82 230h-84v-230h-49zM432 1012h70q55 0 75.5 28.5t20.5 75.5q0 49 -24.5 78t-77.5 29h-64v-211z" />
<glyph unicode="&#xaf;" horiz-adv-x="714" d="M319 1208l11 49h391l-10 -49h-392z" />
<glyph unicode="&#xb0;" horiz-adv-x="575" d="M121 1237q0 76 52 128t126 52q76 0 127 -52t51 -128q0 -78 -51 -129t-127 -51q-74 0 -126 51t-52 129zM166 1237q0 -59 39 -97t94 -38q57 0 95 38t38 97q0 57 -38 96t-95 39q-55 0 -94 -39t-39 -96z" />
<glyph unicode="&#xb1;" horiz-adv-x="696" d="M-20 125l10 49h612l-10 -49h-612zM68 575l10 50h282l62 313h47l-61 -313h282l-10 -50h-283l-61 -319h-47l61 319h-282z" />
<glyph unicode="&#xb2;" horiz-adv-x="452" d="M80 758l10 47l354 475q35 45 55.5 95t20.5 95q0 41 -25.5 70t-84.5 29q-43 0 -82 -30t-56 -99l-55 12q20 80 75.5 122t125.5 42q74 0 117 -37t43 -96q0 -70 -29 -128.5t-66 -105.5l-329 -442h284l-8 -49h-350z" />
<glyph unicode="&#xb3;" horiz-adv-x="452" d="M117 918l57 8q-12 -53 10.5 -90t85.5 -37q72 0 98.5 34.5t37.5 88.5l26 135q10 53 -3 89t-67 36h-53l8 49h48q41 0 77.5 25.5t46.5 89.5l17 96q6 45 -12.5 86t-83.5 41q-59 0 -95 -40t-43 -95l-55 8q12 80 61.5 127t135.5 47q45 0 76.5 -14.5t49 -39t23.5 -55t0 -63.5 l-14 -72q-8 -43 -26.5 -93t-73.5 -75q39 -23 43 -64.5t-5 -80.5l-26 -137q-6 -33 -18.5 -64t-34 -55.5t-54 -38.5t-82.5 -14q-35 0 -66.5 10t-54 31.5t-32.5 53.5t-2 73z" />
<glyph unicode="&#xb4;" horiz-adv-x="684" d="M451 1151l192 293l62 -27l-226 -278z" />
<glyph unicode="&#xb6;" horiz-adv-x="833" d="M197 1038q0 88 23.5 172t72.5 149.5t127 104.5t186 39h375l-12 -63h-107l-311 -1606h-66l312 1606h-138l-311 -1606h-65l182 938q-123 0 -195.5 66.5t-72.5 199.5z" />
<glyph unicode="&#xb7;" horiz-adv-x="219" d="M106 487l15 82h78l-15 -82h-78z" />
<glyph unicode="&#xb8;" horiz-adv-x="882" d="M70 -389l26 37q29 -16 59.5 -21.5t55.5 -5.5q53 0 91 31t38 78q0 37 -26.5 62.5t-88.5 29.5l-28 22l75 166l45 -4l-65 -143q43 -4 70.5 -16.5t43 -30t21.5 -38t6 -40.5q0 -31 -12 -59.5t-35.5 -51t-57.5 -37t-77 -14.5q-78 0 -141 35z" />
<glyph unicode="&#xb9;" horiz-adv-x="380" d="M231 1456l15 62l168 90h43l-168 -850h-47l153 788z" />
<glyph unicode="&#xba;" horiz-adv-x="485" d="M109 696q0 35 7 97.5t19 128t28.5 125t35.5 90.5q27 45 68.5 75.5t113.5 30.5q51 0 85 -13t53.5 -34.5t26.5 -49.5t7 -54q0 -41 -7 -97.5t-20 -122.5q-16 -86 -34.5 -145t-46 -96t-66.5 -53.5t-94 -16.5q-98 0 -137 41t-39 94zM166 717q0 -45 23.5 -74t91.5 -31 q102 -2 143 84q14 23 27.5 72t23.5 107.5t16.5 117t6.5 97.5q0 53 -34 77.5t-87 24.5q-39 0 -70 -13.5t-57 -54.5q-16 -25 -30.5 -84t-27 -124.5t-19.5 -123t-7 -75.5z" />
<glyph unicode="&#xbb;" horiz-adv-x="595" d="M4 94l293 381l-143 381h55l145 -381l-295 -381h-55zM217 94l293 381l-143 381h55l145 -381l-295 -381h-55z" />
<glyph unicode="&#xbc;" horiz-adv-x="1085" d="M92 -35l934 1497h51l-934 -1497h-51zM244 1272l14 61l168 90h43l-168 -850h-47l154 789zM555 150l8 43l320 657h55l-322 -649h220l45 231h49l-47 -231h82l-11 -51h-80l-28 -150h-49l28 150h-270z" />
<glyph unicode="&#xbd;" horiz-adv-x="1085" d="M45 -35l934 1497h51l-934 -1497h-51zM242 1272l14 61l168 90h43l-168 -850h-47l154 789zM526 0l11 47l354 475q35 45 55.5 95.5t20.5 95.5q0 41 -26 69.5t-85 28.5q-43 0 -82 -29.5t-55 -99.5l-55 12q20 80 75.5 122t124.5 42q74 0 117 -37t43 -96q0 -70 -28.5 -128 t-65.5 -105l-330 -443h285l-8 -49h-351z" />
<glyph unicode="&#xbe;" horiz-adv-x="1085" d="M123 733l57 8q-12 -53 10.5 -90t85.5 -37q72 0 98.5 35t37.5 88l26 135q10 53 -3 89t-66 36h-54l9 50h47q41 0 77.5 25.5t47.5 88.5l16 96q6 45 -12.5 86t-83.5 41q-59 0 -95 -39.5t-42 -95.5l-56 8q12 80 61.5 127.5t135.5 47.5q45 0 76.5 -14.5t49 -39t23.5 -55.5 t0 -63l-14 -72q-8 -43 -26.5 -93.5t-73.5 -74.5q39 -23 43 -65t-4 -81l-27 -137q-6 -33 -18.5 -63.5t-34 -55t-54 -39t-81.5 -14.5q-35 0 -67 10.5t-54.5 32t-32.5 53t-2 72.5zM139 -35l934 1497h51l-934 -1497h-51zM586 150l8 43l319 657h56l-322 -649h219l45 231h50 l-48 -231h82l-10 -51h-80l-28 -150h-50l29 150h-270z" />
<glyph unicode="&#xbf;" horiz-adv-x="673" d="M41 -201q0 70 11 124t28.5 94t36 69t33.5 47q82 102 120.5 149.5t57.5 71.5q25 33 48 84t34 99l30 151h49l-32 -164q-4 -16 -11.5 -39.5t-17.5 -48t-23.5 -48t-27.5 -42.5l-187 -231q-55 -68 -75.5 -153t-20.5 -157q0 -96 49.5 -144t159.5 -48q84 0 161 60.5t107 181.5 l50 -11q-31 -131 -117 -205.5t-213 -74.5q-70 0 -117 18.5t-76.5 50t-43 74.5t-13.5 92zM475 930l12 71h70l-12 -71h-70z" />
<glyph unicode="&#xc0;" horiz-adv-x="751" d="M-66 0l596 1425h74l49 -1425h-49l-12 401h-436l-168 -401h-54zM174 449h416l-17 565l-10 364h-4l-151 -368zM315 1681l41 54l242 -209l-18 -25z" />
<glyph unicode="&#xc1;" horiz-adv-x="751" d="M-66 0l596 1425h74l49 -1425h-49l-12 401h-436l-168 -401h-54zM174 449h416l-17 565l-10 364h-4l-151 -368zM555 1526l287 209l41 -54l-310 -180z" />
<glyph unicode="&#xc2;" horiz-adv-x="751" d="M-66 0l596 1425h74l49 -1425h-49l-12 401h-436l-168 -401h-54zM174 449h416l-17 565l-10 364h-4l-151 -368zM324 1532l256 192h49l176 -188l-21 -23l-182 158l-260 -160z" />
<glyph unicode="&#xc3;" horiz-adv-x="751" d="M-66 0l596 1425h74l49 -1425h-49l-12 401h-436l-168 -401h-54zM174 449h416l-17 565l-10 364h-4l-151 -368zM336 1546q35 49 74 72.5t75 23.5q33 0 59.5 -12t52.5 -25.5t52.5 -25.5t59.5 -12q66 0 116 78l31 -15q-29 -61 -75 -86.5t-87 -25.5q-31 0 -58.5 12t-54 26.5 t-52 26.5t-54.5 12q-25 0 -53.5 -19.5t-52.5 -49.5z" />
<glyph unicode="&#xc4;" horiz-adv-x="718" d="M-66 0l596 1425h74l49 -1425h-49l-12 401h-436l-168 -401h-54zM174 449h416l-17 565l-10 364h-4l-151 -368zM397 1518l13 65h57l-12 -65h-58zM688 1518l12 65h58l-13 -65h-57z" />
<glyph unicode="&#xc5;" horiz-adv-x="751" d="M-66 0l596 1425h74l49 -1425h-49l-12 401h-436l-168 -401h-54zM174 449h416l-17 565l-10 364h-4l-151 -368zM455 1599q0 39 15 74t41 60.5t59.5 40t68.5 14.5q57 0 94 -37t37 -92q0 -37 -15.5 -72t-41 -60.5t-61 -41t-74.5 -15.5q-53 0 -88 37t-35 92zM494 1608 q0 -41 25.5 -70t66.5 -29q57 0 100 43t43 99q0 41 -27.5 69.5t-68.5 28.5q-25 0 -49.5 -11.5t-44 -30.5t-32.5 -45t-13 -54z" />
<glyph unicode="&#xc6;" horiz-adv-x="1273" d="M-16 0l833 1425h602l-6 -47h-514l-86 -618h457l-8 -47h-457l-92 -664h514l-6 -49h-566l56 401h-437l-235 -401h-55zM303 449h414l131 925h-4z" />
<glyph unicode="&#xc7;" horiz-adv-x="737" d="M74 328l157 809q14 76 49 132t83.5 94t102.5 56.5t109 18.5q125 0 202 -57.5t77 -168.5q0 -16 -2 -33.5t-6 -35.5l-53 -13q10 45 10 74q0 88 -57.5 137.5t-157.5 49.5q-115 0 -198 -67t-107 -189l-160 -820q-27 -131 27.5 -207.5t177.5 -76.5q127 0 202.5 64.5 t102.5 199.5l51 -8q-33 -160 -120 -227.5t-214 -73.5l-55 -123q43 -4 70.5 -16.5t43 -30t21.5 -38t6 -40.5q0 -31 -12 -59.5t-35.5 -51t-57.5 -37t-77 -14.5q-78 0 -141 35l26 37q29 -16 59.5 -21.5t55.5 -5.5q53 0 91 31t38 78q0 37 -26.5 62.5t-88.5 29.5l-28 22l63 144 q-141 6 -200.5 93t-28.5 247z" />
<glyph unicode="&#xc8;" horiz-adv-x="716" d="M25 0l276 1425h565l-10 -47h-514l-119 -618h457l-10 -47h-457l-129 -664h514l-8 -49h-565zM340 1681l41 54l242 -209l-19 -25z" />
<glyph unicode="&#xc9;" horiz-adv-x="716" d="M25 0l276 1425h565l-10 -47h-514l-119 -618h457l-10 -47h-457l-129 -664h514l-8 -49h-565zM522 1526l287 209l41 -54l-309 -180z" />
<glyph unicode="&#xca;" horiz-adv-x="716" d="M25 0l276 1425h565l-10 -47h-514l-119 -618h457l-10 -47h-457l-129 -664h514l-8 -49h-565zM338 1532l256 192h49l176 -188l-20 -23l-183 158l-260 -160z" />
<glyph unicode="&#xcb;" horiz-adv-x="716" d="M25 0l276 1425h565l-10 -47h-514l-119 -618h457l-10 -47h-457l-129 -664h514l-8 -49h-565zM397 1518l13 65h57l-12 -65h-58zM688 1518l12 65h58l-13 -65h-57z" />
<glyph unicode="&#xcc;" horiz-adv-x="337" d="M61 0l277 1425h51l-276 -1425h-52zM109 1681l41 54l241 -209l-18 -25z" />
<glyph unicode="&#xcd;" horiz-adv-x="337" d="M61 0l277 1425h51l-276 -1425h-52zM356 1526l287 209l41 -54l-309 -180z" />
<glyph unicode="&#xce;" horiz-adv-x="337" d="M61 0l277 1425h51l-276 -1425h-52zM131 1532l256 192h49l176 -188l-20 -23l-182 158l-260 -160z" />
<glyph unicode="&#xcf;" horiz-adv-x="337" d="M61 0l277 1425h51l-276 -1425h-52zM205 1518l12 65h57l-12 -65h-57zM496 1518l12 65h57l-12 -65h-57z" />
<glyph unicode="&#xd0;" horiz-adv-x="808" d="M20 750l11 45h147l123 630h291q123 0 191.5 -46t76.5 -150q6 -74 -18.5 -205t-59.5 -309q-16 -88 -31.5 -170t-30.5 -152.5t-31.5 -127t-35.5 -89.5q-31 -57 -65.5 -92t-74.5 -53.5t-85 -24.5t-100 -6h-305l145 750h-148zM84 49h262q137 0 209 76t100 217l146 754 q4 14 6 39.5t2 46.5q0 86 -48 142t-167 56h-250l-115 -585h217l-10 -45h-217z" />
<glyph unicode="&#xd1;" horiz-adv-x="921" d="M16 0l277 1425h49l303 -1292h6l252 1292h49l-276 -1425h-49l-303 1303h-5l-251 -1303h-52zM367 1528q35 49 73.5 72.5t75.5 23.5q33 0 59.5 -12.5t52 -25.5t52.5 -25.5t59 -12.5q66 0 117 78l31 -14q-29 -61 -75 -87t-87 -26q-31 0 -58.5 12.5t-54 26.5t-52 26.5 t-54.5 12.5q-25 0 -53.5 -19.5t-53.5 -50.5z" />
<glyph unicode="&#xd2;" horiz-adv-x="815" d="M66 238q0 35 6 71l155 807q29 154 128.5 238t240.5 84q115 0 190.5 -63.5t75.5 -182.5q0 -37 -8 -72l-160 -833q-16 -90 -51 -148.5t-82 -92.5t-105.5 -47t-123.5 -13q-115 0 -190.5 65.5t-75.5 186.5zM115 242q0 -98 58 -154.5t157 -56.5q127 0 205.5 55t107.5 203 l160 839q6 33 6 64q0 94 -59.5 146.5t-155.5 52.5q-133 0 -214 -83t-106 -206l-153 -795q-6 -35 -6 -65zM373 1681l41 54l241 -209l-18 -25z" />
<glyph unicode="&#xd3;" horiz-adv-x="815" d="M66 238q0 35 6 71l155 807q29 154 128.5 238t240.5 84q115 0 190.5 -63.5t75.5 -182.5q0 -37 -8 -72l-160 -833q-16 -90 -51 -148.5t-82 -92.5t-105.5 -47t-123.5 -13q-115 0 -190.5 65.5t-75.5 186.5zM115 242q0 -98 58 -154.5t157 -56.5q127 0 205.5 55t107.5 203 l160 839q6 33 6 64q0 94 -59.5 146.5t-155.5 52.5q-133 0 -214 -83t-106 -206l-153 -795q-6 -35 -6 -65zM537 1526l286 209l41 -54l-309 -180z" />
<glyph unicode="&#xd4;" horiz-adv-x="815" d="M66 238q0 35 6 71l155 807q29 154 128.5 238t240.5 84q115 0 190.5 -63.5t75.5 -182.5q0 -37 -8 -72l-160 -833q-16 -90 -51 -148.5t-82 -92.5t-105.5 -47t-123.5 -13q-115 0 -190.5 65.5t-75.5 186.5zM115 242q0 -98 58 -154.5t157 -56.5q127 0 205.5 55t107.5 203 l160 839q6 33 6 64q0 94 -59.5 146.5t-155.5 52.5q-133 0 -214 -83t-106 -206l-153 -795q-6 -35 -6 -65zM383 1532l256 192h49l176 -188l-20 -23l-182 158l-261 -160z" />
<glyph unicode="&#xd5;" horiz-adv-x="815" d="M66 238q0 35 6 71l155 807q29 154 128.5 238t240.5 84q115 0 190.5 -63.5t75.5 -182.5q0 -37 -8 -72l-160 -833q-16 -90 -51 -148.5t-82 -92.5t-105.5 -47t-123.5 -13q-115 0 -190.5 65.5t-75.5 186.5zM115 242q0 -98 58 -154.5t157 -56.5q127 0 205.5 55t107.5 203 l160 839q6 33 6 64q0 94 -59.5 146.5t-155.5 52.5q-133 0 -214 -83t-106 -206l-153 -795q-6 -35 -6 -65zM356 1546q35 49 74 72.5t76 23.5q33 0 59.5 -12t52 -25.5t52 -25.5t59.5 -12q66 0 117 78l31 -15q-29 -61 -75 -86.5t-87 -25.5q-31 0 -58.5 12t-54.5 26.5t-52.5 26.5 t-53.5 12q-25 0 -53.5 -19.5t-53.5 -49.5z" />
<glyph unicode="&#xd6;" horiz-adv-x="815" d="M66 238q0 35 6 71l155 807q29 154 128.5 238t240.5 84q115 0 190.5 -63.5t75.5 -182.5q0 -37 -8 -72l-160 -833q-16 -90 -51 -148.5t-82 -92.5t-105.5 -47t-123.5 -13q-115 0 -190.5 65.5t-75.5 186.5zM115 242q0 -98 58 -154.5t157 -56.5q127 0 205.5 55t107.5 203 l160 839q6 33 6 64q0 94 -59.5 146.5t-155.5 52.5q-133 0 -214 -83t-106 -206l-153 -795q-6 -35 -6 -65zM444 1518l13 65h57l-12 -65h-58zM735 1518l13 65h57l-12 -65h-58z" />
<glyph unicode="&#xd7;" horiz-adv-x="778" d="M63 336l324 268l-197 244l39 33l197 -244l315 266l27 -35l-315 -264l209 -258l-41 -33l-207 258l-324 -270z" />
<glyph unicode="&#xd8;" horiz-adv-x="815" d="M-2 -12l88 141q-20 47 -20 109q0 35 6 71l155 807q29 154 128.5 238t240.5 84q76 0 135.5 -29t93.5 -82l82 131l37 -18l-98 -158q16 -43 16 -90q0 -37 -8 -72l-160 -833q-16 -90 -51 -148.5t-82 -92.5t-105.5 -47t-123.5 -13q-150 0 -223 102l-74 -119zM115 212.5 q0 -13.5 4 -28.5l674 1090q-23 55 -75 86t-124 31q-133 0 -214 -83t-106 -206l-153 -795q-6 -35 -6 -65v-29.5zM137 135q27 -49 76 -76.5t117 -27.5q127 0 205.5 55t107.5 203l160 839q6 33 6 64v13t-2 14z" />
<glyph unicode="&#xd9;" horiz-adv-x="778" d="M49 183.5q-12 62.5 4 140.5l221 1099h50l-222 -1101q-27 -129 29.5 -210t179.5 -81q127 0 206 66.5t108 209.5l227 1116h53l-229 -1118q-18 -90 -52 -151.5t-81 -98.5t-105.5 -53t-124.5 -16q-70 0 -125 23.5t-91 67.5t-48 106.5zM348 1681l41 54l242 -209l-19 -25z" />
<glyph unicode="&#xda;" horiz-adv-x="778" d="M49 183.5q-12 62.5 4 140.5l221 1099h50l-222 -1101q-27 -129 29.5 -210t179.5 -81q127 0 206 66.5t108 209.5l227 1116h53l-229 -1118q-18 -90 -52 -151.5t-81 -98.5t-105.5 -53t-124.5 -16q-70 0 -125 23.5t-91 67.5t-48 106.5zM567 1526l287 209l41 -54l-309 -180z " />
<glyph unicode="&#xdb;" horiz-adv-x="778" d="M49 183.5q-12 62.5 4 140.5l221 1099h50l-222 -1101q-27 -129 29.5 -210t179.5 -81q127 0 206 66.5t108 209.5l227 1116h53l-229 -1118q-18 -90 -52 -151.5t-81 -98.5t-105.5 -53t-124.5 -16q-70 0 -125 23.5t-91 67.5t-48 106.5zM373 1532l256 192h49l176 -188l-20 -23 l-183 158l-260 -160z" />
<glyph unicode="&#xdc;" horiz-adv-x="778" d="M49 183.5q-12 62.5 4 140.5l221 1099h50l-222 -1101q-27 -129 29.5 -210t179.5 -81q127 0 206 66.5t108 209.5l227 1116h53l-229 -1118q-18 -90 -52 -151.5t-81 -98.5t-105.5 -53t-124.5 -16q-70 0 -125 23.5t-91 67.5t-48 106.5zM430 1518l12 65h58l-13 -65h-57z M721 1518l12 65h58l-13 -65h-57z" />
<glyph unicode="&#xdd;" horiz-adv-x="690" d="M211 1425h49l123 -757h4l416 757h57l-461 -825l-114 -600h-52l115 600zM504 1526l287 209l40 -54l-309 -180z" />
<glyph unicode="&#xde;" horiz-adv-x="782" d="M25 2l276 1423h51l-57 -288h199q90 0 151.5 -20.5t98 -57.5t53 -89t16.5 -116q0 -242 -114.5 -380t-342.5 -138h-217l-63 -334h-51zM147 381h211q186 0 295 115.5t109 351.5q0 55 -12.5 100t-43 77t-82 49.5t-128.5 17.5h-209z" />
<glyph unicode="&#xdf;" horiz-adv-x="710" d="M-10 0l233 1204q25 127 99.5 205t214.5 78q111 0 172 -62.5t61 -160.5q0 -33 -6 -66l-23 -92q-12 -66 -56 -130.5t-130 -88.5l-2 -6q70 -16 95.5 -69.5t25.5 -121.5q0 -23 -2 -45t-6 -45l-70 -328q-12 -61 -31.5 -113.5t-54.5 -91t-85 -61t-124 -22.5h-20.5t-20.5 2l8 45 q10 -2 16.5 -2h14.5q109 0 165 67.5t79 175.5l73 342q8 33 9 74q0 72 -38 120t-128 48l10 53q45 0 83 17.5t65.5 45t46 62.5t24.5 70l21 96q6 27 6 53q0 72 -44 128.5t-141 56.5q-61 0 -106 -21.5t-75 -55.5t-47 -77t-26 -86l-235 -1198h-51z" />
<glyph unicode="&#xe0;" horiz-adv-x="714" d="M53 170q0 66 13.5 162t35.5 211q25 131 54.5 221t69.5 145.5t92.5 80t125.5 24.5q84 0 139.5 -34t78.5 -87h4l20 102h49l-190 -995h-51l26 129h-4q-49 -66 -113.5 -104.5t-150.5 -38.5q-55 0 -93 15t-61.5 41t-34 59.5t-10.5 68.5zM106 178q0 -74 47.5 -109.5 t110.5 -35.5q55 0 104.5 23.5t87.5 61.5t63.5 85t33.5 92l82 428q18 100 -29.5 172t-156.5 72q-145 0 -218 -150q-10 -20 -22 -63t-26.5 -101.5t-28 -125t-23.5 -131t-17.5 -122t-7.5 -96.5zM336 1436l61 34l164 -323l-26 -17z" />
<glyph unicode="&#xe1;" horiz-adv-x="714" d="M53 170q0 66 13.5 162t35.5 211q25 131 54.5 221t69.5 145.5t92.5 80t125.5 24.5q84 0 139.5 -34t78.5 -87h4l20 102h49l-190 -995h-51l26 129h-4q-49 -66 -113.5 -104.5t-150.5 -38.5q-55 0 -93 15t-61.5 41t-34 59.5t-10.5 68.5zM106 178q0 -74 47.5 -109.5 t110.5 -35.5q55 0 104.5 23.5t87.5 61.5t63.5 85t33.5 92l82 428q18 100 -29.5 172t-156.5 72q-145 0 -218 -150q-10 -20 -22 -63t-26.5 -101.5t-28 -125t-23.5 -131t-17.5 -122t-7.5 -96.5zM463 1151l192 293l62 -27l-225 -278z" />
<glyph unicode="&#xe2;" horiz-adv-x="714" d="M53 170q0 66 13.5 162t35.5 211q25 131 54.5 221t69.5 145.5t92.5 80t125.5 24.5q84 0 139.5 -34t78.5 -87h4l20 102h49l-190 -995h-51l26 129h-4q-49 -66 -113.5 -104.5t-150.5 -38.5q-55 0 -93 15t-61.5 41t-34 59.5t-10.5 68.5zM106 178q0 -74 47.5 -109.5 t110.5 -35.5q55 0 104.5 23.5t87.5 61.5t63.5 85t33.5 92l82 428q18 100 -29.5 172t-156.5 72q-145 0 -218 -150q-10 -20 -22 -63t-26.5 -101.5t-28 -125t-23.5 -131t-17.5 -122t-7.5 -96.5zM244 1149l260 233h49l168 -229l-25 -20l-174 196l-260 -201z" />
<glyph unicode="&#xe3;" horiz-adv-x="714" d="M53 170q0 66 13.5 162t35.5 211q25 131 54.5 221t69.5 145.5t92.5 80t125.5 24.5q84 0 139.5 -34t78.5 -87h4l20 102h49l-190 -995h-51l26 129h-4q-49 -66 -113.5 -104.5t-150.5 -38.5q-55 0 -93 15t-61.5 41t-34 59.5t-10.5 68.5zM106 178q0 -74 47.5 -109.5 t110.5 -35.5q55 0 104.5 23.5t87.5 61.5t63.5 85t33.5 92l82 428q18 100 -29.5 172t-156.5 72q-145 0 -218 -150q-10 -20 -22 -63t-26.5 -101.5t-28 -125t-23.5 -131t-17.5 -122t-7.5 -96.5zM236 1198q35 49 73.5 72.5t75.5 23.5q33 0 59.5 -12t52 -25.5t52 -25.5t59.5 -12 q66 0 117 77l31 -14q-29 -61 -75 -87t-87 -26q-31 0 -58.5 12.5t-54 27t-52.5 26.5t-54 12q-25 0 -53.5 -19.5t-53.5 -49.5z" />
<glyph unicode="&#xe4;" horiz-adv-x="714" d="M53 170q0 66 13.5 162t35.5 211q25 131 54.5 221t69.5 145.5t92.5 80t125.5 24.5q84 0 139.5 -34t78.5 -87h4l20 102h49l-190 -995h-51l26 129h-4q-49 -66 -113.5 -104.5t-150.5 -38.5q-55 0 -93 15t-61.5 41t-34 59.5t-10.5 68.5zM106 178q0 -74 47.5 -109.5 t110.5 -35.5q55 0 104.5 23.5t87.5 61.5t63.5 85t33.5 92l82 428q18 100 -29.5 172t-156.5 72q-145 0 -218 -150q-10 -20 -22 -63t-26.5 -101.5t-28 -125t-23.5 -131t-17.5 -122t-7.5 -96.5zM311 1194l13 66h57l-12 -66h-58zM602 1194l12 66h58l-13 -66h-57z" />
<glyph unicode="&#xe5;" horiz-adv-x="714" d="M53 170q0 66 13.5 162t35.5 211q25 131 54.5 221t69.5 145.5t92.5 80t125.5 24.5q84 0 139.5 -34t78.5 -87h4l20 102h49l-190 -995h-51l26 129h-4q-49 -66 -113.5 -104.5t-150.5 -38.5q-55 0 -93 15t-61.5 41t-34 59.5t-10.5 68.5zM106 178q0 -74 47.5 -109.5 t110.5 -35.5q55 0 104.5 23.5t87.5 61.5t63.5 85t33.5 92l82 428q18 100 -29.5 172t-156.5 72q-145 0 -218 -150q-10 -20 -22 -63t-26.5 -101.5t-28 -125t-23.5 -131t-17.5 -122t-7.5 -96.5zM367 1264q0 39 15 73.5t41 60t59.5 40t68.5 14.5q57 0 94 -37t37 -92 q0 -37 -15.5 -71.5t-41 -60.5t-61.5 -41t-75 -15q-53 0 -87.5 36.5t-34.5 92.5zM406 1272q0 -41 25.5 -69.5t66.5 -28.5q57 0 100 43t43 98q0 41 -27.5 69.5t-68.5 28.5q-25 0 -49.5 -11t-44 -30.5t-32.5 -45.5t-13 -54z" />
<glyph unicode="&#xe6;" horiz-adv-x="1179" d="M10 184q0 190 93.5 289.5t258.5 99.5q45 0 97.5 -7t111.5 -17l39 201q4 18 6 35.5t2 33.5q0 66 -44 107t-142 41q-90 0 -145.5 -35t-83.5 -86l-45 28q18 27 40.5 52.5t55.5 45t77 31t105 11.5q35 0 73 -5t71.5 -21.5t57.5 -46.5t30 -79h8q41 72 104.5 112t159.5 40 q133 0 190.5 -54.5t57.5 -140.5q0 -92 -32 -158.5t-86 -109.5t-126 -63.5t-149 -20.5q-23 0 -71 4t-108 16q-12 -59 -22 -127.5t-10 -113.5q0 -41 7 -79t26.5 -67.5t55.5 -48t93 -18.5q98 0 163.5 52t88.5 144l51 -10q-29 -121 -109.5 -176t-203.5 -55q-100 0 -151.5 50 t-67.5 120q-37 -68 -83 -104t-90.5 -50t-84 -15t-64.5 -1q-113 0 -159 56t-46 140zM61 197q0 -68 40.5 -116t142.5 -48q94 0 169.5 51t96.5 154l51 262q-61 10 -112.5 17t-96.5 7q-125 0 -208 -79.5t-83 -247.5zM627 537q18 -4 41.5 -8.5t48 -6.5t48 -3t40.5 -1 q61 0 119.5 15.5t104.5 49t73.5 90t27.5 136.5q0 70 -47 113t-145 43q-117 0 -191.5 -97.5t-119.5 -330.5z" />
<glyph unicode="&#xe7;" horiz-adv-x="669" d="M45 158q-2 25 2 64.5t11.5 84.5t15.5 92t16 88q12 55 24.5 111.5t25 107t25.5 90.5t25 64q37 68 102 111t171 43q117 0 180.5 -62.5t40.5 -185.5l-55 -10q18 98 -24 153.5t-146 55.5q-57 0 -116.5 -25t-102.5 -94q-23 -39 -47.5 -141.5t-55.5 -255.5q-8 -37 -15 -80 t-13.5 -83t-9.5 -74t-1 -52q10 -59 56.5 -93t124.5 -34q98 0 161.5 50t87.5 159l54 -11q-55 -244 -299 -245l-56 -123q43 -4 71 -16.5t43 -30t21.5 -38t6.5 -40.5q0 -31 -12.5 -59.5t-36 -51t-57.5 -37t-77 -14.5q-78 0 -141 35l27 37q29 -16 59.5 -21.5t54.5 -5.5 q53 0 91 31t38 78q0 37 -26.5 62.5t-87.5 29.5l-29 22l66 144q-49 4 -85 20.5t-59.5 39t-35 51t-13.5 59.5z" />
<glyph unicode="&#xe8;" horiz-adv-x="712" d="M61 231q0 53 9.5 119t19.5 129q20 100 45 196.5t65 171.5t103.5 121t159.5 46q131 0 187.5 -54.5t56.5 -140.5q0 -92 -32 -161.5t-85 -115.5t-124 -68.5t-147 -22.5q-23 0 -69.5 4t-104.5 16q-12 -59 -21 -119.5t-9 -105.5q0 -41 7 -79t26.5 -67.5t54.5 -48t90 -18.5 q98 0 161.5 52t86.5 144l49 -10q-29 -117 -106.5 -174t-194.5 -57q-63 0 -107.5 18.5t-71 52t-38 77.5t-11.5 95zM154 522q18 -4 41.5 -8t48 -7t47 -4t39.5 -1q59 0 117.5 17.5t103.5 55t72.5 96t27.5 138.5q0 70 -46 113t-144 43q-115 0 -188.5 -104.5t-118.5 -338.5z M340 1436l61 34l164 -323l-26 -17z" />
<glyph unicode="&#xe9;" horiz-adv-x="712" d="M61 231q0 53 9.5 119t19.5 129q20 100 45 196.5t65 171.5t103.5 121t159.5 46q131 0 187.5 -54.5t56.5 -140.5q0 -92 -32 -161.5t-85 -115.5t-124 -68.5t-147 -22.5q-23 0 -69.5 4t-104.5 16q-12 -59 -21 -119.5t-9 -105.5q0 -41 7 -79t26.5 -67.5t54.5 -48t90 -18.5 q98 0 161.5 52t86.5 144l49 -10q-29 -117 -106.5 -174t-194.5 -57q-63 0 -107.5 18.5t-71 52t-38 77.5t-11.5 95zM154 522q18 -4 41.5 -8t48 -7t47 -4t39.5 -1q59 0 117.5 17.5t103.5 55t72.5 96t27.5 138.5q0 70 -46 113t-144 43q-115 0 -188.5 -104.5t-118.5 -338.5z M453 1151l192 293l62 -27l-226 -278z" />
<glyph unicode="&#xea;" horiz-adv-x="712" d="M61 231q0 53 9.5 119t19.5 129q20 100 45 196.5t65 171.5t103.5 121t159.5 46q131 0 187.5 -54.5t56.5 -140.5q0 -92 -32 -161.5t-85 -115.5t-124 -68.5t-147 -22.5q-23 0 -69.5 4t-104.5 16q-12 -59 -21 -119.5t-9 -105.5q0 -41 7 -79t26.5 -67.5t54.5 -48t90 -18.5 q98 0 161.5 52t86.5 144l49 -10q-29 -117 -106.5 -174t-194.5 -57q-63 0 -107.5 18.5t-71 52t-38 77.5t-11.5 95zM154 522q18 -4 41.5 -8t48 -7t47 -4t39.5 -1q59 0 117.5 17.5t103.5 55t72.5 96t27.5 138.5q0 70 -46 113t-144 43q-115 0 -188.5 -104.5t-118.5 -338.5z M246 1149l260 233h49l168 -229l-25 -20l-174 196l-260 -201z" />
<glyph unicode="&#xeb;" horiz-adv-x="712" d="M61 231q0 53 9.5 119t19.5 129q20 100 45 196.5t65 171.5t103.5 121t159.5 46q131 0 187.5 -54.5t56.5 -140.5q0 -92 -32 -161.5t-85 -115.5t-124 -68.5t-147 -22.5q-23 0 -69.5 4t-104.5 16q-12 -59 -21 -119.5t-9 -105.5q0 -41 7 -79t26.5 -67.5t54.5 -48t90 -18.5 q98 0 161.5 52t86.5 144l49 -10q-29 -117 -106.5 -174t-194.5 -57q-63 0 -107.5 18.5t-71 52t-38 77.5t-11.5 95zM154 522q18 -4 41.5 -8t48 -7t47 -4t39.5 -1q59 0 117.5 17.5t103.5 55t72.5 96t27.5 138.5q0 70 -46 113t-144 43q-115 0 -188.5 -104.5t-118.5 -338.5z M334 1194l12 66h57l-12 -66h-57zM625 1194l12 66h57l-12 -66h-57z" />
<glyph unicode="&#xec;" horiz-adv-x="374" d="M115 0l192 997h51l-192 -997h-51zM166 1436l61 34l164 -323l-26 -17z" />
<glyph unicode="&#xed;" horiz-adv-x="301" d="M41 0l192 997h52l-193 -997h-51zM266 1151l193 293l61 -27l-225 -278z" />
<glyph unicode="&#xee;" horiz-adv-x="411" d="M82 0l192 997h52l-193 -997h-51zM96 1149l260 233h50l167 -229l-24 -20l-174 196l-260 -201z" />
<glyph unicode="&#xef;" horiz-adv-x="301" d="M41 0l192 997h52l-193 -997h-51zM123 1194l12 66h58l-13 -66h-57zM414 1194l12 66h57l-12 -66h-57z" />
<glyph unicode="&#xf0;" horiz-adv-x="704" d="M43 190q0 51 11.5 137.5t27.5 164.5q25 123 52.5 213t67.5 149t97 88t145 29q25 0 54.5 -6.5t59.5 -21.5t54.5 -40.5t36.5 -64.5l6 4q14 76 22.5 127t12.5 84.5t6 55t2 40.5q0 45 -10 90l-192 -115l-23 41l201 119q-12 27 -31.5 53.5t-50.5 49t-74 40t-104 25.5l20 49 q129 -18 195.5 -70.5t95.5 -117.5l145 86l21 -41l-152 -90q12 -49 13 -107q-2 -53 -9.5 -110.5t-19.5 -122.5l-86 -459q-25 -129 -52.5 -221t-68.5 -150.5t-99.5 -85t-142.5 -26.5q-66 0 -110.5 18.5t-71 48t-38 65.5t-11.5 72zM94 195q0 -31 9.5 -61t31 -52.5t56 -36.5 t88.5 -14q76 0 136 33.5t95 115.5q12 31 31.5 97.5t38 147.5t32 165t13.5 147q0 78 -50.5 132.5t-136.5 58.5q-23 0 -51.5 -5t-57 -18.5t-55 -37t-47.5 -60.5q-14 -25 -26.5 -54.5t-24.5 -71.5t-24.5 -97.5t-26.5 -130.5q-18 -92 -24.5 -154.5t-6.5 -103.5z" />
<glyph unicode="&#xf1;" horiz-adv-x="722" d="M10 0l193 997h51l-27 -135h4q49 70 122 111t145 41q57 0 97 -15.5t62.5 -42t32.5 -62.5t10 -77q0 -25 -4 -51.5t-8 -52.5l-139 -713h-53l139 719q10 47 10 88q0 63 -31.5 109.5t-119.5 46.5q-57 0 -107.5 -26t-90.5 -67t-67.5 -91t-35.5 -97l-132 -682h-51zM254 1198 q35 49 74 72.5t75 23.5q33 0 59.5 -12t52.5 -25.5t52.5 -25.5t59.5 -12q66 0 116 77l31 -14q-29 -61 -75 -87t-87 -26q-31 0 -58.5 12.5t-54 27t-52 26.5t-54.5 12q-25 0 -53.5 -19.5t-52.5 -49.5z" />
<glyph unicode="&#xf2;" horiz-adv-x="702" d="M43 190q0 51 10 137.5t27 164.5q27 137 54.5 236t67.5 162.5t99.5 93.5t149.5 30q61 0 104 -19.5t69.5 -49.5t39 -66.5t12.5 -71.5q0 -59 -11.5 -146.5t-33.5 -203.5q-25 -129 -52.5 -219.5t-67.5 -145.5t-97.5 -80.5t-141.5 -25.5q-66 0 -109.5 18.5t-70 48t-38 65.5 t-11.5 72zM94 195q0 -31 9.5 -61t30 -52.5t55 -36.5t87.5 -14q76 0 136.5 33.5t95.5 115.5q12 31 32.5 105.5t40 166t33 182.5t13.5 154q0 78 -46.5 128.5t-138.5 50.5q-57 0 -113.5 -22.5t-97.5 -94.5q-29 -47 -54 -146.5t-54 -250.5q-18 -92 -23.5 -154.5t-5.5 -103.5z M330 1436l61 34l164 -323l-27 -17z" />
<glyph unicode="&#xf3;" horiz-adv-x="702" d="M43 190q0 51 10 137.5t27 164.5q27 137 54.5 236t67.5 162.5t99.5 93.5t149.5 30q61 0 104 -19.5t69.5 -49.5t39 -66.5t12.5 -71.5q0 -59 -11.5 -146.5t-33.5 -203.5q-25 -129 -52.5 -219.5t-67.5 -145.5t-97.5 -80.5t-141.5 -25.5q-66 0 -109.5 18.5t-70 48t-38 65.5 t-11.5 72zM94 195q0 -31 9.5 -61t30 -52.5t55 -36.5t87.5 -14q76 0 136.5 33.5t95.5 115.5q12 31 32.5 105.5t40 166t33 182.5t13.5 154q0 78 -46.5 128.5t-138.5 50.5q-57 0 -113.5 -22.5t-97.5 -94.5q-29 -47 -54 -146.5t-54 -250.5q-18 -92 -23.5 -154.5t-5.5 -103.5z M453 1151l192 293l62 -27l-226 -278z" />
<glyph unicode="&#xf4;" horiz-adv-x="702" d="M43 190q0 51 10 137.5t27 164.5q27 137 54.5 236t67.5 162.5t99.5 93.5t149.5 30q61 0 104 -19.5t69.5 -49.5t39 -66.5t12.5 -71.5q0 -59 -11.5 -146.5t-33.5 -203.5q-25 -129 -52.5 -219.5t-67.5 -145.5t-97.5 -80.5t-141.5 -25.5q-66 0 -109.5 18.5t-70 48t-38 65.5 t-11.5 72zM94 195q0 -31 9.5 -61t30 -52.5t55 -36.5t87.5 -14q76 0 136.5 33.5t95.5 115.5q12 31 32.5 105.5t40 166t33 182.5t13.5 154q0 78 -46.5 128.5t-138.5 50.5q-57 0 -113.5 -22.5t-97.5 -94.5q-29 -47 -54 -146.5t-54 -250.5q-18 -92 -23.5 -154.5t-5.5 -103.5z M244 1149l260 233h49l168 -229l-25 -20l-174 196l-260 -201z" />
<glyph unicode="&#xf5;" horiz-adv-x="702" d="M43 190q0 51 10 137.5t27 164.5q27 137 54.5 236t67.5 162.5t99.5 93.5t149.5 30q61 0 104 -19.5t69.5 -49.5t39 -66.5t12.5 -71.5q0 -59 -11.5 -146.5t-33.5 -203.5q-25 -129 -52.5 -219.5t-67.5 -145.5t-97.5 -80.5t-141.5 -25.5q-66 0 -109.5 18.5t-70 48t-38 65.5 t-11.5 72zM94 195q0 -31 9.5 -61t30 -52.5t55 -36.5t87.5 -14q76 0 136.5 33.5t95.5 115.5q12 31 32.5 105.5t40 166t33 182.5t13.5 154q0 78 -46.5 128.5t-138.5 50.5q-57 0 -113.5 -22.5t-97.5 -94.5q-29 -47 -54 -146.5t-54 -250.5q-18 -92 -23.5 -154.5t-5.5 -103.5z M240 1198q35 49 73.5 72.5t75.5 23.5q33 0 59.5 -12t52 -25.5t52.5 -25.5t59 -12q66 0 117 77l31 -14q-29 -61 -75 -87t-87 -26q-31 0 -58.5 12.5t-54 27t-52 26.5t-54.5 12q-25 0 -53.5 -19.5t-53.5 -49.5z" />
<glyph unicode="&#xf6;" horiz-adv-x="702" d="M43 190q0 51 10 137.5t27 164.5q27 137 54.5 236t67.5 162.5t99.5 93.5t149.5 30q61 0 104 -19.5t69.5 -49.5t39 -66.5t12.5 -71.5q0 -59 -11.5 -146.5t-33.5 -203.5q-25 -129 -52.5 -219.5t-67.5 -145.5t-97.5 -80.5t-141.5 -25.5q-66 0 -109.5 18.5t-70 48t-38 65.5 t-11.5 72zM94 195q0 -31 9.5 -61t30 -52.5t55 -36.5t87.5 -14q76 0 136.5 33.5t95.5 115.5q12 31 32.5 105.5t40 166t33 182.5t13.5 154q0 78 -46.5 128.5t-138.5 50.5q-57 0 -113.5 -22.5t-97.5 -94.5q-29 -47 -54 -146.5t-54 -250.5q-18 -92 -23.5 -154.5t-5.5 -103.5z M311 1194l13 66h57l-12 -66h-58zM602 1194l12 66h58l-13 -66h-57z" />
<glyph unicode="&#xf7;" horiz-adv-x="696" d="M68 575l10 50h612l-10 -50h-612zM268 295q4 23 23.5 39t42.5 16t35 -16.5t8 -38.5q-4 -23 -23.5 -40t-42.5 -17t-35 17t-8 40zM385 887q4 23 22.5 39t41.5 16t36 -16.5t9 -38.5q-4 -23 -24.5 -39.5t-43.5 -16.5t-34 16.5t-7 39.5z" />
<glyph unicode="&#xf8;" horiz-adv-x="702" d="M2 0l61 92q-10 23 -15 48.5t-5 49.5q0 51 10 137.5t27 164.5q27 137 54.5 236t67.5 162.5t99.5 93.5t149.5 30q68 0 112.5 -23.5t71.5 -58.5l65 96l37 -20l-80 -117q18 -41 19 -84q0 -59 -11.5 -146.5t-33.5 -203.5q-25 -129 -52.5 -219.5t-67.5 -145.5t-97.5 -80.5 t-141.5 -25.5q-70 0 -113.5 19.5t-70.5 49.5l-53 -78zM94 195q0 -27 6 -52l502 742q-23 37 -62 59.5t-98 22.5q-57 0 -113.5 -22.5t-97.5 -94.5q-29 -47 -54 -146.5t-54 -250.5q-18 -92 -23.5 -154.5t-5.5 -103.5zM119 100q18 -31 56 -50t101 -19q76 0 136.5 33.5 t95.5 115.5q12 31 32.5 105.5t40 166t33 182.5t13.5 154q0 25 -6 50z" />
<glyph unicode="&#xf9;" horiz-adv-x="722" d="M53 180q0 25 4 51.5t9 53.5l139 712h53l-139 -718q-10 -47 -10 -89q0 -31 7 -59.5t24.5 -50t46 -33.5t73.5 -12q57 0 107.5 25.5t90.5 66.5t66.5 91t36.5 97l131 682h51l-192 -997h-51l26 135h-4q-49 -70 -121.5 -110.5t-144.5 -40.5q-59 0 -98 15t-61.5 42t-33 62.5 t-10.5 76.5zM322 1436l61 34l164 -323l-27 -17z" />
<glyph unicode="&#xfa;" horiz-adv-x="722" d="M53 180q0 25 4 51.5t9 53.5l139 712h53l-139 -718q-10 -47 -10 -89q0 -31 7 -59.5t24.5 -50t46 -33.5t73.5 -12q57 0 107.5 25.5t90.5 66.5t66.5 91t36.5 97l131 682h51l-192 -997h-51l26 135h-4q-49 -70 -121.5 -110.5t-144.5 -40.5q-59 0 -98 15t-61.5 42t-33 62.5 t-10.5 76.5zM504 1151l192 293l62 -27l-226 -278z" />
<glyph unicode="&#xfb;" horiz-adv-x="722" d="M53 180q0 25 4 51.5t9 53.5l139 712h53l-139 -718q-10 -47 -10 -89q0 -31 7 -59.5t24.5 -50t46 -33.5t73.5 -12q57 0 107.5 25.5t90.5 66.5t66.5 91t36.5 97l131 682h51l-192 -997h-51l26 135h-4q-49 -70 -121.5 -110.5t-144.5 -40.5q-59 0 -98 15t-61.5 42t-33 62.5 t-10.5 76.5zM244 1149l260 233h49l168 -229l-25 -20l-174 196l-260 -201z" />
<glyph unicode="&#xfc;" horiz-adv-x="722" d="M53 180q0 25 4 51.5t9 53.5l139 712h53l-139 -718q-10 -47 -10 -89q0 -31 7 -59.5t24.5 -50t46 -33.5t73.5 -12q57 0 107.5 25.5t90.5 66.5t66.5 91t36.5 97l131 682h51l-192 -997h-51l26 135h-4q-49 -70 -121.5 -110.5t-144.5 -40.5q-59 0 -98 15t-61.5 42t-33 62.5 t-10.5 76.5zM322 1194l12 66h57l-12 -66h-57zM612 1194l13 66h57l-12 -66h-58z" />
<glyph unicode="&#xfd;" horiz-adv-x="622" d="M-137 -373q47 4 89 21.5t82 55.5t78 102.5t76 164.5l-94 1026h56l55 -673q4 -59 13 -137t7 -144h4q45 88 99.5 201.5t109 238.5t107.5 256t96 258h57q-68 -176 -126 -316t-115.5 -267t-117.5 -252t-130 -268q-25 -55 -57.5 -110.5t-73.5 -99.5t-94.5 -72t-118.5 -28z M424 1151l192 293l62 -27l-225 -278z" />
<glyph unicode="&#xfe;" horiz-adv-x="700" d="M-86 -406l358 1829h52l-103 -522h4q45 53 103.5 85t142.5 32q39 0 78 -9.5t67.5 -33t47 -61t18.5 -93.5q0 -25 -4 -66.5t-10 -86.5t-13.5 -88t-13.5 -72q-29 -125 -53.5 -221.5t-61.5 -163t-94 -100t-149 -33.5q-53 0 -90 14t-60.5 34.5t-38 43t-20.5 39.5h-4l-105 -527 h-51zM98 240q0 -41 10.5 -77t34 -63.5t60.5 -44t90 -16.5q63 0 107 24.5t77 80t58.5 146.5t52.5 224q16 88 27.5 172t11.5 123q0 45 -14.5 75.5t-38 50t-53 28t-62.5 8.5q-102 0 -176 -67.5t-97 -176.5l-82 -420q-6 -35 -6 -67z" />
<glyph unicode="&#xff;" horiz-adv-x="622" d="M-137 -373q47 4 89 21.5t82 55.5t78 102.5t76 164.5l-94 1026h56l55 -673q4 -59 13 -137t7 -144h4q45 88 99.5 201.5t109 238.5t107.5 256t96 258h57q-68 -176 -126 -316t-115.5 -267t-117.5 -252t-130 -268q-25 -55 -57.5 -110.5t-73.5 -99.5t-94.5 -72t-118.5 -28z M264 1194l12 66h58l-12 -66h-58zM555 1194l12 66h58l-13 -66h-57z" />
<glyph unicode="&#x100;" horiz-adv-x="751" d="M-66 0l596 1425h74l49 -1425h-49l-12 401h-436l-168 -401h-54zM174 449h416l-17 565l-10 364h-4l-151 -368zM385 1536l10 49h391l-10 -49h-391z" />
<glyph unicode="&#x101;" horiz-adv-x="714" d="M53 170q0 66 13.5 162t35.5 211q25 131 54.5 221t69.5 145.5t92.5 80t125.5 24.5q84 0 139.5 -34t78.5 -87h4l20 102h49l-190 -995h-51l26 129h-4q-49 -66 -113.5 -104.5t-150.5 -38.5q-55 0 -93 15t-61.5 41t-34 59.5t-10.5 68.5zM106 178q0 -74 47.5 -109.5 t110.5 -35.5q55 0 104.5 23.5t87.5 61.5t63.5 85t33.5 92l82 428q18 100 -29.5 172t-156.5 72q-145 0 -218 -150q-10 -20 -22 -63t-26.5 -101.5t-28 -125t-23.5 -131t-17.5 -122t-7.5 -96.5zM299 1208l10 49h391l-10 -49h-391z" />
<glyph unicode="&#x102;" horiz-adv-x="751" d="M-66 0l596 1425h74l49 -1425h-49l-12 401h-436l-168 -401h-54zM174 449h416l-17 565l-10 364h-4l-151 -368zM381 1710h47q-2 -78 42 -124t110 -46t127 42t94 128h47q-10 -41 -33.5 -80t-57.5 -69.5t-80 -50t-102 -19.5q-55 0 -93 20.5t-61.5 52t-32.5 70.5t-7 76z" />
<glyph unicode="&#x103;" horiz-adv-x="714" d="M53 170q0 66 13.5 162t35.5 211q25 131 54.5 221t69.5 145.5t92.5 80t125.5 24.5q84 0 139.5 -34t78.5 -87h4l20 102h49l-190 -995h-51l26 129h-4q-49 -66 -113.5 -104.5t-150.5 -38.5q-55 0 -93 15t-61.5 41t-34 59.5t-10.5 68.5zM106 178q0 -74 47.5 -109.5 t110.5 -35.5q55 0 104.5 23.5t87.5 61.5t63.5 85t33.5 92l82 428q18 100 -29.5 172t-156.5 72q-145 0 -218 -150q-10 -20 -22 -63t-26.5 -101.5t-28 -125t-23.5 -131t-17.5 -122t-7.5 -96.5zM291 1350h47q-2 -78 41.5 -124t109.5 -46t127.5 42t94.5 128h47q-10 -41 -34 -80 t-57.5 -70t-79.5 -50.5t-102 -19.5q-55 0 -93 20.5t-61.5 52.5t-32.5 71t-7 76z" />
<glyph unicode="&#x104;" horiz-adv-x="751" d="M-66 0l596 1425h74l49 -1425q-57 -61 -90 -120.5t-33 -102.5q0 -78 74 -78q20 0 48 8t59 25l14 -39q-23 -16 -61.5 -29.5t-71.5 -13.5q-55 0 -84 34t-29 85q0 35 28 102.5t97 132.5l-12 397h-436l-168 -401h-54zM174 449h416l-17 565l-10 364h-4l-151 -368z" />
<glyph unicode="&#x105;" horiz-adv-x="714" d="M53 170q0 66 13.5 162t35.5 211q25 131 54.5 221t69.5 145.5t92.5 80t125.5 24.5q84 0 139.5 -34t78.5 -87h4l20 102h49l-190 -995h-4q-57 -61 -90 -120.5t-33 -102.5q0 -78 74 -78q20 0 47.5 8t58.5 25l14 -39q-23 -16 -61.5 -29.5t-71.5 -13.5q-55 0 -83.5 33.5 t-28.5 85.5q0 18 6 44.5t21.5 58.5t40 66.5t59.5 67.5l26 123h-4q-49 -66 -113.5 -104.5t-150.5 -38.5q-55 0 -93 15t-61.5 41t-34 59.5t-10.5 68.5zM106 178q0 -74 47.5 -109.5t110.5 -35.5q55 0 104.5 23.5t87.5 61.5t63.5 85t33.5 92l82 428q18 100 -29.5 172t-156.5 72 q-145 0 -218 -150q-10 -20 -22 -63t-26.5 -101.5t-28 -125t-23.5 -131t-17.5 -122t-7.5 -96.5z" />
<glyph unicode="&#x106;" horiz-adv-x="782" d="M74 328l157 809q14 76 49 132t83.5 94t102.5 56.5t109 18.5q125 0 202 -57.5t77 -168.5q0 -16 -2 -33.5t-6 -35.5l-53 -13q10 45 10 74q0 88 -57.5 137.5t-157.5 49.5q-115 0 -198 -67t-107 -189l-160 -820q-27 -131 27.5 -207.5t177.5 -76.5q127 0 202.5 64.5 t102.5 199.5l51 -8q-35 -168 -128 -234.5t-228 -66.5q-154 0 -220.5 88t-33.5 254zM555 1526l287 209l41 -54l-310 -180z" />
<glyph unicode="&#x107;" horiz-adv-x="669" d="M45 158q-2 25 2 64.5t11.5 84.5t15.5 92t16 88q12 55 24.5 111.5t25 107t25.5 90.5t25 64q37 68 102 111t171 43q117 0 180.5 -62.5t40.5 -185.5l-55 -10q18 98 -24 153.5t-146 55.5q-57 0 -116.5 -25t-102.5 -94q-23 -39 -47.5 -141.5t-55.5 -255.5q-8 -37 -15 -80 t-13.5 -83t-9.5 -74t-1 -52q10 -59 56.5 -93t124.5 -34q98 0 161.5 50t87.5 159l54 -11q-55 -246 -303 -245q-61 0 -104.5 14t-71 38.5t-42 55.5t-16.5 64zM457 1151l192 293l62 -27l-226 -278z" />
<glyph unicode="&#x108;" horiz-adv-x="782" d="M74 328l157 809q14 76 49 132t83.5 94t102.5 56.5t109 18.5q125 0 202 -57.5t77 -168.5q0 -16 -2 -33.5t-6 -35.5l-53 -13q10 45 10 74q0 88 -57.5 137.5t-157.5 49.5q-115 0 -198 -67t-107 -189l-160 -820q-27 -131 27.5 -207.5t177.5 -76.5q127 0 202.5 64.5 t102.5 199.5l51 -8q-35 -168 -128 -234.5t-228 -66.5q-154 0 -220.5 88t-33.5 254zM358 1532l256 192h50l176 -188l-21 -23l-182 158l-260 -160z" />
<glyph unicode="&#x109;" horiz-adv-x="669" d="M45 158q-2 25 2 64.5t11.5 84.5t15.5 92t16 88q12 55 24.5 111.5t25 107t25.5 90.5t25 64q37 68 102 111t171 43q117 0 180.5 -62.5t40.5 -185.5l-55 -10q18 98 -24 153.5t-146 55.5q-57 0 -116.5 -25t-102.5 -94q-23 -39 -47.5 -141.5t-55.5 -255.5q-8 -37 -15 -80 t-13.5 -83t-9.5 -74t-1 -52q10 -59 56.5 -93t124.5 -34q98 0 161.5 50t87.5 159l54 -11q-55 -246 -303 -245q-61 0 -104.5 14t-71 38.5t-42 55.5t-16.5 64zM256 1149l260 233h49l168 -229l-24 -20l-174 196l-261 -201z" />
<glyph unicode="&#x10a;" horiz-adv-x="782" d="M74 328l157 809q14 76 49 132t83.5 94t102.5 56.5t109 18.5q125 0 202 -57.5t77 -168.5q0 -16 -2 -33.5t-6 -35.5l-53 -13q10 45 10 74q0 88 -57.5 137.5t-157.5 49.5q-115 0 -198 -67t-107 -189l-160 -820q-27 -131 27.5 -207.5t177.5 -76.5q127 0 202.5 64.5 t102.5 199.5l51 -8q-35 -168 -128 -234.5t-228 -66.5q-154 0 -220.5 88t-33.5 254zM600 1542l12 66h58l-13 -66h-57z" />
<glyph unicode="&#x10b;" horiz-adv-x="669" d="M45 158q-2 25 2 64.5t11.5 84.5t15.5 92t16 88q12 55 24.5 111.5t25 107t25.5 90.5t25 64q37 68 102 111t171 43q117 0 180.5 -62.5t40.5 -185.5l-55 -10q18 98 -24 153.5t-146 55.5q-57 0 -116.5 -25t-102.5 -94q-23 -39 -47.5 -141.5t-55.5 -255.5q-8 -37 -15 -80 t-13.5 -83t-9.5 -74t-1 -52q10 -59 56.5 -93t124.5 -34q98 0 161.5 50t87.5 159l54 -11q-55 -246 -303 -245q-61 0 -104.5 14t-71 38.5t-42 55.5t-16.5 64zM475 1194l12 66h58l-13 -66h-57z" />
<glyph unicode="&#x10c;" horiz-adv-x="782" d="M74 328l157 809q14 76 49 132t83.5 94t102.5 56.5t109 18.5q125 0 202 -57.5t77 -168.5q0 -16 -2 -33.5t-6 -35.5l-53 -13q10 45 10 74q0 88 -57.5 137.5t-157.5 49.5q-115 0 -198 -67t-107 -189l-160 -820q-27 -131 27.5 -207.5t177.5 -76.5q127 0 202.5 64.5 t102.5 199.5l51 -8q-35 -168 -128 -234.5t-228 -66.5q-154 0 -220.5 88t-33.5 254zM397 1704l25 20l188 -159l248 157l21 -22l-250 -189h-49z" />
<glyph unicode="&#x10d;" horiz-adv-x="669" d="M45 158q-2 25 2 64.5t11.5 84.5t15.5 92t16 88q12 55 24.5 111.5t25 107t25.5 90.5t25 64q37 68 102 111t171 43q117 0 180.5 -62.5t40.5 -185.5l-55 -10q18 98 -24 153.5t-146 55.5q-57 0 -116.5 -25t-102.5 -94q-23 -39 -47.5 -141.5t-55.5 -255.5q-8 -37 -15 -80 t-13.5 -83t-9.5 -74t-1 -52q10 -59 56.5 -93t124.5 -34q98 0 161.5 50t87.5 159l54 -11q-55 -246 -303 -245q-61 0 -104.5 14t-71 38.5t-42 55.5t-16.5 64zM289 1358l24 20l174 -196l261 200l18 -20l-260 -234h-49z" />
<glyph unicode="&#x10e;" horiz-adv-x="808" d="M23 0l278 1425h291q123 0 191.5 -46t76.5 -150q6 -74 -18.5 -205t-59.5 -309q-16 -88 -31.5 -170t-30.5 -152.5t-31.5 -127t-35.5 -89.5q-31 -57 -65.5 -92t-74.5 -53.5t-85 -24.5t-100 -6h-305zM84 49h262q137 0 209 76t100 217l146 754q4 14 6 39.5t2 46.5 q0 86 -48 142t-167 56h-250zM375 1704l24 20l189 -159l248 157l20 -22l-250 -189h-49z" />
<glyph unicode="&#x10f;" horiz-adv-x="796" d="M41 182q0 25 4 67t10 87t13.5 88t13.5 72q27 125 52.5 221t62 161.5t94 100.5t149.5 35q53 0 90 -14.5t60.5 -35t38 -43t20.5 -38.5h4l119 604h51l-288 -1487h-52l19 102h-4q-45 -53 -103.5 -84.5t-142.5 -31.5q-41 0 -79 9t-66.5 32.5t-47 61.5t-18.5 93zM96 195 q0 -90 44 -126t124 -36q102 0 176 67.5t97 175.5l81 420q6 33 7 68q0 41 -10.5 77t-34 63.5t-60.5 44t-90 16.5q-63 0 -107 -25t-77 -80t-58.5 -146t-52.5 -225q-16 -88 -27.5 -172t-11.5 -122zM870 1245l68 168h-18l14 74h74l-15 -74l-86 -168h-37z" />
<glyph unicode="&#x110;" horiz-adv-x="849" d="M61 750l11 45h147l123 630h291q123 0 191.5 -46t76.5 -150q6 -74 -18.5 -205t-59.5 -309q-16 -88 -31.5 -170t-31 -152.5t-31.5 -127t-35 -89.5q-31 -57 -65.5 -92t-74.5 -53.5t-85 -24.5t-100 -6h-306l146 750h-148zM125 49h262q137 0 209 76t100 217l146 754 q4 14 6 39.5t2 46.5q0 86 -48 142t-167 56h-250l-115 -585h217l-10 -45h-217z" />
<glyph unicode="&#x111;" horiz-adv-x="690" d="M41 182q0 25 4 67t10 87t13.5 88t13.5 72q27 125 52.5 221t62 161.5t94 100.5t149.5 35q53 0 90 -14.5t60.5 -35t38 -43t20.5 -38.5h4l64 325h-182l6 41h184l47 238h51l-47 -238h74l-6 -41h-76l-233 -1208h-52l19 102h-4q-45 -53 -103.5 -84.5t-142.5 -31.5q-41 0 -79 9 t-66.5 32.5t-47 61.5t-18.5 93zM96 195q0 -90 44 -126t124 -36q102 0 176 67.5t97 175.5l81 420q6 33 7 68q0 41 -10.5 77t-34 63.5t-60.5 44t-90 16.5q-63 0 -107 -25t-77 -80t-58.5 -146t-52.5 -225q-16 -88 -27.5 -172t-11.5 -122z" />
<glyph unicode="&#x112;" horiz-adv-x="716" d="M25 0l276 1425h565l-10 -47h-514l-119 -618h457l-10 -47h-457l-129 -664h514l-8 -49h-565zM399 1536l11 49h391l-10 -49h-392z" />
<glyph unicode="&#x113;" horiz-adv-x="684" d="M61 231q0 53 9.5 119t19.5 129q20 100 45 196.5t65 171.5t103.5 121t159.5 46q131 0 187.5 -54.5t56.5 -140.5q0 -92 -32 -161.5t-85 -115.5t-124 -68.5t-147 -22.5q-23 0 -69.5 4t-104.5 16q-12 -59 -21 -119.5t-9 -105.5q0 -41 7 -79t26.5 -67.5t54.5 -48t90 -18.5 q98 0 161.5 52t86.5 144l49 -10q-29 -117 -106.5 -174t-194.5 -57q-63 0 -107.5 18.5t-71 52t-38 77.5t-11.5 95zM154 522q18 -4 41.5 -8t48 -7t47 -4t39.5 -1q59 0 117.5 17.5t103.5 55t72.5 96t27.5 138.5q0 70 -46 113t-144 43q-115 0 -188.5 -104.5t-118.5 -338.5z M313 1208l11 49h391l-10 -49h-392z" />
<glyph unicode="&#x114;" horiz-adv-x="716" d="M25 0l276 1425h565l-10 -47h-514l-119 -618h457l-10 -47h-457l-129 -664h514l-8 -49h-565zM377 1710h47q-2 -78 41.5 -124t109.5 -46t127.5 42t94.5 128h47q-10 -41 -34 -80t-57.5 -69.5t-79.5 -50t-102 -19.5q-55 0 -93 20.5t-61.5 52t-32.5 70.5t-7 76z" />
<glyph unicode="&#x115;" horiz-adv-x="684" d="M61 231q0 53 9.5 119t19.5 129q20 100 45 196.5t65 171.5t103.5 121t159.5 46q131 0 187.5 -54.5t56.5 -140.5q0 -92 -32 -161.5t-85 -115.5t-124 -68.5t-147 -22.5q-23 0 -69.5 4t-104.5 16q-12 -59 -21 -119.5t-9 -105.5q0 -41 7 -79t26.5 -67.5t54.5 -48t90 -18.5 q98 0 161.5 52t86.5 144l49 -10q-29 -117 -106.5 -174t-194.5 -57q-63 0 -107.5 18.5t-71 52t-38 77.5t-11.5 95zM154 522q18 -4 41.5 -8t48 -7t47 -4t39.5 -1q59 0 117.5 17.5t103.5 55t72.5 96t27.5 138.5q0 70 -46 113t-144 43q-115 0 -188.5 -104.5t-118.5 -338.5z M301 1350h47q-2 -78 42 -124t110 -46t127 42t94 128h47q-10 -41 -33.5 -80t-57.5 -70t-80 -50.5t-101 -19.5t-93 20.5t-62 52.5t-33 71t-7 76z" />
<glyph unicode="&#x116;" horiz-adv-x="716" d="M25 0l276 1425h565l-10 -47h-514l-119 -618h457l-10 -47h-457l-129 -664h514l-8 -49h-565zM569 1542l13 66h57l-12 -66h-58z" />
<glyph unicode="&#x117;" horiz-adv-x="684" d="M61 231q0 53 9.5 119t19.5 129q20 100 45 196.5t65 171.5t103.5 121t159.5 46q131 0 187.5 -54.5t56.5 -140.5q0 -92 -32 -161.5t-85 -115.5t-124 -68.5t-147 -22.5q-23 0 -69.5 4t-104.5 16q-12 -59 -21 -119.5t-9 -105.5q0 -41 7 -79t26.5 -67.5t54.5 -48t90 -18.5 q98 0 161.5 52t86.5 144l49 -10q-29 -117 -106.5 -174t-194.5 -57q-63 0 -107.5 18.5t-71 52t-38 77.5t-11.5 95zM154 522q18 -4 41.5 -8t48 -7t47 -4t39.5 -1q59 0 117.5 17.5t103.5 55t72.5 96t27.5 138.5q0 70 -46 113t-144 43q-115 0 -188.5 -104.5t-118.5 -338.5z M485 1194l13 66h57l-12 -66h-58z" />
<glyph unicode="&#x118;" horiz-adv-x="716" d="M25 0l276 1425h565l-10 -47h-514l-119 -618h457l-10 -47h-457l-129 -664h514l-8 -49h-4q-57 -61 -88 -120.5t-31 -102.5q0 -78 74 -78q20 0 47.5 8t58.5 25l15 -39q-23 -16 -62 -29.5t-72 -13.5q-55 0 -83.5 33.5t-28.5 85.5q0 35 26.5 100t92.5 131h-510z" />
<glyph unicode="&#x119;" horiz-adv-x="684" d="M61 231q0 53 9.5 119t19.5 129q20 100 45 196.5t65 171.5t103.5 121t159.5 46q131 0 187.5 -54.5t56.5 -140.5q0 -92 -32 -161.5t-85 -115.5t-124 -68.5t-147 -22.5q-23 0 -69.5 4t-104.5 16q-12 -59 -21 -119.5t-9 -105.5q0 -41 7 -79t26.5 -67.5t54.5 -48t90 -18.5 q98 0 161.5 52t86.5 144l49 -10q-29 -117 -107 -174q-51 -59 -78.5 -114.5t-27.5 -96.5q0 -78 74 -78q20 0 47.5 8.5t58.5 24.5l14 -39q-23 -16 -61.5 -29.5t-71.5 -13.5q-55 0 -83.5 34t-28.5 85q0 29 16 76t55 100q-25 -6 -52.5 -10t-55.5 -4q-63 0 -107.5 18.5t-71 52 t-38 77.5t-11.5 95zM154 522q18 -4 41.5 -8t48 -7t47 -4t39.5 -1q59 0 117.5 17.5t103.5 55t72.5 96t27.5 138.5q0 70 -46 113t-144 43q-115 0 -188.5 -104.5t-118.5 -338.5z" />
<glyph unicode="&#x11a;" horiz-adv-x="716" d="M25 0l276 1425h565l-10 -47h-514l-119 -618h457l-10 -47h-457l-129 -664h514l-8 -49h-565zM369 1704l24 20l189 -159l247 157l21 -22l-250 -189h-49z" />
<glyph unicode="&#x11b;" horiz-adv-x="684" d="M61 231q0 53 9.5 119t19.5 129q20 100 45 196.5t65 171.5t103.5 121t159.5 46q131 0 187.5 -54.5t56.5 -140.5q0 -92 -32 -161.5t-85 -115.5t-124 -68.5t-147 -22.5q-23 0 -69.5 4t-104.5 16q-12 -59 -21 -119.5t-9 -105.5q0 -41 7 -79t26.5 -67.5t54.5 -48t90 -18.5 q98 0 161.5 52t86.5 144l49 -10q-29 -117 -106.5 -174t-194.5 -57q-63 0 -107.5 18.5t-71 52t-38 77.5t-11.5 95zM154 522q18 -4 41.5 -8t48 -7t47 -4t39.5 -1q59 0 117.5 17.5t103.5 55t72.5 96t27.5 138.5q0 70 -46 113t-144 43q-115 0 -188.5 -104.5t-118.5 -338.5z M328 1358l24 20l174 -196l260 200l19 -20l-260 -234h-49z" />
<glyph unicode="&#x11c;" horiz-adv-x="788" d="M66 219q0 47 12 109l158 809q14 76 48.5 132t83 94t102.5 56.5t110 18.5q125 0 201.5 -57.5t76.5 -168.5q0 -16 -2 -33.5t-6 -35.5l-53 -13q10 45 10 74q0 88 -57.5 137.5t-157.5 49.5q-115 0 -198 -67t-107 -189l-160 -820q-8 -41 -8 -86q0 -111 61.5 -154.5 t151.5 -43.5q115 2 200.5 71.5t108.5 188.5l78 381h-182l10 51h233l-84 -434q-29 -147 -129 -225t-235 -78q-55 0 -103.5 11t-84 37.5t-57 72t-21.5 112.5zM362 1532l256 192h50l176 -188l-21 -23l-182 158l-260 -160z" />
<glyph unicode="&#x11d;" horiz-adv-x="714" d="M-16 -219q0 10 1 22.5t3 24.5l49 10q-4 -14 -4 -27.5v-25.5q0 -74 43 -115t129 -41q211 0 258 221l53 279h-4q-49 -66 -114.5 -104.5t-151.5 -38.5q-94 0 -140.5 42t-56.5 101q-4 31 -1 75t10.5 97t17.5 114.5t22 127.5q10 53 22.5 112.5t33.5 124.5q39 133 114.5 183.5 t167.5 50.5q84 0 141.5 -32t79.5 -85h5l22 102h49l-219 -1144q-14 -76 -45 -128.5t-72 -84t-92 -46t-106 -14.5q-90 0 -152.5 47t-62.5 152zM102 166q8 -68 51.5 -100.5t106.5 -32.5q55 0 104.5 23.5t87 61.5t62.5 85t35 92l82 428q23 109 -31 176.5t-156 67.5 q-82 0 -131 -33t-90 -117q-16 -33 -34.5 -111.5t-36.5 -175.5q-10 -47 -19.5 -102t-16.5 -106.5t-11.5 -93.5t-2.5 -62zM258 1149l260 233h49l168 -229l-24 -20l-174 196l-261 -201z" />
<glyph unicode="&#x11e;" horiz-adv-x="788" d="M66 219q0 47 12 109l158 809q14 76 48.5 132t83 94t102.5 56.5t110 18.5q125 0 201.5 -57.5t76.5 -168.5q0 -16 -2 -33.5t-6 -35.5l-53 -13q10 45 10 74q0 88 -57.5 137.5t-157.5 49.5q-115 0 -198 -67t-107 -189l-160 -820q-8 -41 -8 -86q0 -111 61.5 -154.5 t151.5 -43.5q115 2 200.5 71.5t108.5 188.5l78 381h-182l10 51h233l-84 -434q-29 -147 -129 -225t-235 -78q-55 0 -103.5 11t-84 37.5t-57 72t-21.5 112.5zM414 1710h47q-2 -78 41.5 -124t109.5 -46t127.5 42t94.5 128h47q-10 -41 -34 -80t-57.5 -69.5t-79.5 -50t-102 -19.5 q-55 0 -93 20.5t-61.5 52t-32.5 70.5t-7 76z" />
<glyph unicode="&#x11f;" horiz-adv-x="714" d="M-16 -219q0 10 1 22.5t3 24.5l49 10q-4 -14 -4 -27.5v-25.5q0 -74 43 -115t129 -41q211 0 258 221l53 279h-4q-49 -66 -114.5 -104.5t-151.5 -38.5q-94 0 -140.5 42t-56.5 101q-4 31 -1 75t10.5 97t17.5 114.5t22 127.5q10 53 22.5 112.5t33.5 124.5q39 133 114.5 183.5 t167.5 50.5q84 0 141.5 -32t79.5 -85h5l22 102h49l-219 -1144q-14 -76 -45 -128.5t-72 -84t-92 -46t-106 -14.5q-90 0 -152.5 47t-62.5 152zM102 166q8 -68 51.5 -100.5t106.5 -32.5q55 0 104.5 23.5t87 61.5t62.5 85t35 92l82 428q23 109 -31 176.5t-156 67.5 q-82 0 -131 -33t-90 -117q-16 -33 -34.5 -111.5t-36.5 -175.5q-10 -47 -19.5 -102t-16.5 -106.5t-11.5 -93.5t-2.5 -62zM287 1350h47q-2 -78 41.5 -124t109.5 -46t127.5 42t94.5 128h47q-10 -41 -34 -80t-57.5 -70t-79.5 -50.5t-102 -19.5q-55 0 -93 20.5t-61.5 52.5 t-32.5 71t-7 76z" />
<glyph unicode="&#x120;" horiz-adv-x="788" d="M66 219q0 47 12 109l158 809q14 76 48.5 132t83 94t102.5 56.5t110 18.5q125 0 201.5 -57.5t76.5 -168.5q0 -16 -2 -33.5t-6 -35.5l-53 -13q10 45 10 74q0 88 -57.5 137.5t-157.5 49.5q-115 0 -198 -67t-107 -189l-160 -820q-8 -41 -8 -86q0 -111 61.5 -154.5 t151.5 -43.5q115 2 200.5 71.5t108.5 188.5l78 381h-182l10 51h233l-84 -434q-29 -147 -129 -225t-235 -78q-55 0 -103.5 11t-84 37.5t-57 72t-21.5 112.5zM592 1542l12 66h58l-13 -66h-57z" />
<glyph unicode="&#x121;" horiz-adv-x="714" d="M-16 -219q0 10 1 22.5t3 24.5l49 10q-4 -14 -4 -27.5v-25.5q0 -74 43 -115t129 -41q211 0 258 221l53 279h-4q-49 -66 -114.5 -104.5t-151.5 -38.5q-94 0 -140.5 42t-56.5 101q-4 31 -1 75t10.5 97t17.5 114.5t22 127.5q10 53 22.5 112.5t33.5 124.5q39 133 114.5 183.5 t167.5 50.5q84 0 141.5 -32t79.5 -85h5l22 102h49l-219 -1144q-14 -76 -45 -128.5t-72 -84t-92 -46t-106 -14.5q-90 0 -152.5 47t-62.5 152zM102 166q8 -68 51.5 -100.5t106.5 -32.5q55 0 104.5 23.5t87 61.5t62.5 85t35 92l82 428q23 109 -31 176.5t-156 67.5 q-82 0 -131 -33t-90 -117q-16 -33 -34.5 -111.5t-36.5 -175.5q-10 -47 -19.5 -102t-16.5 -106.5t-11.5 -93.5t-2.5 -62zM504 1194l12 66h57l-12 -66h-57z" />
<glyph unicode="&#x122;" horiz-adv-x="788" d="M66 219q0 47 12 109l158 809q14 76 48.5 132t83 94t102.5 56.5t110 18.5q125 0 201.5 -57.5t76.5 -168.5q0 -16 -2 -33.5t-6 -35.5l-53 -13q10 45 10 74q0 88 -57.5 137.5t-157.5 49.5q-115 0 -198 -67t-107 -189l-160 -820q-8 -41 -8 -86q0 -111 61.5 -154.5 t151.5 -43.5q115 2 200.5 71.5t108.5 188.5l78 381h-182l10 51h233l-84 -434q-29 -147 -129 -225t-235 -78q-55 0 -103.5 11t-84 37.5t-57 72t-21.5 112.5zM199 -365l67 168h-18l14 74h74l-14 -74l-86 -168h-37z" />
<glyph unicode="&#x123;" horiz-adv-x="714" d="M-16 -219q0 10 1 22.5t3 24.5l49 10q-4 -14 -4 -27.5v-25.5q0 -74 43 -115t129 -41q211 0 258 221l53 279h-4q-49 -66 -114.5 -104.5t-151.5 -38.5q-94 0 -140.5 42t-56.5 101q-4 31 -1 75t10.5 97t17.5 114.5t22 127.5q10 53 22.5 112.5t33.5 124.5q39 133 114.5 183.5 t167.5 50.5q84 0 141.5 -32t79.5 -85h5l22 102h49l-219 -1144q-14 -76 -45 -128.5t-72 -84t-92 -46t-106 -14.5q-90 0 -152.5 47t-62.5 152zM102 166q8 -68 51.5 -100.5t106.5 -32.5q55 0 104.5 23.5t87 61.5t62.5 85t35 92l82 428q23 109 -31 176.5t-156 67.5 q-82 0 -131 -33t-90 -117q-16 -33 -34.5 -111.5t-36.5 -175.5q-10 -47 -19.5 -102t-16.5 -106.5t-11.5 -93.5t-2.5 -62zM469 1159l14 74l86 168h37l-67 -168h18l-14 -74h-74z" />
<glyph unicode="&#x124;" horiz-adv-x="827" d="M25 0l276 1425h51l-131 -669h514l131 669h54l-277 -1425h-53l137 707h-514l-137 -707h-51zM369 1532l256 192h49l176 -188l-21 -23l-182 158l-260 -160z" />
<glyph unicode="&#x125;" horiz-adv-x="722" d="M10 0l289 1489h51l-123 -627h4q49 70 122 111t145 41q57 0 97 -15.5t62.5 -42t32.5 -62.5t10 -77q0 -25 -4 -51.5t-8 -52.5l-139 -713h-53l139 719q10 47 10 88q0 63 -31.5 109.5t-119.5 46.5q-57 0 -107.5 -26t-90.5 -67t-67.5 -91t-35.5 -97l-132 -682h-51zM78 1532 l256 192h49l176 -188l-20 -23l-183 158l-260 -160z" />
<glyph unicode="&#x126;" horiz-adv-x="827" d="M25 0l227 1178h-84l8 41h84l41 206h51l-41 -206h514l41 206h54l-41 -206h82l-9 -41h-82l-227 -1178h-53l137 707h-514l-137 -707h-51zM221 756h514l82 422h-514z" />
<glyph unicode="&#x127;" horiz-adv-x="722" d="M10 0l232 1194h-101l9 41h100l49 254h51l-51 -254h375l-8 -41h-375l-64 -332h4q49 70 122 111t145 41q57 0 97 -15.5t62.5 -42t32.5 -62.5t10 -77q0 -25 -4 -51.5t-8 -52.5l-139 -713h-53l139 719q10 47 10 88q0 63 -31.5 109.5t-119.5 46.5q-57 0 -107.5 -26t-90.5 -67 t-67.5 -91t-35.5 -97l-132 -682h-51z" />
<glyph unicode="&#x128;" horiz-adv-x="337" d="M61 0l277 1425h51l-276 -1425h-52zM119 1505q35 49 73.5 73t75.5 24q33 0 59.5 -12.5t52.5 -26t52.5 -25.5t59.5 -12q66 0 116 78l31 -15q-29 -61 -75 -86.5t-87 -25.5q-31 0 -58.5 12t-54 26.5t-52 26.5t-54.5 12q-25 0 -53.5 -19t-52.5 -50z" />
<glyph unicode="&#x129;" horiz-adv-x="419" d="M102 0l193 997h51l-192 -997h-52zM104 1198q35 49 74 72.5t76 23.5q33 0 59.5 -12t52 -25.5t52 -25.5t59.5 -12q66 0 117 77l31 -14q-29 -61 -75 -87t-87 -26q-31 0 -58.5 12.5t-54 27t-52.5 26.5t-54 12q-25 0 -53.5 -19.5t-53.5 -49.5z" />
<glyph unicode="&#x12a;" horiz-adv-x="337" d="M61 0l277 1425h51l-276 -1425h-52zM186 1536l11 49h391l-10 -49h-392z" />
<glyph unicode="&#x12b;" horiz-adv-x="301" d="M41 0l192 997h52l-193 -997h-51zM111 1208l10 49h391l-10 -49h-391z" />
<glyph unicode="&#x12c;" horiz-adv-x="337" d="M61 0l277 1425h51l-276 -1425h-52zM168 1710h47q-2 -78 42 -124t110 -46t127 42t94 128h47q-10 -41 -33.5 -80t-57.5 -69.5t-80 -50t-102 -19.5q-55 0 -93 20.5t-61.5 52t-32.5 70.5t-7 76z" />
<glyph unicode="&#x12d;" horiz-adv-x="370" d="M90 0l193 997h51l-193 -997h-51zM131 1362h47q-2 -78 42 -124t110 -46t127 42t94 128h47q-10 -41 -33.5 -80t-57.5 -69.5t-80 -50t-101 -19.5t-93 20.5t-62 52t-33 70.5t-7 76z" />
<glyph unicode="&#x12e;" horiz-adv-x="337" d="M-61 -231q0 35 27.5 101.5t94.5 131.5l277 1423h51l-276 -1425q-57 -61 -90 -120.5t-33 -102.5q0 -78 73 -78q20 0 48 8t59 25l14 -39q-23 -16 -61.5 -29.5t-71.5 -13.5q-55 0 -83.5 34t-28.5 85z" />
<glyph unicode="&#x12f;" horiz-adv-x="301" d="M-82 -231q0 35 27.5 101.5t95.5 131.5l192 995h52l-193 -997q-57 -61 -90 -120.5t-33 -102.5q0 -78 74 -78q20 0 48 8t59 25l14 -39q-23 -16 -62 -29.5t-71 -13.5q-55 0 -84 34t-29 85zM279 1237l12 66h57l-12 -66h-57z" />
<glyph unicode="&#x130;" horiz-adv-x="337" d="M61 0l277 1425h51l-276 -1425h-52zM346 1501l12 66h58l-13 -66h-57z" />
<glyph unicode="&#x131;" horiz-adv-x="301" d="M41 0l192 997h52l-193 -997h-51z" />
<glyph unicode="&#x132;" horiz-adv-x="944" d="M57 0l277 1425h51l-276 -1425h-52zM236 37l30 37q33 -23 76 -32t80 -9q39 0 85 8t88 34.5t76 77t50 134.5l223 1138h51l-223 -1146q-27 -147 -112 -220t-242 -73q-51 0 -103.5 14t-78.5 37z" />
<glyph unicode="&#x133;" horiz-adv-x="540" d="M37 0l192 997h52l-193 -997h-51zM74 -416l8 49h8q43 0 73 11.5t48 33t29.5 53t19.5 72.5l234 1194h51l-236 -1212q-23 -113 -77 -157t-142 -44h-16zM274 1237l13 66h57l-12 -66h-58zM541 1237l12 66h57l-12 -66h-57z" />
<glyph unicode="&#x134;" horiz-adv-x="632" d="M-76 39l31 37q33 -23 76 -32t80 -9q39 0 85 8t88 34.5t75.5 77t50.5 134.5l223 1138h51l-223 -1146q-27 -147 -112 -220t-243 -73q-51 0 -103 14t-79 37zM424 1536l256 193h49l176 -189l-20 -22l-183 157l-260 -159z" />
<glyph unicode="&#x135;" horiz-adv-x="374" d="M-119 -412l8 43h9q43 0 72.5 11.5t48 33t29.5 53t20 72.5l229 1196h51l-231 -1214q-23 -113 -77 -154t-142 -41h-17zM94 1149l260 233h49l168 -229l-24 -20l-174 196l-260 -201z" />
<glyph unicode="&#x136;" horiz-adv-x="794" d="M23 0l276 1425h51l-178 -909h4l680 909h62l-414 -559l203 -866h-58l-188 811l-311 -420l-76 -391h-51zM225 -324l68 168h-19l15 74h73l-14 -74l-86 -168h-37z" />
<glyph unicode="&#x137;" horiz-adv-x="679" d="M4 0l289 1489h51l-217 -1116h2l526 622h66l-303 -358l170 -637h-53l-156 592l-270 -324l-54 -268h-51zM166 -365l67 168h-18l14 74h74l-14 -74l-86 -168h-37z" />
<glyph unicode="&#x138;" horiz-adv-x="679" d="M4 0l197 1001h51l-125 -628h2l526 622h66l-303 -358l170 -637h-53l-156 592l-270 -324l-54 -268h-51z" />
<glyph unicode="&#x139;" horiz-adv-x="673" d="M27 0l276 1425h51l-268 -1376h494l-9 -49h-544zM334 1526l287 209l41 -54l-310 -180z" />
<glyph unicode="&#x13a;" horiz-adv-x="303" d="M55 203l250 1284h51l-247 -1266q-16 -84 -2 -134t98 -50h33l-9 -51h-26q-90 0 -130 48t-18 169zM334 1567l287 209l41 -54l-310 -180z" />
<glyph unicode="&#x13b;" horiz-adv-x="673" d="M27 0l276 1425h51l-268 -1376h494l-9 -49h-544zM184 -365l68 168h-19l15 74h74l-15 -74l-86 -168h-37z" />
<glyph unicode="&#x13c;" horiz-adv-x="303" d="M-16 -365l67 168h-18l14 74h74l-15 -74l-86 -168h-36zM55 203l250 1284h51l-247 -1266q-16 -84 -2 -134t98 -50h33l-9 -51h-26q-90 0 -130 48t-18 169z" />
<glyph unicode="&#x13d;" horiz-adv-x="673" d="M27 0l276 1425h51l-268 -1376h494l-9 -49h-544zM518 1184l68 168h-19l15 73h73l-14 -73l-86 -168h-37z" />
<glyph unicode="&#x13e;" horiz-adv-x="403" d="M55 203l250 1284h51l-247 -1266q-16 -84 -2 -134t98 -50h33l-9 -51h-26q-90 0 -130 48t-18 169zM399 1245l68 168h-18l14 74h74l-15 -74l-86 -168h-37z" />
<glyph unicode="&#x13f;" horiz-adv-x="638" d="M27 0l276 1425h51l-268 -1376h494l-9 -49h-544zM449 682l12 66h57l-12 -66h-57z" />
<glyph unicode="&#x140;" horiz-adv-x="397" d="M55 203l250 1284h51l-247 -1266q-16 -84 -2 -134t98 -50h33l-9 -51h-26q-90 0 -130 48t-18 169zM346 723l12 65h58l-13 -65h-57z" />
<glyph unicode="&#x141;" horiz-adv-x="751" d="M6 508l219 113l156 804h51l-151 -774l264 137l14 -34l-287 -150l-108 -555h493l-8 -49h-545l111 573l-195 -100z" />
<glyph unicode="&#x142;" horiz-adv-x="452" d="M39 588l209 106l153 793h52l-150 -764l178 92l13 -35l-201 -104l-88 -455q-16 -84 -2 -134t98 -50h33l-8 -51h-27q-90 0 -130 48t-17 169l86 444l-185 -94z" />
<glyph unicode="&#x143;" horiz-adv-x="864" d="M20 0l277 1425h49l303 -1292h6l252 1292h49l-276 -1425h-49l-303 1303h-4l-252 -1303h-52zM584 1526l286 209l41 -54l-309 -180z" />
<glyph unicode="&#x144;" horiz-adv-x="722" d="M10 0l193 997h51l-27 -135h4q49 70 122 111t145 41q57 0 97 -15.5t62.5 -42t32.5 -62.5t10 -77q0 -25 -4 -51.5t-8 -52.5l-139 -713h-53l139 719q10 47 10 88q0 63 -31.5 109.5t-119.5 46.5q-57 0 -107.5 -26t-90.5 -67t-67.5 -91t-35.5 -97l-132 -682h-51zM403 1151 l193 293l61 -27l-225 -278z" />
<glyph unicode="&#x145;" horiz-adv-x="864" d="M20 0l277 1425h49l303 -1292h6l252 1292h49l-276 -1425h-49l-303 1303h-4l-252 -1303h-52zM229 -283l68 168h-18l14 74h74l-15 -74l-86 -168h-37z" />
<glyph unicode="&#x146;" horiz-adv-x="722" d="M10 0l193 997h51l-27 -135h4q49 70 122 111t145 41q57 0 97 -15.5t62.5 -42t32.5 -62.5t10 -77q0 -25 -4 -51.5t-8 -52.5l-139 -713h-53l139 719q10 47 10 88q0 63 -31.5 109.5t-119.5 46.5q-57 0 -107.5 -26t-90.5 -67t-67.5 -91t-35.5 -97l-132 -682h-51zM154 -365 l67 168h-18l14 74h74l-15 -74l-86 -168h-36z" />
<glyph unicode="&#x147;" horiz-adv-x="864" d="M20 0l277 1425h49l303 -1292h6l252 1292h49l-276 -1425h-49l-303 1303h-4l-252 -1303h-52zM438 1704l25 20l188 -159l248 157l21 -22l-250 -189h-49z" />
<glyph unicode="&#x148;" horiz-adv-x="722" d="M10 0l193 997h51l-27 -135h4q49 70 122 111t145 41q57 0 97 -15.5t62.5 -42t32.5 -62.5t10 -77q0 -25 -4 -51.5t-8 -52.5l-139 -713h-53l139 719q10 47 10 88q0 63 -31.5 109.5t-119.5 46.5q-57 0 -107.5 -26t-90.5 -67t-67.5 -91t-35.5 -97l-132 -682h-51zM285 1374 l24 21l174 -197l260 201l19 -21l-260 -233h-49z" />
<glyph unicode="&#x149;" horiz-adv-x="802" d="M90 0l193 997h51l-27 -135h4q49 70 122 111t145 41q57 0 97 -15.5t62.5 -42t32.5 -62.5t10 -77q0 -25 -4 -51.5t-8 -52.5l-139 -713h-54l140 719q10 47 10 88q0 63 -31.5 109.5t-120.5 46.5q-57 0 -107 -26t-90 -67t-67.5 -91t-36.5 -97l-131 -682h-51zM150 1042l67 168 h-18l14 74h74l-15 -74l-86 -168h-36z" />
<glyph unicode="&#x14a;" horiz-adv-x="864" d="M20 0l277 1425h49l303 -1292h6l252 1292h49l-303 -1566q-23 -109 -75 -154t-113 -45q-25 0 -51.5 8t-48.5 21l20 43q43 -25 84 -25q55 0 87 45t42 103l31 153l-301 1295h-4l-252 -1303h-52z" />
<glyph unicode="&#x14b;" horiz-adv-x="722" d="M10 0l193 997h51l-27 -135h4q49 70 122 111t145 41q57 0 97 -15.5t62.5 -42t32.5 -62.5t10 -77q0 -25 -4 -51.5t-8 -52.5l-166 -854q-23 -109 -75 -154t-113 -45q-25 0 -51.5 8t-49.5 21l21 43q43 -25 84 -25q55 0 89 45t44 103l168 864q10 47 10 88q0 63 -33.5 109.5 t-121.5 46.5q-57 0 -107.5 -26t-90.5 -67t-67.5 -91t-35.5 -97l-132 -682h-51z" />
<glyph unicode="&#x14c;" horiz-adv-x="815" d="M66 238q0 35 6 71l155 807q29 154 128.5 238t240.5 84q115 0 190.5 -63.5t75.5 -182.5q0 -37 -8 -72l-160 -833q-16 -90 -51 -148.5t-82 -92.5t-105.5 -47t-123.5 -13q-115 0 -190.5 65.5t-75.5 186.5zM115 242q0 -98 58 -154.5t157 -56.5q127 0 205.5 55t107.5 203 l160 839q6 33 6 64q0 94 -59.5 146.5t-155.5 52.5q-133 0 -214 -83t-106 -206l-153 -795q-6 -35 -6 -65zM424 1536l10 49h391l-10 -49h-391z" />
<glyph unicode="&#x14d;" horiz-adv-x="702" d="M43 190q0 51 10 137.5t27 164.5q27 137 54.5 236t67.5 162.5t99.5 93.5t149.5 30q61 0 104 -19.5t69.5 -49.5t39 -66.5t12.5 -71.5q0 -59 -11.5 -146.5t-33.5 -203.5q-25 -129 -52.5 -219.5t-67.5 -145.5t-97.5 -80.5t-141.5 -25.5q-66 0 -109.5 18.5t-70 48t-38 65.5 t-11.5 72zM94 195q0 -31 9.5 -61t30 -52.5t55 -36.5t87.5 -14q76 0 136.5 33.5t95.5 115.5q12 31 32.5 105.5t40 166t33 182.5t13.5 154q0 78 -46.5 128.5t-138.5 50.5q-57 0 -113.5 -22.5t-97.5 -94.5q-29 -47 -54 -146.5t-54 -250.5q-18 -92 -23.5 -154.5t-5.5 -103.5z M317 1208l11 49h391l-10 -49h-392z" />
<glyph unicode="&#x14e;" horiz-adv-x="815" d="M66 238q0 35 6 71l155 807q29 154 128.5 238t240.5 84q115 0 190.5 -63.5t75.5 -182.5q0 -37 -8 -72l-160 -833q-16 -90 -51 -148.5t-82 -92.5t-105.5 -47t-123.5 -13q-115 0 -190.5 65.5t-75.5 186.5zM115 242q0 -98 58 -154.5t157 -56.5q127 0 205.5 55t107.5 203 l160 839q6 33 6 64q0 94 -59.5 146.5t-155.5 52.5q-133 0 -214 -83t-106 -206l-153 -795q-6 -35 -6 -65zM416 1710h47q-2 -78 41.5 -124t109.5 -46t127.5 42t94.5 128h47q-10 -41 -34 -80t-57.5 -69.5t-79.5 -50t-102 -19.5q-55 0 -93 20.5t-61.5 52t-32.5 70.5t-7 76z" />
<glyph unicode="&#x14f;" horiz-adv-x="702" d="M43 190q0 51 10 137.5t27 164.5q27 137 54.5 236t67.5 162.5t99.5 93.5t149.5 30q61 0 104 -19.5t69.5 -49.5t39 -66.5t12.5 -71.5q0 -59 -11.5 -146.5t-33.5 -203.5q-25 -129 -52.5 -219.5t-67.5 -145.5t-97.5 -80.5t-141.5 -25.5q-66 0 -109.5 18.5t-70 48t-38 65.5 t-11.5 72zM94 195q0 -31 9.5 -61t30 -52.5t55 -36.5t87.5 -14q76 0 136.5 33.5t95.5 115.5q12 31 32.5 105.5t40 166t33 182.5t13.5 154q0 78 -46.5 128.5t-138.5 50.5q-57 0 -113.5 -22.5t-97.5 -94.5q-29 -47 -54 -146.5t-54 -250.5q-18 -92 -23.5 -154.5t-5.5 -103.5z M287 1350h47q-2 -78 41.5 -124t109.5 -46t127.5 42t94.5 128h47q-10 -41 -34 -80t-57.5 -70t-79.5 -50.5t-102 -19.5q-55 0 -93 20.5t-61.5 52.5t-32.5 71t-7 76z" />
<glyph unicode="&#x150;" horiz-adv-x="815" d="M66 238q0 35 6 71l155 807q29 154 128.5 238t240.5 84q115 0 190.5 -63.5t75.5 -182.5q0 -37 -8 -72l-160 -833q-16 -90 -51 -148.5t-82 -92.5t-105.5 -47t-123.5 -13q-115 0 -190.5 65.5t-75.5 186.5zM115 242q0 -98 58 -154.5t157 -56.5q127 0 205.5 55t107.5 203 l160 839q6 33 6 64q0 94 -59.5 146.5t-155.5 52.5q-133 0 -214 -83t-106 -206l-153 -795q-6 -35 -6 -65zM477 1526l287 209l41 -54l-309 -180zM662 1526l286 209l41 -54l-309 -180z" />
<glyph unicode="&#x151;" horiz-adv-x="702" d="M43 190q0 51 10 137.5t27 164.5q27 137 54.5 236t67.5 162.5t99.5 93.5t149.5 30q61 0 104 -19.5t69.5 -49.5t39 -66.5t12.5 -71.5q0 -59 -11.5 -146.5t-33.5 -203.5q-25 -129 -52.5 -219.5t-67.5 -145.5t-97.5 -80.5t-141.5 -25.5q-66 0 -109.5 18.5t-70 48t-38 65.5 t-11.5 72zM94 195q0 -31 9.5 -61t30 -52.5t55 -36.5t87.5 -14q76 0 136.5 33.5t95.5 115.5q12 31 32.5 105.5t40 166t33 182.5t13.5 154q0 78 -46.5 128.5t-138.5 50.5q-57 0 -113.5 -22.5t-97.5 -94.5q-29 -47 -54 -146.5t-54 -250.5q-18 -92 -23.5 -154.5t-5.5 -103.5z M408 1151l192 293l62 -27l-226 -278zM567 1151l193 293l61 -27l-225 -278z" />
<glyph unicode="&#x152;" horiz-adv-x="1140" d="M61 231q0 31 7 62l165 862q14 76 52.5 130t89.5 88t112.5 49.5t122.5 15.5q66 0 115 -15v2h565l-10 -47h-514l-119 -618h457l-10 -47h-457l-129 -664h514l-8 -49h-559q-55 -14 -115 -14q-53 0 -102.5 15t-89 46t-63.5 77t-24 107zM113 233q0 -49 20.5 -86.5t52 -63.5 t72.5 -38t84 -12q57 0 117 18l256 1323q-25 12 -50.5 14.5t-54.5 2.5q-57 0 -110.5 -14.5t-97.5 -43t-74.5 -74t-42.5 -106.5l-168 -870q-4 -12 -4 -24.5v-25.5z" />
<glyph unicode="&#x153;" horiz-adv-x="1198" d="M37 188q0 25 4 62t10 78t13.5 83t15.5 81q29 141 54.5 240t63.5 161.5t97.5 91.5t155.5 29q61 0 105 -16.5t71.5 -43t40 -61.5t12.5 -70v-16l6 33q41 78 105.5 126t166.5 48q133 0 190.5 -54.5t57.5 -140.5q0 -92 -32.5 -161.5t-87 -115.5t-126 -68.5t-149.5 -22.5 q-23 0 -71 4t-107 16q0 -4 -1 -7t-1 -7q-4 -20 -8.5 -40t-8.5 -36q-12 -78 -12 -135q0 -41 7 -79t26.5 -67.5t55.5 -48t93 -18.5q98 0 164 52t88 144l51 -10q-29 -117 -108.5 -174t-198.5 -57q-104 -2 -156.5 45t-68.5 121l6 30q-41 -111 -104.5 -154.5t-167.5 -43.5 q-133 0 -192.5 58t-59.5 144zM90 195q0 -76 55.5 -119t147.5 -43q82 0 131 34.5t84 112.5q12 31 32.5 109t40 171t34 186t14.5 155q0 78 -54.5 121t-132.5 43q-57 0 -113.5 -22.5t-97.5 -92.5q-29 -47 -50 -145.5t-56 -251.5q-20 -92 -27.5 -154.5t-7.5 -103.5zM643 522 q18 -4 42 -8t48.5 -7t48 -4t39.5 -1q61 0 119.5 17.5t105 55t75 96t28.5 138.5q0 70 -47.5 113t-145.5 43q-115 0 -188.5 -98.5t-120.5 -317.5q0 -10 -4 -27z" />
<glyph unicode="&#x154;" horiz-adv-x="794" d="M25 2l276 1423h250q180 0 254 -66.5t74 -191.5q0 -205 -88.5 -328.5t-247.5 -158.5q10 -76 24.5 -164t27.5 -179t27.5 -177t24.5 -160h-53l-100 672q-16 -4 -35 -4h-37h-217l-129 -666h-51zM213 713h211q88 0 161.5 26.5t128 80.5t84 139t29.5 202q0 106 -59 162.5 t-215 56.5h-209zM514 1526l287 209l41 -54l-310 -180z" />
<glyph unicode="&#x155;" horiz-adv-x="456" d="M37 0l192 997h52l-31 -147h6q45 80 111.5 122t144.5 42h26.5t24.5 -4l-10 -56q-12 4 -25.5 4h-23.5q-111 0 -186.5 -83.5t-104.5 -223.5l-125 -651h-51zM354 1151l193 293l61 -27l-225 -278z" />
<glyph unicode="&#x156;" horiz-adv-x="794" d="M25 2l276 1423h250q180 0 254 -66.5t74 -191.5q0 -205 -88.5 -328.5t-247.5 -158.5q10 -76 24.5 -164t27.5 -179t27.5 -177t24.5 -160h-53l-100 672q-16 -4 -35 -4h-37h-217l-129 -666h-51zM188 -324l68 168h-18l14 74h74l-15 -74l-86 -168h-37zM213 713h211 q88 0 161.5 26.5t128 80.5t84 139t29.5 202q0 106 -59 162.5t-215 56.5h-209z" />
<glyph unicode="&#x157;" horiz-adv-x="456" d="M-61 -365l67 168h-18l14 74h74l-15 -74l-86 -168h-36zM37 0l192 997h52l-31 -147h6q45 80 111.5 122t144.5 42h26.5t24.5 -4l-10 -56q-12 4 -25.5 4h-23.5q-111 0 -186.5 -83.5t-104.5 -223.5l-125 -651h-51z" />
<glyph unicode="&#x158;" horiz-adv-x="794" d="M25 2l276 1423h250q180 0 254 -66.5t74 -191.5q0 -205 -88.5 -328.5t-247.5 -158.5q10 -76 24.5 -164t27.5 -179t27.5 -177t24.5 -160h-53l-100 672q-16 -4 -35 -4h-37h-217l-129 -666h-51zM213 713h211q88 0 161.5 26.5t128 80.5t84 139t29.5 202q0 106 -59 162.5 t-215 56.5h-209zM354 1704l25 20l188 -159l248 157l21 -22l-250 -189h-49z" />
<glyph unicode="&#x159;" horiz-adv-x="456" d="M37 0l192 997h52l-31 -147h6q45 80 111.5 122t144.5 42h26.5t24.5 -4l-10 -56q-12 4 -25.5 4h-23.5q-111 0 -186.5 -83.5t-104.5 -223.5l-125 -651h-51zM158 1358l24 20l174 -196l260 200l19 -20l-260 -234h-49z" />
<glyph unicode="&#x15a;" horiz-adv-x="757" d="M35 225q0 14 1 27.5t3 28.5l57 10q-6 -35 -6 -66q0 -80 49 -135t168 -55q96 0 160.5 40t103.5 104.5t55.5 144t16.5 159.5q0 86 -45 137.5t-152 104.5q-74 39 -122 74t-75.5 69.5t-37.5 69.5t-10 74q0 88 24.5 165.5t71.5 135t117.5 91.5t160.5 34q76 0 127.5 -18.5 t83 -49.5t45 -70.5t13.5 -82.5q0 -33 -6 -66l-56 -12q6 33 6 65q0 39 -11 73t-36.5 58.5t-66.5 39t-101 14.5q-92 0 -153.5 -40t-97 -96.5t-51 -121t-15.5 -113.5q0 -39 12.5 -71t40 -62.5t74.5 -61t115 -63.5q115 -55 156.5 -115.5t41.5 -150.5q0 -106 -21.5 -198.5 t-68.5 -161t-119.5 -108.5t-175.5 -40q-76 0 -128 18.5t-84.5 50t-48 75.5t-15.5 95zM571 1526l287 209l41 -54l-309 -180z" />
<glyph unicode="&#x15b;" horiz-adv-x="643" d="M8 180q0 12 1 24.5t3 26.5l56 11q-4 -12 -4.5 -24.5t-0.5 -24.5q0 -74 46.5 -117t134.5 -43q141 0 201.5 80t60.5 202q0 66 -35 106t-131 81q-63 27 -103 53.5t-63.5 53t-33 56t-9.5 62.5q0 127 77 207t228 80q104 0 169 -47t65 -144q0 -27 -6 -57l-56 -10q6 27 6 51 q0 76 -49 117t-135 41q-68 0 -114 -20.5t-74.5 -53.5t-41 -74t-12.5 -82q0 -61 41 -103t156 -89q106 -43 142 -96.5t36 -124.5q0 -72 -17.5 -133.5t-55 -106.5t-98 -70.5t-144.5 -25.5q-111 0 -175.5 48t-64.5 146zM430 1151l193 293l61 -27l-225 -278z" />
<glyph unicode="&#x15c;" horiz-adv-x="757" d="M35 225q0 14 1 27.5t3 28.5l57 10q-6 -35 -6 -66q0 -80 49 -135t168 -55q96 0 160.5 40t103.5 104.5t55.5 144t16.5 159.5q0 86 -45 137.5t-152 104.5q-74 39 -122 74t-75.5 69.5t-37.5 69.5t-10 74q0 88 24.5 165.5t71.5 135t117.5 91.5t160.5 34q76 0 127.5 -18.5 t83 -49.5t45 -70.5t13.5 -82.5q0 -33 -6 -66l-56 -12q6 33 6 65q0 39 -11 73t-36.5 58.5t-66.5 39t-101 14.5q-92 0 -153.5 -40t-97 -96.5t-51 -121t-15.5 -113.5q0 -39 12.5 -71t40 -62.5t74.5 -61t115 -63.5q115 -55 156.5 -115.5t41.5 -150.5q0 -106 -21.5 -198.5 t-68.5 -161t-119.5 -108.5t-175.5 -40q-76 0 -128 18.5t-84.5 50t-48 75.5t-15.5 95zM342 1532l256 192h49l176 -188l-20 -23l-182 158l-261 -160z" />
<glyph unicode="&#x15d;" horiz-adv-x="643" d="M8 180q0 12 1 24.5t3 26.5l56 11q-4 -12 -4.5 -24.5t-0.5 -24.5q0 -74 46.5 -117t134.5 -43q141 0 201.5 80t60.5 202q0 66 -35 106t-131 81q-63 27 -103 53.5t-63.5 53t-33 56t-9.5 62.5q0 127 77 207t228 80q104 0 169 -47t65 -144q0 -27 -6 -57l-56 -10q6 27 6 51 q0 76 -49 117t-135 41q-68 0 -114 -20.5t-74.5 -53.5t-41 -74t-12.5 -82q0 -61 41 -103t156 -89q106 -43 142 -96.5t36 -124.5q0 -72 -17.5 -133.5t-55 -106.5t-98 -70.5t-144.5 -25.5q-111 0 -175.5 48t-64.5 146zM215 1149l260 233h49l168 -229l-24 -20l-174 196 l-261 -201z" />
<glyph unicode="&#x15e;" horiz-adv-x="757" d="M35 225q0 14 1 27.5t3 28.5l57 10q-6 -35 -6 -66q0 -80 49 -135t168 -55q96 0 160.5 40t103.5 104.5t55.5 144t16.5 159.5q0 86 -45 137.5t-152 104.5q-74 39 -122 74t-75.5 69.5t-37.5 69.5t-10 74q0 88 24.5 165.5t71.5 135t117.5 91.5t160.5 34q76 0 127.5 -18.5 t83 -49.5t45 -70.5t13.5 -82.5q0 -33 -6 -66l-56 -12q6 33 6 65q0 39 -11 73t-36.5 58.5t-66.5 39t-101 14.5q-92 0 -153.5 -40t-97 -96.5t-51 -121t-15.5 -113.5q0 -39 12.5 -71t40 -62.5t74.5 -61t115 -63.5q115 -55 156.5 -115.5t41.5 -150.5q0 -106 -21.5 -198.5 t-68.5 -161t-119.5 -108.5t-175.5 -40h-4l-55 -123q43 -4 70.5 -16.5t43 -30t21.5 -38t6 -40.5q0 -31 -12 -59.5t-35.5 -51t-57.5 -37t-77 -14.5q-78 0 -141 35l26 37q29 -16 59.5 -21.5t55.5 -5.5q53 0 91 31t38 78q0 37 -26.5 62.5t-88.5 29.5l-28 22l65 144 q-123 12 -175 77.5t-52 159.5z" />
<glyph unicode="&#x15f;" horiz-adv-x="643" d="M8 180q0 12 1 24.5t3 26.5l56 11q-4 -12 -4.5 -24.5t-0.5 -24.5q0 -74 46.5 -117t134.5 -43q141 0 201.5 80t60.5 202q0 66 -35 106t-131 81q-63 27 -103 53.5t-63.5 53t-33 56t-9.5 62.5q0 127 77 207t228 80q104 0 169 -47t65 -144q0 -27 -6 -57l-56 -10q6 27 6 51 q0 76 -49 117t-135 41q-68 0 -114 -20.5t-74.5 -53.5t-41 -74t-12.5 -82q0 -61 41 -103t156 -89q106 -43 142 -96t36 -125t-16.5 -132.5t-53 -104.5t-94 -70.5t-137.5 -28.5l-55 -123q43 -4 70.5 -16.5t43 -30t21.5 -38t6 -40.5q0 -31 -12 -59.5t-36 -51t-57.5 -37 t-76.5 -14.5q-78 0 -141 35l26 37q29 -16 59.5 -21.5t55.5 -5.5q53 0 91 31t38 78q0 37 -26.5 62.5t-88.5 29.5l-28 22l63 144q-96 6 -151.5 53t-55.5 139z" />
<glyph unicode="&#x160;" horiz-adv-x="757" d="M35 225q0 14 1 27.5t3 28.5l57 10q-6 -35 -6 -66q0 -80 49 -135t168 -55q96 0 160.5 40t103.5 104.5t55.5 144t16.5 159.5q0 86 -45 137.5t-152 104.5q-74 39 -122 74t-75.5 69.5t-37.5 69.5t-10 74q0 88 24.5 165.5t71.5 135t117.5 91.5t160.5 34q76 0 127.5 -18.5 t83 -49.5t45 -70.5t13.5 -82.5q0 -33 -6 -66l-56 -12q6 33 6 65q0 39 -11 73t-36.5 58.5t-66.5 39t-101 14.5q-92 0 -153.5 -40t-97 -96.5t-51 -121t-15.5 -113.5q0 -39 12.5 -71t40 -62.5t74.5 -61t115 -63.5q115 -55 156.5 -115.5t41.5 -150.5q0 -106 -21.5 -198.5 t-68.5 -161t-119.5 -108.5t-175.5 -40q-76 0 -128 18.5t-84.5 50t-48 75.5t-15.5 95zM369 1704l24 20l189 -159l247 157l21 -22l-250 -189h-49z" />
<glyph unicode="&#x161;" horiz-adv-x="643" d="M8 180q0 12 1 24.5t3 26.5l56 11q-4 -12 -4.5 -24.5t-0.5 -24.5q0 -74 46.5 -117t134.5 -43q141 0 201.5 80t60.5 202q0 66 -35 106t-131 81q-63 27 -103 53.5t-63.5 53t-33 56t-9.5 62.5q0 127 77 207t228 80q104 0 169 -47t65 -144q0 -27 -6 -57l-56 -10q6 27 6 51 q0 76 -49 117t-135 41q-68 0 -114 -20.5t-74.5 -53.5t-41 -74t-12.5 -82q0 -61 41 -103t156 -89q106 -43 142 -96.5t36 -124.5q0 -72 -17.5 -133.5t-55 -106.5t-98 -70.5t-144.5 -25.5q-111 0 -175.5 48t-64.5 146zM254 1358l25 20l174 -196l260 200l18 -20l-260 -234h-49z " />
<glyph unicode="&#x162;" horiz-adv-x="653" d="M119 -365l67 168h-18l14 74h74l-14 -74l-86 -168h-37zM197 1378l10 47h622l-10 -47h-284l-267 -1378h-51l266 1378h-286z" />
<glyph unicode="&#x163;" horiz-adv-x="436" d="M14 -365l68 168h-19l15 74h74l-15 -74l-86 -168h-37zM121 121q-8 43 4 106l141 725h-119l9 45h118l56 287h51l-55 -287h161l-8 -45h-162l-143 -735q-14 -74 11.5 -121t115.5 -47h18l-8 -49h-18q-45 0 -81 12.5t-59.5 39t-31.5 69.5z" />
<glyph unicode="&#x164;" horiz-adv-x="653" d="M197 1378l10 47h622l-10 -47h-284l-267 -1378h-51l266 1378h-286zM326 1704l24 20l189 -159l247 157l21 -22l-250 -189h-49z" />
<glyph unicode="&#x165;" horiz-adv-x="468" d="M121 121q-8 43 4 106l141 725h-119l9 45h118l56 287h51l-55 -287h161l-8 -45h-162l-143 -735q-14 -74 11.5 -121t115.5 -47h18l-8 -49h-18q-45 0 -81 12.5t-59.5 39t-31.5 69.5zM459 1133l67 167h-18l14 74h74l-14 -74l-86 -167h-37z" />
<glyph unicode="&#x166;" horiz-adv-x="653" d="M152 784l8 41h217l106 553h-286l10 47h622l-10 -47h-284l-107 -553h231l-8 -41h-231l-152 -784h-51l152 784h-217z" />
<glyph unicode="&#x167;" horiz-adv-x="436" d="M86 633l8 45h119l53 274h-119l9 45h118l56 287h51l-55 -287h161l-8 -45h-162l-53 -274h162l-8 -45h-164l-80 -416q-14 -74 11.5 -121t115.5 -47h18l-8 -49h-18q-45 0 -81 12.5t-59.5 39t-31.5 69.5t4 106l78 406h-117z" />
<glyph unicode="&#x168;" horiz-adv-x="778" d="M49 183.5q-12 62.5 4 140.5l221 1099h50l-222 -1101q-27 -129 29.5 -210t179.5 -81q127 0 206 66.5t108 209.5l227 1116h53l-229 -1118q-18 -90 -52 -151.5t-81 -98.5t-105.5 -53t-124.5 -16q-70 0 -125 23.5t-91 67.5t-48 106.5zM330 1546q35 49 73.5 72.5t75.5 23.5 q33 0 59.5 -12t52 -25.5t52.5 -25.5t59 -12q66 0 117 78l31 -15q-29 -61 -75 -86.5t-87 -25.5q-31 0 -58.5 12t-54 26.5t-52 26.5t-54.5 12q-25 0 -53.5 -19.5t-53.5 -49.5z" />
<glyph unicode="&#x169;" horiz-adv-x="722" d="M53 180q0 25 4 51.5t9 53.5l139 712h53l-139 -718q-10 -47 -10 -89q0 -31 7 -59.5t24.5 -50t46 -33.5t73.5 -12q57 0 107.5 25.5t90.5 66.5t66.5 91t36.5 97l131 682h51l-192 -997h-51l26 135h-4q-49 -70 -121.5 -110.5t-144.5 -40.5q-59 0 -98 15t-61.5 42t-33 62.5 t-10.5 76.5zM254 1198q35 49 74 72.5t75 23.5q33 0 59.5 -12t52.5 -25.5t52.5 -25.5t59.5 -12q66 0 116 77l31 -14q-29 -61 -75 -87t-87 -26q-31 0 -58.5 12.5t-54 27t-52 26.5t-54.5 12q-25 0 -53.5 -19.5t-52.5 -49.5z" />
<glyph unicode="&#x16a;" horiz-adv-x="778" d="M49 183.5q-12 62.5 4 140.5l221 1099h50l-222 -1101q-27 -129 29.5 -210t179.5 -81q127 0 206 66.5t108 209.5l227 1116h53l-229 -1118q-18 -90 -52 -151.5t-81 -98.5t-105.5 -53t-124.5 -16q-70 0 -125 23.5t-91 67.5t-48 106.5zM408 1536l10 49h391l-10 -49h-391z" />
<glyph unicode="&#x16b;" horiz-adv-x="722" d="M53 180q0 25 4 51.5t9 53.5l139 712h53l-139 -718q-10 -47 -10 -89q0 -31 7 -59.5t24.5 -50t46 -33.5t73.5 -12q57 0 107.5 25.5t90.5 66.5t66.5 91t36.5 97l131 682h51l-192 -997h-51l26 135h-4q-49 -70 -121.5 -110.5t-144.5 -40.5q-59 0 -98 15t-61.5 42t-33 62.5 t-10.5 76.5zM322 1208l10 49h391l-10 -49h-391z" />
<glyph unicode="&#x16c;" horiz-adv-x="778" d="M49 183.5q-12 62.5 4 140.5l221 1099h50l-222 -1101q-27 -129 29.5 -210t179.5 -81q127 0 206 66.5t108 209.5l227 1116h53l-229 -1118q-18 -90 -52 -151.5t-81 -98.5t-105.5 -53t-124.5 -16q-70 0 -125 23.5t-91 67.5t-48 106.5zM393 1710h47q-2 -78 42 -124t110 -46 t127 42t94 128h47q-10 -41 -33.5 -80t-57.5 -69.5t-80 -50t-101 -19.5t-93 20.5t-61.5 52t-33 70.5t-7.5 76z" />
<glyph unicode="&#x16d;" horiz-adv-x="722" d="M53 180q0 25 4 51.5t9 53.5l139 712h53l-139 -718q-10 -47 -10 -89q0 -31 7 -59.5t24.5 -50t46 -33.5t73.5 -12q57 0 107.5 25.5t90.5 66.5t66.5 91t36.5 97l131 682h51l-192 -997h-51l26 135h-4q-49 -70 -121.5 -110.5t-144.5 -40.5q-59 0 -98 15t-61.5 42t-33 62.5 t-10.5 76.5zM299 1350h47q-2 -78 42 -124t110 -46t127 42t94 128h47q-10 -41 -33.5 -80t-57.5 -70t-80 -50.5t-101 -19.5t-93.5 20.5t-62 52.5t-32.5 71t-7 76z" />
<glyph unicode="&#x16e;" horiz-adv-x="778" d="M49 183.5q-12 62.5 4 140.5l221 1099h50l-222 -1101q-27 -129 29.5 -210t179.5 -81q127 0 206 66.5t108 209.5l227 1116h53l-229 -1118q-18 -90 -52 -151.5t-81 -98.5t-105.5 -53t-124.5 -16q-70 0 -125 23.5t-91 67.5t-48 106.5zM451 1595q0 39 15 74t40.5 60.5t59.5 40 t69 14.5q57 0 94 -37t37 -92q0 -37 -15.5 -72t-41 -60.5t-61.5 -41t-75 -15.5q-53 0 -87.5 37t-34.5 92zM489 1604q0 -41 26 -70t67 -29q57 0 100 43t43 99q0 41 -27.5 69.5t-68.5 28.5q-25 0 -49.5 -11.5t-44 -31t-33 -45t-13.5 -53.5z" />
<glyph unicode="&#x16f;" horiz-adv-x="722" d="M53 180q0 25 4 51.5t9 53.5l139 712h53l-139 -718q-10 -47 -10 -89q0 -31 7 -59.5t24.5 -50t46 -33.5t73.5 -12q57 0 107.5 25.5t90.5 66.5t66.5 91t36.5 97l131 682h51l-192 -997h-51l26 135h-4q-49 -70 -121.5 -110.5t-144.5 -40.5q-59 0 -98 15t-61.5 42t-33 62.5 t-10.5 76.5zM356 1264q0 39 15.5 73.5t41 60t59.5 40t69 14.5q57 0 94 -37t37 -92q0 -37 -15.5 -71.5t-41 -60.5t-61.5 -41t-75 -15q-53 0 -88 36.5t-35 92.5zM395 1272q0 -41 25.5 -69.5t66.5 -28.5q57 0 100.5 43t43.5 98q0 41 -27.5 69.5t-68.5 28.5q-25 0 -49.5 -11 t-44 -30.5t-33 -45.5t-13.5 -54z" />
<glyph unicode="&#x170;" horiz-adv-x="778" d="M49 183.5q-12 62.5 4 140.5l221 1099h50l-222 -1101q-27 -129 29.5 -210t179.5 -81q127 0 206 66.5t108 209.5l227 1116h53l-229 -1118q-18 -90 -52 -151.5t-81 -98.5t-105.5 -53t-124.5 -16q-70 0 -125 23.5t-91 67.5t-48 106.5zM465 1526l287 209l41 -54l-310 -180z M649 1526l287 209l41 -54l-309 -180z" />
<glyph unicode="&#x171;" horiz-adv-x="722" d="M53 180q0 25 4 51.5t9 53.5l139 712h53l-139 -718q-10 -47 -10 -89q0 -31 7 -59.5t24.5 -50t46 -33.5t73.5 -12q57 0 107.5 25.5t90.5 66.5t66.5 91t36.5 97l131 682h51l-192 -997h-51l26 135h-4q-49 -70 -121.5 -110.5t-144.5 -40.5q-59 0 -98 15t-61.5 42t-33 62.5 t-10.5 76.5zM399 1151l193 293l61 -27l-225 -278zM559 1151l193 293l61 -27l-225 -278z" />
<glyph unicode="&#x172;" horiz-adv-x="778" d="M53 324l221 1099h50l-222 -1101q-27 -129 29.5 -210t179.5 -81q127 0 206 66.5t108 209.5l227 1116h53l-229 -1118q-16 -86 -48 -144.5t-76 -96t-97.5 -56t-114.5 -20.5q-49 -57 -75.5 -111.5t-26.5 -95.5q0 -78 73 -78q20 0 48 8t59 25l14 -39q-23 -16 -61.5 -29.5 t-71.5 -13.5q-55 0 -84 33.5t-29 85.5q0 33 22.5 93t80.5 122q-129 8 -197.5 96t-38.5 240z" />
<glyph unicode="&#x173;" horiz-adv-x="722" d="M53 180q0 25 4 51.5t9 53.5l139 712h53l-139 -718q-10 -47 -10 -89q0 -31 7 -59.5t24.5 -50t46 -33.5t73.5 -12q57 0 107.5 25.5t90.5 66.5t66.5 91t36.5 97l131 682h51l-192 -997h-4q-57 -61 -88 -120.5t-31 -102.5q0 -78 74 -78q20 0 48 8t58 25l15 -39 q-23 -16 -62 -29.5t-72 -13.5q-55 0 -83.5 33.5t-28.5 85.5q0 35 26.5 101.5t96.5 131.5l26 133h-4q-49 -70 -121.5 -110.5t-144.5 -40.5q-59 0 -98 15t-61.5 42t-33 62.5t-10.5 76.5z" />
<glyph unicode="&#x174;" horiz-adv-x="1191" d="M190 0l21 1425h47l-16 -905l-11 -473h5l180 469l348 909h51l-8 -923l-4 -455h4l170 453l344 925h51l-532 -1425h-80l4 913l2 381h-4l-146 -383l-346 -911h-80zM553 1532l256 192h49l176 -188l-20 -23l-183 158l-260 -160z" />
<glyph unicode="&#x175;" horiz-adv-x="1048" d="M98 997h49l31 -698q4 -53 6 -112.5t-2 -118.5h4q49 98 99.5 210.5t99.5 232.5t97 244t93 242h64l31 -698q4 -57 7 -117.5t-1 -113.5h4q51 100 105.5 216.5t105.5 238.5t97 243t81 229l55 2q-90 -260 -194.5 -504.5t-237.5 -492.5h-59l-29 694q-2 47 -4 106.5t-2 125.5h-4 q-37 -104 -83 -222t-97.5 -239t-105.5 -240t-105 -225h-58zM383 1149l260 233h49l168 -229l-24 -20l-174 196l-261 -201z" />
<glyph unicode="&#x176;" horiz-adv-x="690" d="M211 1425h49l123 -757h4l416 757h57l-461 -825l-114 -600h-52l115 600zM303 1532l256 192h49l176 -188l-20 -23l-182 158l-260 -160z" />
<glyph unicode="&#x177;" horiz-adv-x="622" d="M-137 -373q47 4 89 21.5t82 55.5t78 102.5t76 164.5l-94 1026h56l55 -673q4 -59 13 -137t7 -144h4q45 88 99.5 201.5t109 238.5t107.5 256t96 258h57q-68 -176 -126 -316t-115.5 -267t-117.5 -252t-130 -268q-25 -55 -57.5 -110.5t-73.5 -99.5t-94.5 -72t-118.5 -28z M170 1149l260 233h49l168 -229l-24 -20l-174 196l-261 -201z" />
<glyph unicode="&#x178;" horiz-adv-x="690" d="M211 1425h49l123 -757h4l416 757h57l-461 -825l-114 -600h-52l115 600zM379 1518l12 65h58l-13 -65h-57zM670 1518l12 65h57l-12 -65h-57z" />
<glyph unicode="&#x179;" horiz-adv-x="606" d="M-66 0l9 47l766 1331h-459l10 47h512l-8 -45l-768 -1331h477l-8 -49h-531zM485 1526l287 209l41 -54l-309 -180z" />
<glyph unicode="&#x17a;" horiz-adv-x="583" d="M-57 0l8 45l624 905h-401l8 45h463l-8 -43l-625 -907h434l-8 -45h-495zM381 1151l192 293l62 -27l-225 -278z" />
<glyph unicode="&#x17b;" horiz-adv-x="606" d="M-66 0l9 47l766 1331h-459l10 47h512l-8 -45l-768 -1331h477l-8 -49h-531zM508 1542l12 66h58l-13 -66h-57z" />
<glyph unicode="&#x17c;" horiz-adv-x="583" d="M-57 0l8 45l624 905h-401l8 45h463l-8 -43l-625 -907h434l-8 -45h-495zM420 1194l12 66h57l-12 -66h-57z" />
<glyph unicode="&#x17d;" horiz-adv-x="606" d="M-66 0l9 47l766 1331h-459l10 47h512l-8 -45l-768 -1331h477l-8 -49h-531zM322 1704l24 20l189 -159l247 157l21 -22l-250 -189h-49z" />
<glyph unicode="&#x17e;" horiz-adv-x="583" d="M-57 0l8 45l624 905h-401l8 45h463l-8 -43l-625 -907h434l-8 -45h-495zM233 1358l25 20l174 -196l260 200l19 -20l-260 -234h-50z" />
<glyph unicode="&#x192;" horiz-adv-x="696" d="M-82 -188l21 49q25 -6 55 -6q45 0 83 14t69.5 51t57 97.5t46.5 152.5l127 604h-166l4 47h170l59 299q35 162 103.5 240t191.5 78q35 0 80 -11l-18 -47q-35 10 -66 11q-35 0 -69.5 -10.5t-66.5 -41t-58.5 -85t-44.5 -142.5l-58 -291h199l-4 -47h-205l-123 -598 q-41 -195 -116.5 -283t-198.5 -88q-35 0 -72 7z" />
<glyph unicode="&#x1a0;" horiz-adv-x="870" d="M66 238q0 35 6 71l155 807q29 154 128.5 238t240.5 84q92 0 160.5 -43t93.5 -123q37 2 62.5 21.5t43 48t28.5 64.5t17 75l17 94h45l-19 -102q-25 -121 -65.5 -177.5t-118.5 -66.5q0 -10 1 -18.5t1 -18.5q0 -37 -8 -72l-160 -833q-16 -90 -51 -148.5t-82 -92.5t-105.5 -47 t-123.5 -13q-115 0 -190.5 65.5t-75.5 186.5zM115 242q0 -98 58 -154.5t157 -56.5q127 0 205.5 55t107.5 203l160 839q6 33 6 64q0 94 -59.5 146.5t-155.5 52.5q-133 0 -214 -83t-106 -206l-153 -795q-6 -35 -6 -65z" />
<glyph unicode="&#x1a1;" horiz-adv-x="747" d="M43 190q0 51 10 137.5t27 164.5q27 137 54.5 236t67.5 162.5t99.5 93.5t149.5 30q84 0 133 -33t71 -80q37 2 63.5 19.5t45 47t30 66.5t17.5 76l16 94h45l-18 -102q-25 -121 -65.5 -177.5t-118.5 -66.5q6 -29 6 -51q0 -59 -11.5 -146.5t-33.5 -203.5 q-25 -129 -52.5 -219.5t-67.5 -145.5t-97.5 -80.5t-141.5 -25.5q-66 0 -109.5 18.5t-70 48t-38 65.5t-11.5 72zM94 195q0 -31 9.5 -61t30 -52.5t55 -36.5t87.5 -14q76 0 136.5 33.5t95.5 115.5q12 31 32.5 105.5t40 166t33 182.5t13.5 154q0 78 -46.5 128.5t-138.5 50.5 q-57 0 -113.5 -22.5t-97.5 -94.5q-29 -47 -54 -146.5t-54 -250.5q-18 -92 -23.5 -154.5t-5.5 -103.5z" />
<glyph unicode="&#x1af;" horiz-adv-x="870" d="M49 183.5q-12 62.5 4 140.5l221 1099h50l-222 -1101q-27 -129 29.5 -210t179.5 -81q127 0 206 66.5t108 209.5l227 1116h53l-31 -151q37 0 65 18.5t46.5 47t30.5 65.5t18 78l17 94h45l-19 -102q-27 -131 -74 -187.5t-139 -58.5l-188 -922q-18 -90 -52 -151.5t-81 -98.5 t-105.5 -53t-124.5 -16q-70 0 -125 23.5t-91 67.5t-48 106.5z" />
<glyph unicode="&#x1b0;" horiz-adv-x="796" d="M53 180q0 25 4 51.5t9 53.5l139 712h53l-139 -718q-10 -47 -10 -89q0 -31 7 -59.5t24.5 -50t46 -33.5t73.5 -12q57 0 107.5 25.5t90.5 66.5t66.5 91t36.5 97l131 682h51l-18 -96q37 0 64.5 18.5t46 47t31 65.5t18.5 78l16 94h45l-18 -102q-27 -131 -74 -187.5t-139 -58.5 l-164 -856h-51l26 135h-4q-49 -70 -121.5 -110.5t-144.5 -40.5q-59 0 -98 15t-61.5 42t-33 62.5t-10.5 76.5z" />
<glyph unicode="&#x1fc;" horiz-adv-x="1273" d="M-16 0l833 1425h602l-6 -47h-514l-86 -618h457l-8 -47h-457l-92 -664h514l-6 -49h-566l56 401h-437l-235 -401h-55zM303 449h414l131 925h-4zM1026 1526l287 209l41 -54l-310 -180z" />
<glyph unicode="&#x1fd;" horiz-adv-x="1179" d="M10 184q0 190 93.5 289.5t258.5 99.5q45 0 97.5 -7t111.5 -17l39 201q4 18 6 35.5t2 33.5q0 66 -44 107t-142 41q-90 0 -145.5 -35t-83.5 -86l-45 28q18 27 40.5 52.5t55.5 45t77 31t105 11.5q35 0 73 -5t71.5 -21.5t57.5 -46.5t30 -79h8q41 72 104.5 112t159.5 40 q133 0 190.5 -54.5t57.5 -140.5q0 -92 -32 -158.5t-86 -109.5t-126 -63.5t-149 -20.5q-23 0 -71 4t-108 16q-12 -59 -22 -127.5t-10 -113.5q0 -41 7 -79t26.5 -67.5t55.5 -48t93 -18.5q98 0 163.5 52t88.5 144l51 -10q-29 -121 -109.5 -176t-203.5 -55q-100 0 -151.5 50 t-67.5 120q-37 -68 -83 -104t-90.5 -50t-84 -15t-64.5 -1q-113 0 -159 56t-46 140zM61 197q0 -68 40.5 -116t142.5 -48q94 0 169.5 51t96.5 154l51 262q-61 10 -112.5 17t-96.5 7q-125 0 -208 -79.5t-83 -247.5zM627 537q18 -4 41.5 -8.5t48 -6.5t48 -3t40.5 -1 q61 0 119.5 15.5t104.5 49t73.5 90t27.5 136.5q0 70 -47 113t-145 43q-117 0 -191.5 -97.5t-119.5 -330.5zM721 1151l192 293l62 -27l-225 -278z" />
<glyph unicode="&#x1fe;" horiz-adv-x="815" d="M-2 -12l88 141q-20 47 -20 109q0 35 6 71l155 807q29 154 128.5 238t240.5 84q76 0 135.5 -29t93.5 -82l82 131l37 -18l-98 -158q16 -43 16 -90q0 -37 -8 -72l-160 -833q-16 -90 -51 -148.5t-82 -92.5t-105.5 -47t-123.5 -13q-150 0 -223 102l-74 -119zM115 212.5 q0 -13.5 4 -28.5l674 1090q-23 55 -75 86t-124 31q-133 0 -214 -83t-106 -206l-153 -795q-6 -35 -6 -65v-29.5zM137 135q27 -49 76 -76.5t117 -27.5q127 0 205.5 55t107.5 203l160 839q6 33 6 64v13t-2 14zM555 1526l287 209l41 -54l-310 -180z" />
<glyph unicode="&#x1ff;" horiz-adv-x="702" d="M2 0l61 92q-10 23 -15 48.5t-5 49.5q0 51 10 137.5t27 164.5q27 137 54.5 236t67.5 162.5t99.5 93.5t149.5 30q68 0 112.5 -23.5t71.5 -58.5l65 96l37 -20l-80 -117q18 -41 19 -84q0 -59 -11.5 -146.5t-33.5 -203.5q-25 -129 -52.5 -219.5t-67.5 -145.5t-97.5 -80.5 t-141.5 -25.5q-70 0 -113.5 19.5t-70.5 49.5l-53 -78zM94 195q0 -27 6 -52l502 742q-23 37 -62 59.5t-98 22.5q-57 0 -113.5 -22.5t-97.5 -94.5q-29 -47 -54 -146.5t-54 -250.5q-18 -92 -23.5 -154.5t-5.5 -103.5zM119 100q18 -31 56 -50t101 -19q76 0 136.5 33.5 t95.5 115.5q12 31 32.5 105.5t40 166t33 182.5t13.5 154q0 25 -6 50zM451 1151l192 293l62 -27l-226 -278z" />
<glyph unicode="&#x218;" horiz-adv-x="757" d="M35 225q0 14 1 27.5t3 28.5l57 10q-6 -35 -6 -66q0 -80 49 -135t168 -55q96 0 160.5 40t103.5 104.5t55.5 144t16.5 159.5q0 86 -45 137.5t-152 104.5q-74 39 -122 74t-75.5 69.5t-37.5 69.5t-10 74q0 88 24.5 165.5t71.5 135t117.5 91.5t160.5 34q76 0 127.5 -18.5 t83 -49.5t45 -70.5t13.5 -82.5q0 -33 -6 -66l-56 -12q6 33 6 65q0 39 -11 73t-36.5 58.5t-66.5 39t-101 14.5q-92 0 -153.5 -40t-97 -96.5t-51 -121t-15.5 -113.5q0 -39 12.5 -71t40 -62.5t74.5 -61t115 -63.5q115 -55 156.5 -115.5t41.5 -150.5q0 -106 -21.5 -198.5 t-68.5 -161t-119.5 -108.5t-175.5 -40q-76 0 -128 18.5t-84.5 50t-48 75.5t-15.5 95zM182 -365l68 168h-19l15 74h73l-14 -74l-86 -168h-37z" />
<glyph unicode="&#x219;" horiz-adv-x="643" d="M8 180q0 12 1 24.5t3 26.5l56 11q-4 -12 -4.5 -24.5t-0.5 -24.5q0 -74 46.5 -117t134.5 -43q141 0 201.5 80t60.5 202q0 66 -35 106t-131 81q-63 27 -103 53.5t-63.5 53t-33 56t-9.5 62.5q0 127 77 207t228 80q104 0 169 -47t65 -144q0 -27 -6 -57l-56 -10q6 27 6 51 q0 76 -49 117t-135 41q-68 0 -114 -20.5t-74.5 -53.5t-41 -74t-12.5 -82q0 -61 41 -103t156 -89q106 -43 142 -96.5t36 -124.5q0 -72 -17.5 -133.5t-55 -106.5t-98 -70.5t-144.5 -25.5q-111 0 -175.5 48t-64.5 146zM123 -365l67 168h-18l14 74h74l-14 -74l-86 -168h-37z" />
<glyph unicode="&#x2c6;" horiz-adv-x="681" d="M244 1149l260 233h49l168 -229l-25 -20l-174 196l-260 -201z" />
<glyph unicode="&#x2c7;" horiz-adv-x="681" d="M246 1358l24 20l174 -196l261 200l18 -20l-260 -234h-49z" />
<glyph unicode="&#x2d8;" horiz-adv-x="714" d="M291 1350h47q-2 -78 41.5 -124t109.5 -46t127.5 42t94.5 128h47q-10 -41 -34 -80t-57.5 -70t-79.5 -50.5t-102 -19.5q-55 0 -93 20.5t-61.5 52.5t-32.5 71t-7 76z" />
<glyph unicode="&#x2d9;" horiz-adv-x="684" d="M483 1194l13 66h57l-12 -66h-58z" />
<glyph unicode="&#x2da;" horiz-adv-x="714" d="M367 1264q0 39 15 73.5t41 60t59.5 40t68.5 14.5q57 0 94 -37t37 -92q0 -37 -15.5 -71.5t-41 -60.5t-61.5 -41t-75 -15q-53 0 -87.5 36.5t-34.5 92.5zM406 1272q0 -41 25.5 -69.5t66.5 -28.5q57 0 100 43t43 98q0 41 -27.5 69.5t-68.5 28.5q-25 0 -49.5 -11t-44 -30.5 t-32.5 -45.5t-13 -54z" />
<glyph unicode="&#x2db;" horiz-adv-x="684" d="M360 -231q0 18 6.5 44.5t21.5 58.5t40 66.5t59 67.5l41 -4l2 -2q-57 -61 -87.5 -120.5t-30.5 -102.5q0 -78 73 -78q20 0 48 8t59 25l14 -39q-23 -16 -61.5 -29.5t-71.5 -13.5q-55 0 -84 33.5t-29 85.5z" />
<glyph unicode="&#x2dc;" horiz-adv-x="741" d="M233 1198q35 49 74 72.5t76 23.5q33 0 59.5 -12t52 -25.5t52 -25.5t59.5 -12q66 0 117 77l31 -14q-29 -61 -75 -87t-87 -26q-31 0 -58.5 12.5t-54 27t-52.5 26.5t-54 12q-25 0 -53.5 -19.5t-53.5 -49.5z" />
<glyph unicode="&#x2dd;" horiz-adv-x="714" d="M395 1151l193 293l61 -27l-225 -278zM555 1151l193 293l61 -27l-225 -278z" />
<glyph unicode="&#x3a9;" horiz-adv-x="811" d="M-14 0l8 49h149l2 4q-29 14 -47 43t-27.5 64t-9.5 72.5t7 72.5l155 805q29 154 121 241t229 87q68 0 125.5 -20.5t97.5 -60.5t56 -97.5t2 -131.5l-162 -849q-16 -86 -53 -144.5t-84 -81.5v-4h119l-8 -49h-215l10 53q72 20 118 83t62 145l162 835q14 72 -1.5 123t-49 85 t-79.5 50.5t-93 16.5q-125 0 -203 -80t-103 -203l-159 -823q-6 -33 -1 -68t19 -67.5t35.5 -57t50.5 -37.5l-10 -55h-223z" />
<glyph unicode="&#x3c0;" horiz-adv-x="722" d="M10 0l193 997h538l-192 -997h-51l184 954h-432l-184 -954h-56z" />
<glyph unicode="&#x401;" horiz-adv-x="716" d="M25 0l276 1425h565l-10 -47h-514l-119 -618h457l-10 -47h-457l-129 -664h514l-8 -49h-565zM399 1518l13 65h57l-12 -65h-58zM690 1518l12 65h58l-12 -65h-58z" />
<glyph unicode="&#x402;" horiz-adv-x="974" d="M213 1378l10 47h697l-11 -47h-377l-96 -504h2q68 45 138 68t129 23q57 0 105 -16.5t80 -50.5t44 -89t-2 -131l-82 -422q-31 -154 -117 -227.5t-215 -73.5l10 47q119 8 183.5 73.5t87.5 182.5l84 422q25 123 -28.5 179t-158.5 56q-76 0 -148.5 -33.5t-125.5 -74.5 l-156 -807h-49l266 1378h-270z" />
<glyph unicode="&#x403;" horiz-adv-x="708" d="M27 0l276 1425h565l-10 -47h-514l-266 -1378h-51zM557 1526l287 209l41 -54l-310 -180z" />
<glyph unicode="&#x404;" horiz-adv-x="782" d="M74 328l157 809q14 76 49 132t83.5 94t102.5 56.5t109 18.5q125 0 202 -57.5t77 -168.5q0 -6 -1 -13t-1 -15l-53 -21q2 10 3 20.5t1 20.5q0 88 -57.5 137.5t-157.5 49.5q-115 0 -198 -67t-107 -189l-76 -387h381l-13 -50h-378l-74 -383q-27 -131 27.5 -207.5t177.5 -76.5 q121 0 195.5 56t103.5 179l49 -14q-39 -147 -129 -206.5t-219 -59.5q-154 0 -220.5 88t-33.5 254z" />
<glyph unicode="&#x405;" horiz-adv-x="757" d="M35 225q0 14 1 27.5t3 28.5l57 10q-6 -35 -6 -66q0 -80 49 -135t168 -55q96 0 160.5 40t103.5 104.5t55.5 144t16.5 159.5q0 86 -45 137.5t-152 104.5q-74 39 -122 74t-75.5 69.5t-37.5 69.5t-10 74q0 88 24.5 165.5t71.5 135t117.5 91.5t160.5 34q76 0 127.5 -18.5 t83 -49.5t45 -70.5t13.5 -82.5q0 -33 -6 -66l-56 -12q6 33 6 65q0 39 -11 73t-36.5 58.5t-66.5 39t-101 14.5q-92 0 -153.5 -40t-97 -96.5t-51 -121t-15.5 -113.5q0 -39 12.5 -71t40 -62.5t74.5 -61t115 -63.5q115 -55 156.5 -115.5t41.5 -150.5q0 -106 -21.5 -198.5 t-68.5 -161t-119.5 -108.5t-175.5 -40q-76 0 -128 18.5t-84.5 50t-48 75.5t-15.5 95z" />
<glyph unicode="&#x406;" horiz-adv-x="337" d="M61 0l277 1425h51l-276 -1425h-52z" />
<glyph unicode="&#x407;" horiz-adv-x="337" d="M61 0l277 1425h51l-276 -1425h-52zM207 1561l12 65h57l-12 -65h-57zM498 1561l12 65h57l-12 -65h-57z" />
<glyph unicode="&#x408;" horiz-adv-x="632" d="M-76 37l31 37q33 -23 76 -32t80 -9q39 0 85 8t88 34.5t75.5 77t50.5 134.5l223 1138h51l-223 -1146q-27 -147 -112 -220t-243 -73q-51 0 -103 14t-79 37z" />
<glyph unicode="&#x409;" horiz-adv-x="1361" d="M-82 6q61 39 106.5 80t82 113.5t70.5 193.5t73 320l139 712h522l-129 -659h199q84 0 144.5 -25.5t100.5 -68.5t59.5 -99.5t19.5 -117.5q0 -86 -25 -167t-78 -145.5t-138 -103.5t-208 -39h-272l266 1378h-420l-133 -684q-35 -184 -68.5 -306t-74.5 -204t-93.5 -131 t-126.5 -88zM643 51h217q100 0 174 33t122 87t71.5 125t23.5 144q0 119 -66.5 197t-201.5 78h-211z" />
<glyph unicode="&#x40a;" horiz-adv-x="1327" d="M25 0l276 1425h51l-129 -659h471l129 659h51l-129 -659h199q84 0 144.5 -25.5t100.5 -68.5t59.5 -99.5t19.5 -117.5q0 -86 -24.5 -167t-78 -145.5t-138.5 -103.5t-208 -39h-272l139 717h-471l-139 -717h-51zM606 51h217q100 0 174 33t122 87t71.5 125t23.5 144 q0 119 -66.5 197t-201.5 78h-211z" />
<glyph unicode="&#x40b;" horiz-adv-x="974" d="M213 1378l10 47h697l-11 -47h-377l-96 -504h2q68 45 137.5 68t129.5 23q57 0 105 -16.5t80 -50.5t44 -89t-2 -131l-131 -678h-51l133 680q25 123 -28.5 179t-158.5 56q-76 0 -148.5 -33.5t-125.5 -74.5l-156 -807h-49l266 1378h-270z" />
<glyph unicode="&#x40c;" horiz-adv-x="806" d="M20 0l277 1425h49l-129 -659h201q31 0 71.5 10t82.5 36t82 70t69 109l188 434h45l-170 -403q-43 -104 -105.5 -177t-141.5 -95q94 -23 123.5 -96.5t31.5 -180.5l11 -473h-48l-10 481q-2 72 -18.5 118t-44 71.5t-64.5 36t-80 10.5h-231l-139 -717h-50zM541 1526l286 209 l41 -54l-309 -180z" />
<glyph unicode="&#x40e;" horiz-adv-x="800" d="M72 -20l10 49h29q59 0 115.5 53t107.5 170l33 74l-123 1099h51l113 -1011h4l479 1011h53l-549 -1159q-39 -84 -74.5 -139t-71.5 -88t-72 -46t-75 -13h-30zM399 1630h47q-2 -78 42 -124t110 -46t127 42t94 128h47q-10 -41 -33.5 -80t-57.5 -69.5t-80 -50t-101 -19.5 t-93 20.5t-61.5 52.5t-33 70.5t-7.5 75.5z" />
<glyph unicode="&#x40f;" horiz-adv-x="827" d="M25 0l276 1425h51l-268 -1374h514l268 1374h54l-277 -1425h-283l-61 -307h-55l61 307h-280z" />
<glyph unicode="&#x410;" horiz-adv-x="751" d="M-66 0l596 1425h74l49 -1425h-49l-12 401h-436l-168 -401h-54zM174 449h416l-17 565l-10 364h-4l-151 -368z" />
<glyph unicode="&#x411;" horiz-adv-x="782" d="M4 0l277 1425h548l-10 -47h-497l-119 -612h198q84 0 144.5 -25.5t100.5 -68.5t59.5 -99.5t19.5 -117.5q0 -86 -24.5 -167t-78 -145.5t-138.5 -103.5t-208 -39h-272zM63 51h218q100 0 173.5 33t122 87t72 125t23.5 144q0 119 -66.5 197t-202.5 78h-210z" />
<glyph unicode="&#x412;" horiz-adv-x="835" d="M25 0l276 1425h287q154 0 219 -68.5t65 -185.5q0 -152 -59 -261t-180 -156v-2q76 -29 105.5 -86.5t29.5 -139.5q0 -135 -37 -234t-96.5 -164t-136 -96.5t-156.5 -31.5h-317zM84 51h252q98 0 171 40t120 106.5t69.5 150.5t22.5 172q0 102 -49 156.5t-154 54.5h-299z M225 776h289q72 0 128 30t96 82t61.5 121.5t21.5 151.5q0 109 -56 164t-194 55h-227z" />
<glyph unicode="&#x413;" horiz-adv-x="708" d="M27 0l276 1425h565l-10 -47h-514l-266 -1378h-51z" />
<glyph unicode="&#x414;" horiz-adv-x="925" d="M-113 -266l60 315h73q41 49 75 101.5t63.5 124t58.5 170t62 239.5l167 741h572l-268 -1376h84l-62 -315h-49l53 266h-788l-54 -266h-47zM80 49h616l258 1325h-467l-151 -665q-27 -113 -52.5 -209.5t-54 -177t-65.5 -149.5t-84 -124z" />
<glyph unicode="&#x415;" horiz-adv-x="716" d="M25 0l276 1425h565l-10 -47h-514l-119 -618h457l-10 -47h-457l-129 -664h514l-8 -49h-565z" />
<glyph unicode="&#x416;" horiz-adv-x="1296" d="M-61 0l190 473q45 106 104.5 180t161.5 97q-74 23 -103.5 95.5t-33.5 176.5l-18 403h45l20 -434q2 -66 22.5 -109.5t50.5 -69.5t66.5 -36t73.5 -10h170l129 659h49l-129 -659h172q39 0 80 10t81 36t77 70t65 109l189 434h47l-172 -403q-43 -104 -105.5 -177t-142.5 -95 q94 -23 125 -96.5t31 -180.5l10 -473h-47l-10 481q-2 72 -18.5 118t-44 71.5t-64.5 36t-80 10.5h-201l-139 -717h-49l139 717h-199q-43 0 -85 -10.5t-79.5 -36t-72.5 -71.5t-64 -118l-194 -481h-47z" />
<glyph unicode="&#x417;" horiz-adv-x="782" d="M68 285l51 10q-14 -72 -1 -122t42.5 -81t74 -45t91.5 -14q51 0 101 16.5t92 49t73 82.5t43 118l35 176q25 127 -11 186.5t-122 59.5h-93l11 55h96q70 0 132 53.5t87 167.5l21 125q25 123 -28.5 195t-166.5 72q-111 0 -191.5 -60.5t-105.5 -198.5l-53 13q29 154 125 224.5 t227 70.5q147 0 211.5 -86t36.5 -228l-12 -67q-8 -37 -20.5 -85t-34 -92t-56.5 -80t-86 -50q51 -20 70.5 -60.5t22.5 -84.5t-4 -87t-11 -69l-29 -148q-16 -86 -52 -145.5t-84 -97.5t-105.5 -55t-118.5 -17q-55 0 -108.5 15t-92.5 50t-56.5 92.5t-0.5 141.5z" />
<glyph unicode="&#x418;" horiz-adv-x="823" d="M25 0l274 1425h49l-250 -1284h6l760 1284h51l-276 -1425h-51l252 1292h-4l-764 -1292h-47z" />
<glyph unicode="&#x419;" horiz-adv-x="823" d="M25 0l274 1425h49l-250 -1284h6l760 1284h51l-276 -1425h-51l252 1292h-4l-764 -1292h-47zM424 1659h47q-2 -78 42 -124t110 -46t127 42t94 128h47q-10 -41 -33.5 -80t-57.5 -69.5t-80 -50t-102 -19.5q-55 0 -93 20.5t-61.5 52t-32.5 70.5t-7 76z" />
<glyph unicode="&#x41a;" horiz-adv-x="806" d="M20 0l277 1425h49l-129 -659h201q31 0 71.5 10t82.5 36t82 70t69 109l188 434h45l-170 -403q-43 -104 -105.5 -177t-141.5 -95q94 -23 123.5 -96.5t31.5 -180.5l11 -473h-48l-10 481q-2 72 -18.5 118t-44 71.5t-64.5 36t-80 10.5h-231l-139 -717h-50z" />
<glyph unicode="&#x41b;" horiz-adv-x="868" d="M-82 6q61 39 106.5 80t82 113.5t70.5 193.5t73 320l139 712h572l-277 -1425h-51l266 1378h-469l-133 -684q-35 -184 -68.5 -306t-74.5 -204t-93.5 -131t-126.5 -88z" />
<glyph unicode="&#x41c;" horiz-adv-x="1056" d="M20 0l277 1425h49l170 -1026h6l572 1026h55l-277 -1425h-49l248 1278h-4l-532 -950h-56l-157 934h-7l-243 -1262h-52z" />
<glyph unicode="&#x41d;" horiz-adv-x="827" d="M25 0l276 1425h51l-131 -669h514l131 669h54l-277 -1425h-53l137 707h-514l-137 -707h-51z" />
<glyph unicode="&#x41e;" horiz-adv-x="815" d="M66 238q0 35 6 71l155 807q29 154 128.5 238t240.5 84q115 0 190.5 -63.5t75.5 -182.5q0 -37 -8 -72l-160 -833q-16 -90 -51 -148.5t-82 -92.5t-105.5 -47t-123.5 -13q-115 0 -190.5 65.5t-75.5 186.5zM115 242q0 -98 58 -154.5t157 -56.5q127 0 205.5 55t107.5 203 l160 839q6 33 6 64q0 94 -59.5 146.5t-155.5 52.5q-133 0 -214 -83t-106 -206l-153 -795q-6 -35 -6 -65z" />
<glyph unicode="&#x41f;" horiz-adv-x="827" d="M25 0l276 1425h619l-277 -1425h-53l266 1374h-514l-266 -1374h-51z" />
<glyph unicode="&#x420;" horiz-adv-x="782" d="M25 2l276 1423h250q90 0 152.5 -20.5t100.5 -57t55.5 -89t17.5 -115.5q0 -242 -118 -380t-345 -138h-217l-121 -623h-51zM205 670h211q186 0 297.5 116.5t111.5 350.5q0 55 -13 100t-45 77t-84 49t-130 17h-209z" />
<glyph unicode="&#x421;" horiz-adv-x="782" d="M74 328l157 809q14 76 49 132t83.5 94t102.5 56.5t109 18.5q125 0 202 -57.5t77 -168.5q0 -16 -2 -33.5t-6 -35.5l-53 -13q10 45 10 74q0 88 -57.5 137.5t-157.5 49.5q-115 0 -198 -67t-107 -189l-160 -820q-27 -131 27.5 -207.5t177.5 -76.5q127 0 202.5 64.5 t102.5 199.5l51 -8q-35 -168 -128 -234.5t-228 -66.5q-154 0 -220.5 88t-33.5 254z" />
<glyph unicode="&#x422;" horiz-adv-x="653" d="M197 1378l10 47h622l-10 -47h-284l-267 -1378h-51l266 1378h-286z" />
<glyph unicode="&#x423;" horiz-adv-x="800" d="M72 -20l10 49h29q59 0 115.5 53t107.5 170l33 74l-123 1099h51l113 -1011h4l479 1011h53l-549 -1159q-39 -84 -74.5 -139t-71.5 -88t-72 -46t-75 -13h-30z" />
<glyph unicode="&#x424;" horiz-adv-x="970" d="M98 489l111 529q33 154 145.5 236.5t278.5 82.5l18 88h51l-18 -88q82 -6 145.5 -35.5t103.5 -76.5t54 -112.5t-2 -145.5l-108 -545q-31 -154 -140.5 -227.5t-287.5 -73.5l-23 -121h-51l22 121q-172 23 -249.5 124t-49.5 244zM141 377q6 -53 37 -95t87.5 -72t140.5 -42 l219 1120q-143 0 -241.5 -70.5t-125.5 -199.5l-111 -529q-12 -59 -6 -112zM457 168q172 0 261 71.5t113 198.5l103 529q12 61 4 115.5t-39 97.5t-86 71.5t-137 36.5z" />
<glyph unicode="&#x425;" horiz-adv-x="679" d="M-74 0l439 713l-162 708h55l145 -649l392 649h63l-438 -708l166 -713h-56l-143 651l-397 -651h-64z" />
<glyph unicode="&#x426;" horiz-adv-x="827" d="M25 0l276 1425h51l-268 -1374h514l268 1374h54l-269 -1374h70l-59 -317h-50l50 266h-637z" />
<glyph unicode="&#x427;" horiz-adv-x="749" d="M135 813q-4 68 15 162l88 450h49l-88 -452q-16 -82 -14.5 -140.5t29.5 -96.5t83 -56t145 -18q41 0 104.5 11t117.5 34l139 718h51l-276 -1423h-52l127 651q-18 -8 -45.5 -15t-58.5 -12t-60.5 -8.5t-54.5 -3.5q-102 0 -166.5 21.5t-96.5 65.5t-36 112z" />
<glyph unicode="&#x428;" horiz-adv-x="1206" d="M25 0l276 1425h51l-268 -1374h418l268 1374h53l-268 -1374h422l268 1374h53l-276 -1425h-997z" />
<glyph unicode="&#x429;" horiz-adv-x="1206" d="M25 0l276 1425h51l-268 -1374h418l268 1374h53l-268 -1374h422l268 1374h53l-268 -1374h70l-62 -317h-49l53 266h-1017z" />
<glyph unicode="&#x42a;" horiz-adv-x="1110" d="M195 1378l10 47h454l-129 -659h199q84 0 144.5 -25.5t100.5 -68.5t59.5 -99.5t19.5 -117.5q0 -86 -24.5 -167t-78 -145.5t-138.5 -103.5t-208 -39h-272l266 1378h-403zM391 51h217q100 0 174 33t122 87t71.5 125t23.5 144q0 119 -66.5 197t-201.5 78h-211z" />
<glyph unicode="&#x42b;" horiz-adv-x="997" d="M25 0l276 1425h51l-129 -659h199q84 0 144.5 -25.5t100.5 -68.5t59 -99.5t19 -117.5q0 -84 -24.5 -166t-77.5 -146.5t-138 -103.5t-208 -39h-272zM84 51h217q100 0 174 33t122 87t71.5 125t23.5 144q0 119 -66.5 197t-201.5 78h-211zM762 0l276 1425h52l-277 -1425h-51z " />
<glyph unicode="&#x42c;" horiz-adv-x="782" d="M4 0l277 1425h51l-129 -659h198q84 0 144.5 -25.5t100.5 -68.5t59.5 -99.5t19.5 -117.5q0 -84 -24.5 -166t-78 -146.5t-138.5 -103.5t-208 -39h-272zM63 51h218q100 0 173.5 33t122 87t72 125t23.5 144q0 119 -66.5 197t-202.5 78h-210z" />
<glyph unicode="&#x42d;" horiz-adv-x="782" d="M53 229l53 17q-4 -59 14.5 -99.5t51.5 -66t75 -36.5t85 -11q129 0 204.5 76.5t106.5 236.5l70 354h-373l10 50h373l61 319q33 166 -22 244t-191 78q-92 0 -167.5 -49.5t-112.5 -159.5l-49 16q23 66 58.5 111t80.5 73.5t96 42t105 13.5q74 0 129 -19.5t90 -63.5t44 -114 t-9 -170l-140 -723q-20 -104 -54 -174t-81 -112t-106.5 -59t-132.5 -17q-49 0 -99.5 12t-89.5 42t-61.5 76t-18.5 113z" />
<glyph unicode="&#x42e;" horiz-adv-x="995" d="M25 0l276 1425h51l-131 -669h178l78 395q14 76 47 130t78 89t101.5 51.5t117.5 16.5t114.5 -21.5t90.5 -62.5t52.5 -100.5t0.5 -135.5l-164 -852q-16 -78 -48.5 -131t-78 -86t-101 -48t-116.5 -15q-55 0 -108 17t-92 54t-57.5 95.5t-2.5 142.5l80 412h-178l-137 -707h-51 zM365 176q14 -51 46.5 -83t78 -46t92.5 -14q115 0 187.5 60.5t96.5 185.5l160 829q25 123 -33.5 203t-181.5 80q-100 0 -180 -63.5t-105 -186.5l-161 -838q-14 -76 0 -127z" />
<glyph unicode="&#x42f;" horiz-adv-x="813" d="M-49 0l160 442q37 98 91 171t146 102q-70 25 -110.5 89t-40.5 157q0 102 30.5 188t90 147.5t148.5 95t204 33.5h225l-274 -1425h-50l134 686h-240q-51 0 -92 -10t-77 -36t-66.5 -72t-61.5 -117l-166 -451h-51zM248 961q0 -123 71.5 -176.5t202.5 -53.5h191l125 649h-172 q-92 0 -169 -27.5t-132.5 -80.5t-86 -132t-30.5 -179z" />
<glyph unicode="&#x430;" horiz-adv-x="714" d="M53 170q0 66 13.5 162t35.5 211q25 131 54.5 221t69.5 145.5t92.5 80t125.5 24.5q84 0 139.5 -34t78.5 -87h4l20 102h49l-190 -995h-51l26 129h-4q-49 -66 -113.5 -104.5t-150.5 -38.5q-55 0 -93 15t-61.5 41t-34 59.5t-10.5 68.5zM106 178q0 -74 47.5 -109.5 t110.5 -35.5q55 0 104.5 23.5t87.5 61.5t63.5 85t33.5 92l82 428q18 100 -29.5 172t-156.5 72q-145 0 -218 -150q-10 -20 -22 -63t-26.5 -101.5t-28 -125t-23.5 -131t-17.5 -122t-7.5 -96.5z" />
<glyph unicode="&#x431;" horiz-adv-x="704" d="M49 168q-2 25 0 61.5t7 80.5t12.5 90t15.5 87q18 92 31.5 164t27 134.5t26.5 120t30 116.5q33 123 64.5 206t85.5 135t143.5 78.5t234.5 33.5l2 -45q-139 -4 -220 -29t-129 -73t-73.5 -118.5t-54.5 -169.5q-16 -59 -27.5 -106t-27.5 -109h6q31 51 65.5 81t68.5 45.5 t65 18.5t49 3q55 0 94 -14.5t65.5 -39t41 -54t18.5 -60.5q6 -47 0 -133t-31 -215q-10 -53 -21.5 -109.5t-33.5 -122.5q-23 -70 -53.5 -116t-66.5 -73.5t-78 -38.5t-89 -11q-123 0 -181.5 51t-66.5 131zM102 168q8 -59 51.5 -98t147.5 -39q68 0 121 32.5t90 110.5 q16 33 39.5 116t42.5 179q18 96 25.5 179t3.5 126q-6 61 -45.5 106.5t-139.5 45.5q-51 0 -96 -26t-80 -69t-60.5 -96t-35.5 -108l-37 -178q-23 -115 -27 -178.5t0 -102.5z" />
<glyph unicode="&#x432;" horiz-adv-x="716" d="M53 324l86 417q14 59 36 109.5t57.5 86.5t89 56.5t129.5 20.5q63 0 106 -17.5t69.5 -47t37 -67.5t10.5 -81q0 -31 -9.5 -65t-29 -66.5t-49 -60t-72.5 -44.5q68 -23 101.5 -83t29.5 -126q-10 -188 -111.5 -279t-254.5 -91q-156 0 -208.5 86t-17.5 252zM88 203 q0 -53 20.5 -91t60.5 -58.5t107 -20.5q82 0 140.5 25.5t97.5 69.5t58.5 102.5t23.5 121.5q4 86 -43 137.5t-139 51.5h-125l8 47h102q102 0 162 60.5t66 152.5q4 72 -44 120t-141 48q-115 0 -174 -66.5t-82 -169.5l-86 -414q-12 -63 -12 -116z" />
<glyph unicode="&#x433;" horiz-adv-x="643" d="M16 180q0 55 9.5 106.5t40 97.5t88 86t153.5 73q92 33 148.5 63.5t87 62t41 66.5t10.5 76q0 63 -37 108.5t-141 45.5q-92 0 -161 -46.5t-89 -138.5l-51 13q27 113 111.5 167t195.5 54q123 0 175 -53.5t52 -143.5q0 -47 -12 -90t-47 -82t-96.5 -74.5t-157.5 -68.5 q-78 -27 -130 -55.5t-83 -65.5t-43 -84t-12 -109q0 -72 43 -113.5t143 -41.5q92 0 156.5 48t89.5 134l51 -8q-31 -113 -113 -167t-198 -54q-119 0 -171.5 53t-52.5 141z" />
<glyph unicode="&#x434;" horiz-adv-x="704" d="M39 193q0 51 10 136t27 163q25 123 52.5 213t67.5 149t97 88t145 29q25 0 55.5 -8.5t61.5 -25.5t56.5 -44t37.5 -66l6 4l23 121q8 43 12 89t4 89q0 55 -10 106.5t-36.5 89.5t-73 60.5t-115.5 22.5q-61 0 -135 -12l-7 43q43 8 75 10t65 2q86 0 140 -25.5t86 -67.5 t44 -98.5t12 -117.5q0 -53 -6 -108.5t-18.5 -131.5t-31.5 -180.5t-48 -253.5q-25 -129 -53.5 -221t-69.5 -150.5t-97.5 -85t-138.5 -26.5q-66 0 -111.5 18.5t-73.5 48t-40 66.5t-12 74zM90 197q0 -31 10.5 -61t33 -53.5t58 -37.5t89.5 -14q76 0 133 37.5t90 111.5 q12 31 31.5 97.5t38 147.5t31.5 165t13 147q0 78 -50 132.5t-136 58.5q-47 0 -108.5 -24.5t-102.5 -96.5q-14 -25 -26.5 -54.5t-24.5 -71.5t-24.5 -97.5t-26.5 -130.5q-18 -92 -23.5 -153.5t-5.5 -102.5z" />
<glyph unicode="&#x435;" horiz-adv-x="684" d="M61 231q0 53 9.5 119t19.5 129q20 100 45 196.5t65 171.5t103.5 121t159.5 46q131 0 187.5 -54.5t56.5 -140.5q0 -92 -32 -161.5t-85 -115.5t-124 -68.5t-147 -22.5q-23 0 -69.5 4t-104.5 16q-12 -59 -21 -119.5t-9 -105.5q0 -41 7 -79t26.5 -67.5t54.5 -48t90 -18.5 q98 0 161.5 52t86.5 144l49 -10q-29 -117 -106.5 -174t-194.5 -57q-63 0 -107.5 18.5t-71 52t-38 77.5t-11.5 95zM154 522q18 -4 41.5 -8t48 -7t47 -4t39.5 -1q59 0 117.5 17.5t103.5 55t72.5 96t27.5 138.5q0 70 -46 113t-144 43q-115 0 -188.5 -104.5t-118.5 -338.5z" />
<glyph unicode="&#x436;" horiz-adv-x="1425" d="M-12 176l43 12q2 -78 49 -118.5t129 -40.5q47 0 80 11t56.5 29.5t38.5 42t28 48.5q18 39 39.5 130t40.5 193q29 147 37 229.5t1 116.5q-23 139 -170 140q-68 0 -123 -36t-83 -114l-45 15q37 98 102 140t151 42q55 0 95.5 -14.5t66 -38t40 -55t18.5 -64.5q2 -31 -1 -81 t-11.5 -112.5t-21.5 -134.5t-30 -141h4q78 145 149.5 303t139.5 319h49l-158 -794h5q33 80 63.5 149.5t61 137t64.5 137t71 151.5q18 49 39.5 92t54.5 75t80 50.5t112 18.5q102 0 162 -51.5t55 -149.5l-49 -6q2 76 -44 118t-128 42q-57 0 -108 -26t-94 -95 q-23 -39 -49.5 -141.5t-57.5 -255.5q-8 -37 -15 -80t-13.5 -83t-9.5 -74t-1 -52q10 -59 50 -95t118 -36q94 0 149.5 47t84.5 135l43 -14q-33 -102 -96.5 -157.5t-180.5 -55.5q-61 0 -102 14t-65.5 38.5t-36 56.5t-13.5 65q-2 29 3 78t14.5 106t21.5 114.5t24 102.5h-6 q-66 -135 -124 -272t-123 -287h-46l164 819h-4q-66 -154 -137.5 -300t-157.5 -306q-12 -43 -29.5 -84t-48 -72.5t-77.5 -51t-121 -19.5q-98 0 -155.5 49t-61.5 141z" />
<glyph unicode="&#x437;" horiz-adv-x="634" d="M-14 180v13.5t2 15.5l51 6q0 -6 -1 -13t-1 -14q0 -41 16.5 -69.5t44 -47t62.5 -27.5t71 -9q49 0 97.5 17.5t86.5 55t60.5 100t22.5 154.5q0 86 -42 113t-98 27h-98l10 47h107q29 0 63.5 11t65.5 40t52.5 76t21.5 121q0 47 -15.5 78.5t-41 52t-59.5 29t-73 8.5 q-86 0 -145.5 -42t-85.5 -139l-54 11q29 115 110 166t179 51q41 0 83 -9.5t76 -33t55.5 -62.5t21.5 -98q0 -29 -7.5 -72t-25.5 -87t-49 -81t-80 -51q80 -25 80 -147q0 -106 -28.5 -180t-75 -119t-102.5 -65.5t-112 -20.5q-43 0 -87 10t-79.5 32.5t-57 60.5t-21.5 91z" />
<glyph unicode="&#x438;" horiz-adv-x="722" d="M53 180q0 25 4 51.5t9 53.5l139 712h53l-139 -718q-10 -47 -10 -89q0 -31 7 -59.5t24.5 -50t46 -33.5t73.5 -12q57 0 107.5 25.5t90.5 66.5t66.5 91t36.5 97l131 682h51l-192 -997h-51l26 135h-4q-49 -70 -121.5 -110.5t-144.5 -40.5q-59 0 -98 15t-61.5 42t-33 62.5 t-10.5 76.5z" />
<glyph unicode="&#x439;" horiz-adv-x="747" d="M53 180q0 25 4 51.5t9 53.5l139 712h53l-139 -718q-10 -47 -10 -89q0 -31 7 -59.5t24.5 -50t46 -33.5t73.5 -12q57 0 107.5 25.5t90.5 66.5t66.5 91t36.5 97l131 682h51l-192 -997h-51l26 135h-4q-49 -70 -121.5 -110.5t-144.5 -40.5q-59 0 -98 15t-61.5 42t-33 62.5 t-10.5 76.5zM307 1350h47q-2 -78 42 -124t110 -46t127 42t94 128h47q-10 -41 -33.5 -80t-57.5 -70t-80 -50.5t-101 -19.5t-93 20.5t-61.5 52.5t-33 71t-7.5 76z" />
<glyph unicode="&#x43a;" horiz-adv-x="665" d="M4 0l193 997h49l-90 -465h166q27 0 57.5 7.5t60 24t57 46t48.5 76.5l139 311h45l-127 -288q-33 -76 -71.5 -125t-104.5 -66q66 -16 86 -68.5t25 -125.5l20 -324h-47l-16 330q-8 100 -52.5 131t-115.5 31h-179l-94 -492h-49z" />
<glyph unicode="&#x43b;" horiz-adv-x="722" d="M-82 6q51 29 91 68t72 97t56.5 141t46.5 200l95 485h471l-193 -997h-53l184 950h-369l-90 -456q-39 -205 -102.5 -336t-189.5 -195z" />
<glyph unicode="&#x43c;" horiz-adv-x="911" d="M8 0l193 997h51l168 -716l459 716h55l-193 -997h-49l170 874h-2l-420 -647h-53l-160 645h-2l-168 -872h-49z" />
<glyph unicode="&#x43d;" horiz-adv-x="712" d="M8 0l193 997h53l-88 -458h430l88 458h53l-192 -997h-53l94 487h-430l-95 -487h-53z" />
<glyph unicode="&#x43e;" horiz-adv-x="702" d="M43 190q0 51 10 137.5t27 164.5q27 137 54.5 236t67.5 162.5t99.5 93.5t149.5 30q61 0 104 -19.5t69.5 -49.5t39 -66.5t12.5 -71.5q0 -59 -11.5 -146.5t-33.5 -203.5q-25 -129 -52.5 -219.5t-67.5 -145.5t-97.5 -80.5t-141.5 -25.5q-66 0 -109.5 18.5t-70 48t-38 65.5 t-11.5 72zM94 195q0 -31 9.5 -61t30 -52.5t55 -36.5t87.5 -14q76 0 136.5 33.5t95.5 115.5q12 31 32.5 105.5t40 166t33 182.5t13.5 154q0 78 -46.5 128.5t-138.5 50.5q-57 0 -113.5 -22.5t-97.5 -94.5q-29 -47 -54 -146.5t-54 -250.5q-18 -92 -23.5 -154.5t-5.5 -103.5z " />
<glyph unicode="&#x43f;" horiz-adv-x="722" d="M10 0l193 997h51l-27 -135h4q49 70 122 111t145 41q57 0 97 -15.5t62.5 -42t32.5 -62.5t10 -77q0 -25 -4 -51.5t-8 -52.5l-139 -713h-53l139 719q10 47 10 88q0 63 -31.5 109.5t-119.5 46.5q-57 0 -107.5 -26t-90.5 -67t-67.5 -91t-35.5 -97l-132 -682h-51z" />
<glyph unicode="&#x440;" horiz-adv-x="700" d="M-86 -406l274 1410h52l-19 -103h4q45 53 103.5 85t142.5 32q39 0 78 -9.5t67.5 -33t47 -61t18.5 -93.5q0 -25 -4 -66.5t-10 -86.5t-13.5 -88t-13.5 -72q-29 -125 -53.5 -221.5t-61.5 -163t-94 -100t-149 -33.5q-53 0 -90 14t-60.5 34.5t-38 43t-20.5 39.5h-4l-105 -527 h-51zM98 240q0 -41 10.5 -77t34 -63.5t60.5 -44t90 -16.5q63 0 107 24.5t77 80t58.5 146.5t52.5 224q16 88 27.5 172t11.5 123q0 45 -14.5 75.5t-38 50t-53 28t-62.5 8.5q-102 0 -176 -67.5t-97 -176.5l-82 -420q-6 -35 -6 -67z" />
<glyph unicode="&#x441;" horiz-adv-x="669" d="M45 158q-2 25 2 64.5t11.5 84.5t15.5 92t16 88q12 55 24.5 111.5t25 107t25.5 90.5t25 64q37 68 102 111t171 43q117 0 180.5 -62.5t40.5 -185.5l-55 -10q18 98 -24 153.5t-146 55.5q-57 0 -116.5 -25t-102.5 -94q-23 -39 -47.5 -141.5t-55.5 -255.5q-8 -37 -15 -80 t-13.5 -83t-9.5 -74t-1 -52q10 -59 56.5 -93t124.5 -34q98 0 161.5 50t87.5 159l54 -11q-55 -246 -303 -245q-61 0 -104.5 14t-71 38.5t-42 55.5t-16.5 64z" />
<glyph unicode="&#x442;" horiz-adv-x="1171" d="M10 0l193 997h51l-27 -135h4q49 70 117 111t139 41q106 0 147.5 -49.5t45.5 -118.5q70 98 142.5 133t131.5 35q57 0 95 -15.5t61 -42t31 -62.5t8 -77q0 -25 -4 -51.5t-8 -52.5l-140 -713h-53l139 719q10 47 11 88q0 63 -28 109.5t-116 46.5q-55 0 -103 -25t-85 -63.5 t-62.5 -87t-37.5 -93.5l-134 -694h-51l139 719q4 23 7.5 48.5t3.5 39.5q0 63 -28 109.5t-116 46.5q-57 0 -106 -26t-87 -67t-63.5 -91t-33.5 -97l-132 -682h-51z" />
<glyph unicode="&#x443;" horiz-adv-x="622" d="M-129 -373q47 4 89 21.5t82 55.5t78 102.5t77 164.5l-95 1026h56l55 -673q4 -59 13.5 -137t6.5 -144h5q45 88 99 201.5t108.5 238.5t107.5 256t96 258h58q-68 -176 -126.5 -316t-115.5 -267t-117.5 -252t-130.5 -268q-25 -55 -57.5 -110.5t-73.5 -99.5t-94 -72t-119 -28z " />
<glyph unicode="&#x444;" horiz-adv-x="866" d="M45 201q0 68 14.5 164t36 191t46 176t46.5 118q41 68 125 117t207 49l78 409h51l-78 -409q68 0 119 -18.5t85 -49t51.5 -69.5t17.5 -80q-4 -59 -11.5 -138t-25.5 -161q-18 -86 -30.5 -143.5t-33.5 -123.5q-18 -68 -55 -114.5t-86 -76.5t-108.5 -43t-122.5 -13l-78 -394 h-51l77 394q-66 0 -116.5 18.5t-85.5 48t-53.5 68.5t-18.5 80zM100 225q0 -74 57.5 -133t168.5 -59l184 934q-80 0 -154.5 -32t-117.5 -101q-29 -47 -54.5 -135.5t-48.5 -213.5q-20 -109 -27.5 -167t-7.5 -93zM379 33q106 0 186 46t117 124q12 27 31.5 96.5t37 154.5t31 171 t13.5 147q0 98 -60.5 146.5t-173.5 48.5z" />
<glyph unicode="&#x445;" horiz-adv-x="567" d="M-70 0l330 512l-123 483h58l106 -448l289 448h65l-323 -485l147 -510h-59l-129 469l-299 -469h-62z" />
<glyph unicode="&#x446;" horiz-adv-x="722" d="M53 180q0 25 4 51.5t9 53.5l139 712h53l-139 -718q-10 -47 -10 -89q0 -31 7 -59.5t24.5 -50t46 -33.5t73.5 -12q57 0 107.5 25.5t90.5 66.5t66.5 91t36.5 97l131 682h51l-159 -823q-10 -45 4 -92t43 -76l-74 -266h-45l66 258q-20 23 -36 56.5t-16 80.5h-4 q-49 -70 -121.5 -110.5t-144.5 -40.5q-59 0 -98 15t-61.5 42t-33 62.5t-10.5 76.5z" />
<glyph unicode="&#x447;" horiz-adv-x="655" d="M84 553q0 47 10 96l68 348h51l-68 -342q-8 -47 -9 -86t13.5 -68.5t48 -46t95.5 -16.5q31 0 65.5 7.5t69.5 20.5t66.5 30.5t54.5 38.5l90 462h49l-194 -995h-50l93 467h-2q-66 -41 -133.5 -61.5t-120.5 -20.5q-76 0 -118 22.5t-60.5 59.5t-18.5 84z" />
<glyph unicode="&#x448;" horiz-adv-x="1171" d="M53 180q0 25 4 51.5t9 53.5l139 712h53l-139 -718q-10 -47 -10 -89q0 -31 6 -59.5t21.5 -50t43 -33.5t72.5 -12q55 0 103 24.5t85 63.5t62.5 86t38.5 94l133 694h51l-139 -718q-10 -47 -11 -89q0 -31 6.5 -59.5t21.5 -50t43 -33.5t73 -12q57 0 106 25.5t87 66.5t62.5 91 t35.5 97l131 682h51l-193 -997h-51l27 135h-4q-49 -70 -117 -110.5t-139 -40.5q-53 0 -89 13t-58.5 35.5t-33 53.5t-12.5 66q-70 -98 -142.5 -133t-131.5 -35t-96 15t-59.5 42t-31 62.5t-8.5 76.5z" />
<glyph unicode="&#x449;" horiz-adv-x="1181" d="M53 180q0 25 4 51.5t9 53.5l139 712h53l-139 -718q-10 -47 -10 -89q0 -31 6 -59.5t21.5 -50t43 -33.5t72.5 -12q55 0 103 24.5t85 63.5t62.5 86t38.5 94l133 694h51l-139 -718q-10 -47 -11 -89q0 -31 6.5 -59.5t21.5 -50t43 -33.5t73 -12q57 0 107.5 25.5t90 66.5 t66.5 91t37 97l131 682h51l-160 -823q-10 -45 4.5 -92t43.5 -76l-72 -266h-47l65 258q-20 23 -35.5 56.5t-15.5 80.5h-4q-49 -70 -122 -110.5t-144 -40.5q-53 0 -89 13t-58.5 35.5t-33 53.5t-12.5 66q-70 -98 -142.5 -133t-131.5 -35t-96 15t-59.5 42t-31 62.5t-8.5 76.5z " />
<glyph unicode="&#x44a;" horiz-adv-x="903" d="M72 950l8 47h381l-90 -440h211q70 0 120 -21.5t80.5 -56.5t45 -80t14.5 -90q0 -82 -29 -142.5t-77 -100t-107.5 -60t-120.5 -20.5q-66 0 -117 20.5t-84 60t-43 100t6 140.5l127 643h-325zM319 303q-25 -129 27.5 -199.5t159.5 -70.5q72 0 124 22.5t87 61.5t52 87t19 101 q2 39 -10 77t-39.5 65.5t-69.5 45t-100 17.5h-209z" />
<glyph unicode="&#x44b;" horiz-adv-x="901" d="M57.5 166.5q-10.5 60.5 5.5 140.5l138 690h53l-90 -440h211q70 0 120 -21.5t80.5 -56.5t45 -80t14.5 -90q0 -82 -28.5 -142.5t-77 -100t-108 -60t-120.5 -20.5q-66 0 -117 20.5t-83.5 60t-43 100zM113 303q-25 -129 27.5 -199.5t158.5 -70.5q72 0 124 22.5t87 61.5 t52.5 87t19.5 101q2 39 -10.5 77t-40 65.5t-69.5 45t-100 17.5h-208zM678 0l192 997h52l-193 -997h-51z" />
<glyph unicode="&#x44c;" horiz-adv-x="675" d="M47 166.5q-10 60.5 6 140.5l137 690h54l-90 -440h211q70 0 120 -21.5t80.5 -56.5t45 -80t14.5 -90q0 -82 -29 -142.5t-77 -100t-107.5 -60t-120.5 -20.5q-66 0 -117 20.5t-84 60t-43 100zM102 303q-25 -129 27.5 -199.5t159.5 -70.5q72 0 124 22.5t87 61.5t52 87t19 101 q2 39 -10 77t-39.5 65.5t-69.5 45t-100 17.5h-209z" />
<glyph unicode="&#x44d;" horiz-adv-x="675" d="M39 190l53 15q-4 -90 48.5 -131t140.5 -41q94 0 140 38t71 89q18 39 38.5 130t38.5 193h-317l10 52h318q20 111 28 185.5t2 108.5q-10 68 -55 102t-111 34q-88 0 -152.5 -45.5t-88.5 -128.5l-51 14q33 104 111.5 156.5t185.5 52.5q106 0 156 -51.5t61 -118.5q2 -18 1 -55 t-7.5 -85.5t-15.5 -104.5t-19 -112q-8 -41 -17.5 -88t-18.5 -93t-19.5 -86t-20.5 -66q-12 -31 -33.5 -62t-54.5 -54.5t-78 -37.5t-107 -14q-106 0 -173.5 50t-63.5 154z" />
<glyph unicode="&#x44e;" horiz-adv-x="919" d="M10 0l193 997h51l-88 -458h153q27 125 52.5 214t64.5 147t95.5 86t142.5 28q61 0 103 -19.5t67.5 -49.5t37 -66.5t11.5 -71.5q0 -59 -13.5 -146.5t-35.5 -203.5q-25 -129 -50.5 -219.5t-63.5 -145.5t-94 -80.5t-140 -25.5q-66 0 -110 18.5t-69.5 48t-36 65.5t-10.5 72 q0 25 3 60t8.5 75t12.5 82t15 80h-153l-95 -487h-51zM322 195q0 -31 8 -61t28.5 -52.5t54 -36.5t87.5 -14q76 0 133 33.5t92 115.5q14 33 32.5 111t39.5 172q18 88 32.5 176t14.5 149q0 78 -43 128.5t-135 50.5q-57 0 -110.5 -22.5t-94.5 -94.5q-29 -47 -53.5 -146.5 t-53.5 -250.5q-18 -92 -25 -154.5t-7 -103.5z" />
<glyph unicode="&#x44f;" horiz-adv-x="708" d="M-20 0l116 313q25 68 63 121t101 72q-127 47 -127 186q0 61 19.5 117.5t61.5 97.5t106.5 65.5t156.5 24.5h242l-193 -997h-51l92 481h-194q-35 0 -67 -6t-60.5 -23.5t-53 -49t-45.5 -83.5l-116 -319h-51zM182 696q0 -168 226 -168h170l81 422h-198q-129 0 -204 -65.5 t-75 -188.5z" />
<glyph unicode="&#x451;" horiz-adv-x="684" d="M61 231q0 53 9.5 119t19.5 129q20 100 45 196.5t65 171.5t103.5 121t159.5 46q131 0 187.5 -54.5t56.5 -140.5q0 -92 -32 -161.5t-85 -115.5t-124 -68.5t-147 -22.5q-23 0 -69.5 4t-104.5 16q-12 -59 -21 -119.5t-9 -105.5q0 -41 7 -79t26.5 -67.5t54.5 -48t90 -18.5 q98 0 161.5 52t86.5 144l49 -10q-29 -117 -106.5 -174t-194.5 -57q-63 0 -107.5 18.5t-71 52t-38 77.5t-11.5 95zM154 522q18 -4 41.5 -8t48 -7t47 -4t39.5 -1q59 0 117.5 17.5t103.5 55t72.5 96t27.5 138.5q0 70 -46 113t-144 43q-115 0 -188.5 -104.5t-118.5 -338.5z M324 1208l12 66h57l-12 -66h-57zM614 1208l13 66h57l-12 -66h-58z" />
<glyph unicode="&#x452;" horiz-adv-x="722" d="M10 0l232 1194h-92l8 41h92l49 254h51l-49 -254h432l-8 -41h-432l-62 -313h2q47 63 111.5 98t136.5 35q66 0 108 -19.5t65.5 -49.5t32.5 -66.5t9 -71.5q0 -59 -11 -152.5t-34 -210.5q-25 -129 -51.5 -220t-67 -148.5t-101 -86t-152.5 -30.5l10 47q76 0 140.5 40t98.5 122 q12 31 33 107.5t40.5 170t32.5 186.5t13 156q0 78 -42 127.5t-134 49.5q-55 0 -101 -22.5t-81 -58.5t-58.5 -82t-31.5 -93l-138 -709h-51z" />
<glyph unicode="&#x453;" horiz-adv-x="643" d="M16 180q0 55 9.5 106.5t40 97.5t88 86t153.5 73q92 33 148.5 63.5t87 62t41 66.5t10.5 76q0 63 -37 108.5t-141 45.5q-92 0 -161 -46.5t-89 -138.5l-51 13q27 113 111.5 167t195.5 54q123 0 175 -53.5t52 -143.5q0 -47 -12 -90t-47 -82t-96.5 -74.5t-157.5 -68.5 q-78 -27 -130 -55.5t-83 -65.5t-43 -84t-12 -109q0 -72 43 -113.5t143 -41.5q92 0 156.5 48t89.5 134l51 -8q-31 -113 -113 -167t-198 -54q-119 0 -171.5 53t-52.5 141zM420 1151l192 293l62 -27l-225 -278z" />
<glyph unicode="&#x454;" horiz-adv-x="675" d="M45 158q-2 25 2 64.5t11.5 84.5t15.5 92t16 88q12 55 24.5 111.5t25 107t25.5 90.5t25 64q37 68 101.5 111t171.5 43q109 0 172 -54.5t53 -164.5l-55 -15q10 88 -33 136.5t-141 48.5q-57 0 -116.5 -25t-102.5 -94q-20 -35 -41 -115t-45 -196h313l-10 -52h-312l-8 -34 q-8 -37 -15 -80t-13.5 -83t-9.5 -74t-1 -52q10 -59 56.5 -93t124.5 -34q98 0 156.5 45t86.5 141l53 -12q-61 -221 -296 -221q-61 0 -104.5 14t-71 38.5t-42 55.5t-16.5 64z" />
<glyph unicode="&#x455;" horiz-adv-x="643" d="M8 180q0 12 1 24.5t3 26.5l56 11q-4 -12 -4.5 -24.5t-0.5 -24.5q0 -74 46.5 -117t134.5 -43q141 0 201.5 80t60.5 202q0 66 -35 106t-131 81q-63 27 -103 53.5t-63.5 53t-33 56t-9.5 62.5q0 127 77 207t228 80q104 0 169 -47t65 -144q0 -27 -6 -57l-56 -10q6 27 6 51 q0 76 -49 117t-135 41q-68 0 -114 -20.5t-74.5 -53.5t-41 -74t-12.5 -82q0 -61 41 -103t156 -89q106 -43 142 -96.5t36 -124.5q0 -72 -17.5 -133.5t-55 -106.5t-98 -70.5t-144.5 -25.5q-111 0 -175.5 48t-64.5 146z" />
<glyph unicode="&#x456;" horiz-adv-x="301" d="M41 0l192 997h52l-193 -997h-51zM279 1237l12 66h57l-12 -66h-57z" />
<glyph unicode="&#x457;" horiz-adv-x="301" d="M41 0l192 997h52l-193 -997h-51zM123 1194l12 66h58l-13 -66h-57zM414 1194l12 66h57l-12 -66h-57z" />
<glyph unicode="&#x458;" horiz-adv-x="276" d="M-190 -416l8 49h8q43 0 72.5 11.5t48 33t30 53t19.5 72.5l233 1194h52l-236 -1212q-23 -113 -77 -157t-142 -44h-16zM276 1237l13 66h57l-12 -66h-58z" />
<glyph unicode="&#x459;" horiz-adv-x="1157" d="M-82 6q51 29 91 68t72 97t56.5 141t46.5 200l95 485h436l-88 -440h211q70 0 120 -21.5t80.5 -56.5t45 -80t14.5 -90q0 -78 -27 -138t-73 -101t-106.5 -62.5t-127.5 -21.5q-66 0 -117 20.5t-84 60t-43 100t6 140.5l127 643h-334l-90 -456q-39 -205 -102.5 -336 t-189.5 -195zM575 303q-25 -129 27.5 -199.5t159.5 -70.5q70 0 123 22.5t88 61.5t53 87t18 101q0 39 -12 77t-38.5 65.5t-68.5 45t-100 17.5h-209z" />
<glyph unicode="&#x45a;" horiz-adv-x="1138" d="M12 0l193 997h51l-86 -440h395l88 440h54l-91 -440h211q70 0 120 -21.5t81 -56.5t45 -80t14 -90q0 -82 -28.5 -142.5t-76.5 -100t-107.5 -60t-120.5 -20.5q-131 0 -200 80.5t-38 240.5l39 203h-393l-99 -510h-51zM565 303q-25 -129 27.5 -199.5t159.5 -70.5 q72 0 124 22.5t86.5 61.5t52 87t19.5 101q2 39 -10 77t-40 65.5t-70 45t-99 17.5h-209z" />
<glyph unicode="&#x45b;" horiz-adv-x="722" d="M10 0l232 1194h-97l5 41h100l49 254h51l-51 -254h426l-6 -41h-428l-64 -332h4q49 70 122 111t145 41q57 0 97 -15.5t62.5 -42t32.5 -62.5t10 -77q0 -25 -4 -51.5t-8 -52.5l-139 -713h-53l139 719q10 47 10 88q0 63 -31.5 109.5t-119.5 46.5q-57 0 -107.5 -26t-90.5 -67 t-67.5 -91t-35.5 -97l-132 -682h-51z" />
<glyph unicode="&#x45c;" horiz-adv-x="665" d="M4 0l193 997h49l-90 -465h166q27 0 57.5 7.5t60 24t57 46t48.5 76.5l139 311h45l-127 -288q-33 -76 -71.5 -125t-104.5 -66q66 -16 86 -68.5t25 -125.5l20 -324h-47l-16 330q-8 100 -52.5 131t-115.5 31h-179l-94 -492h-49zM449 1151l192 293l61 -27l-225 -278z" />
<glyph unicode="&#x45e;" horiz-adv-x="622" d="M-137 -373q47 4 89 21.5t82 55.5t78 102.5t76 164.5l-94 1026h56l55 -673q4 -59 13 -137t7 -144h4q45 88 99.5 201.5t109 238.5t107.5 256t96 258h57q-68 -176 -126 -316t-115.5 -267t-117.5 -252t-130 -268q-25 -55 -57.5 -110.5t-73.5 -99.5t-94.5 -72t-118.5 -28z M215 1350h47q-2 -78 42 -124t110 -46t127 42t94 128h47q-10 -41 -33.5 -80t-57.5 -70t-80 -50.5t-101 -19.5t-93 20.5t-62 52.5t-33 71t-7 76z" />
<glyph unicode="&#x45f;" horiz-adv-x="712" d="M53 180q0 25 4 51.5t9 53.5l139 712h53l-139 -718q-10 -47 -10 -89q0 -31 7 -59.5t24.5 -50t46 -33.5t73.5 -12q57 0 107.5 25.5t90.5 66.5t66.5 91t36.5 97l131 682h51l-192 -997h-51l26 135h-4q-49 -70 -121.5 -110.5t-144.5 -40.5q-59 0 -98 15t-61.5 42t-33 62.5 t-10.5 76.5zM315 -315l56 262l53 18l-64 -280h-45z" />
<glyph unicode="&#x490;" horiz-adv-x="708" d="M27 0l276 1425h516l47 232h47l-55 -279h-516l-268 -1378h-47z" />
<glyph unicode="&#x491;" horiz-adv-x="612" d="M12 0l191 997h442l45 226h49l-55 -273h-438l-183 -950h-51z" />
<glyph unicode="&#x4d9;" horiz-adv-x="712" d="M63 180q0 92 32 162t85 116t123 68.5t148 22.5q23 0 69.5 -4t104.5 -17q12 59 21 120t9 106q0 39 -7 77.5t-26.5 68.5t-54.5 48.5t-90 18.5q-98 0 -161.5 -52.5t-86.5 -144.5l-49 10q29 117 107 174.5t194 57.5q63 0 107.5 -18.5t71 -52.5t38 -78t11.5 -95 q0 -53 -9.5 -118.5t-19.5 -129.5q-20 -100 -45 -196.5t-65 -171t-103.5 -120.5t-159.5 -46q-131 0 -187.5 54t-56.5 140zM119 190q0 -70 46 -112.5t144 -42.5q113 0 186.5 104.5t120.5 337.5q-18 4 -41.5 8t-48 7.5t-47 4.5t-39.5 1q-59 0 -117.5 -17.5t-103.5 -55.5 t-72.5 -96.5t-27.5 -138.5z" />
<glyph unicode="&#x1e80;" horiz-adv-x="1191" d="M190 0l21 1425h47l-16 -905l-11 -473h5l180 469l348 909h51l-8 -923l-4 -455h4l170 453l344 925h51l-532 -1425h-80l4 913l2 381h-4l-146 -383l-346 -911h-80zM629 1743l41 53l241 -209l-18 -24z" />
<glyph unicode="&#x1e81;" horiz-adv-x="1048" d="M98 997h49l31 -698q4 -53 6 -112.5t-2 -118.5h4q49 98 99.5 210.5t99.5 232.5t97 244t93 242h64l31 -698q4 -57 7 -117.5t-1 -113.5h4q51 100 105.5 216.5t105.5 238.5t97 243t81 229l55 2q-90 -260 -194.5 -504.5t-237.5 -492.5h-59l-29 694q-2 47 -4 106.5t-2 125.5h-4 q-37 -104 -83 -222t-97.5 -239t-105.5 -240t-105 -225h-58zM487 1436l62 34l164 -323l-27 -17z" />
<glyph unicode="&#x1e82;" horiz-adv-x="1191" d="M190 0l21 1425h47l-16 -905l-11 -473h5l180 469l348 909h51l-8 -923l-4 -455h4l170 453l344 925h51l-532 -1425h-80l4 913l2 381h-4l-146 -383l-346 -911h-80zM723 1526l287 209l41 -54l-310 -180z" />
<glyph unicode="&#x1e83;" horiz-adv-x="1048" d="M98 997h49l31 -698q4 -53 6 -112.5t-2 -118.5h4q49 98 99.5 210.5t99.5 232.5t97 244t93 242h64l31 -698q4 -57 7 -117.5t-1 -113.5h4q51 100 105.5 216.5t105.5 238.5t97 243t81 229l55 2q-90 -260 -194.5 -504.5t-237.5 -492.5h-59l-29 694q-2 47 -4 106.5t-2 125.5h-4 q-37 -104 -83 -222t-97.5 -239t-105.5 -240t-105 -225h-58zM565 1151l193 293l61 -27l-225 -278z" />
<glyph unicode="&#x1e84;" horiz-adv-x="1191" d="M190 0l21 1425h47l-16 -905l-11 -473h5l180 469l348 909h51l-8 -923l-4 -455h4l170 453l344 925h51l-532 -1425h-80l4 913l2 381h-4l-146 -383l-346 -911h-80zM633 1518l12 65h57l-12 -65h-57zM924 1518l12 65h57l-12 -65h-57z" />
<glyph unicode="&#x1e85;" horiz-adv-x="1048" d="M98 997h49l31 -698q4 -53 6 -112.5t-2 -118.5h4q49 98 99.5 210.5t99.5 232.5t97 244t93 242h64l31 -698q4 -57 7 -117.5t-1 -113.5h4q51 100 105.5 216.5t105.5 238.5t97 243t81 229l55 2q-90 -260 -194.5 -504.5t-237.5 -492.5h-59l-29 694q-2 47 -4 106.5t-2 125.5h-4 q-37 -104 -83 -222t-97.5 -239t-105.5 -240t-105 -225h-58zM475 1200l12 66h58l-13 -66h-57zM766 1200l12 66h58l-13 -66h-57z" />
<glyph unicode="&#x1ef2;" horiz-adv-x="690" d="M211 1425h49l123 -757h4l416 757h57l-461 -825l-114 -600h-52l115 600zM317 1681l41 54l242 -209l-18 -25z" />
<glyph unicode="&#x1ef3;" horiz-adv-x="622" d="M-129 -373q47 4 89 21.5t82 55.5t78 102.5t77 164.5l-95 1026h56l55 -673q4 -59 13.5 -137t6.5 -144h5q45 88 99 201.5t108.5 238.5t107.5 256t96 258h58q-68 -176 -126.5 -316t-115.5 -267t-117.5 -252t-130.5 -268q-25 -55 -57.5 -110.5t-73.5 -99.5t-94 -72t-119 -28z M256 1436l61 34l164 -323l-26 -17z" />
<glyph unicode="&#x2000;" horiz-adv-x="935" />
<glyph unicode="&#x2001;" horiz-adv-x="1870" />
<glyph unicode="&#x2002;" horiz-adv-x="935" />
<glyph unicode="&#x2003;" horiz-adv-x="1870" />
<glyph unicode="&#x2004;" horiz-adv-x="623" />
<glyph unicode="&#x2005;" horiz-adv-x="467" />
<glyph unicode="&#x2006;" horiz-adv-x="311" />
<glyph unicode="&#x2007;" horiz-adv-x="311" />
<glyph unicode="&#x2008;" horiz-adv-x="233" />
<glyph unicode="&#x2009;" horiz-adv-x="374" />
<glyph unicode="&#x200a;" horiz-adv-x="103" />
<glyph unicode="&#x2010;" horiz-adv-x="632" d="M125 557l12 57h455l-12 -57h-455z" />
<glyph unicode="&#x2011;" horiz-adv-x="632" d="M125 557l12 57h455l-12 -57h-455z" />
<glyph unicode="&#x2012;" horiz-adv-x="632" d="M125 557l12 57h455l-12 -57h-455z" />
<glyph unicode="&#x2013;" horiz-adv-x="1024" d="M55 504l11 53h942l-11 -53h-942z" />
<glyph unicode="&#x2014;" horiz-adv-x="2048" d="M55 504l11 53h1968l-11 -53h-1968z" />
<glyph unicode="&#x2015;" horiz-adv-x="2048" d="M55 504l11 53h1968l-11 -53h-1968z" />
<glyph unicode="&#x2018;" horiz-adv-x="268" d="M240 1194l14 74l86 168h37l-68 -168h19l-15 -74h-73z" />
<glyph unicode="&#x2019;" horiz-adv-x="268" d="M240 1194l67 168h-18l14 74h74l-15 -74l-86 -168h-36z" />
<glyph unicode="&#x201a;" horiz-adv-x="219" d="M-53 -168l67 168h-18l12 74h74l-12 -74l-86 -168h-37z" />
<glyph unicode="&#x201c;" horiz-adv-x="411" d="M219 1194l14 74l86 168h37l-67 -168h18l-14 -74h-74zM379 1194l14 74l86 168h37l-67 -168h18l-14 -74h-74z" />
<glyph unicode="&#x201d;" horiz-adv-x="411" d="M219 1194l68 168h-19l15 74h73l-14 -74l-86 -168h-37zM379 1194l67 168h-18l14 74h74l-14 -74l-86 -168h-37z" />
<glyph unicode="&#x201e;" horiz-adv-x="380" d="M-53 -168l67 168h-18l14 74h74l-14 -74l-86 -168h-37zM106 -168l68 168h-18l14 74h74l-15 -74l-86 -168h-37z" />
<glyph unicode="&#x2020;" horiz-adv-x="657" d="M90 868l10 54h289l98 503h60l-98 -503h290l-10 -54h-291l-248 -1274h-59l248 1274h-289z" />
<glyph unicode="&#x2021;" horiz-adv-x="657" d="M-12 346l10 53h289l92 469h-289l10 54h289l98 503h60l-98 -503h290l-10 -54h-291l-92 -469h291l-10 -53h-291l-146 -752h-59l145 752h-288z" />
<glyph unicode="&#x2022;" horiz-adv-x="671" d="M195 532q0 63 43 107.5t104 44.5q59 0 102 -44t43 -108q0 -63 -43 -106t-102 -43q-61 0 -104 44t-43 105z" />
<glyph unicode="&#x2023;" horiz-adv-x="708" d="M166 299v514l477 -246z" />
<glyph unicode="&#x2026;" horiz-adv-x="1050" d="M-8 0l14 78h74l-14 -78h-74zM385 0l14 78h74l-14 -78h-74zM795 0l14 78h74l-15 -78h-73z" />
<glyph unicode="&#x202f;" horiz-adv-x="374" />
<glyph unicode="&#x2030;" horiz-adv-x="1511" d="M68 -35l933 1497h52l-934 -1497h-51zM92 733l105 541q16 76 57 117t127 41q74 0 121 -45.5t33 -120.5l-101 -545q-16 -74 -57 -115t-127 -41q-37 0 -70 11.5t-54.5 33t-31.5 52t-2 71.5zM141 731q-10 -45 16.5 -83t98.5 -38q66 0 93.5 35t33.5 76l100 545 q10 47 -19.5 82.5t-88.5 35.5q-66 0 -91.5 -33.5t-35.5 -80.5zM625 158l104 540q16 76 57 117t127 41q74 0 121 -45t33 -121l-100 -545q-16 -74 -57.5 -114.5t-127.5 -40.5q-37 0 -69.5 11t-54 32.5t-32 52.5t-1.5 72zM674 156q-10 -45 16.5 -83t97.5 -38q66 0 93.5 34.5 t33.5 75.5l101 545q10 47 -19.5 83t-89.5 36q-66 0 -91 -34t-36 -81zM1079 158l105 540q16 76 57 117t127 41q74 0 121 -45t33 -121l-101 -545q-16 -74 -57 -114.5t-127 -40.5q-37 0 -69.5 11t-54 32.5t-32 52.5t-2.5 72zM1128 156q-10 -45 16.5 -83t98.5 -38 q66 0 93.5 34.5t33.5 75.5l100 545q10 47 -19.5 83t-88.5 36q-66 0 -91.5 -34t-35.5 -81z" />
<glyph unicode="&#x2039;" horiz-adv-x="454" d="M80 475l293 381h55l-291 -381l142 -381h-56z" />
<glyph unicode="&#x203a;" horiz-adv-x="415" d="M4 94l293 381l-143 381h55l145 -381l-295 -381h-55z" />
<glyph unicode="&#x2044;" horiz-adv-x="358" d="M-285 -35l934 1497h51l-933 -1497h-52z" />
<glyph unicode="&#x205f;" horiz-adv-x="467" />
<glyph unicode="&#x2070;" horiz-adv-x="452" d="M156 918l104 540q16 76 57 117t127 41q74 0 121 -45t33 -121l-100 -545q-16 -74 -57.5 -114.5t-127.5 -40.5q-37 0 -69.5 11t-54 32.5t-32 52.5t-1.5 72zM205 915q-10 -45 16.5 -82.5t97.5 -37.5q66 0 93.5 34.5t33.5 75.5l101 545q10 47 -19.5 83t-89.5 36 q-66 0 -91 -34t-36 -81z" />
<glyph unicode="&#x2074;" horiz-adv-x="452" d="M121 907l8 43l320 658h55l-322 -650h219l45 232h50l-47 -232h81l-10 -51h-80l-28 -149h-50l29 149h-270z" />
<glyph unicode="&#x2075;" horiz-adv-x="452" d="M145 866q0 8 2.5 22.5t10.5 55.5h51q-8 -37 -9 -48t-1 -17q0 -33 23.5 -56.5t76.5 -23.5q55 0 93 26.5t48 77.5q20 92 30.5 145.5t14.5 80t5.5 34.5t1.5 13q0 45 -29 63t-74 18q-35 0 -68.5 -14t-50.5 -39h-49l80 406h324l-9 -47h-276l-55 -287q25 12 56.5 21.5t66.5 9.5 q63 0 100 -32t37 -85q0 -12 -10.5 -81t-42.5 -206q-16 -66 -62.5 -109.5t-140.5 -43.5q-53 0 -98.5 25.5t-45.5 90.5z" />
<glyph unicode="&#x2076;" horiz-adv-x="452" d="M168 932l22 127q8 37 18.5 60.5t22.5 45.5l273 443h53l-233 -387q16 8 37.5 13t39.5 5q78 0 113 -44t21 -116l-33 -176q-14 -66 -57.5 -109.5t-131.5 -43.5q-82 0 -121.5 48t-23.5 134zM217 924q-10 -51 11.5 -91t86.5 -40q39 0 63.5 10t39 26.5t21.5 35t12 36.5 q12 57 21 108.5t13 71.5q10 47 -12.5 78t-85.5 31t-99 -40t-44 -87z" />
<glyph unicode="&#x2077;" horiz-adv-x="391" d="M145 758l408 805h-256l-21 -105h-47l31 152h358l-10 -37l-411 -815h-52z" />
<glyph unicode="&#x2078;" horiz-adv-x="452" d="M152 915l30 160q8 45 32 75t56 46q-29 16 -39 47t0 78l29 147q16 78 66.5 113t124.5 35q70 0 115.5 -40t31.5 -116l-25 -139q-10 -47 -34.5 -77t-59.5 -48q29 -18 40 -47t3 -74l-30 -174q-16 -74 -60.5 -112.5t-130.5 -38.5q-37 0 -67.5 12t-51 33.5t-30 52.5t-0.5 67z M203 911q-10 -45 14.5 -80.5t91.5 -35.5q59 0 90 30.5t41 75.5l33 174q8 45 -18.5 72t-81.5 29q-55 0 -93 -27t-47 -74zM283 1321q-10 -45 17.5 -72.5t82.5 -27.5q53 0 91 27.5t48 72.5l25 139q8 47 -17.5 78t-87.5 31q-55 0 -89 -26.5t-42 -74.5z" />
<glyph unicode="&#x2079;" horiz-adv-x="452" d="M209 758l237 389q-16 -8 -37.5 -13.5t-39.5 -5.5q-78 0 -115 43t-23 115l33 176q14 66 56 110t131 44q80 0 121.5 -48t25.5 -134l-23 -127q-8 -37 -18 -60.5t-22 -46.5l-273 -442h-53zM281 1284q-10 -47 12.5 -77.5t85.5 -30.5t99 39.5t44 87.5l27 139q4 20 2 43.5 t-12.5 43t-32 32t-55.5 12.5q-39 0 -64 -10.5t-39 -26.5t-21.5 -35.5t-11.5 -38.5z" />
<glyph unicode="&#x207a;" horiz-adv-x="452" d="M143 1094l11 49h182l35 182h49l-35 -182h180l-10 -49h-180l-35 -187h-49l35 187h-183z" />
<glyph unicode="&#x207b;" horiz-adv-x="411" d="M133 1083l10 56h312l-11 -56h-311z" />
<glyph unicode="&#x207c;" horiz-adv-x="452" d="M127 1001l8 50h412l-10 -50h-410zM158 1169l10 50h412l-11 -50h-411z" />
<glyph unicode="&#x207d;" horiz-adv-x="290" d="M188 954q0 82 18.5 172.5t53.5 179.5t85 173t114 153l22 -16q-117 -154 -182.5 -324t-65.5 -340q0 -88 14.5 -170t41.5 -151l-27 -17q-35 66 -54.5 154t-19.5 186z" />
<glyph unicode="&#x207e;" horiz-adv-x="290" d="M82 631q111 141 180.5 314t69.5 351q0 86 -14.5 167t-41.5 153l31 16q37 -68 55.5 -152.5t18.5 -176.5t-21.5 -187.5t-58.5 -185.5t-87 -171t-110 -145z" />
<glyph unicode="&#x207f;" horiz-adv-x="499" d="M100 573l125 658h51l-14 -72q31 37 73 60.5t95 23.5q88 0 121 -41t33 -90q0 -10 -1 -27.5t-5 -27.5l-95 -488h-53l92 475q6 27 6 54q0 41 -23.5 67.5t-84.5 26.5q-35 0 -65.5 -14.5t-55.5 -37t-40 -51t-21 -57.5l-88 -459h-50z" />
<glyph unicode="&#x2080;" horiz-adv-x="452" d="M-20 -27l104 541q16 76 57 117t127 41q74 0 121 -45t33 -121l-100 -545q-16 -74 -57.5 -115t-127.5 -41q-37 0 -69.5 11.5t-54 33t-32 52t-1.5 71.5zM29 -29q-10 -45 16.5 -83t97.5 -38q66 0 93.5 35t33.5 76l101 545q10 47 -19.5 83t-89.5 36q-66 0 -91.5 -34t-35.5 -81 z" />
<glyph unicode="&#x2081;" horiz-adv-x="380" d="M88 514l14 61l168 91h43l-168 -850h-47l154 788z" />
<glyph unicode="&#x2082;" horiz-adv-x="452" d="M-63 -184l10 47l354 475q35 45 55.5 95t20.5 95q0 41 -25.5 70t-85.5 29q-43 0 -82 -30t-55 -99l-55 12q20 80 75.5 122t124.5 42q74 0 117 -37t43 -96q0 -70 -28.5 -128.5t-65.5 -105.5l-330 -442h285l-8 -49h-350z" />
<glyph unicode="&#x2083;" horiz-adv-x="452" d="M-18 -25l57 9q-12 -53 10.5 -90t85.5 -37q72 0 98.5 34.5t36.5 88.5l27 135q10 53 -3 89t-67 36h-53l8 49h47q41 0 78 25.5t47 88.5l17 97q6 45 -12.5 86t-84.5 41q-59 0 -95 -40t-42 -95l-55 8q12 80 61.5 127t135.5 47q45 0 76.5 -14.5t49 -39t23.5 -55t0 -63.5 l-14 -72q-8 -43 -26.5 -93t-74.5 -75q39 -23 43 -64.5t-4 -80.5l-26 -137q-6 -33 -18.5 -64t-34 -55.5t-54.5 -39t-82 -14.5q-35 0 -66.5 10.5t-54 32t-33 53t-1.5 72.5z" />
<glyph unicode="&#x2084;" horiz-adv-x="452" d="M-27 -35l9 43l319 658h55l-321 -650h219l45 232h49l-47 -232h82l-10 -51h-80l-29 -149h-49l29 149h-271z" />
<glyph unicode="&#x2085;" horiz-adv-x="452" d="M-16 -76q0 8 2 22.5t10 55.5h51q-8 -37 -9 -48t-1 -17q0 -33 23.5 -56.5t76.5 -23.5q55 0 93 26.5t49 77.5q20 92 30 145.5t14.5 80t5.5 34.5t1 12q0 45 -29 63.5t-74 18.5q-35 0 -68.5 -14t-49.5 -39h-50l80 406h324l-8 -47h-277l-55 -287q25 12 56.5 21.5t66.5 9.5 q63 0 100 -32t37 -85q0 -12 -10.5 -81t-42.5 -206q-16 -66 -62.5 -110t-140.5 -44q-53 0 -98 26t-45 91z" />
<glyph unicode="&#x2086;" horiz-adv-x="452" d="M0 -10l23 127q8 37 18 60.5t22 45.5l273 443h53l-233 -387q16 8 37.5 13t39.5 5q78 0 113 -44t21 -116l-33 -176q-14 -66 -57.5 -110t-131.5 -44q-82 0 -121.5 48.5t-23.5 134.5zM49 -18q-10 -51 11.5 -91.5t86.5 -40.5q39 0 64 10.5t39 27t21.5 35t11.5 36.5 q12 57 21 108.5t13 71.5q10 47 -12.5 78t-85.5 31t-99 -40t-44 -87z" />
<glyph unicode="&#x2087;" horiz-adv-x="391" d="M-49 -184l407 805h-256l-20 -105h-47l31 152h358l-10 -37l-412 -815h-51z" />
<glyph unicode="&#x2088;" horiz-adv-x="452" d="M-14 -27l30 160q8 45 32 75t56 46q-29 16 -39 47t1 78l28 147q16 78 66.5 113t124.5 35q70 0 115.5 -40t31.5 -116l-24 -139q-10 -47 -35 -77t-60 -48q29 -18 40.5 -47t2.5 -74l-30 -174q-16 -74 -60.5 -113t-130.5 -39q-37 0 -67.5 12.5t-51 34t-30 52.5t-0.5 67z M37 -31q-10 -45 14.5 -80.5t91.5 -35.5q59 0 90 30.5t41 75.5l33 174q8 45 -18.5 71.5t-81.5 28.5q-55 0 -93 -26.5t-46 -73.5zM117 379q-10 -45 17.5 -72.5t82.5 -27.5q53 0 91 27.5t48 72.5l25 139q8 47 -17.5 78t-87.5 31q-55 0 -88.5 -27t-42.5 -74z" />
<glyph unicode="&#x2089;" horiz-adv-x="452" d="M31 -184l237 389q-16 -8 -37.5 -13.5t-40.5 -5.5q-78 0 -114.5 43t-22.5 115l33 176q14 66 56 110t130 44q80 0 122 -48t26 -134l-23 -127q-8 -37 -18 -60.5t-23 -46.5l-272 -442h-53zM102 342q-10 -47 13 -78t86 -31t99 40t44 87l27 140q4 20 2 43.5t-12.5 43t-32 32 t-56.5 12.5q-39 0 -63.5 -10.5t-38.5 -26.5t-21.5 -35.5t-11.5 -38.5z" />
<glyph unicode="&#x208a;" horiz-adv-x="452" d="M8 336l10 49h183l35 182h49l-35 -182h180l-10 -49h-180l-35 -186h-49l34 186h-182z" />
<glyph unicode="&#x208b;" horiz-adv-x="411" d="M51 326l10 55h312l-11 -55h-311z" />
<glyph unicode="&#x208c;" horiz-adv-x="452" d="M-2 244l8 49h412l-10 -49h-410zM29 412l10 49h412l-11 -49h-411z" />
<glyph unicode="&#x208d;" horiz-adv-x="290" d="M2 14q0 82 18.5 172t53.5 179.5t85 173.5t113 153l23 -16q-117 -154 -182.5 -324t-65.5 -340q0 -88 14.5 -170t40.5 -151l-26 -17q-35 66 -54.5 154t-19.5 186z" />
<glyph unicode="&#x208e;" horiz-adv-x="290" d="M-41 -309q111 141 180.5 314t69.5 351q0 86 -14.5 167t-40.5 153l30 16q37 -68 55.5 -152.5t18.5 -177.5q0 -92 -21.5 -187t-58.5 -185t-87 -171t-109 -145z" />
<glyph unicode="&#x20ab;" horiz-adv-x="696" d="M49 0l8 49h435l-9 -49h-434zM127 395q4 41 11 78t14 72l22 117q16 76 28.5 133t33.5 98q25 47 73.5 85t132.5 38q74 0 112 -33t50 -61l49 254h-194l8 45h195l32 159h47l-32 -159h98l-8 -45h-99l-186 -957h-47l14 70q-35 -35 -82 -57.5t-106 -22.5q-35 0 -67.5 9 t-57.5 30.5t-36 57.5t-5 89zM176 358q6 -59 38 -80.5t85 -21.5q82 0 138.5 50t72.5 132l63 326q8 37 4 73.5t-19 66.5t-44 47.5t-72 17.5q-59 0 -103 -31t-67 -78q-8 -18 -17 -49t-17.5 -68.5t-16.5 -77.5t-14 -77q-14 -72 -24.5 -138.5t-6.5 -91.5z" />
<glyph unicode="&#x20ac;" horiz-adv-x="696" d="M68 614l8 43h78l30 158h-78l9 43h78l57 297q14 76 46 130t75 88t94 49.5t106 15.5q51 0 98.5 -13.5t83 -41t57 -72.5t21.5 -107l-53 -12q0 104 -56 151.5t-149 47.5q-100 0 -174.5 -57.5t-97.5 -180.5l-57 -295h381l-9 -43h-380l-31 -158h381l-8 -43h-381l-62 -327 q-6 -31 -6 -58q0 -98 54.5 -148t140.5 -50q98 0 171.5 52t108.5 163l49 -8q-20 -70 -55 -118t-79 -78t-94 -43t-101 -13q-49 0 -93.5 13t-78 42t-53 74t-19.5 110q0 33 6 74l59 315h-77z" />
<glyph unicode="&#x2105;" horiz-adv-x="1095" d="M88 -35l934 1497h51l-934 -1497h-51zM152 838q-4 33 6 92t26 139q8 39 16.5 79t16.5 74.5t16.5 62.5t18.5 44q29 47 75 79t122 32q86 0 132 -48.5t29 -140.5l-55 -10q12 72 -14.5 110t-94.5 38q-37 0 -76.5 -15.5t-68.5 -62.5q-16 -25 -31.5 -96.5t-38.5 -178.5 q-4 -25 -9 -54.5t-9 -56t-6 -49t0 -34.5q12 -82 115 -82q63 0 106 35.5t59 111.5l56 -12q-20 -88 -75.5 -136t-145.5 -48t-128 40t-42 87zM543 139q0 37 8 97.5t18 113.5q18 96 38 166t49.5 115t72.5 66.5t109 21.5q45 0 75.5 -14.5t50 -36t28.5 -49t9 -52.5 q0 -43 -6 -105.5t-22 -139.5q-16 -86 -34.5 -148.5t-47.5 -103.5t-72 -60.5t-106 -19.5q-47 0 -80 13t-53.5 34.5t-28.5 48.5t-8 53zM598 143q0 -41 25.5 -72.5t91.5 -31.5q49 0 89 22.5t62 75.5q8 23 22.5 75t29 113.5t23.5 124t9 105.5q0 51 -30 82t-89 31 q-39 0 -75.5 -15.5t-65.5 -58.5q-16 -33 -33.5 -102.5t-38.5 -172.5q-14 -63 -17 -105t-3 -71z" />
<glyph unicode="&#x2116;" horiz-adv-x="1280" d="M20 0l277 1425h49l264 -1288h6l250 1288h49l-276 -1425h-49l-264 1280h-4l-250 -1280h-52zM870 631l9 47h374l-8 -47h-375zM922 887q0 35 7 97.5t19.5 128t28.5 124.5t35 90q27 45 68.5 76t113.5 31q51 0 85 -13.5t53.5 -35t26.5 -49t7 -54.5q0 -41 -7 -97.5t-20 -121.5 q-16 -86 -34.5 -145.5t-46 -96.5t-66.5 -53t-94 -16q-98 0 -137 41t-39 94zM979 907q0 -45 23.5 -73.5t91.5 -30.5q102 -2 143 84q14 23 27.5 72t23.5 107t16.5 116.5t6.5 97.5q0 53 -34 77.5t-87 24.5q-39 0 -69.5 -13t-57.5 -54q-16 -25 -30.5 -84.5t-27 -125 t-19.5 -122.5t-7 -76z" />
<glyph unicode="&#x2122;" horiz-adv-x="1175" d="M43 1378v47h389v-47h-172v-723h-45v723h-172zM496 655v768h43l249 -585l250 585h39v-768h-43v635h-6l-225 -518h-31l-227 533h-6v-650h-43z" />
<glyph unicode="&#x2153;" horiz-adv-x="1085" d="M35 -35l934 1497h51l-934 -1497h-51zM233 1272l15 61l168 90h43l-168 -850h-47l153 789zM584 160l57 8q-12 -53 10.5 -90t85.5 -37q72 0 98.5 35t36.5 88l27 135q10 53 -3 89t-67 36h-53l8 49h47q41 0 78 25.5t47 89.5l17 96q6 45 -12.5 86t-83.5 41q-59 0 -95.5 -40 t-42.5 -95l-55 8q12 80 61.5 127t135.5 47q45 0 76.5 -14.5t49 -39t23.5 -55t0 -63.5l-14 -72q-8 -43 -26.5 -93t-74.5 -75q39 -23 43.5 -64.5t-4.5 -80.5l-26 -137q-6 -33 -18.5 -63.5t-34 -55.5t-54.5 -39t-82 -14q-35 0 -66.5 10t-54 31.5t-33 53.5t-1.5 73z" />
<glyph unicode="&#x2154;" horiz-adv-x="1085" d="M88 573l10 48l355 475q35 45 55 95t20 95q0 41 -25.5 69.5t-84.5 28.5q-43 0 -82 -29.5t-55 -99.5l-56 13q20 80 75.5 122t125.5 42q74 0 117 -37t43 -97q0 -70 -29 -128t-65 -105l-330 -442h284l-8 -50h-350zM143 -35l934 1497h51l-933 -1497h-52zM641 160l57 8 q-12 -53 10.5 -90t86.5 -37q72 0 98.5 35t36.5 88l26 135q10 53 -3 89t-66 36h-53l8 49h47q41 0 78 25.5t47 89.5l16 96q6 45 -12.5 86t-83.5 41q-59 0 -95 -40t-42 -95l-56 8q12 80 61.5 127t135.5 47q45 0 77 -14.5t49 -39t23.5 -55t-0.5 -63.5l-14 -72q-8 -43 -26.5 -93 t-73.5 -75q39 -23 43 -64.5t-4 -80.5l-27 -137q-6 -33 -18.5 -63.5t-34 -55.5t-54 -39t-81.5 -14q-35 0 -67 10t-54.5 31.5t-32.5 53.5t-2 73z" />
<glyph unicode="&#x2155;" horiz-adv-x="1085" d="M49 -35l934 1497h51l-934 -1497h-51zM244 1272l14 61l168 90h43l-168 -850h-47l154 789zM596 109q0 8 2 22t10 55h51q-8 -37 -9 -48t-1 -17q0 -33 23.5 -56.5t77.5 -23.5q55 0 93 26.5t48 77.5q20 92 30.5 145.5t14.5 80t5 35t1 12.5q0 45 -28.5 63.5t-73.5 18.5 q-35 0 -69 -14.5t-50 -39.5h-49l80 406h323l-8 -47h-276l-56 -287q25 12 56.5 21.5t66.5 9.5q63 0 100 -32t37 -85q0 -12 -10 -80.5t-43 -206.5q-16 -66 -62 -109.5t-141 -43.5q-53 0 -98 25.5t-45 91.5z" />
<glyph unicode="&#x2156;" horiz-adv-x="1085" d="M78 573l10 48l354 475q35 45 55.5 95t20.5 95q0 41 -25.5 69.5t-84.5 28.5q-43 0 -82 -29.5t-56 -99.5l-55 13q20 80 75.5 122t125.5 42q74 0 116.5 -37t42.5 -97q0 -70 -28.5 -128t-65.5 -105l-329 -442h284l-8 -50h-350zM127 -35l934 1497h51l-934 -1497h-51zM637 109 q0 8 2 22t10 55h51q-8 -37 -9 -48t-1 -17q0 -33 23.5 -56.5t77.5 -23.5q55 0 93 26.5t48 77.5q20 92 30.5 145.5t14.5 80t5 35t1 12.5q0 45 -28.5 63.5t-73.5 18.5q-35 0 -69 -14.5t-50 -39.5h-49l80 406h323l-8 -47h-277l-55 -287q25 12 56.5 21.5t66.5 9.5q63 0 100 -32 t37 -85q0 -12 -10 -80.5t-43 -206.5q-16 -66 -62.5 -109.5t-140.5 -43.5q-53 0 -98 25.5t-45 91.5z" />
<glyph unicode="&#x2157;" horiz-adv-x="1085" d="M100 -35l934 1497h51l-933 -1497h-52zM115 733l57 8q-12 -53 10.5 -90t85.5 -37q72 0 98.5 35t36.5 88l27 135q10 53 -3 89t-67 36h-53l8 50h47q41 0 78 25.5t47 88.5l17 96q6 45 -12.5 86t-83.5 41q-59 0 -95.5 -39.5t-42.5 -95.5l-55 8q12 80 61.5 127.5t135.5 47.5 q45 0 76.5 -14.5t49 -39t23.5 -55.5t0 -63l-14 -72q-8 -43 -26.5 -93.5t-74.5 -74.5q39 -23 43.5 -65t-4.5 -81l-26 -137q-6 -33 -18.5 -63.5t-34 -55t-54.5 -39t-82 -14.5q-35 0 -66.5 10.5t-54 32t-33 53t-1.5 72.5zM637 109q0 8 2 22t10 55h51q-8 -37 -9 -48t-1 -17 q0 -33 23.5 -56.5t77.5 -23.5q55 0 93 26.5t48 77.5q20 92 30.5 145.5t14.5 80t5 35t1 12.5q0 45 -28.5 63.5t-73.5 18.5q-35 0 -69 -14.5t-50 -39.5h-49l80 406h323l-8 -47h-277l-55 -287q25 12 56.5 21.5t66.5 9.5q63 0 100 -32t37 -85q0 -12 -10 -80.5t-43 -206.5 q-16 -66 -62.5 -109.5t-140.5 -43.5q-53 0 -98 25.5t-45 91.5z" />
<glyph unicode="&#x2158;" horiz-adv-x="1085" d="M115 723l8 43l319 657h56l-322 -649h219l45 232h49l-47 -232h82l-10 -51h-80l-28 -150h-50l29 150h-270zM119 -35l934 1497h51l-934 -1497h-51zM639 109q0 8 2 22t10 55h51q-8 -37 -9 -48t-1 -17q0 -33 23.5 -56.5t77.5 -23.5q55 0 93 26.5t48 77.5q20 92 30.5 145.5 t14.5 80t5 35t1 12.5q0 45 -28.5 63.5t-73.5 18.5q-35 0 -69 -14.5t-50 -39.5h-49l80 406h323l-8 -47h-276l-56 -287q25 12 56.5 21.5t66.5 9.5q63 0 100 -32t37 -85q0 -12 -10 -80.5t-43 -206.5q-16 -66 -62 -109.5t-141 -43.5q-53 0 -98 25.5t-45 91.5z" />
<glyph unicode="&#x2159;" horiz-adv-x="1085" d="M104 -35l934 1497h52l-934 -1497h-52zM260 1272l14 61l168 90h43l-168 -850h-47l154 789zM608 174l23 127q8 37 18 60.5t23 46.5l272 442h53l-233 -387q16 8 37.5 13t40.5 5q78 0 112.5 -44t20.5 -115l-33 -177q-14 -66 -57 -109.5t-131 -43.5q-82 0 -122 48t-24 134z M657 166q-10 -51 11.5 -91t87.5 -40q39 0 63.5 10t38.5 26.5t21.5 35t11.5 36.5q12 57 21.5 108.5t13.5 72.5q10 47 -13 77.5t-86 30.5t-99 -40t-44 -87z" />
<glyph unicode="&#x215a;" horiz-adv-x="1085" d="M123 682q0 8 2 22.5t10 55.5h51q-8 -37 -9 -48.5t-1 -17.5q0 -33 23.5 -56.5t76.5 -23.5q55 0 93.5 27t48.5 78q20 92 30.5 145.5t14.5 80t5 34.5t1 12q0 45 -28.5 63.5t-73.5 18.5q-35 0 -69 -14.5t-50 -38.5h-49l80 405h323l-8 -47h-277l-55 -286q25 12 56.5 21t66.5 9 q63 0 100 -31.5t37 -84.5q0 -12 -10 -81t-43 -206q-16 -66 -62.5 -110t-140.5 -44q-53 0 -98 25.5t-45 91.5zM174 -35l934 1497h51l-934 -1497h-51zM643 174l23 127q8 37 18 60.5t23 46.5l272 442h53l-233 -387q16 8 37.5 13t40.5 5q78 0 112.5 -44t20.5 -115l-33 -177 q-14 -66 -57 -109.5t-132 -43.5q-82 0 -121.5 48t-23.5 134zM692 166q-10 -51 11.5 -91t87.5 -40q39 0 63.5 10t38.5 26.5t21.5 35t11.5 36.5q12 57 21 108.5t14 72.5q10 47 -13 77.5t-86 30.5t-99 -40t-44 -87z" />
<glyph unicode="&#x215b;" horiz-adv-x="1085" d="M47 -35l934 1497h51l-934 -1497h-51zM262 1272l14 61l168 90h43l-168 -850h-47l154 789zM588 158l30 159q8 45 32 75t57 46q-29 16 -39.5 47t0.5 78l28 148q16 78 66.5 112.5t124.5 34.5q70 0 116 -40t31 -116l-24 -139q-10 -47 -35 -76.5t-60 -48.5q29 -18 40.5 -47 t2.5 -74l-30 -174q-16 -74 -60.5 -112.5t-130.5 -38.5q-37 0 -67.5 12t-51 33.5t-29.5 52.5t-1 68zM639 154q-10 -45 14.5 -81t91.5 -36q59 0 90 30.5t42 75.5l32 174q8 45 -18.5 72t-81.5 29q-55 0 -93 -26.5t-46 -74.5zM719 563q-10 -45 17.5 -72.5t82.5 -27.5 q53 0 91 27.5t48 72.5l25 139q8 47 -17.5 78t-86.5 31q-55 0 -89 -26.5t-42 -73.5z" />
<glyph unicode="&#x215c;" horiz-adv-x="1085" d="M119 -35l934 1497h51l-934 -1497h-51zM139 733l58 8q-12 -53 10 -90t86 -37q72 0 98.5 35t36.5 88l27 135q10 53 -3.5 89t-66.5 36h-53l8 50h47q41 0 78 25.5t47 88.5l16 96q6 45 -12 86t-84 41q-59 0 -95 -39.5t-42 -95.5l-55 8q12 80 61 127.5t135 47.5q45 0 77 -14.5 t49.5 -39t23.5 -55.5t0 -63l-15 -72q-8 -43 -26.5 -93.5t-73.5 -74.5q39 -23 43 -65t-4 -81l-27 -137q-6 -33 -18 -63.5t-33.5 -55t-54.5 -39t-82 -14.5q-35 0 -66.5 10.5t-54 32t-33 53t-2.5 72.5zM621 158l30 159q8 45 32 75t56 46q-29 16 -39 47t0 78l29 148 q16 78 66.5 112.5t124.5 34.5q70 0 115.5 -40t31.5 -116l-25 -139q-10 -47 -34.5 -76.5t-59.5 -48.5q29 -18 40 -47t3 -74l-30 -174q-16 -74 -60.5 -112.5t-130.5 -38.5q-37 0 -67.5 12t-51 33.5t-30 52.5t-0.5 68zM672 154q-10 -45 14.5 -81t91.5 -36q59 0 90 30.5t41 75.5 l33 174q8 45 -18.5 72t-81.5 29q-55 0 -93 -26.5t-47 -74.5zM752 563q-10 -45 17.5 -72.5t82.5 -27.5q53 0 91 27.5t48 72.5l25 139q8 47 -17.5 78t-87.5 31q-55 0 -89 -26.5t-42 -73.5z" />
<glyph unicode="&#x215d;" horiz-adv-x="1085" d="M113 -35l934 1497h51l-934 -1497h-51zM125 682q0 8 2 22.5t10 55.5h51q-8 -37 -9 -48.5t-1 -17.5q0 -33 23.5 -56.5t77.5 -23.5q55 0 93 27t48 78q20 92 30.5 145.5t14.5 80t5 34.5t1 12q0 45 -28.5 63.5t-73.5 18.5q-35 0 -69 -14.5t-50 -38.5h-49l80 405h323l-8 -47 h-277l-55 -286q25 12 56.5 21t66.5 9q63 0 100 -31.5t37 -84.5q0 -12 -10 -81t-43 -206q-16 -66 -62.5 -110t-140.5 -44q-53 0 -98 25.5t-45 91.5zM623 158l30 159q8 45 32 75t56 46q-29 16 -39 47t0 78l29 148q16 78 66.5 112.5t124.5 34.5q70 0 115.5 -40t31.5 -116 l-25 -139q-10 -47 -34.5 -76.5t-59.5 -48.5q29 -18 40 -47t3 -74l-30 -174q-16 -74 -60.5 -112.5t-130.5 -38.5q-37 0 -67.5 12t-51 33.5t-30 52.5t-0.5 68zM674 154q-10 -45 14.5 -81t91.5 -36q59 0 90 30.5t41 75.5l33 174q8 45 -18.5 72t-81.5 29q-55 0 -93 -26.5 t-46 -74.5zM754 563q-10 -45 17.5 -72.5t82.5 -27.5q53 0 91 27.5t48 72.5l25 139q8 47 -17.5 78t-87.5 31q-55 0 -88.5 -26.5t-42.5 -73.5z" />
<glyph unicode="&#x215e;" horiz-adv-x="1085" d="M33 -35l934 1497h51l-934 -1497h-51zM193 573l407 805h-256l-20 -104h-48l31 151h359l-11 -36l-411 -816h-51zM578 158l30 159q8 45 32 75t56 46q-29 16 -39 47t0 78l29 148q16 78 66.5 112.5t124.5 34.5q70 0 115.5 -40t31.5 -116l-25 -139q-10 -47 -34.5 -76.5 t-59.5 -48.5q29 -18 40 -47t3 -74l-30 -174q-16 -74 -60.5 -112.5t-130.5 -38.5q-37 0 -67.5 12t-51 33.5t-30 52.5t-0.5 68zM629 154q-10 -45 14.5 -81t91.5 -36q59 0 90 30.5t41 75.5l33 174q8 45 -18.5 72t-81.5 29q-55 0 -93 -26.5t-47 -74.5zM709 563 q-10 -45 17.5 -72.5t82.5 -27.5q53 0 91 27.5t48 72.5l25 139q8 47 -17.5 78t-87.5 31q-55 0 -89 -26.5t-42 -73.5z" />
<glyph unicode="&#x2190;" horiz-adv-x="1630" d="M100 657l426 422l47 -43l-360 -354h1311v-55h-1311l360 -351l-47 -45z" />
<glyph unicode="&#x2191;" horiz-adv-x="993" d="M66 1001l426 426l421 -426l-43 -47l-354 361v-1311h-55v1311l-350 -361z" />
<glyph unicode="&#x2192;" horiz-adv-x="1630" d="M102 627v55h1311l-360 354l47 43l426 -422l-426 -426l-47 45l360 351h-1311z" />
<glyph unicode="&#x2193;" horiz-adv-x="993" d="M66 432l45 47l350 -360v1311h55v-1311l354 360l43 -47l-421 -426z" />
<glyph unicode="&#x2196;" horiz-adv-x="1720" d="M258 709v594h602v-60h-506l1186 -1169l-41 -41l-1184 1175v-501z" />
<glyph unicode="&#x2198;" horiz-adv-x="1720" d="M258 1270l41 41l1184 -1176v500h57v-596h-602v61h506z" />
<glyph unicode="&#x21a9;" horiz-adv-x="1720" d="M129 655l420 422l43 -41l-354 -352h1081q70 0 118 20.5t78.5 57.5t44 87t13.5 107v172q0 115 -59.5 178.5t-194.5 63.5h-121v57h131q84 0 142.5 -23.5t94.5 -64.5t52 -97t16 -122v-164q0 -152 -80.5 -240.5t-253.5 -88.5h-1062l354 -353l-43 -41z" />
<glyph unicode="&#x21aa;" horiz-adv-x="1720" d="M131 956v164q0 66 16.5 122t52.5 97t94 64.5t142 23.5h131v-57h-121q-135 0 -194 -63.5t-59 -178.5v-172q0 -57 13 -107t44 -87t79 -57.5t117 -20.5h1082l-354 352l43 41l419 -422l-419 -422l-43 41l354 353h-1063q-172 0 -253 89t-81 240z" />
<glyph unicode="&#x21b3;" horiz-adv-x="1720" d="M281 625v792h63v-733h1196l-354 352l41 41l420 -424l-418 -420l-43 41l354 351h-1259z" />
<glyph unicode="&#x21b5;" horiz-adv-x="1720" d="M283 653l419 424l41 -41l-354 -352h1196v733h64v-792h-1260l354 -351l-43 -41z" />
<glyph unicode="&#x21de;" horiz-adv-x="993" d="M92 993l422 422l422 -422l-41 -43l-352 350l2 -567h237v-59h-237v-242h237v-61h-237v-371h-62v371h-237v61h237v242h-237v59h237v567l-350 -350z" />
<glyph unicode="&#x21df;" horiz-adv-x="993" d="M92 424l41 43l350 -350v567h-237v59h237v242h-237v62h237v370h62v-370h237v-62h-237v-242h237v-59h-237l-2 -567l352 350l41 -43l-422 -422z" />
<glyph unicode="&#x21e0;" horiz-adv-x="1619" d="M100 657l426 422l47 -43l-360 -354h408v-55h-408l360 -351l-47 -45zM719 625v57h217v-57h-217zM1038 625v57h219v-57h-219zM1360 625v57h158v-57h-158z" />
<glyph unicode="&#x21e1;" horiz-adv-x="962" d="M53 991l426 426l422 -426l-43 -47l-354 361v-408h-55v408l-351 -361zM446 0v158h58v-158h-58zM446 260v219h58v-219h-58zM446 582v217h58v-217h-58z" />
<glyph unicode="&#x21e2;" horiz-adv-x="1619" d="M100 625v57h158v-57h-158zM360 625v57h220v-57h-220zM682 625v57h217v-57h-217zM997 627v55h408l-361 354l48 43l426 -422l-426 -426l-48 45l361 351h-408z" />
<glyph unicode="&#x21e3;" horiz-adv-x="962" d="M53 426l45 47l351 -360v407h55v-407l354 360l43 -47l-422 -426zM446 618v218h58v-218h-58zM446 938v219h58v-219h-58zM446 1260v157h58v-157h-58z" />
<glyph unicode="&#x21e4;" horiz-adv-x="1548" d="M162 227v854h59v-854h-59zM264 657l426 422l47 -43l-360 -354h1085v-55h-1085l360 -351l-47 -45z" />
<glyph unicode="&#x21e5;" horiz-adv-x="1548" d="M164 627v55h1085l-360 354l47 43l426 -422l-426 -426l-47 45l360 351h-1085zM1405 227v854h59v-854h-59z" />
<glyph unicode="&#x21e7;" horiz-adv-x="1556" d="M49 674l717 749l717 -749h-353v-674h-729v674h-352zM164 719h289v-670h628v670h287l-602 622z" />
<glyph unicode="&#x21ea;" horiz-adv-x="1585" d="M68 674l716 749l717 -749h-352v-586h-729v586h-352zM182 719h289v-582h629v582h286l-602 622zM422 -63h727v-338h-727v338zM473 -113v-237h627v237h-627z" />
<glyph unicode="&#x2202;" horiz-adv-x="657" d="M25 254q0 123 31.5 235.5t85 199.5t121 138.5t138.5 51.5q70 0 123.5 -48.5t81.5 -156.5q41 201 41 346q0 195 -62.5 294t-166.5 99q-33 0 -68 -10l6 43q20 6 39 8t35 2q70 0 119 -32.5t81 -90t46 -136.5t14 -169q0 -72 -8 -150.5t-25 -158.5q-35 -174 -84 -311.5 t-107 -232.5t-123.5 -145t-131.5 -50q-86 0 -136 69.5t-50 204.5zM70 262q0 -119 40.5 -180.5t106.5 -61.5q57 0 112.5 52.5t103.5 134.5t87 183.5t64 201.5q-25 125 -73 182t-118 57q-74 0 -133 -60t-102 -148t-65.5 -186.5t-22.5 -174.5z" />
<glyph unicode="&#x220f;" horiz-adv-x="827" d="M-6 -154l307 1579h619l-308 -1579h-53l297 1528h-514l-297 -1528h-51z" />
<glyph unicode="&#x2211;" horiz-adv-x="585" d="M-76 -156l8 47l402 744l-113 745l8 45h527l-11 -47h-475l113 -743l-399 -741h483l-8 -50h-535z" />
<glyph unicode="&#x221a;" horiz-adv-x="753" d="M68 717l215 80l39 -895l593 1740h56l-633 -1824h-57l-48 913l-159 -59z" />
<glyph unicode="&#x221e;" horiz-adv-x="1126" d="M45 510q0 49 19.5 89t50 67.5t70.5 42t81 14.5q70 0 149 -48t142 -134q59 78 140 130t153 52q43 0 83 -14.5t70.5 -42t49 -67.5t18.5 -89q0 -55 -18.5 -96t-49 -69t-71.5 -42t-86 -14q-74 0 -144.5 47t-146.5 139q-74 -90 -139.5 -138t-149.5 -48q-90 0 -155.5 56 t-65.5 165zM88 510q0 -82 53.5 -131t128.5 -49q31 0 66 16t69.5 42t66.5 57.5t58 62.5q-25 31 -56.5 61.5t-66 56t-71.5 41t-70 15.5q-37 0 -68.5 -13.5t-56 -37t-39 -54t-14.5 -67.5zM586 508q25 -33 56.5 -64.5t66 -57.5t69.5 -41t68 -15q76 0 129 49t53 131 q0 37 -14.5 67.5t-39 54t-56 37t-68.5 13.5q-35 0 -71 -15.5t-70.5 -41t-66.5 -56t-56 -61.5z" />
<glyph unicode="&#x222b;" horiz-adv-x="479" d="M-143 -324l8 37q10 -2 19.5 -3t19.5 -1q61 0 100 38t67.5 114t53.5 191.5t55 273.5l8.5 42.5t15.5 76.5t18 93.5t18.5 94.5t16.5 81t9 50q4 25 13.5 77t21.5 116.5t26.5 133t26.5 123.5q20 90 42 155t49.5 106t66.5 59t92 18h20.5t22.5 -2l-8 -39q-10 2 -19.5 2h-19.5 q-47 0 -80 -19t-58.5 -64.5t-47 -120t-43.5 -187.5l-138 -727q-41 -209 -70.5 -347t-63 -222t-79 -119t-116.5 -35q-10 0 -22.5 1t-24.5 3z" />
<glyph unicode="&#x2248;" horiz-adv-x="696" d="M59 463q33 39 77 60.5t91 21.5q43 0 80 -14.5t72 -33t65.5 -32.5t61.5 -14q35 0 66.5 11t72.5 58l25 -24q-35 -45 -79 -67.5t-91 -22.5q-37 0 -72 14t-68.5 31.5t-69.5 32t-75 14.5q-33 0 -64.5 -13.5t-66.5 -48.5zM90 705q33 39 77 60t91 21q43 0 80 -14t71.5 -32.5 t65.5 -33t62 -14.5q35 0 66.5 11.5t72.5 58.5l24 -25q-35 -45 -79 -67.5t-91 -22.5q-37 0 -71.5 14.5t-68.5 32t-69.5 31.5t-74.5 14q-33 0 -64.5 -13t-66.5 -48z" />
<glyph unicode="&#x2260;" horiz-adv-x="696" d="M8 197l203 223h-174l10 47h207l217 240h-377l8 47h412l197 217h57l-197 -217h144l-8 -47h-179l-217 -240h348l-10 -47h-381l-202 -223h-58z" />
<glyph unicode="&#x2264;" horiz-adv-x="696" d="M-18 125l10 49h610l-10 -49h-610zM68 573l8 48l672 297l-13 -56l-600 -264l498 -268l-10 -54z" />
<glyph unicode="&#x2265;" horiz-adv-x="696" d="M-18 125l10 49h610l-10 -49h-610zM12 276l11 54l600 268l-498 264l12 56l553 -297l-8 -48z" />
<glyph unicode="&#x2303;" horiz-adv-x="1628" d="M221 846l592 590l584 -580l-43 -45l-541 532l-547 -540z" />
<glyph unicode="&#x2318;" horiz-adv-x="1687" d="M109 246q0 51 18 98t52 83t83 56.5t111 20.5h205v420h-205q-53 0 -101.5 20.5t-84 56t-57 81.5t-21.5 100q0 53 19 100t55 83t84 56.5t106 20.5q63 0 112.5 -20.5t81 -56.5t48 -83t16.5 -100v-209h413v209q0 53 19.5 100t54.5 83t83 56.5t106 20.5q63 0 111 -20.5 t81 -56.5t50.5 -83t17.5 -100q0 -51 -20.5 -98.5t-56.5 -82t-83 -56t-100 -21.5h-207v-420h207q66 0 114.5 -21.5t80.5 -56.5t48.5 -82t16.5 -98q0 -53 -16.5 -100.5t-48.5 -82t-81 -56t-114 -21.5q-61 0 -110.5 20.5t-83.5 56t-51.5 83t-17.5 100.5v209h-413v-209 q0 -51 -16.5 -98.5t-48 -83t-81 -57t-112.5 -21.5q-61 0 -110.5 20.5t-83.5 55t-52 81.5t-18 103zM162 246q0 -88 59.5 -149.5t151.5 -61.5q43 0 79.5 16.5t64.5 45t44.5 67.5t16.5 82v209h-205q-92 0 -151.5 -61.5t-59.5 -147.5zM162 1182q0 -90 59.5 -149.5t151.5 -59.5 h205v209q0 43 -16.5 80.5t-44.5 65.5t-64.5 44.5t-79.5 16.5q-90 0 -150.5 -59.5t-60.5 -147.5zM631 504h413v420h-413v-420zM1100 246q0 -43 16.5 -82t44 -67.5t65.5 -45t81 -16.5q88 0 147 61.5t59 149.5q0 43 -16 81t-44 66.5t-65.5 45t-80.5 16.5h-207v-209zM1100 973 h207q88 0 147 60.5t59 148.5q0 43 -16 80.5t-44 65.5t-65.5 44.5t-80.5 16.5t-81 -16.5t-65.5 -44.5t-44 -65.5t-16.5 -80.5v-209z" />
<glyph unicode="&#x2324;" horiz-adv-x="1628" d="M287 1366v59h1169v-59h-1169zM305 688l565 604l566 -602l-43 -45l-523 555l-520 -555z" />
<glyph unicode="&#x2325;" horiz-adv-x="2433" d="M84 1303v61h448l818 -1307h944v-57h-987l-813 1303h-410zM1063 1303v61h1231v-61h-1231z" />
<glyph unicode="&#x2326;" horiz-adv-x="2267" d="M158 0v1423h1360l696 -712l-694 -711h-1362zM209 51h1276l651 660l-651 659h-1276v-1319zM639 371l340 340l-340 340l33 36l340 -342l340 342l32 -36l-337 -340l337 -340l-32 -35l-340 344l-340 -344z" />
<glyph unicode="&#x232b;" horiz-adv-x="2267" d="M158 711l696 712h1360v-1423h-1362zM236 711l651 -660h1276v1319h-1276zM987 371l338 340l-338 340l33 36l340 -342l340 342l33 -36l-340 -340l340 -340l-33 -35l-340 344l-340 -344z" />
<glyph unicode="&#x235f;" horiz-adv-x="1646" d="M94 711q0 150 56.5 281.5t154.5 230t230.5 155t283.5 56.5q150 0 282 -57.5t230.5 -156t154.5 -230.5t56 -281h-2q0 -150 -57.5 -282t-155.5 -230.5t-230 -154.5t-282 -56t-281 56t-229 154.5t-154.5 230.5t-56.5 284zM211 709q0 -125 47 -234.5t129 -191.5t192.5 -129.5 t235.5 -47.5t235.5 47.5t192.5 129.5t129 191.5t47 234.5t-47 235.5t-129 192.5t-192.5 129t-235.5 47t-235.5 -47t-192.5 -129t-129 -192.5t-47 -235.5zM311 848l334 65l154 304l164 -299l335 -70l-231 -232l53 -346l-321 156l-289 -156l43 338z" />
<glyph unicode="&#x23cf;" horiz-adv-x="1748" d="M135 186v279h1438v-279h-1438zM135 643l719 719l719 -719h-1438z" />
<glyph unicode="&#x25a0;" horiz-adv-x="1792" d="M252 82v1296h1296v-1296h-1296z" />
<glyph unicode="&#x25a1;" horiz-adv-x="1722" d="M162 0v1419h1407v-1419h-1407zM227 53h1280v1309h-1280v-1309z" />
<glyph unicode="&#x25b2;" horiz-adv-x="1679" d="M162 360l719 719l718 -719h-1437z" />
<glyph unicode="&#x25b6;" horiz-adv-x="1218" d="M283 0v1436l718 -717z" />
<glyph unicode="&#x25bc;" horiz-adv-x="1679" d="M162 1079h1437l-718 -719z" />
<glyph unicode="&#x25c0;" horiz-adv-x="1218" d="M207 719l719 717v-1436z" />
<glyph unicode="&#x25ca;" horiz-adv-x="690" d="M59 563l258 543h29l266 -543l-266 -545h-29zM106 563l226 -473l233 473l-233 471z" />
<glyph unicode="&#x25cf;" horiz-adv-x="1726" d="M227 731q0 135 53.5 253t142.5 205t207 138t247 51t245.5 -51t205.5 -140t142.5 -207t53.5 -249t-51.5 -248.5t-140.5 -207t-206.5 -141.5t-248.5 -52q-133 0 -251 51t-207 140t-140.5 207t-51.5 251z" />
<glyph unicode="&#x25fc;" horiz-adv-x="993" d="M0 0v993h993v-993h-993z" />
<glyph unicode="&#x2602;" horiz-adv-x="1597" d="M102 745q0 131 62.5 253t159 217.5t215 152.5t231.5 57v64h59v-66q113 0 231 -56t214 -150.5t157.5 -217t61.5 -254.5q-33 37 -82 58.5t-102 21.5q-47 0 -92.5 -19.5t-83.5 -60.5h-5q-47 80 -153 80q-57 0 -127 -28v-623q0 -86 -52.5 -138t-150.5 -52q-86 0 -142.5 48 t-56.5 152v27h97v-27q0 -57 27.5 -83.5t70.5 -26.5q33 0 53.5 10t31.5 26.5t15 37t4 40.5v607q-29 14 -55 19t-51 5q-53 0 -95 -20.5t-79 -55.5q-35 41 -82 60.5t-96 19.5q-51 0 -99.5 -19.5t-83.5 -60.5zM1493 745l2 -2q-2 0 -2 2z" />
<glyph unicode="&#x2605;" horiz-adv-x="1667" d="M86 874l510 99l233 463l252 -457l512 -105l-354 -354l80 -528l-490 239l-438 -239l66 514z" />
<glyph unicode="&#x2606;" horiz-adv-x="1716" d="M80 887l520 100l231 461l254 -457l521 -104l-361 -361l80 -530l-491 240l-447 -244l68 522zM199 850l313 -313l-55 -443l377 203l421 -203l-71 453l305 303l-436 88l-219 395l-201 -401z" />
<glyph unicode="&#x2610;" horiz-adv-x="1722" d="M162 0v1419h1407v-1419h-1407zM227 53h1280v1309h-1280v-1309z" />
<glyph unicode="&#x2611;" horiz-adv-x="1740" d="M168 0v1419h1407v-1419h-1407zM233 53h1280v1307h-1280v-1307zM420 745q33 23 72.5 32t62.5 9q16 0 42 -36.5t51.5 -95t47 -131t31.5 -144.5q61 102 145 222t178.5 234.5t193.5 212t190 156.5l8 -6q-55 -43 -115.5 -112.5t-124 -153.5t-124 -177t-116 -184.5 t-101.5 -174.5t-77 -146q-88 -18 -137 -41q-16 63 -42.5 144t-58.5 160t-64.5 142.5t-61.5 89.5z" />
<glyph unicode="&#x2612;" horiz-adv-x="1740" d="M168 0v1419h1407v-1419h-1407zM233 53h1280v1307h-1280v-1307zM399 305l410 410l-410 409l56 54l409 -412l404 412l55 -54l-405 -405l411 -412l-57 -53l-410 412l-409 -416z" />
<glyph unicode="&#x2622;" horiz-adv-x="1714" d="M102 719q0 137 53.5 270t152 239.5t236.5 172t308 65.5q160 0 299 -57t241.5 -156.5t161 -233.5t58.5 -290q0 -158 -58.5 -297t-160 -242.5t-239.5 -164t-298 -60.5q-158 0 -295 58.5t-239.5 160t-161 239.5t-58.5 296zM176 719q0 -143 54.5 -267t147.5 -216.5 t218 -144.5t264 -52q135 0 257 54t215 146.5t147.5 212t54.5 250.5q0 162 -58.5 291t-153.5 219.5t-218 139.5t-252 49q-139 0 -262 -54.5t-215 -147.5t-145.5 -217t-53.5 -263zM236 719q0 176 72.5 305t234.5 233l202 -352q-47 -29 -73.5 -77t-32.5 -109h-403zM547 184 l201 348q61 -29 110 -28q41 0 103 28l204 -350q-162 -84 -315 -84q-166 0 -303 86zM692 719q0 70 48 118t116 48q33 0 62.5 -14.5t51 -37t34 -52t12.5 -62.5t-12.5 -61.5t-34 -50t-51 -35t-62.5 -13.5q-63 0 -113.5 45t-50.5 115zM961 909l204 351q147 -82 229.5 -221.5 t82.5 -319.5h-404q-12 127 -112 190z" />
<glyph unicode="&#x2623;" horiz-adv-x="1753" d="M113 494q0 59 16 116.5t54 107.5t98.5 92t150.5 71q0 129 23.5 224t71.5 159.5t122 104.5t176 58l11 -30q-279 -81 -279 -310q0 -139 78 -220t227 -99v-45q-47 -10 -66.5 -38t-19.5 -56q0 -10 2 -19.5t6 -19.5l-39 -21q-123 147 -272 148q-59 0 -115.5 -24.5t-99.5 -66.5 t-69.5 -97.5t-26.5 -116.5q0 -45 12 -115l-22 -10q-16 51 -27.5 103t-11.5 104zM207 180l22 17q139 -123 240 -123q68 0 127 25.5t103 68.5t70 101.5t26 123.5q0 25 -5.5 62t-31.5 84l45 26q14 -23 35.5 -30t42.5 -7q37 0 67 35l47 -24q-35 -84 -34 -148q0 -63 24.5 -119.5 t67.5 -99.5t98 -67.5t117 -24.5q135 0 250 110l24 -16q-39 -53 -78 -87t-81 -53.5t-89 -26.5t-102 -7q-78 0 -158.5 21.5t-156.5 87.5q-86 -66 -166 -87.5t-152 -21.5q-53 0 -100 8t-89 28.5t-82 55.5t-81 88zM463 606q0 43 8 78h25q45 -4 86 -25v-61q0 -156 180 -246 q-4 -29 -15.5 -56t-27.5 -50q-57 25 -104.5 61.5t-81 84.5t-52 102.5t-18.5 111.5zM623 946q66 43 127 65.5t127 22.5q131 0 256 -88q-27 -55 -76 -88q-90 61 -176 62q-84 0 -183 -62q-29 16 -45 38t-30 50zM891 723v45q147 18 225 101.5t78 222.5q0 223 -242 303l11 32 q186 -41 274 -157.5t88 -317.5v-32.5t-2 -34.5q160 -63 237.5 -171t77.5 -245q0 -92 -36 -197l-27 9q16 88 16 133q0 61 -25.5 115.5t-68.5 94.5t-101.5 62.5t-123.5 22.5q-82 0 -146.5 -39t-113.5 -107l-47 27q6 20 6 41q0 33 -18.5 56.5t-61.5 35.5zM991 352 q180 90 180 254v24.5t-2 28.5q23 14 55.5 17.5t55.5 3.5q8 -33 8 -76q0 -111 -68.5 -207t-191.5 -151q-14 25 -23.5 51.5t-13.5 54.5z" />
<glyph unicode="&#x262e;" horiz-adv-x="1708" d="M96 723q0 154 58.5 289t160 234.5t236.5 156.5t289 57q160 0 298 -57t240.5 -156.5t160.5 -232.5t58 -285q0 -158 -59 -295t-162.5 -238.5t-243 -160t-296.5 -58.5q-150 0 -284 59.5t-235.5 161t-161 237.5t-59.5 288zM229 719q0 -55 5.5 -96t15.5 -74t25.5 -64.5 t37.5 -68.5l473 430v489q-123 -16 -225 -67t-176 -132t-115 -187.5t-41 -229.5zM383 324q47 -45 92 -82t92 -67t100.5 -49.5t118.5 -29.5v596zM903 100q121 14 219.5 69.5t190.5 154.5l-410 368v-592zM903 846l479 -428q37 66 58.5 141.5t21.5 169.5q0 119 -39 221.5 t-111.5 181t-176 132t-232.5 71.5v-489z" />
<glyph unicode="&#x262f;" horiz-adv-x="1695" d="M102 729q0 168 64.5 304t169 233.5t238 150.5t272.5 53q168 0 306 -60t236.5 -162.5t151.5 -239t53 -287.5q0 -168 -60 -304t-162.5 -233.5t-237 -149.5t-283.5 -52q-166 0 -304 62t-236.5 165.5t-153 239t-54.5 280.5zM500 1337l10 -8q43 12 86 12q84 0 152.5 -31.5 t116.5 -79.5t75 -104.5t27 -107.5q0 -104 -40 -193.5t-139 -187.5q-43 -43 -59 -105.5t-16 -105.5q0 -152 93 -237t263 -85q88 0 174 48.5t153.5 132.5t109.5 196.5t42 241.5q0 135 -50 263t-142 226.5t-221 159t-289 60.5q-92 0 -179 -24t-167 -71zM518 999 q0 -41 26.5 -71.5t73.5 -30.5q45 0 75 30.5t30 71.5q0 37 -28.5 69t-78.5 32q-35 0 -66.5 -28t-31.5 -73zM977 457q0 47 31.5 76.5t66.5 29.5q45 0 75 -32.5t30 -73.5q0 -45 -32 -73t-73 -28q-43 0 -70.5 32t-27.5 69z" />
<glyph unicode="&#x2672;" horiz-adv-x="1882" d="M102 862h433l174 -375l-123 72l-64 -57q-33 -31 -33 -60q0 -51 64 -51h393v-432h-379q-66 0 -92 21.5t-47 58.5l-231 426q-14 25 -19.5 51.5t-5.5 54.5q0 53 14.5 102.5t51.5 88.5zM188 831l97 -65q-39 -37 -60.5 -87t-21.5 -104q0 -59 19.5 -95t51 -55t70.5 -26.5 t76 -7.5h57q-23 16 -22 49q0 41 39 80l86 78l57 -35l-125 268h-324zM268 391l181 -334q18 -33 39.5 -52t68.5 -19h361v379h-486q-35 0 -58.5 2t-41 5t-32.5 8t-32 11zM365 1026l210 340q23 37 56 57.5t86 20.5h497q41 0 56.5 -5t29.5 -28l109 -178l131 78l-172 -393l-432 43 l123 77l-94 166l-254 -379zM408 1032l294 -170l246 371q-39 76 -97 125t-146 49q-59 0 -99 -57zM801 1417q63 -14 105 -67.5t79 -118.5l115 -205l-76 -47l326 -31l137 297l-82 -53l-121 190q-12 20 -26.5 27.5t-38.5 7.5h-418zM1001 160l226 346v-144h223l-236 400l353 209 l194 -361q18 -37 19 -61q0 -23 -7.5 -42.5t-17.5 -37.5l-221 -397q-18 -33 -31.5 -54.5t-27 -35t-31 -18.5t-43.5 -5h-172v-158zM1036 160l166 -266v92h197q18 0 41.5 10t42.5 43l211 385q-66 -61 -138.5 -76.5t-181.5 -15.5h-172v90zM1251 754l236 -392q39 4 84 20.5 t84 42.5t64.5 58.5t25.5 69.5q0 14 -4 26.5t-8 22.5l-183 326z" />
<glyph unicode="&#x2673;" horiz-adv-x="1779" d="M102 213q0 74 50 160l149 268l-94 51l14 27l242 45l86 -229l-17 -31l-96 59l-131 -237q-27 -49 -26 -88q0 -37 27.5 -62.5t92.5 -25.5h406v-150h-436q-123 0 -195 58.5t-72 154.5zM449 897l217 379q45 78 101 111.5t118 33.5q63 0 121.5 -36.5t95.5 -102.5l149 -264 l105 59l12 -28l-90 -230l-248 43l-12 25l100 55l-145 246q-16 29 -40 45t-52 16q-29 0 -55.5 -20.5t-43.5 -50.5l-202 -357zM739 662v116l86 62h101v-594h-113v467zM913 74l160 200l27 -4v-120h262q74 0 107.5 24.5t33.5 65.5q0 39 -33 94l-204 348l137 80l227 -397 q47 -80 47 -150q0 -98 -83 -156.5t-210 -58.5h-286v-121h-33z" />
<glyph unicode="&#x2674;" horiz-adv-x="1779" d="M102 213q0 74 50 160l149 268l-94 51l14 27l242 45l86 -229l-17 -31l-96 59l-131 -237q-27 -49 -26 -88q0 -37 27.5 -62.5t92.5 -25.5h406v-150h-436q-123 0 -195 58.5t-72 154.5zM449 897l217 379q45 78 101 111.5t118 33.5q63 0 121.5 -36.5t95.5 -102.5l149 -264 l105 59l12 -28l-90 -230l-248 43l-12 25l100 55l-145 246q-16 29 -40 45t-52 16q-29 0 -55.5 -20.5t-43.5 -50.5l-202 -357zM674 254v94l219 275q29 31 29 67q0 23 -16.5 41.5t-47.5 18.5q-29 0 -48 -24t-26 -64l-106 12q12 86 63.5 132t116.5 46q74 0 123 -41t49 -119 q0 -29 -10 -60.5t-33 -60.5l-170 -213h203v-104h-346zM913 74l160 200l27 -4v-120h262q74 0 107.5 24.5t33.5 65.5q0 39 -33 94l-204 348l137 80l227 -397q47 -80 47 -150q0 -98 -83 -156.5t-210 -58.5h-286v-121h-33z" />
<glyph unicode="&#x2675;" horiz-adv-x="1779" d="M102 213q0 74 50 160l149 268l-94 51l14 27l242 45l86 -229l-17 -31l-96 59l-131 -237q-27 -49 -26 -88q0 -37 27.5 -62.5t92.5 -25.5h406v-150h-436q-123 0 -195 58.5t-72 154.5zM449 897l217 379q45 78 101 111.5t118 33.5q63 0 121.5 -36.5t95.5 -102.5l149 -264 l105 59l12 -28l-90 -230l-248 43l-12 25l100 55l-145 246q-16 29 -40 45t-52 16q-29 0 -55.5 -20.5t-43.5 -50.5l-202 -357zM674 406l104 14q8 -39 27.5 -55.5t44.5 -16.5q37 0 58.5 25.5t21.5 62.5q0 39 -21.5 58.5t-54.5 19.5h-59v98h53q33 0 54.5 19.5t21.5 48.5 t-20.5 49.5t-49.5 20.5q-23 0 -41 -19.5t-29 -54.5l-106 12q14 72 63.5 118t112.5 46q92 0 134 -51t42 -119q0 -31 -10 -59.5t-45 -55.5q35 -29 47 -61.5t12 -67.5q0 -86 -50 -138t-136 -52q-29 0 -56.5 7t-51 25.5t-41 49t-25.5 76.5zM913 74l160 200l27 -4v-120h262 q74 0 107.5 24.5t33.5 65.5q0 39 -33 94l-204 348l137 80l227 -397q47 -80 47 -150q0 -98 -83 -156.5t-210 -58.5h-286v-121h-33z" />
<glyph unicode="&#x2676;" horiz-adv-x="1779" d="M102 213q0 74 50 160l149 268l-94 51l14 27l242 45l86 -229l-17 -31l-96 59l-131 -237q-27 -49 -26 -88q0 -37 27.5 -62.5t92.5 -25.5h406v-150h-436q-123 0 -195 58.5t-72 154.5zM449 897l217 379q45 78 101 111.5t118 33.5q63 0 121.5 -36.5t95.5 -102.5l149 -264 l105 59l12 -28l-90 -230l-248 43l-12 25l100 55l-145 246q-16 29 -40 45t-52 16q-29 0 -55.5 -20.5t-43.5 -50.5l-202 -357zM633 342v88l196 422h115l-190 -410h118v144h105v-144h45v-100h-45v-84h-105v84h-239zM913 74l160 200l27 -4v-120h262q74 0 107.5 24.5t33.5 65.5 q0 39 -33 94l-204 348l137 80l227 -397q47 -80 47 -150q0 -98 -83 -156.5t-210 -58.5h-286v-121h-33z" />
<glyph unicode="&#x2677;" horiz-adv-x="1779" d="M102 213q0 74 50 160l149 268l-94 51l14 27l242 45l86 -229l-17 -31l-96 59l-131 -237q-27 -49 -26 -88q0 -37 27.5 -62.5t92.5 -25.5h406v-150h-436q-123 0 -195 58.5t-72 154.5zM449 897l217 379q45 78 101 111.5t118 33.5q63 0 121.5 -36.5t95.5 -102.5l149 -264 l105 59l12 -28l-90 -230l-248 43l-12 25l100 55l-145 246q-16 29 -40 45t-52 16q-29 0 -55.5 -20.5t-43.5 -50.5l-202 -357zM684 397l104 21q16 -78 74 -78q27 0 42.5 11t23.5 28.5t11 38t3 39.5q0 39 -13.5 70.5t-58.5 31.5q-20 0 -36.5 -14.5t-30.5 -36.5h-96v332h309 v-103h-209v-96q20 10 39.5 14t40.5 4q78 0 117.5 -51t39.5 -131v-37q0 -84 -45 -141t-137 -57q-63 0 -111.5 32.5t-66.5 122.5zM913 74l160 200l27 -4v-120h262q74 0 107.5 24.5t33.5 65.5q0 39 -33 94l-204 348l137 80l227 -397q47 -80 47 -150q0 -98 -83 -156.5 t-210 -58.5h-286v-121h-33z" />
<glyph unicode="&#x2678;" horiz-adv-x="1779" d="M102 213q0 74 50 160l149 268l-94 51l14 27l242 45l86 -229l-17 -31l-96 59l-131 -237q-27 -49 -26 -88q0 -37 27.5 -62.5t92.5 -25.5h406v-150h-436q-123 0 -195 58.5t-72 154.5zM449 897l217 379q45 78 101 111.5t118 33.5q63 0 121.5 -36.5t95.5 -102.5l149 -264 l105 59l12 -28l-90 -230l-248 43l-12 25l100 55l-145 246q-16 29 -40 45t-52 16q-29 0 -55.5 -20.5t-43.5 -50.5l-202 -357zM694 426q0 29 7.5 61.5t25.5 67.5q35 68 75 141.5t75 143.5h114l-112 -232h12q72 0 117 -52t45 -124q0 -49 -15.5 -86t-41 -59.5t-58.5 -33.5 t-68 -11q-78 0 -127 46t-49 138zM801 428q0 -41 19.5 -63.5t51.5 -22.5q29 0 49.5 22.5t20.5 63.5t-20.5 61.5t-49.5 20.5t-50 -20.5t-21 -61.5zM913 74l160 200l27 -4v-120h262q74 0 107.5 24.5t33.5 65.5q0 39 -33 94l-204 348l137 80l227 -397q47 -80 47 -150 q0 -98 -83 -156.5t-210 -58.5h-286v-121h-33z" />
<glyph unicode="&#x2679;" horiz-adv-x="1779" d="M102 213q0 74 50 160l149 268l-94 51l14 27l242 45l86 -229l-17 -31l-96 59l-131 -237q-27 -49 -26 -88q0 -37 27.5 -62.5t92.5 -25.5h406v-150h-436q-123 0 -195 58.5t-72 154.5zM449 897l217 379q45 78 101 111.5t118 33.5q63 0 121.5 -36.5t95.5 -102.5l149 -264 l105 59l12 -28l-90 -230l-248 43l-12 25l100 55l-145 246q-16 29 -40 45t-52 16q-29 0 -55.5 -20.5t-43.5 -50.5l-202 -357zM692 641v188h352v-90l-200 -503h-115l195 489h-125v-84h-107zM913 74l160 200l27 -4v-120h262q74 0 107.5 24.5t33.5 65.5q0 39 -33 94l-204 348 l137 80l227 -397q47 -80 47 -150q0 -98 -83 -156.5t-210 -58.5h-286v-121h-33z" />
<glyph unicode="&#x267a;" horiz-adv-x="1779" d="M102 213q0 74 50 160l149 268l-94 51l14 27l242 45l86 -229l-17 -31l-96 59l-131 -237q-27 -49 -26 -88q0 -37 27.5 -62.5t92.5 -25.5h406v-150h-436q-123 0 -195 58.5t-72 154.5zM449 897l217 379q45 78 101 111.5t118 33.5q63 0 121.5 -36.5t95.5 -102.5l149 -264 l105 59l12 -28l-90 -230l-248 43l-12 25l100 55l-145 246q-16 29 -40 45t-52 16q-29 0 -55.5 -20.5t-43.5 -50.5l-202 -357zM913 74l160 200l27 -4v-120h262q74 0 107.5 24.5t33.5 65.5q0 39 -33 94l-204 348l137 80l227 -397q47 -80 47 -150q0 -98 -83 -156.5t-210 -58.5 h-286v-121h-33z" />
<glyph unicode="&#x267b;" horiz-adv-x="1820" d="M102 606q0 16 11 47l102 176l-84 41h330l160 -276l-95 55l-147 -268q-35 -55 -51.5 -97t-16.5 -69l-180 311q-29 49 -29 80zM326 1032l170 299q27 35 67.5 63.5t93.5 28.5q74 0 130.5 -38.5t86.5 -79.5l-247 -451zM358 172q0 37 13.5 73t36.5 77h510v-322h-388 q-23 0 -52 9t-56 28.5t-45.5 52.5t-18.5 82zM823 1421h371q57 0 76.5 -12t32.5 -35l94 -168l98 56l-168 -295h-342l107 67l-152 273q-25 43 -56.5 70.5t-60.5 43.5zM961 164l176 280v-122h305q33 0 90 15t104 46l-204 -311q-31 -47 -66 -59.5t-63 -12.5h-166v-119zM1202 836 l309 178l177 -303q31 -51 30 -107q0 -49 -22.5 -90t-57 -70.5t-80 -46t-88.5 -16.5h-16z" />
<glyph unicode="&#x267c;" horiz-adv-x="1712" d="M102 721q0 156 59.5 293t162 239.5t239.5 162t293 59.5t293 -59.5t239.5 -162t162 -239.5t59.5 -293t-59.5 -293t-162 -239.5t-239.5 -162t-293 -59.5t-293 59.5t-239.5 162t-162 239.5t-59.5 293zM242 651q0 -27 20 -61l141 -228q0 41 48 123l112 199l70 -39l-119 205 h-246l62 -29l-78 -131q-10 -16 -10 -39zM414 971l227 -133l184 338q-25 31 -66.5 59.5t-96.5 28.5q-41 0 -73 -19.5t-48 -50.5zM438 330q0 -37 13.5 -62.5t34 -41t42 -21.5t37.5 -6h291v239h-381q-37 -55 -37 -108zM784 1262q23 -10 46.5 -31t41.5 -53l113 -205l-80 -51h256 l127 221l-74 -41l-69 125q-10 18 -24.5 26.5t-55.5 8.5h-281zM889 324l131 -213v88h125q18 0 46 10t50 45l154 231q-35 -20 -79 -33.5t-67 -13.5h-229v94zM1069 825l188 -340h13q33 0 65.5 12.5t59 34t43 52t16.5 67.5q0 18 -4 39t-18 41l-132 227z" />
<glyph unicode="&#x267d;" horiz-adv-x="1712" d="M102 723q0 156 59.5 293t162 239.5t239.5 162t293 59.5t293 -59.5t239.5 -162t162 -239.5t59.5 -293t-59.5 -293t-162 -239.5t-239.5 -162t-293 -59.5t-293 59.5t-239.5 162t-162 239.5t-59.5 293zM141 723q0 -147 56.5 -278.5t154 -227.5t227.5 -152.5t277 -56.5 t278.5 56.5t227.5 152.5t152.5 227.5t56.5 278.5t-56.5 277t-152.5 227.5t-227 154t-279 56.5q-147 0 -277 -56.5t-227.5 -154t-154 -227.5t-56.5 -277zM246 651q0 23 10 39l78 131l-62 29h246l119 -205l-70 39l-112 -199q-47 -82 -47 -123l-142 228q-20 35 -20 61zM418 971 l127 223q16 31 48 50.5t73 19.5q55 0 97 -29t66 -59l-184 -338zM442 330q0 53 37 108h381v-239h-291q-16 0 -37.5 6t-42 21.5t-34 41t-13.5 62.5zM788 1262h281q41 0 55.5 -8.5t24.5 -26.5l70 -125l73 41l-127 -221h-256l80 51l-112 205q-18 33 -42 53t-47 31zM893 324 l131 208v-94h229q23 0 67 13.5t79 33.5l-154 -231q-23 -35 -50.5 -45t-45.5 -10h-125v-88zM1073 825l232 133l131 -227q14 -20 18 -40.5t4 -39.5q0 -37 -16.5 -67.5t-43 -52t-59 -34t-65.5 -12.5h-12z" />
<glyph unicode="&#x2693;" horiz-adv-x="1429" d="M131 432l291 -84l-82 -72q45 -43 86 -68.5t80 -39.5t74.5 -20.5t70.5 -8.5v813h-262v99h262v24q-55 16 -90 65.5t-35 108.5q0 78 54.5 131.5t130.5 53.5q37 0 69.5 -14.5t57 -39t39 -58.5t14.5 -73q0 -59 -32 -103t-83 -65v-30h266v-99h-266v-813h4q68 6 143.5 30 t166.5 107l-82 72l290 84l-43 -311l-77 84q-111 -113 -227.5 -162t-235.5 -59q-119 10 -236 59t-225 162l-78 -84z" />
<glyph unicode="&#x26a0;" horiz-adv-x="1810" d="M100 94q0 37 23 76l678 1200q23 39 49.5 56.5t54.5 17.5q27 0 52.5 -17.5t46.5 -52.5l677 -1204q20 -35 21 -76q0 -41 -25.5 -67.5t-83.5 -26.5h-1382q-59 0 -85 27.5t-26 66.5zM231 133q0 -10 12.5 -14t47.5 -4h1222q35 0 47.5 4t12.5 14t-8.5 23.5t-18.5 29.5 l-608 1078q-18 35 -39 34q-10 0 -20.5 -10t-18.5 -24l-604 -1080q-10 -16 -17.5 -28.5t-7.5 -22.5zM803 242q0 8 4 22.5t15.5 28.5t28.5 23.5t44 9.5q35 0 60.5 -23.5t25.5 -64.5q0 -39 -25.5 -61.5t-60.5 -22.5q-12 0 -28.5 4t-30 13t-23.5 26.5t-10 44.5zM805 981 q0 33 24.5 63.5t65.5 30.5q49 0 73.5 -27.5t24.5 -66.5l-59 -575q-4 -16 -17.5 -26.5t-23.5 -10.5q-12 0 -25.5 10t-15.5 27z" />
<glyph unicode="&#x2706;" horiz-adv-x="884" d="M215 713q0 231 42 374.5t98.5 223.5t111.5 109.5t82 31.5v-426q-53 0 -73.5 -78t-20.5 -256q0 -25 4 -74t14 -99t28.5 -89t47.5 -43v-412q-18 0 -49 12.5t-68 43t-76 84t-70.5 135.5t-51 195.5t-19.5 267.5zM575 -25v412h123q16 0 28.5 -9t12.5 -32v-328q0 -16 -9 -29.5 t-32 -13.5h-123zM575 1026v426h123q16 0 28.5 -12.5t12.5 -28.5v-334q0 -51 -41 -51h-123z" />
<glyph unicode="&#x2708;" horiz-adv-x="1822" d="M96 858h154l131 -172h393l-229 735h194l424 -735h506q51 0 78 -29.5t27 -64.5q0 -33 -26 -60.5t-77 -27.5h-512l-426 -719h-196l235 719h-391l-125 -164h-154l78 260z" />
<glyph unicode="&#x2709;" horiz-adv-x="2191" d="M131 0v1374h1927v-1374h-1927zM254 213l469 463l-469 467v-930zM332 1249l753 -760l750 760h-1503zM346 131h1487l-455 459l-293 -295l-280 278zM1458 690l465 -465v934z" />
<glyph unicode="&#x2713;" horiz-adv-x="1564" d="M131 729q47 41 106.5 58.5t100.5 17.5q27 0 63.5 -48t72.5 -125t64.5 -171t39.5 -187q76 133 186 292t236 312.5t259.5 285.5t258.5 214l30 -35q-72 -55 -154.5 -148t-167.5 -210t-169 -249t-160 -260t-138.5 -245.5t-103.5 -205.5q-74 -16 -127 -33t-79 -33 q-14 59 -36 136t-48.5 159t-57.5 162t-61.5 146.5t-60 110.5t-54.5 56z" />
<glyph unicode="&#x2716;" horiz-adv-x="1519" d="M51 352l359 353l-359 352l355 356l354 -356l354 356l354 -356l-356 -352l356 -353l-354 -356l-354 358l-354 -358z" />
<glyph unicode="&#x271a;" horiz-adv-x="1531" d="M104 446v472h437v446h471v-446h446v-472h-436v-446h-473v446h-445z" />
<glyph unicode="&#x272a;" horiz-adv-x="1630" d="M86 709q0 150 57.5 282.5t155.5 231t230.5 156t283.5 57.5q152 0 284 -57.5t230 -156t155.5 -231t57.5 -282.5q0 -152 -57.5 -284t-155.5 -230.5t-230 -154.5t-284 -56t-284 56t-230 154.5t-155.5 230.5t-57.5 284zM207 874l289 -286l-50 -408l349 189l387 -189l-66 418 l281 276l-406 84l-196 363l-187 -367z" />
</font>
</defs>
</svg>
