<?xml version="1.0" standalone="no"?>
<!DOCTYPE svg PUBLIC "-//W3C//DTD SVG 1.1//EN" "http://www.w3.org/Graphics/SVG/1.1/DTD/svg11.dtd" >
<svg xmlns="http://www.w3.org/2000/svg">
<metadata></metadata>
<defs>
<font id="pf_din_text_comp_prothin" horiz-adv-x="3723" >
<font-face units-per-em="2048" ascent="1536" descent="-512" />
<missing-glyph horiz-adv-x="352" />
<glyph unicode="fj" horiz-adv-x="710" d="M23 930v69h112v242q0 111 59.5 179.5t174.5 68.5q61 0 118.5 -17.5t104.5 -60.5l-53 -63q-41 39 -87 49t-81 10q-78 0 -113 -40t-35 -105v-263h373v-1194q0 -109 -49 -164t-156 -55h-26v82h16q82 0 104.5 39t22.5 115v1108h-285v-930h-88v930h-112z" />
<glyph unicode="ffj" horiz-adv-x="1083" d="M23 930v71h112v240q0 104 65.5 171t170.5 67q41 0 89 -9.5t95 -37.5q35 43 83 62t105 19q63 0 117.5 -16t102.5 -63q-12 -16 -25.5 -30.5t-28.5 -31.5q-43 39 -87 49.5t-77 10.5q-70 0 -109.5 -40t-39.5 -106v-285h373v-1196q0 -219 -207 -219h-25v82h15q82 0 105.5 41 t23.5 125v1096h-285v-930h-90v930h-283v-930h-88v930h-112zM223 1001h283v285q0 16 2 35.5t10 38.5q-39 23 -82 30t-63 7q-76 0 -113 -44t-37 -110v-242z" />
<glyph unicode="&#xfb00;" horiz-adv-x="774" d="M25 930v71h110v256q0 111 69 169.5t169 58.5q39 0 84 -8.5t90 -32.5q29 41 74 59.5t102 18.5h49v-80h-39q-78 0 -108.5 -41t-30.5 -105v-295h170v-71h-170v-930h-88v930h-281v-930h-90v930h-110zM225 1001h281v281q0 16 2 37.5t8 48.5q-39 23 -80 29t-61 6 q-78 0 -114 -40t-36 -106v-256z" />
<glyph unicode="&#xfb01;" horiz-adv-x="710" d="M25 930v71h110v261q0 111 64.5 170t169.5 59q63 0 119.5 -17.5t103.5 -62.5l-51 -61q-41 39 -88 48t-82 9q-76 0 -111 -40t-35 -103v-263h373v-1001h-88v930h-285v-930h-90v930h-110z" />
<glyph unicode="&#xfb02;" horiz-adv-x="757" d="M20 930v71h115v252q0 125 61.5 188.5t172.5 63.5q37 0 95 -6t136 -29v-1234q0 -78 24.5 -124t102.5 -46h25v-80h-29q-104 0 -157.5 49t-53.5 180v1186q-45 10 -79 14t-62 4q-84 0 -115 -46t-31 -132v-240h187v-71h-187v-930h-90v930h-115z" />
<glyph unicode="&#xfb03;" horiz-adv-x="1083" d="M25 930v71h110v242q0 111 66 174.5t172 63.5q41 0 89 -9.5t95 -37.5q70 82 186 82q66 0 122.5 -17.5t103.5 -62.5l-54 -62q-41 37 -88 47.5t-82 12.5q-70 0 -109.5 -41t-39.5 -105v-287h373v-1001h-88v930h-285v-930h-88v930h-283v-930h-90v930h-110zM225 1001h283v285 q0 16 2 35.5t8 36.5q-39 25 -81 32t-62 7q-82 0 -116 -44t-34 -110v-242z" />
<glyph unicode="&#xfb04;" horiz-adv-x="1132" d="M25 930v71h110v244q0 111 69 170.5t169 59.5q35 0 87 -9.5t99 -38.5q35 47 81 65.5t101 18.5q37 0 101.5 -8t132.5 -33v-1234q0 -78 24.5 -124t102.5 -46h24v-80h-30q-102 0 -156.5 49t-54.5 180v1194q-45 12 -79 16.5t-63 4.5q-78 0 -112.5 -48.5t-34.5 -134.5v-246h197 v-71h-197v-930h-88v930h-283v-930h-90v930h-110zM225 1001h283v259q0 27 2 49t10 45q-41 25 -84 31t-61 6q-78 0 -114 -40t-36 -104v-246z" />
<glyph unicode="ft" horiz-adv-x="804" d="M25 930v71h110v259q0 123 61.5 175t155.5 52h51v-80h-41q-76 0 -106.5 -41t-30.5 -106v-259h285v281h88v-281h152v-71h-152v-694q0 -74 33 -115t108 -41h21v-80h-33q-104 0 -160.5 57.5t-56.5 167.5v705h-285v-930h-90v930h-110z" />
<glyph horiz-adv-x="0" />
<glyph horiz-adv-x="682" />
<glyph unicode=" "  horiz-adv-x="352" />
<glyph unicode="&#x09;" horiz-adv-x="352" />
<glyph unicode="&#xa0;" horiz-adv-x="352" />
<glyph unicode="!" horiz-adv-x="407" d="M154 0v100h100v-100h-100zM156 1425h94l-10 -1097h-74z" />
<glyph unicode="&#x22;" horiz-adv-x="389" d="M80 1077v348h74v-348h-74zM238 1077v348h71v-348h-71z" />
<glyph unicode="#" horiz-adv-x="722" d="M6 457v61h131l74 397h-111v64h123l88 459h68l-88 -459h237l86 459h68l-88 -459h121v-64h-133l-74 -397h108v-61h-120l-86 -457h-66l86 457h-240l-84 -457h-67l86 457h-119zM203 518h237l76 397h-237z" />
<glyph unicode="$" horiz-adv-x="722" d="M37 291l90 18q0 -45 10 -87t35 -73.5t63.5 -53t96.5 -25.5v645q-94 43 -150.5 85t-86 85t-39 91t-9.5 105q0 74 16.5 136.5t51.5 109.5t89 75t128 34v184h57v-182q84 -4 139.5 -32t89 -70t47 -93t13.5 -100l-88 -23q0 92 -45 159t-156 75v-568l25 -10q92 -39 145 -79 t80 -86t33 -104t6 -134q0 -84 -14.5 -152.5t-48 -120t-89 -81t-137.5 -33.5v-199h-57v199q-158 8 -225.5 93t-69.5 212zM137 1083q0 -47 8.5 -82.5t29 -66.5t58 -60.5t99.5 -60.5v539q-61 -6 -99 -33t-59.5 -64.5t-29 -83t-7.5 -88.5zM389 70q66 6 104.5 31.5t60 66.5 t28 93.5t6.5 109.5q0 68 -6.5 113.5t-25.5 80.5t-59 63.5t-108 61.5v-620z" />
<glyph unicode="%" horiz-adv-x="1126" d="M66 721v555q0 78 54 117t126 39t126 -39t54 -117v-555q0 -78 -54.5 -117t-125.5 -39q-72 0 -126 39t-54 117zM141 717q0 -39 29 -61.5t76 -22.5t74.5 22.5t27.5 61.5v561q0 41 -27.5 63.5t-74.5 22.5t-76 -22.5t-29 -63.5v-561zM207 -35l643 1497h68l-644 -1497h-67z M698 147v555q0 80 54.5 118t126.5 38t126 -38t54 -118v-555q0 -78 -54.5 -116.5t-125.5 -38.5q-72 0 -126.5 39t-54.5 116zM774 145q0 -41 28.5 -62.5t76.5 -21.5q47 0 74.5 21.5t27.5 62.5v560q0 41 -27.5 63.5t-74.5 22.5t-76 -23t-29 -63v-560z" />
<glyph unicode="&#x26;" horiz-adv-x="929" d="M90 332q0 246 227 442q-12 23 -28.5 49.5t-26.5 48.5q-41 72 -58.5 142.5t-17.5 136.5q0 59 17.5 111.5t50.5 90.5t80 60.5t104 22.5q92 0 148.5 -26t93.5 -87l-78 -45q-25 43 -67.5 59.5t-92.5 16.5q-43 0 -74.5 -18.5t-52 -48.5t-31 -66.5t-10.5 -71.5 q0 -57 17.5 -119.5t60.5 -138.5l342 -588q29 68 43.5 134.5t18.5 131.5h82q-4 -82 -29 -176t-61 -172l131 -221h-105l-86 145q-41 -51 -79 -81.5t-75.5 -48t-74.5 -23.5t-74 -6q-61 0 -114.5 21.5t-93.5 64.5t-63.5 107.5t-23.5 152.5zM176 334q0 -115 57.5 -191.5 t172.5 -76.5q55 0 120.5 33.5t118.5 111.5l-285 491q-104 -98 -144 -190t-40 -178z" />
<glyph unicode="'" horiz-adv-x="284" d="M106 1077v348h74v-348h-74z" />
<glyph unicode="(" horiz-adv-x="442" d="M111 612q0 117 17 234t50 226.5t78 207.5t100 182l41 -18q-96 -180 -151.5 -395t-55.5 -426q0 -229 57.5 -446.5t149.5 -391.5l-37 -21q-53 80 -98 176.5t-78.5 205t-53 226t-19.5 240.5z" />
<glyph unicode=")" horiz-adv-x="442" d="M111 -213q92 174 148 389t56 445q0 211 -55 427t-149 396l41 18q55 -84 100 -183t76.5 -208.5t50 -226.5t18.5 -234q0 -121 -19.5 -238.5t-53 -226t-79.5 -205t-98 -176.5z" />
<glyph unicode="*" horiz-adv-x="673" d="M53 1186l27 80l225 -99l-14 254h84l-17 -254l230 99l26 -80l-237 -72l160 -203l-70 -45l-133 219l-131 -221l-68 47l154 203z" />
<glyph unicode="+" horiz-adv-x="722" d="M33 563v74h291v321h71v-321h293v-74h-293v-323h-71v323h-291z" />
<glyph unicode="," horiz-adv-x="276" d="M74 -193l39 189h-27v113h109v-111l-68 -191h-53z" />
<glyph unicode="-" horiz-adv-x="657" d="M100 545v84h480v-84h-480z" />
<glyph unicode="." horiz-adv-x="276" d="M84 0v113h109v-113h-109z" />
<glyph unicode="/" horiz-adv-x="473" d="M12 -86l381 1571h72l-381 -1571h-72z" />
<glyph unicode="0" horiz-adv-x="722" d="M98 233v957q0 61 21.5 107t57.5 78t84 47.5t101 15.5q55 0 103.5 -15.5t84.5 -47.5t56.5 -78t20.5 -107v-957q0 -63 -21.5 -109t-57.5 -77t-84 -46t-102 -15q-53 0 -101 15t-84 46t-57.5 77t-21.5 109zM184 231q0 -76 50.5 -119.5t127.5 -43.5q78 0 127.5 44t49.5 119 v961q0 76 -49.5 120t-127.5 44t-128 -44t-50 -120v-961z" />
<glyph unicode="1" horiz-adv-x="722" d="M180 1174v98l215 153h92v-1423h-88v1327z" />
<glyph unicode="2" horiz-adv-x="722" d="M98 0v82l394 790q33 66 43 129.5t10 135.5q0 41 -7.5 80.5t-26.5 70.5t-54 49.5t-92 18.5q-72 0 -126.5 -53.5t-54.5 -180.5l-86 15q4 152 75 226.5t196 74.5q143 0 205.5 -83t62.5 -218q0 -98 -18.5 -170t-57.5 -148l-366 -737h430v-82h-527z" />
<glyph unicode="3" horiz-adv-x="722" d="M96 266l88 25q0 -102 38 -162.5t136 -60.5q78 0 129.5 43t51.5 147v238q0 115 -48.5 159.5t-121.5 44.5h-56v84h60q72 0 119 42t47 151v203q0 76 -41 125t-136 49q-94 0 -136 -61.5t-42 -155.5q-23 4 -44 7t-44 7q2 129 70 208t203 79q74 0 123 -19.5t78.5 -55.5t42 -86 t12.5 -110v-188q-2 -37 -7.5 -72t-19.5 -66.5t-38.5 -56t-65.5 -39.5v-2q45 -16 71.5 -42.5t39.5 -62.5t16.5 -79t3.5 -88v-211q0 -129 -68 -201.5t-201 -72.5q-115 0 -187.5 66.5t-72.5 213.5z" />
<glyph unicode="4" horiz-adv-x="722" d="M53 248v80l297 1097h88l-301 -1097h336v399h88v-399h117v-80h-117v-246h-88v246h-420z" />
<glyph unicode="5" horiz-adv-x="722" d="M100 276l88 15q0 -100 38 -161.5t141 -61.5q78 0 127 44t49 148l2 393q0 94 -49.5 135t-126.5 41q-53 0 -99.5 -22.5t-64.5 -63.5h-82v682h504v-77h-424v-508h6q66 66 186 65q113 0 175.5 -62.5t62.5 -166.5l-2 -414q-2 -131 -67.5 -203.5t-198.5 -72.5q-119 0 -191 69.5 t-74 220.5z" />
<glyph unicode="6" horiz-adv-x="722" d="M98 236v264q0 68 9.5 116t25.5 89l277 720h88q-14 -35 -38 -97t-51.5 -136t-56 -149.5t-52.5 -138t-39 -104.5t-17 -46l6 -2q23 23 60.5 38t74.5 15q111 0 176.5 -64.5t65.5 -181.5v-323q0 -63 -21.5 -109.5t-57.5 -77.5t-84 -46t-102 -15q-53 0 -101 15t-84 46t-57.5 77 t-21.5 110zM184 229q0 -76 50.5 -118.5t127.5 -42.5q78 0 127.5 43t49.5 118v332q0 76 -49.5 119t-127.5 43q-43 0 -76.5 -17.5t-56 -45t-34 -63.5t-11.5 -73v-295z" />
<glyph unicode="7" horiz-adv-x="722" d="M88 1171v254h549v-73l-385 -1352h-86l383 1348h-383v-177h-78z" />
<glyph unicode="8" horiz-adv-x="722" d="M98 233v291q0 80 34 133.5t89 81.5q-55 29 -89 82t-34 135v234q0 61 21.5 107t57.5 78t84 47.5t101 15.5t101.5 -15.5t84.5 -47.5t57.5 -78t21.5 -107v-234q0 -82 -35 -135t-88 -82q53 -29 88 -82t35 -133v-291q0 -63 -21.5 -109t-57.5 -77t-84 -46t-102 -15 q-53 0 -101 15t-84 46t-57.5 77t-21.5 109zM184 229q0 -76 50.5 -118.5t127.5 -42.5q78 0 127.5 43t49.5 118v308q0 74 -49.5 118.5t-127.5 46.5q-78 0 -128 -45t-50 -120v-308zM184 944q0 -76 50.5 -120t127.5 -44q78 0 127.5 44t49.5 120v250q0 76 -49.5 119t-127.5 43 t-128 -43t-50 -119v-250z" />
<glyph unicode="9" horiz-adv-x="722" d="M98 866v324q0 63 21.5 109.5t57.5 77t84 46t101 15.5q113 0 189 -60.5t76 -187.5v-264q0 -68 -10.5 -116t-24.5 -89l-277 -721h-90q14 35 38 97.5t51.5 136t56 149.5t52 138.5t39 104.5t17.5 46l-6 2q-23 -23 -60.5 -38t-74.5 -15q-111 0 -175.5 64.5t-64.5 180.5z M184 864q0 -76 49.5 -119t126.5 -43q43 0 77 17.5t56.5 45.5t34 63.5t11.5 72.5v295q0 76 -49.5 119t-127.5 43t-128 -43t-50 -119v-332z" />
<glyph unicode=":" horiz-adv-x="276" d="M86 0v113h109v-113h-109zM86 627v114h109v-114h-109z" />
<glyph unicode=";" horiz-adv-x="276" d="M74 -193l39 189h-27v113h109v-111l-68 -191h-53zM84 627v112h109v-112h-109z" />
<glyph unicode="&#x3c;" horiz-adv-x="722" d="M33 567v68l653 362v-77l-582 -320l582 -315v-80z" />
<glyph unicode="=" horiz-adv-x="722" d="M33 408v75h655v-75h-655zM33 705v73h655v-73h-655z" />
<glyph unicode="&#x3e;" horiz-adv-x="722" d="M35 205v80l581 315l-581 320v77l653 -362v-68z" />
<glyph unicode="?" horiz-adv-x="702" d="M57 1141q4 141 87 219t208 78q86 0 145.5 -24.5t94.5 -69t50 -103.5t15 -129q0 -51 -4 -88t-10 -65.5t-16.5 -51t-22.5 -45.5q-12 -27 -31.5 -58.5l-39 -63t-37 -58.5t-25.5 -43q-18 -31 -31.5 -75t-13.5 -87v-149h-86v166q0 35 12.5 85t34.5 85q41 70 76 125t63 108 q29 49 35 100.5t6 108.5q0 117 -49 182.5t-168 65.5q-78 0 -139 -55.5t-66 -172.5q-23 4 -44 7.5t-44 7.5zM334 0v100h100v-100h-100z" />
<glyph unicode="@" horiz-adv-x="1513" d="M113 686q0 168 44 307.5t129 238.5t210 153.5t286 54.5q152 0 267.5 -49.5t194.5 -136.5t119 -207.5t40 -262.5q0 -143 -27.5 -235t-73 -146.5t-99.5 -76t-109 -21.5q-14 0 -40 5t-54.5 19.5t-54 39t-38.5 65.5h-2q-18 -35 -44.5 -56.5t-55.5 -33.5t-56.5 -16t-50.5 -4 q-53 0 -90 18t-59.5 49t-32.5 71t-10 83t11 88t38 81t71 58.5t107 22.5h144v106q0 61 -30 101t-114 40q-51 0 -87 -23.5t-48 -64.5q-18 4 -36.5 11.5t-37.5 13.5q23 57 77 96t136 39q45 0 86 -10t70 -35t46 -64.5t17 -99.5v-370q0 -78 42 -118t96 -40q41 0 82 15.5 t74.5 59.5t55 123.5t21.5 208.5q0 137 -41 246t-112.5 184.5t-170 114.5t-215.5 39q-154 0 -266 -53t-186 -145.5t-110 -216.5t-36 -267q0 -158 38 -285t114 -217t188.5 -139t262.5 -49q86 0 176 16.5t170 63.5q6 -16 13 -33.5t15 -34.5q-84 -35 -177 -59.5t-187 -24.5 q-162 0 -290 48t-217 143.5t-136 238t-47 332.5zM582 543q0 -27 9 -53.5t26.5 -48t45 -35t64.5 -13.5q66 0 108 42t42 110v182h-134q-70 0 -115.5 -42t-45.5 -142z" />
<glyph unicode="A" horiz-adv-x="770" d="M20 0l314 1425h100l320 -1425h-88l-82 373h-398l-82 -373h-84zM201 455h366l-106 491l-74 352h-4l-76 -356z" />
<glyph unicode="B" horiz-adv-x="839" d="M106 0v1425h300q92 0 156.5 -23.5t103.5 -69.5t56 -111.5t17 -149.5q0 -111 -30.5 -192.5t-122.5 -124.5v-4q98 -33 134 -123t36 -213q0 -113 -24.5 -192t-71 -128t-111 -71.5t-146.5 -22.5h-297zM195 82h211q80 0 132 27.5t80.5 73.5t40 107.5t11.5 129.5 q0 141 -56.5 218t-179.5 77h-239v-633zM195 791h229q129 0 179 72.5t50 207.5q0 133 -59 204t-205 71h-194v-555z" />
<glyph unicode="C" horiz-adv-x="784" d="M94 301v799q0 154 77 246t237 92q66 0 123 -18.5t99 -56.5t65.5 -95.5t23.5 -134.5l-88 -19q0 127 -62.5 184.5t-160.5 57.5q-113 0 -169.5 -71t-56.5 -179v-803q0 -104 56.5 -169.5t169.5 -65.5q45 0 84.5 13t70.5 42t49.5 75t18.5 111l88 -16q0 -80 -25.5 -138.5 t-67.5 -96.5t-98.5 -55t-119.5 -17q-147 0 -230.5 78.5t-83.5 236.5z" />
<glyph unicode="D" horiz-adv-x="827" d="M106 0v1425h308q129 0 202.5 -45t102.5 -149q22 -73 22 -192q-1 -8 -1 -16q-2 -130 -1 -308v-310.5t-22 -207.5q-18 -61 -51 -99.5t-75 -60t-91 -29.5t-105 -8h-289zM195 82h215q125 0 182 65.5t57 210.5v703q0 61 -10 113.5t-38 90.5t-75 59.5t-118 21.5h-213v-1264z " />
<glyph unicode="E" horiz-adv-x="727" d="M106 0v1425h582v-82h-493v-571h434v-80h-434v-610h493v-82h-582z" />
<glyph unicode="F" horiz-adv-x="722" d="M109 0v1425h579v-82h-491v-571h434v-80h-434v-692h-88z" />
<glyph unicode="G" horiz-adv-x="808" d="M96 299v719v60.5t2 60.5q6 141 85 220t227 79q133 0 220 -73t89 -230l-88 -21v6q0 123 -62.5 179.5t-160.5 56.5q-113 0 -168.5 -72t-55.5 -178v-805q0 -104 56.5 -168.5t169.5 -64.5q47 0 89 15t74.5 44t51 70t18.5 92v368h-176v80h264v-442q0 -76 -25.5 -133.5 t-70.5 -96t-103.5 -59t-121.5 -20.5q-147 0 -230.5 77.5t-83.5 235.5z" />
<glyph unicode="H" horiz-adv-x="843" d="M106 0v1425h89v-655h454v655h88v-1425h-88v690h-454v-690h-89z" />
<glyph unicode="I" horiz-adv-x="356" d="M133 0v1425h90v-1425h-90z" />
<glyph unicode="J" horiz-adv-x="657" d="M-12 53l51 68q31 -25 74 -39t84 -14q39 0 79.5 11t74.5 37.5t55.5 73t21.5 115.5v1120h88v-1118q0 -154 -82 -237.5t-241 -83.5q-53 0 -111.5 14t-93.5 53z" />
<glyph unicode="K" horiz-adv-x="813" d="M106 0v1425h87v-856h4l452 856h92l-295 -561l357 -864h-96l-316 766l-198 -367v-399h-87z" />
<glyph unicode="L" horiz-adv-x="681" d="M109 0v1425h88v-1343h467v-82h-555z" />
<glyph unicode="M" horiz-adv-x="1089" d="M102 0v1425h91q47 -123 91 -242.5t89 -242.5l166 -457h6l170 459q6 14 20.5 52t31.5 86t37.5 103.5t39 103.5t32 86t19.5 52h88v-1425h-86v1178h-6q-37 -104 -76 -206t-78 -206l-166 -434h-61q-41 109 -81 215t-81 213l-149 407h-9v-1167h-88z" />
<glyph unicode="N" horiz-adv-x="882" d="M102 0v1425h82q78 -184 156 -365t156 -366l190 -454h8v1185h86v-1425h-84q-78 182 -154.5 363.5t-154.5 363.5q-49 115 -97 227.5t-95 227.5h-7v-1182h-86z" />
<glyph unicode="O" horiz-adv-x="825" d="M94 301v801q0 154 81 245t239 91t238.5 -84t80.5 -244v-791q0 -166 -87 -249.5t-234 -83.5t-232.5 79.5t-85.5 235.5zM180 299q0 -104 60.5 -168.5t171.5 -64.5q119 0 176 67.5t57 179.5v805q0 106 -60.5 173t-170.5 67q-59 0 -102.5 -21.5t-73 -57.5t-44 -83t-14.5 -98 v-799z" />
<glyph unicode="P" horiz-adv-x="790" d="M106 2v1423h279q106 0 177 -29.5t111 -81.5t56 -127t16 -163q0 -92 -17 -169t-59 -131t-113 -85t-177 -31h-184v-606h-89zM195 688h178q162 0 224 85t62 249q0 70 -12 129t-44 102t-87 68t-139 25h-182v-658z" />
<glyph unicode="Q" horiz-adv-x="823" d="M94 301v801q0 154 81 245t239 91t238.5 -84t80.5 -244v-791q0 -117 -47 -198l127 -94l-47 -60l-127 94q-81 -75 -221 -75h-4q-147 0 -233.5 79.5t-86.5 235.5zM180 299q0 -104 60.5 -168.5t171.5 -64.5q102 0 157 49l-137 106l47 60l135 -105q31 55 31 137v805 q0 106 -60.5 173t-170.5 67q-59 0 -102.5 -21.5t-73 -57.5t-44 -83t-14.5 -98v-799z" />
<glyph unicode="R" horiz-adv-x="813" d="M106 0v1425h277q100 0 170 -25.5t111 -74.5t59 -119.5t18 -161.5q0 -43 -6 -75q-10 -111 -60 -186.5t-155 -108.5q25 -78 54.5 -164t58.5 -174t58.5 -173t53.5 -163h-94l-215 655q-18 -2 -38.5 -2h-41.5h-161v-653h-89zM195 731h176q152 0 217 74t65 239q0 70 -14 126.5 t-47 95.5t-87 59.5t-136 20.5h-174v-615z" />
<glyph unicode="S" horiz-adv-x="774" d="M68 291l90 18q0 -47 12 -91t40 -76.5t72 -52t107 -19.5q76 0 122 24.5t70.5 65.5t32 96t7.5 115q0 72 -7.5 120t-31 83.5t-69.5 65.5t-126 65q-102 45 -163.5 88t-93.5 87t-41 93t-9 108q0 78 18.5 143.5t57.5 112.5t98 74t143 27q92 0 152.5 -27t96.5 -70t50.5 -95 t14.5 -103l-90 -23q0 49 -11.5 91t-38 74t-70.5 50.5t-108 18.5q-70 0 -113.5 -25.5t-68.5 -65.5t-33 -87.5t-8 -92.5q0 -53 10 -93t39 -74.5t82 -67.5t143 -72q92 -39 145.5 -79t80 -86t34 -104t7.5 -134q0 -88 -16.5 -160t-53.5 -122t-98.5 -77.5t-153.5 -27.5 q-86 0 -146.5 23.5t-99.5 64.5t-56 96t-19 121z" />
<glyph unicode="T" horiz-adv-x="653" d="M10 1346v79h631v-79h-270v-1346h-90v1346h-271z" />
<glyph unicode="U" horiz-adv-x="804" d="M82 301v1122h88v-1124q0 -104 60.5 -168.5t170.5 -64.5q117 0 174.5 67.5t57.5 179.5v1110h88v-1104q0 -166 -86 -249.5t-234 -83.5q-147 0 -233 79.5t-86 235.5z" />
<glyph unicode="V" horiz-adv-x="774" d="M25 1425h88l186 -905l80 -411h4l82 409l188 907h90l-307 -1425h-108z" />
<glyph unicode="W" horiz-adv-x="1191" d="M27 1425h88l133 -815l69 -477h7l79 473l152 819h84l149 -827l82 -465h4l68 465l135 827h88l-239 -1425h-105l-155 834l-68 391h-6l-68 -396l-155 -829h-103z" />
<glyph unicode="X" horiz-adv-x="710" d="M12 0l295 725l-287 698h97l237 -602l238 602h96l-291 -698l299 -725h-96l-246 623l-248 -623h-94z" />
<glyph unicode="Y" horiz-adv-x="716" d="M18 1425h91l143 -415l98 -287h6l99 289q35 104 71.5 206.5t71.5 206.5h92l-293 -825v-600h-86v600z" />
<glyph unicode="Z" horiz-adv-x="622" d="M25 0v80l479 1266h-441v79h529v-79l-479 -1264h456v-82h-544z" />
<glyph unicode="[" horiz-adv-x="403" d="M127 -221v1646h240v-65h-156v-1516h156v-65h-240z" />
<glyph unicode="\" horiz-adv-x="442" d="M16 1468h74l338 -1529h-72z" />
<glyph unicode="]" horiz-adv-x="403" d="M94 -156h156v1516h-156v65h238v-1646h-238v65z" />
<glyph unicode="^" horiz-adv-x="722" d="M16 770l314 651h69l314 -651h-78l-273 573l-268 -573h-78z" />
<glyph unicode="_" horiz-adv-x="1024" d="M0 -170h1024v-76h-1024v76z" />
<glyph unicode="`" horiz-adv-x="700" d="M256 1434l92 34l137 -309l-49 -20z" />
<glyph unicode="a" horiz-adv-x="702" d="M49 268q0 57 13.5 113.5t46 102.5t87 75t136.5 29h196v160q0 41 -8 74.5t-28.5 58t-56.5 39t-91 14.5q-59 0 -112.5 -28.5t-69.5 -86.5l-84 29q29 78 96.5 123t173.5 45q129 0 198.5 -58.5t69.5 -207.5v-750h-88v90h-2q-49 -68 -111.5 -85t-121.5 -17q-68 0 -114 23.5 t-74.5 62.5t-42 89t-13.5 105zM137 268q0 -82 42 -140t147 -58q88 0 145 48t57 142v248h-178q-45 0 -84 -12.5t-67.5 -41t-45 -74.5t-16.5 -112z" />
<glyph unicode="b" horiz-adv-x="710" d="M82 0v1487h86v-602h4q35 61 97.5 96t127.5 35q96 0 146.5 -39t74.5 -96q16 -49 22.5 -123t6.5 -156v-143q0 -55 -2 -113.5t-8 -122.5q-6 -72 -32.5 -118t-61.5 -72.5t-76 -35.5t-76 -9q-84 0 -134 27.5t-85 78.5h-4v-94h-86zM168 285q0 -96 55.5 -155.5t145.5 -59.5 q59 0 104 27.5t68 99.5q10 35 13 109.5t3 170.5q0 51 -1 103.5t-3 99.5t-6 84t-12 59q-18 55 -59.5 82t-100.5 27q-51 0 -90 -21.5t-64.5 -56.5t-39 -79t-13.5 -89v-401z" />
<glyph unicode="c" horiz-adv-x="673" d="M70 489q0 55 1 110.5t4 105t9 89.5t14 64q27 72 88 115t172 43q129 0 197 -67.5t68 -196.5q-23 -4 -45.5 -7.5t-45.5 -7.5v8q0 89 -45 139q-47 52 -135 52q-55 0 -99 -24.5t-71 -84.5q-16 -39 -20 -133t-4 -217v-26q0 -37 1 -76t3 -76t5 -67.5t9 -49.5q18 -55 61.5 -85.5 t110.5 -30.5q84 0 134 46t50 148l91 -16q-4 -129 -76 -193.5t-199 -64.5q-61 0 -107 15t-77 40t-49.5 56.5t-26.5 66.5q-6 25 -10 63.5t-5 83.5t-2 91.5t-1 86.5z" />
<glyph unicode="d" horiz-adv-x="712" d="M68 350.5v116.5v29q0 117 3 212t25 154q23 63 77 108.5t161 45.5q82 0 135 -39t70 -76h4v586h88v-1487h-88v94h-4q-35 -51 -85 -78.5t-132 -27.5q-39 0 -79 9t-76 35.5t-60.5 73t-32.5 117.5q-6 66 -6 127.5zM158 477q0 -96 3 -171t13 -109q20 -72 62.5 -99.5 t105.5 -27.5q92 0 146.5 59t54.5 156v413q0 45 -12.5 87t-37 74t-61.5 51.5t-86 19.5q-61 0 -107 -33t-63 -96q-6 -23 -10 -57.5t-5 -78.5t-2 -92.5t-1 -95.5z" />
<glyph unicode="e" horiz-adv-x="700" d="M68 489q0 55 1 110.5t4 105t9 90.5t14 65q27 72 88 114t172 42q123 0 191.5 -62.5t75.5 -179.5q2 -23 2 -44v-44v-199h-467v-65q0 -66 3 -136.5t15 -105.5q18 -53 59 -83.5t111 -30.5q92 0 136 53t50 131l89 -17q-10 -121 -84 -184t-191 -63q-61 0 -107 15t-77 40 t-49.5 56.5t-26.5 66.5q-6 25 -10 63.5t-5 82.5t-2 91.5t-1 87.5zM158 561h379v125q0 47 -5.5 92t-25 80t-56 55.5t-98.5 20.5q-51 0 -98 -23t-74 -84q-14 -35 -17 -103.5t-5 -162.5z" />
<glyph unicode="f" horiz-adv-x="403" d="M25 926v75h110v259q0 123 61.5 175t155.5 52h51v-80h-41q-76 0 -106.5 -41t-30.5 -106v-259h170v-75h-170v-926h-90v926h-110z" />
<glyph unicode="g" horiz-adv-x="729" d="M72 420v110q0 59 1 120t7 128q6 72 32.5 118t62.5 72.5t77 37t76 10.5q84 0 134 -29t85 -80h4v94h86v-1148q0 -127 -76 -196t-205 -69q-115 0 -187.5 62.5t-76.5 185.5l90 17q0 -86 45 -135.5t135 -49.5t139.5 58.5t49.5 144.5v246h-4q-35 -61 -97.5 -95t-127.5 -34 q-98 0 -148.5 40t-73.5 97q-20 53 -24 133t-4 162zM162 524q0 -51 1 -103t3 -99.5t6 -85t12 -58.5q18 -55 59.5 -81.5t100.5 -26.5q51 0 90 21.5t64.5 56t39 78.5t13.5 89v402q0 96 -55.5 155.5t-147.5 59.5q-57 0 -102 -27.5t-68 -99.5q-10 -35 -13 -109.5t-3 -171.5z" />
<glyph unicode="h" horiz-adv-x="733" d="M88 0v1489h88v-598h2q35 59 94.5 92t128.5 33q70 0 117 -20.5t76 -57.5t41 -86t12 -107v-745h-90v719q0 43 -8 82t-29.5 66.5t-56.5 44t-88 16.5q-49 0 -86 -18.5t-62.5 -50.5t-39 -73t-13.5 -84v-702h-86z" />
<glyph unicode="i" horiz-adv-x="317" d="M111 1245v98h92v-98h-92zM113 0v1001h88v-1001h-88z" />
<glyph unicode="j" horiz-adv-x="305" d="M-31 -336h15q82 0 105.5 44t23.5 128v1165h86v-1151q0 -59 -8.5 -107t-31 -83t-61.5 -54.5t-102 -19.5h-27v78zM111 1245v98h92v-98h-92z" />
<glyph unicode="k" horiz-adv-x="708" d="M86 0v1487h86v-1077h2l371 589h98l-233 -368l288 -631h-98l-246 549l-182 -289v-260h-86z" />
<glyph unicode="l" horiz-adv-x="344" d="M100 215v1272h86v-1251q0 -78 26 -124t103 -46h25v-80h-31q-102 0 -155.5 49t-53.5 180z" />
<glyph unicode="m" horiz-adv-x="1181" d="M92 0v1001h88v-112h6q35 59 86 93t123 34q94 0 145.5 -40t73.5 -104q33 66 96.5 105t137.5 39q68 0 114 -21.5t73.5 -58.5t39.5 -86t12 -105v-745h-88v717q0 39 -8 78t-27.5 67.5t-54.5 47t-88 18.5q-47 0 -81.5 -17.5t-58.5 -48.5t-36 -71.5t-12 -85.5v-705h-86v717 q0 39 -7.5 78t-25.5 67.5t-52 47t-85 18.5t-88 -18.5t-61.5 -50.5t-36 -73t-11.5 -86v-700h-88z" />
<glyph unicode="n" horiz-adv-x="731" d="M86 0v1001h88v-110h4q35 59 93.5 92t127.5 33q70 0 117 -20.5t76 -57.5t41 -86t12 -107v-745h-90v719q0 43 -8 82t-28.5 66.5t-55.5 44t-86 16.5q-49 0 -87 -19.5t-64.5 -51.5t-40 -73t-13.5 -84v-700h-86z" />
<glyph unicode="o" horiz-adv-x="714" d="M68 401.5v87.5q0 55 1 109.5t4 104t9 89t14 64.5q27 72 90 116t174 44q113 0 172.5 -43t81.5 -109q10 -27 15.5 -70.5t8.5 -96t3 -106.5v-102v-30q0 -53 -1 -108.5t-7 -121.5q-6 -72 -34 -119t-67.5 -74.5t-87 -38.5t-92.5 -11q-123 0 -183 50t-83 128q-6 25 -10 62.5 t-6 82.5t-2 92.5zM158 451q0 -98 3 -166t15 -105q18 -55 62.5 -84.5t119.5 -29.5q68 0 117 36.5t66 102.5q8 35 11 110.5t3 161.5q0 45 -1 96.5t-2 98.5t-5 85t-10 58q-18 61 -67 91t-112 30q-53 0 -102 -21.5t-74 -83.5q-16 -41 -20 -128t-4 -201v-51z" />
<glyph unicode="p" horiz-adv-x="714" d="M76 -397v1396h86v-94h4q35 51 85 80t134 29q37 0 78 -10.5t75.5 -37t60.5 -72.5t32 -118q6 -66 7 -126t1 -118v-28q0 -117 -4 -209t-27 -158q-23 -63 -77 -107t-160 -44q-82 0 -135.5 37.5t-69.5 74.5h-4v-495h-86zM162 301q0 -45 12 -87t37 -73.5t61.5 -51t85.5 -19.5 q61 0 108.5 32.5t63.5 96.5q6 20 9.5 56t5.5 80t2 92v95q0 96 -3 171t-14 110q-20 72 -61 99.5t-104 27.5q-92 0 -147.5 -59.5t-55.5 -155.5v-414z" />
<glyph unicode="q" horiz-adv-x="727" d="M72 420v139q0 51 1 104.5t7 114.5q6 72 32.5 118t62.5 72.5t77 37t76 10.5q84 0 134 -29t85 -80h4v94h86v-1402h-86v518h-4q-35 -61 -97.5 -95t-127.5 -34q-100 2 -151.5 43t-74.5 104q-16 51 -20 128t-4 157zM162 524q0 -51 1 -103t3 -99.5t6 -85t12 -58.5 q18 -55 59.5 -81.5t100.5 -26.5q51 0 90 21.5t64.5 56t39 78.5t13.5 89v402q0 96 -55.5 155.5t-147.5 59.5q-57 0 -102 -27.5t-68 -99.5q-10 -35 -13 -109.5t-3 -171.5z" />
<glyph unicode="r" horiz-adv-x="479" d="M113 0v1001h88v-137h4q33 80 88 116t133 36h20.5t20.5 -2v-101q-12 2 -25.5 3.5t-25.5 1.5q-102 0 -158.5 -70t-56.5 -199v-649h-88z" />
<glyph unicode="s" horiz-adv-x="659" d="M51 242l90 14q0 -86 48.5 -137t134.5 -51q109 0 149.5 51t40.5 143q0 45 -7 77t-27.5 57.5t-57.5 47t-98 43.5q-80 31 -131.5 62t-79 64.5t-37.5 70.5t-10 78q0 113 65.5 184.5t206.5 71.5q129 0 199.5 -66.5t70.5 -191.5l-92 -15q0 92 -48 141.5t-134 49.5 q-53 0 -88 -15.5t-54.5 -40t-27.5 -55t-8 -63.5t8 -59.5t31.5 -50t66.5 -46t111 -47.5q78 -29 123 -59.5t68.5 -66.5t30.5 -78t7 -91q0 -61 -14.5 -112.5t-47 -88t-85 -57t-127.5 -20.5q-131 0 -202 63.5t-75 192.5z" />
<glyph unicode="t" horiz-adv-x="448" d="M37 930v71h115v275h88v-275h151v-71h-151v-694q0 -76 31.5 -116t107.5 -40h22v-80h-39q-211 0 -210 225v705h-115z" />
<glyph unicode="u" horiz-adv-x="733" d="M88 256v748h90v-719q0 -47 8.5 -86t27.5 -67t54 -44t88 -16q47 0 85 19.5t63.5 51t40 72.5t14.5 84v705h88v-1004h-88v113h-6q-35 -59 -92.5 -93t-128.5 -34q-70 0 -117 21.5t-74.5 58t-40 86t-12.5 104.5z" />
<glyph unicode="v" horiz-adv-x="634" d="M10 1001h92q29 -111 55.5 -219t53.5 -219q25 -104 50.5 -214.5t51.5 -215.5h6q25 104 50.5 216t52.5 216q29 111 53.5 218.5t50.5 217.5h95l-259 -1001h-96q-66 252 -129 501t-127 500z" />
<glyph unicode="w" horiz-adv-x="1075" d="M20 1001h93q4 -20 19 -86.5t34.5 -155.5t42 -188.5t42 -188.5t34 -155.5t18.5 -87.5h4q6 33 21.5 102.5t35 156.5t41 183.5t40 181.5t31.5 149.5t20 88.5h92l69 -317q29 -135 58.5 -273.5t60.5 -273.5h4q25 109 48.5 222.5t45.5 222.5l95 419h92l-236 -1001h-92l-69 301 q-31 131 -62 268.5t-59 270.5h-6l-189 -840h-92q-59 252 -117.5 501t-118.5 500z" />
<glyph unicode="x" horiz-adv-x="604" d="M12 0l238 514l-223 487h98l178 -411l180 411h101l-228 -487l238 -514h-98l-193 434l-194 -434h-97z" />
<glyph unicode="y" horiz-adv-x="645" d="M12 1001h94l107 -430l106 -432h5q29 104 55.5 216t52.5 218l113 428h90l-301 -1124q-16 -66 -37 -121q-23 -70 -73 -116t-134 -46h-31v78h25q66 0 100.5 47.5t55.5 130.5q10 39 19 77t20 77q-68 250 -134.5 498t-132.5 499z" />
<glyph unicode="z" horiz-adv-x="575" d="M29 0v80l422 844h-381v75h477v-75l-422 -844h412v-80h-508z" />
<glyph unicode="{" horiz-adv-x="436" d="M61 578v51q41 10 67 36.5t39 63.5t18 82t5 90v277q0 16 1.5 31.5t3.5 31.5q6 90 51 137t119 47h36v-57h-28q-37 0 -58.5 -18.5t-33 -48t-14.5 -63.5t-3 -64v-275q0 -127 -37 -201.5t-84 -91.5v-4q53 -16 87 -88t34 -190v-297q0 -29 3 -63t14.5 -62.5t33 -47t58.5 -18.5 h28v-59h-36q-80 0 -127.5 55t-47.5 156v284q0 133 -21.5 208t-107.5 98z" />
<glyph unicode="|" horiz-adv-x="360" d="M152 -332v1798h67v-1798h-67z" />
<glyph unicode="}" horiz-adv-x="436" d="M61 -164h29q37 0 58.5 18.5t33 47t15.5 62.5t4 63v297q0 119 32.5 190.5t85.5 87.5v4q-47 16 -82.5 91t-35.5 202v275q0 31 -4 64.5t-15.5 63t-33 48t-58.5 18.5h-29v57h52q47 0 77.5 -21.5t49 -56t25.5 -78.5t7 -91v-277q0 -45 5.5 -90t19.5 -82t39.5 -63.5t64.5 -36.5 v-51q-86 -23 -106.5 -97.5t-20.5 -208.5v-284q0 -100 -48 -155.5t-128 -55.5h-37v59z" />
<glyph unicode="~" horiz-adv-x="722" d="M31 471q29 47 73 77t101 30q47 0 89 -14.5t82 -33t75.5 -33t70.5 -14.5q37 0 64.5 13.5t64.5 60.5l51 -35q-31 -53 -75.5 -84.5t-104.5 -31.5q-39 0 -77.5 14t-78.5 32.5t-81 33t-82 14.5q-35 0 -63.5 -14.5t-61.5 -53.5z" />
<glyph unicode="&#xa1;" horiz-adv-x="407" d="M154 903v103h100v-103h-100zM156 -418l10 1094h74l10 -1094h-94z" />
<glyph unicode="&#xa2;" horiz-adv-x="722" d="M84 428q0 59 1 122.5t3 121t7 106.5t16 80q20 66 75.5 107t147.5 49v-80l-21 -6q-35 -6 -68.5 -30t-49.5 -71q-16 -45 -19.5 -136t-3.5 -214v-26q0 -37 1 -76t2 -76t5 -67.5t10 -49.5q16 -49 51 -79.5t93 -36.5v-78q-111 6 -164 58t-70 118q-10 41 -13 115.5t-3 148.5z M334 -12q8 -2 26 -2h23v-219h-49v221zM334 66v868q11 2 31 2q4 0 9 -1t9 -1v-868h-21h-28zM334 1014v227h49v-225h-12q-10 0 -18.5 -1t-18.5 -1zM383 -14v80q10 0 19.5 2t19.5 6q119 25 123 186l90 -16q-4 -123 -69.5 -187.5t-182.5 -70.5zM383 934v82q123 -4 188.5 -71.5 t65.5 -192.5l-92 -15q0 92 -40 142.5t-122 54.5z" />
<glyph unicode="&#xa3;" horiz-adv-x="722" d="M49 662v75h121q-10 59 -26.5 115.5t-31 107t-24.5 96.5t-10 87q0 135 77 216t216 81q61 0 116.5 -17.5t96.5 -54.5t63.5 -94t22.5 -137l-88 -21q2 125 -55.5 183.5t-155.5 58.5q-96 0 -148.5 -57.5t-52.5 -149.5q0 -49 10 -96t24.5 -96.5t29 -103.5t24.5 -118h219v-75 h-211q2 -16 3 -37t1 -37q0 -158 -31.5 -274.5t-86.5 -231.5h495v-82h-594v82q61 115 95 239.5t34 268.5q0 35 -6 72h-127z" />
<glyph unicode="&#xa4;" horiz-adv-x="1009" d="M131 344l111 111q-72 88 -72 204q0 119 72 209l-109 107l55 57l109 -110q88 76 209 75q115 0 207 -73l106 108l55 -57l-106 -107q74 -92 74 -209q0 -115 -74 -204l20.5 -20.5t34 -35t33.5 -34t21 -19.5q-10 -10 -29 -28.5t-29 -28.5l-106 108q-88 -72 -207 -71 q-59 0 -111.5 18t-97.5 53l-20.5 -20.5t-35 -34.5t-33.5 -34.5t-20 -20.5q-16 16 -34.5 35.5t-22.5 21.5zM252 659q0 -53 19.5 -99t55 -81t82 -55.5t99.5 -20.5q51 0 98 20.5t82 55.5t55.5 81t20.5 99t-20.5 100.5t-55.5 82.5t-81 55.5t-99 20.5t-99.5 -20.5t-82 -55.5 t-55 -82.5t-19.5 -100.5z" />
<glyph unicode="&#xa5;" horiz-adv-x="722" d="M47 1425h86l225 -708h7l225 708h88l-260 -780h233v-61h-248v-150h248v-63h-248v-371h-81v371h-236v63h236v150h-236v61h219z" />
<glyph unicode="&#xa6;" horiz-adv-x="360" d="M152 -332v842h67v-842h-67zM152 621v845h67v-845h-67z" />
<glyph unicode="&#xa7;" horiz-adv-x="841" d="M102 709q0 84 45.5 145t116.5 102q-63 51 -87.5 101.5t-24.5 109.5q0 57 19 106.5t56 86.5t88.5 57.5t116.5 20.5q80 0 143.5 -22.5t122.5 -69.5q-14 -16 -29.5 -31t-29.5 -31q-51 41 -98 59.5t-109 18.5q-47 0 -83 -16.5t-60.5 -43t-36.5 -60.5t-12 -68q0 -43 16 -75 t45 -58.5t69 -52t89 -54.5q61 -35 113.5 -71t92.5 -77t62.5 -88t22.5 -104q0 -72 -44 -137.5t-116 -112.5q59 -59 83.5 -113.5t24.5 -109.5q0 -8 -1 -14.5t-3 -14.5q-8 -117 -96 -182.5t-223 -65.5q-66 0 -135.5 25t-124.5 65q20 31 47 60q53 -39 103 -57.5t110 -18.5 q113 0 175 54.5t62 138.5q0 78 -60 146.5t-202 150.5q-125 72 -186.5 139t-61.5 162zM186 713q0 -41 21.5 -77t54.5 -65.5t74 -56.5t82 -49l108 -66q57 27 98.5 81.5t41.5 107.5q0 92 -82 162.5t-246 154.5q-59 -23 -105.5 -71t-46.5 -121z" />
<glyph unicode="&#xa8;" horiz-adv-x="702" d="M156 1198v98h86v-98h-86zM455 1198v98h86v-98h-86z" />
<glyph unicode="&#xa9;" horiz-adv-x="1439" d="M117 698q0 154 40 285t117.5 228.5t192.5 151.5t266 54q150 0 264.5 -54t193.5 -151.5t120 -228.5t41 -285t-41 -283.5t-120 -226t-193.5 -150.5t-264.5 -54q-152 0 -266.5 54t-192 150.5t-117.5 226.5t-40 283zM188 698q0 -139 37 -257.5t106.5 -206t171 -136.5 t230.5 -49q131 0 233.5 49t171 137.5t104.5 206t36 256.5t-36 259t-105.5 207t-171 137.5t-232.5 50.5q-135 0 -237.5 -51.5t-171 -140.5t-102.5 -207.5t-34 -254.5zM512 485v396q0 109 65.5 165t157.5 56q45 0 85 -13.5t70 -40t47 -67.5t17 -94l-69 -15q0 78 -41 120 t-111 42q-66 0 -106.5 -42t-40.5 -101v-414q0 -61 41 -101t106 -40q68 0 108 41t42 117l71 -13q0 -104 -64.5 -158.5t-154.5 -54.5q-45 0 -85 13.5t-70.5 40t-49 67.5t-18.5 96z" />
<glyph unicode="&#xaa;" horiz-adv-x="483" d="M27 756q0 39 10 76.5t32.5 68.5t61.5 49.5t96 18.5h125v92q0 49 -21.5 81t-92.5 32q-41 0 -74 -24t-45 -58l-78 26q23 57 73 92t128 35q92 0 142 -39t50 -141v-492h-82v45q-31 -35 -71.5 -44t-79.5 -9q-47 0 -81 16.5t-54.5 42t-29.5 60.5t-9 72zM106 756q0 -49 27 -84 t92 -35q57 0 92 29.5t35 83.5v147h-108q-59 0 -98.5 -31.5t-39.5 -109.5z" />
<glyph unicode="&#xab;" horiz-adv-x="692" d="M76 475l219 381h90l-217 -381l217 -381h-90zM328 475l219 381h90l-215 -381l215 -381h-90z" />
<glyph unicode="&#xac;" horiz-adv-x="722" d="M33 563v74h653v-397h-72v323h-581z" />
<glyph unicode="&#xad;" horiz-adv-x="657" d="M100 545v84h480v-84h-480z" />
<glyph unicode="&#xae;" horiz-adv-x="995" d="M115 1006q0 98 24.5 180t73.5 141t122 93t169 34q92 0 163.5 -34t121 -93t75 -141t25.5 -180q0 -94 -25.5 -175t-75 -141.5t-121 -94.5t-163.5 -34q-94 0 -167 34t-122 94.5t-74.5 141t-25.5 175.5zM174 1010q0 -86 22.5 -157t64.5 -123t103.5 -80.5t139.5 -28.5 q82 0 143.5 30.5t101 82.5t59 124t19.5 152q0 82 -21.5 153.5t-62.5 124.5t-101 84t-138 31q-82 0 -143.5 -31t-103.5 -84t-62.5 -124.5t-20.5 -153.5zM373 737v533h125q72 0 110.5 -38t38.5 -120q0 -41 -16.5 -80t-63.5 -61q23 -57 45.5 -116.5t42.5 -117.5h-67l-80 228 h-74v-228h-61zM434 1016h64q49 0 67.5 26.5t18.5 69.5q0 47 -21.5 73.5t-70.5 26.5h-58v-196z" />
<glyph unicode="&#xaf;" horiz-adv-x="702" d="M154 1206v80h424v-80h-424z" />
<glyph unicode="&#xb0;" horiz-adv-x="575" d="M111 1235q0 39 14 73.5t39.5 60.5t59.5 40t73 14t74 -14t60.5 -40t39.5 -60.5t14 -73.5q0 -80 -54 -135.5t-134 -55.5q-39 0 -73 14.5t-59.5 41t-39.5 60.5t-14 75zM170 1235q0 -55 37 -92t90 -37t90 37t37 92q0 53 -37 91t-90 38t-90 -38t-37 -91z" />
<glyph unicode="&#xb1;" horiz-adv-x="722" d="M33 84v72h655v-72h-655zM33 563v74h291v321h71v-321h293v-74h-293v-323h-71v323h-291z" />
<glyph unicode="&#xb2;" horiz-adv-x="471" d="M53 1427q0 86 50.5 137.5t136.5 51.5q98 0 143 -50t45 -134q0 -57 -14.5 -101.5t-40.5 -91.5l-228 -410h273v-71h-363v61l252 459q23 37 31 74t8 78q0 45 -22.5 80.5t-85.5 35.5q-43 0 -74 -32.5t-31 -98.5z" />
<glyph unicode="&#xb3;" horiz-adv-x="471" d="M53 1436q4 78 49 128t140 50q100 0 137 -52.5t37 -127.5v-68q0 -45 -7.5 -90t-58.5 -74q43 -23 54.5 -60.5t11.5 -86.5v-125q0 -72 -42 -126t-141 -54q-84 0 -132 46t-46 140l80 8q-2 -57 20.5 -92t80.5 -35q55 0 78.5 34t23.5 79v127q0 59 -27.5 83.5t-70.5 24.5h-47v70 h49q41 0 68.5 23.5t27.5 78.5v103q0 41 -21.5 73.5t-78.5 32.5q-55 0 -81 -34.5t-26 -88.5z" />
<glyph unicode="&#xb4;" horiz-adv-x="700" d="M299 1159l137 309l92 -34l-180 -295z" />
<glyph unicode="&#xb6;" horiz-adv-x="827" d="M53 1108q0 74 14.5 142.5t50.5 119.5t94 82t146 31h412v-99h-102v-1550h-90v1550h-134v-1550h-90v901q-51 0 -96 17q-96 23 -150.5 120t-54.5 236z" />
<glyph unicode="&#xb7;" horiz-adv-x="276" d="M86 479v115h109v-115h-109z" />
<glyph unicode="&#xb8;" horiz-adv-x="882" d="M219 -389l21 49q35 -16 64.5 -20.5t53.5 -4.5q43 0 72 21.5t29 64.5q0 41 -31 69t-96 28l-33 24l49 178l55 -4l-36 -145q47 -4 78.5 -19.5t50 -37t25.5 -46t7 -44.5q0 -53 -36.5 -99.5t-118.5 -46.5q-31 0 -72 5t-82 28z" />
<glyph unicode="&#xb9;" horiz-adv-x="389" d="M80 1432v84l145 92h70v-850h-74v766z" />
<glyph unicode="&#xba;" horiz-adv-x="493" d="M41 837.5v57.5q0 70 3 137.5t15 102.5q16 47 65.5 78.5t123.5 31.5q80 0 123 -29.5t59 -74.5q14 -35 17.5 -101.5t3.5 -126.5v-39q0 -35 -1 -69.5t-6 -75.5q-4 -49 -23.5 -81t-48 -51t-62.5 -27.5t-66 -8.5q-88 0 -131 35t-60 88q-4 14 -7 40t-4 54.5t-1 59zM119 879 q0 -63 2 -109.5t10 -69.5q10 -33 38 -50t77 -17q31 0 56.5 9t39.5 32q10 12 16 33q8 25 10.5 76t2.5 104v62.5t-2 61t-4.5 54.5t-6.5 39q-10 35 -40.5 51t-71.5 16q-35 0 -63.5 -12t-45.5 -47q-10 -27 -13 -80t-5 -125v-28z" />
<glyph unicode="&#xbb;" horiz-adv-x="692" d="M78 94l215 381l-215 381h88l219 -381l-219 -381h-88zM330 94l217 381l-217 381h90l219 -381l-219 -381h-90z" />
<glyph unicode="&#xbc;" horiz-adv-x="1126" d="M72 1247v84l145 92h70v-850h-74v766zM170 -35l643 1497h68l-643 -1497h-68zM635 141v64l192 645h78l-192 -637h192v231h74v-231h76v-72h-76v-141h-74v141h-270z" />
<glyph unicode="&#xbd;" horiz-adv-x="1126" d="M76 1247v84l145 92h70v-850h-74v766zM135 -35l643 1497h68l-643 -1497h-68zM674 670q0 86 50 137t136 51q98 0 143.5 -50t45.5 -134q0 -57 -14.5 -100.5t-41.5 -90.5l-227 -411h272v-72h-362v63l252 457q23 39 31 75t8 77q0 45 -23 80.5t-86 35.5q-43 0 -73.5 -31.5 t-30.5 -99.5z" />
<glyph unicode="&#xbe;" horiz-adv-x="1126" d="M49 1251q4 78 49 128.5t140 50.5q100 0 137 -52.5t37 -128.5v-67q0 -45 -7.5 -90t-58.5 -74q43 -23 54.5 -60.5t11.5 -87.5v-125q0 -72 -42 -126t-141 -54q-84 0 -132 46t-46 141l80 8q-2 -57 20.5 -92t79.5 -35q55 0 79 33.5t24 78.5v127q0 59 -27.5 84t-70.5 25h-48v70 h50q41 0 68.5 23.5t27.5 78.5v102q0 41 -21.5 74t-79.5 33q-55 0 -80.5 -35t-25.5 -88zM207 -35l643 1497h68l-644 -1497h-67zM655 141v64l193 645h78l-193 -637h193v231h73v-231h76v-72h-76v-141h-73v141h-271z" />
<glyph unicode="&#xbf;" horiz-adv-x="702" d="M74 -111q0 51 4 88t11 66t16.5 51.5t21.5 44.5q45 76 80 127t56.5 92t32.5 79t11 87v148h84v-166q0 -55 -20.5 -110.5t-50 -107.5t-61.5 -99.5t-54 -84.5q-29 -49 -34 -100t-5 -108q0 -117 49 -181.5t166 -64.5q78 0 140.5 55t66.5 170l88 -12q-6 -141 -88 -219t-207 -78 q-86 0 -145.5 24.5t-95.5 67.5t-51 102.5t-15 128.5zM299 899v102h98v-102h-98z" />
<glyph unicode="&#xc0;" horiz-adv-x="770" d="M20 0l314 1425h100l320 -1425h-88l-82 373h-398l-82 -373h-84zM88 1675l68 74l262 -217l-35 -41zM201 455h366l-106 491l-74 352h-4l-76 -356z" />
<glyph unicode="&#xc1;" horiz-adv-x="770" d="M20 0l314 1425h100l320 -1425h-88l-82 373h-398l-82 -373h-84zM201 455h366l-106 491l-74 352h-4l-76 -356zM340 1532l262 215l66 -74l-293 -182z" />
<glyph unicode="&#xc2;" horiz-adv-x="770" d="M20 0l314 1425h100l320 -1425h-88l-82 373h-398l-82 -373h-84zM119 1536l235 211h66l225 -207l-39 -35l-223 156l-225 -158zM201 455h366l-106 491l-74 352h-4l-76 -356z" />
<glyph unicode="&#xc3;" horiz-adv-x="770" d="M20 0l314 1425h100l320 -1425h-88l-82 373h-398l-82 -373h-84zM131 1559q25 51 63.5 83.5t81.5 32.5q31 0 60 -12t56.5 -26.5t56 -27t61.5 -12.5q57 0 104 80l48 -28q-25 -66 -69 -96.5t-85 -30.5q-31 0 -60.5 12t-58.5 26.5t-56.5 26.5t-53.5 12q-25 0 -50.5 -19 t-48.5 -52zM201 455h366l-106 491l-74 352h-4l-76 -356z" />
<glyph unicode="&#xc4;" horiz-adv-x="770" d="M20 0l314 1425h100l320 -1425h-88l-82 373h-398l-82 -373h-84zM190 1526v96h86v-96h-86zM201 455h366l-106 491l-74 352h-4l-76 -356zM489 1526v96h84v-96h-84z" />
<glyph unicode="&#xc5;" horiz-adv-x="770" d="M20 0l314 1425h100l320 -1425h-88l-82 373h-398l-82 -373h-84zM201 455h366l-106 491l-74 352h-4l-76 -356zM219 1630q0 72 48 120t116 48t116 -48t48 -120q0 -68 -48 -117t-116 -49t-116 49.5t-48 116.5zM274 1630q0 -47 32 -79.5t77 -32.5t77 32.5t32 79.5t-32 80 t-77 33t-77 -33t-32 -80z" />
<glyph unicode="&#xc6;" horiz-adv-x="1275" d="M8 0l594 1425h637v-82h-494v-571h435v-80h-435v-610h494v-82h-582v391h-395l-164 -391h-90zM295 473h362v868h-4z" />
<glyph unicode="&#xc7;" horiz-adv-x="784" d="M94 301v799q0 154 77 246t237 92q66 0 123 -18.5t99 -56.5t65.5 -95.5t23.5 -134.5l-88 -19q0 127 -62.5 184.5t-160.5 57.5q-113 0 -169.5 -71t-56.5 -179v-803q0 -104 56.5 -169.5t169.5 -65.5q45 0 84.5 13t70.5 42t49.5 75t18.5 111l88 -16q-2 -150 -81 -222.5 t-194 -82.5l-28 -117q47 -4 78.5 -19.5t50 -37t26 -46t7.5 -44.5q0 -53 -37 -99.5t-119 -46.5q-31 0 -72 5t-82 28l21 49q35 -16 64.5 -20.5t54.5 -4.5q43 0 71.5 21.5t28.5 64.5q0 41 -31 69t-96 28l-33 24l39 144q-137 6 -215 83.5t-78 231.5z" />
<glyph unicode="&#xc8;" horiz-adv-x="727" d="M106 0v1425h582v-82h-493v-571h434v-80h-434v-610h493v-82h-582zM125 1675l68 74l262 -217l-35 -41z" />
<glyph unicode="&#xc9;" horiz-adv-x="727" d="M106 0v1425h582v-82h-493v-571h434v-80h-434v-610h493v-82h-582zM274 1532l263 215l65 -74l-293 -182z" />
<glyph unicode="&#xca;" horiz-adv-x="727" d="M106 0v1425h582v-82h-493v-571h434v-80h-434v-610h493v-82h-582zM121 1536l235 211h66l225 -207l-39 -35l-223 156l-225 -158z" />
<glyph unicode="&#xcb;" horiz-adv-x="727" d="M106 0v1425h582v-82h-493v-571h434v-80h-434v-610h493v-82h-582zM186 1526v96h86v-96h-86zM485 1526v96h84v-96h-84z" />
<glyph unicode="&#xcc;" horiz-adv-x="356" d="M-106 1675l67 74l262 -217l-35 -41zM133 0v1425h90v-1425h-90z" />
<glyph unicode="&#xcd;" horiz-adv-x="356" d="M133 0v1425h90v-1425h-90zM135 1532l262 215l66 -74l-293 -182z" />
<glyph unicode="&#xce;" horiz-adv-x="356" d="M-82 1536l236 211h65l225 -207l-38 -35l-224 156l-225 -158zM133 0v1425h90v-1425h-90z" />
<glyph unicode="&#xcf;" horiz-adv-x="356" d="M-12 1526v96h86v-96h-86zM133 0v1425h90v-1425h-90zM287 1526v96h84v-96h-84z" />
<glyph unicode="&#xd0;" horiz-adv-x="827" d="M10 725v72h96v628h308q129 0 202.5 -45t102.5 -149q23 -78 21.5 -208t-1.5 -308v-310.5t-22 -207.5q-18 -61 -51 -99.5t-75 -60t-91 -29.5t-105 -8h-289v725h-96zM195 82h215q125 0 182 65.5t57 210.5v703q0 61 -10 113.5t-38 90.5t-75 59.5t-118 21.5h-213v-549h225v-72 h-225v-643z" />
<glyph unicode="&#xd1;" horiz-adv-x="882" d="M102 0v1425h82q78 -184 156 -365t156 -366l190 -454h8v1185h86v-1425h-84q-78 182 -154.5 363.5t-154.5 363.5q-49 115 -97 227.5t-95 227.5h-7v-1182h-86zM186 1552q25 51 64 84t82 33q31 0 59.5 -12t56 -26.5t56 -27t61.5 -12.5q57 0 105 80l47 -29q-25 -66 -69 -96 t-85 -30q-31 0 -60.5 12t-58 26.5t-56.5 26.5t-54 12q-25 0 -50.5 -19.5t-47.5 -51.5z" />
<glyph unicode="&#xd2;" horiz-adv-x="825" d="M94 301v801q0 154 81 245t239 91t238.5 -84t80.5 -244v-791q0 -166 -87 -249.5t-234 -83.5t-232.5 79.5t-85.5 235.5zM147 1675l68 74l262 -217l-35 -41zM180 299q0 -104 60.5 -168.5t171.5 -64.5q119 0 176 67.5t57 179.5v805q0 106 -60.5 173t-170.5 67 q-59 0 -102.5 -21.5t-73 -57.5t-44 -83t-14.5 -98v-799z" />
<glyph unicode="&#xd3;" horiz-adv-x="825" d="M94 301v801q0 154 81 245t239 91t238.5 -84t80.5 -244v-791q0 -166 -87 -249.5t-234 -83.5t-232.5 79.5t-85.5 235.5zM180 299q0 -104 60.5 -168.5t171.5 -64.5q119 0 176 67.5t57 179.5v805q0 106 -60.5 173t-170.5 67q-59 0 -102.5 -21.5t-73 -57.5t-44 -83t-14.5 -98 v-799zM328 1532l262 215l65 -74l-293 -182z" />
<glyph unicode="&#xd4;" horiz-adv-x="825" d="M94 301v801q0 154 81 245t239 91t238.5 -84t80.5 -244v-791q0 -166 -87 -249.5t-234 -83.5t-232.5 79.5t-85.5 235.5zM150 1536l235 211h66l225 -207l-39 -35l-223 156l-226 -158zM180 299q0 -104 60.5 -168.5t171.5 -64.5q119 0 176 67.5t57 179.5v805q0 106 -60.5 173 t-170.5 67q-59 0 -102.5 -21.5t-73 -57.5t-44 -83t-14.5 -98v-799z" />
<glyph unicode="&#xd5;" horiz-adv-x="825" d="M94 301v801q0 154 81 245t239 91t238.5 -84t80.5 -244v-791q0 -166 -87 -249.5t-234 -83.5t-232.5 79.5t-85.5 235.5zM158 1559q25 51 63.5 83.5t81.5 32.5q31 0 59.5 -12t56 -26.5t56.5 -27t62 -12.5q57 0 104 80l47 -28q-25 -66 -69 -96.5t-84 -30.5q-31 0 -61 12 t-58.5 26.5t-56 26.5t-54.5 12q-25 0 -50.5 -19t-47.5 -52zM180 299q0 -104 60.5 -168.5t171.5 -64.5q119 0 176 67.5t57 179.5v805q0 106 -60.5 173t-170.5 67q-59 0 -102.5 -21.5t-73 -57.5t-44 -83t-14.5 -98v-799z" />
<glyph unicode="&#xd6;" horiz-adv-x="825" d="M94 301v801q0 154 81 245t239 91t238.5 -84t80.5 -244v-791q0 -166 -87 -249.5t-234 -83.5t-232.5 79.5t-85.5 235.5zM180 299q0 -104 60.5 -168.5t171.5 -64.5q119 0 176 67.5t57 179.5v805q0 106 -60.5 173t-170.5 67q-59 0 -102.5 -21.5t-73 -57.5t-44 -83t-14.5 -98 v-799zM219 1526v96h86v-96h-86zM518 1526v96h84v-96h-84z" />
<glyph unicode="&#xd7;" horiz-adv-x="778" d="M61 332l275 272l-250 250l51 51l252 -250l268 273l52 -54l-271 -268l260 -260l-51 -53l-260 260l-274 -274z" />
<glyph unicode="&#xd8;" horiz-adv-x="825" d="M74 0l55 131q-35 74 -35 170v801q0 154 81 245t239 91q154 0 239 -86l43 100l58 -27l-60 -135q39 -78 39 -180v-791q0 -166 -87 -249.5t-234 -83.5q-78 0 -139.5 21.5t-102.5 66.5l-43 -101zM180 276.5q0 -10.5 2 -20.5l428 997q-29 49 -78 77t-118 28 q-59 0 -102.5 -21.5t-73 -57.5t-44 -83t-14.5 -98v-799v-22.5zM211 168q29 -47 79 -74.5t122 -27.5q119 0 176 67.5t57 179.5v805q0 12 -1 24.5t-3 22.5z" />
<glyph unicode="&#xd9;" horiz-adv-x="804" d="M82 301v1122h88v-1124q0 -104 60.5 -168.5t170.5 -64.5q117 0 174.5 67.5t57.5 179.5v1110h88v-1104q0 -166 -86 -249.5t-234 -83.5q-147 0 -233 79.5t-86 235.5zM137 1675l68 74l262 -217l-35 -41z" />
<glyph unicode="&#xda;" horiz-adv-x="804" d="M82 301v1122h88v-1124q0 -104 60.5 -168.5t170.5 -64.5q117 0 174.5 67.5t57.5 179.5v1110h88v-1104q0 -166 -86 -249.5t-234 -83.5q-147 0 -233 79.5t-86 235.5zM319 1532l263 215l65 -74l-293 -182z" />
<glyph unicode="&#xdb;" horiz-adv-x="804" d="M82 301v1122h88v-1124q0 -104 60.5 -168.5t170.5 -64.5q117 0 174.5 67.5t57.5 179.5v1110h88v-1104q0 -166 -86 -249.5t-234 -83.5q-147 0 -233 79.5t-86 235.5zM135 1536l236 211h65l226 -207l-39 -35l-224 156l-225 -158z" />
<glyph unicode="&#xdc;" horiz-adv-x="804" d="M82 301v1122h88v-1124q0 -104 60.5 -168.5t170.5 -64.5q117 0 174.5 67.5t57.5 179.5v1110h88v-1104q0 -166 -86 -249.5t-234 -83.5q-147 0 -233 79.5t-86 235.5zM215 1526v96h86v-96h-86zM514 1526v96h84v-96h-84z" />
<glyph unicode="&#xdd;" horiz-adv-x="716" d="M18 1425h91l143 -415l98 -287h6l99 289q35 104 71.5 206.5t71.5 206.5h92l-293 -825v-600h-86v600zM303 1532l262 215l66 -74l-293 -182z" />
<glyph unicode="&#xde;" horiz-adv-x="790" d="M106 2v1423h87v-284h192q106 0 177 -30t111 -82t56 -127t16 -163q0 -92 -17 -168.5t-59 -131t-113 -85t-177 -30.5h-184v-322h-89zM195 403h178q162 0 224 85t62 249q0 70 -12 129.5t-44 102.5t-87 67.5t-139 24.5h-182v-658z" />
<glyph unicode="&#xdf;" horiz-adv-x="729" d="M74 0v1217q0 127 79.5 198.5t198.5 71.5q55 0 105.5 -17.5t88.5 -50.5t59.5 -83t21.5 -113v-123q0 -68 -30 -128.5t-103 -84.5v-6q51 -12 81.5 -38t46 -59.5t19.5 -74.5t4 -84v-338q0 -61 -13.5 -115.5t-42 -95.5t-74.5 -65.5t-114 -24.5h-65v71h33q109 0 147.5 57.5 t38.5 164.5v358q0 41 -11.5 79t-35 66.5t-57 43t-76.5 10.5v82q72 4 117 54t45 122v123q0 37 -9.5 69.5t-32 59t-58.5 42t-89 15.5q-86 0 -136 -54.5t-50 -131.5v-1217h-88z" />
<glyph unicode="&#xe0;" horiz-adv-x="702" d="M49 268q0 57 13.5 113.5t46 102.5t87 75t136.5 29h196v160q0 41 -8 74.5t-28.5 58t-56.5 39t-91 14.5q-59 0 -112.5 -28.5t-69.5 -86.5l-84 29q29 78 96.5 123t173.5 45q129 0 198.5 -58.5t69.5 -207.5v-750h-88v90h-2q-49 -68 -111.5 -85t-121.5 -17q-68 0 -114 23.5 t-74.5 62.5t-42 89t-13.5 105zM137 268q0 -82 42 -140t147 -58q88 0 145 48t57 142v248h-178q-45 0 -84 -12.5t-67.5 -41t-45 -74.5t-16.5 -112zM182 1434l92 34l138 -309l-50 -20z" />
<glyph unicode="&#xe1;" horiz-adv-x="702" d="M49 268q0 57 13.5 113.5t46 102.5t87 75t136.5 29h196v160q0 41 -8 74.5t-28.5 58t-56.5 39t-91 14.5q-59 0 -112.5 -28.5t-69.5 -86.5l-84 29q29 78 96.5 123t173.5 45q129 0 198.5 -58.5t69.5 -207.5v-750h-88v90h-2q-49 -68 -111.5 -85t-121.5 -17q-68 0 -114 23.5 t-74.5 62.5t-42 89t-13.5 105zM137 268q0 -82 42 -140t147 -58q88 0 145 48t57 142v248h-178q-45 0 -84 -12.5t-67.5 -41t-45 -74.5t-16.5 -112zM307 1159l137 309l93 -34l-181 -295z" />
<glyph unicode="&#xe2;" horiz-adv-x="702" d="M49 268q0 57 13.5 113.5t46 102.5t87 75t136.5 29h196v160q0 41 -8 74.5t-28.5 58t-56.5 39t-91 14.5q-59 0 -112.5 -28.5t-69.5 -86.5l-84 29q29 78 96.5 123t173.5 45q129 0 198.5 -58.5t69.5 -207.5v-750h-88v90h-2q-49 -68 -111.5 -85t-121.5 -17q-68 0 -114 23.5 t-74.5 62.5t-42 89t-13.5 105zM90 1161l236 252h63l227 -248l-41 -35l-221 197l-225 -199zM137 268q0 -82 42 -140t147 -58q88 0 145 48t57 142v248h-178q-45 0 -84 -12.5t-67.5 -41t-45 -74.5t-16.5 -112z" />
<glyph unicode="&#xe3;" horiz-adv-x="702" d="M49 268q0 57 13.5 113.5t46 102.5t87 75t136.5 29h196v160q0 41 -8 74.5t-28.5 58t-56.5 39t-91 14.5q-59 0 -112.5 -28.5t-69.5 -86.5l-84 29q29 78 96.5 123t173.5 45q129 0 198.5 -58.5t69.5 -207.5v-750h-88v90h-2q-49 -68 -111.5 -85t-121.5 -17q-68 0 -114 23.5 t-74.5 62.5t-42 89t-13.5 105zM104 1210q25 51 64 84t82 33q31 0 59.5 -12t56 -26.5t56.5 -27t61 -12.5q57 0 105 80l47 -29q-25 -66 -69 -96t-85 -30q-31 0 -60.5 12t-58 26.5t-56 26.5t-54.5 12q-25 0 -50.5 -19.5t-47.5 -51.5zM137 268q0 -82 42 -140t147 -58 q88 0 145 48t57 142v248h-178q-45 0 -84 -12.5t-67.5 -41t-45 -74.5t-16.5 -112z" />
<glyph unicode="&#xe4;" horiz-adv-x="702" d="M49 268q0 57 13.5 113.5t46 102.5t87 75t136.5 29h196v160q0 41 -8 74.5t-28.5 58t-56.5 39t-91 14.5q-59 0 -112.5 -28.5t-69.5 -86.5l-84 29q29 78 96.5 123t173.5 45q129 0 198.5 -58.5t69.5 -207.5v-750h-88v90h-2q-49 -68 -111.5 -85t-121.5 -17q-68 0 -114 23.5 t-74.5 62.5t-42 89t-13.5 105zM137 268q0 -82 42 -140t147 -58q88 0 145 48t57 142v248h-178q-45 0 -84 -12.5t-67.5 -41t-45 -74.5t-16.5 -112zM160 1198v98h86v-98h-86zM459 1198v98h86v-98h-86z" />
<glyph unicode="&#xe5;" horiz-adv-x="702" d="M49 268q0 57 13.5 113.5t46 102.5t87 75t136.5 29h196v160q0 41 -8 74.5t-28.5 58t-56.5 39t-91 14.5q-59 0 -112.5 -28.5t-69.5 -86.5l-84 29q29 78 96.5 123t173.5 45q129 0 198.5 -58.5t69.5 -207.5v-750h-88v90h-2q-49 -68 -111.5 -85t-121.5 -17q-68 0 -114 23.5 t-74.5 62.5t-42 89t-13.5 105zM137 268q0 -82 42 -140t147 -58q88 0 145 48t57 142v248h-178q-45 0 -84 -12.5t-67.5 -41t-45 -74.5t-16.5 -112zM203 1292q0 72 48 120t116 48t115.5 -48t47.5 -120q0 -68 -47.5 -117t-115.5 -49t-116 49.5t-48 116.5zM258 1292 q0 -47 32 -79.5t77 -32.5t76.5 32.5t31.5 79.5t-31.5 80t-76.5 33t-77 -33t-32 -80z" />
<glyph unicode="&#xe6;" horiz-adv-x="1148" d="M49 270q0 57 14.5 113.5t46 101.5t86 74t134.5 29h196v160q0 82 -41 135t-149 53q-68 0 -114 -32t-62 -85l-84 29q29 78 94.5 124t169.5 46q184 0 235 -115q37 57 99.5 86t142.5 29q131 0 205 -70.5t74 -202.5v-237h-478v-52v-89.5t1.5 -86t3.5 -44.5q4 -70 54 -119 t136 -49q90 0 136 53t55 125l86 -19q-12 -113 -85 -177t-194 -64q-88 0 -151.5 33.5t-96.5 95.5q-35 -47 -69.5 -73t-68.5 -38t-64.5 -14t-55.5 -2q-74 0 -123 23.5t-78.5 62.5t-42 90t-12.5 106zM135 270q0 -39 10.5 -75.5t33 -64.5t59 -44t90.5 -16q86 0 142 49t56 141 v250h-178q-90 0 -151.5 -54.5t-61.5 -185.5zM618 586h388v147q0 86 -46.5 143.5t-148.5 57.5q-82 0 -129 -44t-57 -120q-2 -4 -3 -29.5t-2.5 -56.5t-1.5 -58.5v-39.5z" />
<glyph unicode="&#xe7;" horiz-adv-x="673" d="M70 489q0 55 1 110.5t4 105t9 89.5t14 64q27 72 88 115t172 43q129 0 197 -67.5t68 -196.5q-23 -4 -45.5 -7.5t-45.5 -7.5q2 94 -45 146.5t-135 52.5q-55 0 -99 -24.5t-71 -84.5q-16 -39 -20 -133t-4 -217v-26q0 -37 1 -76t3 -76t5 -67.5t9 -49.5q18 -55 61.5 -85.5 t110.5 -30.5q84 0 134 46t50 148l91 -16q-4 -123 -67.5 -185.5t-176.5 -70.5l-29 -117q47 -4 79 -19.5t50.5 -37t25.5 -46t7 -44.5q0 -53 -37 -99.5t-119 -46.5q-31 0 -71.5 5t-81.5 28l20 49q35 -16 64.5 -20.5t54.5 -4.5q43 0 71.5 21.5t28.5 64.5q0 41 -30.5 69t-96.5 28 l-32 24l39 146q-111 6 -165.5 58t-68.5 118q-6 25 -10 63.5t-5 83.5t-2 91.5t-1 86.5z" />
<glyph unicode="&#xe8;" horiz-adv-x="700" d="M68 489q0 55 1 110.5t4 105t9 90.5t14 65q27 72 88 114t172 42q123 0 191.5 -62.5t75.5 -179.5q2 -23 2 -44v-44v-199h-467v-65q0 -66 3 -136.5t15 -105.5q18 -53 59 -83.5t111 -30.5q92 0 136 53t50 131l89 -17q-10 -121 -84 -184t-191 -63q-61 0 -107 15t-77 40 t-49.5 56.5t-26.5 66.5q-6 25 -10 63.5t-5 82.5t-2 91.5t-1 87.5zM158 561h379v125q0 47 -5.5 92t-25 80t-56 55.5t-98.5 20.5q-51 0 -98 -23t-74 -84q-14 -35 -17 -103.5t-5 -162.5zM190 1434l93 34l137 -309l-49 -20z" />
<glyph unicode="&#xe9;" horiz-adv-x="700" d="M68 489q0 55 1 110.5t4 105t9 90.5t14 65q27 72 88 114t172 42q123 0 191.5 -62.5t75.5 -179.5q2 -23 2 -44v-44v-199h-467v-65q0 -66 3 -136.5t15 -105.5q18 -53 59 -83.5t111 -30.5q92 0 136 53t50 131l89 -17q-10 -121 -84 -184t-191 -63q-61 0 -107 15t-77 40 t-49.5 56.5t-26.5 66.5q-6 25 -10 63.5t-5 82.5t-2 91.5t-1 87.5zM158 561h379v125q0 47 -5.5 92t-25 80t-56 55.5t-98.5 20.5q-51 0 -98 -23t-74 -84q-14 -35 -17 -103.5t-5 -162.5zM305 1159l137 309l93 -34l-181 -295z" />
<glyph unicode="&#xea;" horiz-adv-x="700" d="M68 489q0 55 1 110.5t4 105t9 90.5t14 65q27 72 88 114t172 42q123 0 191.5 -62.5t75.5 -179.5q2 -23 2 -44v-44v-199h-467v-65q0 -66 3 -136.5t15 -105.5q18 -53 59 -83.5t111 -30.5q92 0 136 53t50 131l89 -17q-10 -121 -84 -184t-191 -63q-61 0 -107 15t-77 40 t-49.5 56.5t-26.5 66.5q-6 25 -10 63.5t-5 82.5t-2 91.5t-1 87.5zM86 1161l236 252h63l227 -248l-41 -35l-221 197l-225 -199zM158 561h379v125q0 47 -5.5 92t-25 80t-56 55.5t-98.5 20.5q-51 0 -98 -23t-74 -84q-14 -35 -17 -103.5t-5 -162.5z" />
<glyph unicode="&#xeb;" horiz-adv-x="700" d="M68 489q0 55 1 110.5t4 105t9 90.5t14 65q27 72 88 114t172 42q123 0 191.5 -62.5t75.5 -179.5q2 -23 2 -44v-44v-199h-467v-65q0 -66 3 -136.5t15 -105.5q18 -53 59 -83.5t111 -30.5q92 0 136 53t50 131l89 -17q-10 -121 -84 -184t-191 -63q-61 0 -107 15t-77 40 t-49.5 56.5t-26.5 66.5q-6 25 -10 63.5t-5 82.5t-2 91.5t-1 87.5zM154 1198v98h86v-98h-86zM158 561h379v125q0 47 -5.5 92t-25 80t-56 55.5t-98.5 20.5q-51 0 -98 -23t-74 -84q-14 -35 -17 -103.5t-5 -162.5zM453 1198v98h86v-98h-86z" />
<glyph unicode="&#xec;" horiz-adv-x="317" d="M-45 1434l92 34l137 -309l-49 -20zM113 0v1001h88v-1001h-88z" />
<glyph unicode="&#xed;" horiz-adv-x="317" d="M113 0v1001h88v-1001h-88zM125 1159l137 309l92 -34l-180 -295z" />
<glyph unicode="&#xee;" horiz-adv-x="444" d="M-41 1161l236 252h63l227 -248l-41 -35l-221 197l-225 -199zM174 0v1001h88v-1001h-88z" />
<glyph unicode="&#xef;" horiz-adv-x="344" d="M-20 1198v98h86v-98h-86zM129 0v1001h88v-1001h-88zM279 1198v98h86v-98h-86z" />
<glyph unicode="&#xf0;" horiz-adv-x="722" d="M70 485v52q2 90 8 158.5t22 115.5q25 68 88.5 115t165.5 49q18 0 45 -4t55.5 -15.5t56.5 -32t46 -51.5h2q0 29 -1 56.5t-1 56.5q0 61 -9 120.5t-30 106.5q-39 -27 -77 -53t-79 -53l-34 51l161 113q-20 31 -53 59q-37 35 -94 59.5t-127 34.5l10 76q96 -10 164 -39.5 t109 -66.5q18 -16 34.5 -35t28.5 -39l127 88l37 -49l-133 -92q29 -66 39 -151t10 -200l4 -337v-124.5t-2 -91t-5 -69.5t-5 -62q-6 -72 -34 -118.5t-67.5 -75.5t-87 -40t-92.5 -11q-123 0 -182 55t-82 133q-6 20 -9 56t-5 79t-3 89t-1 87zM158 449q0 -98 3 -165t15 -104 q18 -55 62.5 -86t119.5 -31q68 0 116 38t67 104q8 35 11 108.5t3 159.5v148q0 39 -2 74.5t-12 64.5q-16 59 -58.5 97t-122.5 38q-127 0 -180 -119q-6 -18 -10 -38.5t-6 -49.5t-4 -66.5t-2 -91.5v-81z" />
<glyph unicode="&#xf1;" horiz-adv-x="731" d="M86 0v1001h88v-110h4q35 59 93.5 92t127.5 33q70 0 117 -20.5t76 -57.5t41 -86t12 -107v-745h-90v719q0 43 -8 82t-28.5 66.5t-55.5 44t-86 16.5q-49 0 -87 -19.5t-64.5 -51.5t-40 -73t-13.5 -84v-700h-86zM92 1210q25 51 64 84t82 33q31 0 59.5 -12t56 -26.5t56 -27 t61.5 -12.5q57 0 104 80l48 -29q-25 -66 -69 -96t-85 -30q-31 0 -60.5 12t-58 26.5t-56.5 26.5t-54 12q-25 0 -50.5 -19.5t-48.5 -51.5z" />
<glyph unicode="&#xf2;" horiz-adv-x="714" d="M68 401.5v87.5q0 55 1 109.5t4 104t9 89t14 64.5q27 72 90 116t174 44q113 0 172.5 -43t81.5 -109q10 -27 15.5 -70.5t8.5 -96t3 -106.5v-102v-30q0 -53 -1 -108.5t-7 -121.5q-6 -72 -34 -119t-67.5 -74.5t-87 -38.5t-92.5 -11q-123 0 -183 50t-83 128q-6 25 -10 62.5 t-6 82.5t-2 92.5zM158 451q0 -98 3 -166t15 -105q18 -55 62.5 -84.5t119.5 -29.5q68 0 117 36.5t66 102.5q8 35 11 110.5t3 161.5q0 45 -1 96.5t-2 98.5t-5 85t-10 58q-18 61 -67 91t-112 30q-53 0 -102 -21.5t-74 -83.5q-16 -41 -20 -128t-4 -201v-51zM176 1434l92 34 l138 -309l-50 -20z" />
<glyph unicode="&#xf3;" horiz-adv-x="714" d="M68 401.5v87.5q0 55 1 109.5t4 104t9 89t14 64.5q27 72 90 116t174 44q113 0 172.5 -43t81.5 -109q10 -27 15.5 -70.5t8.5 -96t3 -106.5v-102v-30q0 -53 -1 -108.5t-7 -121.5q-6 -72 -34 -119t-67.5 -74.5t-87 -38.5t-92.5 -11q-123 0 -183 50t-83 128q-6 25 -10 62.5 t-6 82.5t-2 92.5zM158 451q0 -98 3 -166t15 -105q18 -55 62.5 -84.5t119.5 -29.5q68 0 117 36.5t66 102.5q8 35 11 110.5t3 161.5q0 45 -1 96.5t-2 98.5t-5 85t-10 58q-18 61 -67 91t-112 30q-53 0 -102 -21.5t-74 -83.5q-16 -41 -20 -128t-4 -201v-51zM299 1159l137 309 l92 -34l-180 -295z" />
<glyph unicode="&#xf4;" horiz-adv-x="714" d="M68 401.5v87.5q0 55 1 109.5t4 104t9 89t14 64.5q27 72 90 116t174 44q113 0 172.5 -43t81.5 -109q10 -27 15.5 -70.5t8.5 -96t3 -106.5v-102v-30q0 -53 -1 -108.5t-7 -121.5q-6 -72 -34 -119t-67.5 -74.5t-87 -38.5t-92.5 -11q-123 0 -183 50t-83 128q-6 25 -10 62.5 t-6 82.5t-2 92.5zM98 1161l236 252h63l228 -248l-41 -35l-222 197l-225 -199zM158 451q0 -98 3 -166t15 -105q18 -55 62.5 -84.5t119.5 -29.5q68 0 117 36.5t66 102.5q8 35 11 110.5t3 161.5q0 45 -1 96.5t-2 98.5t-5 85t-10 58q-18 61 -67 91t-112 30q-53 0 -102 -21.5 t-74 -83.5q-16 -41 -20 -128t-4 -201v-51z" />
<glyph unicode="&#xf5;" horiz-adv-x="714" d="M68 401.5v87.5q0 55 1 109.5t4 104t9 89t14 64.5q27 72 90 116t174 44q113 0 172.5 -43t81.5 -109q10 -27 15.5 -70.5t8.5 -96t3 -106.5v-102v-30q0 -53 -1 -108.5t-7 -121.5q-6 -72 -34 -119t-67.5 -74.5t-87 -38.5t-92.5 -11q-123 0 -183 50t-83 128q-6 25 -10 62.5 t-6 82.5t-2 92.5zM109 1210q25 51 63.5 84t81.5 33q31 0 59.5 -12t56 -26.5t56.5 -27t61 -12.5q57 0 105 80l47 -29q-25 -66 -69 -96t-85 -30q-31 0 -60.5 12t-58 26.5t-56 26.5t-54.5 12q-25 0 -50.5 -19.5t-47.5 -51.5zM158 451q0 -98 3 -166t15 -105q18 -55 62.5 -84.5 t119.5 -29.5q68 0 117 36.5t66 102.5q8 35 11 110.5t3 161.5q0 45 -1 96.5t-2 98.5t-5 85t-10 58q-18 61 -67 91t-112 30q-53 0 -102 -21.5t-74 -83.5q-16 -41 -20 -128t-4 -201v-51z" />
<glyph unicode="&#xf6;" horiz-adv-x="714" d="M68 401.5v87.5q0 55 1 109.5t4 104t9 89t14 64.5q27 72 90 116t174 44q113 0 172.5 -43t81.5 -109q10 -27 15.5 -70.5t8.5 -96t3 -106.5v-102v-30q0 -53 -1 -108.5t-7 -121.5q-6 -72 -34 -119t-67.5 -74.5t-87 -38.5t-92.5 -11q-123 0 -183 50t-83 128q-6 25 -10 62.5 t-6 82.5t-2 92.5zM158 451q0 -98 3 -166t15 -105q18 -55 62.5 -84.5t119.5 -29.5q68 0 117 36.5t66 102.5q8 35 11 110.5t3 161.5q0 45 -1 96.5t-2 98.5t-5 85t-10 58q-18 61 -67 91t-112 30q-53 0 -102 -21.5t-74 -83.5q-16 -41 -20 -128t-4 -201v-51zM164 1198v98h86v-98 h-86zM463 1198v98h86v-98h-86z" />
<glyph unicode="&#xf7;" horiz-adv-x="722" d="M33 563v76h653v-76h-653zM291 289q0 29 21 50t50 21t50.5 -21.5t21.5 -49.5q0 -31 -21.5 -53.5t-50.5 -22.5t-50 22.5t-21 53.5zM291 901q0 29 21.5 50.5t49.5 21.5q29 0 50.5 -21.5t21.5 -50.5q0 -31 -21.5 -52.5t-50.5 -21.5t-50 21.5t-21 52.5z" />
<glyph unicode="&#xf8;" horiz-adv-x="714" d="M68 401.5v87.5q0 55 1 109.5t4 104t9 89t14 64.5q27 72 90 116t174 44q66 0 112 -15.5t79 -42.5l35 70l51 -27l-45 -90q14 -25 22 -47q10 -27 15.5 -70.5t8.5 -96t3 -106.5v-102v-30q0 -53 -1 -108.5t-7 -121.5q-6 -72 -34 -119t-67.5 -74.5t-87 -38.5t-92.5 -11 q-70 0 -118 15t-80 44l-33 -65l-45 24l43 84q-10 16 -19.5 34.5t-13.5 41.5q-6 25 -10 62.5t-6 82.5t-2 92.5zM158 451q0 -90 2 -154t12 -102q84 170 167 337.5t169 337.5q-27 35 -65 50.5t-85 15.5q-53 0 -102 -21.5t-74 -83.5q-16 -41 -20 -128t-4 -201v-51zM199 133 q45 -68 159 -67q68 0 117 36.5t66 102.5q8 35 11 110.5t3 161.5q0 43 -1 92t-2 93.5t-4 82t-9 60.5q-86 -168 -170 -336t-170 -336z" />
<glyph unicode="&#xf9;" horiz-adv-x="733" d="M88 256v748h90v-719q0 -47 8.5 -86t27.5 -67t54 -44t88 -16q47 0 85 19.5t63.5 51t40 72.5t14.5 84v705h88v-1004h-88v113h-6q-35 -59 -92.5 -93t-128.5 -34q-70 0 -117 21.5t-74.5 58t-40 86t-12.5 104.5zM199 1434l92 34l137 -309l-49 -20z" />
<glyph unicode="&#xfa;" horiz-adv-x="733" d="M88 256v748h90v-719q0 -47 8.5 -86t27.5 -67t54 -44t88 -16q47 0 85 19.5t63.5 51t40 72.5t14.5 84v705h88v-1004h-88v113h-6q-35 -59 -92.5 -93t-128.5 -34q-70 0 -117 21.5t-74.5 58t-40 86t-12.5 104.5zM358 1159l138 309l92 -34l-180 -295z" />
<glyph unicode="&#xfb;" horiz-adv-x="733" d="M88 256v748h90v-719q0 -47 8.5 -86t27.5 -67t54 -44t88 -16q47 0 85 19.5t63.5 51t40 72.5t14.5 84v705h88v-1004h-88v113h-6q-35 -59 -92.5 -93t-128.5 -34q-70 0 -117 21.5t-74.5 58t-40 86t-12.5 104.5zM104 1161l236 252h63l228 -248l-41 -35l-221 197l-226 -199z " />
<glyph unicode="&#xfc;" horiz-adv-x="733" d="M88 256v748h90v-719q0 -47 8.5 -86t27.5 -67t54 -44t88 -16q47 0 85 19.5t63.5 51t40 72.5t14.5 84v705h88v-1004h-88v113h-6q-35 -59 -92.5 -93t-128.5 -34q-70 0 -117 21.5t-74.5 58t-40 86t-12.5 104.5zM162 1198v98h86v-98h-86zM461 1198v98h86v-98h-86z" />
<glyph unicode="&#xfd;" horiz-adv-x="645" d="M12 1001h94l107 -430l106 -432h5q29 104 55.5 216t52.5 218l113 428h90l-301 -1124q-16 -66 -37 -121q-23 -70 -73 -116t-134 -46h-31v78h25q66 0 100.5 47.5t55.5 130.5q10 39 19 77t20 77q-68 250 -134.5 498t-132.5 499zM283 1159l137 309l92 -34l-180 -295z" />
<glyph unicode="&#xfe;" horiz-adv-x="714" d="M76 -397v1820h86v-518h4q35 51 85 80t134 29q37 0 78 -10.5t75.5 -37t60.5 -72.5t32 -118q6 -66 6 -126v-118v-28q0 -121 -3 -217.5t-30 -161.5q-25 -59 -78 -99t-155 -40q-45 0 -79 11t-57.5 27.5t-40 37t-28.5 36.5h-4v-495h-86zM162 301q0 -45 12 -87t37 -73.5 t61.5 -51t85.5 -19.5q61 0 108.5 32.5t63.5 96.5q6 20 9.5 56t5.5 80t2 92v95q0 96 -3 171t-14 110q-20 72 -61 99.5t-104 27.5q-92 0 -147.5 -59.5t-55.5 -155.5v-414z" />
<glyph unicode="&#xff;" horiz-adv-x="645" d="M12 1001h94l107 -430l106 -432h5q29 104 55.5 216t52.5 218l113 428h90l-301 -1124q-16 -66 -37 -121q-23 -70 -73 -116t-134 -46h-31v78h25q66 0 100.5 47.5t55.5 130.5q10 39 19 77t20 77q-68 250 -134.5 498t-132.5 499zM133 1198v98h86v-98h-86zM432 1198v98h86v-98 h-86z" />
<glyph unicode="&#x100;" horiz-adv-x="770" d="M20 0l314 1425h100l320 -1425h-88l-82 373h-398l-82 -373h-84zM172 1538v78h424v-78h-424zM201 455h366l-106 491l-74 352h-4l-76 -356z" />
<glyph unicode="&#x101;" horiz-adv-x="702" d="M49 268q0 57 13.5 113.5t46 102.5t87 75t136.5 29h196v160q0 41 -8 74.5t-28.5 58t-56.5 39t-91 14.5q-59 0 -112.5 -28.5t-69.5 -86.5l-84 29q29 78 96.5 123t173.5 45q129 0 198.5 -58.5t69.5 -207.5v-750h-88v90h-2q-49 -68 -111.5 -85t-121.5 -17q-68 0 -114 23.5 t-74.5 62.5t-42 89t-13.5 105zM137 268q0 -82 42 -140t147 -58q88 0 145 48t57 142v248h-178q-45 0 -84 -12.5t-67.5 -41t-45 -74.5t-16.5 -112zM141 1206v80h424v-80h-424z" />
<glyph unicode="&#x102;" horiz-adv-x="770" d="M20 0l314 1425h100l320 -1425h-88l-82 373h-398l-82 -373h-84zM139 1739h74q10 -66 58 -112t112 -46q66 0 114 43t58 115h76q-6 -39 -22.5 -79t-47.5 -74t-75 -55.5t-103 -21.5q-61 0 -105.5 21.5t-74 55.5t-45 74t-19.5 79zM201 455h366l-106 491l-74 352h-4l-76 -356z " />
<glyph unicode="&#x103;" horiz-adv-x="702" d="M49 268q0 57 13.5 113.5t46 102.5t87 75t136.5 29h196v160q0 41 -8 74.5t-28.5 58t-56.5 39t-91 14.5q-59 0 -112.5 -28.5t-69.5 -86.5l-84 29q29 78 96.5 123t173.5 45q129 0 198.5 -58.5t69.5 -207.5v-750h-88v90h-2q-49 -68 -111.5 -85t-121.5 -17q-68 0 -114 23.5 t-74.5 62.5t-42 89t-13.5 105zM115 1370h73q10 -66 58.5 -111t111.5 -45q66 0 114 42t58 114h74q-4 -39 -20.5 -79t-47 -73.5t-74.5 -55t-104 -21.5q-61 0 -105 21.5t-73.5 55t-45 74.5t-19.5 78zM137 268q0 -82 42 -140t147 -58q88 0 145 48t57 142v248h-178 q-45 0 -84 -12.5t-67.5 -41t-45 -74.5t-16.5 -112z" />
<glyph unicode="&#x104;" horiz-adv-x="770" d="M20 0l314 1425h100l320 -1425h-21q-35 -43 -55.5 -92t-20.5 -84q0 -59 26 -83t65 -24q23 0 48 6.5t52 24.5l22 -61q-25 -18 -61.5 -30.5t-71.5 -12.5q-68 0 -108.5 47t-40.5 119q0 39 17.5 89t58.5 103l-80 371h-398l-82 -373h-84zM201 455h366l-106 491l-74 352h-4 l-76 -356z" />
<glyph unicode="&#x105;" horiz-adv-x="702" d="M49 268q0 57 13.5 113.5t46 102.5t87 75t136.5 29h196v160q0 41 -8 74.5t-28.5 58t-56.5 39t-91 14.5q-59 0 -112.5 -28.5t-69.5 -86.5l-84 29q29 78 96.5 123t173.5 45q129 0 198.5 -58.5t69.5 -207.5v-750h-18q-35 -43 -55.5 -92t-20.5 -84q0 -59 25.5 -83t64.5 -24 q23 0 48.5 6.5t52.5 24.5l22 -61q-25 -18 -61.5 -30.5t-71.5 -12.5q-68 0 -108.5 47t-40.5 119q0 39 17 89t58 101v90h-2q-49 -68 -111.5 -85t-121.5 -17q-68 0 -114 23.5t-74.5 62.5t-42 89t-13.5 105zM137 268q0 -82 42 -140t147 -58q88 0 145 48t57 142v248h-178 q-45 0 -84 -12.5t-67.5 -41t-45 -74.5t-16.5 -112z" />
<glyph unicode="&#x106;" horiz-adv-x="784" d="M94 301v799q0 154 77 246t237 92q66 0 123 -18.5t99 -56.5t65.5 -95.5t23.5 -134.5l-88 -19q0 127 -62.5 184.5t-160.5 57.5q-113 0 -169.5 -71t-56.5 -179v-803q0 -104 56.5 -169.5t169.5 -65.5q45 0 84.5 13t70.5 42t49.5 75t18.5 111l88 -16q0 -80 -25.5 -138.5 t-67.5 -96.5t-98.5 -55t-119.5 -17q-147 0 -230.5 78.5t-83.5 236.5zM293 1532l262 215l66 -74l-293 -182z" />
<glyph unicode="&#x107;" horiz-adv-x="673" d="M70 489q0 55 1 110.5t4 105t9 89.5t14 64q27 72 88 115t172 43q129 0 197 -67.5t68 -196.5q-23 -4 -45.5 -7.5t-45.5 -7.5q2 94 -45 146.5t-135 52.5q-55 0 -99 -24.5t-71 -84.5q-16 -39 -20 -133t-4 -217v-26q0 -37 1 -76t3 -76t5 -67.5t9 -49.5q18 -55 61.5 -85.5 t110.5 -30.5q84 0 134 46t50 148l91 -16q-4 -129 -76 -193.5t-199 -64.5q-61 0 -107 15t-77 40t-49.5 56.5t-26.5 66.5q-6 25 -10 63.5t-5 83.5t-2 91.5t-1 86.5zM303 1159l137 309l92 -34l-180 -295z" />
<glyph unicode="&#x108;" horiz-adv-x="784" d="M94 301v799q0 154 77 246t237 92q66 0 123 -18.5t99 -56.5t65.5 -95.5t23.5 -134.5l-88 -19q0 127 -62.5 184.5t-160.5 57.5q-113 0 -169.5 -71t-56.5 -179v-803q0 -104 56.5 -169.5t169.5 -65.5q45 0 84.5 13t70.5 42t49.5 75t18.5 111l88 -16q0 -80 -25.5 -138.5 t-67.5 -96.5t-98.5 -55t-119.5 -17q-147 0 -230.5 78.5t-83.5 236.5zM147 1536l236 211h66l225 -207l-39 -35l-223 156l-226 -158z" />
<glyph unicode="&#x109;" horiz-adv-x="673" d="M70 489q0 55 1 110.5t4 105t9 89.5t14 64q27 72 88 115t172 43q129 0 197 -67.5t68 -196.5q-23 -4 -45.5 -7.5t-45.5 -7.5q2 94 -45 146.5t-135 52.5q-55 0 -99 -24.5t-71 -84.5q-16 -39 -20 -133t-4 -217v-26q0 -37 1 -76t3 -76t5 -67.5t9 -49.5q18 -55 61.5 -85.5 t110.5 -30.5q84 0 134 46t50 148l91 -16q-4 -129 -76 -193.5t-199 -64.5q-61 0 -107 15t-77 40t-49.5 56.5t-26.5 66.5q-6 25 -10 63.5t-5 83.5t-2 91.5t-1 86.5zM94 1161l236 252h63l228 -248l-41 -35l-222 197l-225 -199z" />
<glyph unicode="&#x10a;" horiz-adv-x="784" d="M94 301v799q0 154 77 246t237 92q66 0 123 -18.5t99 -56.5t65.5 -95.5t23.5 -134.5l-88 -19q0 127 -62.5 184.5t-160.5 57.5q-113 0 -169.5 -71t-56.5 -179v-803q0 -104 56.5 -169.5t169.5 -65.5q45 0 84.5 13t70.5 42t49.5 75t18.5 111l88 -16q0 -80 -25.5 -138.5 t-67.5 -96.5t-98.5 -55t-119.5 -17q-147 0 -230.5 78.5t-83.5 236.5zM367 1540v98h84v-98h-84z" />
<glyph unicode="&#x10b;" horiz-adv-x="673" d="M70 489q0 55 1 110.5t4 105t9 89.5t14 64q27 72 88 115t172 43q129 0 197 -67.5t68 -196.5q-23 -4 -45.5 -7.5t-45.5 -7.5q2 94 -45 146.5t-135 52.5q-55 0 -99 -24.5t-71 -84.5q-16 -39 -20 -133t-4 -217v-26q0 -37 1 -76t3 -76t5 -67.5t9 -49.5q18 -55 61.5 -85.5 t110.5 -30.5q84 0 134 46t50 148l91 -16q-4 -129 -76 -193.5t-199 -64.5q-61 0 -107 15t-77 40t-49.5 56.5t-26.5 66.5q-6 25 -10 63.5t-5 83.5t-2 91.5t-1 86.5zM319 1206v99h84v-99h-84z" />
<glyph unicode="&#x10c;" horiz-adv-x="784" d="M94 301v799q0 154 77 246t237 92q66 0 123 -18.5t99 -56.5t65.5 -95.5t23.5 -134.5l-88 -19q0 127 -62.5 184.5t-160.5 57.5q-113 0 -169.5 -71t-56.5 -179v-803q0 -104 56.5 -169.5t169.5 -65.5q45 0 84.5 13t70.5 42t49.5 75t18.5 111l88 -16q0 -80 -25.5 -138.5 t-67.5 -96.5t-98.5 -55t-119.5 -17q-147 0 -230.5 78.5t-83.5 236.5zM145 1714l37 33l226 -158l223 156l39 -35l-226 -205h-65z" />
<glyph unicode="&#x10d;" horiz-adv-x="673" d="M70 489q0 55 1 110.5t4 105t9 89.5t14 64q27 72 88 115t172 43q129 0 197 -67.5t68 -196.5q-23 -4 -45.5 -7.5t-45.5 -7.5q2 94 -45 146.5t-135 52.5q-55 0 -99 -24.5t-71 -84.5q-16 -39 -20 -133t-4 -217v-26q0 -37 1 -76t3 -76t5 -67.5t9 -49.5q18 -55 61.5 -85.5 t110.5 -30.5q84 0 134 46t50 148l91 -16q-4 -129 -76 -193.5t-199 -64.5q-61 0 -107 15t-77 40t-49.5 56.5t-26.5 66.5q-6 25 -10 63.5t-5 83.5t-2 91.5t-1 86.5zM96 1380l39 33l225 -199l224 197l39 -35l-226 -246h-65z" />
<glyph unicode="&#x10e;" horiz-adv-x="827" d="M106 0v1425h308q129 0 202.5 -45t102.5 -149q23 -78 21.5 -208t-1.5 -308v-310.5t-22 -207.5q-18 -61 -51 -99.5t-75 -60t-91 -29.5t-105 -8h-289zM123 1714l37 33l225 -158l223 156l39 -35l-225 -205h-66zM195 82h215q125 0 182 65.5t57 210.5v703q0 61 -10 113.5 t-38 90.5t-75 59.5t-118 21.5h-213v-1264z" />
<glyph unicode="&#x10f;" horiz-adv-x="872" d="M104 467v29q0 117 3.5 212t25.5 154q23 63 77 108.5t161 45.5q82 0 135 -39t69 -76h5v586h88v-1487h-88v94h-5q-35 -51 -85 -78.5t-132 -27.5q-39 0 -78.5 9t-75.5 35.5t-60.5 73t-32.5 117.5q-6 66 -6.5 127.5t-0.5 116.5zM195 477q0 -96 3 -171t13 -109 q20 -72 62.5 -99.5t105.5 -27.5q92 0 146.5 59t54.5 156v413q0 45 -12.5 87t-37 74t-61.5 51.5t-86 19.5q-61 0 -107.5 -33t-62.5 -96q-6 -23 -10 -57.5t-5 -78.5t-2 -92.5t-1 -95.5zM754 1198q10 43 19 87t20 87h-27v115h108v-115l-67 -174h-53z" />
<glyph unicode="&#x110;" horiz-adv-x="827" d="M10 729v68h96v628h308q129 0 202.5 -45t102.5 -149q23 -78 21.5 -208t-1.5 -308v-310.5t-22 -207.5q-18 -61 -51 -99.5t-75 -60t-91 -29.5t-105 -8h-289v729h-96zM195 82h215q125 0 182 65.5t57 210.5v703q0 61 -10 113.5t-38 90.5t-75 59.5t-118 21.5h-213v-549h225v-68 h-225v-647z" />
<glyph unicode="&#x111;" horiz-adv-x="778" d="M104 467v29q0 117 3.5 212t25.5 154q23 63 77 108.5t161 45.5q82 0 135 -39t69 -76h5v301h-242v68h242v217h88v-217h77v-68h-77v-1202h-88v94h-5q-35 -51 -85 -78.5t-132 -27.5q-39 0 -78.5 9t-75.5 35.5t-60.5 73t-32.5 117.5q-6 66 -6.5 127.5t-0.5 116.5zM195 477 q0 -96 3 -171t13 -109q20 -72 62.5 -99.5t105.5 -27.5q92 0 146.5 59t54.5 156v413q0 45 -12.5 87t-37 74t-61.5 51.5t-86 19.5q-61 0 -107.5 -33t-62.5 -96q-6 -23 -10 -57.5t-5 -78.5t-2 -92.5t-1 -95.5z" />
<glyph unicode="&#x112;" horiz-adv-x="727" d="M106 0v1425h582v-82h-493v-571h434v-80h-434v-610h493v-82h-582zM180 1538v78h424v-78h-424z" />
<glyph unicode="&#x113;" horiz-adv-x="700" d="M68 489q0 55 1 110.5t4 105t9 90.5t14 65q27 72 88 114t172 42q123 0 191.5 -62.5t75.5 -179.5q2 -23 2 -44v-44v-199h-467v-65q0 -66 3 -136.5t15 -105.5q18 -53 59 -83.5t111 -30.5q92 0 136 53t50 131l89 -17q-10 -121 -84 -184t-191 -63q-61 0 -107 15t-77 40 t-49.5 56.5t-26.5 66.5q-6 25 -10 63.5t-5 82.5t-2 91.5t-1 87.5zM158 561h379v125q0 47 -5.5 92t-25 80t-56 55.5t-98.5 20.5q-51 0 -98 -23t-74 -84q-14 -35 -17 -103.5t-5 -162.5zM158 1206v80h424v-80h-424z" />
<glyph unicode="&#x114;" horiz-adv-x="727" d="M106 0v1425h582v-82h-493v-571h434v-80h-434v-610h493v-82h-582zM147 1739h74q10 -66 58.5 -112t111.5 -46q66 0 114 43t58 115h76q-6 -39 -22.5 -79t-47 -74t-74.5 -55.5t-104 -21.5q-61 0 -105 21.5t-74 55.5t-45 74t-20 79z" />
<glyph unicode="&#x115;" horiz-adv-x="700" d="M68 489q0 55 1 110.5t4 105t9 90.5t14 65q27 72 88 114t172 42q123 0 191.5 -62.5t75.5 -179.5q2 -23 2 -44v-44v-199h-467v-65q0 -66 3 -136.5t15 -105.5q18 -53 59 -83.5t111 -30.5q92 0 136 53t50 131l89 -17q-10 -121 -84 -184t-191 -63q-61 0 -107 15t-77 40 t-49.5 56.5t-26.5 66.5q-6 25 -10 63.5t-5 82.5t-2 91.5t-1 87.5zM109 1370h73q10 -66 58.5 -111t111.5 -45q66 0 114 42t58 114h74q-4 -39 -20.5 -79t-47 -73.5t-74.5 -55t-104 -21.5q-61 0 -105 21.5t-74 55t-45 74.5t-19 78zM158 561h379v125q0 47 -5.5 92t-25 80 t-56 55.5t-98.5 20.5q-51 0 -98 -23t-74 -84q-14 -35 -17 -103.5t-5 -162.5z" />
<glyph unicode="&#x116;" horiz-adv-x="727" d="M106 0v1425h582v-82h-493v-571h434v-80h-434v-610h493v-82h-582zM354 1554v99h84v-99h-84z" />
<glyph unicode="&#x117;" horiz-adv-x="700" d="M68 489q0 55 1 110.5t4 105t9 90.5t14 65q27 72 88 114t172 42q123 0 191.5 -62.5t75.5 -179.5q2 -23 2 -44v-44v-199h-467v-65q0 -66 3 -136.5t15 -105.5q18 -53 59 -83.5t111 -30.5q92 0 136 53t50 131l89 -17q-10 -121 -84 -184t-191 -63q-61 0 -107 15t-77 40 t-49.5 56.5t-26.5 66.5q-6 25 -10 63.5t-5 82.5t-2 91.5t-1 87.5zM158 561h379v125q0 47 -5.5 92t-25 80t-56 55.5t-98.5 20.5q-51 0 -98 -23t-74 -84q-14 -35 -17 -103.5t-5 -162.5zM326 1206v99h84v-99h-84z" />
<glyph unicode="&#x118;" horiz-adv-x="727" d="M106 0v1425h582v-82h-493v-571h434v-80h-434v-610h493v-82h-2q-35 -43 -55.5 -92t-20.5 -84q0 -59 26 -83t64 -24q23 0 48.5 6.5t52.5 24.5l22 -61q-25 -18 -61.5 -30.5t-71.5 -12.5q-68 0 -108.5 47t-40.5 119q0 37 17 87t56 103h-508z" />
<glyph unicode="&#x119;" horiz-adv-x="700" d="M68 489q0 55 1 110.5t4 105t9 90.5t14 65q27 72 88.5 114t171.5 42q123 0 191.5 -62.5t75.5 -179.5q2 -23 2 -44v-44v-199h-467v-65q0 -66 3 -136.5t15 -105.5q18 -53 59 -83.5t111 -30.5q92 0 136 53t50 131l89 -17q-8 -117 -78 -178q-33 -43 -53.5 -91t-20.5 -83 q0 -59 25.5 -82.5t64.5 -23.5q23 0 48.5 6t51.5 24l23 -61q-25 -18 -61.5 -30.5t-71.5 -12.5q-68 0 -109 47t-41 119q0 27 8.5 60.5t28.5 70.5q-43 -12 -90 -12q-61 0 -107 15t-77 40t-49.5 56.5t-26.5 66.5q-6 25 -10 63.5t-5 82.5t-2 91.5t-1 87.5zM158 561h379v125 q0 47 -5.5 92t-25 80t-56 55.5t-98.5 20.5q-51 0 -98 -23t-74 -84q-14 -35 -17 -103.5t-5 -162.5z" />
<glyph unicode="&#x11a;" horiz-adv-x="727" d="M106 0v1425h582v-82h-493v-571h434v-80h-434v-610h493v-82h-582zM123 1714l37 33l225 -158l223 156l39 -35l-225 -205h-66z" />
<glyph unicode="&#x11b;" horiz-adv-x="700" d="M68 489q0 55 1 110.5t4 105t9 90.5t14 65q27 72 88 114t172 42q123 0 191.5 -62.5t75.5 -179.5q2 -23 2 -44v-44v-199h-467v-65q0 -66 3 -136.5t15 -105.5q18 -53 59 -83.5t111 -30.5q92 0 136 53t50 131l89 -17q-10 -121 -84 -184t-191 -63q-61 0 -107 15t-77 40 t-49.5 56.5t-26.5 66.5q-6 25 -10 63.5t-5 82.5t-2 91.5t-1 87.5zM96 1380l39 33l225 -199l224 197l39 -35l-226 -246h-65zM158 561h379v125q0 47 -5.5 92t-25 80t-56 55.5t-98.5 20.5q-51 0 -98 -23t-74 -84q-14 -35 -17 -103.5t-5 -162.5z" />
<glyph unicode="&#x11c;" horiz-adv-x="808" d="M96 299v719v60.5t2 60.5q6 141 85 220t227 79q133 0 220 -73t89 -230l-88 -21v6q0 123 -62.5 179.5t-160.5 56.5q-113 0 -168.5 -72t-55.5 -178v-805q0 -104 56.5 -168.5t169.5 -64.5q47 0 89 15t74.5 44t51 70t18.5 92v368h-176v80h264v-442q0 -76 -25.5 -133.5 t-70.5 -96t-103.5 -59t-121.5 -20.5q-147 0 -230.5 77.5t-83.5 235.5zM152 1536l235 211h66l225 -207l-39 -35l-223 156l-226 -158z" />
<glyph unicode="&#x11d;" horiz-adv-x="729" d="M72 420v110q0 59 1 120t7 128q6 72 32.5 118t62.5 72.5t77 37t76 10.5q84 0 134 -29t85 -80h4v94h86v-1148q0 -127 -76 -196t-205 -69q-115 0 -187.5 62.5t-76.5 185.5l90 17q0 -86 45 -135.5t135 -49.5t139.5 58.5t49.5 144.5v246h-4q-35 -61 -97.5 -95t-127.5 -34 q-98 0 -148.5 40t-73.5 97q-20 53 -24 133t-4 162zM96 1161l236 252h63l228 -248l-41 -35l-222 197l-225 -199zM162 524q0 -51 1 -103t3 -99.5t6 -85t12 -58.5q18 -55 59.5 -81.5t100.5 -26.5q51 0 90 21.5t64.5 56t39 78.5t13.5 89v402q0 96 -55.5 155.5t-147.5 59.5 q-57 0 -102 -27.5t-68 -99.5q-10 -35 -13 -109.5t-3 -171.5z" />
<glyph unicode="&#x11e;" horiz-adv-x="808" d="M96 299v719v60.5t2 60.5q6 141 85 220t227 79q133 0 220 -73t89 -230l-88 -21v6q0 123 -62.5 179.5t-160.5 56.5q-113 0 -168.5 -72t-55.5 -178v-805q0 -104 56.5 -168.5t169.5 -64.5q47 0 89 15t74.5 44t51 70t18.5 92v368h-176v80h264v-442q0 -76 -25.5 -133.5 t-70.5 -96t-103.5 -59t-121.5 -20.5q-147 0 -230.5 77.5t-83.5 235.5zM166 1739h74q10 -66 58 -112t112 -46q66 0 113.5 43t58.5 115h75q-6 -39 -22.5 -79t-47 -74t-74.5 -55.5t-103 -21.5q-61 0 -105.5 21.5t-74 55.5t-45 74t-19.5 79z" />
<glyph unicode="&#x11f;" horiz-adv-x="729" d="M72 420v110q0 59 1 120t7 128q6 72 32.5 118t62.5 72.5t77 37t76 10.5q84 0 134 -29t85 -80h4v94h86v-1148q0 -127 -76 -196t-205 -69q-115 0 -187.5 62.5t-76.5 185.5l90 17q0 -86 45 -135.5t135 -49.5t139.5 58.5t49.5 144.5v246h-4q-35 -61 -97.5 -95t-127.5 -34 q-98 0 -148.5 40t-73.5 97q-20 53 -24 133t-4 162zM115 1370h73q10 -66 58.5 -111t111.5 -45q66 0 114 42t58 114h74q-4 -39 -20.5 -79t-47 -73.5t-74.5 -55t-104 -21.5q-61 0 -105 21.5t-73.5 55t-45 74.5t-19.5 78zM162 524q0 -51 1 -103t3 -99.5t6 -85t12 -58.5 q18 -55 59.5 -81.5t100.5 -26.5q51 0 90 21.5t64.5 56t39 78.5t13.5 89v402q0 96 -55.5 155.5t-147.5 59.5q-57 0 -102 -27.5t-68 -99.5q-10 -35 -13 -109.5t-3 -171.5z" />
<glyph unicode="&#x120;" horiz-adv-x="808" d="M96 299v719v60.5t2 60.5q6 141 85 220t227 79q133 0 220 -73t89 -230l-88 -21v6q0 123 -62.5 179.5t-160.5 56.5q-113 0 -168.5 -72t-55.5 -178v-805q0 -104 56.5 -168.5t169.5 -64.5q47 0 89 15t74.5 44t51 70t18.5 92v368h-176v80h264v-442q0 -76 -25.5 -133.5 t-70.5 -96t-103.5 -59t-121.5 -20.5q-147 0 -230.5 77.5t-83.5 235.5zM377 1554v99h84v-99h-84z" />
<glyph unicode="&#x121;" horiz-adv-x="729" d="M72 420v110q0 59 1 120t7 128q6 72 32.5 118t62.5 72.5t77 37t76 10.5q84 0 134 -29t85 -80h4v94h86v-1148q0 -127 -76 -196t-205 -69q-115 0 -187.5 62.5t-76.5 185.5l90 17q0 -86 45 -135.5t135 -49.5t139.5 58.5t49.5 144.5v246h-4q-35 -61 -97.5 -95t-127.5 -34 q-98 0 -148.5 40t-73.5 97q-20 53 -24 133t-4 162zM162 524q0 -51 1 -103t3 -99.5t6 -85t12 -58.5q18 -55 59.5 -81.5t100.5 -26.5q51 0 90 21.5t64.5 56t39 78.5t13.5 89v402q0 96 -55.5 155.5t-147.5 59.5q-57 0 -102 -27.5t-68 -99.5q-10 -35 -13 -109.5t-3 -171.5z M324 1206v99h84v-99h-84z" />
<glyph unicode="&#x122;" horiz-adv-x="808" d="M96 299v719v60.5t2 60.5q6 141 85 220t227 79q133 0 220 -73t89 -230l-88 -21v6q0 123 -62.5 179.5t-160.5 56.5q-113 0 -168.5 -72t-55.5 -178v-805q0 -104 56.5 -168.5t169.5 -64.5q47 0 89 15t74.5 44t51 70t18.5 92v368h-176v80h264v-442q0 -76 -25.5 -133.5 t-70.5 -96t-103.5 -59t-121.5 -20.5q-147 0 -230.5 77.5t-83.5 235.5zM346 -414q10 43 19.5 87t19.5 87h-27v115h109v-115l-68 -174h-53z" />
<glyph unicode="&#x123;" horiz-adv-x="729" d="M72 420v110q0 59 1 120t7 128q6 72 32.5 118t62.5 72.5t77 37t76 10.5q84 0 134 -29t85 -80h4v94h86v-1148q0 -127 -76 -196t-205 -69q-115 0 -187.5 62.5t-76.5 185.5l90 17q0 -86 45 -135.5t135 -49.5t139.5 58.5t49.5 144.5v246h-4q-35 -61 -97.5 -95t-127.5 -34 q-98 0 -148.5 40t-73.5 97q-20 53 -24 133t-4 162zM162 524q0 -51 1 -103t3 -99.5t6 -85t12 -58.5q18 -55 59.5 -81.5t100.5 -26.5q51 0 90 21.5t64.5 56t39 78.5t13.5 89v402q0 96 -55.5 155.5t-147.5 59.5q-57 0 -102 -27.5t-68 -99.5q-10 -35 -13 -109.5t-3 -171.5z M330 1153v113l65 174h56l-41 -172h26v-115h-106z" />
<glyph unicode="&#x124;" horiz-adv-x="843" d="M106 0v1425h89v-655h454v655h88v-1425h-88v690h-454v-690h-89zM160 1536l235 211h66l225 -207l-39 -35l-223 156l-225 -158z" />
<glyph unicode="&#x125;" horiz-adv-x="733" d="M-131 1536l235 211h66l225 -207l-39 -35l-223 156l-225 -158zM88 0v1489h88v-598h2q35 59 94.5 92t128.5 33q70 0 117 -20.5t76 -57.5t41 -86t12 -107v-745h-90v719q0 43 -8 82t-29.5 66.5t-56.5 44t-88 16.5q-49 0 -86 -18.5t-62.5 -50.5t-39 -73t-13.5 -84v-702h-86z " />
<glyph unicode="&#x126;" horiz-adv-x="843" d="M18 1153v66h88v206h89v-206h454v206h88v-206h90v-66h-90v-1153h-88v690h-454v-690h-89v1153h-88zM195 770h454v383h-454v-383z" />
<glyph unicode="&#x127;" horiz-adv-x="733" d="M2 1192v65h86v232h88v-232h379v-65h-379v-301h2q35 59 94.5 92t128.5 33q70 0 117 -20.5t76 -57.5t41 -86t12 -107v-745h-90v719q0 43 -8 82t-29.5 66.5t-56.5 44t-88 16.5q-49 0 -86 -18.5t-62.5 -50.5t-39 -73t-13.5 -84v-702h-86v1192h-86z" />
<glyph unicode="&#x128;" horiz-adv-x="356" d="M-84 1530q25 51 63.5 84t81.5 33q31 0 60 -12.5t56.5 -27t56 -26.5t61.5 -12q57 0 104 80l47 -29q-25 -66 -68.5 -96.5t-84.5 -30.5q-31 0 -60.5 12.5t-58.5 26.5t-56.5 26.5t-54.5 12.5q-25 0 -50 -19.5t-48 -52.5zM133 0v1425h90v-1425h-90z" />
<glyph unicode="&#x129;" horiz-adv-x="464" d="M-37 1210q25 51 64 84t82 33q31 0 59.5 -12t56 -26.5t56 -27t61.5 -12.5q57 0 104 80l48 -29q-25 -66 -69 -96t-85 -30q-31 0 -60.5 12t-58 26.5t-56.5 26.5t-54 12q-25 0 -50.5 -19.5t-48.5 -51.5zM180 0v1001h88v-1001h-88z" />
<glyph unicode="&#x12a;" horiz-adv-x="356" d="M-33 1538v78h424v-78h-424zM133 0v1425h90v-1425h-90z" />
<glyph unicode="&#x12b;" horiz-adv-x="382" d="M-20 1206v80h423v-80h-423zM145 0v1001h88v-1001h-88z" />
<glyph unicode="&#x12c;" horiz-adv-x="448" d="M-20 1731h73q10 -66 58.5 -111t111.5 -45q66 0 114 42t58 114h74q-4 -39 -20.5 -79t-47 -74t-74.5 -55.5t-104 -21.5q-61 0 -105 21.5t-74 55.5t-45 75t-19 78zM178 0v1425h90v-1425h-90z" />
<glyph unicode="&#x12d;" horiz-adv-x="448" d="M-20 1382h73q10 -66 58.5 -110.5t111.5 -44.5q66 0 114 42t58 113h74q-4 -39 -20.5 -78.5t-47 -73.5t-74.5 -55.5t-104 -21.5q-61 0 -105 21.5t-74 55.5t-45 75t-19 77zM180 0v1001h88v-1001h-88z" />
<glyph unicode="&#x12e;" horiz-adv-x="356" d="M68 -190q0 37 17 87t56 103h-8v1425h90v-1425h-10q-35 -43 -55.5 -92t-20.5 -84q0 -59 25.5 -83t64.5 -24q23 0 48.5 6.5t52.5 24.5l22 -61q-25 -18 -61.5 -30.5t-71.5 -12.5q-68 0 -108.5 47t-40.5 119z" />
<glyph unicode="&#x12f;" horiz-adv-x="317" d="M47 -190q0 37 17.5 87t56.5 103h-8v1001h88v-1001h-8q-35 -43 -55.5 -92t-20.5 -84q0 -59 25.5 -83t64.5 -24q23 0 48.5 6.5t51.5 24.5l23 -61q-25 -18 -62 -30.5t-71 -12.5q-68 0 -109 47t-41 119zM111 1245v98h92v-98h-92z" />
<glyph unicode="&#x130;" horiz-adv-x="356" d="M133 0v1425h90v-1425h-90zM137 1526v98h84v-98h-84z" />
<glyph unicode="&#x131;" horiz-adv-x="317" d="M113 0v1001h88v-1001h-88z" />
<glyph unicode="&#x132;" horiz-adv-x="978" d="M133 0v1425h90v-1425h-90zM328 53l51 68q31 -25 74 -39t84 -14q39 0 79.5 11t74.5 37.5t55.5 73t21.5 115.5v1120h88v-1118q0 -154 -82 -237.5t-242 -83.5q-53 0 -111.5 14t-92.5 53z" />
<glyph unicode="&#x133;" horiz-adv-x="647" d="M111 1245v98h92v-98h-92zM113 0v1001h88v-1001h-88zM307 -336h15q82 0 105.5 44t23.5 128v1165h86v-1151q0 -59 -8.5 -107t-31 -83t-61.5 -54.5t-102 -19.5h-27v78zM449 1245v98h92v-98h-92z" />
<glyph unicode="&#x134;" horiz-adv-x="657" d="M-12 55l51 68q31 -25 74 -39t84 -14q39 0 79.5 11t74.5 37.5t55.5 73t21.5 115.5v1120h88v-1118q0 -154 -82 -237.5t-241 -83.5q-53 0 -111.5 14t-93.5 53zM211 1540l235 211h66l225 -207l-39 -35l-223 156l-225 -158z" />
<glyph unicode="&#x135;" horiz-adv-x="462" d="M-29 1161q59 61 115.5 124t116.5 126h65l226 -246l-39 -35q-55 47 -110.5 97.5t-113.5 99.5l-223 -199zM47 -340h12q82 0 105.5 44t23.5 128v1169h88v-1120v-57.5t-4 -56.5q-8 -98 -58 -142.5t-144 -44.5h-23v80z" />
<glyph unicode="&#x136;" horiz-adv-x="813" d="M106 0v1425h87v-856h4l452 856h92l-295 -561l357 -864h-96l-316 766l-198 -367v-399h-87zM375 -373q10 43 19 87t20 87h-27v115h109v-115l-68 -174h-53z" />
<glyph unicode="&#x137;" horiz-adv-x="708" d="M86 0v1487h86v-1077h2l371 589h98l-233 -368l288 -631h-98l-246 549l-182 -289v-260h-86zM322 -414q10 43 19 87t19 87h-26v115h108v-115l-67 -174h-53z" />
<glyph unicode="&#x138;" horiz-adv-x="706" d="M86 0v999h86v-589h2l373 589h96l-233 -368l284 -631h-98l-242 549l-182 -289v-260h-86z" />
<glyph unicode="&#x139;" horiz-adv-x="681" d="M109 0v1425h88v-1343h467v-82h-555zM119 1532l262 215l65 -74l-292 -182z" />
<glyph unicode="&#x13a;" horiz-adv-x="344" d="M100 215v1272h86v-1251q0 -78 26 -124t103 -46h25v-80h-31q-102 0 -155.5 49t-53.5 180zM106 1573l263 215l65 -74l-293 -182z" />
<glyph unicode="&#x13b;" horiz-adv-x="681" d="M109 0v1425h88v-1343h467v-82h-555zM313 -414q10 43 19.5 87t19.5 87h-26v115h108v-115l-67 -174h-54z" />
<glyph unicode="&#x13c;" horiz-adv-x="344" d="M100 215v1272h86v-1251q0 -78 26 -124t103 -46h25v-80h-31q-102 0 -155.5 49t-53.5 180zM143 -414q10 43 19.5 87t19.5 87h-26v115h108v-115l-67 -174h-54z" />
<glyph unicode="&#x13d;" horiz-adv-x="681" d="M109 0v1425h88v-1343h467v-82h-555zM416 1137q10 43 19 87t20 87h-27v114h109v-114l-68 -174h-53z" />
<glyph unicode="&#x13e;" horiz-adv-x="444" d="M100 215v1272h86v-1251q0 -78 26 -124t103 -46h25v-80h-31q-102 0 -155.5 49t-53.5 180zM322 1198q10 43 19 87t19 87h-26v115h108v-115l-67 -174h-53z" />
<glyph unicode="&#x13f;" horiz-adv-x="681" d="M109 0v1425h88v-1343h467v-82h-555zM436 657v99h84v-99h-84z" />
<glyph unicode="&#x140;" horiz-adv-x="444" d="M100 215v1272h86v-1251q0 -78 26 -124t103 -46h25v-80h-31q-102 0 -155.5 49t-53.5 180zM342 717v98h84v-98h-84z" />
<glyph unicode="&#x141;" horiz-adv-x="759" d="M0 492l186 116v817h88v-761l234 145l33 -53l-267 -168v-506h469v-82h-557v532l-151 -94z" />
<glyph unicode="&#x142;" horiz-adv-x="503" d="M0 567l190 119v801h86v-746l193 121l35 -53l-228 -143v-430q0 -78 26 -124t104 -46h24v-80h-31q-102 0 -155.5 49t-53.5 180v397l-155 -98z" />
<glyph unicode="&#x143;" horiz-adv-x="882" d="M102 0v1425h82q78 -184 156 -365t156 -366l190 -454h8v1185h86v-1425h-84q-78 182 -154.5 363.5t-154.5 363.5q-49 115 -97 227.5t-95 227.5h-7v-1182h-86zM373 1532l262 215l65 -74l-292 -182z" />
<glyph unicode="&#x144;" horiz-adv-x="731" d="M86 0v1001h88v-110h4q35 59 93.5 92t127.5 33q70 0 117 -20.5t76 -57.5t41 -86t12 -107v-745h-90v719q0 43 -8 82t-28.5 66.5t-55.5 44t-86 16.5q-49 0 -87 -19.5t-64.5 -51.5t-40 -73t-13.5 -84v-700h-86zM274 1159l138 309l92 -34l-180 -295z" />
<glyph unicode="&#x145;" horiz-adv-x="882" d="M102 0v1425h82q78 -184 156 -365t156 -366l190 -454h8v1185h86v-1425h-84q-78 182 -154.5 363.5t-154.5 363.5q-49 115 -97 227.5t-95 227.5h-7v-1182h-86zM377 -346q10 43 19.5 87t19.5 87h-27v115h109v-115l-68 -174h-53z" />
<glyph unicode="&#x146;" horiz-adv-x="731" d="M86 0v1001h88v-110h4q35 59 93.5 92t127.5 33q70 0 117 -20.5t76 -57.5t41 -86t12 -107v-745h-90v719q0 43 -8 82t-28.5 66.5t-55.5 44t-86 16.5q-49 0 -87 -19.5t-64.5 -51.5t-40 -73t-13.5 -84v-700h-86zM299 -414q10 43 19.5 87t19.5 87h-27v115h109v-115l-68 -174 h-53z" />
<glyph unicode="&#x147;" horiz-adv-x="882" d="M102 0v1425h82q78 -184 156 -365t156 -366l190 -454h8v1185h86v-1425h-84q-78 182 -154.5 363.5t-154.5 363.5q-49 115 -97 227.5t-95 227.5h-7v-1182h-86zM184 1714l37 33l225 -158l224 156l39 -35l-226 -205h-65z" />
<glyph unicode="&#x148;" horiz-adv-x="731" d="M86 0v1001h88v-110h4q35 59 93.5 92t127.5 33q70 0 117 -20.5t76 -57.5t41 -86t12 -107v-745h-90v719q0 43 -8 82t-28.5 66.5t-55.5 44t-86 16.5q-49 0 -87 -19.5t-64.5 -51.5t-40 -73t-13.5 -84v-700h-86zM90 1380l39 33l225 -199l224 197l38 -35l-225 -246h-65z" />
<glyph unicode="&#x149;" horiz-adv-x="792" d="M8 1020q10 43 19.5 87t19.5 87h-27v115h109v-115l-68 -174h-53zM147 0v1001h89v-110h4q35 59 93 92t128 33t117 -20.5t75.5 -57.5t41 -86t12.5 -107v-745h-91v719q0 43 -8 82t-28.5 66.5t-55.5 44t-86 16.5q-49 0 -87 -19.5t-64.5 -51.5t-40 -73t-13.5 -84v-700h-86z" />
<glyph unicode="&#x14a;" horiz-adv-x="882" d="M102 0v1425h82q86 -205 173 -406.5t173 -406.5l156 -372h8v1185h86v-1538q0 -111 -43 -156.5t-114 -45.5q-33 0 -56.5 5t-52.5 21l27 64q35 -16 69 -17q45 0 62.5 37t17.5 90v129q-18 39 -57 131.5t-89 210t-105.5 247.5t-104.5 246t-87 206t-52 127h-7v-1182h-86z" />
<glyph unicode="&#x14b;" horiz-adv-x="731" d="M86 0v1001h88v-110h4q35 59 93.5 92t127.5 33q70 0 117 -20.5t76 -57.5t41 -86t12 -107v-858q0 -111 -43 -157.5t-115 -46.5q-33 0 -56 6t-52 20l27 66q35 -16 67 -17q47 0 64.5 37t17.5 90v834q0 43 -8 82t-28.5 66.5t-55.5 44t-86 16.5q-49 0 -87 -19.5t-64.5 -51.5 t-40 -73t-13.5 -84v-700h-86z" />
<glyph unicode="&#x14c;" horiz-adv-x="825" d="M94 301v801q0 154 81 245t239 91t238.5 -84t80.5 -244v-791q0 -166 -87 -249.5t-234 -83.5t-232.5 79.5t-85.5 235.5zM180 299q0 -104 60.5 -168.5t171.5 -64.5q119 0 176 67.5t57 179.5v805q0 106 -60.5 173t-170.5 67q-59 0 -102.5 -21.5t-73 -57.5t-44 -83t-14.5 -98 v-799zM205 1538v78h424v-78h-424z" />
<glyph unicode="&#x14d;" horiz-adv-x="714" d="M68 401.5v87.5q0 55 1 109.5t4 104t9 89t14 64.5q27 72 90 116t174 44q113 0 172.5 -43t81.5 -109q10 -27 15.5 -70.5t8.5 -96t3 -106.5v-102v-30q0 -53 -1 -108.5t-7 -121.5q-6 -72 -34 -119t-67.5 -74.5t-87 -38.5t-92.5 -11q-123 0 -183 50t-83 128q-6 25 -10 62.5 t-6 82.5t-2 92.5zM143 1206v80h424v-80h-424zM158 451q0 -98 3 -166t15 -105q18 -55 62.5 -84.5t119.5 -29.5q68 0 117 36.5t66 102.5q8 35 11 110.5t3 161.5q0 45 -1 96.5t-2 98.5t-5 85t-10 58q-18 61 -67 91t-112 30q-53 0 -102 -21.5t-74 -83.5q-16 -41 -20 -128 t-4 -201v-51z" />
<glyph unicode="&#x14e;" horiz-adv-x="825" d="M94 301v801q0 154 81 245t239 91t238.5 -84t80.5 -244v-791q0 -166 -87 -249.5t-234 -83.5t-232.5 79.5t-85.5 235.5zM170 1739h74q10 -66 58 -112t112 -46q66 0 113.5 43t58.5 115h76q-6 -39 -22.5 -79t-47.5 -74t-75 -55.5t-103 -21.5q-61 0 -105.5 21.5t-74 55.5 t-45 74t-19.5 79zM180 299q0 -104 60.5 -168.5t171.5 -64.5q119 0 176 67.5t57 179.5v805q0 106 -60.5 173t-170.5 67q-59 0 -102.5 -21.5t-73 -57.5t-44 -83t-14.5 -98v-799z" />
<glyph unicode="&#x14f;" horiz-adv-x="714" d="M68 401.5v87.5q0 55 1 109.5t4 104t9 89t14 64.5q27 72 90 116t174 44q113 0 172.5 -43t81.5 -109q10 -27 15.5 -70.5t8.5 -96t3 -106.5v-102v-30q0 -53 -1 -108.5t-7 -121.5q-6 -72 -34 -119t-67.5 -74.5t-87 -38.5t-92.5 -11q-123 0 -183 50t-83 128q-6 25 -10 62.5 t-6 82.5t-2 92.5zM113 1370h73q10 -66 58.5 -111t111.5 -45q66 0 114 42t58 114h74q-4 -39 -20.5 -79t-47 -73.5t-74.5 -55t-104 -21.5q-61 0 -105 21.5t-74 55t-45 74.5t-19 78zM158 451q0 -98 3 -166t15 -105q18 -55 62.5 -84.5t119.5 -29.5q68 0 117 36.5t66 102.5 q8 35 11 110.5t3 161.5q0 45 -1 96.5t-2 98.5t-5 85t-10 58q-18 61 -67 91t-112 30q-53 0 -102 -21.5t-74 -83.5q-16 -41 -20 -128t-4 -201v-51z" />
<glyph unicode="&#x150;" horiz-adv-x="825" d="M94 301v801q0 154 81 245t239 91t238.5 -84t80.5 -244v-791q0 -166 -87 -249.5t-234 -83.5t-232.5 79.5t-85.5 235.5zM180 299q0 -104 60.5 -168.5t171.5 -64.5q119 0 176 67.5t57 179.5v805q0 106 -60.5 173t-170.5 67q-59 0 -102.5 -21.5t-73 -57.5t-44 -83t-14.5 -98 v-799zM242 1532l254 215l67 -74l-287 -182zM467 1532l254 215l67 -74l-286 -182z" />
<glyph unicode="&#x151;" horiz-adv-x="714" d="M68 401.5v87.5q0 55 1 109.5t4 104t9 89t14 64.5q27 72 90 116t174 44q113 0 172.5 -43t81.5 -109q10 -27 15.5 -70.5t8.5 -96t3 -106.5v-102v-30q0 -53 -1 -108.5t-7 -121.5q-6 -72 -34 -119t-67.5 -74.5t-87 -38.5t-92.5 -11q-123 0 -183 50t-83 128q-6 25 -10 62.5 t-6 82.5t-2 92.5zM158 451q0 -98 3 -166t15 -105q18 -55 62.5 -84.5t119.5 -29.5q68 0 117 36.5t66 102.5q8 35 11 110.5t3 161.5q0 45 -1 96.5t-2 98.5t-5 85t-10 58q-18 61 -67 91t-112 30q-53 0 -102 -21.5t-74 -83.5q-16 -41 -20 -128t-4 -201v-51zM227 1159l135 309 l95 -34l-181 -295zM403 1159l136 309l94 -34l-180 -295z" />
<glyph unicode="&#x152;" horiz-adv-x="1177" d="M90 299v803q0 154 82 245t238 91q27 0 49 -1.5t45 -9.5h20.5t18.5 -2h575v-82h-493v-571h434v-82h-434v-610h493v-80h-571q-29 -6 -65 -10t-72 -4q-147 0 -233.5 78.5t-86.5 234.5zM178 297q0 -104 59.5 -167.5t170.5 -63.5q84 0 131 22v1245q-29 14 -59.5 18.5 t-69.5 4.5q-59 0 -102.5 -21.5t-72 -57.5t-43 -83t-14.5 -98v-799z" />
<glyph unicode="&#x153;" horiz-adv-x="1189" d="M70 401.5v87.5q0 55 1 110.5t4 107t8 91.5t13 64q27 72 90.5 113t173.5 41q102 0 158.5 -39t85.5 -94h4q29 59 88.5 96t157.5 37q123 0 191.5 -62.5t74.5 -179.5q2 -23 2 -44v-44v-199h-469q0 -16 1 -32.5t1 -32.5q0 -66 4.5 -136.5t14.5 -105.5q16 -47 57 -80.5 t113 -33.5q94 0 137 54t51 126q23 -6 43.5 -10.5t42.5 -10.5q-12 -111 -83.5 -175t-190.5 -64q-109 0 -164 42t-78 97q-37 -78 -107.5 -108.5t-142.5 -30.5q-123 0 -183 50t-83 128q-6 25 -9 62.5t-5 82.5t-2 92.5zM158 451q0 -98 3 -166t15 -105q18 -55 62.5 -84.5 t119.5 -29.5q68 0 117 36.5t66 102.5q8 35 11 110.5t3 161.5q0 45 -1 96.5t-2 98.5t-5 85t-10 58q-18 61 -67 91t-112 30q-53 0 -102 -21.5t-74 -83.5q-16 -41 -20 -128t-4 -201v-51zM655 561h377v191q0 78 -44 130t-138 52q-51 0 -98 -23t-74 -84q-16 -35 -18.5 -103.5 t-4.5 -162.5z" />
<glyph unicode="&#x154;" horiz-adv-x="813" d="M106 0v1425h277q100 0 170 -25.5t111 -74.5t59 -119.5t18 -161.5q0 -43 -6 -75q-10 -111 -60 -186.5t-155 -108.5q25 -78 54.5 -164t58.5 -174t58.5 -173t53.5 -163h-94l-215 655q-18 -2 -38.5 -2h-41.5h-161v-653h-89zM195 731h176q152 0 217 74t65 239q0 70 -14 126.5 t-47 95.5t-87 59.5t-136 20.5h-174v-615zM281 1532l262 215l65 -74l-293 -182z" />
<glyph unicode="&#x155;" horiz-adv-x="479" d="M113 0v1001h88v-137h4q33 80 88 116t133 36h20.5t20.5 -2v-101q-12 2 -25.5 3.5t-25.5 1.5q-102 0 -158.5 -70t-56.5 -199v-649h-88zM207 1159l137 309l92 -34l-180 -295z" />
<glyph unicode="&#x156;" horiz-adv-x="813" d="M106 0v1425h277q100 0 170 -25.5t111 -74.5t59 -119.5t18 -161.5q0 -43 -6 -75q-10 -111 -60 -186.5t-155 -108.5q25 -78 54.5 -164t58.5 -174t58.5 -173t53.5 -163h-94l-215 655q-18 -2 -38.5 -2h-41.5h-161v-653h-89zM195 731h176q152 0 217 74t65 239q0 70 -14 126.5 t-47 95.5t-87 59.5t-136 20.5h-174v-615zM340 -373q10 43 19.5 87t19.5 87h-27v115h109v-115l-68 -174h-53z" />
<glyph unicode="&#x157;" horiz-adv-x="479" d="M92 -414q10 43 19.5 87t19.5 87h-27v115h109v-115l-68 -174h-53zM113 0v1001h88v-137h4q33 80 88 116t133 36h20.5t20.5 -2v-101q-12 2 -25.5 3.5t-25.5 1.5q-102 0 -158.5 -70t-56.5 -199v-649h-88z" />
<glyph unicode="&#x158;" horiz-adv-x="813" d="M96 1714l37 33l225 -158l224 156l39 -35l-226 -205h-65zM106 0v1425h277q100 0 170 -25.5t111 -74.5t59 -119.5t18 -161.5q0 -43 -6 -75q-10 -111 -60 -186.5t-155 -108.5q25 -78 54.5 -164t58.5 -174t58.5 -173t53.5 -163h-94l-215 655q-18 -2 -38.5 -2h-41.5h-161v-653 h-89zM195 731h176q152 0 217 74t65 239q0 70 -14 126.5t-47 95.5t-87 59.5t-136 20.5h-174v-615z" />
<glyph unicode="&#x159;" horiz-adv-x="479" d="M-27 1380l39 33l226 -199l223 197l39 -35l-226 -246h-65zM113 0v1001h88v-137h4q33 80 88 116t133 36h20.5t20.5 -2v-101q-12 2 -25.5 3.5t-25.5 1.5q-102 0 -158.5 -70t-56.5 -199v-649h-88z" />
<glyph unicode="&#x15a;" horiz-adv-x="774" d="M68 291l90 18q0 -47 12 -91t40 -76.5t72 -52t107 -19.5q76 0 122 24.5t70.5 65.5t32 96t7.5 115q0 72 -7.5 120t-31 83.5t-69.5 65.5t-126 65q-102 45 -163.5 88t-93.5 87t-41 93t-9 108q0 78 18.5 143.5t57.5 112.5t98 74t143 27q92 0 152.5 -27t96.5 -70t50.5 -95 t14.5 -103l-90 -23q0 49 -11.5 91t-38 74t-70.5 50.5t-108 18.5q-70 0 -113.5 -25.5t-68.5 -65.5t-33 -87.5t-8 -92.5q0 -53 10 -93t39 -74.5t82 -67.5t143 -72q92 -39 145.5 -79t80 -86t34 -104t7.5 -134q0 -88 -16.5 -160t-53.5 -122t-98.5 -77.5t-153.5 -27.5 q-86 0 -146.5 23.5t-99.5 64.5t-56 96t-19 121zM279 1532l262 215l65 -74l-293 -182z" />
<glyph unicode="&#x15b;" horiz-adv-x="659" d="M51 242l90 14q0 -86 48.5 -137t134.5 -51q109 0 149.5 51t40.5 143q0 45 -7 77t-27.5 57.5t-57.5 47t-98 43.5q-80 31 -131.5 62t-79 64.5t-37.5 70.5t-10 78q0 113 65.5 184.5t206.5 71.5q129 0 199.5 -66.5t70.5 -191.5l-92 -15q0 92 -48 141.5t-134 49.5 q-53 0 -88 -15.5t-54.5 -40t-27.5 -55t-8 -63.5t8 -59.5t31.5 -50t66.5 -46t111 -47.5q78 -29 123 -59.5t68.5 -66.5t30.5 -78t7 -91q0 -61 -14.5 -112.5t-47 -88t-85 -57t-127.5 -20.5q-131 0 -202 63.5t-75 192.5zM287 1159l137 309l92 -34l-180 -295z" />
<glyph unicode="&#x15c;" horiz-adv-x="774" d="M68 291l90 18q0 -47 12 -91t40 -76.5t72 -52t107 -19.5q76 0 122 24.5t70.5 65.5t32 96t7.5 115q0 72 -7.5 120t-31 83.5t-69.5 65.5t-126 65q-102 45 -163.5 88t-93.5 87t-41 93t-9 108q0 78 18.5 143.5t57.5 112.5t98 74t143 27q92 0 152.5 -27t96.5 -70t50.5 -95 t14.5 -103l-90 -23q0 49 -11.5 91t-38 74t-70.5 50.5t-108 18.5q-70 0 -113.5 -25.5t-68.5 -65.5t-33 -87.5t-8 -92.5q0 -53 10 -93t39 -74.5t82 -67.5t143 -72q92 -39 145.5 -79t80 -86t34 -104t7.5 -134q0 -88 -16.5 -160t-53.5 -122t-98.5 -77.5t-153.5 -27.5 q-86 0 -146.5 23.5t-99.5 64.5t-56 96t-19 121zM131 1536l236 211h65l225 -207l-39 -35l-223 156l-225 -158z" />
<glyph unicode="&#x15d;" horiz-adv-x="659" d="M51 242l90 14q0 -86 48.5 -137t134.5 -51q109 0 149.5 51t40.5 143q0 45 -7 77t-27.5 57.5t-57.5 47t-98 43.5q-80 31 -131.5 62t-79 64.5t-37.5 70.5t-10 78q0 113 65.5 184.5t206.5 71.5q129 0 199.5 -66.5t70.5 -191.5l-92 -15q0 92 -48 141.5t-134 49.5 q-53 0 -88 -15.5t-54.5 -40t-27.5 -55t-8 -63.5t8 -59.5t31.5 -50t66.5 -46t111 -47.5q78 -29 123 -59.5t68.5 -66.5t30.5 -78t7 -91q0 -61 -14.5 -112.5t-47 -88t-85 -57t-127.5 -20.5q-131 0 -202 63.5t-75 192.5zM74 1161l235 252h64l227 -248l-41 -35l-221 197 l-225 -199z" />
<glyph unicode="&#x15e;" horiz-adv-x="774" d="M68 291l90 18q0 -47 12 -91t40 -76.5t72 -52t107 -19.5q76 0 122 24.5t70.5 65.5t32 96t7.5 115q0 72 -7.5 120t-31 83.5t-69.5 65.5t-126 65q-102 45 -163.5 88t-93.5 87t-41 93t-9 108q0 78 18.5 143.5t57.5 112.5t98 74t143 27q92 0 152.5 -27t96.5 -70t50.5 -95 t14.5 -103l-90 -23q0 49 -11.5 91t-38 74t-70.5 50.5t-108 18.5q-70 0 -113.5 -25.5t-68.5 -65.5t-33 -87.5t-8 -92.5q0 -53 10 -93t39 -74.5t82 -67.5t143 -72q92 -39 145.5 -79t80 -86t34 -104t7.5 -134q0 -84 -15.5 -153.5t-50.5 -121t-91 -80t-140 -32.5l-29 -115 q47 -4 79 -19.5t50 -37t25.5 -46t7.5 -44.5q0 -53 -37 -99.5t-119 -46.5q-31 0 -71.5 5t-81.5 28l20 49q35 -16 64.5 -20.5t54.5 -4.5q43 0 71.5 21.5t28.5 64.5q0 41 -30.5 69t-96.5 28l-33 24l39 146q-154 8 -220 93t-68 210z" />
<glyph unicode="&#x15f;" horiz-adv-x="659" d="M51 242l90 14q0 -86 48.5 -137t134.5 -51q109 0 149.5 51t40.5 143q0 45 -7 77t-27.5 57.5t-57.5 47t-98 43.5q-80 31 -131.5 62t-79 64.5t-37.5 70.5t-10 78q0 113 65.5 184.5t206.5 71.5q129 0 199.5 -66.5t70.5 -191.5l-92 -15q0 92 -48 141.5t-134 49.5 q-53 0 -88 -15.5t-54.5 -40t-27.5 -55t-8 -63.5t8 -59.5t31.5 -50t66.5 -46t111 -47.5q78 -29 123 -59.5t68.5 -66.5t30.5 -78t7 -91q0 -117 -54 -191.5t-188 -84.5l-28 -117q47 -4 78.5 -19.5t50 -37t26 -46t7.5 -44.5q0 -53 -37 -99.5t-119 -46.5q-31 0 -72 5t-82 28 l21 49q35 -16 64.5 -20.5t54.5 -4.5q43 0 71.5 21.5t28.5 64.5q0 41 -31 69t-96 28l-33 24l39 144q-121 6 -184.5 69.5t-67.5 186.5z" />
<glyph unicode="&#x160;" horiz-adv-x="774" d="M68 291l90 18q0 -47 12 -91t40 -76.5t72 -52t107 -19.5q76 0 122 24.5t70.5 65.5t32 96t7.5 115q0 72 -7.5 120t-31 83.5t-69.5 65.5t-126 65q-102 45 -163.5 88t-93.5 87t-41 93t-9 108q0 78 18.5 143.5t57.5 112.5t98 74t143 27q92 0 152.5 -27t96.5 -70t50.5 -95 t14.5 -103l-90 -23q0 49 -11.5 91t-38 74t-70.5 50.5t-108 18.5q-70 0 -113.5 -25.5t-68.5 -65.5t-33 -87.5t-8 -92.5q0 -53 10 -93t39 -74.5t82 -67.5t143 -72q92 -39 145.5 -79t80 -86t34 -104t7.5 -134q0 -88 -16.5 -160t-53.5 -122t-98.5 -77.5t-153.5 -27.5 q-86 0 -146.5 23.5t-99.5 64.5t-56 96t-19 121zM119 1714l37 33l225 -158l223 156l39 -35l-225 -205h-66z" />
<glyph unicode="&#x161;" horiz-adv-x="659" d="M51 242l90 14q0 -86 48.5 -137t134.5 -51q109 0 149.5 51t40.5 143q0 45 -7 77t-27.5 57.5t-57.5 47t-98 43.5q-80 31 -131.5 62t-79 64.5t-37.5 70.5t-10 78q0 113 65.5 184.5t206.5 71.5q129 0 199.5 -66.5t70.5 -191.5l-92 -15q0 92 -48 141.5t-134 49.5 q-53 0 -88 -15.5t-54.5 -40t-27.5 -55t-8 -63.5t8 -59.5t31.5 -50t66.5 -46t111 -47.5q78 -29 123 -59.5t68.5 -66.5t30.5 -78t7 -91q0 -61 -14.5 -112.5t-47 -88t-85 -57t-127.5 -20.5q-131 0 -202 63.5t-75 192.5zM80 1380l39 33l225 -199l223 197l39 -35l-225 -246h-66z " />
<glyph unicode="&#x162;" horiz-adv-x="653" d="M10 1346v79h631v-79h-270v-1346h-90v1346h-271zM262 -414q10 43 19.5 87t19.5 87h-27v115h109v-115l-68 -174h-53z" />
<glyph unicode="&#x163;" horiz-adv-x="448" d="M37 930v71h115v275h88v-275h151v-71h-151v-694q0 -76 31.5 -116t107.5 -40h22v-80h-39q-211 0 -210 225v705h-115zM164 -414q10 43 19.5 87t19.5 87h-27v115h109v-115l-68 -174h-53z" />
<glyph unicode="&#x164;" horiz-adv-x="653" d="M10 1346v79h631v-79h-270v-1346h-90v1346h-271zM66 1714l36 33l226 -158l223 156l39 -35l-225 -205h-66z" />
<glyph unicode="&#x165;" horiz-adv-x="532" d="M37 930v71h115v275h88v-275h151v-71h-151v-694q0 -76 31.5 -116t107.5 -40h22v-80h-39q-211 0 -210 225v705h-115zM375 1128q10 43 19 87.5t20 87.5h-27v114h109v-114l-68 -175h-53z" />
<glyph unicode="&#x166;" horiz-adv-x="653" d="M10 1346v79h631v-79h-270v-512h219v-66h-219v-768h-90v768h-211v66h211v512h-271z" />
<glyph unicode="&#x167;" horiz-adv-x="448" d="M37 930v71h115v275h88v-275h151v-71h-151v-193h147v-65h-147v-436q0 -76 31.5 -116t107.5 -40h22v-80h-39q-211 0 -210 225v447h-113v65h113v193h-115z" />
<glyph unicode="&#x168;" horiz-adv-x="804" d="M82 301v1122h88v-1124q0 -104 60.5 -168.5t170.5 -64.5q117 0 174.5 67.5t57.5 179.5v1110h88v-1104q0 -166 -86 -249.5t-234 -83.5q-147 0 -233 79.5t-86 235.5zM150 1559q25 51 63.5 83.5t81.5 32.5q31 0 59.5 -12t56 -26.5t56.5 -27t61 -12.5q57 0 105 80l47 -28 q-25 -66 -69 -96.5t-85 -30.5q-31 0 -60.5 12t-58 26.5t-56 26.5t-54.5 12q-25 0 -50.5 -19t-47.5 -52z" />
<glyph unicode="&#x169;" horiz-adv-x="733" d="M88 256v748h90v-719q0 -47 8.5 -86t27.5 -67t54 -44t88 -16q47 0 85 19.5t63.5 51t40 72.5t14.5 84v705h88v-1004h-88v113h-6q-35 -59 -92.5 -93t-128.5 -34q-70 0 -117 21.5t-74.5 58t-40 86t-12.5 104.5zM115 1210q25 51 63.5 84t81.5 33q31 0 59.5 -12t56 -26.5 t56.5 -27t62 -12.5q57 0 104 80l47 -29q-25 -66 -69 -96t-84 -30q-31 0 -61 12t-58.5 26.5t-56 26.5t-54.5 12q-25 0 -50.5 -19.5t-47.5 -51.5z" />
<glyph unicode="&#x16a;" horiz-adv-x="804" d="M82 301v1122h88v-1124q0 -104 60.5 -168.5t170.5 -64.5q117 0 174.5 67.5t57.5 179.5v1110h88v-1104q0 -166 -86 -249.5t-234 -83.5q-147 0 -233 79.5t-86 235.5zM195 1538v78h423v-78h-423z" />
<glyph unicode="&#x16b;" horiz-adv-x="733" d="M88 256v748h90v-719q0 -47 8.5 -86t27.5 -67t54 -44t88 -16q47 0 85 19.5t63.5 51t40 72.5t14.5 84v705h88v-1004h-88v113h-6q-35 -59 -92.5 -93t-128.5 -34q-70 0 -117 21.5t-74.5 58t-40 86t-12.5 104.5zM160 1206v80h424v-80h-424z" />
<glyph unicode="&#x16c;" horiz-adv-x="804" d="M82 301v1122h88v-1124q0 -104 60.5 -168.5t170.5 -64.5q117 0 174.5 67.5t57.5 179.5v1110h88v-1104q0 -166 -86 -249.5t-234 -83.5q-147 0 -233 79.5t-86 235.5zM158 1739h73q10 -66 58.5 -112t111.5 -46q66 0 114 43t58 115h76q-6 -39 -22.5 -79t-47 -74t-74.5 -55.5 t-104 -21.5q-61 0 -105 21.5t-73.5 55.5t-45 74t-19.5 79z" />
<glyph unicode="&#x16d;" horiz-adv-x="733" d="M88 256v748h90v-719q0 -47 8.5 -86t27.5 -67t54 -44t88 -16q47 0 85 19.5t63.5 51t40 72.5t14.5 84v705h88v-1004h-88v113h-6q-35 -59 -92.5 -93t-128.5 -34q-70 0 -117 21.5t-74.5 58t-40 86t-12.5 104.5zM127 1370h74q10 -66 58 -111t112 -45q66 0 113.5 42t58.5 114 h73q-4 -39 -20 -79t-47 -73.5t-75 -55t-103 -21.5q-61 0 -105.5 21.5t-74 55t-45 74.5t-19.5 78z" />
<glyph unicode="&#x16e;" horiz-adv-x="804" d="M82 301v1122h88v-1124q0 -104 60.5 -168.5t170.5 -64.5q117 0 174.5 67.5t57.5 179.5v1110h88v-1104q0 -166 -86 -249.5t-234 -83.5q-147 0 -233 79.5t-86 235.5zM244 1624q0 72 48 120t116 48t115.5 -48t47.5 -120q0 -68 -47.5 -117t-115.5 -49t-116 49t-48 117z M299 1624q0 -47 31.5 -80t77.5 -33q45 0 76.5 33t31.5 80t-31.5 80t-76.5 33t-77 -33t-32 -80z" />
<glyph unicode="&#x16f;" horiz-adv-x="733" d="M88 256v748h90v-719q0 -47 8.5 -86t27.5 -67t54 -44t88 -16q47 0 85 19.5t63.5 51t40 72.5t14.5 84v705h88v-1004h-88v113h-6q-35 -59 -92.5 -93t-128.5 -34q-70 0 -117 21.5t-74.5 58t-40 86t-12.5 104.5zM213 1292q0 72 48 120t116 48t116 -48t48 -120q0 -68 -48 -117 t-116 -49t-116 49.5t-48 116.5zM268 1292q0 -47 32 -79.5t77 -32.5t76.5 32.5t31.5 79.5t-31.5 80t-76.5 33t-77 -33t-32 -80z" />
<glyph unicode="&#x170;" horiz-adv-x="804" d="M82 301v1122h88v-1124q0 -104 60.5 -168.5t170.5 -64.5q117 0 174.5 67.5t57.5 179.5v1110h88v-1104q0 -166 -86 -249.5t-234 -83.5q-147 0 -233 79.5t-86 235.5zM231 1532l254 215l68 -74l-287 -182zM457 1532l254 215l67 -74l-286 -182z" />
<glyph unicode="&#x171;" horiz-adv-x="733" d="M88 256v748h90v-719q0 -47 8.5 -86t27.5 -67t54 -44t88 -16q47 0 85 19.5t63.5 51t40 72.5t14.5 84v705h88v-1004h-88v113h-6q-35 -59 -92.5 -93t-128.5 -34q-70 0 -117 21.5t-74.5 58t-40 86t-12.5 104.5zM231 1159l136 309l94 -34l-180 -295zM408 1159l135 309l94 -34 l-180 -295z" />
<glyph unicode="&#x172;" horiz-adv-x="804" d="M82 301v1122h88v-1124q0 -104 60.5 -168.5t170.5 -64.5q117 0 174.5 67.5t57.5 179.5v1110h88v-1104q0 -154 -73 -236.5t-199 -94.5q-29 -41 -47.5 -85t-18.5 -79q0 -59 25.5 -83t64.5 -24q23 0 48.5 6.5t51.5 24.5l23 -61q-25 -18 -61.5 -30.5t-71.5 -12.5 q-68 0 -109 47t-41 119q0 35 15.5 82t50.5 96q-137 6 -217 85t-80 228z" />
<glyph unicode="&#x173;" horiz-adv-x="733" d="M88 256v748h90v-719q0 -47 8.5 -86t27.5 -67t54 -44t88 -16q47 0 85 19.5t63.5 51t40 72.5t14.5 84v705h88v-1004h-18q-35 -43 -55.5 -92t-20.5 -84q0 -59 25.5 -83t64.5 -24q23 0 48.5 6.5t51.5 24.5l23 -61q-25 -18 -61.5 -30.5t-71.5 -12.5q-68 0 -109 47t-41 119 q0 39 17.5 89t58.5 101v113h-6q-35 -59 -92.5 -93t-128.5 -34q-70 0 -117 21.5t-74.5 58t-40 86t-12.5 104.5z" />
<glyph unicode="&#x174;" horiz-adv-x="1191" d="M27 1425h88l133 -815l69 -477h7l79 473l152 819h84l149 -827l82 -465h4l68 465l135 827h88l-239 -1425h-105l-155 834l-68 391h-6l-68 -396l-155 -829h-103zM334 1536l235 211h66l225 -207l-39 -35l-223 156l-225 -158z" />
<glyph unicode="&#x175;" horiz-adv-x="1075" d="M20 1001h93q4 -20 19 -86.5t34.5 -155.5t42 -188.5t42 -188.5t34 -155.5t18.5 -87.5h4q6 33 21.5 102.5t35 156.5t41 183.5t40 181.5t31.5 149.5t20 88.5h92l69 -317q29 -135 58.5 -273.5t60.5 -273.5h4q25 109 48.5 222.5t45.5 222.5l95 419h92l-236 -1001h-92l-69 301 q-31 131 -62 268.5t-59 270.5h-6l-189 -840h-92q-59 252 -117.5 501t-118.5 500zM281 1161l235 252h64l227 -248l-41 -35l-221 197l-226 -199z" />
<glyph unicode="&#x176;" horiz-adv-x="716" d="M18 1425h91l143 -415l98 -287h6l99 289q35 104 71.5 206.5t71.5 206.5h92l-293 -825v-600h-86v600zM94 1536l236 211h65l226 -207l-39 -35l-224 156l-225 -158z" />
<glyph unicode="&#x177;" horiz-adv-x="645" d="M12 1001h94l107 -430l106 -432h5q29 104 55.5 216t52.5 218l113 428h90l-301 -1124q-16 -66 -37 -121q-23 -70 -73 -116t-134 -46h-31v78h25q66 0 100.5 47.5t55.5 130.5q10 39 19 77t20 77q-68 250 -134.5 498t-132.5 499zM70 1161l235 252h64l227 -248l-41 -35 l-221 197l-225 -199z" />
<glyph unicode="&#x178;" horiz-adv-x="716" d="M18 1425h91l143 -415l98 -287h6l99 289q35 104 71.5 206.5t71.5 206.5h92l-293 -825v-600h-86v600zM166 1526v96h86v-96h-86zM465 1526v96h84v-96h-84z" />
<glyph unicode="&#x179;" horiz-adv-x="622" d="M25 0v80l479 1266h-441v79h529v-79l-479 -1264h456v-82h-544zM242 1532l262 215l65 -74l-293 -182z" />
<glyph unicode="&#x17a;" horiz-adv-x="575" d="M29 0v80l422 844h-381v75h477v-75l-422 -844h412v-80h-508zM268 1159l138 309l92 -34l-181 -295z" />
<glyph unicode="&#x17b;" horiz-adv-x="622" d="M25 0v80l479 1266h-441v79h529v-79l-479 -1264h456v-82h-544zM297 1554v99h84v-99h-84z" />
<glyph unicode="&#x17c;" horiz-adv-x="575" d="M29 0v80l422 844h-381v75h477v-75l-422 -844h412v-80h-508zM285 1206v99h84v-99h-84z" />
<glyph unicode="&#x17d;" horiz-adv-x="622" d="M25 0v80l479 1266h-441v79h529v-79l-479 -1264h456v-82h-544zM72 1714l37 33l225 -158l223 156l39 -35l-225 -205h-66z" />
<glyph unicode="&#x17e;" horiz-adv-x="575" d="M29 0v80l422 844h-381v75h477v-75l-422 -844h412v-80h-508zM47 1380l39 33l225 -199l224 197l38 -35l-225 -246h-65z" />
<glyph unicode="&#x192;" horiz-adv-x="722" d="M-29 -176l25 74q37 -10 70 -11q84 0 131 65.5t67 231.5l70 570h-158v77h166l31 263q18 156 78.5 248t195.5 92q49 0 98 -17l-20 -78q-18 6 -39.5 10.5t-40.5 4.5q-70 0 -122 -56.5t-68 -205.5l-31 -261h188v-77h-198l-66 -566q-23 -195 -87 -286.5t-189 -91.5 q-23 0 -49.5 3t-51.5 11z" />
<glyph unicode="&#x1a0;" horiz-adv-x="868" d="M94 301v801q0 154 81 245t239 91q207 0 282 -148q68 4 90.5 57.5t22.5 137.5v94h78v-96q0 -129 -39 -191.5t-127 -74.5q12 -49 12 -107v-791q0 -166 -87 -249.5t-234 -83.5t-232.5 79.5t-85.5 235.5zM180 299q0 -104 60.5 -168.5t171.5 -64.5q119 0 176 67.5t57 179.5 v805q0 106 -60.5 173t-170.5 67q-59 0 -102.5 -21.5t-73 -57.5t-44 -83t-14.5 -98v-799z" />
<glyph unicode="&#x1a1;" horiz-adv-x="778" d="M68 401.5v87.5q0 55 1 109.5t4 104t9 89t14 64.5q27 72 90 116t174 44q96 0 152.5 -33t85.5 -82q70 4 92.5 57.5t22.5 139.5v94h78v-98q0 -127 -39 -190.5t-127 -76.5q12 -63 14 -159.5t2 -178.5v-30q0 -53 -1 -108.5t-7 -121.5q-6 -72 -34 -119t-67.5 -74.5t-87 -38.5 t-92.5 -11q-123 0 -183 50t-83 128q-6 25 -10 62.5t-6 82.5t-2 92.5zM158 451q0 -98 3 -166t15 -105q18 -55 62.5 -84.5t119.5 -29.5q68 0 117 36.5t66 102.5q8 35 11 110.5t3 161.5q0 45 -1 96.5t-2 98.5t-5 85t-10 58q-18 61 -67 91t-112 30q-53 0 -102 -21.5t-74 -83.5 q-16 -41 -20 -128t-4 -201v-51z" />
<glyph unicode="&#x1af;" horiz-adv-x="892" d="M82 301v1122h88v-1124q0 -104 60.5 -168.5t170.5 -64.5q117 0 174.5 67.5t57.5 179.5v1110h88v-133q76 0 100.5 53.5t24.5 143.5v92h78v-96q0 -141 -47.5 -203.5t-155.5 -65.5v-895q0 -166 -86 -249.5t-234 -83.5q-147 0 -233 79.5t-86 235.5z" />
<glyph unicode="&#x1b0;" horiz-adv-x="837" d="M88 256v748h90v-719q0 -47 8.5 -86t27.5 -67t54 -44t88 -16q47 0 85 19.5t63.5 51t40 72.5t14.5 84v705h88v-103q78 0 102.5 54.5t24.5 142.5v94h78v-98q0 -141 -47 -204t-158 -65v-825h-88v113h-6q-35 -59 -92.5 -93t-128.5 -34q-70 0 -117 21.5t-74.5 58t-40 86 t-12.5 104.5z" />
<glyph unicode="&#x1fc;" horiz-adv-x="1275" d="M8 0l594 1425h637v-82h-494v-571h435v-80h-435v-610h494v-82h-582v391h-395l-164 -391h-90zM295 473h362v868h-4zM799 1532l262 215l65 -74l-292 -182z" />
<glyph unicode="&#x1fd;" horiz-adv-x="1148" d="M49 270q0 57 14.5 113.5t46 101.5t86 74t134.5 29h196v160q0 82 -41 135t-149 53q-68 0 -114 -32t-62 -85l-84 29q29 78 94.5 124t169.5 46q184 0 235 -115q37 57 99.5 86t142.5 29q131 0 205 -70.5t74 -202.5v-237h-478v-52v-89.5t1.5 -86t3.5 -44.5q4 -70 54 -119 t136 -49q90 0 136 53t55 125l86 -19q-12 -113 -85 -177t-194 -64q-88 0 -151.5 33.5t-96.5 95.5q-35 -47 -69.5 -73t-68.5 -38t-64.5 -14t-55.5 -2q-74 0 -123 23.5t-78.5 62.5t-42 90t-12.5 106zM135 270q0 -39 10.5 -75.5t33 -64.5t59 -44t90.5 -16q86 0 142 49t56 141 v250h-178q-90 0 -151.5 -54.5t-61.5 -185.5zM563 1159l137 309l93 -34l-181 -295zM618 586h388v147q0 86 -46.5 143.5t-148.5 57.5q-82 0 -129 -44t-57 -120q-2 -4 -3 -29.5t-2.5 -56.5t-1.5 -58.5v-39.5z" />
<glyph unicode="&#x1fe;" horiz-adv-x="825" d="M74 0l55 131q-35 74 -35 170v801q0 154 81 245t239 91q154 0 239 -86l43 100l58 -27l-60 -135q39 -78 39 -180v-791q0 -166 -87 -249.5t-234 -83.5q-78 0 -139.5 21.5t-102.5 66.5l-43 -101zM180 276.5q0 -10.5 2 -20.5l428 997q-29 49 -78 77t-118 28 q-59 0 -102.5 -21.5t-73 -57.5t-44 -83t-14.5 -98v-799v-22.5zM211 168q29 -47 79 -74.5t122 -27.5q119 0 176 67.5t57 179.5v805q0 12 -1 24.5t-3 22.5zM340 1532l260 215l68 -74l-293 -182z" />
<glyph unicode="&#x1ff;" horiz-adv-x="714" d="M68 401.5v87.5q0 55 1 109.5t4 104t9 89t14 64.5q27 72 90 116t174 44q66 0 112 -15.5t79 -42.5l35 70q12 -6 24.5 -13t26.5 -14l-45 -90q14 -25 22 -47q10 -27 15.5 -70.5t8.5 -96t3 -106.5v-102v-30q0 -53 -1 -108.5t-7 -121.5q-6 -72 -34 -119t-67.5 -74.5t-87 -38.5 t-92.5 -11q-70 0 -118 15t-80 44l-33 -65l-45 24l43 84q-10 16 -19.5 34.5t-13.5 41.5q-6 25 -10 62.5t-6 82.5t-2 92.5zM158 451q0 -90 2 -154t12 -102q84 170 167 337.5t169 337.5q-27 35 -65 50.5t-85 15.5q-53 0 -102 -21.5t-74 -83.5q-16 -41 -20 -128t-4 -201v-51z M199 133q45 -68 159 -67q68 0 117 36.5t66 102.5q8 35 11 110.5t3 161.5q0 43 -1 92t-2 93.5t-4 82t-9 60.5q-86 -168 -170 -336t-170 -336zM293 1157l137 309q23 -8 46.5 -16t45.5 -18q-45 -72 -89 -147t-91 -146z" />
<glyph unicode="&#x218;" horiz-adv-x="774" d="M68 291l90 18q0 -47 12 -91t40 -76.5t72 -52t107 -19.5q76 0 122 24.5t70.5 65.5t32 96t7.5 115q0 72 -7.5 120t-31 83.5t-69.5 65.5t-126 65q-102 45 -163.5 88t-93.5 87t-41 93t-9 108q0 78 18.5 143.5t57.5 112.5t98 74t143 27q92 0 152.5 -27t96.5 -70t50.5 -95 t14.5 -103l-90 -23q0 49 -11.5 91t-38 74t-70.5 50.5t-108 18.5q-70 0 -113.5 -25.5t-68.5 -65.5t-33 -87.5t-8 -92.5q0 -53 10 -93t39 -74.5t82 -67.5t143 -72q92 -39 145.5 -79t80 -86t34 -104t7.5 -134q0 -88 -16.5 -160t-53.5 -122t-98.5 -77.5t-153.5 -27.5 q-86 0 -146.5 23.5t-99.5 64.5t-56 96t-19 121zM319 -414q10 43 19.5 87t19.5 87h-26v115h108v-115l-67 -174h-54z" />
<glyph unicode="&#x219;" horiz-adv-x="659" d="M51 242l90 14q0 -86 48.5 -137t134.5 -51q109 0 149.5 51t40.5 143q0 45 -7 77t-27.5 57.5t-57.5 47t-98 43.5q-80 31 -131.5 62t-79 64.5t-37.5 70.5t-10 78q0 113 65.5 184.5t206.5 71.5q129 0 199.5 -66.5t70.5 -191.5l-92 -15q0 92 -48 141.5t-134 49.5 q-53 0 -88 -15.5t-54.5 -40t-27.5 -55t-8 -63.5t8 -59.5t31.5 -50t66.5 -46t111 -47.5q78 -29 123 -59.5t68.5 -66.5t30.5 -78t7 -91q0 -61 -14.5 -112.5t-47 -88t-85 -57t-127.5 -20.5q-131 0 -202 63.5t-75 192.5zM270 -414q10 43 19.5 87t19.5 87h-26v115h108v-115 l-67 -174h-54z" />
<glyph unicode="&#x2c6;" horiz-adv-x="702" d="M86 1161l236 252h63l227 -248l-41 -35l-221 197l-225 -199z" />
<glyph unicode="&#x2c7;" horiz-adv-x="700" d="M96 1380l39 33l225 -199l224 197l39 -35l-226 -246h-65z" />
<glyph unicode="&#x2d8;" horiz-adv-x="702" d="M115 1370h73q10 -66 58.5 -111t111.5 -45q66 0 114 42t58 114h74q-4 -39 -20.5 -79t-47 -73.5t-74.5 -55t-104 -21.5q-61 0 -105 21.5t-73.5 55t-45 74.5t-19.5 78z" />
<glyph unicode="&#x2d9;" horiz-adv-x="702" d="M330 1206v99h84v-99h-84z" />
<glyph unicode="&#x2da;" horiz-adv-x="702" d="M203 1292q0 72 48 120t116 48t115.5 -48t47.5 -120q0 -68 -47.5 -117t-115.5 -49t-116 49.5t-48 116.5zM258 1292q0 -47 32 -79.5t77 -32.5t76.5 32.5t31.5 79.5t-31.5 80t-76.5 33t-77 -33t-32 -80z" />
<glyph unicode="&#x2db;" horiz-adv-x="724" d="M498 -190q0 39 19.5 91t60.5 105l63 -4l2 -2q-35 -43 -55.5 -92t-20.5 -84q0 -59 25.5 -83t64.5 -24q23 0 48.5 6.5t52.5 24.5l22 -61q-25 -18 -61.5 -30.5t-71.5 -12.5q-68 0 -108.5 47t-40.5 119z" />
<glyph unicode="&#x2dc;" horiz-adv-x="741" d="M104 1210q25 51 64 84t82 33q31 0 59.5 -12t56 -26.5t56.5 -27t61 -12.5q57 0 105 80l47 -29q-25 -66 -69 -96t-85 -30q-31 0 -60.5 12t-58 26.5t-56 26.5t-54.5 12q-25 0 -50.5 -19.5t-47.5 -51.5z" />
<glyph unicode="&#x2dd;" horiz-adv-x="702" d="M223 1159l135 309l95 -34l-181 -295zM399 1159l136 309l94 -34l-180 -295z" />
<glyph unicode="&#x3a9;" horiz-adv-x="823" d="M72 0v84h114v2q-41 27 -68.5 81t-27.5 163v800q2 72 26.5 128.5t66.5 96.5t99.5 61.5t127.5 21.5q139 0 227 -72t92 -217v-811q0 -35 -4 -73t-14.5 -71.5t-27.5 -62.5t-42 -43v-4h111v-84h-236v96q127 57 127 207v821q0 106 -65.5 169t-167.5 63q-98 0 -165 -64.5 t-67 -169.5v-823q0 -76 35 -128t88 -75v-96h-229z" />
<glyph unicode="&#x3c0;" horiz-adv-x="745" d="M94 0v1001h559v-1001h-88v926h-381v-926h-90z" />
<glyph unicode="&#x401;" horiz-adv-x="727" d="M106 0v1425h582v-82h-493v-571h434v-80h-434v-610h493v-82h-582zM193 1526v96h86v-96h-86zM492 1526v96h83v-96h-83z" />
<glyph unicode="&#x402;" horiz-adv-x="985" d="M37 1346v79h713v-79h-379v-467h4q59 45 119.5 64.5t119.5 19.5q123 0 194 -63.5t75 -205.5q2 -27 2 -53.5v-54.5v-242q0 -29 -1 -56.5t-3 -56.5q-8 -147 -81 -212.5t-202 -67.5v76q115 0 157 68.5t42 178.5v377q0 225 -195 226q-57 0 -117.5 -26t-113.5 -73v-778h-90 v1346h-244z" />
<glyph unicode="&#x403;" horiz-adv-x="716" d="M109 0v1425h569v-82h-481v-1343h-88zM270 1532l262 215l66 -74l-293 -182z" />
<glyph unicode="&#x404;" horiz-adv-x="778" d="M94 301v799q0 154 77 246t237 92q123 0 207.5 -58.5t101.5 -191.5l-88 -25q-10 104 -71.5 148.5t-149.5 44.5q-113 0 -169.5 -71t-56.5 -179v-338h359v-86h-359v-379q0 -104 56.5 -169.5t169.5 -65.5q82 0 146 45t77 151l88 -22q-10 -68 -38 -116t-70 -80t-94 -46 t-109 -14q-147 0 -230.5 78.5t-83.5 236.5z" />
<glyph unicode="&#x405;" horiz-adv-x="774" d="M68 291l90 18q0 -47 12 -91t40 -76.5t72 -52t107 -19.5q76 0 122 24.5t70.5 65.5t32 96t7.5 115q0 72 -7.5 120t-31 83.5t-69.5 65.5t-126 65q-102 45 -163.5 88t-93.5 87t-41 93t-9 108q0 78 18.5 143.5t57.5 112.5t98 74t143 27q92 0 152.5 -27t96.5 -70t50.5 -95 t14.5 -103l-90 -23q0 49 -11.5 91t-38 74t-70.5 50.5t-108 18.5q-70 0 -113.5 -25.5t-68.5 -65.5t-33 -87.5t-8 -92.5q0 -53 10 -93t39 -74.5t82 -67.5t143 -72q92 -39 145.5 -79t80 -86t34 -104t7.5 -134q0 -88 -16.5 -160t-53.5 -122t-98.5 -77.5t-153.5 -27.5 q-86 0 -146.5 23.5t-99.5 64.5t-56 96t-19 121z" />
<glyph unicode="&#x406;" horiz-adv-x="356" d="M133 0v1425h90v-1425h-90z" />
<glyph unicode="&#x407;" horiz-adv-x="356" d="M-14 1565v98h86v-98h-86zM133 0v1425h90v-1425h-90zM285 1565v98h86v-98h-86z" />
<glyph unicode="&#x408;" horiz-adv-x="657" d="M-12 53l51 68q31 -25 74 -39t84 -14q39 0 79.5 11t74.5 37.5t55.5 73t21.5 115.5v1120h88v-1118q0 -154 -82 -237.5t-241 -83.5q-53 0 -111.5 14t-93.5 53z" />
<glyph unicode="&#x409;" horiz-adv-x="1333" d="M4 27q49 35 85 71.5t58.5 102t34 176t11.5 295.5v753h528v-632h184q106 0 177 -29t114 -80t60.5 -123t17.5 -158t-16.5 -159.5t-57.5 -128t-111.5 -85t-177.5 -30.5h-278v1343h-359v-643q0 -188 -11 -312t-36.5 -205t-69.5 -130t-112 -88q-10 16 -20.5 30.5t-20.5 31.5z M721 84h182q84 0 139.5 24.5t87 67.5t44 101.5t12.5 125.5q0 147 -66.5 226.5t-220.5 79.5h-178v-625z" />
<glyph unicode="&#x40a;" horiz-adv-x="1316" d="M106 0v1425h89v-643h421v643h89v-643h184q106 0 177 -27.5t114 -76.5t60 -120t17 -157t-16 -159.5t-57 -128t-112 -84t-177 -29.5h-279v700h-421v-700h-89zM705 84h182q84 0 139 23.5t87 66.5t44 100.5t12 124.5q0 147 -66.5 223t-219.5 76h-178v-614z" />
<glyph unicode="&#x40b;" horiz-adv-x="985" d="M37 1346v79h713v-79h-379v-467h4q59 45 119.5 64.5t119.5 19.5q76 0 127.5 -24t84 -62.5t47 -90t14.5 -106.5v-680h-90v664q0 98 -43 155.5t-152 57.5q-66 0 -125 -28t-106 -71v-778h-90v1346h-244z" />
<glyph unicode="&#x40c;" horiz-adv-x="831" d="M106 0v1425h87v-647h155q37 0 75 9.5t72.5 34t62.5 67.5t44 110l105 426h79l-92 -407q-25 -104 -73 -177t-119 -96q94 -23 139 -96.5t68 -179.5l102 -469h-90l-100 465q-16 72 -41 117t-58 69.5t-71.5 33.5t-79.5 9h-178v-694h-87zM330 1532l262 215l65 -74l-292 -182z " />
<glyph unicode="&#x40e;" horiz-adv-x="782" d="M35 1425h90l276 -936h7l249 936h86l-311 -1138q-27 -96 -54.5 -155.5t-58 -92.5t-66.5 -45t-75 -12h-47v77h41q59 0 98 42t72 151l25 84zM166 1671h74q10 -66 58 -110.5t112 -44.5q66 0 113.5 41.5t58.5 113.5h73q-4 -39 -20.5 -79t-47 -73.5t-74.5 -55t-103 -21.5 q-61 0 -105.5 21.5t-74 55t-45 74.5t-19.5 78z" />
<glyph unicode="&#x40f;" horiz-adv-x="833" d="M106 0v1425h89v-1339h446v1339h88v-1425h-266v-279h-88v279h-269z" />
<glyph unicode="&#x410;" horiz-adv-x="770" d="M20 0l314 1425h100l320 -1425h-88l-82 373h-398l-82 -373h-84zM201 455h366l-106 491l-74 352h-4l-76 -356z" />
<glyph unicode="&#x411;" horiz-adv-x="790" d="M92 0v1425h557v-82h-469v-548h185q106 0 176.5 -29t113.5 -80t60.5 -122.5t17.5 -157.5t-16.5 -161t-57.5 -129.5t-111.5 -85t-178.5 -30.5h-277zM180 86h182q84 0 139.5 24.5t87.5 67.5t44 101.5t12 126.5q0 145 -66.5 225t-220.5 80h-178v-625z" />
<glyph unicode="&#x412;" horiz-adv-x="839" d="M106 0v1425h300q92 0 156.5 -23.5t103.5 -69.5t56 -111.5t17 -149.5q0 -111 -30.5 -192.5t-122.5 -124.5v-4q98 -33 134 -123t36 -213q0 -113 -24.5 -192t-71 -128t-111 -71.5t-146.5 -22.5h-297zM195 82h211q80 0 132 27.5t80.5 73.5t40 107.5t11.5 129.5 q0 141 -56.5 218t-179.5 77h-239v-633zM195 791h229q129 0 179 72.5t50 207.5q0 133 -59 204t-205 71h-194v-555z" />
<glyph unicode="&#x413;" horiz-adv-x="716" d="M109 0v1425h569v-82h-481v-1343h-88z" />
<glyph unicode="&#x414;" horiz-adv-x="937" d="M10 76l68 4q33 39 56.5 84t38.5 108.5t24.5 153.5t13.5 221l22 778h588v-1345h80v-348h-80v268h-729v-268h-82v344zM184 80h549v1263h-418l-20 -684q-6 -203 -26.5 -342t-84.5 -237z" />
<glyph unicode="&#x415;" horiz-adv-x="727" d="M106 0v1425h582v-82h-493v-571h434v-80h-434v-610h493v-82h-582z" />
<glyph unicode="&#x416;" horiz-adv-x="1312" d="M41 0l102 469q23 106 68 180t139 96q-72 23 -120 95.5t-72 177.5l-92 407h79l105 -426q16 -68 44 -110.5t62.5 -67t72.5 -34t75 -9.5h108v647h88v-647h109q37 0 75 9.5t72.5 34t62.5 67.5t44 110l104 426h80l-92 -407q-25 -104 -73 -177t-119 -96q94 -23 139 -96.5 t67 -179.5l103 -469h-90l-101 465q-16 72 -40.5 117t-57.5 69.5t-72 33.5t-80 9h-131v-694h-88v694h-131q-41 0 -80 -9t-71.5 -33.5t-58 -69.5t-40.5 -117l-100 -465h-90z" />
<glyph unicode="&#x417;" horiz-adv-x="765" d="M27 291l86 18q0 -68 18.5 -113.5t49 -75.5t70.5 -42t85 -12q100 0 163.5 62t63.5 208v129q0 123 -45 185.5t-127 62.5h-110v84h73q92 0 151.5 49t59.5 182v82q0 129 -61.5 186.5t-155.5 57.5q-98 0 -164.5 -58.5t-66.5 -181.5q-23 4 -43.5 9t-42.5 12q2 80 29.5 137 t71.5 94t101.5 54.5t118.5 17.5q129 0 210 -72t87 -217q2 -18 2 -37.5v-40.5q0 -37 -3 -85t-17.5 -93t-41 -82t-71.5 -53v-2q47 -18 73.5 -52t40 -74t16.5 -82t3 -79v-166q-4 -84 -30.5 -143.5t-69.5 -98t-98.5 -57t-116.5 -18.5q-59 0 -114.5 16t-98.5 53t-68.5 95.5 t-27.5 140.5z" />
<glyph unicode="&#x418;" horiz-adv-x="847" d="M102 0v1425h86v-1204h9l462 1204h86v-1425h-88v1204h-4l-467 -1204h-84z" />
<glyph unicode="&#x419;" horiz-adv-x="847" d="M102 0v1425h86v-1204h9l462 1204h86v-1425h-88v1204h-4l-467 -1204h-84zM182 1679h74q10 -66 58 -110.5t112 -44.5q66 0 114 42t58 113h74q-4 -39 -20.5 -78.5t-47.5 -73.5t-75 -55.5t-103 -21.5q-61 0 -105.5 21.5t-74 55.5t-45 74.5t-19.5 77.5z" />
<glyph unicode="&#x41a;" horiz-adv-x="831" d="M106 0v1425h87v-647h155q37 0 75 9.5t72.5 34t62.5 67.5t44 110l105 426h79l-92 -407q-25 -104 -73 -177t-119 -96q94 -23 139 -96.5t68 -179.5l102 -469h-90l-100 465q-16 72 -41 117t-58 69.5t-71.5 33.5t-79.5 9h-178v-694h-87z" />
<glyph unicode="&#x41b;" horiz-adv-x="880" d="M4 29q49 35 85 73.5t58.5 106t34 176.5t11.5 287v753h583v-1425h-88v1343h-414v-643q0 -188 -10 -311t-36.5 -205t-70.5 -132t-112 -89z" />
<glyph unicode="&#x41c;" horiz-adv-x="1089" d="M102 0v1425h91q47 -123 91 -242.5t89 -242.5l166 -457h6l170 459q6 14 20.5 52t31.5 86t37.5 103.5t39 103.5t32 86t19.5 52h88v-1425h-86v1178h-6q-37 -104 -76 -206t-78 -206l-166 -434h-61q-41 109 -81 215t-81 213l-149 407h-9v-1167h-88z" />
<glyph unicode="&#x41d;" horiz-adv-x="843" d="M106 0v1425h89v-655h454v655h88v-1425h-88v690h-454v-690h-89z" />
<glyph unicode="&#x41e;" horiz-adv-x="825" d="M94 301v801q0 154 81 245t239 91t238.5 -84t80.5 -244v-791q0 -166 -87 -249.5t-234 -83.5t-232.5 79.5t-85.5 235.5zM180 299q0 -104 60.5 -168.5t171.5 -64.5q119 0 176 67.5t57 179.5v805q0 106 -60.5 173t-170.5 67q-59 0 -102.5 -21.5t-73 -57.5t-44 -83t-14.5 -98 v-799z" />
<glyph unicode="&#x41f;" horiz-adv-x="833" d="M106 0v1425h623v-1425h-88v1341h-446v-1341h-89z" />
<glyph unicode="&#x420;" horiz-adv-x="790" d="M106 2v1423h279q106 0 177 -29.5t111 -81.5t56 -127t16 -163q0 -92 -17 -169t-59 -131t-113 -85t-177 -31h-184v-606h-89zM195 688h178q162 0 224 85t62 249q0 70 -12 129t-44 102t-87 68t-139 25h-182v-658z" />
<glyph unicode="&#x421;" horiz-adv-x="784" d="M94 301v799q0 154 77 246t237 92q66 0 123 -18.5t99 -56.5t65.5 -95.5t23.5 -134.5l-88 -19q0 127 -62.5 184.5t-160.5 57.5q-113 0 -169.5 -71t-56.5 -179v-803q0 -104 56.5 -169.5t169.5 -65.5q45 0 84.5 13t70.5 42t49.5 75t18.5 111l88 -16q0 -80 -25.5 -138.5 t-67.5 -96.5t-98.5 -55t-119.5 -17q-147 0 -230.5 78.5t-83.5 236.5z" />
<glyph unicode="&#x422;" horiz-adv-x="653" d="M10 1346v79h631v-79h-270v-1346h-90v1346h-271z" />
<glyph unicode="&#x423;" horiz-adv-x="782" d="M35 1425h90l276 -936h7l249 936h86l-311 -1138q-27 -96 -54.5 -155.5t-58 -92.5t-66.5 -45t-75 -12h-47v77h41q59 0 98 42t72 151l25 84z" />
<glyph unicode="&#x424;" horiz-adv-x="985" d="M90 463v536q0 80 31 142.5t81 106.5t114.5 67.5t129.5 23.5v86h89v-86q68 -2 132 -25.5t115.5 -66.5t82 -105.5t30.5 -142.5v-536q0 -80 -30.5 -142.5t-81 -107.5t-116 -69.5t-132.5 -28.5v-115h-89v115q-74 4 -138 28.5t-112.5 69.5t-77 107.5t-28.5 142.5zM176 463 q0 -119 76 -189.5t194 -72.5v1052q-55 -4 -104 -21.5t-86 -49t-58.5 -77.5t-21.5 -106v-536zM535 201q121 2 196.5 72.5t75.5 189.5v536q0 59 -21.5 105.5t-58.5 78t-87 49t-105 21.5v-1052z" />
<glyph unicode="&#x425;" horiz-adv-x="710" d="M12 0l295 725l-287 698h97l237 -602l238 602h96l-291 -698l299 -725h-96l-246 623l-248 -623h-94z" />
<glyph unicode="&#x426;" horiz-adv-x="841" d="M106 0v1425h89v-1341h450v1341h90v-1341h72v-350h-80v266h-621z" />
<glyph unicode="&#x427;" horiz-adv-x="784" d="M61 948v477h84v-477q0 -72 14.5 -121t46.5 -79.5t83 -44t123 -13.5q37 0 90 9.5t100 29.5v696h88v-1423h-88v653q-39 -16 -101.5 -27.5t-107.5 -11.5q-168 0 -250 74t-82 258z" />
<glyph unicode="&#x428;" horiz-adv-x="1226" d="M106 0v1425h89v-1339h372v1339h88v-1339h375v1339h90v-1425h-1014z" />
<glyph unicode="&#x429;" horiz-adv-x="1230" d="M106 0v1425h89v-1339h372v1339h88v-1339h375v1339h90v-1339h74v-352h-78v266h-1010z" />
<glyph unicode="&#x42a;" horiz-adv-x="1081" d="M18 1343v82h451v-630h184q106 0 177 -29t114 -80t60.5 -122.5t17.5 -157.5t-16.5 -161t-57.5 -129.5t-111.5 -85t-177.5 -30.5h-278v1343h-363zM469 86h182q84 0 139.5 24.5t87 67.5t44 101.5t12.5 126.5q0 145 -66.5 225t-220.5 80h-178v-625z" />
<glyph unicode="&#x42b;" horiz-adv-x="1062" d="M104 0v1425h89v-632h184q106 0 177 -29t114 -80t60 -123t17 -158t-16 -159.5t-57 -128t-112 -85t-179 -30.5h-277zM193 84h182q84 0 139 24.5t87 67.5t44 101.5t12 125.5q0 147 -66.5 226.5t-219.5 79.5h-178v-625zM860 0v1425h88v-1425h-88z" />
<glyph unicode="&#x42c;" horiz-adv-x="790" d="M90 0v1425h88v-632h184q106 0 177 -29t114 -80t60.5 -123t17.5 -158t-16.5 -159.5t-57.5 -128t-111.5 -85t-176.5 -30.5h-279zM178 84h182q84 0 139.5 24.5t87 67.5t44 101.5t12.5 125.5q0 147 -66.5 226.5t-220.5 79.5h-178v-625z" />
<glyph unicode="&#x42d;" horiz-adv-x="776" d="M39 242l88 22q12 -106 74.5 -152t144.5 -46q125 0 177 74.5t52 203.5v340h-358v86h358v350q0 125 -60 180.5t-159 55.5q-86 0 -152.5 -49.5t-78.5 -149.5l-86 23q8 63 36.5 111t71.5 81t97.5 49.5t115.5 16.5q139 0 221.5 -76t82.5 -254v-766q0 -195 -85 -275.5 t-235 -80.5q-57 0 -109.5 15t-92.5 46t-67.5 79t-35.5 116z" />
<glyph unicode="&#x42e;" horiz-adv-x="1081" d="M106 0v1425h89v-655h176v346q0 154 85 238t224 84q141 0 225 -80t84 -240v-813q0 -84 -24.5 -143.5t-65.5 -99t-98.5 -58t-120.5 -18.5q-66 0 -122 18.5t-97 56t-65.5 94t-24.5 134.5v401h-176v-690h-89zM459 295q0 -104 62.5 -166.5t156.5 -62.5q98 0 160.5 64.5 t62.5 176.5v813q0 106 -61.5 172t-159.5 66q-53 0 -94 -20.5t-70 -54.5t-43 -80t-14 -97v-811z" />
<glyph unicode="&#x42f;" horiz-adv-x="839" d="M31 0l92 442q18 92 55 160t115 100q-111 33 -155 116t-44 216q0 180 85 285.5t286 105.5h266v-1425h-88v670h-190q-39 0 -76 -9.5t-69 -34t-57.5 -69.5t-39.5 -119l-90 -438h-90zM180 1034q0 -156 74 -221t215 -65h174v598h-166q-162 0 -229.5 -85.5t-67.5 -226.5z" />
<glyph unicode="&#x430;" horiz-adv-x="702" d="M49 268q0 57 13.5 113.5t46 102.5t87 75t136.5 29h196v160q0 41 -8 74.5t-28.5 58t-56.5 39t-91 14.5q-59 0 -112.5 -28.5t-69.5 -86.5l-84 29q29 78 96.5 123t173.5 45q129 0 198.5 -58.5t69.5 -207.5v-750h-88v90h-2q-49 -68 -111.5 -85t-121.5 -17q-68 0 -114 23.5 t-74.5 62.5t-42 89t-13.5 105zM137 268q0 -82 42 -140t147 -58q88 0 145 48t57 142v248h-178q-45 0 -84 -12.5t-67.5 -41t-45 -74.5t-16.5 -112z" />
<glyph unicode="&#x431;" horiz-adv-x="727" d="M76 481v246q4 186 20.5 307t63.5 199q29 45 65.5 76.5t81.5 54.5q70 35 134.5 56.5t129.5 52.5l35 -70q-35 -18 -66.5 -29.5t-62.5 -23t-64.5 -24.5t-70.5 -34q-39 -23 -69.5 -52.5t-55.5 -74.5q-31 -53 -39 -142t-12 -183h6q23 43 52.5 70.5t60 42t58 19.5t50.5 5 q104 0 158.5 -47t77.5 -109q8 -23 12 -62.5t6 -86.5t2 -99.5v-99.5v-20q0 -55 -1 -106.5t-7 -117.5q-6 -72 -33.5 -119t-66.5 -74.5t-86 -38.5t-93 -11q-125 0 -185 50t-83 128q-6 25 -10 61.5t-5 79.5t-2 89t-1 87zM164 424q0 -92 4 -150.5t14 -93.5q39 -115 185 -114 q70 0 120 34.5t66 106.5q8 33 10 104.5t2 157.5v85t-1 85t-5 76t-10 57q-16 55 -54 89t-114 34q-61 0 -105.5 -30.5t-70.5 -84.5q-16 -33 -24.5 -73.5t-10.5 -88.5l-6 -157v-37z" />
<glyph unicode="&#x432;" horiz-adv-x="739" d="M92 0v1001h260q164 0 232.5 -66.5t68.5 -189.5q0 -72 -22.5 -128t-85.5 -89q72 -29 97.5 -95t25.5 -138q0 -162 -84 -228.5t-228 -66.5h-264zM180 82h180q68 0 110 17.5t66.5 47t34 68.5t9.5 84q0 92 -46.5 141t-148.5 49h-205v-407zM180 565h195q106 0 148 48.5 t42 134.5t-50 130t-171 44h-164v-357z" />
<glyph unicode="&#x433;" horiz-adv-x="628" d="M92 0v1001h504v-77h-414v-924h-90z" />
<glyph unicode="&#x434;" horiz-adv-x="821" d="M14 78l64 2q27 27 45 59.5t30.5 79.5t18.5 114.5t10 164.5l15 503h522v-921h67v-340h-81v260h-607v-260h-84v338zM184 80h445v844h-348l-17 -441q-4 -147 -21.5 -248.5t-58.5 -154.5z" />
<glyph unicode="&#x435;" horiz-adv-x="700" d="M68 489q0 55 1 110.5t4 105t9 90.5t14 65q27 72 88 114t172 42q123 0 191.5 -62.5t75.5 -179.5q2 -23 2 -44v-44v-199h-467v-65q0 -66 3 -136.5t15 -105.5q18 -53 59 -83.5t111 -30.5q92 0 136 53t50 131l89 -17q-10 -121 -84 -184t-191 -63q-61 0 -107 15t-77 40 t-49.5 56.5t-26.5 66.5q-6 25 -10 63.5t-5 82.5t-2 91.5t-1 87.5zM158 561h379v125q0 47 -5.5 92t-25 80t-56 55.5t-98.5 20.5q-51 0 -98 -23t-74 -84q-14 -35 -17 -103.5t-5 -162.5z" />
<glyph unicode="&#x436;" horiz-adv-x="1128" d="M31 0l84 326q20 74 51 126t102 68q-57 16 -89 66.5t-52 124.5l-76 290h82l82 -305q12 -47 34.5 -75.5t48.5 -45t54.5 -21.5t57.5 -5h110v452h88v-452h111q27 0 56.5 5t55 21.5t48 45t34.5 75.5l82 305h82l-76 -290q-20 -74 -51.5 -124t-89.5 -67q72 -16 102.5 -68.5 t51.5 -125.5l84 -326h-88l-78 313q-27 100 -76 130t-121 30h-127v-473h-88v473h-127q-72 0 -121 -29.5t-75 -130.5l-78 -313h-88z" />
<glyph unicode="&#x437;" horiz-adv-x="655" d="M14 223l86 13q6 -90 60.5 -128t130.5 -38q35 0 69.5 11t62.5 35.5t44 66.5t16 104q0 115 -38.5 158.5t-102.5 43.5h-111v78h119q57 0 95 41t38 144q0 49 -15 82.5t-40 55t-57.5 32t-69.5 10.5q-78 0 -130 -39t-60 -125l-84 18q10 117 89 172.5t185 55.5q55 0 104.5 -12.5 t86 -42t58 -80t21.5 -123.5q0 -33 -4 -67t-15 -64.5t-31.5 -55t-53.5 -39.5v-2q68 -29 86 -92t18 -151q0 -84 -24.5 -140.5t-64.5 -90.5t-91 -49t-102 -15t-99.5 12t-86 40t-61.5 72t-28 109z" />
<glyph unicode="&#x438;" horiz-adv-x="757" d="M86 0v1001h88v-837l408 837h88v-1001h-88v840h-2q-102 -209 -203 -420t-205 -420h-86z" />
<glyph unicode="&#x439;" horiz-adv-x="757" d="M86 0v1001h88v-837l408 837h88v-1001h-88v840h-2q-102 -209 -203 -420t-205 -420h-86zM117 1370h73q10 -66 58.5 -111t111.5 -45q66 0 114 42t58 114h74q-4 -39 -20.5 -79t-47 -73.5t-74.5 -55t-104 -21.5q-61 0 -105 21.5t-73.5 55t-45 74.5t-19.5 78z" />
<glyph unicode="&#x43a;" horiz-adv-x="704" d="M82 0v1001h88v-452h135q27 0 56.5 5t55 21.5t48 45t35.5 75.5l82 305h82l-76 -290q-20 -74 -52 -124t-90 -67q72 -16 103 -68.5t51 -125.5l84 -326h-88l-78 313q-27 100 -76 130t-120 30h-152v-473h-88z" />
<glyph unicode="&#x43b;" horiz-adv-x="747" d="M10 31q45 29 76 63.5t49.5 84.5t26.5 122t8 176v524h496v-1001h-91v924h-323v-461q0 -100 -9.5 -179t-33 -140.5t-62 -105.5t-96.5 -75z" />
<glyph unicode="&#x43c;" horiz-adv-x="954" d="M92 0v1001h86l297 -643h2l299 643h86v-1001h-88v793h-8q-37 -80 -73 -156t-70 -156l-119 -252h-62q-29 63 -57.5 125t-56.5 123l-146 320l-2 -2v-795h-88z" />
<glyph unicode="&#x43d;" horiz-adv-x="737" d="M92 0v1001h90v-446h375v446h92v-1001h-92v475h-375v-475h-90z" />
<glyph unicode="&#x43e;" horiz-adv-x="714" d="M68 401.5v87.5q0 55 1 109.5t4 104t9 89t14 64.5q27 72 90 116t174 44q113 0 172.5 -43t81.5 -109q10 -27 15.5 -70.5t8.5 -96t3 -106.5v-102v-30q0 -53 -1 -108.5t-7 -121.5q-6 -72 -34 -119t-67.5 -74.5t-87 -38.5t-92.5 -11q-123 0 -183 50t-83 128q-6 25 -10 62.5 t-6 82.5t-2 92.5zM158 451q0 -98 3 -166t15 -105q18 -55 62.5 -84.5t119.5 -29.5q68 0 117 36.5t66 102.5q8 35 11 110.5t3 161.5q0 45 -1 96.5t-2 98.5t-5 85t-10 58q-18 61 -67 91t-112 30q-53 0 -102 -21.5t-74 -83.5q-16 -41 -20 -128t-4 -201v-51z" />
<glyph unicode="&#x43f;" horiz-adv-x="745" d="M94 0v1001h559v-1001h-88v926h-381v-926h-90z" />
<glyph unicode="&#x440;" horiz-adv-x="714" d="M76 -397v1396h86v-94h4q35 51 85 80t134 29q37 0 78 -10.5t75.5 -37t60.5 -72.5t32 -118q6 -66 7 -126t1 -118v-28q0 -117 -4 -209t-27 -158q-23 -63 -77 -107t-160 -44q-82 0 -135.5 37.5t-69.5 74.5h-4v-495h-86zM162 301q0 -45 12 -87t37 -73.5t61.5 -51t85.5 -19.5 q61 0 108.5 32.5t63.5 96.5q6 20 9.5 56t5.5 80t2 92v95q0 96 -3 171t-14 110q-20 72 -61 99.5t-104 27.5q-92 0 -147.5 -59.5t-55.5 -155.5v-414z" />
<glyph unicode="&#x441;" horiz-adv-x="673" d="M70 489q0 55 1 110.5t4 105t9 89.5t14 64q27 72 88 115t172 43q129 0 197 -67.5t68 -196.5q-23 -4 -45.5 -7.5t-45.5 -7.5q2 94 -45 146.5t-135 52.5q-55 0 -99 -24.5t-71 -84.5q-16 -39 -20 -133t-4 -217v-26q0 -37 1 -76t3 -76t5 -67.5t9 -49.5q18 -55 61.5 -85.5 t110.5 -30.5q84 0 134 46t50 148l91 -16q-4 -129 -76 -193.5t-199 -64.5q-61 0 -107 15t-77 40t-49.5 56.5t-26.5 66.5q-6 25 -10 63.5t-5 83.5t-2 91.5t-1 86.5z" />
<glyph unicode="&#x442;" horiz-adv-x="571" d="M8 924v77h555v-77h-235v-924h-86v924h-234z" />
<glyph unicode="&#x443;" horiz-adv-x="645" d="M12 1001h94l107 -430l106 -432h5q29 104 55.5 216t52.5 218l113 428h90l-301 -1124q-16 -66 -37 -121q-23 -70 -73 -116t-134 -46h-31v78h25q66 0 100.5 47.5t55.5 130.5q10 39 19 77t20 77q-68 250 -134.5 498t-132.5 499z" />
<glyph unicode="&#x444;" horiz-adv-x="892" d="M72 444q0 86 2 166t10 154q10 111 92 180.5t225 73.5v399h86v-399q147 -4 230.5 -75t93.5 -187q6 -72 6 -151v-161v-151q-4 -154 -88 -231.5t-242 -86.5v-378h-86v378q-154 10 -240.5 90t-86.5 232q0 37 -1 74t-1 73zM160 283q2 -35 8 -65t18 -52q27 -49 80 -78t135 -33 v879q-80 -4 -133 -35t-82 -80q-25 -43 -24 -98q-2 -68 -2 -141.5v-147.5v-149zM487 55q78 0 132.5 32t82.5 79q16 29 22.5 62.5t6.5 70.5v418q0 29 -8 55.5t-21 48.5q-27 51 -79 80t-136 33v-879z" />
<glyph unicode="&#x445;" horiz-adv-x="604" d="M12 0l238 514l-223 487h98l178 -411l180 411h101l-228 -487l238 -514h-98l-193 434l-194 -434h-97z" />
<glyph unicode="&#x446;" horiz-adv-x="745" d="M92 0v1001h90v-917h375v917h92v-917h66v-344h-80v260h-543z" />
<glyph unicode="&#x447;" horiz-adv-x="696" d="M51 629v372h90v-346q0 -45 5.5 -79.5t23.5 -59t51 -38t88 -13.5q53 0 112.5 21.5t100.5 56.5v458h88v-1001h-88v457q-51 -37 -114.5 -55.5t-116.5 -18.5q-70 0 -116 18.5t-73.5 50t-39 76.5t-11.5 101z" />
<glyph unicode="&#x448;" horiz-adv-x="1112" d="M94 0v1001h88v-917h326v917h90v-917h330v917h90v-1001h-924z" />
<glyph unicode="&#x449;" horiz-adv-x="1126" d="M94 0v1001h88v-917h326v917h90v-917h328v917h90v-917h67v-344h-77v260h-912z" />
<glyph unicode="&#x44a;" horiz-adv-x="946" d="M18 924v77h400v-428h151q94 0 156.5 -21.5t99.5 -58t52.5 -87t15.5 -107.5q0 -61 -14.5 -115.5t-50 -95.5t-98 -64.5t-157.5 -23.5h-243v924h-312zM418 84h149q70 0 116 17.5t73.5 46t38 66.5t10.5 81q0 94 -56.5 144t-185.5 50h-145v-405z" />
<glyph unicode="&#x44b;" horiz-adv-x="931" d="M92 0v1001h86v-428h154q94 0 155.5 -21.5t98.5 -58t52 -87t15 -107.5q0 -61 -14 -115.5t-49 -95.5t-97.5 -64.5t-156.5 -23.5h-244zM178 84h150q70 0 115.5 17.5t73.5 46t38 66.5t10 81q0 94 -56 144t-183 50h-148v-405zM745 0v1001h91v-1001h-91z" />
<glyph unicode="&#x44c;" horiz-adv-x="692" d="M80 0v1001h88v-428h151q94 0 157 -21.5t99.5 -58t52 -87t15.5 -107.5q0 -61 -14.5 -115.5t-50 -95.5t-97 -64.5t-155.5 -23.5h-246zM168 84h149q70 0 116 17.5t74 46t38 66.5t10 81q0 94 -56.5 144t-183.5 50h-147v-405z" />
<glyph unicode="&#x44d;" horiz-adv-x="675" d="M41 207q23 4 45.5 8t44.5 8q10 -78 56 -117.5t124 -39.5t120 30.5t58 85.5q10 33 12.5 97.5t2.5 189.5h-309v82h307q-2 98 -3 171t-16 105q-25 61 -68.5 85t-101.5 24q-72 0 -122 -42t-56 -120l-92 19q12 98 88 160.5t186 62.5q111 0 168.5 -41t83.5 -113 q8 -25 13.5 -64.5t7.5 -90t2 -106.5v-112v-87t-2 -91t-5 -84t-10 -63q-10 -35 -27.5 -66.5t-48 -56.5t-75.5 -40t-111 -15q-119 0 -189.5 55t-82.5 166z" />
<glyph unicode="&#x44e;" horiz-adv-x="944" d="M84 0v1001h88v-448h145q0 47 1 93t4.5 87t7.5 74t12 53q25 72 86 113t168 41q109 0 162 -39t78 -98q14 -37 20 -82t8 -93.5t2 -95.5t2 -88v-55q0 -55 -2 -112.5t-8 -121.5q-6 -72 -32.5 -119t-63.5 -74.5t-82 -38.5t-90 -11q-123 0 -180.5 50t-77.5 128q-6 20 -8 56 t-4.5 79t-2.5 88v86h-145v-473h-88zM403 451q2 -98 4.5 -166t12.5 -105q18 -55 59 -84.5t115 -29.5q63 0 108.5 34.5t65.5 102.5q8 35 10 111.5t2 162.5q0 45 -1 96.5t-2 97.5t-5 84t-10 58q-16 61 -60.5 91t-107.5 30q-51 0 -97 -21.5t-71 -83.5q-16 -39 -18 -126t-5 -201 v-51z" />
<glyph unicode="&#x44f;" horiz-adv-x="735" d="M51 0l74 315q12 59 38.5 107.5t80.5 69.5q-166 49 -166 229q0 61 16.5 112.5t53 88t97 58t150.5 21.5h244v-1001h-88v463h-162q-68 0 -114 -31t-68 -129l-68 -303h-88zM168 717q0 -96 57.5 -136t171.5 -40h154v383h-152q-66 0 -110.5 -15.5t-71.5 -43t-38 -65.5t-11 -83z " />
<glyph unicode="&#x451;" horiz-adv-x="700" d="M68 489q0 55 1 110.5t4 105t9 90.5t14 65q27 72 88 114t172 42q123 0 191.5 -62.5t75.5 -179.5q2 -23 2 -44v-44v-199h-467v-65q0 -66 3 -136.5t15 -105.5q18 -53 59 -83.5t111 -30.5q92 0 136 53t50 131l89 -17q-10 -121 -84 -184t-191 -63q-61 0 -107 15t-77 40 t-49.5 56.5t-26.5 66.5q-6 25 -10 63.5t-5 82.5t-2 91.5t-1 87.5zM158 561h379v125q0 47 -5.5 92t-25 80t-56 55.5t-98.5 20.5q-51 0 -98 -23t-74 -84q-14 -35 -17 -103.5t-5 -162.5zM162 1212v99h86v-99h-86zM461 1212v99h86v-99h-86z" />
<glyph unicode="&#x452;" horiz-adv-x="745" d="M0 1188v67h92v232h88v-232h383v-67h-383v-305h4q33 59 91.5 94t130.5 35q104 0 156 -42t77 -108q8 -29 13 -70.5t7.5 -91t3.5 -101.5t1 -101v-70q0 -63 -2.5 -133t-12.5 -129q-16 -117 -91 -170t-185 -51v75q66 0 115 32t71 102q10 33 12 108.5t2 161.5q0 49 -1 107.5 t-2 112.5t-5 98t-10 67q-35 115 -170 115q-49 0 -88 -19.5t-64.5 -52.5t-39 -75t-13.5 -85v-692h-88v1188h-92z" />
<glyph unicode="&#x453;" horiz-adv-x="628" d="M92 0v1001h504v-77h-414v-924h-90zM262 1159l137 309l93 -34l-181 -295z" />
<glyph unicode="&#x454;" horiz-adv-x="692" d="M92 489q0 55 1 110.5t4 105t9.5 89.5t14.5 64q27 72 88 115t172 43q119 0 185.5 -59.5t76.5 -170.5l-88 -22q-6 84 -52 128t-128 44q-55 0 -99.5 -24.5t-70.5 -84.5q-14 -33 -18.5 -106.5t-6.5 -171.5h301v-80h-301q0 -92 4 -171t15 -116q18 -55 61 -85.5t111 -30.5 q78 0 128 39.5t56 127.5l88 -16q-10 -117 -80.5 -174t-191.5 -57q-61 0 -107.5 15t-77 40t-49 56.5t-26.5 66.5q-6 25 -10.5 63.5t-5.5 83.5t-2 91.5t-1 86.5z" />
<glyph unicode="&#x455;" horiz-adv-x="659" d="M51 242l90 14q0 -86 48.5 -137t134.5 -51q109 0 149.5 51t40.5 143q0 45 -7 77t-27.5 57.5t-57.5 47t-98 43.5q-80 31 -131.5 62t-79 64.5t-37.5 70.5t-10 78q0 113 65.5 184.5t206.5 71.5q129 0 199.5 -66.5t70.5 -191.5l-92 -15q0 92 -48 141.5t-134 49.5 q-53 0 -88 -15.5t-54.5 -40t-27.5 -55t-8 -63.5t8 -59.5t31.5 -50t66.5 -46t111 -47.5q78 -29 123 -59.5t68.5 -66.5t30.5 -78t7 -91q0 -61 -14.5 -112.5t-47 -88t-85 -57t-127.5 -20.5q-131 0 -202 63.5t-75 192.5z" />
<glyph unicode="&#x456;" horiz-adv-x="317" d="M111 1245v98h92v-98h-92zM113 0v1001h88v-1001h-88z" />
<glyph unicode="&#x457;" horiz-adv-x="317" d="M-35 1198v98h86v-98h-86zM113 0v1001h88v-1001h-88zM264 1198v98h86v-98h-86z" />
<glyph unicode="&#x458;" horiz-adv-x="305" d="M-31 -336h15q82 0 105.5 44t23.5 128v1165h86v-1151q0 -59 -8.5 -107t-31 -83t-61.5 -54.5t-102 -19.5h-27v78zM111 1245v98h92v-98h-92z" />
<glyph unicode="&#x459;" horiz-adv-x="1148" d="M4 31q45 29 76 63.5t49 84.5t26.5 122t8.5 176v524h457v-428h151q92 0 154.5 -21.5t100.5 -59t53.5 -89t15.5 -112.5t-14.5 -114.5t-51.5 -92.5t-98.5 -61.5t-155.5 -22.5h-246v924h-284v-461q0 -100 -9.5 -179t-32 -140.5t-61.5 -105.5t-98 -75zM621 84h149 q70 0 116 16.5t72.5 45t37 65.5t10.5 80q0 94 -55.5 145t-184.5 51h-145v-403z" />
<glyph unicode="&#x45a;" horiz-adv-x="1153" d="M96 0v1001h88v-434h348v434h93v-434h147q94 0 156.5 -20.5t100.5 -57t53.5 -88t15.5 -110.5q0 -61 -14.5 -114.5t-50.5 -92.5t-98.5 -61.5t-158.5 -22.5h-244v483h-348v-483h-88zM625 84h147q70 0 116 16.5t72.5 45t37 65.5t10.5 80q0 92 -55.5 141t-184.5 49h-143v-397z " />
<glyph unicode="&#x45b;" horiz-adv-x="745" d="M0 1188v69h94v232h88v-232h381v-69h-381v-314h2q35 59 94.5 93t131.5 34q70 0 116.5 -21.5t74.5 -58t40 -86t12 -104.5v-731h-90v702q0 90 -38 149.5t-142 59.5q-49 0 -87 -18.5t-63.5 -49t-39 -71.5t-13.5 -84v-688h-86v1188h-94z" />
<glyph unicode="&#x45c;" horiz-adv-x="708" d="M82 0v1001h88v-452h135q27 0 56.5 5t55 21.5t48 45t35.5 75.5l82 305h82l-76 -290q-20 -74 -52 -124t-90 -67q72 -16 103 -68.5t51 -125.5l84 -326h-88l-78 313q-27 100 -76 130t-120 30h-152v-473h-88zM297 1159l137 309l92 -34l-180 -295z" />
<glyph unicode="&#x45e;" horiz-adv-x="645" d="M12 1001h94l107 -430l106 -432h5q29 104 55.5 216t52.5 218l113 428h90l-301 -1124q-16 -66 -37 -121q-23 -70 -73 -116t-134 -46h-31v78h25q66 0 100.5 47.5t55.5 130.5q10 39 19 77t20 77q-68 250 -134.5 498t-132.5 499zM86 1370h74q10 -66 58 -111t112 -45 q66 0 114 42t58 114h73q-4 -39 -20 -79t-47 -73.5t-75 -55t-103 -21.5q-61 0 -105.5 21.5t-74 55t-45 74.5t-19.5 78z" />
<glyph unicode="&#x45f;" horiz-adv-x="739" d="M92 0v1001h90v-917h377v917h90v-1001h-233v-274h-88v274h-236z" />
<glyph unicode="&#x490;" horiz-adv-x="716" d="M109 0v1425h487v238h82v-320h-481v-1343h-88z" />
<glyph unicode="&#x491;" horiz-adv-x="628" d="M92 0v1001h420v230h84v-307h-414v-924h-90z" />
<glyph unicode="&#x4d9;" horiz-adv-x="700" d="M68 273.5v43.5v199h467v66q0 66 -3.5 136t-15.5 105q-18 53 -59 84t-111 31q-92 0 -136 -53.5t-50 -130.5l-88 16q10 121 83.5 184.5t190.5 63.5q61 0 107.5 -15.5t77 -40t49 -57.5t26.5 -65q6 -25 10.5 -64t5.5 -83t2 -91t1 -88q0 -55 -1 -110.5t-4.5 -104.5t-9.5 -90 t-14 -66q-27 -72 -88 -113.5t-172 -41.5q-123 0 -191.5 62.5t-74.5 178.5q-2 23 -2 44.5zM156 317q0 -47 5 -92t24.5 -79.5t56.5 -55t98 -20.5q51 0 98 22.5t74 83.5q14 35 17 103.5t6 162.5h-379v-125z" />
<glyph unicode="&#x1e80;" horiz-adv-x="1191" d="M27 1425h88l133 -815l69 -477h7l79 473l152 819h84l149 -827l82 -465h4l68 465l135 827h88l-239 -1425h-105l-155 834l-68 391h-6l-68 -396l-155 -829h-103zM322 1737l67 73l262 -217l-35 -41z" />
<glyph unicode="&#x1e81;" horiz-adv-x="1075" d="M20 1001h93q4 -20 19 -86.5t34.5 -155.5t42 -188.5t42 -188.5t34 -155.5t18.5 -87.5h4q6 33 21.5 102.5t35 156.5t41 183.5t40 181.5t31.5 149.5t20 88.5h92l69 -317q29 -135 58.5 -273.5t60.5 -273.5h4q25 109 48.5 222.5t45.5 222.5l95 419h92l-236 -1001h-92l-69 301 q-31 131 -62 268.5t-59 270.5h-6l-189 -840h-92q-59 252 -117.5 501t-118.5 500zM420 1434l92 34l137 -309l-49 -20z" />
<glyph unicode="&#x1e82;" horiz-adv-x="1191" d="M27 1425h88l133 -815l69 -477h7l79 473l152 819h84l149 -827l82 -465h4l68 465l135 827h88l-239 -1425h-105l-155 834l-68 391h-6l-68 -396l-155 -829h-103zM514 1532l262 215l66 -74l-293 -182z" />
<glyph unicode="&#x1e83;" horiz-adv-x="1075" d="M20 1001h93q4 -20 19 -86.5t34.5 -155.5t42 -188.5t42 -188.5t34 -155.5t18.5 -87.5h4q6 33 21.5 102.5t35 156.5t41 183.5t40 181.5t31.5 149.5t20 88.5h92l69 -317q29 -135 58.5 -273.5t60.5 -273.5h4q25 109 48.5 222.5t45.5 222.5l95 419h92l-236 -1001h-92l-69 301 q-31 131 -62 268.5t-59 270.5h-6l-189 -840h-92q-59 252 -117.5 501t-118.5 500zM502 1159l137 309l92 -34l-180 -295z" />
<glyph unicode="&#x1e84;" horiz-adv-x="1191" d="M27 1425h88l133 -815l69 -477h7l79 473l152 819h84l149 -827l82 -465h4l68 465l135 827h88l-239 -1425h-105l-155 834l-68 391h-6l-68 -396l-155 -829h-103zM410 1526v96h86v-96h-86zM709 1526v96h84v-96h-84z" />
<glyph unicode="&#x1e85;" horiz-adv-x="1075" d="M20 1001h93q4 -20 19 -86.5t34.5 -155.5t42 -188.5t42 -188.5t34 -155.5t18.5 -87.5h4q6 33 21.5 102.5t35 156.5t41 183.5t40 181.5t31.5 149.5t20 88.5h92l69 -317q29 -135 58.5 -273.5t60.5 -273.5h4q25 109 48.5 222.5t45.5 222.5l95 419h92l-236 -1001h-92l-69 301 q-31 131 -62 268.5t-59 270.5h-6l-189 -840h-92q-59 252 -117.5 501t-118.5 500zM346 1204v99h86v-99h-86zM645 1204v99h86v-99h-86z" />
<glyph unicode="&#x1ef2;" horiz-adv-x="716" d="M18 1425h91l143 -415l98 -287h6l99 289q35 104 71.5 206.5t71.5 206.5h92l-293 -825v-600h-86v600zM127 1675l68 74l262 -217l-35 -41z" />
<glyph unicode="&#x1ef3;" horiz-adv-x="645" d="M12 1001h94l107 -430l106 -432h5q29 104 55.5 216t52.5 218l113 428h90l-301 -1124q-16 -66 -37 -121q-23 -70 -73 -116t-134 -46h-31v78h25q66 0 100.5 47.5t55.5 130.5q10 39 19 77t20 77q-68 250 -134.5 498t-132.5 499zM164 1434l92 34l137 -309l-49 -20z" />
<glyph unicode="&#x2000;" horiz-adv-x="935" />
<glyph unicode="&#x2001;" horiz-adv-x="1870" />
<glyph unicode="&#x2002;" horiz-adv-x="935" />
<glyph unicode="&#x2003;" horiz-adv-x="1870" />
<glyph unicode="&#x2004;" horiz-adv-x="623" />
<glyph unicode="&#x2005;" horiz-adv-x="467" />
<glyph unicode="&#x2006;" horiz-adv-x="311" />
<glyph unicode="&#x2007;" horiz-adv-x="311" />
<glyph unicode="&#x2008;" horiz-adv-x="233" />
<glyph unicode="&#x2009;" horiz-adv-x="374" />
<glyph unicode="&#x200a;" horiz-adv-x="103" />
<glyph unicode="&#x2010;" horiz-adv-x="657" d="M100 545v84h480v-84h-480z" />
<glyph unicode="&#x2011;" horiz-adv-x="657" d="M100 545v84h480v-84h-480z" />
<glyph unicode="&#x2012;" horiz-adv-x="657" d="M100 545v84h480v-84h-480z" />
<glyph unicode="&#x2013;" horiz-adv-x="1024" d="M41 494v86h942v-86h-942z" />
<glyph unicode="&#x2014;" horiz-adv-x="2048" d="M41 494v86h1968v-86h-1968z" />
<glyph unicode="&#x2015;" horiz-adv-x="2048" d="M41 494v86h1968v-86h-1968z" />
<glyph unicode="&#x2018;" horiz-adv-x="331" d="M104 1130v115l66 191h55q-10 -47 -19 -94.5t-20 -94.5h27v-117h-109z" />
<glyph unicode="&#x2019;" horiz-adv-x="331" d="M104 1133q10 47 19.5 94t19.5 94h-26v115h108v-115l-67 -188h-54z" />
<glyph unicode="&#x201a;" horiz-adv-x="276" d="M74 -193q10 47 19 94.5t20 94.5h-27v113h109v-111l-68 -191h-53z" />
<glyph unicode="&#x201c;" horiz-adv-x="473" d="M76 1130v115l67 191h56l-41 -189h26v-117h-108zM262 1130v115l68 191h55l-41 -189h27v-117h-109z" />
<glyph unicode="&#x201d;" horiz-adv-x="473" d="M104 1133l41 188h-26v115h108v-115l-67 -188h-56zM266 1133q10 47 19.5 94t19.5 94h-26v115h108v-115q-16 -47 -32.5 -94t-32.5 -94h-56z" />
<glyph unicode="&#x201e;" horiz-adv-x="438" d="M74 -193l41 189h-27v115h109v-115l-68 -189h-55zM236 -193q10 47 19 94.5t19 94.5h-26v115h108v-115q-16 -47 -32.5 -94t-32.5 -95h-55z" />
<glyph unicode="&#x2020;" horiz-adv-x="681" d="M10 850v84h283v477h88v-477h285v-84h-285v-1229h-88v1229h-283z" />
<glyph unicode="&#x2021;" horiz-adv-x="681" d="M10 293v82h283v475h-283v84h283v477h88v-477h285v-84h-285v-475h285v-82h-285v-672h-88v672h-283z" />
<glyph unicode="&#x2022;" horiz-adv-x="724" d="M180 535q0 39 14.5 73.5t40 60t60.5 41t74 15.5t72.5 -15.5t59 -41t40 -60.5t14.5 -73q0 -39 -14.5 -74t-40 -60.5t-59 -40t-72.5 -14.5t-74 14.5t-60.5 40t-40 60.5t-14.5 74z" />
<glyph unicode="&#x2023;" horiz-adv-x="817" d="M166 246v620l586 -299z" />
<glyph unicode="&#x2026;" horiz-adv-x="1114" d="M84 0v113h109v-113h-109zM489 0v113h107v-113h-107zM905 0v113h109v-113h-109z" />
<glyph unicode="&#x202f;" horiz-adv-x="374" />
<glyph unicode="&#x2030;" horiz-adv-x="1536" d="M55 721v555q0 78 54.5 117t126.5 39t126 -39t54 -117v-555q0 -78 -54.5 -117t-125.5 -39q-72 0 -126.5 39t-54.5 117zM131 717q0 -39 28.5 -61.5t76.5 -22.5q47 0 74.5 22.5t27.5 61.5v561q0 41 -27.5 63.5t-74.5 22.5t-76 -22.5t-29 -63.5v-561zM197 -35l643 1497h67 l-643 -1497h-67zM688 147v555q0 80 54.5 118t125.5 38q72 0 126.5 -38t54.5 -118v-555q0 -78 -54.5 -116.5t-126.5 -38.5t-126 39t-54 116zM764 145q0 -41 28.5 -62.5t75.5 -21.5t75 21.5t28 62.5v560q0 41 -28 63.5t-75 22.5t-75.5 -23t-28.5 -63v-560zM1124 147v555 q0 80 54.5 118t126.5 38t126 -38t54 -118v-555q0 -78 -54.5 -116.5t-125.5 -38.5q-72 0 -126.5 39t-54.5 116zM1200 145q0 -41 28.5 -62.5t76.5 -21.5q47 0 74.5 21.5t27.5 62.5v560q0 41 -27.5 63.5t-74.5 22.5t-76 -23t-29 -63v-560z" />
<glyph unicode="&#x2039;" horiz-adv-x="446" d="M78 475l219 381h90l-217 -381l217 -381h-90z" />
<glyph unicode="&#x203a;" horiz-adv-x="446" d="M78 94l215 381l-215 381h88l219 -381l-219 -381h-88z" />
<glyph unicode="&#x2044;" horiz-adv-x="337" d="M-211 -35l643 1497h68l-643 -1497h-68z" />
<glyph unicode="&#x205f;" horiz-adv-x="467" />
<glyph unicode="&#x2070;" horiz-adv-x="471" d="M55 905v555q0 78 54.5 117t126.5 39t126 -39t54 -117v-555q0 -78 -54.5 -116.5t-125.5 -38.5q-72 0 -126.5 38.5t-54.5 116.5zM131 901q0 -39 28.5 -61.5t76.5 -22.5q47 0 74.5 22.5t27.5 61.5v561q0 41 -27.5 63.5t-74.5 22.5t-76 -22.5t-29 -63.5v-561z" />
<glyph unicode="&#x2074;" horiz-adv-x="471" d="M29 899v64l192 645h78l-193 -637h193v231h74v-231h76v-72h-76v-141h-74v141h-270z" />
<glyph unicode="&#x2075;" horiz-adv-x="471" d="M66 928v4l79 10q0 -57 20.5 -93t80.5 -36q55 0 78.5 33t23.5 80v221q0 51 -28.5 72.5t-75.5 21.5q-35 0 -61.5 -14.5t-39.5 -36.5h-65v420h346v-68h-277v-264q23 12 50.5 20.5t62.5 8.5q76 0 120 -39t44 -107v-233q0 -74 -40 -127t-140 -53q-80 0 -129 44t-49 136z" />
<glyph unicode="&#x2076;" horiz-adv-x="471" d="M55 905v154q0 43 6.5 71.5t16.5 51.5q4 10 18.5 42.5t32.5 77t39.5 93.5t40 93t32 76.5t17.5 43.5h80q-12 -27 -37 -87.5t-50.5 -124t-45 -112.5t-21.5 -53q35 14 68 14q74 0 119 -40t45 -113v-187q0 -78 -54 -116.5t-126 -38.5t-126.5 38.5t-54.5 116.5zM131 901 q0 -41 28.5 -62.5t76.5 -21.5q47 0 74.5 21.5t27.5 62.5v193q0 39 -27.5 61.5t-72.5 22.5q-53 0 -80 -32t-27 -73v-172z" />
<glyph unicode="&#x2077;" horiz-adv-x="428" d="M33 1440v170h370v-56l-249 -796h-74l244 784h-222v-102h-69z" />
<glyph unicode="&#x2078;" horiz-adv-x="471" d="M57 905v168q0 86 66 125q-66 37 -66 127v135q0 78 54.5 117t126.5 39t125 -39t53 -117v-135q0 -47 -17.5 -76.5t-46.5 -50.5q29 -20 46.5 -49t17.5 -76v-168q0 -78 -53.5 -116.5t-124.5 -38.5q-72 0 -126.5 38.5t-54.5 116.5zM133 901q0 -39 28.5 -61.5t76.5 -22.5 q45 0 73.5 22.5t28.5 61.5v180q0 39 -27.5 62.5t-74.5 23.5t-76 -22.5t-29 -63.5v-180zM133 1319q0 -39 28.5 -62.5t76.5 -23.5q45 0 73.5 23.5t28.5 62.5v143q0 41 -28.5 63.5t-73.5 22.5q-47 0 -76 -22.5t-29 -63.5v-143z" />
<glyph unicode="&#x2079;" horiz-adv-x="471" d="M55 1276v186q0 78 54.5 116t126.5 38t126 -38t54 -116v-155q0 -41 -7.5 -70t-17.5 -53l-178 -426h-80q10 25 35 84t51.5 121.5t46 112.5t21.5 57q-14 -4 -31.5 -8.5t-34.5 -4.5q-76 0 -121 40t-45 116zM131 1272q0 -39 28.5 -61.5t76.5 -22.5q53 0 77.5 32.5t24.5 73.5 v168q0 41 -27.5 63.5t-74.5 22.5t-76 -22.5t-29 -63.5v-190z" />
<glyph unicode="&#x207a;" horiz-adv-x="471" d="M14 1085v64h189v188h65v-188h187v-64h-187v-188h-65v188h-189z" />
<glyph unicode="&#x207b;" horiz-adv-x="428" d="M57 1075v70h328v-70h-328z" />
<glyph unicode="&#x207c;" horiz-adv-x="471" d="M14 995v64h441v-64h-441zM14 1167v66h441v-66h-441z" />
<glyph unicode="&#x207d;" horiz-adv-x="286" d="M63 1124q0 139 46.5 273.5t119.5 234.5l39 -20q-61 -106 -97 -231.5t-36 -247.5q0 -133 37 -261.5t96 -230.5l-39 -27q-70 96 -118 230.5t-48 279.5z" />
<glyph unicode="&#x207e;" horiz-adv-x="286" d="M61 641q59 102 97.5 230t38.5 262q0 123 -37 247.5t-99 231.5l41 20q76 -102 120 -235t44 -273q0 -145 -48 -278t-118 -230z" />
<glyph unicode="&#x207f;" horiz-adv-x="505" d="M51 573v662h80v-64q23 31 60.5 52.5t84.5 21.5q98 0 137.5 -54t39.5 -130v-488h-82v467q0 53 -23.5 91t-89.5 38q-61 0 -94 -43t-33 -94v-459h-80z" />
<glyph unicode="&#x2080;" horiz-adv-x="471" d="M55 -37v555q0 80 54.5 118t126.5 38t126 -38t54 -118v-555q0 -78 -54.5 -117t-125.5 -39q-72 0 -126.5 39t-54.5 117zM131 -39q0 -41 28.5 -62.5t76.5 -21.5q47 0 74.5 21.5t27.5 62.5v559q0 41 -27.5 63.5t-74.5 22.5t-76 -22.5t-29 -63.5v-559z" />
<glyph unicode="&#x2081;" horiz-adv-x="389" d="M80 489v84l145 93h70v-850h-74v766z" />
<glyph unicode="&#x2082;" horiz-adv-x="471" d="M53 485q0 86 50.5 137.5t136.5 51.5q98 0 143 -50.5t45 -134.5q0 -57 -14.5 -100t-40.5 -90l-228 -412h273v-71h-363v63l252 457q23 39 31 74.5t8 76.5q0 45 -22.5 81t-85.5 36q-43 0 -74 -31.5t-31 -99.5z" />
<glyph unicode="&#x2083;" horiz-adv-x="471" d="M53 494q4 78 49 129t140 51q100 0 137 -52.5t37 -127.5v-70q0 -45 -7.5 -90t-58.5 -72q43 -23 54.5 -61.5t11.5 -87.5v-125q0 -72 -42 -126.5t-141 -54.5q-84 0 -132 46.5t-46 140.5l80 10q-2 -57 20.5 -93t80.5 -36q55 0 78.5 34t23.5 79v127q0 59 -27.5 83.5 t-70.5 24.5h-47v72h49q41 0 68.5 22.5t27.5 79.5v101q0 43 -21.5 74.5t-78.5 31.5q-55 0 -81 -34.5t-26 -88.5z" />
<glyph unicode="&#x2084;" horiz-adv-x="471" d="M29 20l192 646h78l-193 -637h193v231h74v-231h76v-72h-76v-141h-74v141h-270v63z" />
<glyph unicode="&#x2085;" horiz-adv-x="471" d="M66 -8l79 8q0 -57 20.5 -92t80.5 -35q55 0 78.5 33t23.5 80v219q0 51 -28.5 72.5t-75.5 21.5q-35 0 -61.5 -13.5t-39.5 -37.5h-65v420h346v-66h-277v-266q18 10 37 16q16 8 35 10.5t41 2.5q76 0 120 -39t44 -107v-233q0 -72 -40 -125.5t-140 -53.5q-80 0 -129 44.5 t-49 136.5v4z" />
<glyph unicode="&#x2086;" horiz-adv-x="471" d="M55 -37v154q0 43 6.5 71.5t16.5 51.5q4 10 18.5 42.5t32.5 76.5t39.5 93.5t40 93.5t32 76.5t17.5 43.5h80q-12 -27 -37 -87.5t-50.5 -124t-45 -112.5t-21.5 -53q16 6 34 11t34 5q74 0 119 -41t45 -114v-187q0 -78 -54 -117t-126 -39t-126.5 39t-54.5 117zM131 -41 q0 -39 28.5 -61.5t76.5 -22.5q47 0 74.5 22.5t27.5 61.5v193q0 39 -27.5 61.5t-72.5 22.5q-53 0 -80 -32t-27 -73v-172z" />
<glyph unicode="&#x2087;" horiz-adv-x="428" d="M33 498v170h370v-56l-249 -796h-74l244 784h-222v-102h-69z" />
<glyph unicode="&#x2088;" horiz-adv-x="471" d="M57 -37v170q0 84 66 123q-66 37 -66 127v135q0 80 54.5 118t126.5 38t125 -38t53 -118v-135q0 -45 -17.5 -76t-46.5 -51q29 -20 46.5 -49t17.5 -74v-170q0 -78 -53.5 -117t-124.5 -39q-72 0 -126.5 39t-54.5 117zM133 -39q0 -41 28.5 -62.5t76.5 -21.5q45 0 73.5 21.5 t28.5 62.5v178q0 39 -27.5 62.5t-74.5 25.5q-47 0 -76 -23.5t-29 -64.5v-178zM133 377q0 -39 28.5 -62.5t76.5 -23.5q45 0 73.5 23.5t28.5 62.5v143q0 41 -28.5 63.5t-73.5 22.5q-47 0 -76 -22.5t-29 -63.5v-143z" />
<glyph unicode="&#x2089;" horiz-adv-x="471" d="M55 334v186q0 78 54.5 116t126.5 38t126 -38t54 -116v-155q0 -41 -7.5 -70t-17.5 -53l-178 -426h-80q10 25 35 84t51.5 122.5t46 113.5t21.5 54q-31 -10 -66 -10q-76 0 -121 39t-45 115zM131 332q0 -41 28.5 -63.5t76.5 -22.5q53 0 77.5 32.5t24.5 73.5v170 q0 41 -27.5 62.5t-74.5 21.5t-76 -21.5t-29 -62.5v-190z" />
<glyph unicode="&#x208a;" horiz-adv-x="471" d="M14 268v64h189v186h65v-186h187v-64h-187v-190h-65v190h-189z" />
<glyph unicode="&#x208b;" horiz-adv-x="428" d="M57 256v72h328v-72h-328z" />
<glyph unicode="&#x208c;" horiz-adv-x="471" d="M14 176v66h441v-66h-441zM14 350v64h441v-64h-441z" />
<glyph unicode="&#x208d;" horiz-adv-x="286" d="M63 184q0 139 46.5 273.5t119.5 234.5l39 -20q-61 -106 -97 -231.5t-36 -247.5q0 -133 37 -261.5t96 -230.5l-39 -27q-70 96 -118 230.5t-48 279.5z" />
<glyph unicode="&#x208e;" horiz-adv-x="286" d="M61 -299q59 102 97.5 230t38.5 262q0 123 -37 247.5t-99 231.5l41 20q76 -102 120 -235t44 -273q0 -145 -48 -278t-118 -230z" />
<glyph unicode="&#x20ab;" horiz-adv-x="722" d="M127 545v133q0 68 3 123t17 96q18 55 65.5 94t133.5 39q66 0 102.5 -26.5t55.5 -55.5v228h-189v65h189v152h82v-152h96v-65h-96v-947h-82v66q-27 -33 -69 -53.5t-101 -20.5q-76 0 -131.5 39t-67.5 137q-4 39 -6 76t-2 72zM135 0v78h463v-78h-463zM209 606q0 -70 2 -130 t10 -89q16 -51 48 -69.5t79 -18.5q74 0 116 44t42 116v319q0 68 -38 121t-116 53q-51 0 -82.5 -25.5t-46.5 -66.5q-10 -35 -12 -106.5t-2 -147.5z" />
<glyph unicode="&#x20ac;" horiz-adv-x="722" d="M31 594v61h73v150h-73v59h73v252q0 154 79 238t216 84q121 0 203 -62.5t92 -191.5l-86 -17q-10 98 -67.5 143.5t-141.5 45.5q-98 0 -153.5 -63.5t-55.5 -172.5v-256h353v-59h-353v-150h353v-61h-353v-305q0 -104 57.5 -162.5t151.5 -58.5q82 0 140.5 44t68.5 144l90 -14 q-6 -68 -32.5 -116t-66.5 -79t-91 -46t-109 -15q-61 0 -115.5 17t-94 54t-62.5 94.5t-23 135.5v307h-73z" />
<glyph unicode="&#x2105;" horiz-adv-x="1083" d="M86 1001.5v61.5q0 37 1 76t3 73.5t6 63.5t10 45q18 51 63.5 83t123.5 32q92 0 142 -50.5t50 -148.5l-77 -12q0 66 -31 101.5t-82 35.5q-35 0 -66.5 -12.5t-50.5 -55.5q-10 -23 -12 -89t-4 -150v-19q0 -47 2 -101t12 -87q23 -72 111 -72q115 0 121 137l77 -14 q-4 -96 -55 -145t-145 -49q-90 0 -131 39.5t-56 91.5q-4 18 -7 44.5t-4 57.5t-1 63.5zM176 -35l643 1497h70l-643 -1497h-70zM586 282.5v61.5q0 76 4 152.5t16 109.5q20 49 66.5 80t122.5 31q84 0 125 -32t59 -79q8 -20 12 -51t6 -66.5t2 -73.5v-71v-20q0 -39 -1 -78t-5 -82 q-6 -51 -25.5 -85t-48 -54.5t-62.5 -28.5t-66 -8q-90 0 -133.5 35.5t-59.5 93.5q-4 14 -7 41.5t-4 59.5t-1 64.5zM664 317q0 -61 3 -109t11 -75q10 -35 40 -55.5t77 -20.5q41 0 73.5 24.5t42.5 68.5q8 23 10.5 74.5t2.5 111.5q0 66 -3 134.5t-12 96.5q-24 78 -114 78 q-27 0 -53.5 -9t-45.5 -32q-27 -35 -28.5 -105.5t-3.5 -162.5v-19z" />
<glyph unicode="&#x2116;" horiz-adv-x="1353" d="M100 0v1425h82q78 -184 156 -365t156 -366l190 -454h8v1185h86v-1425h-84q-78 182 -154.5 363.5t-154.5 363.5q-49 115 -97 227.5t-95 227.5h-7v-1182h-86zM872 1024v57q0 70 3.5 137.5t15.5 102.5q16 47 65 79t123 32q80 0 123 -30t60 -75q14 -35 17 -101.5t3 -125.5 v-39q0 -35 -1 -70t-5 -76q-4 -49 -23.5 -80.5t-48 -51t-62.5 -27.5t-67 -8q-88 0 -131 34.5t-59 87.5q-4 14 -7.5 40t-4.5 54.5t-1 59.5zM887 569v72h385v-72h-385zM950 1065q0 -63 2 -109.5t11 -68.5q10 -33 37.5 -50.5t76.5 -17.5q31 0 56.5 9.5t40.5 31.5q10 12 16 33 q8 25 10 76t2 104v62.5t-2 61.5t-4 54.5t-6 38.5q-10 35 -41 51.5t-72 16.5q-35 0 -63.5 -12.5t-44.5 -47.5q-10 -27 -13.5 -80t-5.5 -124v-29z" />
<glyph unicode="&#x2122;" horiz-adv-x="1241" d="M53 1354v71h418v-71h-172v-711h-74v711h-172zM541 641v782h69l232 -553l229 553h68v-782h-72v580h-6l-193 -453h-57l-195 463h-6v-590h-69z" />
<glyph unicode="&#x2153;" horiz-adv-x="1126" d="M86 1247v84l145 92h70v-850h-74v766zM147 -35l644 1497h67l-643 -1497h-68zM682 678q4 78 49 129t139 51q100 0 137 -52t37 -128v-70q0 -45 -7 -90t-58 -72q43 -23 54 -61.5t11 -87.5v-125q0 -72 -41.5 -126t-140.5 -54q-84 0 -132 46t-46 140l80 10q-2 -57 20.5 -93 t79.5 -36q55 0 79 34t24 79v127q0 59 -28 84t-71 25h-47v71h49q41 0 69 22.5t28 80.5v100q0 43 -21.5 74.5t-79.5 31.5q-55 0 -80.5 -34.5t-25.5 -87.5z" />
<glyph unicode="&#x2154;" horiz-adv-x="1126" d="M61 1243q0 86 50.5 137.5t136.5 51.5q98 0 143 -50.5t45 -134.5q0 -57 -14 -101t-41 -91l-227 -410h272v-72h-363v62l252 459q23 37 31 73.5t8 77.5q0 45 -22.5 81t-85.5 36q-43 0 -74 -33t-31 -98zM217 -35l643 1497h68l-643 -1497h-68zM711 678q4 78 49 129t139 51 q100 0 137 -52t37 -128v-70q0 -45 -7 -90t-58 -72q43 -23 54 -61.5t11 -87.5v-125q0 -72 -42 -126t-140 -54q-84 0 -132 46t-46 140l80 10q-2 -57 20.5 -93t79.5 -36q55 0 78.5 34t23.5 79v127q0 59 -27.5 84t-70.5 25h-47v71h49q41 0 68.5 22.5t27.5 80.5v100 q0 43 -21.5 74.5t-78.5 31.5q-55 0 -81 -34.5t-26 -87.5z" />
<glyph unicode="&#x2155;" horiz-adv-x="1126" d="M74 1247v84l145 92h70v-850h-74v766zM123 -35l643 1497h68l-644 -1497h-67zM696 172v4l80 8q0 -57 20.5 -92t80.5 -35q55 0 78.5 33t23.5 80v219q0 51 -28.5 72.5t-76.5 21.5q-35 0 -61.5 -13t-38.5 -38h-65v420h346v-66h-277v-266q18 10 37 17q16 8 34.5 10t41.5 2 q76 0 120 -39t44 -107v-233q0 -72 -40 -125t-141 -53q-80 0 -129 44t-49 136z" />
<glyph unicode="&#x2156;" horiz-adv-x="1126" d="M39 1243q0 86 50 137.5t136 51.5q98 0 143.5 -50.5t45.5 -134.5q0 -57 -14.5 -101t-41.5 -91l-227 -410h272v-72h-362v62l252 459q23 37 31 73.5t8 77.5q0 45 -23 81t-86 36q-43 0 -73.5 -33t-30.5 -98zM199 -35l643 1497h67l-643 -1497h-67zM717 172v4l80 8 q0 -57 20.5 -92t79.5 -35q55 0 78.5 33t23.5 80v219q0 51 -28.5 72.5t-75.5 21.5q-35 0 -61.5 -13t-38.5 -38h-66v420h346v-66h-276v-266q18 10 37 17q16 8 34.5 10t40.5 2q76 0 120 -39t44 -107v-233q0 -72 -40 -125t-140 -53q-80 0 -129 44t-49 136z" />
<glyph unicode="&#x2157;" horiz-adv-x="1126" d="M45 1251q4 78 49 128.5t139 50.5q100 0 137.5 -52.5t37.5 -128.5v-67q0 -45 -7.5 -90t-58.5 -74q43 -23 54.5 -60.5t11.5 -87.5v-125q0 -72 -42 -126t-141 -54q-84 0 -132 46t-46 141l80 8q-2 -57 20.5 -92t79.5 -35q55 0 79 33.5t24 78.5v127q0 59 -28 84t-71 25h-47v70 h49q41 0 69 23.5t28 78.5v102q0 41 -21.5 74t-79.5 33q-55 0 -80.5 -35t-25.5 -88zM186 -35l643 1497h68l-643 -1497h-68zM721 172v4l80 8q0 -57 20.5 -92t79.5 -35q55 0 79 33t24 80v219q0 51 -29 72.5t-76 21.5q-35 0 -61.5 -13t-38.5 -38h-66v420h346v-66h-276v-266 q18 10 37 17q16 8 34.5 10t40.5 2q76 0 120 -39t44 -107v-233q0 -72 -40 -125t-140 -53q-80 0 -129 44t-49 136z" />
<glyph unicode="&#x2158;" horiz-adv-x="1126" d="M39 715v63l192 645h78l-192 -637h192v232h74v-232h76v-71h-76v-142h-74v142h-270zM219 -35l643 1497h68l-643 -1497h-68zM731 172v4l80 8q0 -57 20.5 -92t79.5 -35q55 0 79 33t24 80v219q0 51 -29 72.5t-76 21.5q-35 0 -61.5 -13t-38.5 -38h-66v420h347v-66h-277v-266 q18 10 37 17q16 8 34.5 10t41.5 2q76 0 120 -39t44 -107v-233q0 -72 -40 -125t-141 -53q-80 0 -129 44t-49 136z" />
<glyph unicode="&#x2159;" horiz-adv-x="1126" d="M104 1247v84l146 92h69v-850h-73v766zM197 -35l643 1497h67l-643 -1497h-67zM678 147v154q0 43 6 71.5t16 51.5q4 10 18.5 43t33 77t40 93t40 93t32 77t17.5 43h80q-12 -27 -37 -87.5t-50.5 -124t-45 -112.5t-21.5 -53q16 6 33.5 11t33.5 5q74 0 119 -40.5t45 -114.5 v-187q0 -78 -54 -116.5t-126 -38.5t-126 39t-54 116zM754 143q0 -39 28.5 -61.5t75.5 -22.5t75 22.5t28 61.5v193q0 39 -28 61.5t-73 22.5q-53 0 -79.5 -32t-26.5 -73v-172z" />
<glyph unicode="&#x215a;" horiz-adv-x="1126" d="M72 743v5l80 10q0 -57 20.5 -93t79.5 -36q55 0 78.5 32.5t23.5 79.5v222q0 51 -28.5 72.5t-75.5 21.5q-35 0 -61.5 -14.5t-38.5 -36.5h-66v419h346v-67h-276v-264q23 12 50 20t62 8q76 0 120 -39t44 -106v-234q0 -74 -40 -127t-140 -53q-80 0 -129 44t-49 136zM227 -35 l643 1497h68l-643 -1497h-68zM672 147v154q0 43 6 71.5t16 51.5q4 10 18.5 43t33 77t40 93t40 93t31.5 77t17 43h80q-12 -27 -36.5 -87.5t-50 -124t-45 -112.5t-21.5 -53q16 6 33.5 11t33.5 5q74 0 119 -40.5t45 -114.5v-187q0 -78 -54 -116.5t-126 -38.5t-126 39t-54 116z M748 143q0 -39 28.5 -61.5t75.5 -22.5t74.5 22.5t27.5 61.5v193q0 39 -27.5 61.5t-72.5 22.5q-53 0 -79.5 -32t-26.5 -73v-172z" />
<glyph unicode="&#x215b;" horiz-adv-x="1126" d="M80 1247v84l145 92h70v-850h-74v766zM156 -35l643 1497h67l-643 -1497h-67zM680 147v170q0 84 65 123q-66 37 -65 127v135q0 80 54 118t126 38t125 -38t53 -118v-135q0 -45 -17 -75.5t-46 -51.5q29 -20 46 -49t17 -74v-170q0 -78 -53 -116.5t-125 -38.5t-126 39t-54 116z M756 145q0 -41 28.5 -62.5t75.5 -21.5q45 0 74 21.5t29 62.5v179q0 39 -28 62.5t-75 25.5q-47 0 -75.5 -23.5t-28.5 -64.5v-179zM756 561q0 -39 28.5 -62.5t75.5 -23.5q45 0 74 23.5t29 62.5v144q0 41 -29 63.5t-74 22.5q-47 0 -75.5 -23t-28.5 -63v-144z" />
<glyph unicode="&#x215c;" horiz-adv-x="1126" d="M61 1251q4 78 49.5 128.5t139.5 50.5q100 0 137 -52.5t37 -128.5v-67q0 -45 -7 -90t-59 -74q43 -23 54.5 -60.5t11.5 -87.5v-125q0 -72 -42 -126t-140 -54q-84 0 -132.5 46t-46.5 141l80 8q-2 -57 20.5 -92t80.5 -35q55 0 78.5 33.5t23.5 78.5v127q0 59 -27.5 84 t-70.5 25h-47v70h49q41 0 68.5 23.5t27.5 78.5v102q0 41 -21.5 74t-78.5 33q-55 0 -81 -35t-26 -88zM199 -35l643 1497h67l-643 -1497h-67zM698 147v170q0 84 66 123q-66 37 -66 127v135q0 80 54.5 118t126.5 38t125 -38t53 -118v-135q0 -45 -17.5 -75.5t-46.5 -51.5 q29 -20 46.5 -49t17.5 -74v-170q0 -78 -53.5 -116.5t-124.5 -38.5q-72 0 -126.5 39t-54.5 116zM774 145q0 -41 28.5 -62.5t76.5 -21.5q45 0 73.5 21.5t28.5 62.5v179q0 39 -27.5 62.5t-74.5 25.5q-47 0 -76 -23.5t-29 -64.5v-179zM774 561q0 -39 28.5 -62.5t76.5 -23.5 q45 0 73.5 23.5t28.5 62.5v144q0 41 -28.5 63.5t-73.5 22.5q-47 0 -76 -23t-29 -63v-144z" />
<glyph unicode="&#x215d;" horiz-adv-x="1126" d="M66 743v5l79 10q0 -57 20.5 -93t80.5 -36q55 0 78.5 32.5t23.5 79.5v222q0 51 -28.5 72.5t-75.5 21.5q-35 0 -61.5 -14.5t-39.5 -36.5h-65v419h346v-67h-277v-264q23 12 50.5 20t62.5 8q76 0 120 -39t44 -106v-234q0 -74 -40 -127t-140 -53q-80 0 -129 44t-49 136z M193 -35l643 1497h67l-643 -1497h-67zM690 147v170q0 84 66 123q-66 37 -66 127v135q0 80 54.5 118t125.5 38q72 0 125.5 -38t53.5 -118v-135q0 -45 -17.5 -75.5t-46.5 -51.5q29 -20 46.5 -49t17.5 -74v-170q0 -78 -53.5 -116.5t-125.5 -38.5t-126 39t-54 116zM766 145 q0 -41 28.5 -62.5t75.5 -21.5q45 0 74 21.5t29 62.5v179q0 39 -27.5 62.5t-75.5 25.5q-47 0 -75.5 -23.5t-28.5 -64.5v-179zM766 561q0 -39 28.5 -62.5t75.5 -23.5q45 0 74 23.5t29 62.5v144q0 41 -29 63.5t-74 22.5q-47 0 -75.5 -23t-28.5 -63v-144z" />
<glyph unicode="&#x215e;" horiz-adv-x="1126" d="M84 1255v170h371v-55l-250 -797h-74l244 785h-221v-103h-70zM147 -35l644 1497h67l-643 -1497h-68zM688 147v170q0 84 66 123q-66 37 -66 127v135q0 80 54.5 118t125.5 38q72 0 125.5 -38t53.5 -118v-135q0 -45 -17.5 -75.5t-46.5 -51.5q29 -20 46.5 -49t17.5 -74v-170 q0 -78 -53.5 -116.5t-125.5 -38.5t-126 39t-54 116zM764 145q0 -41 28.5 -62.5t75.5 -21.5q45 0 74 21.5t29 62.5v179q0 39 -28 62.5t-75 25.5q-47 0 -75.5 -23.5t-28.5 -64.5v-179zM764 561q0 -39 28.5 -62.5t75.5 -23.5q45 0 74 23.5t29 62.5v144q0 41 -29 63.5t-74 22.5 q-47 0 -75.5 -23t-28.5 -63v-144z" />
<glyph unicode="&#x2190;" horiz-adv-x="1660" d="M123 657l434 433l61 -60l-339 -334h1269v-82h-1269l339 -331l-61 -60z" />
<glyph unicode="&#x2191;" horiz-adv-x="993" d="M61 993l435 434l434 -434l-60 -61l-335 338v-1266h-80v1266l-332 -338z" />
<glyph unicode="&#x2192;" horiz-adv-x="1660" d="M125 614v82h1268l-340 334l63 60l434 -433l-434 -434l-63 60l340 331h-1268z" />
<glyph unicode="&#x2193;" horiz-adv-x="993" d="M61 440l62 62l332 -340v1268h80v-1268l335 340l60 -62l-434 -434z" />
<glyph unicode="&#x2196;" horiz-adv-x="1720" d="M256 696v613h614v-84h-477l1157 -1145l-57 -57l-1155 1148v-475h-82z" />
<glyph unicode="&#x2198;" horiz-adv-x="1720" d="M256 1255l57 58l1153 -1149v473h82v-610h-614v84h477z" />
<glyph unicode="&#x21a9;" horiz-adv-x="1720" d="M109 655l430 435l61 -60l-336 -334h1051q66 0 112 19.5t73.5 54.5t39.5 82t12 100v170q0 106 -55 166t-182 60h-131v79h141q86 0 146.5 -23.5t97.5 -65.5t53 -99t16 -125v-162q0 -154 -82.5 -246t-257.5 -92h-1034l336 -331l-61 -60z" />
<glyph unicode="&#x21aa;" horiz-adv-x="1712" d="M111 952v162q0 68 16 125t53 99t97.5 65.5t146.5 23.5h141v-79h-131q-127 0 -182 -59.5t-55 -166.5v-170q0 -53 12 -100t39.5 -82t74 -54.5t111.5 -19.5h1053l-338 334l61 60l430 -435l-430 -432l-61 60l338 331h-1036q-174 0 -257 92.5t-83 245.5z" />
<glyph unicode="&#x21b3;" horiz-adv-x="1720" d="M264 614v803h86v-721h1147l-336 334l58 60l430 -435l-428 -432l-60 60l336 331h-1233z" />
<glyph unicode="&#x21b5;" horiz-adv-x="1720" d="M246 655l428 435l59 -60l-336 -334h1147v721h86v-803h-1233l336 -331l-59 -60z" />
<glyph unicode="&#x21de;" horiz-adv-x="993" d="M80 989l432 430l432 -430l-57 -61l-334 332l2 -515h233v-83h-233v-213h233v-84h-233v-365h-86v365h-233v84h233v213h-233v83h233v515l-332 -332z" />
<glyph unicode="&#x21df;" horiz-adv-x="993" d="M80 432l57 62l332 -334v516h-233v84h233v213h-233v84h233v364h86v-364h233v-84h-233v-213h233v-84h-233l-2 -516l334 334l57 -62l-432 -430z" />
<glyph unicode="&#x21e0;" horiz-adv-x="1652" d="M109 657q109 109 217 215.5t217 217.5l63 -60l-342 -336h363v-80h-363l342 -331l-63 -62zM737 612v82h201v-82h-201zM1053 612v82h200v-82h-200zM1368 612v82h160v-82h-160z" />
<glyph unicode="&#x21e1;" horiz-adv-x="972" d="M51 987l436 434l433 -434l-60 -63l-336 340v-361h-80v361l-331 -340zM442 0v162h82v-162h-82zM442 276v201h82v-201h-82zM442 592v199h82v-199h-82z" />
<glyph unicode="&#x21e2;" horiz-adv-x="1652" d="M111 614v82h159v-82h-159zM385 614v82h201v-82h-201zM700 614v82h201v-82h-201zM1012 614v82h362l-342 334l64 60l434 -433l-434 -434l-64 60l342 331h-362z" />
<glyph unicode="&#x21e3;" horiz-adv-x="972" d="M51 434l60 62q84 -86 166.5 -170t166.5 -170v362h80v-362q84 86 167 170t167 170l60 -62q-109 -111 -215.5 -218t-217.5 -216q-219 215 -434 434zM442 629v200h82v-200h-82zM442 942v203h82v-203h-82zM442 1260v159h82v-159h-82z" />
<glyph unicode="&#x21e4;" horiz-adv-x="1605" d="M160 223v867h84v-867h-84zM313 657l435 433l63 -60l-340 -334h1061v-82h-1061l340 -331l-63 -60z" />
<glyph unicode="&#x21e5;" horiz-adv-x="1605" d="M162 614v82h1059l-340 334l63 60l434 -433l-434 -434l-63 60l340 331h-1059zM1450 223v867h84v-867h-84z" />
<glyph unicode="&#x21e7;" horiz-adv-x="1609" d="M70 666l731 759l729 -759h-361v-666h-737v666h-362zM231 729h271v-659h600v659h268l-569 590z" />
<glyph unicode="&#x21ea;" horiz-adv-x="1630" d="M76 666l731 759l729 -759h-360v-539h-740v539h-360zM236 729h272v-532h598v532h270l-569 590zM438 -43h738v-352h-738v352zM508 -111v-215h598v215h-598z" />
<glyph unicode="&#x2202;" horiz-adv-x="655" d="M45 434q0 109 22.5 194t59.5 143t85 89t101 31q61 0 115.5 -39t103.5 -133q0 326 -78.5 499t-232.5 173q-12 0 -29.5 -2.5t-33.5 -6.5l-2 70q18 4 36.5 6t34.5 2q109 0 180.5 -60.5t114.5 -162.5t61.5 -236.5t18.5 -281.5q0 -176 -22.5 -314.5t-62.5 -232.5t-95 -143 t-121 -49q-111 0 -183.5 114.5t-72.5 339.5zM113 438q0 -190 55 -285.5t133 -95.5q53 0 94 49.5t70 126t45 173t20 190.5q-55 117 -107 166t-110 49q-47 0 -85 -34t-63.5 -87t-38.5 -119.5t-13 -132.5z" />
<glyph unicode="&#x220f;" horiz-adv-x="833" d="M106 -160v1585h623v-1585h-88v1503h-446v-1503h-89z" />
<glyph unicode="&#x2211;" horiz-adv-x="602" d="M33 1350v75h538v-82h-450l241 -710l-237 -709h461v-84h-549v78l237 715z" />
<glyph unicode="&#x221a;" horiz-adv-x="737" d="M14 727l199 86l199 -836q4 31 15 112t27.5 193.5t37 249t40 276.5t40 276.5t37 249t27.5 193.5t15 111h74l-274 -1814h-74l-215 889q-4 -2 -22.5 -10.5t-41 -17.5t-42 -17.5t-21.5 -10.5z" />
<glyph unicode="&#x221e;" horiz-adv-x="1208" d="M59 530q0 53 19.5 97.5t53.5 76t77 49t92 17.5q82 0 161 -54t138 -138q61 82 140 137t165 55q98 0 167 -64.5t69 -175.5q0 -113 -70 -178t-174 -65q-84 0 -155.5 53t-143.5 139q-72 -88 -139.5 -140t-161.5 -52q-102 0 -170 63.5t-68 179.5zM129 530q0 -80 50 -128 t124 -48q35 0 70 14.5t67.5 39t62 56.5t54.5 64q-23 31 -52.5 63t-62 56.5t-68.5 41t-73 16.5q-72 0 -122 -51.5t-50 -123.5zM645 530q53 -68 116.5 -122t135.5 -54q74 0 125 49.5t51 126.5q0 74 -50 124.5t-122 50.5q-35 0 -69.5 -14.5t-67.5 -39t-62.5 -56.5t-56.5 -65z " />
<glyph unicode="&#x222b;" horiz-adv-x="534" d="M-27 -311l13 63q14 -4 27.5 -4h23.5q88 0 123 78t45 248q0 10 2 67.5t3 146.5t3 201.5t5 235.5t6 248t9 239q8 184 58.5 267.5t154.5 83.5q20 0 40 -2t42 -9q-4 -16 -7 -31.5t-5 -31.5q-16 2 -28.5 4t-24.5 2q-47 0 -78 -19.5t-49.5 -65.5t-27.5 -124t-11 -194 q-8 -279 -9 -491t-6.5 -369.5t-17.5 -263t-39.5 -169t-76 -91t-123.5 -27.5q-25 0 -52 8z" />
<glyph unicode="&#x2248;" horiz-adv-x="722" d="M20 709q29 47 73.5 76.5t101.5 29.5q47 0 89 -14.5t82 -32.5t75.5 -32.5t70.5 -14.5q37 0 64.5 13.5t64.5 60.5l51 -35q-31 -53 -76 -85t-104 -32q-39 0 -78 14.5t-79 33t-81 32.5t-81 14q-35 0 -64 -14t-61 -53zM25 440q29 47 73 77t101 30q47 0 89 -14.5t82 -33 t75.5 -32.5t70.5 -14q37 0 64.5 13t64.5 60l51 -34q-31 -53 -76 -85t-104 -32q-39 0 -78 14t-79 32.5t-80.5 33t-81.5 14.5q-35 0 -64 -14.5t-61 -53.5z" />
<glyph unicode="&#x2260;" horiz-adv-x="722" d="M31 184l157 224h-155v75h209l157 222h-366v73h418l155 217h82l-156 -217h156v-73h-207l-157 -222h364v-75h-420l-157 -224h-80z" />
<glyph unicode="&#x2264;" horiz-adv-x="722" d="M35 559v74l651 293v-80l-547 -248l547 -254v-80zM37 84v76h647v-76h-647z" />
<glyph unicode="&#x2265;" horiz-adv-x="722" d="M37 84v76h649v-76h-649zM37 264v80l545 254l-545 248v80l651 -293v-74z" />
<glyph unicode="&#x2303;" horiz-adv-x="1628" d="M221 846l592 592l588 -584l-64 -66l-524 519l-526 -525z" />
<glyph unicode="&#x2318;" horiz-adv-x="1687" d="M111 256q0 55 18 103.5t53 85t85 58t116 21.5h186v379h-186q-55 0 -104.5 21.5t-86 58.5t-59 85t-22.5 103t20.5 104.5t56 86.5t86 58.5t109.5 21.5q68 0 118 -21.5t83.5 -58.5t50 -86t16.5 -105v-188h375v188q0 55 20.5 104.5t56.5 86.5t86 58.5t109 21.5 q66 0 116 -21.5t84 -58.5t51.5 -86t17.5 -105q0 -53 -21.5 -101t-57.5 -85t-85 -59.5t-105 -22.5h-188v-379h188q68 0 119 -21.5t84 -58t49.5 -86t16.5 -102.5q0 -55 -16.5 -104.5t-49.5 -86t-84 -58t-119 -21.5q-66 0 -115.5 21.5t-84.5 58t-53.5 86t-18.5 104.5v188h-375 v-188q0 -53 -16.5 -102.5t-50 -86t-83.5 -59t-118 -22.5q-63 0 -113.5 20.5t-86.5 57t-54 86t-18 106.5zM193 256q0 -80 53 -135t137 -55q39 0 72.5 14t59.5 40.5t40 60.5t14 75v188h-186q-84 0 -137 -55t-53 -133zM193 1171q0 -80 53 -134t137 -54h186v188q0 39 -14 73 t-40 59.5t-59.5 40t-72.5 14.5q-80 0 -135 -53.5t-55 -133.5zM651 524h375v379h-375v-379zM1110 256q0 -41 14.5 -75t40 -60.5t60.5 -40.5t73 -14q39 0 73 14t59.5 40.5t40 60.5t14.5 75q0 39 -14.5 72.5t-40 59.5t-59.5 41t-73 15h-188v-188zM1110 983h188q39 0 73 14.5 t59.5 40t40 60.5t14.5 73q0 78 -54.5 132.5t-132.5 54.5t-133 -53.5t-55 -133.5v-188z" />
<glyph unicode="&#x2324;" horiz-adv-x="1628" d="M264 1335v90h1176v-90h-1176zM276 662l576 610l573 -608l-63 -66l-510 545l-510 -545z" />
<glyph unicode="&#x2325;" horiz-adv-x="2433" d="M86 1270v90h465l795 -1272h958v-88h-1022l-797 1270h-399zM1069 1270v90h1235v-90h-1235z" />
<glyph unicode="&#x2326;" horiz-adv-x="2308" d="M170 0v1423h1356l694 -712l-694 -711h-1356zM252 82h1225l622 629l-622 628h-1225v-1257zM635 379l332 332l-332 333l55 58l332 -334l332 334l55 -58l-330 -333l330 -332l-55 -57l-332 335l-332 -335z" />
<glyph unicode="&#x232b;" horiz-adv-x="2308" d="M172 711l694 712h1354v-1423h-1356zM291 711l622 -629h1225v1257h-1225zM981 379l332 332l-332 333l55 58l334 -334l332 334l55 -58l-334 -333l334 -332l-55 -57l-332 335l-334 -335z" />
<glyph unicode="&#x235f;" horiz-adv-x="1646" d="M94 711q0 150 56.5 281.5t154.5 230t230.5 155t283.5 56.5q150 0 282 -57.5t230.5 -156t154.5 -230.5t56 -281h-2q0 -150 -57.5 -282t-155.5 -230.5t-230 -154.5t-282 -56t-281 56t-229 154.5t-154.5 230.5t-56.5 284zM211 709q0 -125 47 -234.5t129 -191.5t192.5 -129.5 t235.5 -47.5t235.5 47.5t192.5 129.5t129 191.5t47 234.5t-47 235.5t-129 192.5t-192.5 129t-235.5 47t-235.5 -47t-192.5 -129t-129 -192.5t-47 -235.5zM311 848l334 65l154 304l164 -299l335 -70l-231 -232l53 -346l-321 156l-289 -156l43 338z" />
<glyph unicode="&#x23cf;" horiz-adv-x="1748" d="M135 186v279h1438v-279h-1438zM135 643l719 719l719 -719h-1438z" />
<glyph unicode="&#x25a0;" horiz-adv-x="1792" d="M252 82v1296h1296v-1296h-1296z" />
<glyph unicode="&#x25a1;" horiz-adv-x="1722" d="M164 0v1419h1407v-1419h-1407zM250 76h1241v1263h-1241v-1263z" />
<glyph unicode="&#x25b2;" horiz-adv-x="1679" d="M162 360l719 719l718 -719h-1437z" />
<glyph unicode="&#x25b6;" horiz-adv-x="1218" d="M283 0v1436l718 -717z" />
<glyph unicode="&#x25bc;" horiz-adv-x="1679" d="M162 1079h1437l-718 -719z" />
<glyph unicode="&#x25c0;" horiz-adv-x="1218" d="M207 719l719 717v-1436z" />
<glyph unicode="&#x25ca;" horiz-adv-x="690" d="M51 578q59 141 120.5 282t123.5 283h80q61 -141 124.5 -282.5t125.5 -282.5q-61 -141 -124 -282.5t-126 -283.5h-80q-61 141 -122.5 282.5t-121.5 283.5zM129 575l205 -471h2l211 471q-53 119 -106.5 237t-106.5 237h-2z" />
<glyph unicode="&#x25cf;" horiz-adv-x="1726" d="M227 731q0 135 53.5 253t142.5 205t207 138t247 51t245.5 -51t205.5 -140t142.5 -207t53.5 -249t-51.5 -248.5t-140.5 -207t-206.5 -141.5t-248.5 -52q-133 0 -251 51t-207 140t-140.5 207t-51.5 251z" />
<glyph unicode="&#x25fc;" horiz-adv-x="1003" d="M0 0v1004h1004v-1004h-1004z" />
<glyph unicode="&#x2602;" horiz-adv-x="1597" d="M102 745q0 131 62.5 253t159 217.5t215 152.5t231.5 57v64h59v-66q113 0 231 -56t214 -150.5t157.5 -217t61.5 -254.5q-33 37 -82 58.5t-102 21.5q-47 0 -92.5 -19.5t-83.5 -60.5h-5q-47 80 -153 80q-57 0 -127 -28v-623q0 -86 -52.5 -138t-150.5 -52q-86 0 -142.5 48 t-56.5 152v27h97v-27q0 -57 27.5 -83.5t70.5 -26.5q33 0 53.5 10t31.5 26.5t15 37t4 40.5v607q-29 14 -55 19t-51 5q-53 0 -95 -20.5t-79 -55.5q-35 41 -82 60.5t-96 19.5q-51 0 -99.5 -19.5t-83.5 -60.5zM1493 745l2 -2q-2 0 -2 2z" />
<glyph unicode="&#x2605;" horiz-adv-x="1667" d="M86 874l510 99l233 463l252 -457l512 -105l-354 -354l80 -528l-490 239l-438 -239l66 514z" />
<glyph unicode="&#x2606;" horiz-adv-x="1716" d="M80 887l520 100l231 461l254 -457l521 -104l-361 -361l80 -530l-491 240l-447 -244l68 522zM199 850l313 -313l-55 -443l377 203l421 -203l-71 453l305 303l-436 88l-219 395l-201 -401z" />
<glyph unicode="&#x2610;" horiz-adv-x="1722" d="M164 0v1419h1407v-1419h-1407zM250 76h1241v1263h-1241v-1263z" />
<glyph unicode="&#x2611;" horiz-adv-x="1740" d="M168 0v1419h1407v-1419h-1407zM252 74h1241v1263h-1241v-1263zM412 745q35 23 74.5 33t64.5 10q18 0 44 -35.5t51.5 -93t47 -129t31.5 -141.5q61 100 144 219t177.5 232.5t192.5 210t188 155.5q8 -8 13 -10q-55 -43 -116.5 -111.5t-124 -152.5t-123 -178.5t-116 -185.5 t-101.5 -174t-77 -146q-96 -18 -141 -41q-16 61 -44 144t-58.5 162t-64.5 143.5t-62 88.5z" />
<glyph unicode="&#x2612;" horiz-adv-x="1740" d="M168 0v1419h1407v-1419h-1407zM254 76h1241v1263h-1241v-1263zM393 311l402 404l-402 403l68 68l403 -406l400 406l67 -68l-399 -399l405 -406l-71 -67l-404 405l-403 -409z" />
<glyph unicode="&#x2622;" horiz-adv-x="1714" d="M102 719q0 137 53.5 270t152 239.5t236.5 172t308 65.5q160 0 299 -57t241.5 -156.5t161 -233.5t58.5 -290q0 -158 -58.5 -297t-160 -242.5t-239.5 -164t-298 -60.5q-158 0 -295 58.5t-239.5 160t-161 239.5t-58.5 296zM176 719q0 -143 54.5 -267t147.5 -216.5 t218 -144.5t264 -52q135 0 257 54t215 146.5t147.5 212t54.5 250.5q0 162 -58.5 291t-153.5 219.5t-218 139.5t-252 49q-139 0 -262 -54.5t-215 -147.5t-145.5 -217t-53.5 -263zM236 719q0 176 72.5 305t234.5 233l202 -352q-47 -29 -73.5 -77t-32.5 -109h-403zM547 184 l201 348q61 -29 110 -28q41 0 103 28l204 -350q-162 -84 -315 -84q-166 0 -303 86zM692 719q0 70 48 118t116 48q33 0 62.5 -14.5t51 -37t34 -52t12.5 -62.5t-12.5 -61.5t-34 -50t-51 -35t-62.5 -13.5q-63 0 -113.5 45t-50.5 115zM961 909l204 351q147 -82 229.5 -221.5 t82.5 -319.5h-404q-12 127 -112 190z" />
<glyph unicode="&#x2623;" horiz-adv-x="1753" d="M113 494q0 59 16 116.5t54 107.5t98.5 92t150.5 71q0 129 23.5 224t71.5 159.5t122 104.5t176 58l11 -30q-279 -81 -279 -310q0 -139 78 -220t227 -99v-45q-47 -10 -66.5 -38t-19.5 -56q0 -10 2 -19.5t6 -19.5l-39 -21q-123 147 -272 148q-59 0 -115.5 -24.5t-99.5 -66.5 t-69.5 -97.5t-26.5 -116.5q0 -45 12 -115l-22 -10q-16 51 -27.5 103t-11.5 104zM207 180l22 17q139 -123 240 -123q68 0 127 25.5t103 68.5t70 101.5t26 123.5q0 25 -5.5 62t-31.5 84l45 26q14 -23 35.5 -30t42.5 -7q37 0 67 35l47 -24q-35 -84 -34 -148q0 -63 24.5 -119.5 t67.5 -99.5t98 -67.5t117 -24.5q135 0 250 110l24 -16q-39 -53 -78 -87t-81 -53.5t-89 -26.5t-102 -7q-78 0 -158.5 21.5t-156.5 87.5q-86 -66 -166 -87.5t-152 -21.5q-53 0 -100 8t-89 28.5t-82 55.5t-81 88zM463 606q0 43 8 78h25q45 -4 86 -25v-61q0 -156 180 -246 q-4 -29 -15.5 -56t-27.5 -50q-57 25 -104.5 61.5t-81 84.5t-52 102.5t-18.5 111.5zM623 946q66 43 127 65.5t127 22.5q131 0 256 -88q-27 -55 -76 -88q-90 61 -176 62q-84 0 -183 -62q-29 16 -45 38t-30 50zM891 723v45q147 18 225 101.5t78 222.5q0 223 -242 303l11 32 q186 -41 274 -157.5t88 -317.5v-32.5t-2 -34.5q160 -63 237.5 -171t77.5 -245q0 -92 -36 -197l-27 9q16 88 16 133q0 61 -25.5 115.5t-68.5 94.5t-101.5 62.5t-123.5 22.5q-82 0 -146.5 -39t-113.5 -107l-47 27q6 20 6 41q0 33 -18.5 56.5t-61.5 35.5zM991 352 q180 90 180 254v24.5t-2 28.5q23 14 55.5 17.5t55.5 3.5q8 -33 8 -76q0 -111 -68.5 -207t-191.5 -151q-14 25 -23.5 51.5t-13.5 54.5z" />
<glyph unicode="&#x262e;" horiz-adv-x="1708" d="M96 723q0 154 58.5 289t160 234.5t236.5 156.5t289 57q160 0 298 -57t240.5 -156.5t160.5 -232.5t58 -285q0 -158 -59 -295t-162.5 -238.5t-243 -160t-296.5 -58.5q-150 0 -284 59.5t-235.5 161t-161 237.5t-59.5 288zM229 719q0 -55 5.5 -96t15.5 -74t25.5 -64.5 t37.5 -68.5l473 430v489q-123 -16 -225 -67t-176 -132t-115 -187.5t-41 -229.5zM383 324q47 -45 92 -82t92 -67t100.5 -49.5t118.5 -29.5v596zM903 100q121 14 219.5 69.5t190.5 154.5l-410 368v-592zM903 846l479 -428q37 66 58.5 141.5t21.5 169.5q0 119 -39 221.5 t-111.5 181t-176 132t-232.5 71.5v-489z" />
<glyph unicode="&#x262f;" horiz-adv-x="1695" d="M102 729q0 168 64.5 304t169 233.5t238 150.5t272.5 53q168 0 306 -60t236.5 -162.5t151.5 -239t53 -287.5q0 -168 -60 -304t-162.5 -233.5t-237 -149.5t-283.5 -52q-166 0 -304 62t-236.5 165.5t-153 239t-54.5 280.5zM500 1337l10 -8q43 12 86 12q84 0 152.5 -31.5 t116.5 -79.5t75 -104.5t27 -107.5q0 -104 -40 -193.5t-139 -187.5q-43 -43 -59 -105.5t-16 -105.5q0 -152 93 -237t263 -85q88 0 174 48.5t153.5 132.5t109.5 196.5t42 241.5q0 135 -50 263t-142 226.5t-221 159t-289 60.5q-92 0 -179 -24t-167 -71zM518 999 q0 -41 26.5 -71.5t73.5 -30.5q45 0 75 30.5t30 71.5q0 37 -28.5 69t-78.5 32q-35 0 -66.5 -28t-31.5 -73zM977 457q0 47 31.5 76.5t66.5 29.5q45 0 75 -32.5t30 -73.5q0 -45 -32 -73t-73 -28q-43 0 -70.5 32t-27.5 69z" />
<glyph unicode="&#x2672;" horiz-adv-x="1882" d="M102 862h433l174 -375l-123 72l-64 -57q-33 -31 -33 -60q0 -51 64 -51h393v-432h-379q-66 0 -92 21.5t-47 58.5l-231 426q-14 25 -19.5 51.5t-5.5 54.5q0 53 14.5 102.5t51.5 88.5zM188 831l97 -65q-39 -37 -60.5 -87t-21.5 -104q0 -59 19.5 -95t51 -55t70.5 -26.5 t76 -7.5h57q-23 16 -22 49q0 41 39 80l86 78l57 -35l-125 268h-324zM268 391l181 -334q18 -33 39.5 -52t68.5 -19h361v379h-486q-35 0 -58.5 2t-41 5t-32.5 8t-32 11zM365 1026l210 340q23 37 56 57.5t86 20.5h497q41 0 56.5 -5t29.5 -28l109 -178l131 78l-172 -393l-432 43 l123 77l-94 166l-254 -379zM408 1032l294 -170l246 371q-39 76 -97 125t-146 49q-59 0 -99 -57zM801 1417q63 -14 105 -67.5t79 -118.5l115 -205l-76 -47l326 -31l137 297l-82 -53l-121 190q-12 20 -26.5 27.5t-38.5 7.5h-418zM1001 160l226 346v-144h223l-236 400l353 209 l194 -361q18 -37 19 -61q0 -23 -7.5 -42.5t-17.5 -37.5l-221 -397q-18 -33 -31.5 -54.5t-27 -35t-31 -18.5t-43.5 -5h-172v-158zM1036 160l166 -266v92h197q18 0 41.5 10t42.5 43l211 385q-66 -61 -138.5 -76.5t-181.5 -15.5h-172v90zM1251 754l236 -392q39 4 84 20.5 t84 42.5t64.5 58.5t25.5 69.5q0 14 -4 26.5t-8 22.5l-183 326z" />
<glyph unicode="&#x2673;" horiz-adv-x="1779" d="M102 213q0 74 50 160l149 268l-94 51l14 27l242 45l86 -229l-17 -31l-96 59l-131 -237q-27 -49 -26 -88q0 -37 27.5 -62.5t92.5 -25.5h406v-150h-436q-123 0 -195 58.5t-72 154.5zM449 897l217 379q45 78 101 111.5t118 33.5q63 0 121.5 -36.5t95.5 -102.5l149 -264 l105 59l12 -28l-90 -230l-248 43l-12 25l100 55l-145 246q-16 29 -40 45t-52 16q-29 0 -55.5 -20.5t-43.5 -50.5l-202 -357zM739 662v116l86 62h101v-594h-113v467zM913 74l160 200l27 -4v-120h262q74 0 107.5 24.5t33.5 65.5q0 39 -33 94l-204 348l137 80l227 -397 q47 -80 47 -150q0 -98 -83 -156.5t-210 -58.5h-286v-121h-33z" />
<glyph unicode="&#x2674;" horiz-adv-x="1779" d="M102 213q0 74 50 160l149 268l-94 51l14 27l242 45l86 -229l-17 -31l-96 59l-131 -237q-27 -49 -26 -88q0 -37 27.5 -62.5t92.5 -25.5h406v-150h-436q-123 0 -195 58.5t-72 154.5zM449 897l217 379q45 78 101 111.5t118 33.5q63 0 121.5 -36.5t95.5 -102.5l149 -264 l105 59l12 -28l-90 -230l-248 43l-12 25l100 55l-145 246q-16 29 -40 45t-52 16q-29 0 -55.5 -20.5t-43.5 -50.5l-202 -357zM674 254v94l219 275q29 31 29 67q0 23 -16.5 41.5t-47.5 18.5q-29 0 -48 -24t-26 -64l-106 12q12 86 63.5 132t116.5 46q74 0 123 -41t49 -119 q0 -29 -10 -60.5t-33 -60.5l-170 -213h203v-104h-346zM913 74l160 200l27 -4v-120h262q74 0 107.5 24.5t33.5 65.5q0 39 -33 94l-204 348l137 80l227 -397q47 -80 47 -150q0 -98 -83 -156.5t-210 -58.5h-286v-121h-33z" />
<glyph unicode="&#x2675;" horiz-adv-x="1779" d="M102 213q0 74 50 160l149 268l-94 51l14 27l242 45l86 -229l-17 -31l-96 59l-131 -237q-27 -49 -26 -88q0 -37 27.5 -62.5t92.5 -25.5h406v-150h-436q-123 0 -195 58.5t-72 154.5zM449 897l217 379q45 78 101 111.5t118 33.5q63 0 121.5 -36.5t95.5 -102.5l149 -264 l105 59l12 -28l-90 -230l-248 43l-12 25l100 55l-145 246q-16 29 -40 45t-52 16q-29 0 -55.5 -20.5t-43.5 -50.5l-202 -357zM674 406l104 14q8 -39 27.5 -55.5t44.5 -16.5q37 0 58.5 25.5t21.5 62.5q0 39 -21.5 58.5t-54.5 19.5h-59v98h53q33 0 54.5 19.5t21.5 48.5 t-20.5 49.5t-49.5 20.5q-23 0 -41 -19.5t-29 -54.5l-106 12q14 72 63.5 118t112.5 46q92 0 134 -51t42 -119q0 -31 -10 -59.5t-45 -55.5q35 -29 47 -61.5t12 -67.5q0 -86 -50 -138t-136 -52q-29 0 -56.5 7t-51 25.5t-41 49t-25.5 76.5zM913 74l160 200l27 -4v-120h262 q74 0 107.5 24.5t33.5 65.5q0 39 -33 94l-204 348l137 80l227 -397q47 -80 47 -150q0 -98 -83 -156.5t-210 -58.5h-286v-121h-33z" />
<glyph unicode="&#x2676;" horiz-adv-x="1779" d="M102 213q0 74 50 160l149 268l-94 51l14 27l242 45l86 -229l-17 -31l-96 59l-131 -237q-27 -49 -26 -88q0 -37 27.5 -62.5t92.5 -25.5h406v-150h-436q-123 0 -195 58.5t-72 154.5zM449 897l217 379q45 78 101 111.5t118 33.5q63 0 121.5 -36.5t95.5 -102.5l149 -264 l105 59l12 -28l-90 -230l-248 43l-12 25l100 55l-145 246q-16 29 -40 45t-52 16q-29 0 -55.5 -20.5t-43.5 -50.5l-202 -357zM633 342v88l196 422h115l-190 -410h118v144h105v-144h45v-100h-45v-84h-105v84h-239zM913 74l160 200l27 -4v-120h262q74 0 107.5 24.5t33.5 65.5 q0 39 -33 94l-204 348l137 80l227 -397q47 -80 47 -150q0 -98 -83 -156.5t-210 -58.5h-286v-121h-33z" />
<glyph unicode="&#x2677;" horiz-adv-x="1779" d="M102 213q0 74 50 160l149 268l-94 51l14 27l242 45l86 -229l-17 -31l-96 59l-131 -237q-27 -49 -26 -88q0 -37 27.5 -62.5t92.5 -25.5h406v-150h-436q-123 0 -195 58.5t-72 154.5zM449 897l217 379q45 78 101 111.5t118 33.5q63 0 121.5 -36.5t95.5 -102.5l149 -264 l105 59l12 -28l-90 -230l-248 43l-12 25l100 55l-145 246q-16 29 -40 45t-52 16q-29 0 -55.5 -20.5t-43.5 -50.5l-202 -357zM684 397l104 21q16 -78 74 -78q27 0 42.5 11t23.5 28.5t11 38t3 39.5q0 39 -13.5 70.5t-58.5 31.5q-20 0 -36.5 -14.5t-30.5 -36.5h-96v332h309 v-103h-209v-96q20 10 39.5 14t40.5 4q78 0 117.5 -51t39.5 -131v-37q0 -84 -45 -141t-137 -57q-63 0 -111.5 32.5t-66.5 122.5zM913 74l160 200l27 -4v-120h262q74 0 107.5 24.5t33.5 65.5q0 39 -33 94l-204 348l137 80l227 -397q47 -80 47 -150q0 -98 -83 -156.5 t-210 -58.5h-286v-121h-33z" />
<glyph unicode="&#x2678;" horiz-adv-x="1779" d="M102 213q0 74 50 160l149 268l-94 51l14 27l242 45l86 -229l-17 -31l-96 59l-131 -237q-27 -49 -26 -88q0 -37 27.5 -62.5t92.5 -25.5h406v-150h-436q-123 0 -195 58.5t-72 154.5zM449 897l217 379q45 78 101 111.5t118 33.5q63 0 121.5 -36.5t95.5 -102.5l149 -264 l105 59l12 -28l-90 -230l-248 43l-12 25l100 55l-145 246q-16 29 -40 45t-52 16q-29 0 -55.5 -20.5t-43.5 -50.5l-202 -357zM694 426q0 29 7.5 61.5t25.5 67.5q35 68 75 141.5t75 143.5h114l-112 -232h12q72 0 117 -52t45 -124q0 -49 -15.5 -86t-41 -59.5t-58.5 -33.5 t-68 -11q-78 0 -127 46t-49 138zM801 428q0 -41 19.5 -63.5t51.5 -22.5q29 0 49.5 22.5t20.5 63.5t-20.5 61.5t-49.5 20.5t-50 -20.5t-21 -61.5zM913 74l160 200l27 -4v-120h262q74 0 107.5 24.5t33.5 65.5q0 39 -33 94l-204 348l137 80l227 -397q47 -80 47 -150 q0 -98 -83 -156.5t-210 -58.5h-286v-121h-33z" />
<glyph unicode="&#x2679;" horiz-adv-x="1779" d="M102 213q0 74 50 160l149 268l-94 51l14 27l242 45l86 -229l-17 -31l-96 59l-131 -237q-27 -49 -26 -88q0 -37 27.5 -62.5t92.5 -25.5h406v-150h-436q-123 0 -195 58.5t-72 154.5zM449 897l217 379q45 78 101 111.5t118 33.5q63 0 121.5 -36.5t95.5 -102.5l149 -264 l105 59l12 -28l-90 -230l-248 43l-12 25l100 55l-145 246q-16 29 -40 45t-52 16q-29 0 -55.5 -20.5t-43.5 -50.5l-202 -357zM692 641v188h352v-90l-200 -503h-115l195 489h-125v-84h-107zM913 74l160 200l27 -4v-120h262q74 0 107.5 24.5t33.5 65.5q0 39 -33 94l-204 348 l137 80l227 -397q47 -80 47 -150q0 -98 -83 -156.5t-210 -58.5h-286v-121h-33z" />
<glyph unicode="&#x267a;" horiz-adv-x="1779" d="M102 213q0 74 50 160l149 268l-94 51l14 27l242 45l86 -229l-17 -31l-96 59l-131 -237q-27 -49 -26 -88q0 -37 27.5 -62.5t92.5 -25.5h406v-150h-436q-123 0 -195 58.5t-72 154.5zM449 897l217 379q45 78 101 111.5t118 33.5q63 0 121.5 -36.5t95.5 -102.5l149 -264 l105 59l12 -28l-90 -230l-248 43l-12 25l100 55l-145 246q-16 29 -40 45t-52 16q-29 0 -55.5 -20.5t-43.5 -50.5l-202 -357zM913 74l160 200l27 -4v-120h262q74 0 107.5 24.5t33.5 65.5q0 39 -33 94l-204 348l137 80l227 -397q47 -80 47 -150q0 -98 -83 -156.5t-210 -58.5 h-286v-121h-33z" />
<glyph unicode="&#x267b;" horiz-adv-x="1820" d="M102 606q0 16 11 47l102 176l-84 41h330l160 -276l-95 55l-147 -268q-35 -55 -51.5 -97t-16.5 -69l-180 311q-29 49 -29 80zM326 1032l170 299q27 35 67.5 63.5t93.5 28.5q74 0 130.5 -38.5t86.5 -79.5l-247 -451zM358 172q0 37 13.5 73t36.5 77h510v-322h-388 q-23 0 -52 9t-56 28.5t-45.5 52.5t-18.5 82zM823 1421h371q57 0 76.5 -12t32.5 -35l94 -168l98 56l-168 -295h-342l107 67l-152 273q-25 43 -56.5 70.5t-60.5 43.5zM961 164l176 280v-122h305q33 0 90 15t104 46l-204 -311q-31 -47 -66 -59.5t-63 -12.5h-166v-119zM1202 836 l309 178l177 -303q31 -51 30 -107q0 -49 -22.5 -90t-57 -70.5t-80 -46t-88.5 -16.5h-16z" />
<glyph unicode="&#x267c;" horiz-adv-x="1712" d="M102 721q0 156 59.5 293t162 239.5t239.5 162t293 59.5t293 -59.5t239.5 -162t162 -239.5t59.5 -293t-59.5 -293t-162 -239.5t-239.5 -162t-293 -59.5t-293 59.5t-239.5 162t-162 239.5t-59.5 293zM242 651q0 -27 20 -61l141 -228q0 41 48 123l112 199l70 -39l-119 205 h-246l62 -29l-78 -131q-10 -16 -10 -39zM414 971l227 -133l184 338q-25 31 -66.5 59.5t-96.5 28.5q-41 0 -73 -19.5t-48 -50.5zM438 330q0 -37 13.5 -62.5t34 -41t42 -21.5t37.5 -6h291v239h-381q-37 -55 -37 -108zM784 1262q23 -10 46.5 -31t41.5 -53l113 -205l-80 -51h256 l127 221l-74 -41l-69 125q-10 18 -24.5 26.5t-55.5 8.5h-281zM889 324l131 -213v88h125q18 0 46 10t50 45l154 231q-35 -20 -79 -33.5t-67 -13.5h-229v94zM1069 825l188 -340h13q33 0 65.5 12.5t59 34t43 52t16.5 67.5q0 18 -4 39t-18 41l-132 227z" />
<glyph unicode="&#x267d;" horiz-adv-x="1712" d="M102 723q0 156 59.5 293t162 239.5t239.5 162t293 59.5t293 -59.5t239.5 -162t162 -239.5t59.5 -293t-59.5 -293t-162 -239.5t-239.5 -162t-293 -59.5t-293 59.5t-239.5 162t-162 239.5t-59.5 293zM141 723q0 -147 56.5 -278.5t154 -227.5t227.5 -152.5t277 -56.5 t278.5 56.5t227.5 152.5t152.5 227.5t56.5 278.5t-56.5 277t-152.5 227.5t-227 154t-279 56.5q-147 0 -277 -56.5t-227.5 -154t-154 -227.5t-56.5 -277zM246 651q0 23 10 39l78 131l-62 29h246l119 -205l-70 39l-112 -199q-47 -82 -47 -123l-142 228q-20 35 -20 61zM418 971 l127 223q16 31 48 50.5t73 19.5q55 0 97 -29t66 -59l-184 -338zM442 330q0 53 37 108h381v-239h-291q-16 0 -37.5 6t-42 21.5t-34 41t-13.5 62.5zM788 1262h281q41 0 55.5 -8.5t24.5 -26.5l70 -125l73 41l-127 -221h-256l80 51l-112 205q-18 33 -42 53t-47 31zM893 324 l131 208v-94h229q23 0 67 13.5t79 33.5l-154 -231q-23 -35 -50.5 -45t-45.5 -10h-125v-88zM1073 825l232 133l131 -227q14 -20 18 -40.5t4 -39.5q0 -37 -16.5 -67.5t-43 -52t-59 -34t-65.5 -12.5h-12z" />
<glyph unicode="&#x2693;" horiz-adv-x="1429" d="M131 432l291 -84l-82 -72q45 -43 86 -68.5t80 -39.5t74.5 -20.5t70.5 -8.5v813h-262v99h262v24q-55 16 -90 65.5t-35 108.5q0 78 54.5 131.5t130.5 53.5q37 0 69.5 -14.5t57 -39t39 -58.5t14.5 -73q0 -59 -32 -103t-83 -65v-30h266v-99h-266v-813h4q68 6 143.5 30 t166.5 107l-82 72l290 84l-43 -311l-77 84q-111 -113 -227.5 -162t-235.5 -59q-119 10 -236 59t-225 162l-78 -84z" />
<glyph unicode="&#x26a0;" horiz-adv-x="1810" d="M100 94q0 37 23 76l678 1200q23 39 49.5 56.5t54.5 17.5q27 0 52.5 -17.5t46.5 -52.5l677 -1204q20 -35 21 -76q0 -41 -25.5 -67.5t-83.5 -26.5h-1382q-59 0 -85 27.5t-26 66.5zM231 133q0 -10 12.5 -14t47.5 -4h1222q35 0 47.5 4t12.5 14t-8.5 23.5t-18.5 29.5 l-608 1078q-18 35 -39 34q-10 0 -20.5 -10t-18.5 -24l-604 -1080q-10 -16 -17.5 -28.5t-7.5 -22.5zM803 242q0 8 4 22.5t15.5 28.5t28.5 23.5t44 9.5q35 0 60.5 -23.5t25.5 -64.5q0 -39 -25.5 -61.5t-60.5 -22.5q-12 0 -28.5 4t-30 13t-23.5 26.5t-10 44.5zM805 981 q0 33 24.5 63.5t65.5 30.5q49 0 73.5 -27.5t24.5 -66.5l-59 -575q-4 -16 -17.5 -26.5t-23.5 -10.5q-12 0 -25.5 10t-15.5 27z" />
<glyph unicode="&#x2706;" horiz-adv-x="884" d="M215 713q0 231 42 374.5t98.5 223.5t111.5 109.5t82 31.5v-426q-53 0 -73.5 -78t-20.5 -256q0 -25 4 -74t14 -99t28.5 -89t47.5 -43v-412q-18 0 -49 12.5t-68 43t-76 84t-70.5 135.5t-51 195.5t-19.5 267.5zM575 -25v412h123q16 0 28.5 -9t12.5 -32v-328q0 -16 -9 -29.5 t-32 -13.5h-123zM575 1026v426h123q16 0 28.5 -12.5t12.5 -28.5v-334q0 -51 -41 -51h-123z" />
<glyph unicode="&#x2708;" horiz-adv-x="1822" d="M96 858h154l131 -172h393l-229 735h194l424 -735h506q51 0 78 -29.5t27 -64.5q0 -33 -26 -60.5t-77 -27.5h-512l-426 -719h-196l235 719h-391l-125 -164h-154l78 260z" />
<glyph unicode="&#x2709;" horiz-adv-x="2191" d="M131 0v1374h1927v-1374h-1927zM254 213l469 463l-469 467v-930zM332 1249l753 -760l750 760h-1503zM346 131h1487l-455 459l-293 -295l-280 278zM1458 690l465 -465v934z" />
<glyph unicode="&#x2713;" horiz-adv-x="1564" d="M131 729q47 41 106.5 58.5t100.5 17.5q27 0 63.5 -48t72.5 -125t64.5 -171t39.5 -187q76 133 186 292t236 312.5t259.5 285.5t258.5 214l30 -35q-72 -55 -154.5 -148t-167.5 -210t-169 -249t-160 -260t-138.5 -245.5t-103.5 -205.5q-74 -16 -127 -33t-79 -33 q-14 59 -36 136t-48.5 159t-57.5 162t-61.5 146.5t-60 110.5t-54.5 56z" />
<glyph unicode="&#x2716;" horiz-adv-x="1519" d="M51 352l359 353l-359 352l355 356l354 -356l354 356l354 -356l-356 -352l356 -353l-354 -356l-354 358l-354 -358z" />
<glyph unicode="&#x271a;" horiz-adv-x="1531" d="M104 446v472h437v446h471v-446h446v-472h-436v-446h-473v446h-445z" />
<glyph unicode="&#x272a;" horiz-adv-x="1630" d="M86 709q0 150 57.5 282.5t155.5 231t230.5 156t283.5 57.5q152 0 284 -57.5t230 -156t155.5 -231t57.5 -282.5q0 -152 -57.5 -284t-155.5 -230.5t-230 -154.5t-284 -56t-284 56t-230 154.5t-155.5 230.5t-57.5 284zM207 874l289 -286l-50 -408l349 189l387 -189l-66 418 l281 276l-406 84l-196 363l-187 -367z" />
<glyph unicode="&#x2794;" horiz-adv-x="1472" d="M55 645v131h1121l-490 488h195l544 -555l-551 -557h-192l494 493h-1121z" />
<glyph unicode="&#xe000;" horiz-adv-x="722" d="M98 233v957q0 61 21.5 107t57.5 78t84 47.5t101 15.5q55 0 103.5 -15.5t84.5 -47.5t56.5 -78t20.5 -107v-957q0 -63 -21.5 -109t-57.5 -77t-84 -46t-102 -15q-53 0 -101 15t-84 46t-57.5 77t-21.5 109zM184 231q0 -76 50.5 -119.5t127.5 -43.5q78 0 127.5 44t49.5 119 v961q0 76 -49.5 120t-127.5 44t-128 -44t-50 -120v-961z" />
<glyph unicode="&#xe001;" horiz-adv-x="557" d="M80 1174v98l215 153h92v-1423h-88v1327z" />
<glyph unicode="&#xe002;" horiz-adv-x="722" d="M98 0v82l394 790q33 66 43 129.5t10 135.5q0 41 -7.5 80.5t-26.5 70.5t-54 49.5t-92 18.5q-72 0 -126.5 -53.5t-54.5 -180.5l-86 15q4 152 75 226.5t196 74.5q143 0 205.5 -83t62.5 -218q0 -98 -18.5 -170t-57.5 -148l-366 -737h430v-82h-527z" />
<glyph unicode="&#xe003;" horiz-adv-x="722" d="M96 266l88 25q0 -102 38 -162.5t136 -60.5q78 0 129.5 43t51.5 147v238q0 115 -48.5 159.5t-121.5 44.5h-56v84h60q72 0 119 42t47 151v203q0 76 -41 125t-136 49q-94 0 -136 -61.5t-42 -155.5q-23 4 -44 7t-44 7q2 129 70 208t203 79q74 0 123 -19.5t78.5 -55.5t42 -86 t12.5 -110v-188q-2 -37 -7.5 -72t-19.5 -66.5t-38.5 -56t-65.5 -39.5v-2q45 -16 71.5 -42.5t39.5 -62.5t16.5 -79t3.5 -88v-211q0 -129 -68 -201.5t-201 -72.5q-115 0 -187.5 66.5t-72.5 213.5z" />
<glyph unicode="&#xe004;" horiz-adv-x="722" d="M53 248v80l297 1097h88l-301 -1097h336v399h88v-399h117v-80h-117v-246h-88v246h-420z" />
<glyph unicode="&#xe005;" horiz-adv-x="722" d="M100 276l88 15q0 -100 38 -161.5t141 -61.5q78 0 127 44t49 148l2 393q0 94 -49.5 135t-126.5 41q-53 0 -99.5 -22.5t-64.5 -63.5h-82v682h504v-77h-424v-508h6q66 66 186 65q113 0 175.5 -62.5t62.5 -166.5l-2 -414q-2 -131 -67.5 -203.5t-198.5 -72.5q-119 0 -191 69.5 t-74 220.5z" />
<glyph unicode="&#xe006;" horiz-adv-x="722" d="M98 236v264q0 68 9.5 116t25.5 89l277 720h88q-14 -35 -38 -97t-51.5 -136t-56 -149.5t-52.5 -138t-39 -104.5t-17 -46l6 -2q23 23 60.5 38t74.5 15q111 0 176.5 -64.5t65.5 -181.5v-323q0 -63 -21.5 -109.5t-57.5 -77.5t-84 -46t-102 -15q-53 0 -101 15t-84 46t-57.5 77 t-21.5 110zM184 229q0 -76 50.5 -118.5t127.5 -42.5q78 0 127.5 43t49.5 118v332q0 76 -49.5 119t-127.5 43q-43 0 -76.5 -17.5t-56 -45t-34 -63.5t-11.5 -73v-295z" />
<glyph unicode="&#xe007;" horiz-adv-x="634" d="M45 1171v254h549v-73l-385 -1352h-86l383 1348h-383v-177h-78z" />
<glyph unicode="&#xe008;" horiz-adv-x="722" d="M98 233v291q0 80 34 133.5t89 81.5q-55 29 -89 82t-34 135v234q0 61 21.5 107t57.5 78t84 47.5t101 15.5t101.5 -15.5t84.5 -47.5t57.5 -78t21.5 -107v-234q0 -82 -35 -135t-88 -82q53 -29 88 -82t35 -133v-291q0 -63 -21.5 -109t-57.5 -77t-84 -46t-102 -15 q-53 0 -101 15t-84 46t-57.5 77t-21.5 109zM184 229q0 -76 50.5 -118.5t127.5 -42.5q78 0 127.5 43t49.5 118v308q0 74 -49.5 118.5t-127.5 46.5q-78 0 -128 -45t-50 -120v-308zM184 944q0 -76 50.5 -120t127.5 -44q78 0 127.5 44t49.5 120v250q0 76 -49.5 119t-127.5 43 t-128 -43t-50 -119v-250z" />
<glyph unicode="&#xe009;" horiz-adv-x="722" d="M98 866v324q0 63 21.5 109.5t57.5 77t84 46t101 15.5q113 0 189 -60.5t76 -187.5v-264q0 -68 -10.5 -116t-24.5 -89l-277 -721h-90q14 35 38 97.5t51.5 136t56 149.5t52 138.5t39 104.5t17.5 46l-6 2q-23 -23 -60.5 -38t-74.5 -15q-111 0 -175.5 64.5t-64.5 180.5z M184 864q0 -76 49.5 -119t126.5 -43q43 0 77 17.5t56.5 45.5t34 63.5t11.5 72.5v295q0 76 -49.5 119t-127.5 43t-128 -43t-50 -119v-332z" />
<glyph unicode="&#xe00a;" horiz-adv-x="722" d="M6 457v61h131l74 397h-111v64h123l88 459h68l-88 -459h237l86 459h68l-88 -459h121v-64h-133l-74 -397h108v-61h-120l-86 -457h-66l86 457h-240l-84 -457h-67l86 457h-119zM203 518h237l76 397h-237z" />
<glyph unicode="&#xe00b;" horiz-adv-x="722" d="M37 291l90 18q0 -45 10 -87t35 -73.5t63.5 -53t96.5 -25.5v645q-94 43 -150.5 85t-86 85t-39 91t-9.5 105q0 74 16.5 136.5t51.5 109.5t89 75t128 34v184h57v-182q84 -4 139.5 -32t89 -70t47 -93t13.5 -100l-88 -23q0 92 -45 159t-156 75v-568l25 -10q92 -39 145 -79 t80 -86t33 -104t6 -134q0 -84 -14.5 -152.5t-48 -120t-89 -81t-137.5 -33.5v-199h-57v199q-158 8 -225.5 93t-69.5 212zM137 1083q0 -47 8.5 -82.5t29 -66.5t58 -60.5t99.5 -60.5v539q-61 -6 -99 -33t-59.5 -64.5t-29 -83t-7.5 -88.5zM389 70q66 6 104.5 31.5t60 66.5 t28 93.5t6.5 109.5q0 68 -6.5 113.5t-25.5 80.5t-59 63.5t-108 61.5v-620z" />
<glyph unicode="&#xe00c;" horiz-adv-x="739" d="M47 594v61h74v150h-74v59h74v252q0 154 79 238t216 84q121 0 202.5 -62.5t92.5 -191.5l-86 -17q-10 98 -67.5 143.5t-141.5 45.5q-98 0 -153.5 -63.5t-55.5 -172.5v-256h352v-59h-352v-150h352v-61h-352v-305q0 -104 57.5 -162.5t151.5 -58.5q82 0 140 44t69 144l90 -14 q-6 -68 -33 -116t-67 -79t-91 -46t-108 -15q-61 0 -115.5 17t-94.5 54t-62.5 94.5t-22.5 135.5v307h-74z" />
<glyph unicode="&#xe00d;" horiz-adv-x="722" d="M-25 -176l25 74q37 -10 70 -11q84 0 131 65.5t67 231.5l70 570h-158v77h166l31 263q18 156 78.5 248t195.5 92q49 0 99 -17l-21 -78q-18 6 -39.5 10.5t-40.5 4.5q-70 0 -122 -56.5t-68 -205.5l-31 -261h188v-77h-198l-66 -566q-23 -195 -87 -286.5t-189 -91.5 q-23 0 -49.5 3t-51.5 11z" />
<glyph unicode="&#xe00e;" horiz-adv-x="722" d="M25 662v75h120q-10 59 -26.5 115.5t-30.5 107t-24.5 96.5t-10.5 87q0 135 77 216t216 81q61 0 116.5 -17.5t96.5 -54.5t63.5 -94t22.5 -137l-88 -21q2 125 -55.5 183.5t-155.5 58.5q-96 0 -148.5 -57.5t-52.5 -149.5q0 -49 10.5 -96t25 -96.5t28.5 -103.5t24 -118h220 v-75h-211q2 -16 3 -37t1 -37q0 -158 -32 -274.5t-87 -231.5h496v-82h-594v82q61 115 95 239.5t34 268.5q0 35 -6 72h-127z" />
<glyph unicode="&#xe00f;" horiz-adv-x="696" d="M84 489q0 55 1 110.5t4 105t9 89.5t15 64q23 66 77 108t148 48v227h53v-227q119 -4 182.5 -72t63.5 -190q-23 -4 -45.5 -7.5t-44.5 -7.5v6q0 86 -41 135.5t-115 55.5v-868q20 4 31 8q121 25 125 186l90 -16q-4 -123 -68.5 -186.5t-177.5 -69.5v-221h-53v221 q-113 6 -167 58t-69 118q-6 25 -10 63.5t-5 83.5t-2 91.5t-1 86.5zM172 451q0 -37 1 -76t3 -76t5 -68t9 -49q35 -104 148 -116v868l-23 -6q-82 -12 -118 -101q-16 -39 -19.5 -133t-5.5 -217v-26z" />
<glyph unicode="&#xe010;" horiz-adv-x="722" d="M45 1425h86l225 -708h6l226 708h88l-260 -780h233v-61h-248v-150h248v-63h-248v-371h-82v371h-235v63h235v150h-235v61h219z" />
<glyph unicode="&#xe024;" horiz-adv-x="722" d="M98 233v537q0 61 21.5 107.5t57.5 78t84 47t101 15.5t101.5 -15.5t84.5 -47t57.5 -78t21.5 -107.5v-537q0 -63 -21.5 -109t-57.5 -77t-84 -46t-102 -15q-53 0 -101 15t-84 46t-57.5 77t-21.5 109zM184 229q0 -76 50.5 -117.5t127.5 -41.5q78 0 127.5 42t49.5 117v545 q0 76 -49.5 119t-127.5 43t-128 -43t-50 -119v-545z" />
<glyph unicode="&#xe025;" horiz-adv-x="722" d="M84 0v82h238v823l-220 -155v98l215 153h93v-919h235v-82h-561z" />
<glyph unicode="&#xe026;" horiz-adv-x="722" d="M76 729q0 63 19.5 116.5t56 92.5t89 59.5t113.5 20.5q131 0 203 -69.5t72 -198.5q0 -66 -21.5 -130.5t-68.5 -123.5q-25 -35 -70 -89.5t-95 -115t-99.5 -116.5t-81.5 -93h454v-82h-569v80q55 61 115.5 132t116 137.5t97.5 119.5t60 78q41 55 55.5 109.5t14.5 88.5 q0 82 -47.5 136.5t-139.5 54.5q-37 0 -69.5 -13.5t-59 -41t-42 -69.5t-15.5 -99z" />
<glyph unicode="&#xe027;" horiz-adv-x="722" d="M104 -74l84 15q-2 -96 37 -153.5t133 -57.5q74 0 123 42t49 138v223q0 106 -46 149.5t-115 43.5h-56v77h60q70 0 113.5 41t43.5 142v188q0 72 -37.5 118t-130.5 46q-92 0 -133 -58.5t-41 -146.5l-84 15q2 121 67 195.5t198 74.5q139 0 193 -70.5t54 -183.5v-135 q0 -37 -2 -77t-14 -76t-37.5 -64.5t-70.5 -44.5q84 -31 104 -93.5t20 -150.5v-211q0 -123 -65.5 -191.5t-194.5 -68.5q-115 0 -185.5 64.5t-66.5 209.5z" />
<glyph unicode="&#xe028;" horiz-adv-x="722" d="M57 0v76q74 231 148 461.5t145 463.5h86q-76 -233 -148.5 -462.5t-148.5 -462.5h326v375h86v-375h111v-76h-111v-336h-86v336h-408z" />
<glyph unicode="&#xe029;" horiz-adv-x="722" d="M102 -76l86 13q0 -94 37 -152.5t135 -58.5q74 0 123 42t49 138v368q0 90 -48 128t-119 38q-53 0 -98.5 -21.5t-63.5 -58.5h-78v641h487v-73h-409v-477h4q29 29 77 46t105 17q111 0 171.5 -59.5t60.5 -157.5v-389q0 -123 -67 -190.5t-196 -67.5q-115 0 -184.5 65.5 t-71.5 208.5z" />
<glyph unicode="&#xe02a;" horiz-adv-x="722" d="M104 219v248q0 53 7.5 94t19.5 76l29 82l246 618h86q-39 -102 -77 -200.5t-79 -200.5q-23 -57 -45.5 -114.5t-44.5 -112.5q2 -2 6 -2q23 20 59.5 33.5t71.5 13.5q109 0 171 -60.5t62 -169.5v-305q0 -59 -20.5 -103t-56 -73t-81.5 -43t-98 -14q-51 0 -97 14t-82 43 t-56.5 73t-20.5 103zM190 215q0 -72 47.5 -112t122.5 -40q74 0 122 40t48 112v309q0 72 -48 112t-122 40q-43 0 -74.5 -16.5t-53 -42t-32 -59.5t-10.5 -69v-274z" />
<glyph unicode="&#xe02b;" horiz-adv-x="722" d="M96 762v239h533v-69l-373 -1270h-84l369 1266h-371v-166h-74z" />
<glyph unicode="&#xe02c;" horiz-adv-x="722" d="M104 221v273q0 74 33 124t86 76q-53 29 -86 78t-33 127v219q0 57 20.5 101.5t56.5 74t82 44t97 14.5t98.5 -14.5t83.5 -44t56 -73.5t20 -102v-219q0 -78 -32.5 -127t-85.5 -78q53 -27 85.5 -77t32.5 -123v-273q0 -59 -20 -104t-56 -74t-83 -43t-99 -14q-51 0 -97 14 t-82 43t-56.5 74t-20.5 104zM190 217q0 -72 48.5 -111.5t121.5 -39.5q74 0 122 39.5t48 111.5v289q0 68 -46 109.5t-124 43.5q-74 0 -122 -42t-48 -111v-289zM190 889q0 -72 48.5 -113t121.5 -41q74 0 122 41t48 113v233q0 70 -48 111t-122 41t-122 -41t-48 -111v-233z" />
<glyph unicode="&#xe02d;" horiz-adv-x="722" d="M104 479v303q0 59 20.5 103.5t56.5 73t82 43t97 14.5q111 0 183.5 -56.5t72.5 -177.5v-250q0 -61 -9 -106t-23 -84q-6 -14 -11.5 -28.5t-11.5 -30.5l-246 -617h-86q59 160 122 315.5t124 313.5h-4q-23 -18 -60.5 -32.5t-72.5 -14.5q-106 0 -170 61.5t-64 169.5zM190 477 q0 -72 47.5 -112.5t120.5 -40.5q43 0 75 16t53.5 43t32.5 60.5t11 68.5v276q0 72 -47 112t-123 40q-74 0 -122 -40t-48 -112v-311z" />
<glyph unicode="&#xe02e;" horiz-adv-x="722" d="M43 389v51h117l67 338h-100v53h111l79 392h62l-80 -392h213l78 392h61l-78 -392h107v-53h-119l-67 -338h98v-51h-109l-77 -389h-60l78 389h-215l-76 -389h-61l78 389h-107zM221 440h213l68 338h-213z" />
<glyph unicode="&#xe02f;" horiz-adv-x="722" d="M72 246l82 16q0 -78 41 -136t141 -67v547q-84 37 -134 72t-78 71.5t-36 77.5t-8 91q0 125 61.5 208.5t194.5 94.5v155h53v-155q76 -4 126 -28t80 -59.5t42 -78.5t12 -84q-20 -6 -39.5 -10.5t-40.5 -8.5q0 76 -40 132.5t-140 62.5v-479q80 -29 130 -61t79 -72.5t40 -94 t11 -125.5q0 -141 -57 -229t-203 -96v-170h-53v170q-141 6 -201.5 77.5t-62.5 178.5zM164 920q0 -39 7 -70t25.5 -57.5t52.5 -51t87 -49.5v453q-53 -4 -87 -26.5t-52.5 -54.5t-25.5 -69.5t-7 -74.5zM389 59q57 6 93 29t55.5 56.5t25.5 77.5t6 91q0 57 -5 96.5t-23.5 69 t-54 54t-97.5 53.5v-527z" />
<glyph unicode="&#xe030;" horiz-adv-x="722" d="M59 504v55h68v123h-68v53h68v211q0 131 70.5 204t195.5 73q109 0 182.5 -53.5t81.5 -163.5l-79 -15q-8 84 -60.5 122t-126.5 38q-88 0 -137 -52t-49 -145v-219h317v-53h-317v-123h317v-55h-317v-258q0 -88 51 -137.5t135 -49.5q74 0 126 37t61 123l84 -12q-6 -57 -29 -98 t-58.5 -68t-83 -40t-98.5 -13q-113 0 -189.5 62.5t-76.5 195.5v258h-68z" />
<glyph unicode="&#xe031;" horiz-adv-x="722" d="M-12 -244l20 68q41 -10 72 -10q78 0 124 61.5t66 216.5l68 537h-154v73h162l31 246q8 72 26.5 131.5t49 101.5t78 64.5t112.5 22.5q49 0 92 -17l-16 -71q-45 10 -78 10q-68 0 -119 -51.5t-67 -192.5l-29 -244h182v-73h-192l-64 -531q-23 -184 -85 -271t-183 -87 q-23 0 -48.5 4t-47.5 12z" />
<glyph unicode="&#xe032;" horiz-adv-x="722" d="M80 561v66h108q-8 43 -18 82t-23 75q-16 53 -28.5 99.5t-12.5 87.5q0 115 70 183.5t195 68.5q117 0 190.5 -63.5t79.5 -194.5l-80 -19q0 104 -51 155.5t-137 51.5t-133 -49t-47 -127q0 -39 9 -78t21.5 -82t25.5 -90t23 -100h197v-66h-190q2 -16 3 -30.5t1 -30.5 q0 -135 -29 -234.5t-78 -197.5h445v-68h-537v68q55 98 87 204.5t32 229.5q0 14 -2 28.5t-4 30.5h-117z" />
<glyph unicode="&#xe033;" horiz-adv-x="722" d="M111 438v74q0 45 1 92t4 89t7 77t12 55q23 55 71 91t130 42v193h47v-190q109 -4 168 -62.5t59 -163.5q-23 -4 -42 -7t-40 -5q0 147 -145 158v-717q68 4 104.5 40t40.5 113l82 -14q-4 -104 -63.5 -158.5t-163.5 -60.5v-186h-47v186q-96 6 -144.5 52t-64.5 100q-6 20 -9 54 t-5 71.5t-2 76.5zM193 477q0 -59 3 -121.5t13 -95.5q14 -41 46 -66.5t81 -29.5v715q-33 -2 -54.5 -12.5t-35 -24t-21.5 -29.5t-14 -33q-10 -35 -13 -109.5t-5 -172.5v-21z" />
<glyph unicode="&#xe034;" horiz-adv-x="722" d="M76 1212h78q53 -154 102 -302t102 -300h2q51 152 102.5 300.5t100.5 301.5h82q-59 -168 -117.5 -332.5t-117.5 -332.5h211v-53h-224v-125h224v-56h-224v-313h-75v313h-209v56h209v125h-209v53h196z" />
<glyph unicode="&#xe059;" horiz-adv-x="1032" d="M51 629v442q0 76 51.5 112t120.5 36q70 0 121 -36t51 -112v-442q0 -76 -51 -112t-121 -36t-121 36t-51 112zM125 625q0 -37 26.5 -58.5t71.5 -21.5t72 21.5t27 58.5v448q0 39 -27 60.5t-72 21.5t-71.5 -21.5t-26.5 -60.5v-448zM199 -29l579 1272h60l-578 -1272h-61z M637 141v443q0 76 51 111.5t121 35.5t121 -36t51 -111v-443q0 -76 -51 -111.5t-121 -35.5t-121 36t-51 111zM711 137q0 -37 26.5 -58.5t71.5 -21.5t71.5 21.5t26.5 58.5v449q0 39 -26.5 60.5t-71.5 21.5t-71.5 -21.5t-26.5 -60.5v-449z" />
<glyph unicode="&#xe05a;" horiz-adv-x="1445" d="M51 629v442q0 76 51.5 112t120.5 36q70 0 121 -36t51 -112v-442q0 -76 -51 -112t-121 -36t-121 36t-51 112zM125 625q0 -37 26.5 -58.5t71.5 -21.5t72 21.5t27 58.5v448q0 39 -27 60.5t-72 21.5t-71.5 -21.5t-26.5 -60.5v-448zM199 -29l579 1272h60l-578 -1272h-61z M637 141v443q0 76 51 111.5t121 35.5t121 -36t51 -111v-443q0 -76 -51 -111.5t-121 -35.5t-121 36t-51 111zM711 137q0 -37 26.5 -58.5t71.5 -21.5t71.5 21.5t26.5 58.5v449q0 39 -26.5 60.5t-71.5 21.5t-71.5 -21.5t-26.5 -60.5v-449zM1051 141v443q0 76 51 111.5t121 35.5 t121 -36t51 -111v-443q0 -76 -51.5 -111.5t-120.5 -35.5q-70 0 -121 36t-51 111zM1124 137q0 -37 27 -58.5t72 -21.5t71.5 21.5t26.5 58.5v449q0 39 -26.5 60.5t-71.5 21.5t-72 -21.5t-27 -60.5v-449z" />
<glyph unicode="&#xe06c;" horiz-adv-x="483" d="M27 756q0 39 10 76.5t32.5 68.5t61.5 49.5t96 18.5h125v92q0 49 -21.5 81t-92.5 32q-41 0 -74 -24t-45 -58l-78 26q23 57 73 92t128 35q92 0 142 -39t50 -141v-492h-82v45q-31 -35 -71.5 -44t-79.5 -9q-47 0 -81 16.5t-54.5 42t-29.5 60.5t-9 72zM106 756q0 -49 27 -84 t92 -35q57 0 92 29.5t35 83.5v147h-108q-59 0 -98.5 -31.5t-39.5 -109.5z" />
<glyph unicode="&#xe06d;" horiz-adv-x="489" d="M47 571v975h82v-377q29 41 69 57.5t74 16.5q70 0 107 -26.5t55 -67.5q12 -29 15.5 -75t3.5 -97v-107q0 -33 -1 -68.5t-6 -76.5q-4 -49 -22 -81t-45 -49t-55.5 -24.5t-55.5 -7.5q-41 0 -77.5 13.5t-63.5 46.5v-52h-80zM127 764q0 -55 34 -92t93 -37q37 0 65.5 17.5 t40.5 58.5q8 23 10.5 70.5t2.5 105.5q0 66 -3 128t-14 89q-23 68 -98 67q-47 0 -81 -28.5t-44 -67.5q-6 -29 -6 -51v-260z" />
<glyph unicode="&#xe06f;" horiz-adv-x="491" d="M39 786.5v59.5v110q0 55 3 99.5t13 74.5q16 47 56.5 80t119.5 33q53 0 82 -17.5t49 -41.5v362h80v-975h-80v56q-23 -29 -58.5 -46.5t-82.5 -17.5q-27 0 -56.5 7.5t-55 24.5t-44 49t-22.5 81q-4 31 -4 61.5zM121 842q0 -90 8 -125q12 -45 39 -63.5t68 -18.5q59 0 92.5 37 t33.5 92v254q0 59 -27.5 105t-96.5 46q-37 0 -66 -20.5t-41 -56.5q-8 -27 -9 -72t-1 -102v-76z" />
<glyph unicode="&#xe070;" horiz-adv-x="481" d="M39 839.5v55.5q0 72 4 139.5t18 100.5q18 47 64.5 78.5t120.5 31.5q86 0 136 -43t54 -123q2 -14 2 -28.5v-30.5v-135h-317v-35q0 -41 1 -85t9 -65q12 -31 38 -49t69 -18q59 0 86.5 34.5t31.5 86.5q20 -4 39 -8.5t41 -8.5q-8 -86 -60 -131t-136 -45q-90 0 -134.5 37 t-54.5 84q-4 18 -7 44t-4 54.5t-1 59zM121 950h235v113q0 45 -26.5 76.5t-87.5 31.5q-31 0 -62 -15t-45 -50q-10 -25 -12 -63.5t-2 -92.5z" />
<glyph unicode="&#xe071;" horiz-adv-x="481" d="M39 839.5v55.5q0 72 4 139.5t18 100.5q18 47 64.5 78.5t120.5 31.5q86 0 136 -43t54 -123q2 -14 2 -28.5v-30.5v-135h-317v-35q0 -41 1 -85t9 -65q12 -31 38 -49t69 -18q59 0 86.5 34.5t31.5 86.5q20 -4 39 -8.5t41 -8.5q-8 -86 -60 -131t-136 -45q-90 0 -134.5 37 t-54.5 84q-4 18 -7 44t-4 54.5t-1 59zM100 1487l78 26l98 -210l-45 -19zM121 950h235v113q0 45 -26.5 76.5t-87.5 31.5q-31 0 -62 -15t-45 -50q-10 -25 -12 -63.5t-2 -92.5z" />
<glyph unicode="&#xe073;" horiz-adv-x="507" d="M53 573v975h80v-379q23 35 59.5 55.5t81.5 20.5q100 0 139.5 -54t39.5 -130v-488h-80v467q0 53 -23.5 91t-91.5 38q-61 0 -94 -43t-33 -96v-457h-78z" />
<glyph unicode="&#xe074;" horiz-adv-x="217" d="M68 573v662h79v-662h-79zM68 1370v84h82v-84h-82z" />
<glyph unicode="&#xe077;" horiz-adv-x="237" d="M59 719v827h80v-813q0 -47 15.5 -72.5t62.5 -25.5h27v-72h-31q-76 0 -115 33t-39 123z" />
<glyph unicode="&#xe078;" horiz-adv-x="815" d="M59 573v662h80v-55q49 66 137 65q63 0 98.5 -23.5t55.5 -64.5q27 41 64.5 64.5t89.5 23.5q96 0 134 -54t38 -130v-488h-78v467q0 59 -25.5 94t-85.5 35q-59 0 -90 -43t-31 -94v-459h-77v467q0 59 -26 94t-85 35t-91 -43t-32 -96v-457h-76z" />
<glyph unicode="&#xe079;" horiz-adv-x="493" d="M41 837.5v57.5q0 70 3 137.5t15 102.5q16 47 65.5 78.5t123.5 31.5q80 0 123 -29.5t59 -74.5q14 -35 17.5 -101.5t3.5 -126.5v-39q0 -35 -1 -69.5t-6 -75.5q-4 -49 -23.5 -81t-48 -51t-62.5 -27.5t-66 -8.5q-88 0 -131 35t-60 88q-4 14 -7 40t-4 54.5t-1 59zM119 879 q0 -63 2 -109.5t10 -69.5q10 -33 38 -50t77 -17q31 0 56.5 9t39.5 32q10 12 16 33q8 25 10.5 76t2.5 104v62.5t-2 61t-4.5 54.5t-6.5 39q-10 35 -40.5 51t-71.5 16q-35 0 -63.5 -12t-45.5 -47q-10 -27 -13 -80t-5 -125v-28z" />
<glyph unicode="&#xe07c;" horiz-adv-x="329" d="M72 573v662h75v-70q25 39 65 59.5t81 20.5h17.5t21.5 -2v-88q-16 4 -26.5 5t-16.5 1q-66 0 -104 -43t-38 -121v-424h-75z" />
<glyph unicode="&#xe07d;" horiz-adv-x="456" d="M29 745l80 13q0 -57 29.5 -90t86.5 -33q66 0 91.5 30.5t25.5 84.5q0 53 -23.5 79.5t-97.5 55.5q-106 39 -144 83t-38 103q0 76 47 125t147 49q92 0 142.5 -47t50.5 -135l-82 -14q2 59 -28.5 90.5t-84.5 31.5q-68 0 -89 -31.5t-21 -68.5q0 -39 26.5 -64.5t112.5 -56.5 q102 -37 132 -85t30 -113q0 -82 -44 -135.5t-153 -53.5q-92 0 -143 46t-53 136z" />
<glyph unicode="&#xe07e;" horiz-adv-x="309" d="M18 1169v66h78v176h80v-176h103v-66h-103v-436q0 -41 13.5 -65.5t58.5 -24.5h37v-70h-45q-145 0 -146 154v442h-76z" />
<glyph unicode="&#xe0d8;" horiz-adv-x="442" d="M111 674q0 117 17 233.5t50 226t78 208t100 182.5l41 -19q-96 -180 -151.5 -395t-55.5 -426q0 -229 57.5 -446.5t149.5 -391.5l-37 -20q-53 80 -98 176t-78.5 204.5t-53 226.5t-19.5 241z" />
<glyph unicode="&#xe0d9;" horiz-adv-x="442" d="M111 -152q92 174 148 389.5t56 444.5q0 211 -55 427t-149 396l41 19q55 -84 100 -183.5t76.5 -209t50 -226.5t18.5 -233q0 -121 -19.5 -239t-53 -226.5t-79.5 -204.5t-98 -176z" />
<glyph unicode="&#xe0da;" horiz-adv-x="657" d="M100 606v84h480v-84h-480z" />
<glyph unicode="&#xe0db;" horiz-adv-x="403" d="M127 -160v1647h240v-66h-156v-1515h156v-66h-240z" />
<glyph unicode="&#xe0dc;" horiz-adv-x="403" d="M94 -94h156v1515h-156v66h238v-1647h-238v66z" />
<glyph unicode="&#xe0dd;" horiz-adv-x="436" d="M61 639v51q41 10 67 37t39 63.5t18 82t5 90.5v276q0 16 1.5 31.5t3.5 32.5q6 90 51 137t119 47h36v-57h-28q-37 0 -58.5 -18.5t-33 -48.5t-14.5 -63.5t-3 -64.5v-274q0 -127 -37 -202t-84 -91v-4q53 -16 87 -88t34 -191v-297q0 -29 3 -62.5t14.5 -62.5t33 -47t58.5 -18 h28v-60h-36q-80 0 -127.5 55.5t-47.5 155.5v285q0 133 -21.5 207.5t-107.5 97.5z" />
</font>
</defs>
</svg>
